<svg width="20" height="20" viewBox="0 0 20 20" fill="none" xmlns="http://www.w3.org/2000/svg">
<path fill-rule="evenodd" clip-rule="evenodd" d="M0 0H3H20V2H18V19C18 19.2652 17.8946 19.5196 17.7071 19.7071C17.5196 19.8946 17.2652 20 17 20H3C2.73478 20 2.48043 19.8946 2.29289 19.7071C2.10536 19.5196 2 19.2652 2 19V2H0V0ZM8 12C8 12.14 8.16 13 10 13C11.38 13 12 12.32 12 12C12 11.68 12 11 10 11C6.52 11 6 9.12 6 8C6 6.71 7 5.42 9 5.09V4H11V5.12C11.6676 5.25614 12.269 5.61551 12.7053 6.13896C13.1415 6.66241 13.3865 7.31876 13.4 8H11.4C11.39 7.64 11.3 7 10 7C8.7 7 8 7.63 8 8C8 8.37 8 9 10 9C13.48 9 14 10.88 14 12C14 13.29 13 14.58 11 14.92V16H9V14.92C6.66 14.55 6 12.92 6 12H8Z" fill="#28EBA8"/>
</svg>
