<svg width="22" height="20" viewBox="0 0 22 20" fill="none" xmlns="http://www.w3.org/2000/svg">
<path d="M4.13333 0.266667C4.19543 0.183869 4.27595 0.116667 4.36852 0.0703819C4.46109 0.0240967 4.56317 0 4.66667 0H16.6667C16.7702 0 16.8722 0.0240967 16.9648 0.0703819C17.0574 0.116667 17.1379 0.183869 17.2 0.266667L21.168 5.56533C21.3667 5.812 21.376 6.16533 21.1813 6.424L11.2 19.7333C11.1379 19.8161 11.0574 19.8833 10.9648 19.9296C10.8722 19.9759 10.7702 20 10.6667 20C10.5632 20 10.4611 19.9759 10.3685 19.9296C10.276 19.8833 10.1954 19.8161 10.1333 19.7333L0.133333 6.4C0.0467852 6.2846 0 6.14425 0 6C0 5.85575 0.0467852 5.7154 0.133333 5.6L4.13333 0.266667ZM19.3147 5.31333L16.9067 2.1L15.872 5.31733L19.3147 5.31333ZM14.4707 5.31867L15.752 1.33333H5.58133L6.86533 5.32667L14.4707 5.31867ZM7.29333 6.66L10.6667 17.1547L14.0427 6.65333L7.29333 6.66ZM5.46533 5.328L4.42533 2.09867L2.00133 5.332L5.46533 5.328ZM1.99867 6.66667L8.816 15.756L5.89333 6.66267L2 6.66667H1.99867ZM12.5173 15.756L19.348 6.64933L15.444 6.652L12.5173 15.756Z" fill="white"/>
</svg>
