<svg width="20" height="18" viewBox="0 0 20 18" fill="none" xmlns="http://www.w3.org/2000/svg">
<path d="M16.8576 0L20 5.55556H16.4896L14.0868 0H16.8576ZM12.4132 0L14.816 5.55556H5.18403L7.58681 0H12.4132ZM3.14236 0H5.91319L3.51042 5.55556H0L3.14236 0ZM0 6.66667H3.49653L7.76736 15.4063C7.81944 15.5139 7.67361 15.6111 7.59375 15.5208L0 6.66667ZM5.14583 6.66667H14.8542L10.0972 17.7153C10.0625 17.7986 9.94097 17.7986 9.90625 17.7153L5.14583 6.66667ZM12.2326 15.4063L16.5035 6.66667H20L12.4062 15.5174C12.3264 15.6111 12.1806 15.5139 12.2326 15.4063Z" fill="#28EBA8"/>
</svg>
