<svg width="20" height="16" viewBox="0 0 20 16" fill="none" xmlns="http://www.w3.org/2000/svg">
<path d="M17.8333 1.11111V1.61111H18.3333H18.8889C19.227 1.61111 19.5 1.88452 19.5 2.22222V5C19.5 5.3374 19.2263 5.61111 18.8889 5.61111H16.6667H16.4598L16.3134 5.75722L15.5263 6.54288L15.5261 6.54304C15.4111 6.65797 15.2557 6.72222 15.0938 6.72222H13.8403H13.4795L13.3658 7.06459L12.5156 9.62371C12.5156 9.62379 12.5156 9.62387 12.5155 9.62395C12.3186 10.214 11.7686 10.6111 11.1451 10.6111H7.86111H7.4765L7.37784 10.9829L6.41362 14.6161C6.33724 14.8766 6.09857 15.0556 5.82708 15.0556H2.22292C1.81736 15.0556 1.52375 14.6657 1.63522 14.2761L1.6354 14.2761L1.63879 14.2629L3.05012 8.76887C3.33864 7.74209 2.56688 6.72222 1.49896 6.72222C0.94687 6.72222 0.5 6.27549 0.5 5.72431V2.61111C0.5 2.05821 0.947549 1.61111 1.49896 1.61111H16.6667H17.1667V1.11111V0.833333C17.1667 0.648515 17.3149 0.5 17.5 0.5C17.6851 0.5 17.8333 0.648516 17.8333 0.833333V1.11111ZM11.8791 9.41949L11.8791 9.41949L11.8806 9.41496L12.5584 7.38024L12.7776 6.72222H12.084H8.88889H8.50378L8.40546 7.09457L7.81865 9.31679L7.65291 9.94444H8.30208H11.1424C11.4792 9.94444 11.7721 9.7308 11.8791 9.41949Z" stroke="white"/>
</svg>
