<svg width="24" height="19" viewBox="0 0 24 19" fill="none" xmlns="http://www.w3.org/2000/svg">
<path d="M22.6667 1.33333H22V1C22 0.4475 21.5542 0 21 0C20.4458 0 20 0.4475 20 1V1.33333H1.79875C0.805417 1.33333 0 2.13875 0 3.13333V6.86917C0 7.8625 0.805417 8.66667 1.79875 8.66667C2.68458 8.66667 3.32417 9.51459 3.08083 10.3663L1.38542 16.9663C1.14208 17.8167 1.78167 18.6667 2.6675 18.6667H6.9925C7.58792 18.6667 8.11083 18.2721 8.27458 17.6996L9.43333 13.3333H13.3742C14.3808 13.3333 15.27 12.6913 15.5879 11.7383L16.6083 8.66667H18.1125C18.4661 8.66667 18.805 8.52629 19.0554 8.27613L20 7.33333H22.6667C23.4029 7.33333 24 6.73625 24 6V2.66667C24 1.93042 23.4042 1.33333 22.6667 1.33333ZM13.6875 11.1083C13.6417 11.2417 13.5167 11.3333 13.3708 11.3333H9.9625L10.6667 8.66667H14.5008L13.6875 11.1083ZM20 5.33333H2.66667V4H20V5.33333Z" fill="#28EBA8"/>
</svg>
