<svg xmlns="http://www.w3.org/2000/svg" xmlns:xlink="http://www.w3.org/1999/xlink" width="171.351" height="169.518" viewBox="0 0 171.351 169.518">
  <defs>
    <radialGradient id="radial-gradient" cx="-3.467" cy="-0.41" r="9.796" gradientTransform="translate(-0.274) scale(1.548 1)" gradientUnits="objectBoundingBox">
      <stop offset="0" stop-color="#fbbf00"/>
      <stop offset="0.159" stop-color="#f4b502"/>
      <stop offset="0.421" stop-color="#e29c08"/>
      <stop offset="0.752" stop-color="#c67312"/>
      <stop offset="1" stop-color="#ae511b"/>
    </radialGradient>
    <radialGradient id="radial-gradient-2" cx="-2.55" cy="-0.408" r="8.823" gradientTransform="translate(-0.647) scale(2.295 1)" xlink:href="#radial-gradient"/>
    <radialGradient id="radial-gradient-3" cx="-1.242" cy="-6.469" r="36.122" gradientTransform="translate(0.384) scale(0.231 1)" xlink:href="#radial-gradient"/>
    <radialGradient id="radial-gradient-4" cx="-4.695" cy="-0.486" r="6.758" gradientTransform="matrix(2.671, 0.016, -0.042, 1, 7.893, 0.075)" xlink:href="#radial-gradient"/>
    <radialGradient id="radial-gradient-5" cx="-0.573" cy="-1.004" r="16.893" gradientTransform="matrix(0.396, 0.228, -0.093, 0.974, -0.458, 0.15)" xlink:href="#radial-gradient"/>
    <radialGradient id="radial-gradient-6" cx="-0.94" cy="-1.103" r="9.199" gradientTransform="translate(0)" xlink:href="#radial-gradient"/>
  </defs>
  <g id="Group_741" data-name="Group 741" transform="translate(-26.905 -29.701)">
    <path id="Path_3118" data-name="Path 3118" d="M273.765,151.295a64.358,64.358,0,0,0-7.146-48.821A65.237,65.237,0,0,0,226.5,72.612a66.121,66.121,0,0,1,41.614,28.936,67,67,0,0,1,9.072,50.551,1.757,1.757,0,1,1-3.435-.746C273.755,151.336,273.761,151.312,273.765,151.295Z" transform="translate(-99.383 -21.366)" fill="url(#radial-gradient)"/>
    <path id="Path_3119" data-name="Path 3119" d="M102.631,82.818A64.355,64.355,0,0,0,69.411,119.3a65.238,65.238,0,0,0,2.35,49.958,66.117,66.117,0,0,1-4.012-50.527,66.992,66.992,0,0,1,33.335-39.07,1.757,1.757,0,1,1,1.6,3.129Z" transform="translate(-18.728 -24.78)" fill="url(#radial-gradient-2)"/>
    <path id="Path_3120" data-name="Path 3120" d="M103.384,289.632a64.354,64.354,0,0,0,45.269,19.63,65.235,65.235,0,0,0,46.511-18.387,66.113,66.113,0,0,1-46.511,20.144,66.99,66.99,0,0,1-47.754-18.9,1.757,1.757,0,1,1,2.443-2.527Z" transform="translate(-36.577 -129.16)" fill="url(#radial-gradient-3)"/>
    <path id="Path_3121" data-name="Path 3121" d="M281.905,225.845A82.024,82.024,0,0,0,320.26,176.01a83.143,83.143,0,0,0-8.242-63.207,84.268,84.268,0,0,1,10.414,63.754A85.386,85.386,0,0,1,284.2,229.69a2.24,2.24,0,1,1-2.363-3.806Z" transform="translate(-126.412 -41.379)" fill="url(#radial-gradient-4)"/>
    <path id="Path_3122" data-name="Path 3122" d="M162.812,42.642a82.024,82.024,0,0,0-62.564-6.349A83.145,83.145,0,0,0,50.864,76.6,84.265,84.265,0,0,1,99.569,34.159a85.381,85.381,0,0,1,65.3,4.5,2.24,2.24,0,1,1-1.99,4.014Z" transform="translate(-11.93 0)" fill="url(#radial-gradient-5)"/>
    <path id="Path_3123" data-name="Path 3123" d="M31.385,198.083a82.026,82.026,0,0,0,23.106,58.486,83.146,83.146,0,0,0,58.486,25.346,84.264,84.264,0,0,1-60.07-23.763,85.384,85.384,0,0,1-26-60.07,2.24,2.24,0,1,1,4.479-.076C31.385,198.028,31.385,198.06,31.385,198.083Z" transform="translate(0 -82.707)" fill="url(#radial-gradient-6)"/>
  </g>
</svg>
