<svg xmlns="http://www.w3.org/2000/svg" width="86.937" height="60.571" viewBox="0 0 86.937 60.571">
  <g id="Group_686" data-name="Group 686" transform="translate(0 0)">
    <path id="Path_3018" data-name="Path 3018" d="M839.145,1988.146,806.7,2044.5c-.733-1.292-1.429-2.446-2.031-3.646-.1-.207.137-.638.3-.919q6.086-10.6,12.191-21.185,8.592-14.924,17.167-29.857a1.275,1.275,0,0,1,1.338-.767C836.761,1988.187,837.864,1988.146,839.145,1988.146Z" transform="translate(-752.208 -1988.12)" fill="#f9b819"/>
    <path id="Path_3019" data-name="Path 3019" d="M808.029,1988.116l-27.886,48.441c-.725-1.263-1.413-2.394-2.014-3.57-.108-.211.083-.641.238-.912q4.737-8.271,9.5-16.527,7.635-13.261,15.257-26.529a1.512,1.512,0,0,1,1.6-.922C805.743,1988.172,806.77,1988.116,808.029,1988.116Z" transform="translate(-730.206 -1988.092)" fill="#f9b819"/>
    <path id="Path_3020" data-name="Path 3020" d="M776.773,1988.149l-23.33,40.525c-.738-1.284-1.424-2.425-2.037-3.6-.1-.186.085-.574.225-.819q5.551-9.676,11.123-19.34c3.071-5.334,6.151-10.662,9.2-16.01a1.286,1.286,0,0,1,1.347-.769C774.4,1988.19,775.5,1988.149,776.773,1988.149Z" transform="translate(-708.063 -1988.123)" fill="#f9b819"/>
    <path id="Path_3021" data-name="Path 3021" d="M498.407,2135.284c1.493,0,2.852-.027,4.207.027.218.009.482.346.623.589q6.411,11.1,12.8,22.211,3.326,5.775,6.654,11.549c.154.269.292.546.517.969-1.484,0-2.859.033-4.23-.031-.233-.011-.5-.407-.659-.68q-6.129-10.619-12.236-21.251-3.6-6.259-7.2-12.516C498.743,2135.912,498.616,2135.668,498.407,2135.284Z" transform="translate(-498.407 -2110.074)" fill="#fff"/>
    <path id="Path_3022" data-name="Path 3022" d="M682.921,2170.642c-1.489,0-2.825.031-4.156-.029-.241-.01-.536-.356-.687-.615q-4.6-7.95-9.176-15.918-5.137-8.924-10.274-17.849c-.152-.264-.29-.536-.5-.934,1.473,0,2.833-.032,4.188.031.237.011.518.387.673.656q5.264,9.1,10.5,18.212,4.519,7.851,9.033,15.7C682.63,2170.091,682.731,2170.29,682.921,2170.642Z" transform="translate(-630.775 -2110.083)" fill="#fff"/>
    <path id="Path_3023" data-name="Path 3023" d="M576.373,2170.652c-1.456,0-2.764.035-4.068-.029a1.247,1.247,0,0,1-.776-.62q-7.319-12.657-14.6-25.333-2.389-4.148-4.779-8.3c-.169-.293-.332-.589-.6-1.064,1.523,0,2.9-.034,4.276.032.229.011.489.426.649.7q6.156,10.663,12.29,21.337,3.583,6.225,7.164,12.45C576.053,2170.048,576.168,2170.273,576.373,2170.652Z" transform="translate(-542.449 -2110.092)" fill="#fff"/>
    <path id="Path_3024" data-name="Path 3024" d="M629.726,2170.663c-1.459,0-2.792.043-4.117-.035-.282-.016-.618-.426-.8-.732q-4.9-8.467-9.773-16.955-4.839-8.407-9.68-16.812c-.126-.218-.234-.446-.424-.811,1.487,0,2.869-.023,4.249.026.2.007.432.335.564.564q7.664,13.288,15.309,26.586,2.067,3.593,4.134,7.185C629.358,2169.967,629.509,2170.261,629.726,2170.663Z" transform="translate(-586.695 -2110.103)" fill="#fff"/>
    <path id="Path_3025" data-name="Path 3025" d="M727.04,2020.771c-.7-1.219-1.383-2.332-1.98-3.488a1.189,1.189,0,0,1,.166-.918q5.989-10.452,12.008-20.885c1.279-2.221,2.569-4.436,3.825-6.67a1.107,1.107,0,0,1,1.147-.661c1.134.046,2.27.014,3.6.014Z" transform="translate(-686.214 -1988.138)" fill="#f9b819"/>
  </g>
</svg>
