<svg width="40" height="40" viewBox="0 0 61 51" fill="none" xmlns="http://www.w3.org/2000/svg">
<g clip-path="url(#clip0_1891_7332)">
<path d="M55.9519 23.2639L48.6211 14.8581L39.2843 4.15185L38.9143 3.728C36.8192 1.43533 33.8265 0 30.5017 0C27.2718 0 24.355 1.35441 22.2713 3.53534L22.0113 3.8147C22 3.82626 21.9905 3.83974 21.981 3.8513L4.83704 22.4123C4.73836 22.5163 4.64158 22.6204 4.54669 22.7263C1.98668 25.5854 0.426758 29.3828 0.426758 33.552C0.426758 37.4727 1.8064 41.0658 4.09883 43.8575C4.50115 44.3449 4.93003 44.8092 5.38358 45.2427L8.08782 48.1634C8.13527 48.2174 8.18461 48.2713 8.23585 48.3234C9.3574 49.5005 10.9306 50.2307 12.6708 50.2307C13.6197 50.2307 14.5192 50.013 15.3238 49.6238C15.9197 49.3368 16.4624 48.9553 16.935 48.4987L17.4625 47.9188L28.7425 35.5268L30.5947 33.4923L32.0711 31.9664L39.0357 24.7666C39.383 24.3563 39.755 23.9709 40.1516 23.6126C42.2903 21.6744 45.1103 20.4973 48.2017 20.4973C51.3044 20.4973 54.132 21.6821 56.2746 23.6338L55.9519 23.2639Z" fill="url(#paint0_linear_1891_7332)"/>
<path d="M53.5777 48.3812L53.0957 48.9322C53.2665 48.7588 53.4278 48.5738 53.5777 48.3812Z" fill="url(#paint1_linear_1891_7332)"/>
<path d="M60.2844 32.3132C59.8916 29.325 58.6884 26.5931 56.9065 24.3563L56.2746 23.6338C54.132 21.6821 51.3045 20.4973 48.2017 20.4973C45.1103 20.4973 42.2903 21.6744 40.1516 23.6126C39.755 23.9709 39.383 24.3563 39.0357 24.7666L32.0711 31.9664L30.5947 33.4923L32.0692 35.1492L44.0533 48.6027C44.0856 48.6393 44.1197 48.6779 44.152 48.7145C44.8408 49.4832 45.7138 50.0785 46.7025 50.4253C46.7025 50.4253 46.7025 50.4253 46.7044 50.4253C47.3363 50.6488 48.0176 50.7702 48.7255 50.7702C50.4277 50.7702 51.9687 50.0708 53.0864 48.9418C53.0902 48.938 53.0921 48.936 53.0959 48.9322L53.5779 48.3812C53.5817 48.3773 53.5855 48.3735 53.5874 48.3696L55.9102 45.7224C56.2575 45.3641 56.5858 44.9884 56.8951 44.5973C59.0756 41.8673 60.3945 38.3974 60.4268 34.6116C60.4343 33.8314 60.385 33.0646 60.2844 32.3132Z" fill="url(#paint2_linear_1891_7332)"/>
</g>
<defs>
<linearGradient id="paint0_linear_1891_7332" x1="-14.3471" y1="51.8052" x2="66.9184" y2="-4.57976" gradientUnits="userSpaceOnUse">
<stop offset="0.0529" stop-color="#09453D"/>
<stop offset="0.1205" stop-color="#1A6150"/>
<stop offset="0.2125" stop-color="#2C8065"/>
<stop offset="0.3137" stop-color="#3B9977"/>
<stop offset="0.4258" stop-color="#47AD84"/>
<stop offset="0.5543" stop-color="#4FBB8E"/>
<stop offset="0.714" stop-color="#54C393"/>
<stop offset="1" stop-color="#55C595"/>
</linearGradient>
<linearGradient id="paint1_linear_1891_7332" x1="6.63862" y1="82.0505" x2="87.9023" y2="25.6644" gradientUnits="userSpaceOnUse">
<stop offset="0.0529" stop-color="#09453D"/>
<stop offset="0.1205" stop-color="#1A6150"/>
<stop offset="0.2125" stop-color="#2C8065"/>
<stop offset="0.3137" stop-color="#3B9977"/>
<stop offset="0.4258" stop-color="#47AD84"/>
<stop offset="0.5543" stop-color="#4FBB8E"/>
<stop offset="0.714" stop-color="#54C393"/>
<stop offset="1" stop-color="#55C595"/>
</linearGradient>
<linearGradient id="paint2_linear_1891_7332" x1="30.5782" y1="20.1105" x2="70.5202" y2="51.8874" gradientUnits="userSpaceOnUse">
<stop offset="0.0529" stop-color="#09453D"/>
<stop offset="0.1205" stop-color="#1A6150"/>
<stop offset="0.2125" stop-color="#2C8065"/>
<stop offset="0.3137" stop-color="#3B9977"/>
<stop offset="0.4258" stop-color="#47AD84"/>
<stop offset="0.5543" stop-color="#4FBB8E"/>
<stop offset="0.714" stop-color="#54C393"/>
<stop offset="1" stop-color="#55C595"/>
</linearGradient>
<clipPath id="clip0_1891_7332">
<rect width="60" height="50.7702" fill="white" transform="translate(0.426758)"/>
</clipPath>
</defs>
</svg>
