<svg width="21" height="20" viewBox="0 0 21 20" fill="none" xmlns="http://www.w3.org/2000/svg">
<path d="M15.8436 10.5417V13.625C15.8436 16.225 13.4186 18.3334 10.4269 18.3334C7.43525 18.3334 5.01025 16.225 5.01025 13.625V10.5417C5.01025 13.1417 7.43525 15 10.4269 15C13.4186 15 15.8436 13.1417 15.8436 10.5417Z" stroke="#B8BDB9" stroke-width="1.5" stroke-linecap="round" stroke-linejoin="round"/>
<path d="M15.8436 6.37502C15.8436 7.13336 15.6353 7.83335 15.2686 8.43335C14.3769 9.90002 12.5436 10.8334 10.4269 10.8334C8.31025 10.8334 6.47692 9.90002 5.58526 8.43335C5.21859 7.83335 5.01025 7.13336 5.01025 6.37502C5.01025 5.07502 5.61858 3.90002 6.59358 3.05002C7.57692 2.19169 8.92692 1.66669 10.4269 1.66669C11.9269 1.66669 13.2769 2.19169 14.2603 3.04169C15.2353 3.90002 15.8436 5.07502 15.8436 6.37502Z" stroke="#B8BDB9" stroke-width="1.5" stroke-linecap="round" stroke-linejoin="round"/>
<path d="M15.8436 6.37502V10.5417C15.8436 13.1417 13.4186 15 10.4269 15C7.43525 15 5.01025 13.1417 5.01025 10.5417V6.37502C5.01025 3.77502 7.43525 1.66669 10.4269 1.66669C11.9269 1.66669 13.2769 2.19169 14.2603 3.04169C15.2353 3.90002 15.8436 5.07502 15.8436 6.37502Z" stroke="#B8BDB9" stroke-width="1.5" stroke-linecap="round" stroke-linejoin="round"/>
</svg>
