<svg width="21" height="20" viewBox="0 0 10 16" fill="none" xmlns="http://www.w3.org/2000/svg">
<path fill-rule="evenodd" clip-rule="evenodd" d="M0.452148 11.6178C0.691286 13.5367 2.59018 15.1667 5.09336 15.1667C7.59653 15.1667 9.49543 13.5367 9.73456 11.6178C9.71228 11.6388 9.68979 11.6596 9.66712 11.6803C8.51238 12.7324 6.85062 13.3333 5.09336 13.3333C4.89046 13.3333 4.68884 13.3253 4.48913 13.3095C2.92515 13.1859 1.47809 12.5851 0.452148 11.6178Z" fill="#6A7574"/>
<path fill-rule="evenodd" clip-rule="evenodd" d="M1.75329 1.19836C2.59516 0.463499 3.76827 0 5.09342 0C6.41741 0 7.59091 0.462755 8.43376 1.19021C9.26925 1.92684 9.76009 2.90469 9.76009 3.95833C9.76009 4.57615 9.59115 5.14117 9.29513 5.62558L9.29423 5.62705C8.5666 6.8239 7.007 7.66667 5.09342 7.66667C3.17985 7.66667 1.62025 6.8239 0.892621 5.62705L0.891721 5.62558C0.595695 5.14117 0.426758 4.57615 0.426758 3.95833C0.426758 3.01504 0.831323 2.1171 1.52152 1.41565C1.59539 1.3411 1.67258 1.26872 1.75294 1.19866L1.75329 1.19836ZM9.76009 7.42196C8.60685 8.53479 6.91577 9.16667 5.09342 9.16667C3.27108 9.16667 1.58 8.53479 0.426758 7.42196V8.125C0.426758 10.1675 2.35639 11.8333 5.09342 11.8333C7.83046 11.8333 9.76009 10.1675 9.76009 8.125V7.42196Z" fill="#6A7574"/>
<path fill-rule="evenodd" clip-rule="evenodd" d="M1.75329 1.19836C2.59516 0.463499 3.76827 0 5.09342 0C6.41741 0 7.59091 0.462755 8.43376 1.19021C9.26925 1.92684 9.76009 2.90469 9.76009 3.95833C9.76009 4.57615 9.59115 5.14117 9.29513 5.62558L9.29423 5.62705C8.5666 6.8239 7.007 7.66667 5.09342 7.66667C3.17985 7.66667 1.62025 6.8239 0.892621 5.62705L0.891721 5.62558C0.595695 5.14117 0.426758 4.57615 0.426758 3.95833C0.426758 2.90317 0.918885 1.92579 1.75294 1.19866L1.75329 1.19836Z" fill="#169CE7"/>
</svg>
