<svg width="512" height="512" viewBox="0 0 512 512" fill="none" xmlns="http://www.w3.org/2000/svg">
<path d="M152 88V24L72 103.952V104H136C140.243 104 144.313 102.314 147.314 99.3137C150.314 96.3131 152 92.2435 152 88Z" fill="#56555A"/>
<path d="M239.128 325.528L24 192V472C24.0127 476.24 25.7024 480.302 28.7003 483.3C31.6981 486.298 35.7604 487.987 40 488H472C476.24 487.987 480.302 486.298 483.3 483.3C486.298 480.302 487.987 476.24 488 472V192L272.872 325.528C267.806 328.672 261.962 330.337 256 330.337C250.038 330.337 244.194 328.672 239.128 325.528V325.528Z" fill="#999999"/>
<path d="M463.552 207.2C459.464 276.522 429.1 341.678 378.645 389.391C328.19 437.105 261.442 463.787 192 464H24V472C24.0127 476.24 25.7024 480.302 28.7003 483.3C31.6981 486.298 35.7604 487.987 40 488H472C476.24 487.987 480.302 486.298 483.3 483.3C486.298 480.302 487.987 476.24 488 472V192L463.552 207.2Z" fill="#747377"/>
<path d="M31.6 171.28C29.284 172.717 27.3714 174.719 26.0419 177.098C24.7125 179.477 24.0098 182.155 24 184.88V192L72 221.792V146.24L31.6 171.28Z" fill="#56555A"/>
<path d="M488 184.88C487.99 182.155 487.288 179.477 485.958 177.098C484.629 174.719 482.716 172.717 480.4 171.28L440 146.24V221.792L488 192V184.88Z" fill="#56555A"/>
<path d="M480.4 171.28L464 161.112V206.896L488 192V184.88C487.99 182.155 487.288 179.477 485.958 177.098C484.629 174.719 482.716 172.717 480.4 171.28V171.28Z" fill="#272629"/>
<path d="M152 24V88C152 92.2435 150.314 96.3131 147.314 99.3137C144.313 102.314 140.243 104 136 104H72V221.792L239.128 325.528C244.194 328.672 250.038 330.337 256 330.337C261.962 330.337 267.806 328.672 272.872 325.528L440 221.792V24H152Z" fill="#F5F5F5"/>
<path d="M192 57C192 59.1217 192.59 61.1566 193.64 62.6569C194.69 64.1572 196.115 65 197.6 65H410.4C411.885 65 413.31 64.1572 414.36 62.6569C415.41 61.1566 416 59.1217 416 57C416 54.8783 415.41 52.8434 414.36 51.3431C413.31 49.8428 411.885 49 410.4 49H197.6C196.115 49 194.69 49.8428 193.64 51.3431C192.59 52.8434 192 54.8783 192 57Z" fill="#999999"/>
<path d="M408 81H200C197.878 81 195.843 81.8428 194.343 83.3431C192.843 84.8434 192 86.8783 192 89C192 91.1217 192.843 93.1566 194.343 94.6569C195.843 96.1572 197.878 97 200 97H408C410.122 97 412.157 96.1572 413.657 94.6569C415.157 93.1566 416 91.1217 416 89C416 86.8783 415.157 84.8434 413.657 83.3431C412.157 81.8428 410.122 81 408 81Z" fill="#999999"/>
<path d="M408 113H240C237.878 113 235.843 113.843 234.343 115.343C232.843 116.843 232 118.878 232 121C232 123.122 232.843 125.157 234.343 126.657C235.843 128.157 237.878 129 240 129H408C410.122 129 412.157 128.157 413.657 126.657C415.157 125.157 416 123.122 416 121C416 118.878 415.157 116.843 413.657 115.343C412.157 113.843 410.122 113 408 113Z" fill="#999999"/>
<path d="M408 145H328C325.878 145 323.843 145.843 322.343 147.343C320.843 148.843 320 150.878 320 153C320 155.122 320.843 157.157 322.343 158.657C323.843 160.157 325.878 161 328 161H408C410.122 161 412.157 160.157 413.657 158.657C415.157 157.157 416 155.122 416 153C416 150.878 415.157 148.843 413.657 147.343C412.157 145.843 410.122 145 408 145Z" fill="#999999"/>
<circle cx="256" cy="407" r="54" fill="url(#paint0_linear_500_20859)"/>
<g clip-path="url(#clip0_500_20859)">
<path d="M288.039 375.28C281.572 375.28 276.329 380.523 276.329 386.991V411.409H262.055V387.78C255.588 387.78 250.345 393.023 250.345 399.49V411.409H239.377V423.119H276.329C282.797 423.119 288.039 417.876 288.039 411.409V375.28Z" fill="#F1F1F1"/>
<path d="M274.27 427.33H234.997V415.516V403.701C228.53 403.701 223.287 408.944 223.287 415.411V427.33C223.287 433.797 228.542 439.04 234.997 439.04H285.98C285.98 432.573 280.737 427.33 274.27 427.33Z" fill="#F1F1F1"/>
</g>
<defs>
<linearGradient id="paint0_linear_500_20859" x1="292.576" y1="362.881" x2="323.073" y2="421.85" gradientUnits="userSpaceOnUse">
<stop stop-color="#1682E7"/>
<stop offset="1" stop-color="#7216E7"/>
</linearGradient>
<clipPath id="clip0_500_20859">
<rect width="64.7518" height="63.8901" fill="white" transform="translate(223.287 375.28)"/>
</clipPath>
</defs>
</svg>
