<svg width="21" height="20" viewBox="0 0 21 20" fill="none" xmlns="http://www.w3.org/2000/svg">
<g clip-path="url(#clip0_3326_6893)">
<path d="M10.4663 3.00444C11.4032 3.00444 12.3402 3.01672 13.2771 3.00211C16.1111 2.9571 18.6609 4.82642 19.4769 7.46089C19.6926 8.15823 19.7713 8.89883 19.881 9.62481C20.0639 10.8342 20.2123 12.0489 20.3905 13.2594C20.6194 14.8137 19.7468 16.2551 18.2413 16.7835C16.5462 17.3786 14.8577 16.7192 14.0477 15.1451C13.68 14.4302 13.3111 13.7153 12.9546 12.9946C12.8813 12.8461 12.7943 12.8041 12.6322 12.8046C11.16 12.8111 9.68788 12.8111 8.21572 12.8046C8.05897 12.8041 7.98208 12.8532 7.91354 12.9899C7.53507 13.7487 7.16137 14.5097 6.75667 15.255C6.13622 16.3983 5.14266 17.0039 3.82904 16.9887C2.49277 16.9729 1.442 16.3972 0.791147 15.2164C0.45857 14.6138 0.369763 13.9562 0.459762 13.2857C0.680884 11.6333 0.909158 9.98079 1.15948 8.33242C1.5457 5.79264 3.67706 3.62697 6.26317 3.14122C6.70542 3.05822 7.16077 3.02023 7.61136 3.01087C8.5626 2.991 9.51444 3.00444 10.4663 3.00444ZM17.097 15.6191C17.2209 15.5958 17.4295 15.5753 17.6262 15.5163C18.5167 15.2503 19.1133 14.4022 18.9679 13.4856C18.8004 12.4282 18.6681 11.3661 18.5012 10.3087C18.382 9.55408 18.2801 8.79244 18.0852 8.05535C17.5106 5.87915 15.5467 4.41257 13.2503 4.40497C11.4062 4.39913 9.56272 4.39913 7.71864 4.4079C7.35627 4.40965 6.99031 4.43712 6.6327 4.49324C4.59671 4.81005 2.82416 6.64606 2.57264 8.64514C2.38907 10.1047 2.16377 11.5584 1.96649 13.0162C1.91345 13.4096 1.81272 13.8007 1.92954 14.2063C2.1447 14.9528 2.81462 15.5239 3.60792 15.6104C4.47036 15.7045 5.12836 15.3567 5.52232 14.5904C5.98722 13.6867 6.44913 12.7818 6.90568 11.8747C7.0672 11.5532 7.30501 11.4029 7.68169 11.4053C9.51802 11.4152 11.3543 11.4146 13.1913 11.4059C13.5906 11.4041 13.8439 11.5684 14.0167 11.9138C14.4703 12.8222 14.9328 13.7264 15.4001 14.6284C15.7333 15.2708 16.2846 15.5847 17.097 15.6191Z" fill="#B8BDB9"/>
<path d="M7.57638 8.60519C7.57638 8.85712 7.57936 9.0886 7.57579 9.31948C7.56983 9.74385 7.29089 10.0081 6.8552 10.0057C6.43263 10.0034 6.15727 9.73918 6.15131 9.32533C6.14773 9.09386 6.15071 8.8618 6.15071 8.60519C5.898 8.60519 5.66258 8.60753 5.42715 8.60461C4.99146 8.59935 4.72206 8.32929 4.72266 7.90259C4.72325 7.47763 4.99384 7.21109 5.43251 7.20641C5.66198 7.20408 5.89145 7.20583 6.15071 7.20583C6.15071 6.96968 6.14952 6.74697 6.15071 6.52427C6.15369 6.0736 6.41832 5.80647 6.85997 5.8053C7.30341 5.80471 7.57281 6.07126 7.57638 6.51784C7.57817 6.73587 7.57698 6.95448 7.57698 7.20641C7.81181 7.20641 8.03889 7.20524 8.26598 7.20641C8.72789 7.20875 9.00265 7.46653 9.00504 7.89674C9.00742 8.34157 8.73385 8.60227 8.2618 8.60519C8.04009 8.60636 7.81896 8.60519 7.57638 8.60519Z" fill="#B8BDB9"/>
<path d="M14.7162 6.49676C14.7186 6.92405 14.445 7.20112 14.0171 7.20463C13.5713 7.20813 13.2899 6.93633 13.2905 6.50202C13.2911 6.07766 13.5677 5.80644 14.0004 5.80585C14.4343 5.80468 14.7138 6.07473 14.7162 6.49676Z" fill="#B8BDB9"/>
<path d="M12.5878 7.20646C13.0164 7.20996 13.2899 7.48586 13.2881 7.91257C13.2858 8.34278 12.9997 8.61166 12.5509 8.60465C12.1259 8.59822 11.8571 8.31823 11.8619 7.88685C11.8666 7.46832 12.1492 7.20295 12.5878 7.20646Z" fill="#B8BDB9"/>
<path d="M16.1436 7.90904C16.1424 8.33282 15.8647 8.60463 15.4325 8.60521C14.9903 8.6058 14.7137 8.3299 14.7173 7.8915C14.7209 7.47123 15.0022 7.2041 15.4391 7.20644C15.87 7.20877 16.1448 7.48292 16.1436 7.90904Z" fill="#B8BDB9"/>
<path d="M13.9986 8.607C14.4337 8.60583 14.7138 8.8753 14.7162 9.29674C14.7186 9.7328 14.4396 10.0081 13.9962 10.0058C13.5653 10.004 13.2899 9.73046 13.2905 9.30493C13.2905 8.87997 13.5659 8.60817 13.9986 8.607Z" fill="#B8BDB9"/>
</g>
<defs>
<clipPath id="clip0_3326_6893">
<rect width="20" height="20" fill="white" transform="translate(0.426758)"/>
</clipPath>
</defs>
</svg>
