<svg width="21" height="20" viewBox="0 0 21 20" fill="none" xmlns="http://www.w3.org/2000/svg">
<g clip-path="url(#clip0_3326_6902)">
<g clip-path="url(#clip1_3326_6902)">
<path d="M20.2266 15.3546C19.764 16.4091 18.9751 17.065 17.8113 17.1554C16.5885 17.2507 15.661 16.7089 15.078 15.6456C14.4901 14.5722 13.9387 13.4786 13.3801 12.3893C13.3079 12.2479 13.2255 12.2071 13.0727 12.2077C11.3086 12.213 9.54443 12.213 7.78028 12.2077C7.62571 12.2071 7.54634 12.2532 7.47532 12.3916C6.91611 13.481 6.36228 14.5739 5.77622 15.6491C5.24268 16.6285 4.4 17.1566 3.26369 17.1667C1.90477 17.1779 0.696252 16.1376 0.464693 14.801C0.371592 14.264 0.468274 13.743 0.537503 13.219C0.715947 11.8682 0.925424 10.5216 1.08895 9.16961C1.24233 7.9034 1.52342 6.68746 2.29389 5.63356C3.53643 3.93503 5.20329 3.02544 7.33686 3.00592C8.37171 2.99705 9.40656 3.00474 10.4408 3.00474C11.4387 3.00474 12.4365 3.0213 13.4332 3.00119C16.1618 2.94737 18.5048 4.72515 19.3606 7.18602C19.6196 7.93061 19.6948 8.70831 19.8046 9.48011C19.9819 10.7268 20.149 11.9747 20.3221 13.222C20.4211 13.9388 20.5333 14.6544 20.2266 15.3546Z" fill="#727272"/>
<path d="M5.38447 8.73909C5.09801 8.73909 4.84735 8.73909 4.5961 8.73909C4.59371 8.73909 4.59133 8.73909 4.58834 8.73909C4.16581 8.73909 3.82324 8.39962 3.82324 7.9809V7.95961C3.82324 7.53675 4.16879 7.19433 4.5955 7.19433H5.3606V6.41366C5.3606 5.9908 5.70615 5.64838 6.13286 5.64838H6.15912C6.58583 5.64838 6.93138 5.9908 6.93138 6.41366V7.17185H7.71976C8.14647 7.17185 8.49202 7.51428 8.49202 7.93714V7.96316C8.49202 8.38602 8.14647 8.72845 7.71976 8.72845H6.95466V9.5097C6.95466 9.93256 6.60911 10.275 6.1824 10.275H6.15614C5.72943 10.275 5.38388 9.93256 5.38388 9.5097V8.73909H5.38447Z" fill="#169CE7"/>
<path d="M16.6128 8.89699C16.084 8.89344 15.6692 8.47117 15.6794 7.94482C15.6895 7.41669 16.1073 7.01985 16.6462 7.02695C17.1583 7.03345 17.5796 7.45927 17.576 7.9667C17.5719 8.48359 17.1404 8.90054 16.6128 8.89699Z" fill="#169CE7"/>
<path d="M15.66 9.85863C15.6576 10.3773 15.2219 10.8037 14.7033 10.7948C14.1805 10.7854 13.7675 10.3584 13.7735 9.83261C13.7789 9.31808 14.1954 8.91355 14.7188 8.91474C15.2512 8.91651 15.6624 9.32872 15.66 9.85863Z" fill="#169CE7"/>
<path d="M13.7925 6.06058C13.7955 5.55079 14.2168 5.13266 14.7307 5.12911C15.2594 5.12556 15.6861 5.55966 15.679 6.09488C15.6724 6.60823 15.2523 7.01275 14.7301 7.0092C14.1977 7.00506 13.7895 6.59226 13.7925 6.06058Z" fill="#169CE7"/>
<path d="M12.8323 7.02692C13.3641 7.02751 13.7789 7.44386 13.7741 7.97081C13.7687 8.49894 13.3522 8.90169 12.815 8.89696C12.3018 8.89282 11.8792 8.47233 11.8774 7.96431C11.8757 7.448 12.306 7.02574 12.8323 7.02692Z" fill="#169CE7"/>
</g>
</g>
<defs>
<clipPath id="clip0_3326_6902">
<rect width="20" height="20" fill="white" transform="translate(0.426758)"/>
</clipPath>
<clipPath id="clip1_3326_6902">
<rect width="20" height="14.1667" fill="white" transform="translate(0.426758 3)"/>
</clipPath>
</defs>
</svg>
