<svg width="35" height="18" viewBox="0 0 35 18" fill="none" xmlns="http://www.w3.org/2000/svg">
<path d="M0.426758 6C0.426758 2.68629 3.11305 0 6.42676 0H28.4268C31.7405 0 34.4268 2.68629 34.4268 6V12C34.4268 15.3137 31.7405 18 28.4268 18H6.42676C3.11305 18 0.426758 15.3137 0.426758 12V6Z" fill="#272C35"/>
<path d="M11.4268 10.5C12.2552 10.5 12.9268 9.82845 12.9268 9.00001C12.9268 8.17158 12.2552 7.5 11.4268 7.5C10.5983 7.5 9.92676 8.17158 9.92676 9.00001C9.92676 9.82845 10.5983 10.5 11.4268 10.5Z" fill="#B8BDB9"/>
<path d="M17.4268 10.5C18.2552 10.5 18.9268 9.82845 18.9268 9.00001C18.9268 8.17158 18.2552 7.5 17.4268 7.5C16.5983 7.5 15.9268 8.17158 15.9268 9.00001C15.9268 9.82845 16.5983 10.5 17.4268 10.5Z" fill="#B8BDB9"/>
<path d="M23.4268 10.5C24.2552 10.5 24.9268 9.82845 24.9268 9.00001C24.9268 8.17158 24.2552 7.5 23.4268 7.5C22.5983 7.5 21.9268 8.17158 21.9268 9.00001C21.9268 9.82845 22.5983 10.5 23.4268 10.5Z" fill="#B8BDB9"/>
</svg>
