<svg width="20" height="20" viewBox="0 0 121 121" fill="none" xmlns="http://www.w3.org/2000/svg">
<path d="M56.8945 0H63.9844V10.007H56.8945V0Z" fill="#05D8F5"/>
<path d="M77.3281 13.6969L82.3418 5.03582L88.4771 8.5872L83.4634 17.2492L77.3281 13.6969Z" fill="#05D8F5"/>
<path d="M93.168 27.1399L101.847 22.1567L105.377 28.3049L96.699 33.2881L93.168 27.1399Z" fill="#05D8F5"/>
<path d="M100.117 53.7831L100.142 46.6933L110.149 46.7274L110.125 53.8173L100.117 53.7831Z" fill="#05D8F5"/>
<path d="M92.8047 73.2368L96.3773 67.1126L105.022 72.1549L101.449 78.2791L92.8047 73.2368Z" fill="#05D8F5"/>
<path d="M32.5391 8.5909L38.6753 5.03859L43.6889 13.6996L37.5527 17.252L32.5391 8.5909Z" fill="#05D8F5"/>
<path d="M15.6445 28.3003L19.1756 22.153L27.8533 27.1371L24.3213 33.2844L15.6445 28.3003Z" fill="#05D8F5"/>
<path d="M10.8711 46.7274L20.8781 46.6933L20.9021 53.7831L10.8951 53.8173L10.8711 46.7274Z" fill="#05D8F5"/>
<path d="M15.9961 72.1613L24.6396 67.1181L28.2122 73.2423L19.5687 78.2846L15.9961 72.1613Z" fill="#05D8F5"/>
<path d="M37.0859 106.187H43.6016V121H77.2589V106.187H82.9788V91.3787H37.0859V106.187Z" fill="url(#paint0_linear_48_13757)"/>
<path d="M84.7229 26.6728C78.3614 20.2411 69.8785 16.6427 60.8371 16.5384C60.7042 16.5365 60.5712 16.5356 60.4383 16.5356C51.5871 16.5356 43.1974 19.9236 36.7741 26.0995C30.2511 32.3714 26.528 40.7777 26.2898 49.772C26.0849 57.5173 28.4112 64.8822 33.0196 71.072C35.9349 74.9889 38.1524 79.4967 39.5491 84.2888H81.3146C82.7307 79.5355 84.997 74.9668 87.9899 70.8911C92.313 65.0032 94.5979 58.0195 94.5979 50.6961C94.5969 41.6418 91.0908 33.1099 84.7229 26.6728V26.6728ZM69.5683 62.1506C69.0209 63.1652 68.2971 63.9757 67.3998 64.5822C66.5016 65.1887 65.487 65.6254 64.3562 65.894C64.2251 65.9245 64.0931 65.9475 63.9611 65.9752V71.2917H56.8712V65.8626C56.345 65.7555 55.8197 65.6337 55.2963 65.4915C54.351 65.2349 53.4417 64.9321 52.5675 64.5813C51.6932 64.2314 50.8827 63.8354 50.1359 63.3923L53.0752 57.4102C53.8913 57.9235 54.7415 58.3786 55.6286 58.7746C56.3746 59.1245 57.2202 59.4393 58.1646 59.719C59.1089 59.9987 60.0709 60.139 61.0503 60.139C61.7963 60.139 62.3151 60.0403 62.6068 59.8418C62.8985 59.6442 63.0444 59.3811 63.0444 59.0543C63.0444 58.7045 62.8985 58.4072 62.6068 58.1626C62.3151 57.9179 61.9126 57.7019 61.4002 57.5154C60.8869 57.329 60.298 57.1425 59.6342 56.956C58.9686 56.7695 58.2633 56.548 57.5174 56.2913C56.4207 55.9184 55.4763 55.5159 54.6843 55.0838C53.8913 54.6527 53.2377 54.1635 52.7253 53.6151C52.212 53.0677 51.8326 52.4427 51.588 51.7429C51.3434 51.0432 51.2206 50.2391 51.2206 49.3298C51.2206 47.9534 51.4717 46.7413 51.9729 45.6916C52.4742 44.642 53.1564 43.7678 54.0196 43.068C54.8541 42.3904 55.8059 41.8735 56.8712 41.5125V36.0899H63.9611V41.3787C64.5371 41.5181 65.1012 41.6778 65.6504 41.8605C66.4554 42.1292 67.2069 42.42 67.9066 42.7357C68.6064 43.0505 69.236 43.3477 69.7954 43.6275L66.857 49.2596C66.1573 48.8396 65.4344 48.4667 64.6885 48.1399C64.0589 47.8601 63.3536 47.598 62.5717 47.3524C61.7907 47.1078 61.0263 46.9859 60.2804 46.9859C59.6739 46.9859 59.1902 47.0791 58.8292 47.2656C58.4674 47.4521 58.2864 47.7669 58.2864 48.21C58.2864 48.5368 58.3917 48.8045 58.6012 49.0141C58.8117 49.2246 59.1145 49.4166 59.5114 49.592C59.9075 49.7665 60.3912 49.9363 60.9626 50.0988C61.5341 50.2622 62.1812 50.4607 62.905 50.6933C64.0469 51.0432 65.079 51.4281 66.0003 51.8482C66.9216 52.2673 67.7091 52.763 68.3617 53.3345C69.0144 53.9059 69.5157 54.6001 69.8656 55.4162C70.2154 56.2322 70.3908 57.2237 70.3908 58.3897C70.3908 59.8833 70.1167 61.1361 69.5683 62.1506V62.1506Z" fill="url(#paint1_linear_48_13757)"/>
<defs>
<linearGradient id="paint0_linear_48_13757" x1="75.5747" y1="94.0887" x2="81.7314" y2="112.533" gradientUnits="userSpaceOnUse">
<stop stop-color="#1682E7"/>
<stop offset="1" stop-color="#7216E7"/>
</linearGradient>
<linearGradient id="paint1_linear_48_13757" x1="83.5754" y1="22.7342" x2="102.615" y2="59.8577" gradientUnits="userSpaceOnUse">
<stop stop-color="#1682E7"/>
<stop offset="1" stop-color="#7216E7"/>
</linearGradient>
</defs>
</svg>
