<svg width="20" height="20" viewBox="0 0 20 20" fill="none" xmlns="http://www.w3.org/2000/svg">
<path d="M14.932 13.4867C14.05 11.9928 12.511 11 10.738 11C9.028 11 7.525 11.9253 6.634 13.3325C6.526 13.3229 6.418 13.3133 6.31 13.3133C3.376 13.3133 1 15.8578 1 19H8.38H11.62H19C19 16.3301 17.263 14.0843 14.932 13.4867Z" fill="#B8BDB9" stroke="#B8BDB9" stroke-miterlimit="10"/>
<path d="M17 4C17 4 14.5531 4.31579 12.8937 5.97594C11.2344 7.63609 11 10 11 10C11 10 13.4469 9.68421 15.1062 8.02406C16.7656 6.37293 17 4 17 4Z" fill="#16B979" stroke="#16B979" stroke-miterlimit="10"/>
<path d="M9.97351 8C9.97351 8 10.2668 5.65773 8.90157 3.72669C7.53637 1.79566 5.02843 1 5.02843 1C5.02843 1 4.72505 3.34227 6.10037 5.28225C7.47569 7.22222 9.97351 8 9.97351 8Z" fill="#16B979" stroke="#16B979" stroke-miterlimit="10"/>
</svg>
