<svg width="20" height="20" viewBox="0 0 69 69" fill="none" xmlns="http://www.w3.org/2000/svg">
<path d="M58.7229 10.6728C52.3614 4.24113 43.8785 0.64267 34.8371 0.538353C34.7042 0.536507 34.5712 0.535583 34.4383 0.535583C25.5871 0.535583 17.1974 3.92357 10.7741 10.0995C4.25107 16.3714 0.527979 24.7777 0.289805 33.772C0.0848639 41.5173 2.41122 48.8822 7.01962 55.072C9.93495 58.9889 12.1524 63.4967 13.5491 68.2888H55.3146C56.7307 63.5355 58.997 58.9668 61.9899 54.8911C66.313 49.0032 68.5979 42.0195 68.5979 34.6961C68.5969 25.6418 65.0908 17.1099 58.7229 10.6728ZM43.5683 46.1506C43.0209 47.1652 42.2971 47.9757 41.3998 48.5822C40.5016 49.1887 39.487 49.6254 38.3562 49.894C38.2251 49.9245 38.0931 49.9475 37.9611 49.9752V55.2917H30.8712V49.8626C30.345 49.7555 29.8197 49.6337 29.2963 49.4915C28.351 49.2349 27.4417 48.9321 26.5675 48.5813C25.6932 48.2314 24.8827 47.8354 24.1359 47.3923L27.0752 41.4102C27.8913 41.9235 28.7415 42.3786 29.6286 42.7746C30.3746 43.1245 31.2202 43.4393 32.1646 43.719C33.1089 43.9987 34.0709 44.139 35.0503 44.139C35.7963 44.139 36.3151 44.0403 36.6068 43.8418C36.8985 43.6442 37.0444 43.3811 37.0444 43.0543C37.0444 42.7045 36.8985 42.4072 36.6068 42.1626C36.3151 41.9179 35.9126 41.7019 35.4002 41.5154C34.8869 41.329 34.298 41.1425 33.6342 40.956C32.9686 40.7695 32.2633 40.548 31.5174 40.2913C30.4207 39.9184 29.4763 39.5159 28.6843 39.0838C27.8913 38.6527 27.2377 38.1635 26.7253 37.6151C26.212 37.0677 25.8326 36.4427 25.588 35.7429C25.3434 35.0432 25.2206 34.2391 25.2206 33.3298C25.2206 31.9534 25.4717 30.7413 25.9729 29.6916C26.4742 28.642 27.1564 27.7678 28.0196 27.068C28.8541 26.3904 29.8059 25.8735 30.8712 25.5125V20.0899H37.9611V25.3787C38.5371 25.5181 39.1012 25.6778 39.6504 25.8605C40.4554 26.1292 41.2069 26.42 41.9066 26.7357C42.6064 27.0505 43.236 27.3477 43.7954 27.6275L40.857 33.2596C40.1572 32.8396 39.4344 32.4667 38.6885 32.1399C38.0589 31.8601 37.3536 31.598 36.5717 31.3524C35.7907 31.1078 35.0263 30.9859 34.2804 30.9859C33.6739 30.9859 33.1902 31.0791 32.8292 31.2656C32.4674 31.4521 32.2864 31.7669 32.2864 32.21C32.2864 32.5368 32.3917 32.8045 32.6012 33.0141C32.8117 33.2246 33.1145 33.4166 33.5114 33.592C33.9075 33.7665 34.3912 33.9363 34.9626 34.0988C35.5341 34.2622 36.1812 34.4607 36.905 34.6933C38.0469 35.0432 39.079 35.4281 40.0003 35.8482C40.9216 36.2673 41.7091 36.763 42.3617 37.3345C43.0144 37.9059 43.5157 38.6001 43.8656 39.4162C44.2154 40.2322 44.3908 41.2237 44.3908 42.3897C44.3908 43.8833 44.1167 45.1361 43.5683 46.1506Z" fill="url(#paint0_linear_18_20084)"/>
<defs>
<linearGradient id="paint0_linear_18_20084" x1="57.5754" y1="6.7342" x2="76.6149" y2="43.8577" gradientUnits="userSpaceOnUse">
<stop stop-color="#1682E7"/>
<stop offset="1" stop-color="#7216E7"/>
</linearGradient>
</defs>
</svg>
