<svg width="80" height="60" viewBox="0 0 267 105" fill="none" xmlns="http://www.w3.org/2000/svg">
<circle cx="52.5" cy="52.5" r="52.5" fill="url(#paint0_linear_459_25152)"/>
<g clip-path="url(#clip0_459_25152)">
<path d="M83.6485 21.6609C77.3611 21.6609 72.2636 26.758 72.2636 33.0459V56.7857H58.3863V33.8133C52.0988 33.8133 47.0013 38.9104 47.0013 45.1983V56.7857H36.3379V68.1708H72.2636C78.5515 68.1708 83.6485 63.0736 83.6485 56.7857V21.6609Z" fill="#F1F1F1"/>
<path d="M70.2609 72.2647H32.0793V60.7785V49.2922C25.7918 49.2922 20.6943 54.3893 20.6943 60.6772V72.2647C20.6943 78.5521 25.8028 83.6497 32.0793 83.6497H81.6458C81.6458 77.3618 76.5487 72.2647 70.2609 72.2647Z" fill="#F1F1F1"/>
</g>
<path d="M129.516 29.1785C129.658 29.1785 129.799 29.037 129.941 28.7539C130.083 28.4708 130.153 28.0058 130.153 27.3588V12.8014C130.153 12.1544 130.083 11.6995 129.941 11.4366C129.799 11.1535 129.658 11.0019 129.516 10.9817H134.187C134.045 10.9817 133.904 11.1232 133.762 11.4063C133.621 11.6893 133.55 12.1645 133.55 12.8317V25.7818C133.55 26.2266 133.601 26.4995 133.702 26.6006C133.823 26.6815 134.187 26.7219 134.793 26.7219H142.466C143.639 26.7219 144.579 26.5905 145.287 26.3277C146.015 26.0446 146.49 25.7716 146.712 25.5088L146.106 28.5416V29.1785H129.516Z" fill="url(#paint1_linear_459_25152)"/>
<path d="M148.827 29.1785C148.968 29.1785 149.11 29.037 149.251 28.7539C149.393 28.4708 149.464 28.0058 149.464 27.3588V12.8014C149.464 12.1544 149.393 11.6995 149.251 11.4366C149.11 11.1535 148.968 11.0019 148.827 10.9817H153.497C153.356 10.9817 153.214 11.1232 153.073 11.4063C152.931 11.6893 152.86 12.1645 152.86 12.8317V27.3588C152.86 28.0058 152.931 28.4708 153.073 28.7539C153.214 29.037 153.356 29.1785 153.497 29.1785H148.827Z" fill="url(#paint2_linear_459_25152)"/>
<path d="M157.149 29.1785C157.291 29.1785 157.432 29.037 157.574 28.7539C157.715 28.4708 157.786 28.0058 157.786 27.3588V12.8014C157.786 12.1544 157.715 11.6995 157.574 11.4366C157.432 11.1535 157.291 11.0019 157.149 10.9817H161.85C161.83 11.0423 161.901 11.2243 162.062 11.5276C162.244 11.8309 162.568 12.2757 163.033 12.862C163.174 13.044 163.468 13.4079 163.912 13.9538C164.377 14.4997 164.954 15.1771 165.641 15.9858C166.329 16.7743 167.067 17.6437 167.855 18.594C168.664 19.5241 169.473 20.4744 170.281 21.4448C171.11 22.3951 171.899 23.305 172.647 24.1744H172.708V12.8014C172.708 12.1544 172.637 11.6995 172.495 11.4366C172.354 11.1535 172.212 11.0019 172.071 10.9817H176.741C176.6 10.9817 176.458 11.1232 176.317 11.4063C176.175 11.6893 176.104 12.1645 176.104 12.8317V27.3588C176.104 28.0058 176.175 28.4708 176.317 28.7539C176.458 29.037 176.6 29.1785 176.741 29.1785H172.768C172.788 29.1178 172.708 28.9359 172.526 28.6326C172.344 28.3091 172.02 27.8643 171.555 27.2982C171.252 26.914 170.807 26.3782 170.221 25.6908C169.654 24.9831 169.007 24.1845 168.28 23.2949C167.552 22.385 166.773 21.4347 165.944 20.444C165.136 19.4533 164.327 18.4626 163.518 17.4719C162.73 16.4812 161.982 15.5612 161.274 14.712H161.183V27.3588C161.183 28.0058 161.254 28.4708 161.395 28.7539C161.537 29.037 161.678 29.1785 161.82 29.1785H157.149Z" fill="url(#paint3_linear_459_25152)"/>
<path d="M180.369 29.1785C180.511 29.1785 180.652 29.037 180.794 28.7539C180.935 28.4708 181.006 28.0058 181.006 27.3588V12.8014C181.006 12.1544 180.935 11.6995 180.794 11.4366C180.652 11.1535 180.511 11.0019 180.369 10.9817H185.04C184.898 10.9817 184.757 11.1232 184.615 11.4063C184.474 11.6893 184.403 12.1645 184.403 12.8317V17.7752C184.403 18.22 184.463 18.4828 184.585 18.5637C184.706 18.6446 185.06 18.685 185.646 18.685H185.949C186.88 18.685 187.83 18.4424 188.8 17.9571C189.771 17.4517 190.64 16.7541 191.409 15.8645C192.177 14.9749 192.713 13.9639 193.016 12.8317C193.198 12.1847 193.228 11.7197 193.107 11.4366C193.006 11.1535 192.874 11.0019 192.713 10.9817H199.172C198.97 10.9817 198.667 11.1232 198.263 11.4063C197.858 11.6893 197.444 12.1645 197.019 12.8317C196.493 13.6607 196.018 14.3683 195.594 14.9547C195.169 15.541 194.755 16.0465 194.35 16.4711C193.966 16.8956 193.542 17.3101 193.077 17.7145C192.45 18.2402 191.894 18.6243 191.409 18.867C190.923 19.1096 190.559 19.2815 190.317 19.3825V19.4735C190.802 19.5746 191.378 19.7667 192.045 20.0498C192.713 20.3126 193.481 20.7473 194.35 21.3539C195.402 22.102 196.312 22.9613 197.08 23.9317C197.868 24.882 198.606 25.9233 199.294 27.0555C199.759 27.8036 200.183 28.3495 200.568 28.6932C200.952 29.0167 201.245 29.1785 201.447 29.1785H195.078C195.301 29.1785 195.483 29.0471 195.624 28.7842C195.766 28.5214 195.725 28.0968 195.503 27.5105C195.24 26.7624 194.836 26.0143 194.29 25.2662C193.744 24.4979 193.066 23.8003 192.258 23.1735C191.449 22.5468 190.519 22.0514 189.468 21.6875C188.416 21.3033 187.254 21.1112 185.98 21.1112H185.646C185.019 21.1112 184.655 21.1618 184.554 21.2629C184.453 21.3438 184.403 21.6268 184.403 22.1121V27.3588C184.403 28.0058 184.474 28.4708 184.615 28.7539C184.757 29.037 184.898 29.1785 185.04 29.1785H180.369Z" fill="url(#paint4_linear_459_25152)"/>
<path d="M203.263 29.1785C203.405 29.1785 203.546 29.037 203.688 28.7539C203.829 28.4708 203.9 28.0058 203.9 27.3588V12.8014C203.9 12.1544 203.829 11.6995 203.688 11.4366C203.546 11.1535 203.405 11.0019 203.263 10.9817H220.338V11.5882L220.944 14.4997C220.439 14.2773 219.549 14.0448 218.276 13.8022C217.002 13.5394 215.465 13.4079 213.666 13.4079H208.54C207.934 13.4079 207.57 13.4585 207.448 13.5596C207.347 13.6404 207.297 13.8932 207.297 14.3178V17.7752C207.297 18.22 207.347 18.4828 207.448 18.5637C207.57 18.6446 207.924 18.685 208.51 18.685H213.514C214.687 18.685 215.627 18.6243 216.335 18.503C217.062 18.3615 217.538 18.22 217.76 18.0784C217.679 18.3413 217.588 18.6547 217.487 19.0186C217.386 19.3825 217.305 19.7465 217.244 20.1104C217.184 20.4744 217.153 20.808 217.153 21.1112H208.51C207.924 21.1112 207.57 21.1517 207.448 21.2326C207.347 21.2932 207.297 21.5561 207.297 22.0211V25.7818C207.297 26.2468 207.347 26.5197 207.448 26.6006C207.55 26.6815 207.903 26.7219 208.51 26.7219H217.335C218.508 26.7219 219.448 26.5905 220.156 26.3277C220.884 26.0446 221.359 25.7716 221.581 25.5088L220.975 28.2383V29.1785H203.263Z" fill="url(#paint5_linear_459_25152)"/>
<path d="M223.995 29.1785C224.137 29.1785 224.278 29.037 224.42 28.7539C224.561 28.4708 224.632 28.0058 224.632 27.3588V12.8014C224.632 12.1544 224.561 11.6995 224.42 11.4366C224.278 11.1535 224.137 11.0019 223.995 10.9817H233.518C235.318 10.9817 236.814 11.1535 238.007 11.4973C239.22 11.841 240.19 12.3161 240.918 12.9227C241.666 13.5292 242.232 14.2268 242.617 15.0153C243.001 15.7836 243.254 16.6025 243.375 17.4719C243.516 18.3413 243.587 19.2208 243.587 20.1104C243.587 20.9192 243.516 21.7582 243.375 22.6276C243.254 23.4768 242.991 24.2957 242.586 25.0842C242.202 25.8525 241.636 26.5501 240.888 27.1768C240.16 27.7834 239.19 28.2687 237.976 28.6326C236.784 28.9965 235.297 29.1785 233.518 29.1785H223.995ZM229.242 26.7219H232.972C234.711 26.7219 236.106 26.4995 237.158 26.0547C238.209 25.6099 238.977 24.9225 239.463 23.9924C239.948 23.0421 240.19 21.8189 240.19 20.3227V19.7768C240.19 18.1998 239.968 16.9563 239.523 16.0465C239.078 15.1164 238.33 14.4593 237.279 14.0751C236.228 13.6708 234.792 13.4686 232.972 13.4686H229.242C228.656 13.4686 228.302 13.509 228.181 13.5899C228.079 13.6506 228.029 13.8932 228.029 14.3178V25.8121C228.029 26.2569 228.079 26.5197 228.181 26.6006C228.302 26.6815 228.656 26.7219 229.242 26.7219Z" fill="url(#paint6_linear_459_25152)"/>
<path d="M129.516 60.7089C129.658 60.7089 129.799 60.5674 129.941 60.2843C130.083 60.0013 130.153 59.5362 130.153 58.8893V44.3318C130.153 43.6848 130.083 43.2299 129.941 42.967C129.799 42.684 129.658 42.5323 129.516 42.5121H146.591V43.1187L147.198 46.0302C146.692 45.8078 145.803 45.5753 144.529 45.3326C143.255 45.0698 141.718 44.9384 139.919 44.9384H134.793C134.187 44.9384 133.823 44.9889 133.702 45.09C133.601 45.1709 133.55 45.4236 133.55 45.8482V49.3056C133.55 49.7504 133.601 50.0133 133.702 50.0941C133.823 50.175 134.177 50.2154 134.763 50.2154H139.767C140.94 50.2154 141.88 50.1548 142.588 50.0335C143.316 49.8919 143.791 49.7504 144.013 49.6089C143.932 49.8717 143.841 50.1851 143.74 50.549C143.639 50.913 143.558 51.2769 143.498 51.6409C143.437 52.0048 143.407 52.3384 143.407 52.6417H134.763C134.177 52.6417 133.823 52.6821 133.702 52.763C133.601 52.8237 133.55 53.0865 133.55 53.5515V58.8893C133.55 59.5565 133.621 60.0316 133.762 60.3147C133.904 60.5775 134.045 60.7089 134.187 60.7089H129.516Z" fill="url(#paint7_linear_459_25152)"/>
<path d="M149.626 60.7089C149.768 60.7089 149.91 60.5674 150.051 60.2843C150.193 60.0013 150.263 59.5362 150.263 58.8893V44.3318C150.263 43.6848 150.193 43.2299 150.051 42.967C149.91 42.684 149.768 42.5323 149.626 42.5121H154.297C154.155 42.5121 154.014 42.6537 153.872 42.9367C153.731 43.2198 153.66 43.6949 153.66 44.3621V58.8893C153.66 59.5362 153.731 60.0013 153.872 60.2843C154.014 60.5674 154.155 60.7089 154.297 60.7089H149.626Z" fill="url(#paint8_linear_459_25152)"/>
<path d="M157.949 60.7089C158.09 60.7089 158.232 60.5674 158.373 60.2843C158.515 60.0013 158.586 59.5362 158.586 58.8893V44.3318C158.586 43.6848 158.515 43.2299 158.373 42.967C158.232 42.684 158.09 42.5323 157.949 42.5121H162.65C162.63 42.5728 162.7 42.7547 162.862 43.058C163.044 43.3613 163.368 43.8061 163.833 44.3925C163.974 44.5744 164.267 44.9384 164.712 45.4843C165.177 46.0302 165.753 46.7075 166.441 47.5162C167.128 48.3048 167.866 49.1742 168.655 50.1245C169.463 51.0545 170.272 52.0048 171.081 52.9753C171.91 53.9256 172.698 54.8354 173.447 55.7048H173.507V44.3318C173.507 43.6848 173.436 43.2299 173.295 42.967C173.153 42.684 173.012 42.5323 172.87 42.5121H177.541C177.399 42.5121 177.258 42.6537 177.116 42.9367C176.975 43.2198 176.904 43.6949 176.904 44.3621V58.8893C176.904 59.5362 176.975 60.0013 177.116 60.2843C177.258 60.5674 177.399 60.7089 177.541 60.7089H173.568C173.588 60.6483 173.507 60.4663 173.325 60.163C173.143 59.8395 172.82 59.3947 172.355 58.8286C172.051 58.4444 171.607 57.9086 171.02 57.2212C170.454 56.5136 169.807 55.7149 169.079 54.8253C168.351 53.9155 167.573 52.9652 166.744 51.9745C165.935 50.9837 165.127 49.993 164.318 49.0023C163.529 48.0116 162.781 47.0917 162.074 46.2425H161.983V58.8893C161.983 59.5362 162.053 60.0013 162.195 60.2843C162.336 60.5674 162.478 60.7089 162.619 60.7089H157.949Z" fill="url(#paint9_linear_459_25152)"/>
<path d="M179.592 60.7089C179.673 60.7089 179.814 60.5674 180.016 60.2843C180.219 60.0013 180.481 59.5261 180.805 58.8589C180.946 58.5556 181.189 58.0401 181.533 57.3122C181.876 56.5843 182.281 55.725 182.746 54.7343C183.211 53.7436 183.696 52.7124 184.202 51.6409C184.707 50.549 185.182 49.5078 185.627 48.5171C186.092 47.5264 186.496 46.657 186.84 45.9089C187.184 45.1608 187.426 44.6351 187.568 44.3318C187.851 43.6848 188.003 43.2198 188.023 42.9367C188.043 42.6537 188.003 42.5121 187.902 42.5121H193.209C193.128 42.5121 193.098 42.6537 193.118 42.9367C193.138 43.2198 193.28 43.6848 193.543 44.3318C193.684 44.6351 193.917 45.1608 194.24 45.9089C194.564 46.6367 194.948 47.496 195.393 48.4867C195.858 49.4775 196.333 50.5086 196.818 51.5802C197.303 52.6316 197.778 53.6526 198.243 54.6433C198.708 55.634 199.113 56.5034 199.457 57.2515C199.8 57.9996 200.053 58.5354 200.215 58.8589C200.538 59.5261 200.831 60.0013 201.094 60.2843C201.377 60.5674 201.59 60.7089 201.731 60.7089H196.12C196.323 60.6685 196.484 60.5067 196.606 60.2237C196.747 59.9406 196.727 59.4857 196.545 58.8589C196.505 58.6972 196.434 58.4647 196.333 58.1614C196.232 57.8581 196.141 57.6357 196.06 57.4942C195.939 57.2111 195.817 57.0089 195.696 56.8876C195.575 56.7663 195.413 56.6854 195.211 56.645C195.029 56.6045 194.766 56.5843 194.422 56.5843H186.658C186.274 56.5843 185.971 56.6045 185.748 56.645C185.526 56.6652 185.354 56.736 185.233 56.8573C185.132 56.9786 185.031 57.1808 184.929 57.4638C184.849 57.7065 184.768 57.9491 184.687 58.1917C184.606 58.4343 184.545 58.6567 184.505 58.8589C184.323 59.5261 184.272 60.0013 184.353 60.2843C184.434 60.5674 184.545 60.7089 184.687 60.7089H179.592ZM187.447 54.1581H193.543C194.129 54.1581 194.452 54.1075 194.513 54.0064C194.574 53.9053 194.543 53.6829 194.422 53.3392C194.159 52.6922 193.856 51.9947 193.512 51.2466C193.169 50.4783 192.815 49.7201 192.451 48.972C192.107 48.2037 191.763 47.4758 191.42 46.7884C191.096 46.0807 190.813 45.4641 190.57 44.9384H190.51C190.085 45.828 189.651 46.758 189.206 47.7285C188.761 48.6788 188.336 49.5786 187.932 50.4277C187.548 51.2567 187.234 51.934 186.992 52.4597C186.749 52.9854 186.628 53.2482 186.628 53.2482C186.486 53.5717 186.436 53.8043 186.476 53.9458C186.537 54.0873 186.86 54.1581 187.447 54.1581Z" fill="url(#paint10_linear_459_25152)"/>
<path d="M203.678 60.7089C203.819 60.7089 203.961 60.5674 204.102 60.2843C204.244 60.0013 204.315 59.5362 204.315 58.8893V44.3318C204.315 43.6848 204.244 43.2299 204.102 42.967C203.961 42.684 203.819 42.5323 203.678 42.5121H208.379C208.358 42.5728 208.429 42.7547 208.591 43.058C208.773 43.3613 209.096 43.8061 209.561 44.3925C209.703 44.5744 209.996 44.9384 210.441 45.4843C210.906 46.0302 211.482 46.7075 212.17 47.5162C212.857 48.3048 213.595 49.1742 214.384 50.1245C215.192 51.0545 216.001 52.0048 216.81 52.9753C217.639 53.9256 218.427 54.8354 219.175 55.7048H219.236V44.3318C219.236 43.6848 219.165 43.2299 219.024 42.967C218.882 42.684 218.741 42.5323 218.599 42.5121H223.27C223.128 42.5121 222.987 42.6537 222.845 42.9367C222.704 43.2198 222.633 43.6949 222.633 44.3621V58.8893C222.633 59.5362 222.704 60.0013 222.845 60.2843C222.987 60.5674 223.128 60.7089 223.27 60.7089H219.297C219.317 60.6483 219.236 60.4663 219.054 60.163C218.872 59.8395 218.549 59.3947 218.084 58.8286C217.78 58.4444 217.336 57.9086 216.749 57.2212C216.183 56.5136 215.536 55.7149 214.808 54.8253C214.08 53.9155 213.302 52.9652 212.473 51.9745C211.664 50.9837 210.855 49.993 210.047 49.0023C209.258 48.0116 208.51 47.0917 207.802 46.2425H207.711V58.8893C207.711 59.5362 207.782 60.0013 207.924 60.2843C208.065 60.5674 208.207 60.7089 208.348 60.7089H203.678Z" fill="url(#paint11_linear_459_25152)"/>
<path d="M236.845 61.0122C233.368 61.0122 230.759 60.2641 229.021 58.7679C227.302 57.2515 226.443 54.8657 226.443 51.6105C226.443 49.7302 226.797 48.0925 227.504 46.6974C228.212 45.2821 229.334 44.1802 230.871 43.3916C232.407 42.6031 234.399 42.2088 236.845 42.2088C238.766 42.2088 240.363 42.3099 241.637 42.5121C242.911 42.7143 243.77 42.9165 244.215 43.1187V43.7252L244.822 46.4548C244.437 46.1919 243.861 45.919 243.093 45.6359C242.345 45.3528 241.445 45.1203 240.394 44.9384C239.342 44.7362 238.18 44.6351 236.906 44.6351C235.107 44.6351 233.691 44.9384 232.66 45.5449C231.629 46.1313 230.901 46.9501 230.476 48.0015C230.052 49.0529 229.84 50.2559 229.84 51.6105C229.84 52.9652 230.052 54.1682 230.476 55.2196C230.921 56.2507 231.71 57.0696 232.842 57.6761C233.994 58.2625 235.642 58.5556 237.785 58.5556C239.524 58.5556 240.97 58.3535 242.122 57.9491C243.295 57.5245 244.094 57.1201 244.518 56.736V57.6458L244.822 59.4958C244.478 59.8193 243.639 60.1529 242.304 60.4966C240.99 60.8404 239.17 61.0122 236.845 61.0122Z" fill="url(#paint12_linear_459_25152)"/>
<path d="M247.867 60.7089C248.008 60.7089 248.15 60.5674 248.291 60.2843C248.433 60.0013 248.504 59.5362 248.504 58.8893V44.3318C248.504 43.6848 248.433 43.2299 248.291 42.967C248.15 42.684 248.008 42.5323 247.867 42.5121H264.941V43.1187L265.548 46.0302C265.042 45.8078 264.153 45.5753 262.879 45.3326C261.605 45.0698 260.069 44.9384 258.269 44.9384H253.144C252.537 44.9384 252.173 44.9889 252.052 45.09C251.951 45.1709 251.9 45.4236 251.9 45.8482V49.3056C251.9 49.7504 251.951 50.0133 252.052 50.0941C252.173 50.175 252.527 50.2154 253.113 50.2154H258.118C259.29 50.2154 260.23 50.1548 260.938 50.0335C261.666 49.8919 262.141 49.7504 262.363 49.6089C262.283 49.8717 262.192 50.1851 262.091 50.549C261.989 50.913 261.909 51.2769 261.848 51.6409C261.787 52.0048 261.757 52.3384 261.757 52.6417H253.113C252.527 52.6417 252.173 52.6821 252.052 52.763C251.951 52.8237 251.9 53.0865 251.9 53.5515V57.3122C251.9 57.7772 251.951 58.0502 252.052 58.131C252.153 58.2119 252.507 58.2524 253.113 58.2524H261.939C263.112 58.2524 264.052 58.1209 264.759 57.8581C265.487 57.575 265.962 57.3021 266.185 57.0392L265.578 59.7688V60.7089H247.867Z" fill="url(#paint13_linear_459_25152)"/>
<path d="M135.764 92.2394C135.905 92.1989 135.996 92.0473 136.037 91.7844C136.077 91.5014 135.986 91.0566 135.764 90.45C135.683 90.2276 135.491 89.7727 135.188 89.0853C134.905 88.3978 134.551 87.5689 134.126 86.5984C133.722 85.6076 133.287 84.5664 132.822 83.4746C132.357 82.3828 131.902 81.3213 131.457 80.2901C131.013 79.259 130.618 78.3491 130.275 77.5606C129.951 76.7721 129.708 76.206 129.547 75.8622C129.284 75.2152 129.001 74.7603 128.698 74.4975C128.394 74.2144 128.162 74.0628 128 74.0426H133.489C133.348 74.0628 133.257 74.2144 133.216 74.4975C133.196 74.7805 133.297 75.2557 133.52 75.9229C133.621 76.1857 133.783 76.6508 134.005 77.318C134.248 77.9852 134.541 78.7838 134.884 79.7139C135.228 80.6237 135.592 81.6145 135.976 82.686C136.36 83.7374 136.755 84.809 137.159 85.9008C137.563 86.9724 137.937 87.9934 138.281 88.9639H138.342C138.665 88.0339 138.999 87.0432 139.343 85.9918C139.707 84.9202 140.06 83.8587 140.404 82.8074C140.748 81.7358 141.071 80.745 141.375 79.8352C141.678 78.9052 141.941 78.0964 142.163 77.409C142.386 76.7215 142.537 76.2262 142.618 75.9229C142.8 75.2557 142.871 74.7805 142.83 74.4975C142.79 74.2144 142.719 74.0628 142.618 74.0426H148.411C148.289 74.0426 148.209 74.1841 148.168 74.4672C148.128 74.7502 148.209 75.2456 148.411 75.9532C148.492 76.2161 148.633 76.6811 148.835 77.3483C149.058 78.0155 149.321 78.8142 149.624 79.7442C149.927 80.6541 150.251 81.6448 150.594 82.7164C150.958 83.7677 151.312 84.8393 151.656 85.9311C152.02 87.0027 152.363 88.0137 152.687 88.9639H152.748C153.112 87.9934 153.496 86.9724 153.9 85.9008C154.304 84.8292 154.699 83.7677 155.083 82.7164C155.487 81.6448 155.861 80.644 156.205 79.7139C156.549 78.7838 156.842 77.9852 157.085 77.318C157.327 76.6508 157.489 76.1857 157.57 75.9229C157.792 75.2355 157.873 74.7502 157.812 74.4672C157.772 74.1841 157.691 74.0426 157.57 74.0426H163.059C162.918 74.0628 162.715 74.2245 162.453 74.5278C162.19 74.8109 161.886 75.2759 161.543 75.9229C161.381 76.2262 161.128 76.7519 160.785 77.5C160.441 78.2278 160.047 79.0871 159.602 80.0778C159.157 81.0686 158.702 82.0997 158.237 83.1713C157.772 84.2227 157.327 85.2437 156.903 86.2344C156.478 87.2049 156.114 88.0642 155.811 88.8123C155.528 89.5402 155.336 90.0558 155.235 90.359C155.032 91.0263 154.951 91.5014 154.992 91.7844C155.032 92.0675 155.113 92.2191 155.235 92.2394H150.079C150.2 92.2191 150.281 92.0675 150.321 91.7844C150.362 91.5014 150.281 91.0263 150.079 90.359C149.998 90.0962 149.846 89.6312 149.624 88.9639C149.401 88.2765 149.129 87.4678 148.805 86.5377C148.482 85.5874 148.128 84.5765 147.744 83.5049C147.359 82.4131 146.975 81.3213 146.591 80.2295C146.207 79.1174 145.843 78.0661 145.499 77.0754H145.439C145.095 78.0661 144.731 79.1174 144.347 80.2295C143.963 81.3213 143.578 82.4131 143.194 83.5049C142.83 84.5967 142.487 85.6178 142.163 86.568C141.84 87.4981 141.567 88.2967 141.344 88.9639C141.142 89.6312 141.001 90.0962 140.92 90.359C140.738 91.006 140.667 91.4812 140.707 91.7844C140.748 92.0675 140.819 92.2191 140.92 92.2394H135.764Z" fill="url(#paint14_linear_459_25152)"/>
<path d="M173.511 92.5426C170.033 92.5426 167.516 91.7137 165.959 90.0557C164.423 88.3776 163.654 86.0423 163.654 83.05C163.654 81.1292 163.988 79.4814 164.655 78.1065C165.343 76.7114 166.404 75.6398 167.84 74.8917C169.295 74.1234 171.186 73.7393 173.511 73.7393H174.451C176.736 73.7393 178.586 74.1133 180.001 74.8614C181.437 75.6095 182.488 76.6811 183.155 78.0762C183.822 79.4713 184.156 81.1292 184.156 83.05C184.156 86.0423 183.388 88.3776 181.851 90.0557C180.315 91.7137 177.848 92.5426 174.451 92.5426H173.511ZM173.814 90.0861H174.148C175.664 90.0861 176.908 89.8637 177.878 89.4189C178.849 88.974 179.566 88.2462 180.031 87.2352C180.517 86.2041 180.759 84.809 180.759 83.05C180.759 81.3314 180.517 79.9767 180.031 78.986C179.546 77.9751 178.818 77.2573 177.848 76.8327C176.877 76.3879 175.644 76.1655 174.148 76.1655H173.814C172.298 76.1655 171.034 76.3879 170.023 76.8327C169.033 77.2775 168.284 78.0054 167.779 79.0164C167.294 80.0273 167.051 81.3718 167.051 83.05C167.051 84.7888 167.294 86.1738 167.779 87.2049C168.284 88.2361 169.043 88.974 170.054 89.4189C171.065 89.8637 172.318 90.0861 173.814 90.0861Z" fill="url(#paint15_linear_459_25152)"/>
<path d="M187.359 92.2394C187.501 92.2394 187.632 92.0978 187.754 91.8148C187.895 91.5317 187.966 91.0667 187.966 90.4197V75.8622C187.966 75.2152 187.895 74.7603 187.754 74.4975C187.612 74.2144 187.471 74.0628 187.329 74.0426H197.277C199.157 74.0426 200.623 74.2751 201.674 74.7401C202.726 75.1849 203.464 75.8319 203.888 76.6811C204.333 77.5101 204.555 78.521 204.555 79.7139C204.555 80.462 204.394 81.2 204.07 81.9278C203.747 82.6557 203.221 83.2825 202.493 83.8082C201.786 84.3339 200.825 84.6776 199.612 84.8393V84.9303C200.967 85.2943 202.129 85.9615 203.1 86.932C204.09 87.9025 204.94 88.9639 205.647 90.1164C206.112 90.8645 206.537 91.4003 206.921 91.7238C207.305 92.0473 207.598 92.2191 207.801 92.2394H201.432C201.674 92.2191 201.866 92.0877 202.008 91.8451C202.17 91.5823 202.119 91.1577 201.856 90.5713C201.432 89.6008 200.825 88.7415 200.037 87.9934C199.268 87.2251 198.298 86.6287 197.125 86.2041C195.952 85.7593 194.557 85.5369 192.94 85.5369H192.606C191.979 85.5369 191.616 85.5874 191.514 85.6885C191.413 85.7896 191.363 86.0423 191.363 86.4467V90.4197C191.363 91.0667 191.434 91.5317 191.575 91.8148C191.717 92.0978 191.858 92.2394 192 92.2394H187.359ZM192.606 83.1106H196.337C197.954 83.1106 199.167 82.8276 199.976 82.2615C200.785 81.6751 201.189 80.8259 201.189 79.7139C201.189 78.9658 201.027 78.3592 200.704 77.8942C200.401 77.409 199.915 77.0551 199.248 76.8327C198.581 76.6103 197.711 76.4991 196.64 76.4991H192.606C191.979 76.4991 191.616 76.5295 191.514 76.5901C191.413 76.6508 191.363 76.8833 191.363 77.2877V82.2918C191.363 82.6962 191.413 82.9388 191.514 83.0197C191.616 83.0803 191.979 83.1106 192.606 83.1106Z" fill="url(#paint16_linear_459_25152)"/>
<path d="M209.779 92.2394C209.921 92.2394 210.062 92.0978 210.204 91.8148C210.345 91.5317 210.416 91.0667 210.416 90.4197V75.8622C210.416 75.2152 210.345 74.7603 210.204 74.4975C210.062 74.2144 209.921 74.0628 209.779 74.0426H214.45C214.308 74.0426 214.166 74.1841 214.025 74.4672C213.883 74.7502 213.813 75.2253 213.813 75.8926V88.8426C213.813 89.2874 213.863 89.5604 213.964 89.6615C214.086 89.7424 214.449 89.7828 215.056 89.7828H222.729C223.902 89.7828 224.842 89.6514 225.55 89.3885C226.277 89.1055 226.753 88.8325 226.975 88.5697L226.368 91.6025V92.2394H209.779Z" fill="url(#paint17_linear_459_25152)"/>
<path d="M229.089 92.2394C229.231 92.2394 229.372 92.0978 229.514 91.8148C229.656 91.5317 229.726 91.0667 229.726 90.4197V75.8622C229.726 75.2152 229.656 74.7603 229.514 74.4975C229.372 74.2144 229.231 74.0628 229.089 74.0426H238.612C240.412 74.0426 241.908 74.2144 243.101 74.5581C244.314 74.9019 245.285 75.377 246.012 75.9836C246.761 76.5901 247.327 77.2877 247.711 78.0762C248.095 78.8445 248.348 79.6634 248.469 80.5328C248.611 81.4022 248.681 82.2817 248.681 83.1713C248.681 83.98 248.611 84.8191 248.469 85.6885C248.348 86.5377 248.085 87.3566 247.68 88.1451C247.296 88.9134 246.73 89.6109 245.982 90.2377C245.254 90.8443 244.284 91.3295 243.071 91.6935C241.878 92.0574 240.392 92.2394 238.612 92.2394H229.089ZM234.336 89.7828H238.066C239.805 89.7828 241.2 89.5604 242.252 89.1156C243.303 88.6708 244.071 87.9833 244.557 87.0533C245.042 86.103 245.285 84.8798 245.285 83.3836V82.8377C245.285 81.2606 245.062 80.0172 244.617 79.1073C244.173 78.1773 243.424 77.5202 242.373 77.136C241.322 76.7316 239.886 76.5295 238.066 76.5295H234.336C233.75 76.5295 233.396 76.5699 233.275 76.6508C233.174 76.7114 233.123 76.9541 233.123 77.3786V88.873C233.123 89.3178 233.174 89.5806 233.275 89.6615C233.396 89.7424 233.75 89.7828 234.336 89.7828Z" fill="url(#paint18_linear_459_25152)"/>
<defs>
<linearGradient id="paint0_linear_459_25152" x1="88.0598" y1="9.60625" x2="117.709" y2="66.9374" gradientUnits="userSpaceOnUse">
<stop stop-color="#1682E7"/>
<stop offset="1" stop-color="#7216E7"/>
</linearGradient>
<linearGradient id="paint1_linear_459_25152" x1="145.649" y1="38.7866" x2="276.41" y2="47.8239" gradientUnits="userSpaceOnUse">
<stop stop-color="#1682E7"/>
<stop offset="1" stop-color="#7216E7"/>
</linearGradient>
<linearGradient id="paint2_linear_459_25152" x1="145.649" y1="38.7866" x2="276.41" y2="47.8239" gradientUnits="userSpaceOnUse">
<stop stop-color="#1682E7"/>
<stop offset="1" stop-color="#7216E7"/>
</linearGradient>
<linearGradient id="paint3_linear_459_25152" x1="145.649" y1="38.7866" x2="276.41" y2="47.8239" gradientUnits="userSpaceOnUse">
<stop stop-color="#1682E7"/>
<stop offset="1" stop-color="#7216E7"/>
</linearGradient>
<linearGradient id="paint4_linear_459_25152" x1="145.649" y1="38.7866" x2="276.41" y2="47.8239" gradientUnits="userSpaceOnUse">
<stop stop-color="#1682E7"/>
<stop offset="1" stop-color="#7216E7"/>
</linearGradient>
<linearGradient id="paint5_linear_459_25152" x1="145.649" y1="38.7866" x2="276.41" y2="47.8239" gradientUnits="userSpaceOnUse">
<stop stop-color="#1682E7"/>
<stop offset="1" stop-color="#7216E7"/>
</linearGradient>
<linearGradient id="paint6_linear_459_25152" x1="145.649" y1="38.7866" x2="276.41" y2="47.8239" gradientUnits="userSpaceOnUse">
<stop stop-color="#1682E7"/>
<stop offset="1" stop-color="#7216E7"/>
</linearGradient>
<linearGradient id="paint7_linear_459_25152" x1="145.649" y1="38.7866" x2="276.41" y2="47.8239" gradientUnits="userSpaceOnUse">
<stop stop-color="#1682E7"/>
<stop offset="1" stop-color="#7216E7"/>
</linearGradient>
<linearGradient id="paint8_linear_459_25152" x1="145.649" y1="38.7866" x2="276.41" y2="47.8239" gradientUnits="userSpaceOnUse">
<stop stop-color="#1682E7"/>
<stop offset="1" stop-color="#7216E7"/>
</linearGradient>
<linearGradient id="paint9_linear_459_25152" x1="145.649" y1="38.7866" x2="276.41" y2="47.8239" gradientUnits="userSpaceOnUse">
<stop stop-color="#1682E7"/>
<stop offset="1" stop-color="#7216E7"/>
</linearGradient>
<linearGradient id="paint10_linear_459_25152" x1="145.649" y1="38.7866" x2="276.41" y2="47.8239" gradientUnits="userSpaceOnUse">
<stop stop-color="#1682E7"/>
<stop offset="1" stop-color="#7216E7"/>
</linearGradient>
<linearGradient id="paint11_linear_459_25152" x1="145.649" y1="38.7866" x2="276.41" y2="47.8239" gradientUnits="userSpaceOnUse">
<stop stop-color="#1682E7"/>
<stop offset="1" stop-color="#7216E7"/>
</linearGradient>
<linearGradient id="paint12_linear_459_25152" x1="145.649" y1="38.7866" x2="276.41" y2="47.8239" gradientUnits="userSpaceOnUse">
<stop stop-color="#1682E7"/>
<stop offset="1" stop-color="#7216E7"/>
</linearGradient>
<linearGradient id="paint13_linear_459_25152" x1="145.649" y1="38.7866" x2="276.41" y2="47.8239" gradientUnits="userSpaceOnUse">
<stop stop-color="#1682E7"/>
<stop offset="1" stop-color="#7216E7"/>
</linearGradient>
<linearGradient id="paint14_linear_459_25152" x1="145.649" y1="38.7866" x2="276.41" y2="47.8239" gradientUnits="userSpaceOnUse">
<stop stop-color="#1682E7"/>
<stop offset="1" stop-color="#7216E7"/>
</linearGradient>
<linearGradient id="paint15_linear_459_25152" x1="145.649" y1="38.7866" x2="276.41" y2="47.8239" gradientUnits="userSpaceOnUse">
<stop stop-color="#1682E7"/>
<stop offset="1" stop-color="#7216E7"/>
</linearGradient>
<linearGradient id="paint16_linear_459_25152" x1="145.649" y1="38.7866" x2="276.41" y2="47.8239" gradientUnits="userSpaceOnUse">
<stop stop-color="#1682E7"/>
<stop offset="1" stop-color="#7216E7"/>
</linearGradient>
<linearGradient id="paint17_linear_459_25152" x1="145.649" y1="38.7866" x2="276.41" y2="47.8239" gradientUnits="userSpaceOnUse">
<stop stop-color="#1682E7"/>
<stop offset="1" stop-color="#7216E7"/>
</linearGradient>
<linearGradient id="paint18_linear_459_25152" x1="145.649" y1="38.7866" x2="276.41" y2="47.8239" gradientUnits="userSpaceOnUse">
<stop stop-color="#1682E7"/>
<stop offset="1" stop-color="#7216E7"/>
</linearGradient>
<clipPath id="clip0_459_25152">
<rect width="62.9531" height="62.1153" fill="white" transform="translate(20.6943 21.6609)"/>
</clipPath>
</defs>
</svg>
