<svg width="179" height="27" viewBox="0 0 179 27" fill="none" xmlns="http://www.w3.org/2000/svg">
<path d="M48.8659 17.8605H42.5771L41.4984 21.6017H38.2622L42.187 8.79459C42.4624 7.87651 42.7531 7.16501 43.0591 6.66007C43.3652 6.15513 43.7247 5.79555 44.1379 5.58133C44.5663 5.36712 45.0942 5.26001 45.7215 5.26001C46.3489 5.26001 46.8691 5.36712 47.2823 5.58133C47.6954 5.79555 48.055 6.15513 48.361 6.66007C48.6823 7.16501 48.9807 7.87651 49.2561 8.79459L53.1809 21.6017H49.9447L48.8659 17.8605ZM48.1544 15.4506L46.2265 8.84049C46.1194 8.44266 45.9511 8.24374 45.7215 8.24374C45.492 8.24374 45.3237 8.44266 45.2166 8.84049L43.2886 15.4506H48.1544Z" fill="white"/>
<path d="M68.6143 21.6017H65.1945L64.1387 18.0442C63.9245 17.3097 63.7103 16.7436 63.4961 16.3457C63.2819 15.9326 62.9911 15.6189 62.6239 15.4047C62.2567 15.1905 61.767 15.0834 61.155 15.0834H58.8369V21.6017H55.6007V5.53543H62.096C64.0546 5.53543 65.5005 5.92561 66.4339 6.70597C67.3673 7.47103 67.834 8.67217 67.834 10.3094C67.834 11.3652 67.5509 12.2144 66.9848 12.8571C66.4339 13.4997 65.6689 13.9128 64.6896 14.0964C65.4699 14.3566 66.059 14.808 66.4569 15.4506C66.8547 16.0933 67.2219 16.9654 67.5585 18.0671L68.6143 21.6017ZM62.1878 12.5587C62.8917 12.5587 63.4655 12.3751 63.9092 12.0078C64.3683 11.6253 64.5978 11.0592 64.5978 10.3094C64.5978 9.55964 64.3683 9.00115 63.9092 8.63392C63.4655 8.25139 62.8917 8.06013 62.1878 8.06013H58.8369V12.5587H62.1878Z" fill="white"/>
<path d="M74.3724 8.06013H69.5295V5.53543H82.4514V8.06013H77.6086V21.6017H74.3724V8.06013Z" fill="white"/>
<path d="M84.8507 5.53543H88.087V21.6017H84.8507V5.53543Z" fill="white"/>
<path d="M105.199 5.53543V17.8146C105.199 19.054 104.946 19.9951 104.441 20.6377C103.936 21.2804 103.125 21.6017 102.008 21.6017H99.7361L95.008 10.6537V21.6017H91.9784V5.53543H95.6277L101.457 18.8475H101.503C101.763 18.8475 101.939 18.7404 102.031 18.5261C102.123 18.2966 102.169 17.8911 102.169 17.3097V5.53543H105.199Z" fill="white"/>
<path d="M108.26 10.5389C108.26 8.91699 108.704 7.6776 109.591 6.82073C110.478 5.96386 111.94 5.53543 113.975 5.53543H119.345V8.06013H113.975C113.133 8.06013 112.506 8.25904 112.093 8.65687C111.695 9.0547 111.496 9.68205 111.496 10.5389V12.7652H118.336V15.2899H111.496V21.6017H108.26V10.5389Z" fill="white"/>
<path d="M122.103 5.53543H125.339V21.6017H122.103V5.53543Z" fill="white"/>
<path d="M142.45 5.53543V17.8146C142.45 19.054 142.198 19.9951 141.693 20.6377C141.188 21.2804 140.377 21.6017 139.26 21.6017H136.988L132.26 10.6537V21.6017H129.23V5.53543H132.88L138.709 18.8475H138.755C139.015 18.8475 139.191 18.7404 139.283 18.5261C139.375 18.2966 139.421 17.8911 139.421 17.3097V5.53543H142.45Z" fill="white"/>
<path d="M146.085 5.53543H149.322V21.6017H146.085V5.53543Z" fill="white"/>
<path d="M156.564 8.06013H151.721V5.53543H164.643V8.06013H159.8V21.6017H156.564V8.06013Z" fill="white"/>
<path d="M170.37 14.7161L165.091 5.53543H168.695L172.069 11.7554L175.374 5.53543H179L173.607 14.7161V21.6017H170.37V14.7161Z" fill="white"/>
<g clip-path="url(#clip0_3744_7747)">
<path d="M28.9625 12.1347L25.1386 7.75011L20.2685 2.16565L20.0755 1.94456C18.9826 0.748681 17.4216 0 15.6874 0C14.0026 0 12.4812 0.706474 11.3943 1.84407L11.2587 1.98978C11.2528 1.99581 11.2478 2.00285 11.2429 2.00888L2.30045 11.6905C2.24897 11.7447 2.19849 11.799 2.149 11.8543C0.813669 13.3456 0 15.3264 0 17.501C0 19.5461 0.719632 21.4203 1.91539 22.8765C2.12524 23.1307 2.34895 23.3729 2.58553 23.599L3.99609 25.1225C4.02083 25.1507 4.04657 25.1788 4.0733 25.2059C4.65831 25.82 5.4789 26.2008 6.38661 26.2008C6.88154 26.2008 7.35074 26.0873 7.77044 25.8843C8.08126 25.7345 8.36436 25.5356 8.61084 25.2974L8.88602 24.9949L14.7698 18.5311L15.7359 17.4699L16.506 16.674L20.1388 12.9185C20.32 12.7045 20.514 12.5035 20.7209 12.3166C21.8364 11.3056 23.3074 10.6916 24.9199 10.6916C26.5383 10.6916 28.0132 11.3096 29.1307 12.3276L28.9625 12.1347Z" fill="url(#paint0_linear_3744_7747)"/>
<path d="M27.7241 25.2361L27.4727 25.5235C27.5617 25.433 27.6459 25.3366 27.7241 25.2361Z" fill="url(#paint1_linear_3744_7747)"/>
<path d="M31.2223 16.8549C31.0174 15.2962 30.3898 13.8712 29.4603 12.7045L29.1307 12.3276C28.0131 11.3096 26.5382 10.6916 24.9198 10.6916C23.3073 10.6916 21.8364 11.3056 20.7208 12.3165C20.5139 12.5035 20.3199 12.7045 20.1388 12.9185L16.506 16.674L15.7358 17.4699L16.505 18.3341L22.756 25.3516C22.7728 25.3707 22.7906 25.3908 22.8074 25.4099C23.1668 25.8109 23.6221 26.1214 24.1378 26.3023C24.1378 26.3023 24.1378 26.3023 24.1388 26.3023C24.4684 26.4189 24.8238 26.4822 25.193 26.4822C26.0809 26.4822 26.8847 26.1174 27.4677 25.5285C27.4697 25.5265 27.4707 25.5255 27.4727 25.5235L27.7241 25.2361C27.7261 25.2341 27.7281 25.2321 27.729 25.2301L28.9406 23.8493C29.1218 23.6623 29.293 23.4664 29.4544 23.2624C30.5917 21.8384 31.2797 20.0285 31.2965 18.0538C31.3005 17.6468 31.2747 17.2468 31.2223 16.8549Z" fill="url(#paint2_linear_3744_7747)"/>
</g>
<defs>
<linearGradient id="paint0_linear_3744_7747" x1="-7.70619" y1="27.0221" x2="34.6827" y2="-2.38884" gradientUnits="userSpaceOnUse">
<stop offset="0.0529" stop-color="#09453D"/>
<stop offset="0.1205" stop-color="#1A6150"/>
<stop offset="0.2125" stop-color="#2C8065"/>
<stop offset="0.3137" stop-color="#3B9977"/>
<stop offset="0.4258" stop-color="#47AD84"/>
<stop offset="0.5543" stop-color="#4FBB8E"/>
<stop offset="0.714" stop-color="#54C393"/>
<stop offset="1" stop-color="#55C595"/>
</linearGradient>
<linearGradient id="paint1_linear_3744_7747" x1="3.2404" y1="42.7985" x2="45.6285" y2="13.3874" gradientUnits="userSpaceOnUse">
<stop offset="0.0529" stop-color="#09453D"/>
<stop offset="0.1205" stop-color="#1A6150"/>
<stop offset="0.2125" stop-color="#2C8065"/>
<stop offset="0.3137" stop-color="#3B9977"/>
<stop offset="0.4258" stop-color="#47AD84"/>
<stop offset="0.5543" stop-color="#4FBB8E"/>
<stop offset="0.714" stop-color="#54C393"/>
<stop offset="1" stop-color="#55C595"/>
</linearGradient>
<linearGradient id="paint2_linear_3744_7747" x1="15.7272" y1="10.4898" x2="36.5614" y2="27.065" gradientUnits="userSpaceOnUse">
<stop offset="0.0529" stop-color="#09453D"/>
<stop offset="0.1205" stop-color="#1A6150"/>
<stop offset="0.2125" stop-color="#2C8065"/>
<stop offset="0.3137" stop-color="#3B9977"/>
<stop offset="0.4258" stop-color="#47AD84"/>
<stop offset="0.5543" stop-color="#4FBB8E"/>
<stop offset="0.714" stop-color="#54C393"/>
<stop offset="1" stop-color="#55C595"/>
</linearGradient>
<clipPath id="clip0_3744_7747">
<rect width="31.2966" height="26.4822" fill="white"/>
</clipPath>
</defs>
</svg>
