<svg width="16" height="20" viewBox="0 0 16 20" fill="none" xmlns="http://www.w3.org/2000/svg">
<path d="M14.1432 4.44528C13.9188 2.83547 12.5365 1.56486 10.8244 1.56486H10.222V1.52734C10.222 1.23611 9.98594 1 9.6947 1H6.30564C6.01441 1 5.7783 1.23611 5.7783 1.52734V1.56482H5.17596C3.47823 1.56482 2.09403 2.81772 1.85862 4.44489C0.870098 4.66986 0.129883 5.55527 0.129883 6.6109V11.1297C0.129883 12.5748 1.30702 13.1638 1.84171 13.2909C2.08316 16.5442 4.81491 19 8.00017 19C11.2485 19 13.919 16.4791 14.1584 13.291C15.5444 12.9619 15.8705 11.7045 15.8705 11.1297V6.61094C15.8705 5.55583 15.131 4.67077 14.1432 4.44528ZM10.222 2.61951H10.8244C12.3165 2.61951 12.9329 3.83946 13.061 4.38906H10.222V2.61951ZM6.83298 2.05469H9.16736V4.38906H6.83298V2.05469ZM5.17596 2.61951H5.7783V4.38906H2.9415C3.28354 2.95623 4.58158 2.61951 5.17596 2.61951ZM8.00017 17.9453C5.39738 17.9453 3.17252 15.9735 2.90589 13.3516H5.5064C6.15352 13.3516 6.78668 13.0893 7.24354 12.6321C7.24624 12.6294 7.24892 12.6267 7.25159 12.6239C7.44998 12.4298 7.72216 12.3188 8.00017 12.3188C8.27826 12.3188 8.55044 12.4299 8.74879 12.6239C8.75142 12.6267 8.7541 12.6294 8.75684 12.6321C9.21369 13.0893 9.84686 13.3516 10.494 13.3516H13.0943C12.8294 15.9285 10.6459 17.9453 8.00017 17.9453ZM14.8158 11.1297C14.8158 11.7824 14.2839 12.2969 13.6486 12.2969H10.494C10.1287 12.2969 9.77127 12.1506 9.51147 11.8951C9.50862 11.8921 9.50574 11.8892 9.50282 11.8862C9.10745 11.4908 8.55979 11.2641 8.00021 11.2641C7.44066 11.2641 6.893 11.4908 6.49763 11.8862C6.49471 11.8891 6.49179 11.8921 6.48895 11.8951C6.2291 12.1506 5.87171 12.2969 5.5064 12.2969H2.35172C1.71849 12.2969 1.18454 11.7846 1.18454 11.1297V6.61094C1.18454 5.96737 1.70815 5.44379 2.35172 5.44379H13.6486C14.2922 5.44379 14.8158 5.9674 14.8158 6.61094V11.1297H14.8158Z" fill="#B8BDB9" stroke="#B8BDB9" stroke-width="0.25"/>
</svg>
