<svg width="21" height="20" viewBox="0 0 21 20" fill="none" xmlns="http://www.w3.org/2000/svg">
<path d="M2.93506 9.34998V13.0916C2.93506 16.8333 4.43506 18.3333 8.17673 18.3333H12.6684C16.4101 18.3333 17.9101 16.8333 17.9101 13.0916V9.34998" stroke="#B8BDB9" stroke-width="1.5" stroke-linecap="round" stroke-linejoin="round"/>
<path d="M10.427 10C11.952 10 13.077 8.75835 12.927 7.23335L12.377 1.66669H8.48533L7.92699 7.23335C7.77699 8.75835 8.90199 10 10.427 10Z" stroke="#B8BDB9" stroke-width="1.5" stroke-linecap="round" stroke-linejoin="round"/>
<path d="M15.6849 10C17.3683 10 18.6016 8.63335 18.4349 6.95835L18.2016 4.66669C17.9016 2.50002 17.0683 1.66669 14.8849 1.66669H12.3433L12.9266 7.50835C13.0683 8.88335 14.3099 10 15.6849 10Z" stroke="#B8BDB9" stroke-width="1.5" stroke-linecap="round" stroke-linejoin="round"/>
<path d="M5.1269 10C6.5019 10 7.74357 8.88335 7.8769 7.50835L8.06024 5.66669L8.46024 1.66669H5.91857C3.73524 1.66669 2.9019 2.50002 2.6019 4.66669L2.3769 6.95835C2.21024 8.63335 3.44357 10 5.1269 10Z" stroke="#B8BDB9" stroke-width="1.5" stroke-linecap="round" stroke-linejoin="round"/>
<path d="M10.4266 14.1667C9.03493 14.1667 8.34326 14.8584 8.34326 16.25V18.3334H12.5099V16.25C12.5099 14.8584 11.8183 14.1667 10.4266 14.1667Z" stroke="#B8BDB9" stroke-width="1.5" stroke-linecap="round" stroke-linejoin="round"/>
</svg>
