<svg width="21" height="20" viewBox="0 0 16 16" fill="none" xmlns="http://www.w3.org/2000/svg">
<path fill-rule="evenodd" clip-rule="evenodd" d="M5.98822 4.89008L6.4787 0H9.01228L9.49546 4.89041C9.60205 5.97586 8.82177 6.83333 7.74183 6.83333C6.66199 6.83333 5.88182 5.97538 5.98822 4.89008Z" fill="#169CE7"/>
<path fill-rule="evenodd" clip-rule="evenodd" d="M10.9871 5.0148L10.4863 0H12.1994C13.2142 0 13.7395 0.19696 14.0551 0.488433C14.3791 0.787748 14.6286 1.32001 14.7713 2.33971L15.0031 4.61657C15.1256 5.85138 14.2374 6.83333 12.9994 6.83333C12.0091 6.83333 11.09 6.00785 10.9872 5.0159L10.9871 5.0148Z" fill="#169CE7"/>
<path fill-rule="evenodd" clip-rule="evenodd" d="M0.438114 4.61495L0.66163 2.3384C0.804347 1.31956 1.05378 0.78762 1.37768 0.488433C1.69323 0.19696 2.21853 0 3.23337 0H4.9463L4.44539 5.01737L4.4452 5.01928C4.34941 6.00714 3.43332 6.83333 2.4417 6.83333C1.20345 6.83333 0.315217 5.85007 0.438114 4.61495Z" fill="#169CE7"/>
<path fill-rule="evenodd" clip-rule="evenodd" d="M0.999512 10.6748V8.0406C1.43539 8.22898 1.92202 8.33326 2.44141 8.33326C3.48945 8.33326 4.46959 7.83338 5.12663 7.0564C5.71327 7.8348 6.65069 8.33326 7.7415 8.33326C8.81954 8.33326 9.74775 7.84631 10.3356 7.08343C10.9937 7.84455 11.9626 8.33326 12.9994 8.33326C13.532 8.33326 14.0302 8.2236 14.4745 8.02603V10.6748C14.4745 12.4713 14.1099 13.535 13.4765 14.1684C12.9159 14.729 12.0184 15.079 10.5744 15.1521V13.8333C10.5744 13.023 10.3726 12.2771 9.83492 11.7394C9.29722 11.2017 8.55135 10.9999 7.74105 10.9999C6.93075 10.9999 6.18488 11.2017 5.64718 11.7394C5.10947 12.2771 4.90771 13.023 4.90771 13.8333V15.1525C3.45894 15.0803 2.55912 14.73 1.99755 14.1684C1.36414 13.535 0.999512 12.4713 0.999512 10.6748ZM9.07438 15.1665H6.40771V13.8333C6.40771 13.2519 6.55179 12.9561 6.70784 12.8C6.86388 12.644 7.15968 12.4999 7.74105 12.4999C8.32241 12.4999 8.61821 12.644 8.77426 12.8C8.93031 12.9561 9.07438 13.2519 9.07438 13.8333V15.1665Z" fill="#6A7574"/>
<path fill-rule="evenodd" clip-rule="evenodd" d="M6.40771 13.8333C6.40771 13.252 6.55179 12.9562 6.70784 12.8001C6.86388 12.6441 7.15968 12.5 7.74105 12.5C8.32241 12.5 8.61821 12.6441 8.77426 12.8001C8.93031 12.9562 9.07438 13.252 9.07438 13.8333V15.1667H6.40771V13.8333Z" fill="#169CE7"/>
</svg>
