<svg width="21" height="20" viewBox="0 0 21 20" fill="none" xmlns="http://www.w3.org/2000/svg">
<path d="M12.9266 12.9167C12.9266 15.9083 10.5016 18.3333 7.50993 18.3333C4.51826 18.3333 2.09326 15.9083 2.09326 12.9167C2.09326 9.925 4.51826 7.5 7.50993 7.5C7.6516 7.5 7.80159 7.50834 7.94325 7.51667C10.5849 7.725 12.7016 9.84166 12.9099 12.4833C12.9183 12.625 12.9266 12.775 12.9266 12.9167Z" fill="#16B979"/>
<path opacity="0.4" d="M18.7601 7.08335C18.7601 10.075 16.3351 12.5 13.3434 12.5C13.2018 12.5 13.0518 12.4917 12.9101 12.4833C12.7018 9.84168 10.5851 7.72502 7.94342 7.51669C7.93508 7.37502 7.92676 7.22502 7.92676 7.08335C7.92676 4.09169 10.3518 1.66669 13.3434 1.66669C16.3351 1.66669 18.7601 4.09169 18.7601 7.08335Z" fill="#E8FFF5"/>
<path d="M5.08492 1.66669H2.92659C2.46826 1.66669 2.09326 2.04169 2.09326 2.50002V4.65835C2.09326 5.40002 2.99325 5.77502 3.51825 5.25002L5.67658 3.09169C6.19325 2.56669 5.82659 1.66669 5.08492 1.66669Z" fill="#16B979"/>
<path d="M15.7685 18.3333H17.9268C18.3852 18.3333 18.7602 17.9583 18.7602 17.5V15.3417C18.7602 14.6 17.8602 14.225 17.3352 14.75L15.1769 16.9083C14.6602 17.4333 15.0269 18.3333 15.7685 18.3333Z" fill="#16B979"/>
</svg>
