<svg width="21" height="20" viewBox="0 0 21 20" fill="none" xmlns="http://www.w3.org/2000/svg">
<path d="M18.7601 7.08332C18.7601 10.075 16.3351 12.5 13.3434 12.5C13.2018 12.5 13.0518 12.4917 12.9101 12.4833C12.7018 9.84167 10.5851 7.72498 7.94342 7.51665C7.93508 7.37498 7.92676 7.22499 7.92676 7.08332C7.92676 4.09166 10.3518 1.66666 13.3434 1.66666C16.3351 1.66666 18.7601 4.09166 18.7601 7.08332Z" stroke="#B8BDB9" stroke-width="1.5" stroke-linecap="round" stroke-linejoin="round"/>
<path d="M12.9266 12.9167C12.9266 15.9083 10.5016 18.3333 7.50993 18.3333C4.51826 18.3333 2.09326 15.9083 2.09326 12.9167C2.09326 9.925 4.51826 7.5 7.50993 7.5C7.65159 7.5 7.80159 7.50832 7.94325 7.51666C10.5849 7.72499 12.7016 9.84168 12.9099 12.4833C12.9183 12.625 12.9266 12.775 12.9266 12.9167Z" stroke="#B8BDB9" stroke-width="1.5" stroke-linecap="round" stroke-linejoin="round"/>
<path d="M5.08493 1.66666H2.92659C2.46826 1.66666 2.09326 2.04166 2.09326 2.49999V4.65832C2.09326 5.39999 2.99325 5.77498 3.51825 5.24998L5.67658 3.09165C6.19325 2.56665 5.82659 1.66666 5.08493 1.66666Z" stroke="#B8BDB9" stroke-width="1.5" stroke-linecap="round" stroke-linejoin="round"/>
<path d="M15.7685 18.3333H17.9268C18.3852 18.3333 18.7602 17.9583 18.7602 17.5V15.3417C18.7602 14.6 17.8602 14.225 17.3352 14.75L15.1769 16.9083C14.6602 17.4333 15.0269 18.3333 15.7685 18.3333Z" stroke="#B8BDB9" stroke-width="1.5" stroke-linecap="round" stroke-linejoin="round"/>
</svg>
