<svg width="13" height="13" viewBox="0 0 13 13" fill="none" xmlns="http://www.w3.org/2000/svg">
<g clip-path="url(#clip0_93_6963)">
<path d="M5.87716 12.1873H3.60216C1.48425 12.1873 0.541748 11.2448 0.541748 9.12692V6.85192C0.541748 4.734 1.48425 3.7915 3.60216 3.7915H5.87716C7.99508 3.7915 8.93758 4.734 8.93758 6.85192V9.12692C8.93758 11.2448 7.99508 12.1873 5.87716 12.1873ZM3.60216 4.604C1.923 4.604 1.35425 5.17275 1.35425 6.85192V9.12692C1.35425 10.8061 1.923 11.3748 3.60216 11.3748H5.87716C7.55633 11.3748 8.12508 10.8061 8.12508 9.12692V6.85192C8.12508 5.17275 7.55633 4.604 5.87716 4.604H3.60216Z" fill="#F5DE05"/>
<path d="M9.12717 8.93734H8.53133C8.423 8.93734 8.32008 8.894 8.24425 8.81817C8.16842 8.74234 8.12508 8.63942 8.12508 8.53109V6.85192C8.12508 5.17275 7.55633 4.604 5.87717 4.604H4.198C4.08966 4.604 3.98675 4.56067 3.91091 4.48484C3.83508 4.409 3.79175 4.30609 3.79175 4.19775V3.60192C3.79175 1.484 4.73425 0.541504 6.85216 0.541504H9.12717C11.2451 0.541504 12.1876 1.484 12.1876 3.60192V5.87692C12.1876 7.99484 11.2451 8.93734 9.12717 8.93734ZM8.93758 8.12484H9.12717C10.8063 8.12484 11.3751 7.55609 11.3751 5.87692V3.60192C11.3751 1.92275 10.8063 1.354 9.12717 1.354H6.85216C5.173 1.354 4.60425 1.92275 4.60425 3.60192V3.7915H5.87717C7.99508 3.7915 8.93758 4.734 8.93758 6.85192V8.12484Z" fill="#F5DE05"/>
</g>
<defs>
<clipPath id="clip0_93_6963">
<rect width="11.6458" height="11.6458" fill="white" transform="translate(0.541748 0.541504)"/>
</clipPath>
</defs>
</svg>
