<svg width="15" height="10" viewBox="0 0 15 10" fill="none" xmlns="http://www.w3.org/2000/svg">
<path d="M13.6245 1.1451L14.7384 0.205636V0H10.8796L8.12948 6.03472L5.00067 0H0.954567V0.205636L2.25577 1.58663C2.38257 1.68868 2.44888 1.8379 2.43201 1.98816V7.4152C2.47215 7.61058 2.40002 7.8116 2.24413 7.95365L0.77832 9.51976V9.72283H4.93436V9.5172L3.46855 7.95365C3.30975 7.81109 3.23472 7.61366 3.26671 7.4152V2.72096L6.91495 9.7254H7.33899L10.4759 2.72096V8.30082C10.4759 8.44799 10.4759 8.47825 10.3666 8.57466L9.23815 9.5372V9.74335H14.7128V9.53771L13.6251 8.59876C13.5297 8.53517 13.4803 8.42851 13.5006 8.32492V1.41894C13.4803 1.31484 13.5291 1.20817 13.6245 1.1451Z" fill="#575757"/>
</svg>
