<svg width="15" height="11" viewBox="0 0 15 11" fill="none" xmlns="http://www.w3.org/2000/svg">
<path d="M0.861328 4.70736C0.98359 4.5113 1.18736 4.36472 1.42974 4.29905C2.36386 3.97735 3.30013 3.65755 4.23747 3.34156C7.44524 2.25178 10.653 1.16199 13.8586 0.0731568C13.9337 0.0455552 14.0131 0.0255679 14.0935 0.0141466C14.412 -0.0524779 14.7305 0.122649 14.8056 0.404376C14.8217 0.465289 14.826 0.529058 14.8163 0.590924C14.7981 0.855518 14.752 1.11916 14.6801 1.37614C14.0216 4.12963 13.3588 6.88313 12.6928 9.63567C12.6596 9.77748 12.606 9.91454 12.532 10.044C12.4172 10.2791 12.1148 10.3933 11.8445 10.3029C11.6965 10.2648 11.5571 10.2058 11.4305 10.1277C10.4299 9.48529 9.43682 8.83427 8.43942 8.18706C8.39974 8.16137 8.35898 8.13567 8.30965 8.10521C8.26997 8.13662 8.23243 8.16327 8.19704 8.19373C7.68761 8.62583 7.17819 9.05699 6.66877 9.4891C6.52291 9.62234 6.32128 9.69468 6.11323 9.68992C6.12717 9.51479 6.13896 9.34347 6.15291 9.17311C6.21404 8.41739 6.27302 7.66073 6.33844 6.90312C6.34702 6.8422 6.3792 6.78509 6.42853 6.74226C8.36113 5.19848 10.2948 3.6566 12.2295 2.11662C12.2435 2.10615 12.2617 2.09759 12.2703 2.08426C12.3068 2.0243 12.34 1.96339 12.3754 1.90343C12.296 1.87773 12.2124 1.86535 12.1277 1.86535C12.0311 1.88725 11.94 1.92436 11.8585 1.97481C9.45076 3.3073 7.04413 4.64264 4.6375 5.97799C4.57852 6.0094 4.50881 6.02082 4.44231 6.00844C3.4181 5.73148 2.39711 5.44785 1.37397 5.16517C1.16377 5.12329 0.981445 5.01003 0.863473 4.85013L0.861328 4.70736Z" fill="#575757"/>
</svg>
