<svg width="15" height="11" viewBox="0 0 15 11" fill="none" xmlns="http://www.w3.org/2000/svg">
<path d="M0.166992 8.93723C1.66835 9.08281 3.17401 8.70886 4.37037 7.89341C3.1536 7.84679 2.09256 7.14266 1.6995 6.12168C2.1237 6.17877 2.55757 6.16164 2.97426 6.06935C2.32345 5.94184 1.74353 5.61928 1.32899 5.15779C0.916597 4.70297 0.696442 4.13396 0.707182 3.55068C1.09058 3.73337 1.51585 3.83708 1.95187 3.85421C0.696442 2.91601 0.404332 1.79893 1.10346 0.457285C2.55757 2.04347 4.70115 3.01211 7.00366 3.12439C6.99293 2.87129 6.96822 2.63151 6.97682 2.39363C7.04447 1.3127 7.88107 0.390679 9.05703 0.0985622C10.0472 -0.155494 11.1158 0.0899985 11.8417 0.737983C11.8901 0.785559 11.9652 0.803638 12.034 0.784608C12.6343 0.666619 13.2099 0.465849 13.7415 0.19086C13.5343 0.755111 13.1187 1.24039 12.5613 1.56771C13.1015 1.51537 13.6288 1.39073 14.1271 1.19947C13.7845 1.66096 13.3549 2.06726 12.8577 2.40029C12.746 2.46689 12.6859 2.58393 12.703 2.70192C12.7277 3.85231 12.4421 4.99032 11.8686 6.02272C11.2113 7.26636 10.161 8.31398 8.84331 9.03714C7.89503 9.55381 6.83183 9.88494 5.72675 10.0067C4.75484 10.1238 3.76682 10.0914 2.8078 9.91063C1.89388 9.7365 1.02184 9.4225 0.231426 8.98195C0.218538 8.97243 0.207802 8.96482 0.166992 8.93723Z" fill="#575757"/>
</svg>
