<svg width="15" height="9" viewBox="0 0 15 9" fill="none" xmlns="http://www.w3.org/2000/svg">
<path d="M14.6847 3.53125V4.9933C14.6772 5.03639 14.6665 5.08043 14.6633 5.12352C14.6333 5.47491 14.6162 5.82822 14.5733 6.17865C14.5283 6.6976 14.3751 7.2041 14.1213 7.6723C13.9102 8.09837 13.4592 8.38849 12.9407 8.43253C12.5979 8.46317 12.253 8.49572 11.9091 8.49764C9.59195 8.512 7.27588 8.52636 4.95981 8.52541C4.17994 8.52541 3.39792 8.48711 2.61804 8.45072C2.02456 8.43732 1.49535 8.11465 1.2661 7.62539C1.00793 7.1141 0.856876 6.56451 0.818311 6.00535C0.685474 4.78457 0.694042 3.55423 0.842948 2.33441C0.890083 1.82025 1.04221 1.31758 1.29181 0.85225C1.49964 0.424261 1.95277 0.13319 2.47233 0.0929767C2.92869 0.0575503 3.3872 0.0202091 3.84463 0.0182942C6.075 0.00488963 8.30536 -0.00085523 10.5357 0.000102239C11.2931 0.000102239 12.0516 0.0384009 12.809 0.0776572C13.2728 0.0776572 13.7067 0.282556 13.9681 0.62533C14.1545 0.875229 14.2948 1.15098 14.3837 1.44109C14.5208 1.90834 14.6044 2.38611 14.6344 2.86868C14.6483 3.08794 14.6687 3.30912 14.6847 3.53125ZM10.3236 4.2618L5.97322 1.9294V6.59515L10.3236 4.2618Z" fill="#575757"/>
</svg>
