<svg width="24" height="24" viewBox="0 0 24 24" fill="none" xmlns="http://www.w3.org/2000/svg">
<path d="M21.0802 8.58003V15.42C21.0802 16.54 20.4802 17.58 19.5102 18.15L13.5702 21.58C12.6002 22.14 11.4002 22.14 10.4202 21.58L4.48016 18.15C3.51016 17.59 2.91016 16.55 2.91016 15.42V8.58003C2.91016 7.46003 3.51016 6.41999 4.48016 5.84999L10.4202 2.42C11.3902 1.86 12.5902 1.86 13.5702 2.42L19.5102 5.84999C20.4802 6.41999 21.0802 7.45003 21.0802 8.58003Z" fill="#65686F"/>
<path d="M12.0019 12C13.2887 12 14.3319 10.9568 14.3319 9.66998C14.3319 8.38316 13.2887 7.34003 12.0019 7.34003C10.7151 7.34003 9.67188 8.38316 9.67188 9.66998C9.67188 10.9568 10.7151 12 12.0019 12Z" fill="#16B979"/>
<path d="M14.6811 16.66C15.4911 16.66 15.9611 15.76 15.5111 15.09C14.8311 14.08 13.5111 13.4 12.0011 13.4C10.4911 13.4 9.17114 14.08 8.49114 15.09C8.04114 15.76 8.51114 16.66 9.32114 16.66H14.6811Z" fill="#16B979"/>
</svg>
