<svg width="18" height="18" viewBox="0 0 18 18" fill="none" xmlns="http://www.w3.org/2000/svg">
<g clip-path="url(#clip0_1141:3845)">
<path d="M8.1375 16.875H4.9875C2.055 16.875 0.75 15.57 0.75 12.6375V9.4875C0.75 6.555 2.055 5.25 4.9875 5.25H8.1375C11.07 5.25 12.375 6.555 12.375 9.4875V12.6375C12.375 15.57 11.07 16.875 8.1375 16.875ZM4.9875 6.375C2.6625 6.375 1.875 7.1625 1.875 9.4875V12.6375C1.875 14.9625 2.6625 15.75 4.9875 15.75H8.1375C10.4625 15.75 11.25 14.9625 11.25 12.6375V9.4875C11.25 7.1625 10.4625 6.375 8.1375 6.375H4.9875Z" fill="#F5DE05"/>
<path d="M12.6375 12.375H11.8125C11.6625 12.375 11.52 12.315 11.415 12.21C11.31 12.105 11.25 11.9625 11.25 11.8125V9.4875C11.25 7.1625 10.4625 6.375 8.1375 6.375H5.8125C5.6625 6.375 5.52 6.315 5.415 6.21C5.31 6.105 5.25 5.9625 5.25 5.8125V4.9875C5.25 2.055 6.555 0.75 9.4875 0.75H12.6375C15.57 0.75 16.875 2.055 16.875 4.9875V8.1375C16.875 11.07 15.57 12.375 12.6375 12.375ZM12.375 11.25H12.6375C14.9625 11.25 15.75 10.4625 15.75 8.1375V4.9875C15.75 2.6625 14.9625 1.875 12.6375 1.875H9.4875C7.1625 1.875 6.375 2.6625 6.375 4.9875V5.25H8.1375C11.07 5.25 12.375 6.555 12.375 9.4875V11.25Z" fill="#F5DE05"/>
</g>
<defs>
<clipPath id="clip0_1141:3845">
<rect width="16.125" height="16.125" fill="white" transform="translate(0.75 0.75)"/>
</clipPath>
</defs>
</svg>
