<svg xmlns="http://www.w3.org/2000/svg" xmlns:xlink="http://www.w3.org/1999/xlink" width="100" height="100" viewBox="0 0 100 100">
  <defs>
    <clipPath id="clip-Farms">
      <rect width="100" height="100"/>
    </clipPath>
  </defs>
  <g id="Farms" clip-path="url(#clip-Farms)">
    <rect width="100" height="100" fill="rgba(255,255,255,0)"/>
    <g id="tractor-2" transform="translate(7 15.181)">
      <path id="Path_2680" data-name="Path 2680" d="M20.088,195a20.088,20.088,0,1,0,20.088,20.088A20.088,20.088,0,0,0,20.088,195Zm0,27.621a7.533,7.533,0,1,1,7.533-7.533A7.542,7.542,0,0,1,20.088,222.621Zm0,0" transform="translate(0 -162.357)" fill="#fac668"/>
      <path id="Path_2681" data-name="Path 2681" d="M107.511,300a2.511,2.511,0,1,0,2.511,2.511A2.514,2.514,0,0,0,107.511,300Zm0,0" transform="translate(-87.423 -249.78)" fill="#fac668"/>
      <path id="Path_2682" data-name="Path 2682" d="M367.022,52.533a2.514,2.514,0,0,1,2.511-2.511V45A7.542,7.542,0,0,0,362,52.533v7.533h5.022Zm0,0" transform="translate(-301.401 -37.467)" fill="#fac668"/>
      <path id="Path_2683" data-name="Path 2683" d="M57.788,160.11a20.07,20.07,0,0,1,27.435-7.347v-2.7A10.055,10.055,0,0,0,75.18,140.022H41.262a30.1,30.1,0,0,0-35.812,1.866l3.2,3.872A25.113,25.113,0,0,1,49.23,160.11Zm0,0" transform="translate(-4.537 -112.401)" fill="#fac668"/>
      <path id="Path_2684" data-name="Path 2684" d="M275.992,315H270v7.533h5.514a20.16,20.16,0,0,1,.479-7.533Zm0,0" transform="translate(-224.802 -262.269)" fill="#fac668"/>
      <path id="Path_2685" data-name="Path 2685" d="M347.066,255a15.066,15.066,0,1,0,15.066,15.066A15.066,15.066,0,0,0,347.066,255Zm0,17.577a2.511,2.511,0,1,1,2.511-2.511A2.511,2.511,0,0,1,347.066,272.577Zm0,0" transform="translate(-276.423 -212.313)" fill="#fac668"/>
      <path id="Path_2686" data-name="Path 2686" d="M50.022,18.4a35.078,35.078,0,0,1,25.623,4.2h9.782L80.813,5.022h4.363V0H45V5.022h5.022Zm0,0" transform="translate(-37.467)" fill="#fac668"/>
    </g>
  </g>
</svg>
