<svg xmlns="http://www.w3.org/2000/svg" width="18.875" height="16.632" viewBox="0 0 18.875 16.632">
  <g id="Group_1765" data-name="Group 1765" transform="translate(373.494 575.108)">
    <path id="Path_7988" data-name="Path 7988" d="M-288.6-569.51c0,.894,0,1.775,0,2.657q0,3.737,0,7.474a1.46,1.46,0,0,1-.021.323.746.746,0,0,1-.792.575.745.745,0,0,1-.672-.736c-.007-.789,0-1.578,0-2.368q0-3.819.006-7.637a.337.337,0,0,0-.264-.392,2.822,2.822,0,0,1-1.8-3.106,2.837,2.837,0,0,1,2.853-2.388,2.84,2.84,0,0,1,2.77,2.432,2.849,2.849,0,0,1-1.812,3.068Zm.608-2.745a1.346,1.346,0,0,0-1.352-1.356,1.349,1.349,0,0,0-1.352,1.357,1.343,1.343,0,0,0,1.354,1.354A1.34,1.34,0,0,0-287.988-572.255Z" transform="translate(-74.717)" fill="#818181"/>
    <path id="Path_7989" data-name="Path 7989" d="M-206.986-561.389c0,.757.006,1.515,0,2.272a.741.741,0,0,1-.985.726.735.735,0,0,1-.5-.71c0-.7-.008-1.392,0-2.088,0-.162-.052-.22-.2-.271a2.807,2.807,0,0,1-1.9-2.672,2.8,2.8,0,0,1,1.882-2.659.269.269,0,0,0,.217-.308q-.01-3.527,0-7.054a.744.744,0,0,1,1.011-.756.76.76,0,0,1,.474.754q0,1.914,0,3.829c0,1.083,0,2.166,0,3.249,0,.139.024.215.176.268a2.815,2.815,0,0,1,1.919,2.658,2.829,2.829,0,0,1-1.931,2.7C-206.874-561.435-206.924-561.414-206.986-561.389Zm.609-2.737a1.35,1.35,0,0,0-1.344-1.366,1.347,1.347,0,0,0-1.362,1.347,1.344,1.344,0,0,0,1.342,1.366A1.35,1.35,0,0,0-206.377-564.126Z" transform="translate(-149.727 -0.132)" fill="#818181"/>
    <path id="Path_7990" data-name="Path 7990" d="M-369.915-571.889c0,.766.005,1.531,0,2.3,0,.162.051.222.2.273a2.8,2.8,0,0,1,1.9,2.671,2.8,2.8,0,0,1-1.88,2.66.27.27,0,0,0-.217.31c.007,1.524,0,3.047,0,4.571a.715.715,0,0,1-.447.7.7.7,0,0,1-.8-.134.78.78,0,0,1-.244-.627c0-1.5,0-3,.006-4.5a.286.286,0,0,0-.23-.325,2.8,2.8,0,0,1-1.868-2.669,2.8,2.8,0,0,1,1.875-2.641.286.286,0,0,0,.222-.33q-.011-2.262,0-4.524a.745.745,0,0,1,1-.748.742.742,0,0,1,.481.723C-369.913-573.42-369.915-572.654-369.915-571.889Zm-.73,6.593a1.351,1.351,0,0,0,1.354-1.358,1.35,1.35,0,0,0-1.362-1.35,1.351,1.351,0,0,0-1.354,1.357A1.352,1.352,0,0,0-370.645-565.3Z" transform="translate(0 -0.136)" fill="#818181"/>
  </g>
</svg>
