<svg xmlns="http://www.w3.org/2000/svg" xmlns:xlink="http://www.w3.org/1999/xlink" width="100" height="100" viewBox="0 0 100 100">
  <defs>
    <clipPath id="clip-Home1">
      <rect width="100" height="100"/>
    </clipPath>
  </defs>
  <g id="Home1" clip-path="url(#clip-Home1)">
    <rect width="100" height="100" fill="rgba(255,255,255,0)"/>
    <g id="Group_610" data-name="Group 610" transform="translate(8.723 -5.481)">
      <g id="Group_609" data-name="Group 609" transform="translate(0 17.047)">
        <g id="Group_608" data-name="Group 608" transform="translate(0 0)">
          <path id="Path_2677" data-name="Path 2677" d="M60.2,30.027l-9.473-9.474a12.659,12.659,0,0,0-17.5.008L1.409,52.374a4.813,4.813,0,0,0,6.808,6.805l31.81-31.813a2.841,2.841,0,0,1,3.894,0L75.735,59.179a4.813,4.813,0,1,0,6.807-6.805L69.819,39.651Z" transform="translate(0 -17.047)" fill="#fac668"/>
          <path id="Path_2678" data-name="Path 2678" d="M100.644,128.441a2.362,2.362,0,0,0-3.342,0L69.319,156.415a2.369,2.369,0,0,0-.692,1.674v20.4a8.67,8.67,0,0,0,8.67,8.67H91.151V165.706h15.641v21.456h13.854a8.67,8.67,0,0,0,8.669-8.669v-20.4a2.359,2.359,0,0,0-.692-1.674Z" transform="translate(-56.997 -108.988)" fill="#fac668"/>
        </g>
      </g>
    </g>
  </g>
</svg>
