<svg width="19" height="19" viewBox="0 0 19 19" fill="none" xmlns="http://www.w3.org/2000/svg">
<g clip-path="url(#clip0_3779_12830)">
<path d="M0 14.8815C0.0996946 14.6822 0.267836 14.5547 0.446394 14.4308C0.994962 14.0504 1.5346 13.6582 2.08317 13.2783C2.19477 13.2014 2.22899 13.1176 2.22602 12.9872C2.20965 12.2647 2.20469 11.5417 2.18882 10.8186C2.18286 10.5583 2.27363 10.3589 2.50724 10.2389C2.74036 10.1189 2.94818 10.1913 3.1441 10.3381C3.72292 10.771 4.30671 11.198 4.88007 11.6374C4.99564 11.7261 5.08889 11.7291 5.21636 11.6845C5.9043 11.4454 6.59373 11.2114 7.28514 10.9818C7.674 10.8523 8.00235 11.0433 8.06732 11.4226C8.08716 11.5382 8.05145 11.6418 8.01624 11.7465C7.7851 12.4293 7.55496 13.1122 7.31887 13.793C7.27671 13.915 7.28316 14.0053 7.36599 14.1134C7.80842 14.6926 8.24241 15.2783 8.6774 15.8629C8.94474 16.222 8.83314 16.6494 8.4423 16.7858C8.36889 16.8116 8.29697 16.8111 8.22356 16.8106C7.48801 16.8047 6.75195 16.8265 6.01739 16.7789C5.88446 16.7704 5.80411 16.8146 5.72872 16.9232C5.33391 17.4915 4.92868 18.0518 4.53387 18.6197C4.42227 18.7803 4.29976 18.9192 4.11922 18.9995C4.00812 18.9995 3.89652 18.9995 3.78542 18.9995C3.54833 18.8711 3.43921 18.6628 3.36531 18.4089C3.17287 17.7479 2.95463 17.0943 2.75425 16.4357C2.71953 16.3216 2.66199 16.2641 2.5499 16.2299C1.88924 16.0301 1.23254 15.8168 0.570392 15.6239C0.312972 15.549 0.108622 15.431 0 15.1781C0 15.0794 0 14.9807 0 14.8815Z" fill="#65686F"/>
<path d="M0 1.52489C0.153758 1.16635 0.445898 1.09246 0.802021 1.11279C1.11251 1.13064 1.1135 1.11676 1.1135 0.807316C1.1135 0.714582 1.10954 0.621848 1.11499 0.529611C1.13235 0.238516 1.37241 0.00891342 1.66009 0.00395439C1.9557 -0.00100463 2.20816 0.229094 2.22453 0.528123C2.23296 0.681853 2.23147 0.83707 2.22552 0.9908C2.22155 1.087 2.25379 1.12321 2.352 1.11825C2.49385 1.1113 2.6362 1.11378 2.77806 1.11725C3.10343 1.12519 3.34547 1.36967 3.34051 1.68209C3.33555 1.98707 3.09698 2.22113 2.77855 2.22907C2.63025 2.23254 2.48195 2.23303 2.33414 2.22907C2.25379 2.22708 2.22453 2.25733 2.22651 2.33717C2.23048 2.48545 2.23048 2.63372 2.22651 2.7815C2.21808 3.10632 1.97256 3.34832 1.66058 3.34286C1.35604 3.33741 1.12194 3.09789 1.1145 2.78001C1.11102 2.63819 1.10854 2.49586 1.11549 2.35403C1.12045 2.25535 1.08275 2.22163 0.987522 2.22857C0.901715 2.23502 0.813924 2.22212 0.728614 2.23105C0.386874 2.26676 0.143838 2.13385 0 1.82193C0 1.72275 0 1.62407 0 1.52489Z" fill="#65686F"/>
<path d="M13.9073 1.37216C14.1627 1.36968 14.3349 1.48126 14.4311 1.68706C14.5233 1.88493 14.5 2.08527 14.3691 2.26528C14.3368 2.30991 14.2952 2.3481 14.256 2.38727C12.7263 3.91664 11.1957 5.44501 9.66806 6.97586C9.50438 7.14 9.32285 7.23968 9.08874 7.1881C8.69095 7.10132 8.52479 6.65203 8.76138 6.31234C8.78916 6.27217 8.82437 6.23647 8.85909 6.20175C10.4016 4.659 11.9442 3.11675 13.4872 1.57499C13.6092 1.45349 13.7451 1.36274 13.9073 1.37216Z" fill="#65686F"/>
<path d="M9.45044 13.252C9.22824 13.2451 9.05811 13.1469 8.9604 12.946C8.86021 12.7402 8.88303 12.5384 9.01794 12.3524C9.04323 12.3177 9.07597 12.2885 9.10622 12.2577C10.2197 11.1439 11.3332 10.0296 12.4482 8.91731C12.7776 8.58902 13.2661 8.6763 13.4085 9.08939C13.4948 9.34032 13.403 9.54463 13.2225 9.72464C12.4085 10.5354 11.5971 11.3482 10.7847 12.1605C10.4876 12.4576 10.1905 12.7541 9.89386 13.0517C9.77085 13.1741 9.63098 13.256 9.45044 13.252Z" fill="#16B979"/>
<path d="M8.16382 3.97416C8.16332 4.27071 7.9302 4.51519 7.62814 4.52858C7.47984 4.53503 7.33104 4.53652 7.18324 4.52809C7.07412 4.52214 7.04386 4.56578 7.04932 4.66744C7.05626 4.79092 7.0518 4.91439 7.05081 5.03837C7.04783 5.3974 6.8167 5.64585 6.48885 5.64287C6.16844 5.6399 5.94078 5.39443 5.9373 5.0468C5.93582 4.91687 5.93234 4.78695 5.93879 4.65752C5.94326 4.5628 5.913 4.52412 5.81331 4.52858C5.665 4.53553 5.51621 4.53453 5.3684 4.52908C5.05642 4.51718 4.81934 4.26873 4.8243 3.96375C4.82926 3.6672 5.06436 3.42917 5.36939 3.41826C5.51125 3.4133 5.65459 3.40933 5.79595 3.41925C5.91498 3.42768 5.94524 3.38057 5.93929 3.26998C5.93135 3.12816 5.93284 2.98534 5.93879 2.84351C5.9507 2.54051 6.19324 2.30595 6.48984 2.30397C6.78694 2.30198 7.03444 2.53357 7.04882 2.83508C7.05626 2.98286 7.05577 3.13212 7.04882 3.2799C7.04386 3.38255 7.07511 3.42421 7.18324 3.41876C7.33104 3.41082 7.48034 3.41181 7.62814 3.41826C7.9307 3.43214 8.16431 3.67762 8.16382 3.97416Z" fill="#65686F"/>
<path d="M14.4728 14.3564C14.4758 14.6529 14.2437 14.9019 13.9431 14.9173C13.8013 14.9247 13.6584 14.9257 13.5166 14.9173C13.3995 14.9103 13.3474 14.9421 13.3573 15.0695C13.3678 15.2049 13.3628 15.3413 13.3588 15.4771C13.3494 15.7925 13.1088 16.0315 12.8038 16.032C12.4993 16.0325 12.2562 15.7935 12.2468 15.4791C12.2424 15.3308 12.2419 15.1821 12.2473 15.0343C12.2503 14.9445 12.2151 14.9153 12.1283 14.9182C11.98 14.9232 11.8312 14.9232 11.6829 14.9182C11.3694 14.9078 11.1308 14.6634 11.1328 14.3589C11.1348 14.0534 11.3734 13.8154 11.6903 13.8069C11.8203 13.8035 11.9507 13.7985 12.0797 13.8084C12.2057 13.8178 12.2597 13.7821 12.2483 13.6468C12.2369 13.5119 12.2419 13.375 12.2468 13.2391C12.2577 12.9272 12.5057 12.6892 12.8108 12.6936C13.1079 12.6976 13.3469 12.9322 13.3583 13.2366C13.3638 13.3849 13.3648 13.5337 13.3578 13.6815C13.3534 13.7802 13.3906 13.8114 13.4863 13.8074C13.6346 13.8015 13.7834 13.8015 13.9317 13.8074C14.2352 13.8188 14.4698 14.0598 14.4728 14.3564Z" fill="#16B979"/>
<path d="M17.6339 5.08944C17.6458 5.24516 17.5649 5.38153 17.4479 5.49856C16.5923 6.35548 15.7372 7.2124 14.8776 8.06536C14.6376 8.30389 14.279 8.30686 14.0627 8.08866C13.841 7.86452 13.8485 7.51788 14.0895 7.27637C14.9441 6.41896 15.8017 5.56402 16.6573 4.7076C16.8418 4.52312 17.056 4.46708 17.3001 4.56131C17.5099 4.64164 17.6329 4.83851 17.6339 5.08944Z" fill="#16B979"/>
<path d="M9.60879 9.39338C9.37121 9.13849 9.38014 8.83649 9.63954 8.57564C10.1797 8.03263 10.7223 7.49259 11.2634 6.95107C12.0977 6.11745 12.931 5.28235 13.7662 4.45023C14.0246 4.19286 14.3252 4.18492 14.5861 4.42097C14.5543 4.45817 14.5251 4.49833 14.4904 4.53255C12.9057 6.11745 11.3205 7.70236 9.73477 9.28627C9.69559 9.32495 9.65095 9.35768 9.60879 9.39338Z" fill="#65686F"/>
<path d="M9.60938 9.39339C9.65153 9.35768 9.69667 9.32495 9.73536 9.28627C11.321 7.70235 12.9062 6.11745 14.4909 4.53254C14.5256 4.49782 14.5549 4.45815 14.5866 4.42096C14.8654 4.67933 14.7726 5.0329 14.5802 5.22333C14.3258 5.47575 14.0733 5.73015 13.8198 5.98355C12.692 7.11074 11.5651 8.23843 10.4362 9.36462C10.1639 9.63588 9.85291 9.64382 9.60938 9.39339Z" fill="#16B979"/>
<path d="M6.30397 10.0995C5.87097 10.1005 5.60611 9.6458 5.82385 9.27139C5.86056 9.20841 5.91065 9.15138 5.96224 9.09931C6.37143 8.68771 6.78161 8.27711 7.19329 7.86799C7.45914 7.60367 7.79195 7.59127 8.03052 7.83129C8.26265 8.06486 8.24727 8.39116 7.98687 8.65349C7.56925 9.07402 7.14815 9.49157 6.73003 9.9111C6.61198 10.0301 6.47658 10.1065 6.30397 10.0995Z" fill="#65686F"/>
<path d="M15.3997 3.6424C15.1597 3.40089 15.1438 3.07558 15.3794 2.83854C16.2613 1.95038 17.1461 1.06569 18.0344 0.183978C18.2864 -0.0659564 18.5914 -0.0575261 18.8523 0.188937C18.8146 0.220675 18.775 0.249437 18.7402 0.28415C17.6575 1.36571 16.5752 2.44727 15.494 3.52983C15.4593 3.56405 15.431 3.60471 15.3997 3.6424Z" fill="#65686F"/>
<path d="M15.3984 3.6424C15.4297 3.60471 15.458 3.56405 15.4927 3.52934C16.5744 2.44678 17.6567 1.36522 18.7389 0.283659C18.7737 0.248946 18.8133 0.220184 18.851 0.188446C19.0737 0.377385 19.0311 0.781545 18.8114 0.995278C18.1879 1.60276 17.5773 2.22313 16.9618 2.83855C16.6999 3.10038 16.4405 3.3647 16.1747 3.62306C15.9401 3.85167 15.6415 3.85514 15.3984 3.6424Z" fill="#16B979"/>
<path d="M10.0304 1.74756C9.72838 1.75252 9.47195 1.50655 9.465 1.20505C9.45756 0.895602 9.71201 0.635254 10.0215 0.635254C10.3231 0.635254 10.5755 0.885684 10.578 1.1867C10.5805 1.4887 10.3325 1.7426 10.0304 1.74756Z" fill="#65686F"/>
<path d="M3.15548 6.74923C3.15896 7.05172 2.91294 7.30662 2.61088 7.31257C2.30138 7.31902 2.04198 7.06313 2.04297 6.75418C2.04396 6.45268 2.29494 6.20125 2.597 6.20026C2.89856 6.19878 3.15152 6.44772 3.15548 6.74923Z" fill="#65686F"/>
<path d="M17.8234 11.0229C17.5208 11.0274 17.2649 10.7819 17.258 10.4804C17.2505 10.1705 17.505 9.91012 17.8145 9.91061C18.1165 9.91061 18.3685 10.1606 18.371 10.4626C18.3735 10.7646 18.126 11.0185 17.8234 11.0229Z" fill="#16B979"/>
<path d="M15.5863 17.3308C15.8883 17.3303 16.1413 17.5797 16.1442 17.8812C16.1472 18.1912 15.8898 18.4481 15.5798 18.4436C15.2783 18.4396 15.0298 18.1857 15.0313 17.8837C15.0327 17.5817 15.2837 17.3313 15.5863 17.3308Z" fill="#16B979"/>
</g>
<defs>
<clipPath id="clip0_3779_12830">
<rect width="19" height="19" fill="white"/>
</clipPath>
</defs>
</svg>
