<svg xmlns="http://www.w3.org/2000/svg" xmlns:xlink="http://www.w3.org/1999/xlink" width="100" height="100" viewBox="0 0 100 100">
  <defs>
    <clipPath id="clip-Info">
      <rect width="100" height="100"/>
    </clipPath>
  </defs>
  <g id="Info" clip-path="url(#clip-Info)">
    <rect width="100" height="100" fill="rgba(255,255,255,0)"/>
    <path id="Path_2696" data-name="Path 2696" d="M622.316,532.258H620.6L606.493,496.99a3.609,3.609,0,0,0-3.368-2.277h0a3.609,3.609,0,0,0-3.368,2.277l-3.557,8.893-7.1-26.023a3.63,3.63,0,0,0-7,0l-10.2,37.391L570.834,516a3.628,3.628,0,0,0-5.509,0l-11.141,13V464.126a3.628,3.628,0,1,0-7.255,0v71.76a3.632,3.632,0,0,0,3.628,3.628h71.76a3.628,3.628,0,1,0,0-7.256ZM599.367,517.5l3.757-9.394,9.661,24.153h-9.393Zm-38.42,14.759,7.132-8.32,5.6,6.528,1.537,1.793Zm16.662-8.35L585.6,494.6l10.27,37.656h-11.1Z" transform="translate(-536.929 -450.498)" fill="#f9c568"/>
  </g>
</svg>
