<svg xmlns="http://www.w3.org/2000/svg" xmlns:xlink="http://www.w3.org/1999/xlink" width="100" height="100" viewBox="0 0 100 100">
  <defs>
    <clipPath id="clip-NFT">
      <rect width="100" height="100"/>
    </clipPath>
  </defs>
  <g id="NFT" clip-path="url(#clip-NFT)">
    <rect width="100" height="100" fill="rgba(255,255,255,0)"/>
    <path id="Path_2667" data-name="Path 2667" d="M836.55,580.567A43.954,43.954,0,1,0,880.5,624.521,44,44,0,0,0,836.55,580.567Zm-8.587,53.2q0,2.928-2.427,2.926a3.241,3.241,0,0,1-1.091-.172,2.8,2.8,0,0,1-.912-.556,5.476,5.476,0,0,1-.788-.887c-.243-.34-.486-.685-.729-1.04l-8.45-12.958v13.035a2.778,2.778,0,0,1-.592,1.927,2.1,2.1,0,0,1-3.049-.007,2.83,2.83,0,0,1-.576-1.919v-17.16a4.837,4.837,0,0,1,.243-1.714,2.421,2.421,0,0,1,.954-1.115,2.606,2.606,0,0,1,1.442-.435,2.376,2.376,0,0,1,1.8.729,5.337,5.337,0,0,1,.669.866q.343.529.7,1.108l8.666,13.109v-13.23a2.905,2.905,0,0,1,.552-1.936,1.876,1.876,0,0,1,1.5-.647,1.932,1.932,0,0,1,1.534.647,2.884,2.884,0,0,1,.559,1.936Zm21.106-16.485a2.547,2.547,0,0,1-1.729.51h-4.917v16.156a2.972,2.972,0,0,1-.621,2.071,2.088,2.088,0,0,1-1.609.674,2.116,2.116,0,0,1-1.63-.682,2.95,2.95,0,0,1-.631-2.064V617.793h-4.915a2.491,2.491,0,0,1-1.716-.51,1.726,1.726,0,0,1-.559-1.343,1.7,1.7,0,0,1,.583-1.364,2.519,2.519,0,0,1,1.693-.5H847.34a2.508,2.508,0,0,1,1.736.517,1.732,1.732,0,0,1,.57,1.349A1.7,1.7,0,0,1,849.069,617.283Zm18.14-.212a2.316,2.316,0,0,1-1.6.479h-8.876v5.688h7.419a2.228,2.228,0,0,1,1.541.463,1.6,1.6,0,0,1,.506,1.237,1.554,1.554,0,0,1-.515,1.23,2.251,2.251,0,0,1-1.532.453h-7.419v7.328a2.956,2.956,0,0,1-.629,2.071,2.284,2.284,0,0,1-3.248-.007,2.95,2.95,0,0,1-.629-2.064V616.835a3.752,3.752,0,0,1,.287-1.585,1.783,1.783,0,0,1,.9-.9,3.784,3.784,0,0,1,1.57-.281h10.622a2.307,2.307,0,0,1,1.6.479,1.621,1.621,0,0,1,.523,1.252A1.64,1.64,0,0,1,867.209,617.071Z" transform="translate(-786.503 -574.474)" fill="#fac668"/>
  </g>
</svg>
