<svg width="154" height="152" viewBox="0 0 154 152" fill="none" xmlns="http://www.w3.org/2000/svg">
<path d="M74.803 130.923C109.053 130.923 136.818 103.156 136.818 68.9028C136.818 34.65 109.053 6.88257 74.803 6.88257C40.5529 6.88257 12.7877 34.65 12.7877 68.9028C12.7877 103.156 40.5529 130.923 74.803 130.923Z" fill="#2A2E39"/>
<g filter="url(#filter0_d_93_7867)">
<path d="M39.7396 53.5354H108.243C110.864 53.5354 113.11 55.6568 113.11 58.4022V101.579C113.11 104.2 110.989 106.446 108.243 106.446H39.7396C37.1192 106.446 34.8732 104.325 34.8732 101.579V58.4022C34.8732 55.7816 37.1192 53.5354 39.7396 53.5354Z" fill="#1E242D"/>
</g>
<path d="M146.966 53.4081C148.899 51.6414 149.034 48.6419 147.267 46.7086C145.501 44.7753 142.502 44.6403 140.568 46.407C138.635 48.1737 138.5 51.1732 140.267 53.1065C142.033 55.0398 145.033 55.1748 146.966 53.4081Z" fill="#2A2E39"/>
<path d="M147.319 32.3245C148.133 31.5806 148.19 30.3177 147.446 29.5037C146.702 28.6897 145.439 28.6328 144.625 29.3767C143.811 30.1206 143.754 31.3835 144.498 32.1975C145.242 33.0116 146.505 33.0684 147.319 32.3245Z" fill="#2A2E39"/>
<path d="M96.9486 3.14505C97.5082 2.63363 97.5473 1.76537 97.0359 1.20573C96.5245 0.646091 95.6563 0.607003 95.0967 1.11842C94.5371 1.62985 94.4981 2.49811 95.0094 3.05775C95.5208 3.61738 96.389 3.65647 96.9486 3.14505Z" fill="#2A2E39"/>
<path d="M137.959 30.7995L120.865 61.123C120.241 62.1213 118.993 62.4958 117.995 61.8718L88.7965 44.9004C87.7982 44.2765 87.4238 43.0288 88.0477 42.0305L110.508 3.34586C111.132 2.34754 112.38 1.97305 113.378 2.597L134.59 14.951L137.959 30.7995Z" fill="#69738D"/>
<path d="M134.467 14.8267L129.601 23.0629C128.977 24.3108 129.351 25.6837 130.474 26.4324L137.836 30.6751" fill="#354157"/>
<path d="M114.371 22.8134C114.87 22.6886 115.369 22.6885 115.744 22.6885C116.243 22.6885 116.742 22.6885 117.241 22.6885C117.74 22.8133 118.364 22.9378 118.863 23.0626C119.487 23.3122 119.986 23.5619 120.485 23.8115C121.234 24.1858 121.858 24.6852 122.357 25.3092C122.856 25.8083 123.231 26.4323 123.48 27.181C123.73 27.805 123.73 28.5532 123.73 29.1771C123.605 29.9259 123.355 30.6749 122.981 31.2988C122.607 31.9228 122.232 32.4217 121.733 32.9208C121.234 33.2952 120.86 33.545 120.236 33.7946C119.737 34.0442 119.238 34.1687 118.739 34.1687L117.366 34.2936C116.992 34.2936 116.617 34.4187 116.118 34.5434C115.744 34.6682 115.494 34.7929 115.245 35.0425L113.872 36.7894L111.626 35.5415L112.624 33.2956C112.749 32.9212 113.124 32.5465 113.373 32.2969C113.747 32.0473 114.122 31.9226 114.496 31.7978C114.995 31.6731 115.37 31.6734 115.869 31.5486C116.368 31.5486 116.867 31.4236 117.366 31.2988C117.865 31.174 118.24 31.0493 118.739 30.7998C119.238 30.5502 119.487 30.1759 119.737 29.6768C119.862 29.4272 119.986 29.0525 120.111 28.6781C120.111 28.3037 120.111 28.0545 119.986 27.805C119.862 27.4306 119.737 27.1808 119.487 26.9312C119.238 26.6816 118.988 26.4319 118.614 26.1823C118.239 25.9328 117.74 25.6832 117.241 25.5584C116.867 25.4336 116.492 25.4335 116.118 25.4335C115.744 25.4335 115.494 25.4335 115.245 25.4335C115.12 25.4335 114.871 25.434 114.746 25.3092C114.496 25.1844 114.246 24.8099 114.246 24.5603L114.371 22.8134ZM107.758 39.7842C107.883 39.5346 108.132 39.2856 108.382 39.036C108.631 38.9112 108.881 38.6612 109.131 38.6612C109.755 38.5365 110.378 38.5367 110.877 38.9111C111.127 39.0359 111.377 39.2854 111.626 39.535C111.751 39.7846 111.876 40.0343 112 40.2839C112.375 41.5318 111.626 42.7794 110.378 43.1538C109.755 43.2786 109.131 43.1535 108.631 42.904C108.382 42.7792 108.132 42.5296 107.883 42.28C107.758 42.0304 107.509 41.7813 107.509 41.5318C107.384 41.2822 107.384 40.9076 107.509 40.658C107.509 40.2836 107.633 40.0338 107.758 39.7842Z" fill="#2C313D"/>
<path d="M28.2791 17.5715L47.8694 37.9119C48.4933 38.6606 48.4932 39.659 47.7445 40.4077L27.7798 59.251C27.0311 59.8749 26.0329 59.8748 25.2842 59.1261L0.453272 32.796C-0.170624 32.0473 -0.170503 31.049 0.578173 30.3003L15.0524 16.6978L28.2791 17.5715Z" fill="#69738D"/>
<path d="M15.0513 16.5732L20.4168 22.1888C21.1655 22.9375 22.4134 22.9375 23.2868 22.1888L28.278 17.4464" fill="#354157"/>
<path d="M16.5428 34.044C16.5428 33.6696 16.6678 33.2947 16.7926 32.9204C16.9174 32.546 17.0419 32.1718 17.1667 31.7974C17.2915 31.423 17.541 31.0488 17.7906 30.6744C18.0401 30.3 18.4145 29.9258 18.7889 29.5514C19.288 29.0523 19.7872 28.678 20.4111 28.4284C20.9102 28.1789 21.5341 28.0537 22.0333 28.0537C22.5324 28.0537 23.1563 28.1787 23.6555 28.3035C24.1546 28.5531 24.6536 28.9272 25.1527 29.3016C25.5271 29.676 25.9014 30.1752 26.0261 30.6744C26.1509 31.0488 26.2758 31.5481 26.4005 32.0472C26.4005 32.4216 26.4005 32.9207 26.4005 33.2951C26.2758 33.6695 26.2758 34.0437 26.151 34.4181C26.151 34.7924 26.0261 35.0418 26.0261 35.4161C26.0261 35.6657 26.0261 35.9154 26.2756 36.165L27.2739 37.6627L25.7766 39.0355L24.2793 37.6627C24.0298 37.4131 23.7802 37.1633 23.6555 36.789C23.5307 36.4146 23.5305 36.1652 23.5305 35.7909C23.5305 35.4165 23.6555 35.0423 23.6555 34.6679C23.7802 34.2935 23.78 33.9187 23.78 33.5443C23.78 33.1699 23.7802 32.7957 23.6555 32.4213C23.5307 32.047 23.2811 31.6727 23.0316 31.2984C22.9068 31.0488 22.6572 30.9241 22.4077 30.7993C22.1581 30.6745 21.9084 30.6744 21.6589 30.6744C21.4093 30.6744 21.1596 30.7994 20.9101 30.9242C20.6605 31.049 20.4111 31.1737 20.1616 31.4233C19.912 31.6728 19.6623 32.0468 19.4128 32.2964C19.288 32.546 19.1632 32.7958 19.0384 33.1702C18.9136 33.4198 18.9138 33.6693 18.9138 33.7941C18.9138 33.9189 18.7891 34.0435 18.6643 34.1683C18.5395 34.4178 18.165 34.418 17.9155 34.2932L16.5428 34.044ZM28.2722 43.0284C28.1474 42.9036 28.0226 42.654 27.8978 42.4045C27.773 42.1549 27.7729 41.9052 27.7729 41.6556C27.7729 41.1564 28.0225 40.6578 28.3968 40.2834C28.5216 40.1586 28.7712 40.0335 29.0207 39.9087C29.2703 39.7839 29.52 39.7838 29.7695 39.7838C30.5182 39.7838 31.2667 40.2829 31.5163 41.0317C31.6411 41.2812 31.6412 41.5309 31.6412 41.7805C31.6412 42.0301 31.5163 42.2798 31.5163 42.5294C31.3915 42.779 31.2669 42.9037 31.0173 43.1533C30.8925 43.2781 30.643 43.5274 30.3934 43.5274C29.8943 43.6522 29.3951 43.6522 29.0207 43.5274C28.6464 43.4027 28.397 43.278 28.2722 43.0284Z" fill="#2C313D"/>
<path d="M79.1874 49.6432L71.5758 76.7221C71.3262 77.5956 70.328 78.2195 69.4546 77.8451L43.126 70.1085C42.2525 69.859 41.6288 68.8604 42.0031 67.9869L52.235 33.1708C52.4845 32.2973 53.4827 31.6735 54.3561 32.0479L73.4474 37.6634L79.1874 49.6432Z" fill="#69738D"/>
<path d="M73.4478 37.7883L71.2017 45.2757C70.9521 46.274 71.5761 47.3971 72.5744 47.7715L79.1877 49.7676" fill="#354157"/>
<path d="M59.0941 47.8959C59.4684 47.7711 59.8426 47.6466 60.217 47.5218C60.5913 47.397 60.9656 47.272 61.4647 47.272C61.9639 47.272 62.3383 47.272 62.8374 47.272C63.3366 47.272 63.8356 47.397 64.3347 47.5218C64.9586 47.6466 65.5827 48.0212 66.0818 48.3956C66.5809 48.7699 66.9553 49.1443 67.3296 49.6435C67.5792 50.1426 67.8287 50.6414 67.9535 51.1406C68.0783 51.7645 67.9534 52.3883 67.8286 52.8875C67.7038 53.3866 67.4542 53.886 67.0798 54.3852C66.8303 54.7596 66.4562 55.1337 66.0818 55.3833C65.7075 55.6328 65.333 55.8824 64.9586 56.0072L63.8357 56.3819C63.5862 56.5067 63.2119 56.6313 62.9623 56.7561C62.7128 56.8809 62.463 57.1304 62.463 57.38L61.7146 59.0026L59.718 58.3787L60.0924 56.3819C60.0924 56.0076 60.3418 55.7578 60.5914 55.5082C60.8409 55.2586 61.0904 55.009 61.4647 54.8842C61.8391 54.7594 62.2135 54.6349 62.463 54.5101C62.8374 54.3853 63.2119 54.2607 63.5862 54.0111C63.9606 53.8863 64.2099 53.6367 64.5842 53.3871C64.8338 53.1376 65.0833 52.7627 65.2081 52.2635C65.3329 52.014 65.333 51.7649 65.333 51.5153C65.333 51.2657 65.2083 51.016 65.0835 50.7664C64.9588 50.5169 64.7092 50.3921 64.4596 50.1425C64.2101 50.0177 63.9606 49.8925 63.5862 49.7678C63.2119 49.643 62.8376 49.6435 62.3384 49.6435C62.0889 49.6435 61.7143 49.643 61.4647 49.7678C61.2152 49.7678 60.9656 49.8927 60.8409 49.8927C60.7161 49.8927 60.5914 50.0175 60.3419 49.8927C60.0923 49.8927 59.8429 49.6432 59.8429 49.3936L59.0941 47.8959ZM57.2224 62.6214C57.3472 62.3718 57.3472 62.1222 57.5968 61.9975C57.7216 61.7479 57.971 61.6232 58.0958 61.4984C58.5949 61.2488 59.0941 61.2487 59.4685 61.3735C59.718 61.4983 59.9676 61.6228 60.0924 61.7476C60.2171 61.8724 60.4666 62.1219 60.5914 62.2467C61.0905 63.1202 60.7163 64.2433 59.8429 64.7425C59.3437 64.992 58.8445 64.9922 58.4702 64.8674C58.2206 64.7426 57.9711 64.7428 57.8463 64.4932C57.5967 64.3685 57.4721 64.119 57.3473 63.9942C57.2225 63.7446 57.2223 63.6198 57.0975 63.3703C57.0975 63.1207 57.0976 62.871 57.2224 62.6214Z" fill="#2C313D"/>
<path d="M140.983 95.9248L116.121 109.363C115.316 109.794 114.177 109.514 113.848 108.628L101.347 84.3807C100.927 83.5813 101.222 82.4386 102.112 82.0973L134.384 65.1386C135.188 64.7079 136.327 64.9871 136.657 65.8735L145.718 83.4591L140.983 95.9248Z" fill="#69738D"/>
<path d="M145.575 83.531L138.609 87.1442C137.715 87.6617 137.33 88.8912 137.745 89.8666L140.844 95.9921" fill="#354157"/>
<path d="M128.353 80.24C128.7 80.4209 129.048 80.6021 129.395 80.7829C129.743 80.9638 130.09 81.1445 130.433 81.5017C130.776 81.8589 131.033 82.1266 131.376 82.4838C131.719 82.8409 131.971 83.2854 132.224 83.7296C132.562 84.2631 132.72 84.9702 132.792 85.5883C132.864 86.2065 132.85 86.7354 132.746 87.3512C132.556 87.8778 132.366 88.4045 132.09 88.8418C131.724 89.3661 131.187 89.7116 130.739 89.9703C130.292 90.229 129.76 90.3987 129.141 90.4788C128.699 90.5612 128.171 90.5541 127.733 90.4602C127.295 90.3664 126.857 90.2726 126.51 90.0917L125.467 89.5487C125.205 89.4572 124.858 89.2766 124.596 89.185C124.334 89.0934 123.982 89.0889 123.801 89.2629L122.113 89.8578L121.193 87.9941L122.895 86.87C123.167 86.609 123.518 86.614 123.871 86.6186C124.223 86.6231 124.575 86.6277 124.922 86.8086C125.27 86.9895 125.618 87.1701 125.879 87.2617C126.227 87.4426 126.574 87.6235 127.012 87.7173C127.36 87.8982 127.712 87.9029 128.15 87.9967C128.502 88.0013 128.944 87.919 129.391 87.6603C129.838 87.4016 130.29 86.9665 130.304 86.4376C130.399 86.1744 130.318 85.9088 130.327 85.5562C130.246 85.2906 130.165 85.025 129.998 84.6702C129.831 84.3153 129.574 84.0472 129.321 83.6031C129.15 83.4245 128.893 83.1567 128.631 83.0652C128.459 82.8866 128.198 82.7951 128.112 82.7058C128.026 82.6165 127.85 82.6143 127.769 82.3487C127.598 82.1701 127.607 81.8175 127.787 81.6435L128.353 80.24ZM116.497 89.0794C116.763 88.9947 116.944 88.8207 117.206 88.9123C117.472 88.8276 117.734 88.919 117.911 88.9213C118.434 89.1045 118.776 89.4619 118.943 89.8167C119.024 90.0823 119.106 90.3477 119.101 90.524C119.096 90.7003 119.087 91.0529 119.083 91.2292C118.983 91.6688 118.531 92.1037 118.175 92.2754C117.908 92.3601 117.642 92.4448 117.466 92.4425C117.29 92.4402 116.938 92.4356 116.762 92.4333C116.238 92.2501 115.895 91.893 115.728 91.5381C115.647 91.2725 115.566 91.0071 115.57 90.8308C115.489 90.5652 115.585 90.3017 115.589 90.1254C115.684 89.8621 115.865 89.6882 115.87 89.5119C116.05 89.3379 116.316 89.2534 116.497 89.0794Z" fill="#2C313D"/>
<path d="M78.8248 15.9507L78.076 15.8258C77.7017 15.8258 77.4523 15.5762 77.3276 15.2018C77.2028 14.9523 77.2025 14.7027 77.0777 14.5779C76.953 14.3283 76.9531 13.9537 77.2026 13.7041L77.577 13.0802C77.8266 12.7058 77.8265 12.2068 77.4521 11.9572L76.2044 10.7093C75.83 10.3349 75.331 10.3348 75.0815 10.5844L74.4576 10.9591C74.208 11.2087 73.8336 11.2082 73.4593 11.0834C73.2097 10.9586 72.9602 10.8342 72.8354 10.8342C72.461 10.7094 72.3363 10.4597 72.2115 10.0854L72.0866 9.3365C71.9618 8.83735 71.5875 8.58765 71.2132 8.58765H69.4664C68.9673 8.58765 68.593 8.96214 68.593 9.3365L68.4681 10.0854C68.4681 10.4597 68.2185 10.7094 67.8442 10.8342C67.5946 10.959 67.3451 10.9586 67.2203 11.0834C66.9707 11.2082 66.5965 11.2087 66.3469 10.9591L65.723 10.5844C65.3487 10.3348 64.8494 10.3349 64.5998 10.7093L63.352 11.9572C62.9777 12.3316 62.9779 12.8306 63.2274 13.0802L63.6018 13.7041C63.8514 13.9537 63.8512 14.3283 63.7264 14.5779C63.6016 14.8275 63.4769 15.077 63.4769 15.2018C63.3521 15.5762 63.1025 15.701 62.7281 15.8258L61.9796 15.9507C61.4805 16.0755 61.2308 16.4495 61.2308 16.8239V18.5708C61.2308 19.0699 61.6053 19.4445 61.9796 19.4445L62.7281 19.5695C63.1025 19.5695 63.3521 19.819 63.4769 20.1934C63.6017 20.443 63.6016 20.6926 63.7264 20.8173C63.8512 21.0669 63.8514 21.441 63.6018 21.8154L63.2274 22.4394C62.9779 22.8137 62.9777 23.3129 63.352 23.6873L64.5998 24.9351C64.9742 25.3095 65.4735 25.3096 65.723 25.0601L66.3469 24.6859C66.5965 24.4364 66.9707 24.4362 67.2203 24.561C67.4699 24.6858 67.7194 24.8102 67.8442 24.8102C68.2185 24.935 68.3433 25.1847 68.4681 25.5591L68.593 26.3079C68.7178 26.8071 69.0921 27.0568 69.4664 27.0568H71.2132C71.7123 27.0568 72.0866 26.6823 72.0866 26.3079L72.2115 25.5591C72.2115 25.1847 72.461 24.935 72.8354 24.8102C73.0849 24.6854 73.3345 24.6858 73.4593 24.561C73.7088 24.4362 74.0832 24.4364 74.4576 24.6859L75.0815 25.0601C75.4558 25.3096 75.9548 25.3095 76.2044 24.9351L77.4521 23.6873C77.8265 23.3129 77.8266 22.8137 77.577 22.4394L77.2026 21.8154C76.9531 21.5658 76.953 21.1917 77.0777 20.8173C77.2025 20.5678 77.3276 20.3182 77.3276 20.1934C77.4523 19.819 77.7017 19.6942 78.076 19.5695L78.8248 19.4445C79.324 19.3198 79.5733 18.9451 79.5733 18.5708V16.8239C79.5733 16.3247 79.324 15.9507 78.8248 15.9507ZM70.5893 20.6924C68.8424 20.6924 67.4698 19.3198 67.4698 17.5727C67.4698 15.8257 68.8424 14.453 70.5893 14.453C72.3362 14.453 73.7088 15.8257 73.7088 17.5727C73.584 19.3198 72.2114 20.6924 70.5893 20.6924Z" fill="#FFD44F"/>
<path d="M17.5459 83.46L17.0469 83.3357C16.7974 83.3357 16.6724 83.0858 16.5476 82.961C16.5476 82.8362 16.4229 82.5867 16.2981 82.4619C16.1734 82.2124 16.1735 81.9628 16.423 81.838L16.6725 81.4639C16.7973 81.2143 16.7973 80.8397 16.6725 80.5901L15.7992 79.7163C15.5496 79.4668 15.1753 79.4668 14.9258 79.7163L14.5514 79.9662C14.3018 80.091 14.0522 80.091 13.9275 79.9662C13.8027 79.8414 13.5529 79.8411 13.4282 79.7163C13.1786 79.5916 13.0541 79.4669 13.0541 79.2173L12.9292 78.7183C12.9292 78.4687 12.6796 78.2192 12.3053 78.2192H11.1824C10.808 78.2192 10.5585 78.4687 10.5585 78.7183L10.4336 79.2173C10.4336 79.4669 10.184 79.5916 10.0592 79.7163C9.9344 79.7163 9.68496 79.8414 9.56018 79.9662C9.31063 80.091 9.06107 80.091 8.93629 79.9662L8.56189 79.7163C8.31233 79.4668 7.93805 79.5916 7.68849 79.7163L6.8151 80.5901C6.56554 80.8397 6.56554 81.2143 6.8151 81.4639L7.0646 81.838C7.18938 82.0876 7.18938 82.2124 7.0646 82.4619C6.93982 82.5867 6.93988 82.8362 6.8151 82.961C6.69032 83.2106 6.56536 83.3357 6.3158 83.3357L5.8168 83.46C5.56725 83.46 5.3175 83.7096 5.3175 84.084V85.2076C5.3175 85.5819 5.56725 85.8315 5.8168 85.8315L6.3158 85.9558C6.56536 85.9558 6.69032 86.2057 6.8151 86.3305C6.8151 86.4553 6.93982 86.7048 7.0646 86.8296C7.18938 87.0791 7.18938 87.3287 7.0646 87.4535L6.8151 87.8276C6.69032 88.0772 6.69032 88.4518 6.8151 88.7014L7.68849 89.5752C7.93805 89.8248 8.31233 89.8248 8.56189 89.5752L8.93629 89.3254C9.06107 89.2006 9.31063 89.2004 9.56018 89.2004C9.68496 89.3252 9.9344 89.3255 10.0592 89.4503C10.3087 89.5751 10.4336 89.6997 10.4336 89.9493L10.5585 90.4483C10.5585 90.6979 10.808 90.9474 11.1824 90.9474H12.3053C12.6796 90.9474 12.9292 90.6979 12.9292 90.4483L13.0541 89.9493C13.0541 89.6997 13.3034 89.5751 13.4282 89.4503C13.5529 89.4503 13.8027 89.3252 13.9275 89.2004C14.177 89.0757 14.4266 89.0758 14.5514 89.3254L14.9258 89.5752C15.1753 89.7 15.5496 89.7 15.7992 89.5752L16.6725 88.7014C16.9221 88.4518 16.9221 88.0772 16.6725 87.8276L16.423 87.4535C16.2983 87.2039 16.2981 86.9544 16.2981 86.8296C16.4229 86.7048 16.4229 86.4553 16.5476 86.3305C16.6724 86.081 16.7974 85.9558 17.0469 85.9558L17.5459 85.8315C17.7955 85.8315 18.0452 85.5819 18.0452 85.2076V84.084C18.17 83.7096 17.9203 83.46 17.5459 83.46ZM11.8063 86.8296C10.6833 86.8296 9.68478 85.831 9.68478 84.7079C9.68478 83.5848 10.6833 82.5869 11.8063 82.5869C12.9293 82.5869 13.9275 83.5848 13.9275 84.7079C13.9275 85.831 13.0541 86.8296 11.8063 86.8296Z" fill="#FFD44F"/>
<path d="M114.372 81.3387V102.678C114.372 105.423 112.126 107.669 109.381 107.669H39.0055C36.2604 107.669 34.0143 105.423 34.0143 102.678V79.5918" stroke="#1676EE" stroke-width="3" stroke-linecap="round" stroke-linejoin="round"/>
<g filter="url(#filter1_d_93_7867)">
<path d="M111.665 67.6748H87.5201C85.2207 67.6748 82.9213 68.5008 81.1445 69.946L74.7686 75.1075C72.9917 76.5527 70.6924 77.3787 68.393 77.3787H40.9039C38.1864 77.3787 35.8868 79.5463 35.8868 82.3335C35.8868 82.5399 35.8869 82.8498 35.9915 83.0563L41.0083 109.482C41.4264 111.96 43.5168 113.818 46.0253 113.818H104.557C107.066 113.818 109.156 112.063 109.574 109.586L116.577 73.4557C116.995 70.7718 115.218 68.191 112.396 67.7781C112.187 67.6749 111.874 67.6748 111.665 67.6748Z" fill="white"/>
</g>
<g filter="url(#filter2_d_93_7867)">
<path d="M118.367 62.8701H89.5428C86.7977 62.8701 84.0527 63.8687 81.9315 65.6157L74.3198 71.8552C72.1986 73.6022 69.4536 74.6008 66.7085 74.6008H33.8914C30.6472 74.6008 27.902 77.2211 27.902 80.5904C27.902 80.84 27.9021 81.2146 28.0269 81.4642L34.016 113.41C34.5152 116.405 37.0108 118.651 40.0055 118.651H109.882C112.877 118.651 115.372 116.53 115.871 113.535L124.232 69.8584C124.731 66.6139 122.609 63.4942 119.24 62.995C118.991 62.8702 118.617 62.8701 118.367 62.8701Z" fill="#474E61"/>
</g>
<path d="M62.4694 96.0642C64.1922 96.0642 65.5889 94.6674 65.5889 92.9444C65.5889 91.2215 64.1922 89.8247 62.4694 89.8247C60.7466 89.8247 59.3499 91.2215 59.3499 92.9444C59.3499 94.6674 60.7466 96.0642 62.4694 96.0642Z" fill="#2C313D"/>
<path d="M86.9274 95.9397C88.6502 95.9397 90.0469 94.5429 90.0469 92.8199C90.0469 91.0969 88.6502 89.7002 86.9274 89.7002C85.2046 89.7002 83.8079 91.0969 83.8079 92.8199C83.8079 94.5429 85.2046 95.9397 86.9274 95.9397Z" fill="#2C313D"/>
<path d="M81.4339 101.181H79.812C78.4394 98.3104 74.9455 97.1873 72.2004 98.6847C71.0773 99.1839 70.2039 100.182 69.7048 101.181H68.0826C69.4552 97.4368 73.6978 95.5651 77.3164 96.9378C79.1881 97.6865 80.6852 99.1839 81.4339 101.181Z" fill="#2C313D"/>
<path d="M130.989 116.043C130.614 117.665 130.115 119.163 129.491 120.66C129.367 121.034 129.242 121.284 128.992 121.658C126.871 125.776 123.502 129.146 119.384 131.142C118.885 131.392 118.386 131.641 118.012 131.766C114.019 133.388 109.527 134.012 105.035 133.014C93.1805 130.518 85.569 118.913 88.0646 107.058C90.5602 95.203 102.165 87.5909 114.019 90.0867C118.261 90.9602 122.005 93.0816 125.124 96.0765C130.365 101.193 132.611 108.805 130.989 116.043Z" fill="url(#paint0_linear_93_7867)"/>
<path d="M129.474 120.648C129.35 121.022 129.225 121.271 129.1 121.646C126.979 125.764 123.61 129.133 119.492 131.13C118.993 131.379 118.494 131.629 118.12 131.754L102.772 116.405L106.515 116.529L110.508 116.654L113.378 114.657C113.378 114.657 115.624 110.789 115.499 110.54C115.374 110.29 112.879 106.422 112.879 106.422L115.624 106.921L129.474 120.648Z" fill="url(#paint1_linear_93_7867)"/>
<path d="M118.621 118.526L115.376 115.281C117.872 111.537 116.874 106.546 113.13 104.05C109.387 101.554 104.396 102.553 101.9 106.296C99.4046 110.04 100.403 115.032 104.146 117.527C106.891 119.275 110.385 119.275 113.005 117.527L116.25 120.772C116.874 121.396 117.872 121.396 118.496 120.772C119.12 120.148 119.244 119.15 118.621 118.526ZM105.144 114.283C103.273 112.411 103.273 109.291 105.144 107.419C107.016 105.548 110.135 105.548 112.007 107.419C113.879 109.291 113.879 112.411 112.007 114.283C110.135 116.155 107.016 116.155 105.144 114.283Z" fill="url(#paint2_linear_93_7867)"/>
<defs>
<filter id="filter0_d_93_7867" x="12.8732" y="42.5354" width="122.237" height="96.9104" filterUnits="userSpaceOnUse" color-interpolation-filters="sRGB">
<feFlood flood-opacity="0" result="BackgroundImageFix"/>
<feColorMatrix in="SourceAlpha" type="matrix" values="0 0 0 0 0 0 0 0 0 0 0 0 0 0 0 0 0 0 127 0" result="hardAlpha"/>
<feOffset dy="11"/>
<feGaussianBlur stdDeviation="11"/>
<feColorMatrix type="matrix" values="0 0 0 0 0.397708 0 0 0 0 0.47749 0 0 0 0 0.575 0 0 0 0.18 0"/>
<feBlend mode="normal" in2="BackgroundImageFix" result="effect1_dropShadow_93_7867"/>
<feBlend mode="normal" in="SourceGraphic" in2="effect1_dropShadow_93_7867" result="shape"/>
</filter>
<filter id="filter1_d_93_7867" x="30.8868" y="57.6748" width="90.7509" height="56.1436" filterUnits="userSpaceOnUse" color-interpolation-filters="sRGB">
<feFlood flood-opacity="0" result="BackgroundImageFix"/>
<feColorMatrix in="SourceAlpha" type="matrix" values="0 0 0 0 0 0 0 0 0 0 0 0 0 0 0 0 0 0 127 0" result="hardAlpha"/>
<feOffset dy="-5"/>
<feGaussianBlur stdDeviation="2.5"/>
<feColorMatrix type="matrix" values="0 0 0 0 0 0 0 0 0 0 0 0 0 0 0 0 0 0 0.18 0"/>
<feBlend mode="normal" in2="BackgroundImageFix" result="effect1_dropShadow_93_7867"/>
<feBlend mode="normal" in="SourceGraphic" in2="effect1_dropShadow_93_7867" result="shape"/>
</filter>
<filter id="filter2_d_93_7867" x="5.90198" y="51.8701" width="140.402" height="99.7808" filterUnits="userSpaceOnUse" color-interpolation-filters="sRGB">
<feFlood flood-opacity="0" result="BackgroundImageFix"/>
<feColorMatrix in="SourceAlpha" type="matrix" values="0 0 0 0 0 0 0 0 0 0 0 0 0 0 0 0 0 0 127 0" result="hardAlpha"/>
<feOffset dy="11"/>
<feGaussianBlur stdDeviation="11"/>
<feColorMatrix type="matrix" values="0 0 0 0 0 0 0 0 0 0 0 0 0 0 0 0 0 0 0.18 0"/>
<feBlend mode="normal" in2="BackgroundImageFix" result="effect1_dropShadow_93_7867"/>
<feBlend mode="normal" in="SourceGraphic" in2="effect1_dropShadow_93_7867" result="shape"/>
</filter>
<linearGradient id="paint0_linear_93_7867" x1="87.6091" y1="111.554" x2="131.503" y2="111.554" gradientUnits="userSpaceOnUse">
<stop stop-color="#474E61"/>
<stop offset="1" stop-color="#282D37"/>
</linearGradient>
<linearGradient id="paint1_linear_93_7867" x1="112.83" y1="115.28" x2="120.468" y2="122.918" gradientUnits="userSpaceOnUse">
<stop stop-color="#474E61"/>
<stop offset="1" stop-color="#474E61" stop-opacity="0"/>
</linearGradient>
<linearGradient id="paint2_linear_93_7867" x1="116.653" y1="118.866" x2="105.852" y2="108.066" gradientUnits="userSpaceOnUse">
<stop offset="0.0113208" stop-color="#0F221A"/>
<stop offset="1" stop-color="#2A2F3A"/>
</linearGradient>
</defs>
</svg>
