<svg width="19" height="18" viewBox="0 0 19 18" fill="none" xmlns="http://www.w3.org/2000/svg">
<g clip-path="url(#clip0_1258:5509)">
<path d="M17.9997 12.9509C17.9912 15.743 15.7096 18.0106 12.919 18C10.1278 17.9894 7.86308 15.7064 7.87505 12.915C7.88631 10.125 10.1735 7.86093 12.9648 7.87571C15.749 7.88979 18.0081 10.1672 17.9997 12.9509ZM13.4991 11.6485C13.4991 11.3324 13.5026 11.0163 13.4984 10.6995C13.4935 10.3707 13.2478 10.1243 12.9352 10.1257C12.6213 10.1264 12.3777 10.3721 12.3763 10.703C12.3728 11.4408 12.3678 12.1786 12.3819 12.9164C12.3847 13.0509 12.4396 13.2177 12.5305 13.312C13.0901 13.895 13.6653 14.4624 14.2397 15.0312C14.3826 15.1727 14.5628 15.2178 14.7592 15.1685C15.1887 15.0601 15.3309 14.5476 15.0141 14.2237C14.5481 13.7464 14.0693 13.2804 13.6033 12.8023C13.5463 12.7439 13.5069 12.6439 13.5041 12.5623C13.4921 12.2581 13.4991 11.9533 13.4991 11.6485Z" fill="#05D8F5"/>
<path d="M2.25083 14.6204C3.83619 14.6204 5.40395 14.6204 6.96819 14.6204C7.11673 14.9992 7.26104 15.3667 7.4124 15.7511C7.34411 15.7511 7.28216 15.7511 7.22021 15.7511C5.0407 15.7511 2.86118 15.7511 0.681668 15.7504C0.605639 15.7504 0.528201 15.7532 0.454283 15.7391C0.171284 15.6835 -0.0237173 15.4195 0.0023299 15.1358C0.0276731 14.8584 0.255762 14.6387 0.540169 14.6275C0.726723 14.6204 0.913981 14.6261 1.12517 14.6261C1.12517 14.5543 1.12517 14.4923 1.12517 14.4304C1.12588 13.7742 1.11532 13.1181 1.12869 12.462C1.15615 11.1539 1.62077 10.0184 2.52046 9.06725C2.86259 8.70539 3.22162 8.36042 3.5729 8.00701C3.61303 7.96618 3.65105 7.92324 3.70173 7.86973C3.34763 7.51703 3.00127 7.16925 2.65281 6.82358C2.23746 6.41174 1.89462 5.9485 1.63767 5.42191C1.31173 4.75451 1.13785 4.04839 1.12799 3.30567C1.11954 2.64954 1.12517 1.9934 1.12517 1.33727C1.12517 1.27391 1.12517 1.21055 1.12517 1.12607C0.944956 1.12607 0.777409 1.12748 0.609158 1.12607C0.251538 1.12325 0.000217969 0.889524 0.000921946 0.561458C0.00162592 0.236207 0.255762 0.00106969 0.612678 0.00106969C3.95235 0.000365686 7.29202 0.000365686 10.631 0.00106969C10.9914 0.00106969 11.2456 0.231279 11.2498 0.555122C11.254 0.887412 10.9978 1.12396 10.6296 1.12607C10.467 1.12677 10.3043 1.12607 10.1255 1.12607C10.1255 1.25842 10.1269 1.37388 10.1255 1.49004C10.1164 2.23347 10.1424 2.97971 10.0875 3.72033C10.003 4.85026 9.53489 5.83023 8.7577 6.65321C8.3684 7.06506 7.94883 7.44944 7.54193 7.84791C7.84957 8.14922 8.13186 8.42731 8.41345 8.70328C8.16495 9.02571 7.93756 9.31998 7.71018 9.61496C7.24767 9.15665 6.77459 8.70257 6.31982 8.23018C6.10863 8.01124 6.14524 7.68951 6.37614 7.45648C6.83373 6.99466 7.29131 6.53212 7.75594 6.07734C8.5993 5.25013 9.01535 4.25115 9.00127 3.06842C8.99353 2.42989 8.99987 1.79206 8.99987 1.14015C6.75277 1.14015 4.51342 1.14015 2.27195 1.14015C2.26703 1.14719 2.25576 1.15705 2.25576 1.1662C2.2628 1.992 2.23675 2.8192 2.28814 3.64218C2.34305 4.51867 2.72743 5.27477 3.33496 5.90767C3.82141 6.41456 4.32616 6.90454 4.82317 7.40227C5.14559 7.72541 5.1477 8.02461 4.8288 8.34423C4.3691 8.80465 3.9094 9.26437 3.449 9.72338C2.64999 10.5196 2.24943 11.4813 2.25083 12.6098C2.25154 13.2188 2.25083 13.8284 2.25083 14.4374C2.25083 14.4944 2.25083 14.5514 2.25083 14.6204Z" fill="#05D8F5"/>
<path d="M5.62066 6.62398C5.06029 6.0474 4.49359 5.50391 3.97476 4.91818C3.55871 4.44861 3.38553 3.86147 3.37708 3.23279C3.37286 2.91176 3.37637 2.59144 3.37637 2.26056C4.87866 2.26056 6.36758 2.26056 7.85297 2.26056C7.97335 3.43414 7.82974 4.51478 6.88922 5.361C6.45487 5.75101 6.05923 6.18468 5.62066 6.62398Z" fill="#05D8F5"/>
<path d="M6.77698 13.4915C5.64076 13.4915 4.51932 13.4915 3.39437 13.4915C3.29792 12.3729 3.3831 11.3148 4.27363 10.4826C4.6925 10.0912 5.08743 9.67373 5.49292 9.26822C5.53375 9.22739 5.5767 9.18937 5.6302 9.13939C5.92939 9.4393 6.22224 9.73146 6.5144 10.0257C6.70799 10.2207 6.9044 10.4136 7.09095 10.6164C7.12826 10.6572 7.1522 10.7466 7.1346 10.7966C6.82415 11.6625 6.6925 12.5517 6.77698 13.4915Z" fill="#05D8F5"/>
<path d="M13.4977 11.6485C13.4977 11.9533 13.4907 12.2574 13.5027 12.5616C13.5055 12.6439 13.5449 12.7439 13.6019 12.8016C14.0679 13.2796 14.5467 13.745 15.0127 14.223C15.3288 14.5469 15.1866 15.0594 14.7578 15.1678C14.5614 15.2178 14.3805 15.172 14.2383 15.0305C13.6639 14.4617 13.0887 13.8942 12.5291 13.3113C12.4382 13.217 12.3833 13.0501 12.3805 12.9157C12.3664 12.1779 12.3714 11.4401 12.3749 10.7023C12.3763 10.3721 12.6199 10.1264 12.9338 10.125C13.2464 10.1243 13.4921 10.3707 13.497 10.6988C13.5012 11.0163 13.4977 11.3324 13.4977 11.6485Z" fill="white"/>
</g>
<defs>
<clipPath id="clip0_1258:5509">
<rect width="18" height="18" fill="white"/>
</clipPath>
</defs>
</svg>
