<svg xmlns="http://www.w3.org/2000/svg" xmlns:xlink="http://www.w3.org/1999/xlink" width="100" height="100" viewBox="0 0 100 100">
  <defs>
    <clipPath id="clip-Loof">
      <rect width="100" height="100"/>
    </clipPath>
  </defs>
  <g id="Loof" clip-path="url(#clip-Loof)">
    <rect width="100" height="100" fill="rgba(255,255,255,0)"/>
    <g id="Group_600" data-name="Group 600" transform="translate(7 14)">
      <path id="Path_2652" data-name="Path 2652" d="M587.563,411.482a1.392,1.392,0,0,0,1.392-1.392v-16.7a1.392,1.392,0,0,0-2.783,0v16.7A1.392,1.392,0,0,0,587.563,411.482Z" transform="translate(-544.423 -346.077)" fill="#fac668"/>
      <path id="Path_2653" data-name="Path 2653" d="M683.563,395.482a1.391,1.391,0,0,0,1.391-1.391v-16.7a1.392,1.392,0,0,0-2.783,0v16.7A1.392,1.392,0,0,0,683.563,395.482Z" transform="translate(-623.724 -332.861)" fill="#fac668"/>
      <path id="Path_2654" data-name="Path 2654" d="M779.563,357.916a1.392,1.392,0,0,0,1.392-1.391V345.392a1.391,1.391,0,1,0-2.783,0v11.133A1.392,1.392,0,0,0,779.563,357.916Z" transform="translate(-703.025 -306.427)" fill="#fac668"/>
      <path id="Path_2655" data-name="Path 2655" d="M395.759,450.964a1.385,1.385,0,0,0,.5-.1,12.938,12.938,0,0,1-1.854-.965A1.391,1.391,0,0,0,395.759,450.964Z" transform="translate(-386.017 -393.908)" fill="#fac668"/>
      <path id="Path_2656" data-name="Path 2656" d="M401.363,344a1.4,1.4,0,0,0-.17.012q.607.3,1.29.557A1.388,1.388,0,0,0,401.363,344Z" transform="translate(-391.622 -306.427)" fill="#fac668"/>
      <path id="Path_2657" data-name="Path 2657" d="M779.563,444.175a1.391,1.391,0,0,0,1.392-1.391v-1.392a1.391,1.391,0,1,0-2.783,0v1.392A1.391,1.391,0,0,0,779.563,444.175Z" transform="translate(-703.025 -385.728)" fill="#fac668"/>
      <g id="Group_596" data-name="Group 596" transform="translate(36.92 17.01)">
        <path id="Path_2658" data-name="Path 2658" d="M575.718,232.176c-8.457,0-15.5-2.753-17-6.39a3.786,3.786,0,0,0-.3,1.456v1.7c0,4.333,7.745,7.846,17.3,7.846s17.3-3.513,17.3-7.846v-1.7a3.786,3.786,0,0,0-.3-1.456C591.213,229.423,584.174,232.176,575.718,232.176Z" transform="translate(-558.419 -225.786)" fill="#fac668"/>
      </g>
      <path id="Path_2659" data-name="Path 2659" d="M575.718,161.393c9.554,0,17.3-3.513,17.3-7.846v-1.7c0-4.333-7.745-7.846-17.3-7.846s-17.3,3.513-17.3,7.846v1.7C558.419,157.881,566.164,161.393,575.718,161.393Z" transform="translate(-521.499 -141.217)" fill="#fac668"/>
      <path id="Path_2660" data-name="Path 2660" d="M588.721,279.076q1.533-.616,2.832-1.289l1.463-.922a3.823,3.823,0,0,0-.363-1.593c-1.635,3.563-8.6,6.239-16.935,6.239s-15.3-2.676-16.935-6.239a3.819,3.819,0,0,0-.364,1.607v1.7c0,1.636,1.1,3.155,2.993,4.412q1.6.059,3.226.06C573.758,283.052,582.311,281.64,588.721,279.076Z" transform="translate(-521.499 -249.654)" fill="#fac668"/>
      <path id="Path_2661" data-name="Path 2661" d="M426.952,220.473v-1.417c0-3.607-6.447-6.531-14.4-6.531a28.883,28.883,0,0,0-6.955.812c-2.222,1.692-3.426,3.534-3.426,5.359,0,2.941,3.128,5.928,8.611,8.257.58.032,1.17.051,1.77.051C420.5,227,426.952,224.08,426.952,220.473Z" transform="translate(-392.43 -197.823)" fill="#fac668"/>
      <path id="Path_2662" data-name="Path 2662" d="M506.87,287.052v-1.416a3.188,3.188,0,0,0-.3-1.338c-.906,1.975-3.78,3.622-7.649,4.5,2.065.459,4.243.831,6.5,1.107A3.952,3.952,0,0,0,506.87,287.052Z" transform="translate(-472.348 -257.11)" fill="#fac668"/>
      <path id="Path_2663" data-name="Path 2663" d="M419.419,133.836C411.353,130.073,400.661,128,389.31,128a89.254,89.254,0,0,0-11.133.687c-5.719.527-16.7,4.161-16.7,4.161q-1.169.472-2.277.988c-8.4,3.923-13.03,9.263-13.03,15.038v30.615a10.905,10.905,0,0,0,.522,3.316c1.425,4.485,5.741,8.564,12.508,11.722,8.066,3.762,18.759,5.836,30.109,5.836s22.043-2.073,30.109-5.836c8.4-3.923,13.031-9.263,13.031-15.038V148.874C432.45,143.1,427.823,137.758,419.419,133.836Zm10.247,45.653c0,4.632-4.056,9.077-11.425,12.516-7.7,3.6-17.979,5.575-28.931,5.575S368.083,195.6,360.379,192c-5.717-2.668-9.438-5.941-10.82-9.438a8.327,8.327,0,0,1-.6-3.077V156.376c.187.24.385.477.59.713a21.64,21.64,0,0,0,3.048,2.864,32.625,32.625,0,0,0,5.159,3.246c.471.242.952.48,1.449.712a56.551,56.551,0,0,0,10.424,3.584,76.077,76.077,0,0,0,8.369,1.542,89.048,89.048,0,0,0,11.316.71c11.35,0,22.043-2.073,30.109-5.836,4.589-2.143,8.049-4.709,10.247-7.535Zm-11.425-18.1c-7.7,3.6-17.979,5.575-28.931,5.575a87.538,87.538,0,0,1-8.9-.448q-2.226-.228-4.373-.57a69.38,69.38,0,0,1-7.354-1.566,52.039,52.039,0,0,1-8.307-2.992,26.961,26.961,0,0,1-8.365-5.693,10.058,10.058,0,0,1-3.06-6.822c0-4.632,4.057-9.077,11.425-12.516,7.7-3.6,17.979-5.575,28.931-5.575s21.227,1.98,28.931,5.575c7.368,3.439,11.425,7.883,11.425,12.516S425.61,157.95,418.242,161.389Z" transform="translate(-346.171 -128)" fill="#fac668"/>
      <path id="Path_2664" data-name="Path 2664" d="M447.469,164.175c-6.732-2.693-15.65-4.175-25.116-4.175s-18.385,1.482-25.117,4.175c-5.558,2.224-9.171,5.114-10.5,8.328a7.3,7.3,0,0,0-.569,2.8,8.953,8.953,0,0,0,3.277,6.522,25.185,25.185,0,0,0,7.787,4.611c.3.12.606.237.914.352a57.12,57.12,0,0,0,10.2,2.674q2.09.36,4.286.61.544.062,1.094.117c2.788.278,5.678.422,8.621.422q2.028,0,4.018-.091a66.287,66.287,0,0,0,21.1-4.084q1.491-.6,2.79-1.255c5.361-2.708,8.275-6.155,8.275-9.878C458.534,170.983,454.6,167.029,447.469,164.175Zm5.029,16.355h0l-1.768,1.115-1.463.922q-1.3.673-2.832,1.289c-6.41,2.564-14.963,3.976-24.083,3.976q-1.627,0-3.226-.06c-2.341-.087-4.628-.27-6.839-.541-2.262-.277-4.439-.648-6.5-1.108a49.031,49.031,0,0,1-7.514-2.268c-.239-.1-.473-.193-.7-.291-5.483-2.328-8.611-5.316-8.611-8.257,0-1.825,1.2-3.667,3.426-5.359a25.293,25.293,0,0,1,5.889-3.189c6.41-2.564,14.963-3.976,24.083-3.976s17.673,1.412,24.083,3.976c5.919,2.368,9.315,5.483,9.315,8.548C455.751,177.084,454.61,178.875,452.5,180.529Z" transform="translate(-379.213 -154.434)" fill="#fac668"/>
      <path id="Path_2665" data-name="Path 2665" d="M491.563,376a1.392,1.392,0,0,0-1.392,1.391v16.7a1.392,1.392,0,0,0,2.783,0v-16.7A1.392,1.392,0,0,0,491.563,376Z" transform="translate(-465.122 -332.861)" fill="#fac668"/>
      <path id="Path_2666" data-name="Path 2666" d="M396.683,344.623q-.683-.26-1.291-.557a1.391,1.391,0,0,0-1.221,1.38v16.7a1.388,1.388,0,0,0,.041.331,12.933,12.933,0,0,0,1.854.965,1.391,1.391,0,0,0,.888-1.3v-16.7A1.385,1.385,0,0,0,396.683,344.623Z" transform="translate(-385.822 -306.482)" fill="#fac668"/>
    </g>
  </g>
</svg>
