<svg width="19" height="18" viewBox="0 0 19 18" fill="none" xmlns="http://www.w3.org/2000/svg">
<path d="M9 18C13.9706 18 18 13.9706 18 9C18 4.02944 13.9706 0 9 0C4.02944 0 0 4.02944 0 9C0 13.9706 4.02944 18 9 18Z" fill="#F15249"/>
<path d="M5.22656 13.0599L10.0815 17.9148C14.1698 17.4322 17.4064 14.224 17.9174 10.1356L13.0341 5.25237L5.22656 13.0599Z" fill="#DB4141"/>
<path d="M13.2608 10.9874C13.6582 11.3848 13.6582 12.0662 13.2608 12.4637L12.4658 13.2587C12.0683 13.6561 11.387 13.6561 10.9895 13.2587L4.74342 7.01259C4.34594 6.61512 4.34594 5.93373 4.74342 5.53625L5.56676 4.71291C5.96424 4.31543 6.64563 4.31543 7.0431 4.71291L13.2608 10.9874Z" fill="white"/>
<path d="M9.96375 7.66562L7.66406 9.9653L10.9858 13.2587C11.3833 13.6562 12.0647 13.6562 12.4622 13.2587L13.2855 12.4353C13.683 12.0379 13.683 11.3565 13.2855 10.959L9.96375 7.66562Z" fill="#D6D6D6"/>
<path d="M10.9895 4.74138C11.387 4.3439 12.0683 4.3439 12.4658 4.74138L13.2892 5.56472C13.6866 5.9622 13.6866 6.64358 13.2892 7.04106L7.01471 13.2587C6.61724 13.6562 5.93585 13.6562 5.53837 13.2587L4.74342 12.4638C4.34594 12.0663 4.34594 11.3849 4.74342 10.9874L10.9895 4.74138Z" fill="white"/>
</svg>
