<svg xmlns="http://www.w3.org/2000/svg" width="23.551" height="15.038" viewBox="0 0 23.551 15.038">
  <g id="Group_1767" data-name="Group 1767" transform="translate(626.567 143.571)">
    <path id="Path_7991" data-name="Path 7991" d="M-477.344-131.437c.617-.631,1.228-1.269,1.854-1.891a.818.818,0,0,1,1.332.2.776.776,0,0,1-.127.946q-1.692,1.707-3.4,3.4a.8.8,0,0,1-1.175-.012q-1.667-1.658-3.324-3.325a.828.828,0,0,1-.04-1.2.826.826,0,0,1,1.217.025c.612.613,1.212,1.239,1.816,1.859l.084-.036v-.292c0-5.884,0-4.938,0-10.822a.889.889,0,0,1,.475-.892.833.833,0,0,1,1.207.729c.015.481,0,.963,0,1.445,0,5.481,0,4.133,0,9.614v.206Z" transform="translate(-128.963)" fill="#818181"/>
    <path id="Path_7992" data-name="Path 7992" d="M-619.01-141.883q-3.321,0-6.642,0a.846.846,0,0,1-.855-1.149.842.842,0,0,1,.826-.533c.963,0,1.925,0,2.888,0h10.343a1.682,1.682,0,0,1,.365.023.842.842,0,0,1,.65.895.842.842,0,0,1-.856.762c-1.33.005-2.66,0-3.99,0Z" transform="translate(0 -0.004)" fill="#818181"/>
    <path id="Path_7993" data-name="Path 7993" d="M-604.689-99.874c-1.662,0-3.324,0-4.987,0a.839.839,0,0,1-.833-1.16.831.831,0,0,1,.833-.522q1.955,0,3.911,0,3.031,0,6.063,0a.84.84,0,0,1,.833,1.159.848.848,0,0,1-.859.524C-601.382-99.876-603.036-99.874-604.689-99.874Z" transform="translate(-14.309 -37.599)" fill="#818181"/>
    <path id="Path_7994" data-name="Path 7994" d="M-590.343-57.86h-3.228a.862.862,0,0,1-.968-.838.854.854,0,0,1,.958-.845q3.281,0,6.561,0a.843.843,0,0,1,.834,1.144.847.847,0,0,1-.823.537Q-588.677-57.858-590.343-57.86Z" transform="translate(-28.662 -75.198)" fill="#818181"/>
    <path id="Path_7995" data-name="Path 7995" d="M-575.979-16.539c.533,0,1.066,0,1.6,0a.849.849,0,0,1,.9.829.846.846,0,0,1-.9.854q-1.626,0-3.252,0a.843.843,0,0,1-.9-.828.843.843,0,0,1,.9-.853C-577.08-16.543-576.529-16.539-575.979-16.539Z" transform="translate(-42.992 -113.682)" fill="#818181"/>
  </g>
</svg>
