<svg xmlns="http://www.w3.org/2000/svg" xmlns:xlink="http://www.w3.org/1999/xlink" width="100" height="100" viewBox="0 0 100 100">
  <defs>
    <clipPath id="clip-Staking">
      <rect width="100" height="100"/>
    </clipPath>
  </defs>
  <g id="Staking" clip-path="url(#clip-Staking)">
    <rect width="100" height="100" fill="rgba(255,255,255,0)"/>
    <g id="save-money-2" transform="translate(5.446 23.089)">
      <path id="Path_2687" data-name="Path 2687" d="M165.144,38.289A19.144,19.144,0,1,0,146,19.144,19.167,19.167,0,0,0,165.144,38.289Zm0,0" transform="translate(-120.59)" fill="#fac668"/>
      <path id="Path_2688" data-name="Path 2688" d="M90,191.962h15.012A24.56,24.56,0,0,1,98.325,185H90Zm0,0" transform="translate(-74.336 -152.803)" fill="#fac668"/>
      <path id="Path_2689" data-name="Path 2689" d="M335.746,191.962h15.012V185h-8.325A24.56,24.56,0,0,1,335.746,191.962Zm0,0" transform="translate(-277.313 -152.803)" fill="#fac668"/>
      <path id="Path_2690" data-name="Path 2690" d="M68.78,95a24.349,24.349,0,0,1-1.151,10.442H78.666v17.4H10.442v-17.4H21.48A24.354,24.354,0,0,1,20.329,95H0v38.289H89.109V95Zm0,0" transform="translate(0 -78.466)" fill="#fac668"/>
    </g>
  </g>
</svg>
