<svg width="24" viewBox="0 0 100 100">
  <defs>
    <clipPath id="clip-Starter">
      <rect width="100" height="100"/>
    </clipPath>
  </defs>
  <g id="Starter" clip-path="url(#clip-Starter)">
    <rect width="100" height="100" fill="rgba(255,255,255,0)"/>
    <g id="Group_614" data-name="Group 614" transform="translate(-681.533 -106.202)">
      <path id="Path_2692" data-name="Path 2692" d="M771.6,144.9a2.971,2.971,0,0,0,2.971-2.971v-5.459A2.971,2.971,0,0,0,771.6,133.5H691.471a2.971,2.971,0,0,0-2.971,2.971v5.459a2.971,2.971,0,0,0,2.971,2.971,11.16,11.16,0,0,1,0,22.319,2.971,2.971,0,0,0-2.971,2.971v6.744a2.971,2.971,0,0,0,2.971,2.971H771.6a2.971,2.971,0,0,0,2.971-2.971V170.19a2.971,2.971,0,0,0-2.971-2.971,11.16,11.16,0,1,1,0-22.319Zm-2.971,28v1.061H751.031v-1.686a1.847,1.847,0,1,0-3.693,0v1.686h-52.9V172.9a17.1,17.1,0,0,0,1.07-33.461h51.827v.883a1.847,1.847,0,1,0,3.693,0v-.883h16.524a17.1,17.1,0,0,0,1.07,33.461Z" fill="#fac668" stroke="#fac668" stroke-width="2"/>
      <path id="Path_2693" data-name="Path 2693" d="M1056.777,283.9a1.847,1.847,0,0,0-1.847,1.847v6.391a1.847,1.847,0,1,0,3.693,0v-6.391A1.847,1.847,0,0,0,1056.777,283.9Z" transform="translate(-307.592 -126.249)" fill="#fac668" stroke="#fac668" stroke-width="2"/>
      <path id="Path_2694" data-name="Path 2694" d="M1056.777,204.3a1.847,1.847,0,0,0-1.847,1.847v6.391a1.847,1.847,0,1,0,3.693,0v-6.391A1.847,1.847,0,0,0,1056.777,204.3Z" transform="translate(-307.592 -59.432)" fill="#fac668" stroke="#fac668" stroke-width="2"/>
    </g>
  </g>
</svg>
