<svg width="36" height="36" xmlns="http://www.w3.org/2000/svg" xmlns:xlink="http://www.w3.org/1999/xlink" xmlns:svgjs="http://svgjs.com/svgjs" viewBox="693 330 36 36"><svg width="28" height="21" xmlns="http://www.w3.org/2000/svg" xmlns:xlink="http://www.w3.org/1999/xlink" xmlns:svgjs="http://svgjs.com/svgjs" viewBox="0 0.089 28 20.822" fill="#38f2bc" x="701" y="334"><svg xmlns="http://www.w3.org/2000/svg" xmlns:xlink="http://www.w3.org/1999/xlink" width="28" height="21" viewBox="0.548 0.523 26.819 19.944"><path paint-order="stroke fill markers" fill-rule="evenodd" d="M26.97.921A1.356 1.356 0 0 0 25.053.92L8.775 17.153l-5.872-6.378a1.357 1.357 0 0 0-1.997 1.838l6.83 7.417a1.355 1.355 0 0 0 1.955.042L26.968 2.84c.53-.529.532-1.388.003-1.919z"/></svg></svg><svg width="36" height="36" xmlns="http://www.w3.org/2000/svg" xmlns:xlink="http://www.w3.org/1999/xlink" xmlns:svgjs="http://svgjs.com/svgjs" fill="#38f2bc" x="693" y="330"><svg xmlns="http://www.w3.org/2000/svg" width="36" height="36"><path paint-order="stroke fill markers" fill-rule="evenodd" d="M34.643 16.643c-.75 0-1.357.608-1.357 1.357 0 8.43-6.857 15.286-15.286 15.286C9.57 33.286 2.713 26.43 2.713 18 2.713 9.57 9.571 2.714 18 2.714A1.357 1.357 0 1 0 18 0C8.075 0 0 8.075 0 18s8.075 18 18 18 18-8.075 18-18c0-.75-.607-1.357-1.357-1.357z"/></svg></svg></svg>