<svg xmlns="http://www.w3.org/2000/svg" xmlns:xlink="http://www.w3.org/1999/xlink" width="100" height="100" viewBox="0 0 100 100">
  <defs>
    <clipPath id="clip-Trade">
      <rect width="100" height="100"/>
    </clipPath>
  </defs>
  <g id="Trade" clip-path="url(#clip-Trade)">
    <rect width="100" height="100" fill="rgba(255,255,255,0)"/>
    <g id="transfer" transform="translate(13 13)">
      <g id="Group_611" data-name="Group 611">
        <path id="Path_2679" data-name="Path 2679" d="M60.9,0H13.238A13.254,13.254,0,0,0,0,13.238V60.9A13.254,13.254,0,0,0,13.238,74.134H60.9A13.254,13.254,0,0,0,74.134,60.9V13.238A13.254,13.254,0,0,0,60.9,0Zm4.66,33.5a2.639,2.639,0,0,1-.289.289L46.734,49.67a2.648,2.648,0,0,1-4.371-2.012V39.715H26.477a2.648,2.648,0,0,1-2.648-2.648v-4.2l-9.494,9.492,9.494,9.494v-4.2a2.648,2.648,0,0,1,2.648-2.648h7.943a2.648,2.648,0,1,1,0,5.3h-5.3v7.943a2.648,2.648,0,0,1-1.634,2.446,2.615,2.615,0,0,1-1.014.2,2.648,2.648,0,0,1-1.872-.773L8.719,44.237a2.648,2.648,0,0,1,0-3.744l0,0L24.6,24.6a2.648,2.648,0,0,1,4.52,1.872V34.42H45.01a2.648,2.648,0,0,1,2.648,2.648V41.9L59.474,31.772,47.658,21.645v4.832a2.648,2.648,0,0,1-2.648,2.648H37.067a2.648,2.648,0,0,1,0-5.3h5.3V15.886a2.648,2.648,0,0,1,4.371-2.009L65.267,29.762A2.648,2.648,0,0,1,65.556,33.5Z" fill="#fac668"/>
      </g>
    </g>
  </g>
</svg>
