<svg
  width="24"
  height="24"
  viewBox="0 0 24 24"
  fill="none"
  xmlns="http://www.w3.org/2000/svg"
>
  <path
    d="M22.2645 0H1.73378C0.777145 0 0.000488281 0.775713 0.000488281 1.73357V22.2664C0.000488281 23.2232 0.776073 24 1.73378 24H22.2645C23.2211 24 23.9978 23.2243 23.9978 22.2664V1.7325C23.9978 0.775713 23.2211 0 22.2645 0Z"
    fill="#121316"
  />
  <path
    d="M10.4655 18.2096C10.4489 18.1876 10.5921 18.373 10.7316 18.5491C9.68183 19.8576 6.9676 19.9384 5.76922 18.8538C4.35981 17.5783 4.02397 15.4587 5.12875 13.8786C5.98578 12.6527 7.54568 12.0324 8.30728 12.4967C8.76791 12.315 9.13678 12.1297 9.52767 12.0251C11.0857 11.6066 12.7154 11.3552 13.9303 10.1458C15.0864 8.99335 15.1415 7.35453 14.0844 6.20754C13.0586 5.09359 11.2087 5.04771 10.0305 6.11211C9.89838 6.2314 9.80846 6.3984 9.66531 6.58559C9.41389 6.36537 9.23955 6.21305 9.03034 6.03137C9.88737 4.82932 11.038 4.35218 12.4511 4.49532C13.7981 4.63112 14.534 5.45879 15.18 6.62596C16.0462 8.19137 15.615 9.40626 14.7451 10.7423C13.699 12.3499 13.0127 14.1135 13.0934 16.09C13.1577 17.6646 14.0973 18.5161 15.626 18.8611C16.995 19.1694 17.652 18.3583 18.265 17.5159C18.9495 16.5763 18.8944 15.4899 18.2778 14.4952C18.0135 14.0695 17.7438 13.7189 18.3567 13.3868C19.8304 14.5356 20.0121 16.8094 18.7476 18.3528C17.4318 19.9586 15.0497 20.199 13.5229 18.8171C13.0879 18.4225 12.7356 17.8811 12.497 17.3397C11.8969 15.9762 11.1977 14.7044 9.94059 13.8327C8.3293 12.7169 6.34731 13.139 5.33796 14.8054C4.51029 16.1744 6.03349 18.7326 7.80995 18.7804C8.63578 18.7987 9.47445 18.4335 10.4655 18.2096ZM10.4471 12.7261C11.0197 13.3923 11.5611 14.0217 12.2217 14.7925C12.4676 13.7795 12.6658 12.9739 12.8971 12.0232C11.9409 12.2985 11.1683 12.5206 10.4471 12.7261Z"
    fill="#467CB0"
  />
  <path
    d="M12.007 6.71584C12.7595 6.71767 13.4587 7.43523 13.4476 8.19316C13.4366 8.92356 12.7833 9.58055 12.0456 9.60441C11.2748 9.62827 10.5462 8.92356 10.5738 8.18214C10.5994 7.39118 11.2656 6.71216 12.007 6.71584Z"
    fill="#467CB0"
  />
  <path
    d="M16.6484 14.8237C16.5254 15.11 16.4226 15.3431 16.2244 15.8037C16.5805 15.4734 16.7493 15.3174 17.1439 14.9504C17.1806 15.6018 17.309 16.0661 17.2081 16.4717C17.0136 17.2462 16.1162 17.6297 15.3894 17.3453C14.6278 17.048 14.2571 16.2185 14.5544 15.4862C14.8939 14.6475 15.5986 14.4035 16.6484 14.8237Z"
    fill="#467CB0"
  />
  <path
    d="M6.71997 16.2969C6.71997 15.2105 7.38981 14.5957 8.26336 14.5773C8.8653 14.5645 9.559 15.2086 9.57001 15.8656C9.57368 16.0987 9.44154 16.3923 9.27271 16.5593C8.96807 16.8621 8.61388 17.1448 8.23032 17.3319C8.03763 17.4255 7.65041 17.3815 7.49625 17.2402C7.14206 16.9172 6.87596 16.4951 6.71997 16.2969Z"
    fill="#467CB0"
  />
  <path
    d="M9.86927 10.1164C9.65639 10.2779 9.47104 10.421 9.28936 10.5587C8.18091 9.38968 7.99739 7.91052 8.89296 6.33594C9.06913 6.72867 9.34074 7.03514 9.28201 7.25353C8.99573 8.30692 9.24898 9.22635 9.86927 10.1164Z"
    fill="#467CB0"
  />
  <path
    d="M17.867 12.9392C17.0136 14.0807 16.0483 12.5153 15.25 13.3999C15.3803 12.0528 16.1951 11.9537 17.867 12.9392Z"
    fill="#467CB0"
  />
</svg>
