<svg
  width="24"
  height="24"
  viewBox="0 0 24 24"
  fill="none"
  xmlns="http://www.w3.org/2000/svg"
>
  <path
    d="M22.2664 0.000753403H1.73357C0.775714 0.000753403 0 0.776443 0 1.73427V22.2665C0 23.2243 0.775714 24 1.73357 24H22.2675C23.2243 24 24 23.2243 24 22.2665V1.7332C24 0.776443 23.2243 0.000753403 22.2664 0.000753403Z"
    fill="#121316"
  />
  <path
    d="M14.7121 12.875C14.9585 13.7396 15.641 13.4525 16.1435 13.4257C16.7403 13.3935 16.3899 12.8503 16.4853 12.5429C16.4939 12.5171 16.4864 12.4861 16.4864 12.4571C16.4907 10.3261 16.4907 10.3658 14.3639 10.4119C13.7489 10.4258 13.6482 11.0043 13.0985 11.1908C13.2785 10.1429 13.5528 9.17654 13.4949 8.15442C13.4607 7.54802 13.2989 7.35302 12.7128 7.41088C12.0089 7.48052 11.0896 7.12374 10.6503 7.5448C10.2035 7.97336 10.4949 8.90119 10.5292 9.60188C10.5624 10.2833 10.3524 10.4922 9.67316 10.4536C8.97138 10.414 8.03923 10.1333 7.61281 10.5586C7.14673 11.0236 7.53138 11.9654 7.45209 12.6929C7.38781 13.2811 7.58173 13.4771 8.19566 13.4685C8.95102 13.4568 9.96459 13.1043 10.3985 13.6346C10.766 14.0857 10.5335 15.0574 10.4982 15.7956C10.4735 16.3131 10.6053 16.5081 11.1528 16.461C11.8857 16.3977 12.8424 16.6892 13.3042 16.3238C13.7971 15.9338 13.4607 14.9364 13.4532 14.2089C13.4467 13.6496 13.5442 13.3282 14.1796 13.4503C14.6253 13.536 14.7164 13.2853 14.7121 12.875ZM8.8578 12.0832C8.82245 11.7093 9.04959 11.6129 9.32066 11.6C9.66566 11.584 9.98495 11.7682 10.0021 12.0843C10.0224 12.4689 9.6153 12.6511 9.30995 12.7004C8.8503 12.7743 9.02923 12.2622 8.8578 12.0832ZM12.3185 13.9217C12.6432 14.3482 12.7385 14.6706 12.3346 14.9674C12.1899 15.0735 11.9446 15.1785 11.8867 15.021C11.7292 14.5967 12.0753 14.3214 12.3185 13.9217Z"
    fill="#40BA7F"
  />
  <path
    d="M19.0913 8.1228C19.2285 6.99569 19.3431 5.95429 19.4867 4.91718C19.5467 4.48541 19.3978 4.37291 18.9842 4.4297C17.9513 4.57219 16.9153 4.6879 15.8813 4.81433C15.8878 4.9129 15.8706 4.98575 15.8985 5.01682C16.6742 5.89965 16.6721 5.89644 15.8417 6.75677C15.6681 6.93676 15.3971 7.07069 15.3906 7.34818C15.3821 7.70495 15.1999 8.21494 15.4988 8.38422C15.8921 8.60707 16.4267 8.60064 16.8756 8.34029C16.971 8.28565 17.0385 8.18387 17.1199 8.10351C18.0156 7.22604 18.0156 7.22604 19.0913 8.1228Z"
    fill="#40BA7F"
  />
  <path
    d="M8.19795 19.0776C8.06188 18.9104 8.02223 18.8279 7.95581 18.784C7.16509 18.2547 7.29688 17.763 7.97831 17.2412C8.19366 17.0773 8.49473 16.9037 8.50866 16.6069C8.52688 16.2298 8.74009 15.6877 8.38545 15.5055C8.02866 15.3234 7.50581 15.3459 7.07509 15.5505C7.00223 15.5848 6.95295 15.6673 6.88973 15.7241C5.88688 16.6101 5.88688 16.6101 4.87116 15.8205C4.74581 16.4355 4.72652 17.0216 4.70616 17.6247C4.69331 18.0115 4.55723 18.4604 4.45438 18.8772C4.34295 19.3261 4.39973 19.5736 4.97402 19.4836C6.00152 19.324 7.03973 19.2201 8.19795 19.0776Z"
    fill="#40BA7F"
  />
  <path
    d="M19.0947 15.8241C18.59 15.9602 18.4357 16.693 17.9986 16.572C17.6118 16.4648 17.3375 15.9741 16.9979 15.6709C16.5307 15.2542 15.8204 15.2734 15.5118 15.5616C15.1871 15.8659 15.1968 16.5613 15.6918 16.9973C15.8836 17.1666 16.0379 17.3809 16.2372 17.5394C16.6325 17.8555 16.7118 18.1544 16.2671 18.4898C15.7582 18.8744 16.1247 19.1037 16.4632 19.1326C17.0589 19.183 17.6793 19.588 18.2675 19.1037C18.4754 18.9323 18.5396 19.0683 18.6286 19.243C18.7914 19.5633 19.1311 19.5601 19.3764 19.4733C19.6422 19.379 19.4825 19.0694 19.4611 18.8669C19.3561 17.8576 19.2211 16.8516 19.0947 15.8241Z"
    fill="#40BA7F"
  />
  <path
    d="M8.13347 4.79613C7.51311 4.81863 6.98704 4.49828 6.47168 4.88613C6.26918 5.03827 6.10204 4.87541 5.95847 4.72649C5.61883 4.37614 5.1624 4.48543 4.75097 4.42221C4.40168 4.36864 4.3899 4.57542 4.42633 4.83684C4.57097 5.89967 4.70918 6.96249 4.84954 8.01996C4.92775 8.02639 4.99954 8.05317 5.02418 8.03067C5.88561 7.20998 5.91775 7.17891 6.7674 8.08853C7.22061 8.57387 7.78847 8.62315 8.24597 8.44637C8.8449 8.21602 8.48811 7.59461 8.45061 7.13391C8.44311 7.04499 8.30383 6.96785 8.22775 6.88321C7.33311 5.9061 7.33311 5.9061 8.13347 4.79613ZM4.85704 7.06749C4.88168 6.49429 4.90954 6.03466 5.37668 5.80324C5.51275 5.73574 5.5899 5.93395 5.62954 6.07216C5.80418 6.69464 5.29311 6.80607 4.85704 7.06749Z"
    fill="#40BA7F"
  />
</svg>
