<svg
  width="24"
  height="24"
  viewBox="0 0 24 24"
  fill="none"
  xmlns="http://www.w3.org/2000/svg"
>
  <path
    d="M22.2634 0H1.73379C0.777151 0 0.000488281 0.775713 0.000488281 1.73357V22.2664C0.000488281 23.2243 0.77608 24 1.73379 24H22.2645C23.2211 24 23.9978 23.2243 23.9978 22.2664V1.7325C23.9967 0.775713 23.2211 0 22.2634 0Z"
    fill="#121316"
  />
  <path
    d="M12.1409 7.19531C12.776 9.20947 13.3413 10.9972 13.9249 12.8456C14.7792 12.448 15.5451 12.0908 16.5411 11.6268C16.0219 12.6542 15.604 13.4771 15.1032 14.4677C15.7292 14.3756 16.2152 14.3038 16.7013 14.232C16.7363 14.2799 16.7712 14.3277 16.8081 14.3774C15.2781 15.8301 13.75 17.2845 12.1427 18.8126C10.5704 17.3232 9.02757 15.865 7.48657 14.4051C7.51051 14.3498 7.53444 14.2927 7.55653 14.2375C8.04443 14.3093 8.53048 14.3811 9.18038 14.4769C8.69065 13.5195 8.25983 12.6763 7.72223 11.625C8.72011 12.0871 9.48232 12.4424 10.3421 12.8401C10.9276 10.999 11.4983 9.20947 12.1409 7.19531ZM14.63 15.031C12.7429 15.4876 12.8055 13.9503 12.1538 13.1568C11.4339 13.9024 11.5591 15.5429 9.66275 15.0494C10.6109 16.0823 11.3455 16.8832 12.1353 17.743C12.9215 16.8887 13.6561 16.0878 14.63 15.031Z"
    fill="#F4A013"
  />
  <path
    d="M19.745 12.6377C19.4486 12.6966 19.1337 12.7592 18.7397 12.8365C18.5538 11.7521 17.6185 10.8187 18.4912 9.64774C18.1966 9.77294 17.902 9.89813 17.567 10.0399C16.5157 8.66459 15.1533 7.84162 13.535 7.27641C13.0415 7.10334 12.8409 6.09258 12.4524 5.36719C16.396 5.41137 19.8113 8.89841 19.745 12.6377Z"
    fill="#F4A013"
  />
  <path
    d="M6.67184 10.003C6.37358 9.89067 6.07348 9.77652 5.77522 9.66421C6.66079 10.7836 5.72551 11.7078 5.57638 12.6836C4.50118 12.7978 4.38519 12.6947 4.5601 11.7115C4.94304 9.55374 6.0385 7.83048 7.85198 6.60615C8.21652 6.36128 8.73755 6.35023 9.39482 6.17717C9.58629 5.57697 10.0245 5.36341 11.6428 5.36525C11.4219 6.41835 11.2304 7.26158 9.91033 7.68319C8.69336 8.07166 7.67155 9.06954 6.56321 9.79861C6.60003 9.86489 6.63501 9.93485 6.67184 10.003Z"
    fill="#F4A013"
  />
  <path
    d="M4.89096 12.9766C5.07691 13.5307 5.27943 14.0812 5.44513 14.6409C5.81703 15.9058 6.17053 17.1779 6.47983 18.2624C5.24445 16.946 4.47303 15.1914 4.47119 13.1146C4.61111 13.0686 4.75104 13.0226 4.89096 12.9766Z"
    fill="#F4A013"
  />
  <path
    d="M19.8203 13.1459C19.767 15.022 19.1631 16.6827 17.7786 18.0341C17.9111 17.745 18.086 17.467 18.1707 17.1632C18.4137 16.2795 18.5942 15.3792 18.8538 14.4992C19.0066 13.9763 19.2606 13.4829 19.4705 12.9766C19.5865 13.0336 19.7044 13.0907 19.8203 13.1459Z"
    fill="#F4A013"
  />
</svg>
