<svg
  width="25"
  height="24"
  viewBox="0 0 25 24"
  fill="none"
  xmlns="http://www.w3.org/2000/svg"
>
  <path
    d="M22.2686 0H1.73374C0.77686 0 0 0.775713 0 1.73357V22.2664C0 23.2232 0.775788 24 1.73374 24H22.2696C23.2265 24 24.0034 23.2243 24.0034 22.2664V1.7325C24.0023 0.775713 23.2265 0 22.2686 0Z"
    fill="#121316"
  />
  <path
    d="M14.9954 11.302C15.0491 12.7136 14.5964 13.8443 13.2258 14.7728C12.8018 14.1806 12.3383 13.5348 11.9536 12.998C11.0089 13.9015 10.2842 14.5975 9.37349 15.4688C10.0534 15.9966 10.7333 16.5244 11.6012 17.1989C10.7566 17.9217 10.1071 18.4781 9.43611 19.0524C9.79397 19.4711 10.0552 19.7752 10.3504 20.1187C8.95122 19.9631 8.67567 19.6732 8.67209 18.4083C8.6703 17.3653 8.68282 16.3222 8.66672 15.2792C8.66135 14.9893 8.56294 14.7031 8.52894 14.4114C8.47169 13.9337 8.43232 13.4543 8.39296 13.0553C8.08341 12.7332 7.69514 12.3951 7.39632 11.9925C7.16909 11.6884 7.06173 11.2984 6.88996 10.9513C6.22076 9.59513 6.86312 8.57176 8.3858 8.57176C9.13015 8.57176 9.87628 8.54492 10.6188 8.58786C10.8675 8.60217 11.1073 8.79182 11.3524 8.90096C11.1681 9.06377 11.0089 9.28562 10.796 9.37507C10.2216 9.6166 9.60967 9.77583 9.03889 10.0227C8.82776 10.114 8.68461 10.3609 8.51105 10.538C8.71324 10.7151 8.88859 10.9513 9.12299 11.0551C9.41643 11.1857 9.75282 11.234 10.0767 11.2715C11.2844 11.4093 12.2793 11.8709 12.9664 12.9372C13.1131 13.1644 13.4924 13.2414 13.7644 13.3881C13.8628 13.143 13.9272 12.8764 14.065 12.6545C14.3549 12.1894 14.6841 11.751 14.9954 11.302Z"
    fill="#B73641"
  />
  <path
    d="M11.5024 19.7148C11.413 19.6218 11.1965 19.3946 10.8994 19.0815C11.5865 18.4875 12.2325 17.9293 13.0072 17.2602C12.1913 16.5839 11.5329 16.0364 10.8171 15.4424C11.1732 15.0453 11.3808 14.8145 11.5812 14.5908C12.4436 15.5033 13.2846 16.3925 14.1703 17.3264C13.374 18.0402 12.4543 18.8614 11.5024 19.7148Z"
    fill="#B73641"
  />
  <path
    d="M14.1831 15.3816C14.6036 14.9701 14.8129 14.768 14.9489 14.6338C15.8937 15.5266 16.7812 16.3657 17.6114 17.1529C16.7865 18.0027 15.9277 18.8865 15.0312 19.8097C14.8308 19.6326 14.5964 19.425 14.2636 19.128C15.008 18.4768 15.6503 17.915 16.4143 17.2477C15.6092 16.575 14.9525 16.0257 14.1831 15.3816Z"
    fill="#B73641"
  />
  <path
    d="M11.0801 10.3754C11.3449 10.2662 11.6294 10.1875 11.8709 10.0372C12.0517 9.92451 12.2109 9.74023 12.3201 9.55237C12.6636 8.95838 12.9481 8.32861 13.3238 7.7561C13.4115 7.6237 13.7676 7.66843 14.0002 7.63086C13.9948 7.86344 14.0807 8.1658 13.9662 8.31788C13.4348 9.03532 12.8962 9.75991 12.2592 10.3789C12.0266 10.6062 11.5149 10.5453 11.132 10.6169C11.1159 10.5364 11.098 10.4559 11.0801 10.3754Z"
    fill="#B73641"
  />
  <path
    d="M13.3833 11.819C13.1382 11.6061 12.9664 11.4558 12.7356 11.2554C13.2563 10.6114 13.7287 9.96908 14.2708 9.39298C14.4086 9.24627 14.7664 9.30531 15.0241 9.26953C14.9955 9.50033 15.0474 9.79195 14.9257 9.95476C14.464 10.5702 13.9469 11.1445 13.3833 11.819Z"
    fill="#B73641"
  />
  <path
    d="M8.13501 7.55421C8.56623 6.97633 8.92945 6.48969 9.3392 5.94043C9.73821 6.16049 10.0925 6.35729 10.4718 6.56662C10.0835 7.69555 9.24974 7.74386 8.13501 7.55421Z"
    fill="#B73641"
  />
  <path
    d="M10.9299 7.63445C11.2252 7.22116 11.3683 6.92775 11.5938 6.73095C11.8371 6.51983 12.1484 6.36418 12.458 6.27114C12.526 6.25146 12.8498 6.69516 12.8069 6.76315C12.5993 7.08519 12.3488 7.43049 12.025 7.60761C11.7781 7.7418 11.4023 7.63445 10.9299 7.63445Z"
    fill="#B73641"
  />
  <path
    d="M10.7168 6.4196C10.3232 6.15302 10.0118 5.9419 9.62891 5.68248C10.0458 5.20479 10.4287 4.69489 11.0281 5.14217C11.6848 5.63418 11.0407 5.97948 10.7168 6.4196Z"
    fill="#B73641"
  />
</svg>
