<svg
  width="24"
  height="24"
  viewBox="0 0 24 24"
  fill="none"
  xmlns="http://www.w3.org/2000/svg"
>
  <g filter="url(#filter0_vitality_bi)">
    <path
      d="M1.73379 24L22.2645 24C23.2211 24 23.9978 23.2243 23.9978 22.2664L23.9978 1.73357C23.9978 0.776786 23.2222 -6.78156e-08 22.2645 -1.51554e-07L1.7338 -1.94669e-06C0.777163 -2.03033e-06 0.000499658 0.775712 0.000499574 1.73357L0.000497779 22.2675C0.00156963 23.2243 0.77716 24 1.73379 24Z"
      fill="#121316"
    />
  </g>
  <path
    d="M18.3372 7.06649C16.8139 5.42225 14.8305 5.36333 13.2791 6.96548C12.8975 7.3583 12.6675 7.89983 12.1513 8.71634C11.4471 7.7876 11.1497 7.30218 10.7598 6.90375C9.59835 5.70565 7.43536 5.48398 6.38894 6.42114C6.23745 6.55863 6.09437 6.72418 5.95971 6.90936C6.05509 6.91217 6.14206 6.929 6.2122 6.97109C6.91636 7.39478 8.21247 7.51262 7.60649 9.11197C6.85745 8.70231 6.17573 8.34035 5.50523 7.95876C5.47718 7.94192 5.44912 7.92509 5.42387 7.90825C4.85718 9.31118 4.76179 11.0929 5.46876 11.8477C7.57563 14.0896 9.78631 16.2333 12.0671 18.5285C13.9916 16.5784 15.8544 14.7181 17.678 12.8382C16.9121 12.5744 16.5221 11.9796 17.0608 10.7057C17.5125 11.1602 17.9669 11.6176 18.4186 12.0722C18.4607 12.0273 18.5056 11.9824 18.5477 11.9375C19.2658 11.1911 19.0554 7.84091 18.3372 7.06649ZM13.7139 12.8438C13.2959 12.8438 12.934 12.8438 12.53 12.8438C12.53 13.2478 12.53 13.6098 12.53 14.0054C12.1092 14.0054 11.7557 14.0054 11.3573 14.0054C11.3573 13.6322 11.3573 13.2703 11.3573 12.8662C10.9506 12.8662 10.5915 12.8662 10.2043 12.8662C10.2043 12.4622 10.2043 12.1002 10.2043 11.6906C10.5662 11.6906 10.9253 11.6906 11.3321 11.6906C11.3321 11.2837 11.3321 10.9218 11.3321 10.5345C11.7389 10.5345 12.098 10.5345 12.5076 10.5345C12.5076 10.8965 12.5076 11.2556 12.5076 11.6008C13.2454 11.9178 13.3744 11.2444 13.7616 10.9638C13.6438 11.1715 13.5231 11.3763 13.4053 11.5839C13.9552 11.8982 13.5568 12.3976 13.7139 12.8438Z"
    fill="#FFFDFD"
  />
  <defs>
    <filter
      id="filter0_vitality_bi"
      x="-3.99951"
      y="-4"
      width="31.9973"
      height="32"
      filterUnits="userSpaceOnUse"
      color-interpolation-filters="sRGB"
    >
      <feFlood flood-opacity="0" result="BackgroundImageFix" />
      <feGaussianBlur in="BackgroundImage" stdDeviation="2" />
      <feComposite
        in2="SourceAlpha"
        operator="in"
        result="effect1_backgroundBlur"
      />
      <feBlend
        mode="normal"
        in="SourceGraphic"
        in2="effect1_backgroundBlur"
        result="shape"
      />
      <feColorMatrix
        in="SourceAlpha"
        type="matrix"
        values="0 0 0 0 0 0 0 0 0 0 0 0 0 0 0 0 0 0 127 0"
        result="hardAlpha"
      />
      <feOffset dy="4" />
      <feGaussianBlur stdDeviation="2" />
      <feComposite in2="hardAlpha" operator="arithmetic" k2="-1" k3="1" />
      <feColorMatrix
        type="matrix"
        values="0 0 0 0 0 0 0 0 0 0 0 0 0 0 0 0 0 0 0.25 0"
      />
      <feBlend mode="normal" in2="shape" result="effect2_innerShadow" />
    </filter>
  </defs>
</svg>
