<svg
  width="24"
  height="24"
  viewBox="0 0 24 24"
  fill="none"
  xmlns="http://www.w3.org/2000/svg"
>
  <g clip-path="url(#clip0_about)">
    <path
      d="M17.7501 7.66999C17.7201 7.66999 17.6901 7.66999 17.6501 7.65999C17.6101 7.65999 17.5701 7.66999 17.5301 7.66999C16.6401 7.63999 15.8101 7.25999 15.2101 6.60999C14.6001 5.95999 14.2901 5.10999 14.3201 4.21999C14.3501 3.32999 14.7301 2.49999 15.3801 1.89999C16.0301 1.29999 16.8801 0.979991 17.7701 1.00999C19.6101 1.06999 21.0501 2.61999 20.9801 4.46999C20.9201 6.20999 19.5001 7.61999 17.7701 7.67999C17.7701 7.66999 17.7601 7.66999 17.7501 7.66999ZM17.6601 2.49999C17.1901 2.49999 16.7501 2.66999 16.4101 2.98999C16.0501 3.31999 15.8401 3.77999 15.8301 4.26999C15.8101 4.75999 15.9901 5.22999 16.3201 5.58999C16.6401 5.93999 17.0701 6.13999 17.5401 6.16999C17.6201 6.15999 17.7001 6.15999 17.7801 6.16999C18.7101 6.10999 19.4601 5.33999 19.5001 4.39999C19.5201 3.90999 19.3401 3.43999 19.0101 3.07999C18.6801 2.71999 18.2201 2.50999 17.7301 2.49999C17.7001 2.49999 17.6801 2.49999 17.6601 2.49999Z"
      fill="currentColor"
    />
    <path
      d="M17.7501 15.05C17.3601 15.05 16.9701 15.01 16.5901 14.94C16.1801 14.87 15.9101 14.47 15.9901 14.07C16.0601 13.66 16.4601 13.39 16.8601 13.47C18.0301 13.69 19.2501 13.46 20.2801 12.84C20.6101 12.67 20.8201 12.43 20.9101 12.14C21.0101 11.85 20.9901 11.53 20.8501 11.26C20.7301 11.03 20.5501 10.85 20.3201 10.73C19.2401 10.08 18.0201 9.86 16.8301 10.09C16.4301 10.17 16.0301 9.9 15.9501 9.49C15.8701 9.08 16.1401 8.69 16.5501 8.61C18.1001 8.32 19.7001 8.6 21.0501 9.42C21.5201 9.66 21.9301 10.07 22.1901 10.58C22.5101 11.22 22.5601 11.94 22.3301 12.62C22.1001 13.29 21.6301 13.84 21.0001 14.15C20.0301 14.74 18.9001 15.05 17.7501 15.05Z"
      fill="currentColor"
    />
    <path
      d="M5.91002 7.67001C5.87002 7.67001 5.83002 7.67001 5.78002 7.66001C5.73002 7.67001 5.74002 7.67001 5.69002 7.67001C3.96002 7.61001 2.54002 6.20001 2.48002 4.46001C2.45002 3.57 2.76002 2.72001 3.37002 2.06001C3.98002 1.41001 4.80002 1.03001 5.69002 1.00001C6.57002 0.970005 7.43002 1.28001 8.08002 1.89001C8.74002 2.50001 9.12002 3.32 9.15002 4.22001C9.21002 6.06001 7.77002 7.61 5.94002 7.68001C5.93002 7.67 5.92002 7.67001 5.91002 7.67001ZM5.82002 6.16001C5.86002 6.16001 5.90002 6.16001 5.94002 6.17001C6.92002 6.11001 7.69002 5.26 7.65002 4.27C7.63002 3.78 7.43002 3.32001 7.07002 2.99001C6.71002 2.66001 6.25002 2.48001 5.75002 2.50001C4.74002 2.54001 3.95002 3.39001 3.98002 4.40001C4.01002 5.34 4.76002 6.10001 5.69002 6.16001C5.73002 6.17001 5.77002 6.16001 5.82002 6.16001Z"
      fill="currentColor"
    />
    <path
      d="M5.72996 15.04C4.56996 15.04 3.42996 14.73 2.41996 14.12C1.83996 13.83 1.35996 13.29 1.13996 12.61C0.909956 11.93 0.959956 11.21 1.27996 10.58C1.54996 10.06 1.95996 9.64999 2.46996 9.38999C3.78996 8.59999 5.37996 8.31999 6.91996 8.60999C7.32996 8.68999 7.58996 9.07999 7.51996 9.48999C7.43996 9.89999 7.04996 10.16 6.63996 10.09C5.45996 9.86999 4.23996 10.09 3.18996 10.71C2.91996 10.85 2.72996 11.04 2.60996 11.27C2.47996 11.54 2.45996 11.85 2.54996 12.14C2.64996 12.43 2.85996 12.67 3.12996 12.81C4.20996 13.46 5.41996 13.68 6.59996 13.46C7.00996 13.38 7.39996 13.65 7.46996 14.06C7.53996 14.47 7.27996 14.86 6.86996 14.93C6.49996 15.01 6.11996 15.04 5.72996 15.04Z"
      fill="currentColor"
    />
    <path
      d="M11.56 15.14C11.55 15.14 11.54 15.14 11.53 15.14C10.64 15.11 9.81005 14.73 9.21005 14.08C8.61005 13.43 8.29005 12.58 8.32005 11.69C8.38005 9.84999 9.90005 8.38999 11.78 8.47999C13.62 8.53999 15.06 10.09 14.99 11.94C14.93 13.68 13.51 15.09 11.78 15.15C11.74 15.15 11.7 15.15 11.66 15.15C11.62 15.14 11.59 15.14 11.56 15.14ZM11.66 9.96999C10.67 9.96999 9.86005 10.75 9.82005 11.74C9.80005 12.23 9.98005 12.7 10.31 13.06C10.63 13.41 11.06 13.61 11.54 13.64C11.62 13.63 11.7 13.63 11.78 13.64C12.71 13.58 13.46 12.81 13.5 11.87C13.54 10.86 12.74 9.99999 11.73 9.96999C11.7 9.96999 11.68 9.96999 11.66 9.96999Z"
      fill="currentColor"
    />
    <path
      d="M11.76 22.52C10.62 22.52 9.46998 22.22 8.44998 21.61C7.97998 21.37 7.56998 20.96 7.30998 20.45C6.98998 19.81 6.93998 19.09 7.16998 18.41C7.38998 17.74 7.85998 17.2 8.47998 16.89C10.51 15.71 13.02 15.71 15.04 16.9C15.51 17.14 15.92 17.55 16.19 18.06C16.51 18.7 16.56 19.42 16.33 20.1C16.1 20.77 15.63 21.32 15 21.64C14.01 22.22 12.89 22.52 11.76 22.52ZM11.74 17.5C10.87 17.5 9.99998 17.73 9.21999 18.19C9.19999 18.2 9.18998 18.21 9.16998 18.21C8.88998 18.35 8.68999 18.59 8.58999 18.88C8.48998 19.17 8.50998 19.49 8.64998 19.76C8.75998 19.98 8.94999 20.17 9.17999 20.29C10.78 21.24 12.71 21.24 14.27 20.31C14.6 20.14 14.8 19.91 14.9 19.61C15 19.32 14.98 19 14.84 18.73C14.72 18.51 14.54 18.32 14.31 18.2C13.51 17.74 12.62 17.5 11.74 17.5Z"
      fill="currentColor"
    />
  </g>
  <defs>
    <clipPath id="clip0_about">
      <rect
        width="21.47"
        height="21.52"
        fill="currentColor"
        transform="translate(1 1)"
      />
    </clipPath>
  </defs>
</svg>
