<svg
  width="24"
  height="24"
  viewBox="0 0 24 24"
  fill="none"
  xmlns="http://www.w3.org/2000/svg"
>
  <path
    d="M9.57012 18.819C9.4716 18.8194 9.37399 18.8001 9.28299 18.7623C9.19199 18.7246 9.10943 18.669 9.04012 18.599L2.97112 12.529C2.83164 12.3879 2.75342 12.1975 2.75342 11.999C2.75342 11.8006 2.83164 11.6102 2.97112 11.469L9.04012 5.40002C9.18229 5.26754 9.37034 5.19542 9.56464 5.19885C9.75894 5.20228 9.94433 5.28099 10.0817 5.4184C10.2192 5.55581 10.2979 5.7412 10.3013 5.9355C10.3047 6.1298 10.2326 6.31785 10.1001 6.46002L4.56012 12L10.1001 17.54C10.2396 17.6812 10.3178 17.8716 10.3178 18.07C10.3178 18.2685 10.2396 18.4589 10.1001 18.6C10.0313 18.6706 9.94882 18.7265 9.85769 18.7642C9.76656 18.8018 9.66871 18.8205 9.57012 18.819Z"
    fill="currentColor"
  />
  <path
    d="M20.4999 12.75H3.66992C3.47141 12.7487 3.28141 12.6693 3.14104 12.5289C3.00067 12.3885 2.92123 12.1985 2.91992 12C2.92123 11.8015 3.00067 11.6115 3.14104 11.4711C3.28141 11.3307 3.47141 11.2513 3.66992 11.25H20.4999C20.6984 11.2513 20.8884 11.3307 21.0288 11.4711C21.1692 11.6115 21.2486 11.8015 21.2499 12C21.2486 12.1985 21.1692 12.3885 21.0288 12.5289C20.8884 12.6693 20.6984 12.7487 20.4999 12.75Z"
    fill="currentColor"
  />
</svg>
