<svg
  width="32"
  height="32"
  viewBox="0 0 32 32"
  fill="none"
  xmlns="http://www.w3.org/2000/svg"
>
  <path
    d="M31.5177 19.8705C29.3808 28.442 20.6992 33.6584 12.1267 31.521C3.55778 29.3841 -1.65868 20.702 0.479177 12.1312C2.61515 3.5587 11.2967 -1.65814 19.8666 0.478775C28.4385 2.61569 33.6546 11.2987 31.5175 19.8706L31.5176 19.8705H31.5177Z"
    fill="#F3BA2F"
  />
  <path
    fill-rule="evenodd"
    clip-rule="evenodd"
    d="M15.9999 10.1546L11.8568 14.2977L11.8569 14.2975L9.44631 11.8869L15.9999 5.33325L22.5556 11.8888L20.145 14.2995L15.9999 10.1546ZM7.744 13.5888L5.33325 15.9999L7.74383 18.4102L10.1546 15.9994L7.744 13.5888ZM11.8568 17.7024L15.9999 21.8453L20.1449 17.7005L22.5569 20.1098L22.5557 20.1111L15.9999 26.6666L9.44633 20.113L9.44292 20.1096L11.8568 17.7024ZM24.256 13.5902L21.8453 16.0009L24.2559 18.4115L26.6666 16.0008L24.256 13.5902Z"
    fill="white"
  />
  <path
    d="M18.4449 15.9988H18.4459L15.9999 13.5526L14.192 15.3601L13.9843 15.5678L13.5559 15.9963L13.5525 15.9996L13.5559 16.0031L15.9999 18.4475L18.4461 16.0013L18.4473 16L18.4451 15.9988"
    fill="white"
  />
</svg>
