<svg
  width="16"
  height="16"
  viewBox="0 0 16 16"
  fill="none"
  xmlns="http://www.w3.org/2000/svg"
>
  <path
    d="M3.42207 2.70211C3.0701 2.79585 2.79509 3.07706 2.70136 3.43317C2.65345 3.61433 2.65345 12.3876 2.70136 12.5687C2.79509 12.9291 3.07205 13.2082 3.43034 13.302C3.53867 13.3291 4.07398 13.3332 8.00231 13.3332C12.8555 13.3332 12.5513 13.3416 12.7971 13.2166C12.945 13.1416 13.1283 12.9603 13.2075 12.8145C13.3429 12.5584 13.3345 12.9 13.3345 8.001C13.3345 4.07267 13.3304 3.53735 13.3033 3.42903C13.2095 3.07074 12.9304 2.79378 12.5701 2.70004C12.393 2.65421 3.59495 2.65628 3.42207 2.70211ZM7.66906 5.50157V7.66775H5.50289H3.33661V5.63897C3.33661 4.25175 3.34281 3.58939 3.35947 3.54987C3.38865 3.47279 3.45734 3.39778 3.53442 3.36447C3.58439 3.34161 3.9822 3.33736 5.63397 3.33529H7.66906V5.50157ZM12.5139 3.38951C12.5451 3.41237 12.5909 3.45821 12.6138 3.48945C12.6576 3.54574 12.6576 3.56239 12.6638 5.60772L12.6679 7.66775H10.5018H8.33556V5.50157V3.3354L10.3956 3.33954C12.4409 3.34575 12.4577 3.34574 12.5139 3.38951ZM7.66906 10.5005V12.6667L5.60904 12.6626C3.5636 12.6564 3.54694 12.6564 3.49077 12.6126C3.45952 12.5896 3.41369 12.5439 3.39082 12.5126C3.34706 12.4565 3.34706 12.4397 3.34085 10.3944L3.33661 8.33424H5.50278H7.66906V10.5005ZM12.6639 10.3943C12.6577 12.4397 12.6577 12.4564 12.6139 12.5125C12.5909 12.5438 12.5451 12.5896 12.514 12.6125C12.4578 12.6562 12.441 12.6562 10.3957 12.6625L8.33567 12.6666V10.5004V8.33424H10.5018H12.668L12.6639 10.3943Z"
    fill="currentColor"
  />
  <path
    d="M5.36745 4.19765C5.29037 4.23303 5.22167 4.30597 5.19249 4.38305C5.17997 4.41637 5.16952 4.59763 5.16952 4.80383V5.16615L4.77585 5.17235C4.34473 5.17856 4.32589 5.18487 4.22388 5.32227C4.16346 5.40348 4.16346 5.59934 4.22388 5.68056C4.326 5.81806 4.34473 5.82426 4.77378 5.83047L5.16745 5.83667L5.17366 6.23035C5.17986 6.6594 5.18618 6.67813 5.32368 6.78024C5.4049 6.84067 5.60075 6.84067 5.68197 6.78024C5.81947 6.67823 5.82568 6.6594 5.83188 6.23035L5.83809 5.83667L6.23176 5.83047C6.66081 5.82426 6.67954 5.81795 6.78166 5.68056C6.84208 5.59934 6.84208 5.40348 6.78166 5.32227C6.67965 5.18477 6.66081 5.17856 6.23176 5.17235L5.83809 5.16615L5.83188 4.77248C5.82568 4.34342 5.81936 4.3247 5.68611 4.22465C5.61534 4.17261 5.45073 4.15802 5.36745 4.19765Z"
    fill="currentColor"
  />
  <path
    d="M9.44993 4.28092C9.31036 4.34135 9.23122 4.49964 9.26246 4.66208C9.27498 4.7287 9.3354 4.80165 9.65407 5.12031L10.0311 5.50146L9.65407 5.88054C9.24787 6.29087 9.22915 6.32005 9.26246 6.495C9.28119 6.59701 9.40617 6.72199 9.50829 6.74083C9.68324 6.77414 9.71242 6.75541 10.1227 6.34922L10.5018 5.97221L10.883 6.34922C11.2912 6.75541 11.3204 6.77414 11.4954 6.74083C11.5974 6.7221 11.7224 6.59712 11.7412 6.495C11.7745 6.32005 11.7558 6.29087 11.3496 5.88054L10.9726 5.50146L11.3496 5.12031C11.7558 4.71205 11.7745 4.68287 11.7412 4.50792C11.7225 4.40591 11.5975 4.28093 11.4954 4.26209C11.3204 4.22878 11.2912 4.2475 10.8809 4.65369L10.5018 5.03289L10.1311 4.66425C9.92907 4.46219 9.73539 4.28517 9.70415 4.27265C9.62489 4.24347 9.52701 4.24761 9.44993 4.28092Z"
    fill="currentColor"
  />
  <path
    d="M5.36743 9.19661C5.1571 9.28828 5.10702 9.56742 5.27163 9.73192C5.40706 9.86735 5.59867 9.86735 5.73399 9.73192C5.99234 9.47368 5.70275 9.05083 5.36743 9.19661Z"
    fill="currentColor"
  />
  <path
    d="M4.36771 10.1963C4.22814 10.2567 4.14899 10.4171 4.17817 10.5733C4.19689 10.6712 4.30108 10.7857 4.39482 10.8128C4.44686 10.8295 4.83018 10.8336 5.54872 10.8295C6.59844 10.8233 6.62555 10.8211 6.68183 10.7795C6.79223 10.6983 6.82554 10.6317 6.82554 10.5004C6.82554 10.3692 6.79223 10.3025 6.68183 10.2213C6.62555 10.1775 6.59855 10.1775 5.52793 10.1733C4.64674 10.1693 4.41768 10.1735 4.36771 10.1963Z"
    fill="currentColor"
  />
  <path
    d="M5.36743 11.1962C5.1571 11.2879 5.10702 11.5669 5.27163 11.7315C5.40706 11.8669 5.59867 11.8669 5.73399 11.7315C5.99234 11.4731 5.70275 11.0504 5.36743 11.1962Z"
    fill="currentColor"
  />
  <path
    d="M9.36665 9.52988C9.22708 9.5903 9.14794 9.75066 9.17711 9.90689C9.19584 10.0048 9.30003 10.1193 9.39376 10.1464C9.4458 10.1631 9.82913 10.1672 10.5477 10.1631C11.5974 10.1569 11.6245 10.1547 11.6808 10.1131C11.7912 10.0319 11.8245 9.96525 11.8245 9.83395C11.8245 9.70265 11.7912 9.63603 11.6808 9.55481C11.6246 9.51104 11.5975 9.51104 10.5269 9.50691C9.64569 9.50277 9.41663 9.50702 9.36665 9.52988Z"
    fill="currentColor"
  />
  <path
    d="M9.36665 10.8628C9.22708 10.9232 9.14794 11.0836 9.17711 11.2398C9.19584 11.3377 9.30003 11.4522 9.39376 11.4793C9.4458 11.496 9.82913 11.5001 10.5477 11.496C11.5974 11.4898 11.6245 11.4877 11.6808 11.446C11.7912 11.3648 11.8245 11.2982 11.8245 11.1669C11.8245 11.0356 11.7912 10.969 11.6808 10.8878C11.6246 10.844 11.5975 10.844 10.5269 10.8399C9.64569 10.8358 9.41663 10.84 9.36665 10.8628Z"
    fill="currentColor"
  />
</svg>
