<svg
  width="16"
  height="16"
  viewBox="0 0 16 16"
  fill="none"
  xmlns="http://www.w3.org/2000/svg"
>
  <g clip-path="url(#clip-change-password)">
    <path
      fill-rule="evenodd"
      clip-rule="evenodd"
      d="M14.4996 9.33334C14.773 9.33334 14.9996 9.56001 14.9996 9.83334C14.9996 11.2067 14.453 12.52 13.4863 13.4867C12.5196 14.4533 11.2063 15 9.83297 15C9.65297 15 9.48631 14.9 9.39964 14.7467C9.31297 14.5867 9.31297 14.4 9.40631 14.24L10.1063 13.0733C10.2463 12.8333 10.553 12.76 10.793 12.9C11.033 13.04 11.1063 13.3467 10.9663 13.5867L10.7863 13.8867C11.5396 13.7133 12.233 13.3267 12.7863 12.7733C13.5596 12 13.9996 10.94 13.9996 9.83334C13.9996 9.56001 14.2263 9.33334 14.4996 9.33334Z"
      fill="currentColor"
    />
    <path
      fill-rule="evenodd"
      clip-rule="evenodd"
      d="M4.8865 1.77334C4.13317 1.94667 3.43984 2.33334 2.8865 2.88667C2.1065 3.66667 1.6665 4.72667 1.6665 5.83334C1.6665 6.10667 1.43984 6.33334 1.1665 6.33334C0.893171 6.33334 0.666504 6.10667 0.666504 5.83334C0.666504 4.46 1.21317 3.14667 2.17984 2.18C3.1465 1.21334 4.45984 0.666672 5.83317 0.666672C6.01317 0.666672 6.17984 0.766672 6.2665 0.920005C6.35984 1.08001 6.35317 1.26667 6.25984 1.42667L5.55984 2.59334C5.41984 2.82667 5.11317 2.90667 4.87317 2.76C4.63984 2.62001 4.55984 2.31334 4.7065 2.07334L4.8865 1.77334Z"
      fill="currentColor"
    />
    <path
      d="M10.1333 11.5667H5.53327C5.33327 11.5667 5.13327 11.4867 4.99327 11.34C4.8466 11.2 4.7666 11 4.7666 10.8V7.24668C4.7666 7.04668 4.8466 6.85334 4.99327 6.70668C5.13327 6.56668 5.33327 6.48001 5.53327 6.48001H10.1333C10.3399 6.48001 10.5333 6.56001 10.6733 6.70668C10.8199 6.84668 10.8999 7.04668 10.8999 7.24668V10.8067C10.8999 11.0067 10.8199 11.2 10.6733 11.3467C10.5333 11.4867 10.3333 11.5667 10.1333 11.5667ZM5.53327 6.99334C5.4666 6.99334 5.39993 7.02001 5.35327 7.06668C5.3066 7.11334 5.27993 7.18001 5.27993 7.24668V10.8067C5.27993 10.8733 5.3066 10.94 5.35327 10.9867C5.39993 11.0333 5.4666 11.06 5.53327 11.06H10.1333C10.1999 11.06 10.2666 11.0333 10.3133 10.9867C10.3599 10.94 10.3866 10.8733 10.3866 10.8067V7.24668C10.3866 7.18001 10.3599 7.11334 10.3133 7.06668C10.2666 7.02001 10.1999 6.99334 10.1333 6.99334H5.53327Z"
      fill="currentColor"
    />
    <path
      fill-rule="evenodd"
      clip-rule="evenodd"
      d="M5.53333 6.22H10.1333C10.4067 6.22 10.6733 6.32667 10.8667 6.52C11.06 6.71333 11.1667 6.97333 11.1667 7.24667V10.8067C11.1667 11.08 11.06 11.34 10.8667 11.5333C10.6733 11.7267 10.4067 11.8333 10.1333 11.8333H5.53333C5.26 11.8333 4.99333 11.7267 4.8 11.5333C4.60667 11.34 4.5 11.08 4.5 10.8067V7.24667C4.5 6.97333 4.60667 6.71333 4.8 6.52C5 6.32667 5.26 6.22 5.53333 6.22ZM5.54667 7.26V10.7933H10.12V7.26H5.54667Z"
      fill="currentColor"
    />
    <path
      d="M9.61995 6.99333C9.55329 6.99333 9.48662 6.96667 9.43995 6.92C9.39329 6.87333 9.36662 6.80667 9.36662 6.74V5.46667C9.36662 5.06 9.20662 4.67333 8.91995 4.38667C8.63329 4.1 8.23995 3.94 7.83329 3.94C7.42662 3.94 7.03995 4.1 6.74662 4.38667C6.45995 4.67333 6.29995 5.06 6.29995 5.46667V6.74C6.29995 6.80667 6.27329 6.87333 6.22662 6.92C6.17995 6.96667 6.11329 6.99333 6.04662 6.99333C5.97995 6.99333 5.91329 6.96667 5.86662 6.92C5.81329 6.86667 5.78662 6.80667 5.78662 6.74V5.46667C5.78662 4.92667 5.99995 4.41333 6.38662 4.02667C6.76662 3.64667 7.28662 3.43333 7.83329 3.43333C8.37329 3.43333 8.89329 3.64667 9.27995 4.02667C9.65995 4.40667 9.87995 4.92667 9.87995 5.46667V6.74C9.87995 6.80667 9.85329 6.87333 9.80662 6.92C9.75329 6.96667 9.68662 6.99333 9.61995 6.99333Z"
      fill="currentColor"
    />
    <path
      fill-rule="evenodd"
      clip-rule="evenodd"
      d="M9.62002 6.99334V7.26C9.76002 7.26 9.89335 7.20667 9.98669 7.10667C10.0867 7.00667 10.14 6.88 10.14 6.74V5.46667C10.14 4.86 9.89335 4.27334 9.46002 3.84001C9.02669 3.40667 8.44002 3.16667 7.82669 3.16667C7.21335 3.16667 6.62669 3.40667 6.19335 3.84001C5.76669 4.27334 5.52002 4.85334 5.52002 5.46667V6.74C5.52002 6.88 5.57335 7.01334 5.67335 7.10667C5.77335 7.2 5.90669 7.26 6.04669 7.26C6.18669 7.26 6.31335 7.2 6.41335 7.10667C6.51335 7.00667 6.56669 6.88 6.56669 6.74V5.46667C6.56669 5.13334 6.70002 4.81334 6.94002 4.57334C7.18002 4.34001 7.50002 4.20667 7.83335 4.20667C8.16669 4.20667 8.49335 4.34001 8.72669 4.57334C8.96002 4.80667 9.10002 5.12667 9.10002 5.46667V6.74C9.10002 6.88 9.15335 7.01334 9.25335 7.10667C9.35335 7.20667 9.48669 7.26 9.62002 7.26V6.99334Z"
      fill="currentColor"
    />
  </g>
  <defs>
    <clipPath id="clip-change-password">
      <rect
        width="14.3333"
        height="14.3333"
        fill="currentColor"
        transform="translate(0.666504 0.666672)"
      />
    </clipPath>
  </defs>
</svg>
