<svg
  width="24"
  height="25"
  viewBox="0 0 24 25"
  fill="none"
  xmlns="http://www.w3.org/2000/svg"
>
  <path
    d="M17.9198 8.80499H6.07982C5.86665 8.80501 5.65827 8.8683 5.48109 8.98683C5.30391 9.10536 5.16588 9.27381 5.0845 9.47084C5.00312 9.66787 4.98204 9.88462 5.02393 10.0936C5.06582 10.3027 5.1688 10.4945 5.31982 10.645L10.5008 15.825C10.9003 16.2235 11.4416 16.4473 12.0058 16.4473C12.5701 16.4473 13.1113 16.2235 13.5108 15.825L15.4808 13.855L18.6908 10.645C18.8401 10.493 18.9411 10.3002 18.9813 10.091C19.0215 9.88177 18.999 9.66534 18.9166 9.46884C18.8343 9.27234 18.6958 9.10452 18.5185 8.98642C18.3411 8.86833 18.1329 8.80521 17.9198 8.80499V8.80499Z"
    fill="currentColor"
  />
</svg>
