<svg
  width="24"
  height="24"
  viewBox="0 0 24 24"
  xmlns="http://www.w3.org/2000/svg"
>
  <path
    d="M13.9799 12.2787L19.7531 6.50549C19.9115 6.34701 20.0004 6.13215 20.0004 5.90814C20.0004 5.68412 19.9115 5.46927 19.7531 5.31078L19.2472 4.80628C19.0885 4.64832 18.8737 4.55963 18.6498 4.55963C18.4259 4.55963 18.2111 4.64832 18.0525 4.80628L12.2793 10.578L6.5075 4.80628C6.34882 4.64832 6.13404 4.55963 5.91014 4.55963C5.68624 4.55963 5.47146 4.64832 5.31279 4.80628L4.80683 5.31078C4.6485 5.46927 4.55957 5.68412 4.55957 5.90814C4.55957 6.13215 4.6485 6.34701 4.80683 6.50549L10.58 12.2787L4.80683 18.0519C4.64886 18.2106 4.56017 18.4254 4.56017 18.6493C4.56017 18.8732 4.64886 19.088 4.80683 19.2466L5.31279 19.7526C5.47146 19.9106 5.68624 19.9993 5.91014 19.9993C6.13404 19.9993 6.34882 19.9106 6.5075 19.7526L12.2793 13.9794L18.0525 19.7526C18.1306 19.8312 18.2236 19.8935 18.326 19.936C18.4284 19.9784 18.5382 20.0001 18.6491 19.9997C18.7599 20.0001 18.8698 19.9784 18.9722 19.936C19.0746 19.8935 19.1676 19.8312 19.2457 19.7526L19.7517 19.2466C19.9096 19.088 19.9983 18.8732 19.9983 18.6493C19.9983 18.4254 19.9096 18.2106 19.7517 18.0519L13.9799 12.2787Z"
    fill="currentColor"
  />
</svg>
