<svg
  width="16"
  height="16"
  viewBox="0 0 16 16"
  fill="none"
  xmlns="http://www.w3.org/2000/svg"
>
  <g clip-path="url(#copy-clip0)">
    <path
      d="M7.23317 15H4.43317C1.8265 15 0.666504 13.84 0.666504 11.2334V8.43335C0.666504 5.82669 1.8265 4.66669 4.43317 4.66669H7.23317C9.83984 4.66669 10.9998 5.82669 10.9998 8.43335V11.2334C10.9998 13.84 9.83984 15 7.23317 15ZM4.43317 5.66669C2.3665 5.66669 1.6665 6.36669 1.6665 8.43335V11.2334C1.6665 13.3 2.3665 14 4.43317 14H7.23317C9.29984 14 9.99984 13.3 9.99984 11.2334V8.43335C9.99984 6.36669 9.29984 5.66669 7.23317 5.66669H4.43317Z"
      fill="currentColor"
    />
    <path
      d="M11.2332 11H10.4998C10.3665 11 10.2398 10.9467 10.1465 10.8534C10.0532 10.76 9.99984 10.6334 9.99984 10.5V8.43335C9.99984 6.36669 9.29984 5.66669 7.23317 5.66669H5.1665C5.03317 5.66669 4.9065 5.61335 4.81317 5.52002C4.71984 5.42669 4.6665 5.30002 4.6665 5.16669V4.43335C4.6665 1.82669 5.8265 0.666687 8.43317 0.666687H11.2332C13.8398 0.666687 14.9998 1.82669 14.9998 4.43335V7.23335C14.9998 9.84002 13.8398 11 11.2332 11ZM10.9998 10H11.2332C13.2998 10 13.9998 9.30002 13.9998 7.23335V4.43335C13.9998 2.36669 13.2998 1.66669 11.2332 1.66669H8.43317C6.3665 1.66669 5.6665 2.36669 5.6665 4.43335V4.66669H7.23317C9.83984 4.66669 10.9998 5.82669 10.9998 8.43335V10Z"
      fill="currentColor"
    />
  </g>
  <defs>
    <clipPath id="copy-clip0">
      <rect
        width="14.3333"
        height="14.3333"
        fill="currentColor"
        transform="translate(0.666504 0.666687)"
      />
    </clipPath>
  </defs>
</svg>
