<svg
  width="24"
  height="24"
  viewBox="0 0 24 24"
  fill="none"
  xmlns="http://www.w3.org/2000/svg"
>
  <path
    d="M21.8144 10.2304C21.3875 8.69794 20.7565 7.22357 19.937 5.84301C19.881 5.77749 18.4881 4.18099 15.1245 3.00149L14.6805 4.15716C15.877 4.56671 17.0081 5.13561 18.0379 5.84599C16.0749 5.29496 14.0417 5.00605 11.9961 4.98817C9.9505 5.00605 7.91736 5.29347 5.95432 5.84599C6.98569 5.13561 8.11678 4.56671 9.31329 4.15716L8.86616 3C5.50407 4.1795 4.10969 5.776 4.05361 5.84152C3.23256 7.22059 2.60158 8.69496 2.17626 10.2289C1.58112 12.4717 1.18851 14.7593 1 17.0661C1.07478 17.1793 2.80412 20 7.51541 20L8.71192 18.3469C7.3674 18.0044 6.09143 17.4548 4.93386 16.7162L5.64741 15.693C9.49714 18.1354 14.5029 18.1354 18.3526 15.693L19.0661 16.7162C17.9086 17.4534 16.6326 18.0044 15.2881 18.3469L16.4846 20C21.1959 20 22.9252 17.1778 23 17.0661C22.8099 14.7593 22.4127 12.4732 21.8144 10.2304ZM9.01573 13.4532H7.72729V11.401H9.01573V13.4532ZM16.2618 13.4532H14.9734V11.401H16.2618V13.4532Z"
    fill="currentColor"
  />
</svg>
