<svg
  width="24"
  height="24"
  viewBox="0 0 24 24"
  fill="none"
  xmlns="http://www.w3.org/2000/svg"
>
  <g clip-path="url(#clip0_docs)">
    <path
      d="M11.7499 22.49C10.9299 22.49 10.1099 22.23 9.42992 21.72L4.21992 17.82C3.24992 17.1 2.66992 15.94 2.66992 14.72V2H20.8399V14.72C20.8399 15.94 20.2599 17.1 19.2899 17.82L14.0799 21.72C13.3999 22.23 12.5799 22.49 11.7499 22.49ZM4.16992 3.5V14.72C4.16992 15.47 4.51992 16.18 5.11992 16.62L10.3299 20.52C11.1699 21.15 12.3399 21.15 13.1799 20.52L18.3899 16.62C18.9799 16.18 19.3399 15.47 19.3399 14.72V3.5H4.16992Z"
      fill="currentColor"
    />
    <path
      d="M21.75 3.5H1.75C1.34 3.5 1 3.16 1 2.75C1 2.34 1.34 2 1.75 2H21.75C22.16 2 22.5 2.34 22.5 2.75C22.5 3.16 22.16 3.5 21.75 3.5Z"
      fill="currentColor"
    />
    <path
      d="M15.75 9H7.75C7.34 9 7 8.66 7 8.25C7 7.84 7.34 7.5 7.75 7.5H15.75C16.16 7.5 16.5 7.84 16.5 8.25C16.5 8.66 16.16 9 15.75 9Z"
      fill="currentColor"
    />
    <path
      d="M15.75 14H7.75C7.34 14 7 13.66 7 13.25C7 12.84 7.34 12.5 7.75 12.5H15.75C16.16 12.5 16.5 12.84 16.5 13.25C16.5 13.66 16.16 14 15.75 14Z"
      fill="currentColor"
    />
  </g>
  <defs>
    <clipPath id="clip0_docs">
      <rect
        width="21.5"
        height="20.49"
        fill="currentColor"
        transform="translate(1 2)"
      />
    </clipPath>
  </defs>
</svg>
