<svg
  width="20"
  height="5"
  viewBox="0 0 20 5"
  fill="none"
  xmlns="http://www.w3.org/2000/svg"
>
  <path
    d="M2.00002 4.62503C3.1046 4.62503 4.00003 3.7296 4.00003 2.62502C4.00003 1.52044 3.1046 0.625 2.00002 0.625C0.895438 0.625 0 1.52044 0 2.62502C0 3.7296 0.895438 4.62503 2.00002 4.62503Z"
    fill="currentColor"
  />
  <path
    d="M10 4.625C11.1046 4.625 12 3.72957 12 2.62499C12 1.52041 11.1046 0.624969 10 0.624969C8.89543 0.624969 8 1.52041 8 2.62499C8 3.72957 8.89543 4.625 10 4.625Z"
    fill="currentColor"
  />
  <path
    d="M18 4.625C19.1046 4.625 20 3.72957 20 2.62499C20 1.52041 19.1046 0.624969 18 0.624969C16.8954 0.624969 16 1.52041 16 2.62499C16 3.72957 16.8954 4.625 18 4.625Z"
    fill="currentColor"
  />
</svg>
