<svg
  width="24"
  height="24"
  viewBox="0 0 24 24"
  fill="none"
  xmlns="http://www.w3.org/2000/svg"
>
  <path
    fill-rule="evenodd"
    clip-rule="evenodd"
    d="M22.2439 5.43558C22.5556 5.70834 22.5872 6.18216 22.3144 6.49389L11.8144 18.4939C11.6777 18.6501 11.4824 18.7427 11.275 18.7496C11.0675 18.7565 10.8664 18.6771 10.7197 18.5303L6.21967 14.0303C5.92678 13.7374 5.92678 13.2626 6.21967 12.9697C6.51256 12.6768 6.98744 12.6768 7.28033 12.9697L11.2135 16.9028L21.1856 5.50613C21.4583 5.1944 21.9322 5.16282 22.2439 5.43558Z"
    fill="#17ADBD"
  />
  <path
    fill-rule="evenodd"
    clip-rule="evenodd"
    d="M1.71967 12.9697C2.01256 12.6768 2.48744 12.6768 2.78033 12.9697L7.28033 17.4697C7.57322 17.7626 7.57322 18.2374 7.28033 18.5303C6.98744 18.8232 6.51256 18.8232 6.21967 18.5303L1.71967 14.0303C1.42678 13.7374 1.42678 13.2626 1.71967 12.9697Z"
    fill="#17ADBD"
  />
  <path
    fill-rule="evenodd"
    clip-rule="evenodd"
    d="M17.7429 5.43468C18.0551 5.70687 18.0875 6.18064 17.8153 6.49286L11.4403 13.8053C11.1681 14.1176 10.6944 14.15 10.3822 13.8778C10.0699 13.6056 10.0375 13.1319 10.3097 12.8196L16.6847 5.50716C16.9569 5.19494 17.4306 5.16249 17.7429 5.43468Z"
    fill="#17ADBD"
  />
</svg>
