<svg
  width="24"
  height="24"
  viewBox="0 0 24 24"
  fill="none"
  xmlns="http://www.w3.org/2000/svg"
>
  <path
    d="M17.9201 8.17993H6.08007C5.86689 8.17995 5.65852 8.24324 5.48133 8.36177C5.30415 8.4803 5.16613 8.64875 5.08474 8.84578C5.00336 9.04281 4.98228 9.25956 5.02417 9.46858C5.06607 9.67759 5.16904 9.86948 5.32007 10.0199L10.5011 15.1999C10.9006 15.5984 11.4418 15.8222 12.0061 15.8222C12.5703 15.8222 13.1116 15.5984 13.5111 15.1999L15.4811 13.2299L18.6911 10.0199C18.8403 9.8679 18.9414 9.67518 18.9815 9.46595C19.0217 9.25671 18.9992 9.04028 18.9169 8.84378C18.8345 8.64727 18.696 8.47945 18.5187 8.36136C18.3414 8.24326 18.1331 8.18015 17.9201 8.17993V8.17993Z"
    fill="currentColor"
  />
</svg>
