<svg
  width="32"
  height="24"
  viewBox="0 0 32 24"
  fill="none"
  xmlns="http://www.w3.org/2000/svg"
>
  <path
    d="M21.2933 9.98477C22.3407 9.1715 22.9073 7.91335 22.9073 6.33521H19.0767C19.0767 6.92994 18.9705 6.97208 18.7941 7.04233C18.1744 7.29208 16.8773 7.29208 15.9313 7.29208C14.9854 7.29208 13.6882 7.29208 13.0685 7.04233C12.8921 6.97208 12.786 6.92838 12.786 6.33521H8.95688C8.95688 7.94925 9.54849 9.22769 10.6427 10.0394C9.02088 11.5052 8 13.6234 8 15.9774C8 20.3887 11.5887 23.9774 16 23.9774C20.4113 23.9774 24 20.3887 24 15.9774C24 13.5937 22.951 11.4521 21.2933 9.98477ZM16 21.9262C12.7204 21.9262 10.0511 19.257 10.0511 15.9774C10.0511 13.8544 11.1688 11.9906 12.8453 10.937C13.76 10.3625 14.8418 10.0285 15.9984 10.0285C17.1426 10.0285 18.2119 10.3547 19.1204 10.9167C20.8156 11.9656 21.9473 13.8419 21.9473 15.9774C21.9489 19.257 19.2796 21.9262 16 21.9262Z"
    fill="#17ADBD"
  />
  <path
    d="M18.2752 5.15841C18.7954 3.90234 18.199 2.4623 16.9429 1.94201C15.6868 1.42171 14.2468 2.01818 13.7265 3.27426C13.2062 4.53033 13.8027 5.97037 15.0588 6.49066C16.3148 7.01096 17.7549 6.41449 18.2752 5.15841Z"
    fill="#17ADBD"
  />
</svg>
