<svg
  width="32"
  height="24"
  viewBox="0 0 32 24"
  fill="none"
  xmlns="http://www.w3.org/2000/svg"
>
  <path
    d="M8.84912 21V21.3846V22H15.8491H22.8491V21.3846V21H15.8491H8.84912Z"
    fill="#17ADBD"
  />
  <path
    d="M25.5353 4.3036L29.6984 2.25094L23.425 2.2133L22.9206 2.76285L21.6207 2L19.3623 3.75656L15.8492 9.5281L12.3361 3.75656L10.0776 2L8.78031 2.76285L8.27341 2.2133L2 2.25094L6.16304 4.3036L5.81173 4.50937L3.05142 7.01873L5.81173 8.02248L7.56828 10.7828L9.32484 18.0599V19.8165H15.8492L15.5481 12.1353L15.4653 10.0275H15.8492H16.2331H16.4665L16.3435 11.9672L15.8492 19.8165H22.3735V18.0599L24.1301 10.7828L25.8867 8.02248L28.647 7.01873L25.8867 4.50937L25.5353 4.3036Z"
    fill="#17ADBD"
  />
  <path
    d="M15.8391 10.3887V10.409L15.8493 10.3988L15.8391 10.3887Z"
    fill="#17ADBD"
  />
  <path
    d="M15.8491 10.3988L15.8618 10.409V10.3887L15.8491 10.3988Z"
    fill="#17ADBD"
  />
</svg>
