<svg
  width="32"
  height="24"
  viewBox="0 0 32 24"
  fill="none"
  xmlns="http://www.w3.org/2000/svg"
>
  <path
    d="M16.448 9.77215H15.5538C15.3469 9.77215 15.1787 9.60399 15.1787 9.39702V8.43494C15.1787 8.22798 15.3469 8.05981 15.5538 8.05981H16.448C16.655 8.05981 16.8231 8.22798 16.8231 8.43494V9.39702C16.8231 9.60399 16.655 9.77215 16.448 9.77215Z"
    fill="#17ADBD"
  />
  <path
    d="M16.2795 10.6548C16.2052 10.5805 16.1065 10.54 16.0014 10.54C15.8963 10.54 15.7977 10.5805 15.7233 10.6548L10.1675 16.2106C10.0932 16.285 10.0527 16.3836 10.0527 16.4887C10.0527 16.5938 10.0932 16.6925 10.1675 16.7669L15.7233 22.3226C15.7977 22.397 15.8963 22.4374 16.0014 22.4374C16.1065 22.4374 16.2052 22.397 16.2795 22.3226L21.8353 16.7669C21.9097 16.6925 21.9501 16.5938 21.9501 16.4887C21.9501 16.3836 21.9097 16.285 21.8353 16.2106L16.2795 10.6548Z"
    fill="#17ADBD"
  />
  <path
    d="M23.2029 16.1331L16.3552 9.2854C16.1579 9.08813 15.8394 9.08813 15.6421 9.2854L8.79443 16.1331C8.59717 16.3304 8.59717 16.6489 8.79443 16.8462L15.6421 23.6939C15.8394 23.8912 16.1579 23.8912 16.3552 23.6939L23.2029 16.8462C23.4002 16.6489 23.4002 16.3288 23.2029 16.1331ZM22.5448 16.8947L16.4037 23.0358C16.2954 23.1441 16.1515 23.204 15.9979 23.204C15.8443 23.204 15.7004 23.1441 15.592 23.0358L9.45091 16.8947C9.34257 16.7864 9.28275 16.6424 9.28275 16.4888C9.28275 16.3352 9.34257 16.1913 9.45091 16.083L15.592 9.94188C15.7004 9.83354 15.8443 9.77372 15.9979 9.77372C16.1515 9.77372 16.2954 9.83354 16.4037 9.94188L22.5448 16.083C22.6532 16.1913 22.713 16.3352 22.713 16.4888C22.713 16.6424 22.6532 16.7864 22.5448 16.8947Z"
    fill="#17ADBD"
  />
  <path
    d="M16 8.53815C13.0766 8.53815 10.3246 7.76202 8.25165 6.35529C6.15449 4.93077 5 3.02925 5 1H5.4107C5.4107 4.93077 10.1613 8.12744 16 8.12744C21.8387 8.12744 26.5893 4.92915 26.5893 1H27C27 3.02925 25.8455 4.93077 23.7484 6.35529C21.6771 7.76363 18.925 8.53815 16 8.53815Z"
    fill="#17ADBD"
  />
</svg>
