<svg
  width="24"
  height="24"
  viewBox="0 0 24 24"
  fill="none"
  xmlns="http://www.w3.org/2000/svg"
>
  <path
    d="M13.7848 12L17.8244 7.96056C18.058 7.72694 18.058 7.34782 17.8244 7.11383L16.8858 6.17522C16.6521 5.94159 16.273 5.94159 16.039 6.17522L11.9998 10.215L7.96025 6.17559C7.72662 5.94197 7.34749 5.94197 7.11349 6.17559L6.17522 7.11383C5.94159 7.34745 5.94159 7.72657 6.17522 7.96056L10.2148 12L6.17522 16.0394C5.94159 16.2731 5.94159 16.6522 6.17522 16.8862L7.11386 17.8248C7.34749 18.0584 7.72662 18.0584 7.96062 17.8248L11.9998 13.785L16.0394 17.8244C16.273 18.058 16.6521 18.058 16.8861 17.8244L17.8248 16.8858C18.0584 16.6522 18.0584 16.2731 17.8248 16.0391L13.7848 12Z"
    fill="currentColor"
  />
</svg>
