<svg
  width="13"
  height="13"
  viewBox="0 0 13 13"
  fill="none"
  xmlns="http://www.w3.org/2000/svg"
>
  <path
    d="M11.7356 0C12.0399 0.1246 12.1355 0.356414 12.1326 0.678055C12.1239 2.32104 12.1297 3.96112 12.1268 5.6041C12.1268 5.94023 11.9037 6.16625 11.5907 6.15755C11.3444 6.14886 11.1474 5.975 11.1097 5.7287C11.101 5.66495 11.0981 5.5983 11.0981 5.53166C11.0981 4.33782 11.0981 3.14687 11.0981 1.95303C11.0981 1.90087 11.0981 1.84582 11.0981 1.75889C11.0315 1.82264 10.9909 1.86031 10.9532 1.89798C9.77389 3.08023 8.59164 4.25958 7.41518 5.44473C7.25001 5.60989 7.06746 5.69682 6.83565 5.62148C6.49082 5.51137 6.36912 5.09121 6.59514 4.81014C6.62991 4.76667 6.67048 4.729 6.71105 4.68843C7.8846 3.51488 9.06106 2.34132 10.2375 1.17066C10.2723 1.13589 10.3215 1.10981 10.3621 1.08083C10.3534 1.06345 10.3447 1.04606 10.3389 1.02867C10.2868 1.02867 10.2346 1.02867 10.1825 1.02867C8.98862 1.02867 7.79767 1.02867 6.60383 1.02867C6.50531 1.02867 6.40679 1.02288 6.31407 0.993902C6.11992 0.935948 5.98953 0.756293 5.97794 0.553455C5.96345 0.330335 6.05907 0.165167 6.25032 0.0550558C6.28799 0.0347721 6.33435 0.0202837 6.37492 0C8.16278 0 9.94775 0 11.7356 0Z"
    fill="currentColor"
  />
  <path
    d="M0 6.37777C0.141986 6.07351 0.29846 5.9605 0.556353 5.97789C0.791065 5.99527 0.979413 6.16334 1.01419 6.39805C1.02578 6.46759 1.02578 6.53714 1.02578 6.60668C1.02578 7.79473 1.02578 8.98277 1.02578 10.1708C1.02578 10.2259 1.02578 10.2809 1.02578 10.3737C1.08952 10.3157 1.12719 10.278 1.16486 10.2404C2.34711 9.05522 3.53226 7.87007 4.71162 6.68492C4.86519 6.53134 5.03615 6.44731 5.25348 6.49947C5.607 6.5835 5.76057 7.00946 5.54325 7.30212C5.50558 7.35428 5.45632 7.40064 5.40995 7.44701C4.2364 8.62056 3.05994 9.79412 1.88638 10.9677C1.85161 11.0025 1.81974 11.0401 1.75889 11.1039C1.84582 11.1039 1.89798 11.1039 1.95013 11.1039C3.14397 11.1039 4.33492 11.1039 5.52876 11.1068C5.62438 11.1068 5.7287 11.1126 5.81853 11.1415C6.05034 11.214 6.17784 11.4429 6.14596 11.695C6.11699 11.9268 5.91994 12.1094 5.68234 12.1296C5.63018 12.1325 5.58092 12.1325 5.52876 12.1325C3.91186 12.1325 2.29206 12.1267 0.675158 12.1383C0.356414 12.1383 0.1246 12.0427 0 11.7385C0 9.9506 0 8.16563 0 6.37777Z"
    fill="currentColor"
  />
</svg>
