<svg
  width="24"
  height="24"
  viewBox="0 0 24 24"
  fill="none"
  xmlns="http://www.w3.org/2000/svg"
>
  <path
    d="M15.58 12C15.58 12.7081 15.37 13.4003 14.9766 13.989C14.5833 14.5777 14.0242 15.0366 13.37 15.3075C12.7158 15.5785 11.996 15.6494 11.3016 15.5113C10.6071 15.3731 9.96921 15.0322 9.46854 14.5315C8.96787 14.0308 8.62691 13.3929 8.48877 12.6985C8.35064 12.004 8.42153 11.2842 8.6925 10.63C8.96346 9.97588 9.42232 9.41676 10.011 9.02338C10.5998 8.63001 11.2919 8.42005 12 8.42005C12.4703 8.41952 12.936 8.51176 13.3706 8.69149C13.8052 8.87121 14.2001 9.13489 14.5326 9.46743C14.8651 9.79997 15.1288 10.1948 15.3085 10.6294C15.4883 11.064 15.5805 11.5298 15.58 12V12Z"
    stroke="currentColor"
    stroke-width="1.5"
    stroke-linecap="round"
    stroke-linejoin="round"
  />
  <path
    d="M12 20.27C15.53 20.27 18.82 18.19 21.11 14.59C21.5526 13.7967 21.785 12.9034 21.785 11.995C21.785 11.0866 21.5526 10.1933 21.11 9.39997C18.815 5.79997 15.53 3.71997 12 3.71997C8.47001 3.71997 5.18001 5.79997 2.89001 9.39997C2.4474 10.1933 2.21506 11.0866 2.21506 11.995C2.21506 12.9034 2.4474 13.7967 2.89001 14.59C5.18001 18.19 8.47001 20.27 12 20.27Z"
    stroke="currentColor"
    stroke-width="1.5"
    stroke-linecap="round"
    stroke-linejoin="round"
  />
</svg>
