<svg
  width="24"
  height="24"
  viewBox="0 0 24 24"
  fill="none"
  xmlns="http://www.w3.org/2000/svg"
>
  <path
    fill-rule="evenodd"
    clip-rule="evenodd"
    d="M11.9948 9.1601C11.6223 9.15923 11.2533 9.23195 10.9089 9.37409C10.5646 9.51624 10.2518 9.725 9.9884 9.9884C9.725 10.2518 9.51624 10.5646 9.37409 10.9089C9.23195 11.2533 9.15923 11.6223 9.1601 11.9948C9.16098 12.3673 9.23544 12.7359 9.3792 13.0795C9.42549 13.1902 9.47868 13.2976 9.53835 13.401L13.401 9.53835C13.2976 9.47868 13.1902 9.42549 13.0795 9.3792C12.7359 9.23544 12.3673 9.16098 11.9948 9.1601ZM14.53 9.47001L15.0628 8.94219C14.6616 8.53719 14.1844 8.21544 13.6585 7.99542C13.1326 7.7754 12.5684 7.66145 11.9983 7.66011C11.4282 7.65876 10.8635 7.77006 10.3366 7.9876C9.80961 8.20514 9.33084 8.52463 8.92774 8.92774C8.52463 9.33084 8.20514 9.80961 7.9876 10.3366C7.77006 10.8635 7.65876 11.4282 7.66011 11.9983C7.66145 12.5684 7.7754 13.1326 7.99542 13.6585C8.21544 14.1844 8.53719 14.6616 8.94219 15.0628C9.23548 15.3534 9.70842 15.3523 10.0003 15.0603L15.0603 10.0003L14.53 9.47001Z"
    fill="currentColor"
  />
  <path
    fill-rule="evenodd"
    clip-rule="evenodd"
    d="M2.25716 9.00744C4.64808 5.24878 8.15183 2.97998 12 2.97998H12.0088L12.0088 2.98003C14.2825 3.00675 16.4846 3.77926 18.2766 5.17889C18.6031 5.43385 18.661 5.90518 18.4061 6.23163C18.1511 6.55807 17.6798 6.61603 17.3533 6.36107C15.8214 5.16458 13.9392 4.50378 11.9956 4.47998C8.79114 4.4817 5.72203 6.3659 3.53472 9.79381C3.16108 10.4708 2.96503 11.2315 2.96503 12.005C2.96503 12.7791 3.1614 13.5404 3.53564 14.2178C4.23861 15.3323 5.1001 16.3385 6.09305 17.2048C6.40516 17.4772 6.43743 17.9509 6.16512 18.263C5.89281 18.5752 5.41903 18.6074 5.10691 18.3351C3.99865 17.3682 3.03785 16.2443 2.25504 14.9992C2.24807 14.9881 2.2414 14.9768 2.23502 14.9654C1.73009 14.0604 1.46503 13.0413 1.46503 12.005C1.46503 10.9687 1.73009 9.94955 2.23502 9.04456C2.24204 9.03197 2.24943 9.0196 2.25716 9.00744Z"
    fill="currentColor"
  />
  <path
    fill-rule="evenodd"
    clip-rule="evenodd"
    d="M19.578 7.34713C19.8999 7.08648 20.3722 7.13614 20.6329 7.45806C21.0309 7.94964 21.4012 8.4631 21.7419 8.99602C21.75 9.00864 21.7576 9.02151 21.7649 9.03459C22.2699 9.93959 22.5349 10.9587 22.5349 11.995C22.5349 13.0313 22.2699 14.0504 21.7649 14.9554C21.7579 14.968 21.7505 14.9804 21.7428 14.9926C19.3519 18.7512 15.8481 21.02 12 21.02L11.9969 21.02C10.6659 21.0145 9.34957 20.7424 8.1255 20.2198C7.74456 20.0571 7.56759 19.6165 7.73023 19.2355C7.89287 18.8546 8.33353 18.6776 8.71448 18.8403C9.7538 19.284 10.8714 19.5151 12.0015 19.52C15.207 19.5194 18.2773 17.6351 20.4653 14.2062C20.8389 13.5292 21.0349 12.7685 21.0349 11.995C21.0349 11.2218 20.839 10.4614 20.4657 9.78459C20.1585 9.30571 19.8251 8.84414 19.4671 8.40198C19.2065 8.08006 19.2561 7.60779 19.578 7.34713Z"
    fill="currentColor"
  />
  <path
    fill-rule="evenodd"
    clip-rule="evenodd"
    d="M15.653 11.9637C16.0596 12.0427 16.3252 12.4363 16.2463 12.8429C16.0823 13.6873 15.6697 14.4633 15.0616 15.0715C14.4534 15.6797 13.6773 16.0922 12.833 16.2562C12.4264 16.3352 12.0327 16.0696 11.9538 15.6629C11.8748 15.2563 12.1404 14.8627 12.547 14.7837C13.0979 14.6768 13.6041 14.4076 14.0009 14.0109C14.3977 13.6141 14.6668 13.1078 14.7738 12.557C14.8527 12.1504 15.2464 11.8848 15.653 11.9637Z"
    fill="currentColor"
  />
  <path
    d="M9.47 14.53L2 22"
    stroke="currentColor"
    stroke-width="1.5"
    stroke-linecap="round"
    stroke-linejoin="round"
  />
  <path
    fill-rule="evenodd"
    clip-rule="evenodd"
    d="M22.5304 1.46967C22.8233 1.76256 22.8233 2.23744 22.5304 2.53033L15.0604 10.0003C14.7675 10.2932 14.2926 10.2932 13.9997 10.0003C13.7068 9.70744 13.7068 9.23256 13.9997 8.93967L21.4697 1.46967C21.7626 1.17678 22.2375 1.17678 22.5304 1.46967Z"
    fill="currentColor"
  />
</svg>
