<svg
  width="24"
  height="24"
  viewBox="0 0 24 24"
  fill="none"
  xmlns="http://www.w3.org/2000/svg"
>
  <path
    fill-rule="evenodd"
    clip-rule="evenodd"
    d="M1.82617 6.78261C1.82617 6.35039 2.17656 6 2.60878 6H21.3914C21.8236 6 22.174 6.35039 22.174 6.78261C22.174 7.21483 21.8236 7.56522 21.3914 7.56522H2.60878C2.17656 7.56522 1.82617 7.21483 1.82617 6.78261Z"
    fill="currentColor"
  />
  <path
    fill-rule="evenodd"
    clip-rule="evenodd"
    d="M4.95654 11.9999C4.95654 11.5677 5.30693 11.2173 5.73915 11.2173H18.2609C18.6931 11.2173 19.0435 11.5677 19.0435 11.9999C19.0435 12.4321 18.6931 12.7825 18.2609 12.7825H5.73915C5.30693 12.7825 4.95654 12.4321 4.95654 11.9999Z"
    fill="currentColor"
  />
  <path
    fill-rule="evenodd"
    clip-rule="evenodd"
    d="M9.13062 17.2172C9.13062 16.785 9.481 16.4346 9.91322 16.4346H14.0871C14.5194 16.4346 14.8697 16.785 14.8697 17.2172C14.8697 17.6494 14.5194 17.9998 14.0871 17.9998H9.91322C9.481 17.9998 9.13062 17.6494 9.13062 17.2172Z"
    fill="currentColor"
  />
</svg>
