<svg
  width="24"
  height="24"
  viewBox="0 0 24 24"
  fill="none"
  xmlns="http://www.w3.org/2000/svg"
>
  <path
    d="M11.25 3.9V12.92C11.2497 13.0812 11.2105 13.24 11.1356 13.3828C11.0607 13.5255 10.9524 13.6481 10.82 13.74L3.60998 18.788C3.47395 18.8847 3.31589 18.9457 3.15021 18.9657C2.98453 18.9856 2.81649 18.9638 2.66141 18.9021C2.50634 18.8405 2.36915 18.741 2.26235 18.6128C2.15556 18.4846 2.08255 18.3317 2.04998 18.168C1.92367 17.1361 2.15295 16.092 2.69998 15.208L5.81998 9.598L8.75998 4.308C8.97328 3.92639 9.22169 3.5655 9.50198 3.23C9.63697 3.07785 9.81516 2.97048 10.0128 2.92223C10.2104 2.87397 10.418 2.88712 10.6079 2.95992C10.7978 3.03272 10.9611 3.16171 11.0758 3.32967C11.1905 3.49764 11.2513 3.6966 11.25 3.9Z"
    fill="currentColor"
  />
  <path
    d="M20.39 18.788L13.18 13.74C13.0476 13.6481 12.9393 13.5255 12.8644 13.3827C12.7895 13.2399 12.7503 13.0812 12.75 12.92V3.89996C12.7483 3.69611 12.8089 3.49659 12.9237 3.32814C13.0385 3.15969 13.2021 3.03035 13.3925 2.95746C13.5828 2.88457 13.7909 2.87161 13.9889 2.92031C14.1869 2.96902 14.3652 3.07706 14.5 3.22996C14.7797 3.56618 15.0275 3.92774 15.24 4.30996L18.18 9.59996L21.3 15.21C21.8471 16.094 22.0763 17.1381 21.95 18.17C21.9172 18.3335 21.844 18.4861 21.7371 18.6141C21.6302 18.7421 21.493 18.8413 21.3379 18.9028C21.1829 18.9642 21.0149 18.9858 20.8494 18.9658C20.6838 18.9457 20.5259 18.8846 20.39 18.788Z"
    fill="currentColor"
  />
  <path
    d="M5.26018 19.14L11.4102 15.04C11.5917 14.932 11.799 14.8749 12.0102 14.8749C12.2214 14.8749 12.4287 14.932 12.6102 15.04L18.7602 19.14C20.3902 20.23 20.1202 21.12 18.1602 21.12H5.85018C3.90018 21.11 3.63018 20.22 5.26018 19.14Z"
    fill="currentColor"
  />
</svg>
