<svg
  width="16"
  height="17"
  viewBox="0 0 16 17"
  fill="none"
  xmlns="http://www.w3.org/2000/svg"
>
  <path
    fill-rule="evenodd"
    clip-rule="evenodd"
    d="M7.99984 2.50033C4.68613 2.50033 1.99984 5.18662 1.99984 8.50033C1.99984 11.814 4.68613 14.5003 7.99984 14.5003C11.3135 14.5003 13.9998 11.814 13.9998 8.50033C13.9998 5.18662 11.3135 2.50033 7.99984 2.50033ZM0.666504 8.50033C0.666504 4.45024 3.94975 1.16699 7.99984 1.16699C12.0499 1.16699 15.3332 4.45024 15.3332 8.50033C15.3332 12.5504 12.0499 15.8337 7.99984 15.8337C3.94975 15.8337 0.666504 12.5504 0.666504 8.50033Z"
    fill="currentColor"
  />
  <path
    fill-rule="evenodd"
    clip-rule="evenodd"
    d="M8.17199 5.8496C7.86165 5.79637 7.54247 5.85469 7.27101 6.01423C6.99954 6.17378 6.7933 6.42425 6.6888 6.72128C6.56662 7.06861 6.18601 7.25113 5.83869 7.12895C5.49136 7.00676 5.30884 6.62615 5.43103 6.27883C5.64001 5.68475 6.05249 5.18381 6.59543 4.86472C7.13836 4.54563 7.77671 4.42899 8.3974 4.53546C9.0181 4.64193 9.58108 4.96463 9.98665 5.44641C10.3921 5.92809 10.6141 6.53771 10.6132 7.16733C10.6129 8.18757 9.85654 8.86132 9.31638 9.22142C9.02596 9.41504 8.74028 9.5574 8.52984 9.65093C8.42367 9.69812 8.33427 9.73392 8.26985 9.75846C8.23758 9.77076 8.21142 9.78028 8.19238 9.78705L8.16923 9.79516L8.16185 9.79768L8.15926 9.79856L8.15823 9.7989C8.15803 9.79896 8.1574 9.79918 7.94658 9.16672L8.1574 9.79918C7.8081 9.91561 7.43056 9.72684 7.31413 9.37754C7.19777 9.02848 7.38622 8.6512 7.73507 8.5345L7.73421 8.53479C7.73428 8.53476 7.73434 8.53475 7.73507 8.5345L7.7457 8.53077C7.75596 8.52712 7.77277 8.52102 7.79519 8.51248C7.84014 8.49535 7.90699 8.46866 7.98832 8.43251C8.15288 8.35938 8.3672 8.25174 8.57678 8.11202C9.03651 7.80553 9.27991 7.47948 9.27991 7.16672L9.27992 7.16573C9.28038 6.85085 9.1694 6.54597 8.96662 6.30507C8.76383 6.06418 8.48234 5.90283 8.17199 5.8496Z"
    fill="currentColor"
  />
  <path
    fill-rule="evenodd"
    clip-rule="evenodd"
    d="M7.3335 11.8337C7.3335 11.4655 7.63197 11.167 8.00016 11.167H8.00683C8.37502 11.167 8.6735 11.4655 8.6735 11.8337C8.6735 12.2018 8.37502 12.5003 8.00683 12.5003H8.00016C7.63197 12.5003 7.3335 12.2018 7.3335 11.8337Z"
    fill="currentColor"
  />
</svg>
