<svg
  width="24"
  height="24"
  viewBox="0 0 24 24"
  fill="none"
  xmlns="http://www.w3.org/2000/svg"
>
  <path
    d="M20.0402 6.82002L14.2802 2.79002C13.4591 2.2547 12.495 1.9806 11.5151 2.0038C10.5351 2.02701 9.58514 2.34643 8.79023 2.92002L3.78023 6.83002C3.25113 7.28409 2.81969 7.84081 2.51201 8.46648C2.20433 9.09215 2.02682 9.77375 1.99023 10.47V17.37C1.98997 18.5965 2.47625 19.773 3.34238 20.6414C4.20851 21.5098 5.38375 21.9991 6.61023 22.002H17.3902C18.6154 22.0015 19.7902 21.5146 20.6565 20.6483C21.5228 19.782 22.0097 18.6072 22.0102 17.382V10.602C21.9743 9.8668 21.7795 9.14808 21.4395 8.49524C21.0994 7.8424 20.6221 7.2709 20.0402 6.82002ZM12.7502 18.002C12.7502 18.2009 12.6712 18.3917 12.5306 18.5323C12.3899 18.673 12.1991 18.752 12.0002 18.752C11.8013 18.752 11.6106 18.673 11.4699 18.5323C11.3293 18.3917 11.2502 18.2009 11.2502 18.002V15.002C11.2502 14.8031 11.3293 14.6123 11.4699 14.4717C11.6106 14.331 11.8013 14.252 12.0002 14.252C12.1991 14.252 12.3899 14.331 12.5306 14.4717C12.6712 14.6123 12.7502 14.8031 12.7502 15.002V18.002Z"
    fill="currentColor"
  />
</svg>
