<svg
  width="24"
  height="24"
  viewBox="0 0 24 24"
  fill="none"
  xmlns="http://www.w3.org/2000/svg"
>
  <path
    d="M9.02 2.83999L3.63 7.03999C3.15049 7.45659 2.75923 7.96497 2.47928 8.53517C2.19934 9.10536 2.03638 9.72583 2 10.36L2 17.77C2.00131 18.8871 2.44497 19.9582 3.23393 20.749C4.02289 21.5398 5.09293 21.986 6.21 21.99H17.79C18.9055 21.9866 19.9743 21.5419 20.7631 20.7531C21.5519 19.9643 21.9966 18.8955 22 17.78V10.5C21.9623 9.83007 21.7822 9.17588 21.4718 8.581C21.1614 7.98611 20.7279 7.46419 20.2 7.04999L14.02 2.71699C13.2685 2.23892 12.3917 1.99532 11.5013 2.01723C10.6109 2.03913 9.7471 2.32554 9.02 2.83999V2.83999Z"
    stroke="currentColor"
    stroke-width="1.5"
    stroke-linecap="round"
    stroke-linejoin="round"
  />
  <path
    d="M12 17.99V14.99"
    stroke="currentColor"
    stroke-width="1.5"
    stroke-linecap="round"
    stroke-linejoin="round"
  />
</svg>
