<svg
  width="24"
  height="24"
  viewBox="0 0 24 24"
  fill="none"
  xmlns="http://www.w3.org/2000/svg"
>
  <path
    d="M10.4167 15.9429H10.8333V12.5571H10.4167C10.1865 12.5571 10 12.3473 10 12.0884V10.9688C10 10.7099 10.1865 10.5 10.4167 10.5H12.75C12.9801 10.5 13.1667 10.7099 13.1667 10.9688V15.9429H13.5833C13.8135 15.9429 14 16.1527 14 16.4116V17.5312C14 17.7901 13.8135 18 13.5833 18H10.4167C10.1865 18 10 17.7901 10 17.5312V16.4116C10 16.1527 10.1865 15.9429 10.4167 15.9429ZM12 6C11.1716 6 10.5 6.75551 10.5 7.6875C10.5 8.61949 11.1716 9.375 12 9.375C12.8284 9.375 13.5 8.61949 13.5 7.6875C13.5 6.75551 12.8284 6 12 6Z"
    fill="currentColor"
  />
</svg>
