<svg
  width="24"
  height="40"
  viewBox="0 0 24 40"
  fill="none"
  xmlns="http://www.w3.org/2000/svg"
>
  <path
    d="M1.91294 26.984L0.720215 20.2556L8.65184 26.6649V36.8506L1.91294 26.984Z"
    fill="url(#paint0_linear)"
  />
  <path
    d="M8.56226 36.7708V19.9365L15.9572 13.5006L19.0582 22.6491L19.8633 30.2285L14.8837 38.3664L11.9019 39.2707L8.56226 36.7708Z"
    fill="url(#paint1_linear)"
  />
  <path
    d="M11.8124 37.5686L8.62183 36.691L11.8124 39.2707L14.9731 38.393L18.4618 32.2763L14.5556 36.691L11.8124 37.5686Z"
    fill="url(#paint2_linear)"
  />
  <path
    d="M9.84444 21.0534L12.9455 16.6122L8.56226 20.096V25.3352L9.84444 21.0534Z"
    fill="url(#paint3_linear)"
  />
  <path
    d="M19.207 25.1756L15.8972 14.0857L14.1379 8.39445L17.5372 5.46906L21.8608 17.2238L22.4572 26.4521L20.5787 29.4307L19.207 25.1756Z"
    fill="url(#paint4_linear)"
  />
  <path
    d="M6.56423 2.59685L1.46533 11.8783L14.8537 8.04872L17.5671 5.44246L9.87404 0.309723L6.56423 2.59685Z"
    fill="url(#paint5_linear)"
  />
  <path
    d="M14.4661 6.45305L17.3287 5.36267H17.4778L15.0029 7.83596L10.2021 7.33066L14.4661 6.45305Z"
    fill="url(#paint6_linear)"
  />
  <path
    d="M10.2617 7.35727L1.46533 11.8783L8.59187 20.0694L15.8973 14.0857L15.0624 7.75619L10.2617 7.35727Z"
    fill="url(#paint7_linear)"
  />
  <path
    d="M4.23856 14.9633L10.3215 7.41046L1.55493 11.9315L4.23856 14.9633Z"
    fill="url(#paint8_linear)"
  />
  <path
    d="M14.2873 13.5272L8.62183 19.9364L15.9571 14.1388L14.9433 7.88913L14.2873 13.5272Z"
    fill="url(#paint9_linear)"
  />
  <path
    d="M0.720215 20.2556L1.55512 11.9049L8.5922 20.0162V25.7075L5.40166 25.9202L0.720215 20.2556Z"
    fill="url(#paint10_linear)"
  />
  <path
    d="M8.53234 20.0428V23.5799L1.58472 11.9315L6.08725 17.144L8.53234 20.0428Z"
    fill="url(#paint11_linear)"
  />
  <path
    fill-rule="evenodd"
    clip-rule="evenodd"
    d="M9.90302 0.316772L17.6347 5.35398L15.1013 7.82873L15.9963 14.1349L8.61376 20.1281L1.44897 11.9121L6.42303 2.71882L9.90302 0.316772ZM9.90528 0.46223L6.52709 2.79401L1.60153 11.8977L8.63018 19.9576L15.8585 14.0896L14.9644 7.79001L17.4404 5.37137L9.90528 0.46223Z"
    fill="url(#paint12_linear)"
  />
  <path
    fill-rule="evenodd"
    clip-rule="evenodd"
    d="M21.7654 17.4076L17.5051 5.38019L17.6294 5.34517L21.8946 17.3862L22.5238 26.4401L19.5016 30.8969L19.39 30.8367L22.3911 26.411L21.7654 17.4076Z"
    fill="url(#paint13_linear)"
  />
  <path
    fill-rule="evenodd"
    clip-rule="evenodd"
    d="M8.55664 19.9099H8.687V36.6383L11.8873 39.1784L14.9277 38.2919L19.239 30.9728L19.3544 31.0268L15.0185 38.3878L11.8566 39.3097L8.55664 36.6905V19.9099Z"
    fill="url(#paint14_linear)"
  />
  <path
    fill-rule="evenodd"
    clip-rule="evenodd"
    d="M0.755847 20.3596L1.59002 11.91L1.46016 11.8998L0.624512 20.3643L1.88039 26.925L8.65562 36.8277L8.76689 36.7671L2.00469 26.8834L0.755847 20.3596Z"
    fill="url(#paint15_linear)"
  />
  <path
    fill-rule="evenodd"
    clip-rule="evenodd"
    d="M19.1142 25.0575L15.864 14.1272L15.99 14.0974L19.2402 25.0277L19.1142 25.0575Z"
    fill="url(#paint16_linear)"
  />
  <path
    fill-rule="evenodd"
    clip-rule="evenodd"
    d="M10.2175 7.29736L15.0993 7.77818L15.085 7.89375L10.2462 7.41717L1.58777 11.955L1.52173 11.8548L10.2175 7.29736Z"
    fill="url(#paint17_linear)"
  />
  <path
    d="M5.90862 28.5531L5.22281 31.6115L4.86499 30.92L5.10354 27.7021L19.4461 27.5691L19.5951 30.1222L18.8199 31.6115L18.4024 28.5531H15.033C13.0769 29.5318 11.9518 32.0192 11.6635 33.0476C10.7571 30.4945 9.21844 28.9254 8.53262 28.5531H5.90862Z"
    fill="#004E56"
    fill-opacity="0.14"
  />
  <path
    d="M5.6997 24.9362L0.690251 19.5642L0.630615 19.9897L3.52297 26.1064L19.1477 25.8936L21.9208 17.3302L21.7418 17.0111L18.9688 24.9362H15.0626C13.3689 23.5533 12.0907 20.7077 11.6633 19.4578C11.2816 20.7556 9.37727 23.6508 8.47278 24.9362H5.6997Z"
    fill="#004A4F"
    fill-opacity="0.24"
  />
  <path
    d="M5.43137 25.4149L0.60083 20.3354L1.3761 24.4309L3.04592 26.133V28.9786L5.07355 31.6115L5.43137 28.1808H8.59209C10.238 29.202 11.3453 31.7622 11.6932 32.9146C11.6932 31.2976 13.9196 29.085 15.0328 28.1808H18.8495V31.9306L20.9666 28.8456L20.7579 26.4787L22.2786 22.7821L21.9208 17.3302L19.1179 25.1224H15.0328C12.8859 23.6757 11.9118 21.0091 11.6932 19.8567C11.5023 21.6013 9.54627 24.2891 8.59209 25.4149H5.43137Z"
    fill="#006E7B"
  />
  <path
    d="M5.10342 27.8616L4.74561 31.1859L5.0736 31.6381L5.43142 28.1542L5.10342 27.8616Z"
    fill="url(#paint18_linear)"
  />
  <path
    opacity="0.7"
    d="M11.6931 22.5693V20.9471C12.3372 22.8832 14.0885 24.7146 14.8837 25.3884L14.496 26.1064C13.4464 25.3618 12.1901 23.4381 11.6931 22.5693Z"
    fill="url(#paint19_linear)"
  />
  <path
    d="M11.6635 23.2608C11.1387 24.3033 9.85456 26.0709 9.27808 26.8244C10.3277 27.8882 11.3057 29.4484 11.6635 30.0956C11.9498 29.4147 13.6514 27.6311 14.4664 26.8244C13.4168 25.9309 12.1605 24.0763 11.6635 23.2608Z"
    fill="url(#paint20_radial)"
  />
  <path
    d="M11.653 24.5373C11.3273 25.1864 10.5302 26.2868 10.1724 26.7559C10.8238 27.4182 11.4309 28.3896 11.653 28.7924C11.8307 28.3686 12.8868 27.2582 13.3927 26.7559C12.7412 26.1996 11.9615 25.0451 11.653 24.5373Z"
    fill="url(#paint21_radial)"
  />
  <path
    d="M14.8837 25.3884C13.3331 24.6012 12.1006 22.0729 11.6931 20.9205V20.4418V19.8833C12.3133 22.5853 14.1084 24.6171 15.0327 25.1224L14.8837 25.3884Z"
    fill="url(#paint22_linear)"
  />
  <path
    d="M19.2966 25.3883H14.8835L15.0028 25.1224H19.1177L19.2966 25.3883Z"
    fill="#1197A7"
  />
  <path
    d="M21.9504 17.9951L19.2966 25.3883L19.1177 25.1224L21.9206 17.3302L21.9504 17.9951Z"
    fill="url(#paint23_linear)"
  />
  <path
    d="M8.56226 25.4149C10.2798 23.4789 11.6932 19.8567 11.6932 19.8567V20.3886V20.9205C11.0252 22.5587 9.53632 24.7767 8.86044 25.6809L8.56226 25.4149Z"
    fill="url(#paint24_linear)"
  />
  <path
    d="M5.2522 25.6809H8.86019L8.59183 25.4149H5.43111L5.2522 25.6809Z"
    fill="url(#paint25_linear)"
  />
  <path
    d="M0.60083 20.362L5.25246 25.6809L5.61028 25.4149L0.660466 19.7769L0.60083 20.362Z"
    fill="url(#paint26_linear)"
  />
  <path
    d="M11.6333 32.8614V30.9732C13.2793 28.6754 14.6052 27.7996 15.0624 27.6489V28.1808C11.8718 30.787 11.6333 32.8614 11.6333 32.8614Z"
    fill="url(#paint27_linear)"
  />
  <path
    d="M19.1776 27.6489H15.0627V28.1808H18.8496L19.1776 27.6489Z"
    fill="url(#paint28_linear)"
  />
  <path
    d="M8.80096 27.8882L5.10352 27.8616L5.43151 28.1808H8.59224L8.80096 27.8882Z"
    fill="url(#paint29_linear)"
  />
  <path
    d="M19.3565 31.1859L19.1776 27.6489L18.8496 28.1808V31.9306L19.3565 31.1859Z"
    fill="url(#paint30_linear)"
  />
  <path
    d="M20.221 26L19.2668 25.3618L21.9505 18.0749L22.1592 21.1864L20.221 26Z"
    fill="url(#paint31_linear)"
  />
  <path
    d="M4.47719 26.3989L1.13756 23.1278L0.60083 20.362L5.31209 25.6809L4.47719 26.3989Z"
    fill="url(#paint32_linear)"
  />
  <path
    d="M8.86035 27.3829L9.27781 26.8245C10.3811 27.9414 11.2557 29.3775 11.6931 30.0956L11.6931 30.0956L11.3353 30.6541C10.9536 29.6967 9.52629 28.0744 8.86035 27.3829Z"
    fill="url(#paint33_linear)"
  />
  <defs>
    <linearGradient
      id="paint0_linear"
      x1="5.04385"
      y1="23.447"
      x2="5.04385"
      y2="36.8506"
      gradientUnits="userSpaceOnUse"
    >
      <stop stop-color="#68EBEB" />
      <stop offset="1" stop-color="#07A7A7" />
    </linearGradient>
    <linearGradient
      id="paint1_linear"
      x1="13.1542"
      y1="16.3994"
      x2="13.9966"
      y2="39.2786"
      gradientUnits="userSpaceOnUse"
    >
      <stop stop-color="#95FFFF" />
      <stop offset="1" stop-color="#00C5C5" />
    </linearGradient>
    <linearGradient
      id="paint2_linear"
      x1="13.5418"
      y1="32.2763"
      x2="13.5418"
      y2="39.2707"
      gradientUnits="userSpaceOnUse"
    >
      <stop stop-color="#D5FFFC" stop-opacity="0.51" />
      <stop offset="1" stop-color="#00E1EF" stop-opacity="0" />
    </linearGradient>
    <linearGradient
      id="paint3_linear"
      x1="7.93608"
      y1="17.7823"
      x2="9.14318"
      y2="20.6549"
      gradientUnits="userSpaceOnUse"
    >
      <stop stop-color="white" />
      <stop offset="1" stop-color="#A9FFFF" stop-opacity="0.19" />
    </linearGradient>
    <linearGradient
      id="paint4_linear"
      x1="17.2987"
      y1="3.12874"
      x2="20.0648"
      y2="22.1383"
      gradientUnits="userSpaceOnUse"
    >
      <stop stop-color="#A7FFFF" />
      <stop offset="1" stop-color="#35DADA" />
    </linearGradient>
    <linearGradient
      id="paint5_linear"
      x1="7.57805"
      y1="-7.90798"
      x2="9.1222"
      y2="11.909"
      gradientUnits="userSpaceOnUse"
    >
      <stop stop-color="#00D3D3" />
      <stop offset="1" stop-color="#72FFFF" />
    </linearGradient>
    <linearGradient
      id="paint6_linear"
      x1="15.4501"
      y1="8.52742"
      x2="14.6225"
      y2="6.07117"
      gradientUnits="userSpaceOnUse"
    >
      <stop stop-color="#EEFFFF" />
      <stop offset="1" stop-color="#56F1F1" />
    </linearGradient>
    <linearGradient
      id="paint7_linear"
      x1="1.52497"
      y1="9.75078"
      x2="13.6377"
      y2="21.9826"
      gradientUnits="userSpaceOnUse"
    >
      <stop stop-color="#00ECEC" />
      <stop offset="1" stop-color="#AFFFFF" />
    </linearGradient>
    <linearGradient
      id="paint8_linear"
      x1="2.80729"
      y1="10.9475"
      x2="5.95082"
      y2="13.5526"
      gradientUnits="userSpaceOnUse"
    >
      <stop stop-color="#B5FBFF" />
      <stop offset="1" stop-color="#B5FBFF" stop-opacity="0" />
    </linearGradient>
    <linearGradient
      id="paint9_linear"
      x1="16.3149"
      y1="14.2452"
      x2="13.1173"
      y2="12.0006"
      gradientUnits="userSpaceOnUse"
    >
      <stop stop-color="#DAFFFF" />
      <stop offset="1" stop-color="#46F4F4" stop-opacity="0" />
    </linearGradient>
    <linearGradient
      id="paint10_linear"
      x1="8.56238"
      y1="20.3354"
      x2="3.49694"
      y2="20.636"
      gradientUnits="userSpaceOnUse"
    >
      <stop stop-color="#8DFFFF" />
      <stop offset="1" stop-color="#18E4E4" />
    </linearGradient>
    <linearGradient
      id="paint11_linear"
      x1="8.6218"
      y1="19.6971"
      x2="5.24311"
      y2="20.9054"
      gradientUnits="userSpaceOnUse"
    >
      <stop stop-color="#D3FCFF" />
      <stop offset="1" stop-color="#64F6F6" stop-opacity="0" />
    </linearGradient>
    <linearGradient
      id="paint12_linear"
      x1="9.53142"
      y1="0.389501"
      x2="9.53142"
      y2="20.0428"
      gradientUnits="userSpaceOnUse"
    >
      <stop stop-color="white" />
      <stop offset="1" stop-color="#95FFFF" />
    </linearGradient>
    <linearGradient
      id="paint13_linear"
      x1="19.8327"
      y1="5.43757"
      x2="22.4092"
      y2="27.6117"
      gradientUnits="userSpaceOnUse"
    >
      <stop stop-color="#E5FFFF" />
      <stop offset="1" stop-color="#36E8E8" />
    </linearGradient>
    <linearGradient
      id="paint14_linear"
      x1="13.9593"
      y1="19.9099"
      x2="13.9593"
      y2="39.2441"
      gradientUnits="userSpaceOnUse"
    >
      <stop offset="0.291667" stop-color="#95FFFF" />
      <stop offset="1" stop-color="#16C8C8" />
    </linearGradient>
    <linearGradient
      id="paint15_linear"
      x1="5.19272"
      y1="11.9315"
      x2="5.19272"
      y2="36.7974"
      gradientUnits="userSpaceOnUse"
    >
      <stop stop-color="#C1FFFF" />
      <stop offset="0.473958" stop-color="#18A6A6" />
      <stop offset="1" stop-color="#17D0D1" />
    </linearGradient>
    <linearGradient
      id="paint16_linear"
      x1="17.5521"
      y1="14.1123"
      x2="17.5521"
      y2="25.0426"
      gradientUnits="userSpaceOnUse"
    >
      <stop stop-color="#B7FFFF" />
      <stop offset="1" stop-color="#5EE4E4" />
    </linearGradient>
    <linearGradient
      id="paint17_linear"
      x1="8.32347"
      y1="7.35726"
      x2="8.32347"
      y2="11.9049"
      gradientUnits="userSpaceOnUse"
    >
      <stop stop-color="#E7FFFF" />
      <stop offset="1" stop-color="#C0FFFF" />
    </linearGradient>
    <linearGradient
      id="paint18_linear"
      x1="8.26414"
      y1="30.069"
      x2="5.73654"
      y2="27.1464"
      gradientUnits="userSpaceOnUse"
    >
      <stop stop-color="#40CDD6" />
      <stop offset="1" stop-color="#40CDD6" stop-opacity="0" />
    </linearGradient>
    <linearGradient
      id="paint19_linear"
      x1="11.872"
      y1="24.1384"
      x2="13.9661"
      y2="23.6424"
      gradientUnits="userSpaceOnUse"
    >
      <stop stop-color="#AAFFFF" />
      <stop offset="1" stop-color="#A2FFF9" stop-opacity="0" />
    </linearGradient>
    <radialGradient
      id="paint20_radial"
      cx="0"
      cy="0"
      r="1"
      gradientUnits="userSpaceOnUse"
      gradientTransform="translate(11.753 26.7447) rotate(94.0811) scale(2.93283 2.22404)"
    >
      <stop stop-color="#00DCDC" />
      <stop offset="1" stop-color="#004150" />
    </radialGradient>
    <radialGradient
      id="paint21_radial"
      cx="0"
      cy="0"
      r="1"
      gradientUnits="userSpaceOnUse"
      gradientTransform="translate(11.7825 26.6649) rotate(97.9781) scale(1.71869 1.29561)"
    >
      <stop stop-color="#AAFFFF" />
      <stop offset="1" stop-color="#0BF5F5" />
    </radialGradient>
    <linearGradient
      id="paint22_linear"
      x1="12.6473"
      y1="23.1012"
      x2="15.1746"
      y2="22.8012"
      gradientUnits="userSpaceOnUse"
    >
      <stop stop-color="#41D1DA" />
      <stop offset="1" stop-color="#69DDE4" stop-opacity="0" />
    </linearGradient>
    <linearGradient
      id="paint23_linear"
      x1="20.534"
      y1="17.3302"
      x2="24.572"
      y2="30.3823"
      gradientUnits="userSpaceOnUse"
    >
      <stop stop-color="#00A7BB" />
      <stop offset="1" stop-color="#00A7BB" stop-opacity="0" />
    </linearGradient>
    <linearGradient
      id="paint24_linear"
      x1="10.1277"
      y1="19.8567"
      x2="10.1277"
      y2="25.6809"
      gradientUnits="userSpaceOnUse"
    >
      <stop stop-color="#004B50" />
      <stop offset="1" stop-color="#006970" />
    </linearGradient>
    <linearGradient
      id="paint25_linear"
      x1="7.0711"
      y1="26.266"
      x2="7.0711"
      y2="25.0958"
      gradientUnits="userSpaceOnUse"
    >
      <stop stop-color="#004E53" />
      <stop offset="1" stop-color="#004E53" stop-opacity="0" />
    </linearGradient>
    <linearGradient
      id="paint26_linear"
      x1="3.10555"
      y1="19.7769"
      x2="3.10555"
      y2="25.6809"
      gradientUnits="userSpaceOnUse"
    >
      <stop stop-color="#004F5A" />
      <stop offset="1" stop-color="#009BB0" />
    </linearGradient>
    <linearGradient
      id="paint27_linear"
      x1="12.9155"
      y1="28.9786"
      x2="14.3813"
      y2="29.8636"
      gradientUnits="userSpaceOnUse"
    >
      <stop stop-color="#25C1CB" />
      <stop offset="1" stop-color="#42D1DA" stop-opacity="0" />
    </linearGradient>
    <linearGradient
      id="paint28_linear"
      x1="17.0904"
      y1="26.9042"
      x2="17.0904"
      y2="28.7126"
      gradientUnits="userSpaceOnUse"
    >
      <stop stop-color="#000B0D" />
      <stop offset="1" stop-color="#1FB0B9" stop-opacity="0" />
    </linearGradient>
    <linearGradient
      id="paint29_linear"
      x1="7.19078"
      y1="26.9042"
      x2="7.19078"
      y2="28.7127"
      gradientUnits="userSpaceOnUse"
    >
      <stop stop-color="#000B0D" />
      <stop offset="1" stop-color="#00828A" stop-opacity="0" />
    </linearGradient>
    <linearGradient
      id="paint30_linear"
      x1="19.1031"
      y1="27.6489"
      x2="19.1031"
      y2="31.9306"
      gradientUnits="userSpaceOnUse"
    >
      <stop stop-color="#004959" />
      <stop offset="1" stop-color="#44DED5" stop-opacity="0" />
    </linearGradient>
    <linearGradient
      id="paint31_linear"
      x1="17.1796"
      y1="19.1386"
      x2="20.298"
      y2="25.3484"
      gradientUnits="userSpaceOnUse"
    >
      <stop stop-color="#80FFFF" />
      <stop offset="1" stop-color="#80FFFF" stop-opacity="0" />
    </linearGradient>
    <linearGradient
      id="paint32_linear"
      x1="2.18119"
      y1="18.7929"
      x2="2.58481"
      y2="25.3946"
      gradientUnits="userSpaceOnUse"
    >
      <stop stop-color="#81FFFF" />
      <stop offset="1" stop-color="#81FFFF" stop-opacity="0" />
    </linearGradient>
    <linearGradient
      id="paint33_linear"
      x1="11.3054"
      y1="28.5265"
      x2="8.90536"
      y2="27.7717"
      gradientUnits="userSpaceOnUse"
    >
      <stop stop-color="#89FFF8" />
      <stop offset="1" stop-color="#A5FAFF" stop-opacity="0" />
    </linearGradient>
  </defs>
</svg>
