<svg
  width="24"
  height="24"
  viewBox="0 0 24 24"
  fill="none"
  xmlns="http://www.w3.org/2000/svg"
>
  <path
    d="M11.9953 21C11.7122 21 11.4385 20.895 11.2215 20.7039C10.4098 19.9873 9.63592 19.3185 8.94699 18.7261C7.17274 17.293 5.5023 15.7167 3.98286 14.0065C2.75599 12.6594 2.0482 10.9109 2.00101 9.07654C1.9727 7.48101 2.539 5.94279 3.58656 4.75809C4.61525 3.62115 6.06861 2.99062 7.58805 3.00017C8.72998 2.99062 9.83413 3.38236 10.7307 4.09891C11.212 4.48107 11.6461 4.93003 12.0047 5.44595C12.3633 4.93959 12.788 4.49063 13.2788 4.09891C14.1753 3.38236 15.2796 3.00017 16.4215 3.00017C17.941 2.99062 19.3943 3.63071 20.4136 4.75809C21.4611 5.94279 22.0273 7.49057 21.999 9.07654C21.9518 10.9109 21.244 12.6594 20.0171 14.0065C18.4883 15.7071 16.8273 17.293 15.053 18.7261C14.3641 19.3185 13.5808 19.9969 12.7787 20.7134C12.5522 20.895 12.2784 21 11.9953 21ZM7.58805 4.1753C6.39892 4.16575 5.25691 4.67206 4.44529 5.55103C3.59592 6.51599 3.14294 7.77718 3.17125 9.06698C3.21844 10.6243 3.8225 12.1147 4.88894 13.2421C6.37062 14.895 7.98442 16.4236 9.71148 17.809C10.4004 18.4013 11.1837 19.0796 11.9953 19.7962C12.8163 19.0701 13.5997 18.4013 14.2886 17.7994C16.0157 16.4045 17.6295 14.8758 19.1112 13.2325C20.1682 12.1052 20.7816 10.6147 20.8287 9.05742C20.8571 7.76762 20.4041 6.50655 19.5547 5.54159C18.7525 4.65306 17.6106 4.15618 16.4121 4.16574C15.5344 4.16574 14.6755 4.46193 13.9866 5.01606C13.4486 5.45555 12.9863 5.99061 12.6371 6.60207C12.4295 6.95557 11.9764 7.07024 11.6272 6.86005C11.5234 6.79317 11.4291 6.70717 11.3725 6.60207C11.0233 6.00017 10.5608 5.46512 10.0229 5.02563C9.3245 4.47149 8.46573 4.1753 7.58805 4.1753Z"
    fill="currentColor"
    stroke="currentColor"
    stroke-width="0.25"
  />
</svg>
