<svg
  width="16"
  height="16"
  viewBox="0 0 16 16"
  fill="none"
  xmlns="http://www.w3.org/2000/svg"
>
  <path
    d="M15.249 8.43267L15.255 8.42667C15.264 8.41629 15.272 8.40513 15.279 8.39333C15.279 8.39333 15.279 8.38734 15.285 8.38401C15.291 8.38067 15.3003 8.36 15.3063 8.34733C15.3057 8.34538 15.3057 8.3433 15.3063 8.34134C15.3123 8.32934 15.3183 8.31734 15.3243 8.30201C15.3243 8.30201 15.3243 8.302 15.3243 8.296C15.3243 8.29 15.3337 8.26867 15.3397 8.25334V8.24734C15.3442 8.23347 15.3474 8.21918 15.349 8.20467C15.3475 8.19967 15.3475 8.19434 15.349 8.18933C15.349 8.17733 15.349 8.16534 15.355 8.15267C15.359 8.11835 15.359 8.08367 15.355 8.04934C15.3545 8.03692 15.3525 8.0246 15.349 8.01267C15.3505 8.00766 15.3505 8.00234 15.349 7.99734C15.349 7.98201 15.343 7.97001 15.3397 7.95467V7.94867C15.3359 7.93399 15.3308 7.91971 15.3243 7.90601C15.3243 7.90601 15.3243 7.90601 15.3243 7.90001C15.3243 7.89401 15.3123 7.87267 15.3063 7.86067C15.3069 7.85871 15.3069 7.85663 15.3063 7.85467C15.3004 7.8418 15.2932 7.82953 15.285 7.81801C15.285 7.81801 15.285 7.812 15.279 7.80867C15.2717 7.79706 15.2637 7.78593 15.255 7.77534L15.249 7.76934C15.2376 7.75548 15.2254 7.74234 15.2123 7.73L12.2123 4.73C12.1643 4.67959 12.1067 4.63929 12.0429 4.61147C11.979 4.58366 11.9103 4.5689 11.8407 4.56805C11.7711 4.5672 11.702 4.58028 11.6375 4.60653C11.573 4.63278 11.5144 4.67167 11.4652 4.7209C11.416 4.77013 11.3771 4.82871 11.3508 4.89319C11.3246 4.95767 11.3115 5.02675 11.3124 5.09637C11.3132 5.16598 11.328 5.23473 11.3558 5.29856C11.3836 5.36238 11.4239 5.41999 11.4743 5.468L13.5877 7.58134H5.18766C5.04957 7.58134 4.91713 7.6362 4.81949 7.73384C4.72184 7.83148 4.66699 7.96391 4.66699 8.102C4.66699 8.24009 4.72184 8.37253 4.81949 8.47018C4.91713 8.56782 5.04957 8.62267 5.18766 8.62267H13.5917L11.4937 10.7207C11.4418 10.768 11.4 10.8254 11.3709 10.8893C11.3418 10.9532 11.3258 11.0223 11.3241 11.0925C11.3224 11.1628 11.3349 11.2326 11.3609 11.2978C11.3869 11.3631 11.4258 11.4224 11.4753 11.4722C11.5248 11.5221 11.5839 11.5614 11.649 11.5878C11.7141 11.6141 11.7838 11.6271 11.854 11.6258C11.9243 11.6246 11.9935 11.6091 12.0576 11.5804C12.1217 11.5517 12.1793 11.5102 12.227 11.4587L15.2117 8.474C15.225 8.45734 15.237 8.44534 15.249 8.43267Z"
    fill="currentColor"
  />
  <path
    d="M4.16016 1.70801H8.04616C8.18425 1.70801 8.31668 1.65315 8.41433 1.55551C8.51197 1.45786 8.56683 1.32543 8.56683 1.18734C8.56683 1.04925 8.51197 0.916815 8.41433 0.819171C8.31668 0.721528 8.18425 0.666672 8.04616 0.666672H4.16016C3.41086 0.667906 2.69261 0.966111 2.16277 1.49595C1.63293 2.02578 1.33473 2.74404 1.3335 3.49334V12.714C1.33473 13.4633 1.63293 14.1816 2.16277 14.7114C2.69261 15.2412 3.41086 15.5394 4.16016 15.5407H7.98283C8.12092 15.5407 8.25335 15.4858 8.351 15.3882C8.44864 15.2905 8.50349 15.1581 8.50349 15.02C8.50349 14.8819 8.44864 14.7495 8.351 14.6518C8.25335 14.5542 8.12092 14.4993 7.98283 14.4993H4.16016C3.68688 14.4986 3.23318 14.3103 2.89852 13.9756C2.56386 13.641 2.37553 13.1873 2.37483 12.714V3.49334C2.37553 3.02006 2.56386 2.56636 2.89852 2.2317C3.23318 1.89703 3.68688 1.70871 4.16016 1.70801Z"
    fill="currentColor"
  />
</svg>
