<svg
  width="24"
  height="24"
  viewBox="0 0 24 24"
  fill="none"
  xmlns="http://www.w3.org/2000/svg"
>
  <path
    d="M14.7 22.75H9.30001C4.36001 22.75 2.26001 20.64 2.26001 15.71V11.22C2.26132 11.0215 2.34076 10.8315 2.48113 10.6911C2.6215 10.5507 2.8115 10.4713 3.01001 10.47C3.20852 10.4713 3.39852 10.5507 3.53889 10.6911C3.67926 10.8315 3.7587 11.0215 3.76001 11.22V15.71C3.76001 19.8 5.21001 21.25 9.30001 21.25H14.69C18.78 21.25 20.23 19.8 20.23 15.71V11.22C20.23 11.0211 20.309 10.8303 20.4497 10.6896C20.5903 10.549 20.7811 10.47 20.98 10.47C21.1789 10.47 21.3697 10.549 21.5103 10.6896C21.651 10.8303 21.73 11.0211 21.73 11.22V15.71C21.74 20.64 19.63 22.75 14.7 22.75Z"
    fill="currentColor"
  />
  <path
    d="M12 12.75C11.4714 12.7595 10.9469 12.6556 10.4619 12.4453C9.97682 12.235 9.54247 11.9232 9.18808 11.5309C8.83368 11.1386 8.56747 10.6749 8.40738 10.1711C8.24728 9.66722 8.19702 9.13492 8.25997 8.61001L8.92997 1.93001C8.94919 1.74415 9.03638 1.57195 9.17481 1.44645C9.31323 1.32094 9.49313 1.25099 9.67997 1.25001H14.35C14.5373 1.24919 14.7182 1.31853 14.857 1.44438C14.9958 1.57022 15.0825 1.74346 15.1 1.93001L15.77 8.61001C15.8299 9.1348 15.7781 9.66634 15.6178 10.1696C15.4575 10.6729 15.1924 11.1366 14.84 11.53C14.4773 11.9194 14.0374 12.229 13.5484 12.4391C13.0595 12.6491 12.5321 12.755 12 12.75ZM10.35 2.75001L9.74997 8.76001C9.71123 9.07561 9.74026 9.39584 9.8351 9.69934C9.92994 10.0028 10.0884 10.2826 10.3 10.52C10.5229 10.7438 10.7879 10.9213 11.0796 11.0424C11.3713 11.1635 11.6841 11.2259 12 11.2259C12.3158 11.2259 12.6286 11.1635 12.9203 11.0424C13.2121 10.9213 13.477 10.7438 13.7 10.52C13.9103 10.2818 14.0679 10.002 14.1627 9.69868C14.2575 9.39541 14.2872 9.07555 14.25 8.76001L13.65 2.75001H10.35Z"
    fill="currentColor"
  />
  <path
    d="M18.31 12.75C17.3068 12.7309 16.3443 12.35 15.5996 11.6775C14.8548 11.005 14.3781 10.0861 14.257 9.09004L13.557 2.08004C13.548 1.97532 13.5605 1.86986 13.5937 1.77012C13.6269 1.67039 13.6801 1.57849 13.75 1.50004C13.8199 1.4205 13.9061 1.35699 14.0027 1.31384C14.0994 1.2707 14.2042 1.24893 14.31 1.25004H17.357C20.297 1.25004 21.667 2.48004 22.077 5.50004L22.357 8.28004C22.4225 8.8473 22.366 9.422 22.1915 9.96569C22.0169 10.5094 21.7283 11.0095 21.3449 11.4327C20.9615 11.8559 20.4921 12.1923 19.9682 12.4195C19.4443 12.6466 18.878 12.7594 18.307 12.75H18.31ZM15.14 2.75004L15.757 8.94004C15.8393 9.56538 16.1413 10.1411 16.609 10.5643C17.0767 10.9874 17.6796 11.2305 18.31 11.25C18.6721 11.2617 19.0324 11.1946 19.3659 11.0533C19.6995 10.912 19.9983 10.6999 20.2418 10.4317C20.4853 10.1635 20.6676 9.84559 20.7761 9.49997C20.8845 9.15435 20.9166 8.78928 20.87 8.43004L20.59 5.68004C20.28 3.42004 19.55 2.75004 17.357 2.75004H15.14Z"
    fill="currentColor"
  />
  <path
    d="M5.63989 12.75C5.06894 12.7593 4.50258 12.6466 3.9787 12.4194C3.45481 12.1922 2.98547 11.8558 2.60207 11.4327C2.21866 11.0095 1.93003 10.5093 1.75548 9.96565C1.58092 9.42196 1.52447 8.84726 1.58989 8.28L1.85989 5.53C2.27989 2.48 3.64989 1.25 6.58989 1.25H9.63989C9.74541 1.25091 9.8496 1.27358 9.94596 1.31659C10.0423 1.35961 10.1288 1.42205 10.1999 1.5C10.2713 1.57739 10.3252 1.66924 10.358 1.76932C10.3908 1.86939 10.4017 1.97535 10.3899 2.08L9.68989 9.09C9.56891 10.0856 9.09259 11.004 8.3485 11.6765C7.60442 12.3489 6.6426 12.7301 5.63989 12.75ZM6.58989 2.75C4.39989 2.75 3.66989 3.41 3.34989 5.7L3.07989 8.43C3.03333 8.78924 3.0654 9.15431 3.17387 9.49993C3.28235 9.84555 3.46463 10.1635 3.70812 10.4317C3.9516 10.6999 4.25046 10.912 4.58401 11.0533C4.91756 11.1946 5.27783 11.2617 5.63989 11.25C6.27028 11.2314 6.87337 10.9885 7.34077 10.5651C7.80817 10.1417 8.10925 9.56549 8.18989 8.94L8.80989 2.75H6.58989Z"
    fill="currentColor"
  />
  <path
    d="M14.5 22.75H9.50003C9.30152 22.7487 9.11152 22.6693 8.97115 22.5289C8.83078 22.3885 8.75134 22.1985 8.75003 22V19.5C8.69836 19.0608 8.74688 18.6155 8.89194 18.1977C9.03699 17.7799 9.27483 17.4003 9.58757 17.0876C9.90032 16.7748 10.2799 16.537 10.6977 16.3919C11.1155 16.2469 11.5608 16.1984 12 16.25C12.4393 16.1984 12.8846 16.2469 13.3024 16.3919C13.7202 16.537 14.0997 16.7748 14.4125 17.0876C14.7252 17.4003 14.9631 17.7799 15.1081 18.1977C15.2532 18.6155 15.3017 19.0608 15.25 19.5V22C15.2487 22.1985 15.1693 22.3885 15.0289 22.5289C14.8885 22.6693 14.6985 22.7487 14.5 22.75ZM10.25 21.25H13.75V19.5C13.75 18.24 13.26 17.75 12 17.75C10.74 17.75 10.25 18.24 10.25 19.5V21.25Z"
    fill="currentColor"
  />
  <path
    d="M3.5 19.5L3 11C3.66667 11.5 5.1 12.4 5.5 12C5.9 11.6 7 11.1667 7.5 11L9.5 10.5L11 11.5H13.5L14.5 10.5H16L18 12L20.5 11.5L21 12V14V18.5C21 18.9 19.6667 20 19 20.5L15 22V21L14 18.5L12.5 17H10.5C10.1667 17.5 9.5 18.6 9.5 19V21.5L7.5 22L3.5 19.5Z"
    fill="currentColor"
  />
</svg>
