<svg
  width="24"
  height="24"
  viewBox="0 0 24 24"
  fill="none"
  xmlns="http://www.w3.org/2000/svg"
>
  <path
    d="M14.4807 4.35755C13.9781 3.88073 13.1633 3.8809 12.6609 4.35755C12.1582 4.83469 12.1582 5.60789 12.6611 6.08503L17.6059 10.7781L3.28665 10.7794C2.57598 10.7796 2 11.3263 2 12.0011C2.00017 12.6756 2.57616 13.2221 3.28683 13.2221L17.6066 13.2208L12.6606 17.9149C12.158 18.3919 12.158 19.1654 12.6606 19.6422C12.9119 19.8806 13.2412 20 13.5706 20C13.8999 20 14.2291 19.8806 14.4805 19.6424L21.623 12.8634C21.8645 12.6344 22 12.3239 22 11.9998C21.9998 11.6757 21.8643 11.3654 21.6229 11.1359L14.4807 4.35755Z"
    fill="currentColor"
  />
</svg>
