<svg
  width="24"
  height="24"
  viewBox="0 0 24 24"
  fill="none"
  xmlns="http://www.w3.org/2000/svg"
>
  <path
    d="M12.16 10.87C12.0502 10.86 11.9398 10.86 11.83 10.87C10.6662 10.8268 9.56586 10.3285 8.76561 9.48242C7.96537 8.63632 7.52914 7.50994 7.55076 6.34555C7.57238 5.18115 8.05011 4.07175 8.88122 3.25593C9.71232 2.44012 10.8304 1.98306 11.995 1.98306C13.1596 1.98306 14.2777 2.44012 15.1088 3.25593C15.9399 4.07175 16.4176 5.18115 16.4392 6.34555C16.4608 7.50994 16.0246 8.63632 15.2244 9.48242C14.4241 10.3285 13.3238 10.8268 12.16 10.87Z"
    stroke="currentColor"
    stroke-width="1.5"
    stroke-linecap="round"
    stroke-linejoin="round"
  />
  <path
    d="M7.16 14.561C4.74 16.181 4.74 18.821 7.16 20.431C8.67326 21.3342 10.4027 21.811 12.165 21.811C13.9273 21.811 15.6567 21.3342 17.17 20.431C19.59 18.811 19.59 16.171 17.17 14.561C15.6551 13.6626 13.9263 13.1885 12.165 13.1885C10.4037 13.1885 8.67491 13.6626 7.16 14.561V14.561Z"
    stroke="currentColor"
    stroke-width="1.5"
    stroke-linecap="round"
    stroke-linejoin="round"
  />
</svg>
