<svg
  width="24"
  height="24"
  viewBox="0 0 24 24"
  fill="none"
  xmlns="http://www.w3.org/2000/svg"
>
  <path
    d="M21.7556 20.5773L16.0682 14.8899C17.1699 13.5291 17.8332 11.7999 17.8332 9.9166C17.8332 5.55164 14.2815 2 9.91656 2C5.55161 2 2 5.55161 2 9.91656C2 14.2815 5.55165 17.8332 9.9166 17.8332C11.7999 17.8332 13.5291 17.1699 14.8899 16.0682L20.5773 21.7556C20.7398 21.9181 20.9531 21.9998 21.1665 21.9998C21.3798 21.9998 21.5932 21.9181 21.7557 21.7556C22.0815 21.4298 22.0815 20.9031 21.7556 20.5773ZM9.9166 16.1665C6.46996 16.1665 3.66666 13.3632 3.66666 9.91656C3.66666 6.46992 6.46996 3.66662 9.9166 3.66662C13.3632 3.66662 16.1665 6.46992 16.1665 9.91656C16.1665 13.3632 13.3632 16.1665 9.9166 16.1665Z"
    fill="currentColor"
  />
</svg>
