<svg
  width="24"
  height="24"
  viewBox="0 0 24 24"
  fill="none"
  xmlns="http://www.w3.org/2000/svg"
>
  <path
    d="M19.6923 22H4.29001C3.02564 22 2 20.9739 2 19.709V7.62583C2 6.3609 3.02564 5.33481 4.29001 5.33481H7.20778C7.55261 5.33481 7.83555 5.61787 7.83555 5.96285C7.83555 6.30783 7.55261 6.59089 7.20778 6.59089H4.29001C3.7153 6.59089 3.25553 7.05971 3.25553 7.63468V19.7178C3.25553 20.2928 3.72414 20.7616 4.29885 20.7616H19.7012C20.2759 20.7616 20.7445 20.2928 20.7445 19.7178V12.6325C20.7445 12.2875 21.0274 12.0044 21.3722 12.0044C21.7171 12.0044 22 12.2875 22 12.6325V19.7178C21.9823 20.9739 20.9567 22 19.6923 22Z"
    fill="currentColor"
  />
  <path
    d="M7.61453 15.3215C7.57032 15.3215 7.52611 15.3127 7.4819 15.3038C7.19896 15.2419 6.99561 14.9943 6.99561 14.7023V13.4551C7.00445 8.97037 10.6296 5.33481 15.1123 5.33481H15.3245V2.62804C15.3245 2.28306 15.6075 2 15.9523 2C16.1203 2 16.2883 2.07077 16.4032 2.1946L21.8144 7.82043C22.0442 8.05927 22.0442 8.44847 21.8144 8.68731L16.4032 14.3131C16.1645 14.5608 15.7666 14.5697 15.519 14.3308C15.3953 14.2158 15.3245 14.0478 15.3245 13.8797V11.1729H14.3342C11.7259 11.1641 9.34751 12.6413 8.18924 14.9766C8.0743 15.1889 7.85325 15.3215 7.61453 15.3215ZM15.1123 6.59089C11.6552 6.59089 8.72859 9.17382 8.29534 12.6059C9.8338 10.8899 12.0266 9.91685 14.3254 9.9257H15.9346C16.2794 9.9257 16.5624 10.2088 16.5624 10.5537V12.3406L20.4792 8.26272L16.5624 4.18487V5.97169C16.5624 6.31667 16.2794 6.59973 15.9346 6.59973L15.1123 6.59089Z"
    fill="currentColor"
  />
</svg>
