<svg
  width="24"
  height="24"
  viewBox="0 0 24 24"
  fill="none"
  xmlns="http://www.w3.org/2000/svg"
>
  <g clip-path="url(#clip0_switch_swallet)">
    <path
      d="M16.99 22.45H5.51C4.31 22.45 3.17 21.97 2.32 21.13C1.48 20.29 1 19.14 1 17.94V11.21C1 10.01 1.48 8.87001 2.32 8.02001C3.16 7.17001 4.31 6.70001 5.51 6.70001H16.99C18.19 6.70001 19.33 7.18001 20.18 8.02001C21.03 8.87001 21.5 10.01 21.5 11.21V12.65C21.5 12.85 21.42 13.04 21.28 13.18C21.14 13.32 20.95 13.4 20.75 13.4H18.73C18.56 13.4 18.4 13.43 18.24 13.49C18.09 13.55 17.95 13.65 17.83 13.77L17.82 13.78C17.68 13.91 17.58 14.07 17.51 14.25C17.44 14.43 17.42 14.62 17.44 14.8C17.49 15.14 17.66 15.44 17.92 15.66C18.18 15.88 18.51 16 18.85 15.99H20.75C20.95 15.99 21.14 16.07 21.28 16.21C21.42 16.35 21.5 16.54 21.5 16.74V17.93C21.5 18.52 21.39 19.11 21.16 19.66C20.93 20.21 20.6 20.71 20.18 21.13C19.76 21.55 19.26 21.88 18.72 22.11C18.17 22.34 17.58 22.45 16.99 22.45ZM5.51 8.20001C4.71 8.20001 3.95 8.52001 3.38 9.08001C2.82 9.65001 2.5 10.42 2.5 11.21V17.94C2.5 18.74 2.82 19.5 3.38 20.07C3.94 20.63 4.71 20.95 5.51 20.95H16.99C17.79 20.95 18.55 20.63 19.12 20.07C19.69 19.51 20 18.74 20 17.94V17.5H18.85C18.13 17.51 17.44 17.26 16.9 16.78C16.36 16.31 16.02 15.65 15.94 14.94C15.91 14.55 15.96 14.17 16.08 13.8C16.21 13.43 16.41 13.1 16.67 12.81C16.93 12.52 17.25 12.3 17.6 12.14C17.95 11.98 18.34 11.9 18.72 11.9H20V11.21C20 10.41 19.68 9.65001 19.12 9.08001C18.56 8.52001 17.79 8.20001 16.99 8.20001H5.51Z"
      fill="currentColor"
    />
    <path
      d="M1.75 12.86C1.55 12.86 1.36 12.78 1.22 12.64C1.08 12.5 1 12.31 1 12.11V7.54001C1 6.81001 1.23 6.10001 1.64 5.50001C2.06 4.90001 2.64 4.44001 3.33 4.18001L11.27 1.18001C11.67 1.03001 12.1 0.970011 12.53 1.03001C12.96 1.08001 13.36 1.24001 13.71 1.48001C14.06 1.72001 14.35 2.05001 14.55 2.43001C14.75 2.81001 14.85 3.23001 14.85 3.66001V7.46001C14.85 7.66001 14.77 7.85001 14.63 7.99001C14.49 8.12001 14.3 8.20001 14.1 8.20001C13.9 8.20001 13.71 8.12001 13.57 7.98001C13.43 7.84001 13.35 7.65001 13.35 7.45001V3.65001C13.35 3.46001 13.31 3.28001 13.22 3.11001C13.13 2.95001 13 2.81001 12.85 2.70001C12.7 2.59001 12.52 2.52001 12.34 2.50001C12.15 2.48001 11.97 2.50001 11.79 2.57001L3.85 5.57001C3.45 5.73001 3.11 6.00001 2.87 6.35001C2.62 6.70001 2.49 7.12001 2.49 7.54001V12.11C2.49 12.21 2.47 12.31 2.44 12.4C2.4 12.49 2.35 12.57 2.28 12.64C2.21 12.71 2.13 12.77 2.04 12.8C1.95 12.85 1.85 12.86 1.75 12.86Z"
      fill="currentColor"
    />
    <path
      d="M18.85 17.5C18.13 17.51 17.44 17.26 16.9 16.78C16.36 16.31 16.02 15.65 15.94 14.94C15.9 14.53 15.95 14.12 16.1 13.73C16.24 13.34 16.47 12.99 16.76 12.71C17.02 12.45 17.32 12.25 17.66 12.11C18 11.97 18.36 11.9 18.72 11.9H20.8C21.27 11.91 21.71 12.1 22.04 12.43C22.37 12.76 22.55 13.21 22.55 13.67V15.73C22.55 16.19 22.37 16.63 22.05 16.97C21.73 17.3 21.29 17.49 20.83 17.5H18.85ZM20.78 13.4H18.73C18.56 13.4 18.4 13.43 18.24 13.49C18.09 13.55 17.95 13.65 17.83 13.77C17.69 13.9 17.58 14.06 17.51 14.24C17.44 14.42 17.42 14.61 17.44 14.81C17.49 15.15 17.66 15.45 17.92 15.67C18.18 15.89 18.51 16.01 18.85 16H20.81C20.88 16 20.94 15.97 20.99 15.92C21.04 15.87 21.06 15.8 21.06 15.73V13.67C21.06 13.6 21.03 13.53 20.98 13.48C20.92 13.43 20.85 13.4 20.78 13.4Z"
      fill="currentColor"
    />
    <path
      d="M13.25 12.45H6.25C6.05 12.45 5.86 12.37 5.72 12.23C5.58 12.09 5.5 11.9 5.5 11.7C5.5 11.5 5.58 11.31 5.72 11.17C5.86 11.03 6.05 10.95 6.25 10.95H13.25C13.45 10.95 13.64 11.03 13.78 11.17C13.92 11.31 14 11.51 14 11.7C14 11.9 13.92 12.09 13.78 12.23C13.64 12.37 13.45 12.45 13.25 12.45Z"
      fill="currentColor"
    />
  </g>
  <defs>
    <clipPath id="clip0_switch_wallet">
      <rect
        width="21.55"
        height="21.45"
        fill="currentColor"
        transform="translate(1 1)"
      />
    </clipPath>
  </defs>
</svg>
