<svg
  width="16"
  height="16"
  viewBox="0 0 16 16"
  fill="none"
  xmlns="http://www.w3.org/2000/svg"
>
  <path
    d="M9.58651 7.99999L13.1772 4.40938C13.3849 4.20172 13.3849 3.86472 13.1772 3.65672L12.3429 2.8224C12.1352 2.61474 11.7982 2.61474 11.5902 2.8224L7.99982 6.41335L4.4091 2.82274C4.20143 2.61507 3.86443 2.61507 3.65642 2.82274L2.82241 3.65672C2.61474 3.86439 2.61474 4.20138 2.82241 4.40938L6.41313 7.99999L2.82241 11.5906C2.61474 11.7983 2.61474 12.1353 2.82241 12.3433L3.65676 13.1776C3.86443 13.3852 4.20143 13.3852 4.40943 13.1776L7.99982 9.58663L11.5905 13.1772C11.7982 13.3849 12.1352 13.3849 12.3432 13.1772L13.1776 12.3429C13.3852 12.1353 13.3852 11.7983 13.1776 11.5903L9.58651 7.99999Z"
    fill="#FA4464"
  />
</svg>
