<svg
  width="16"
  height="16"
  viewBox="0 0 16 16"
  fill="none"
  xmlns="http://www.w3.org/2000/svg"
>
  <path
    fill-rule="evenodd"
    clip-rule="evenodd"
    d="M8.00001 1.33337C8.33473 1.33337 8.60607 1.60472 8.60607 1.93943V4.36368C8.60607 4.69839 8.33473 4.96974 8.00001 4.96974C7.66529 4.96974 7.39395 4.69839 7.39395 4.36368V1.93943C7.39395 1.60472 7.66529 1.33337 8.00001 1.33337Z"
    fill="#B5B5B5"
  />
  <path
    fill-rule="evenodd"
    clip-rule="evenodd"
    d="M8.00001 11.0304C8.33473 11.0304 8.60607 11.3017 8.60607 11.6365V14.0607C8.60607 14.3954 8.33473 14.6668 8.00001 14.6668C7.66529 14.6668 7.39395 14.3954 7.39395 14.0607V11.6365C7.39395 11.3017 7.66529 11.0304 8.00001 11.0304Z"
    fill="#B5B5B5"
  />
  <path
    fill-rule="evenodd"
    clip-rule="evenodd"
    d="M3.28661 3.28664C3.52329 3.04996 3.90703 3.04996 4.14371 3.28664L5.85886 5.00179C6.09554 5.23848 6.09554 5.62221 5.85886 5.85889C5.62218 6.09557 5.23844 6.09557 5.00176 5.85889L3.28661 4.14374C3.04993 3.90706 3.04993 3.52332 3.28661 3.28664Z"
    fill="#B5B5B5"
  />
  <path
    fill-rule="evenodd"
    clip-rule="evenodd"
    d="M10.1412 10.1411C10.3778 9.90445 10.7616 9.90445 10.9983 10.1411L12.7134 11.8563C12.9501 12.093 12.9501 12.4767 12.7134 12.7134C12.4767 12.9501 12.093 12.9501 11.8563 12.7134L10.1412 10.9982C9.90448 10.7616 9.90448 10.3778 10.1412 10.1411Z"
    fill="#B5B5B5"
  />
  <path
    fill-rule="evenodd"
    clip-rule="evenodd"
    d="M1.33334 7.99998C1.33334 7.66526 1.60469 7.39392 1.9394 7.39392H4.36365C4.69836 7.39392 4.96971 7.66526 4.96971 7.99998C4.96971 8.3347 4.69836 8.60604 4.36365 8.60604H1.9394C1.60469 8.60604 1.33334 8.3347 1.33334 7.99998Z"
    fill="#B5B5B5"
  />
  <path
    fill-rule="evenodd"
    clip-rule="evenodd"
    d="M11.0303 7.99998C11.0303 7.66526 11.3016 7.39392 11.6364 7.39392H14.0606C14.3953 7.39392 14.6667 7.66526 14.6667 7.99998C14.6667 8.3347 14.3953 8.60604 14.0606 8.60604H11.6364C11.3016 8.60604 11.0303 8.3347 11.0303 7.99998Z"
    fill="#B5B5B5"
  />
  <path
    fill-rule="evenodd"
    clip-rule="evenodd"
    d="M5.85886 10.1411C6.09554 10.3778 6.09554 10.7616 5.85886 10.9982L4.14371 12.7134C3.90703 12.9501 3.52329 12.9501 3.28661 12.7134C3.04993 12.4767 3.04993 12.093 3.28661 11.8563L5.00176 10.1411C5.23844 9.90445 5.62218 9.90445 5.85886 10.1411Z"
    fill="#B5B5B5"
  />
  <path
    fill-rule="evenodd"
    clip-rule="evenodd"
    d="M12.7134 3.28664C12.9501 3.52332 12.9501 3.90706 12.7134 4.14374L10.9983 5.85889C10.7616 6.09557 10.3778 6.09557 10.1412 5.85889C9.90448 5.62221 9.90448 5.23848 10.1412 5.00179L11.8563 3.28664C12.093 3.04996 12.4767 3.04996 12.7134 3.28664Z"
    fill="#B5B5B5"
  />
</svg>
