<svg
  width="16"
  height="16"
  viewBox="0 0 16 16"
  fill="none"
  xmlns="http://www.w3.org/2000/svg"
>
  <g clip-path="url(#clip0)">
    <path
      d="M8.49998 7.66666C8.37331 7.66666 8.24665 7.61999 8.14665 7.51999C7.95331 7.32666 7.95331 7.00666 8.14665 6.81333L13.6133 1.34666C13.8066 1.15333 14.1266 1.15333 14.32 1.34666C14.5133 1.53999 14.5133 1.85999 14.32 2.05333L8.85331 7.51999C8.75331 7.61999 8.62665 7.66666 8.49998 7.66666Z"
      fill="currentColor"
    />
    <path
      d="M14.5 4.86669C14.2267 4.86669 14 4.64002 14 4.36669V1.66669H11.3C11.0267 1.66669 10.8 1.44002 10.8 1.16669C10.8 0.893354 11.0267 0.666687 11.3 0.666687H14.5C14.7733 0.666687 15 0.893354 15 1.16669V4.36669C15 4.64002 14.7733 4.86669 14.5 4.86669Z"
      fill="currentColor"
    />
    <path
      d="M9.83332 15H5.83332C2.21332 15 0.666656 13.4534 0.666656 9.83335V5.83335C0.666656 2.21335 2.21332 0.666687 5.83332 0.666687H7.16666C7.43999 0.666687 7.66666 0.893354 7.66666 1.16669C7.66666 1.44002 7.43999 1.66669 7.16666 1.66669H5.83332C2.75999 1.66669 1.66666 2.76002 1.66666 5.83335V9.83335C1.66666 12.9067 2.75999 14 5.83332 14H9.83332C12.9067 14 14 12.9067 14 9.83335V8.50002C14 8.22669 14.2267 8.00002 14.5 8.00002C14.7733 8.00002 15 8.22669 15 8.50002V9.83335C15 13.4534 13.4533 15 9.83332 15Z"
      fill="currentColor"
    />
  </g>
  <defs>
    <clipPath id="clip0">
      <rect
        width="14.3333"
        height="14.3333"
        fill="white"
        transform="translate(0.666656 0.666687)"
      />
    </clipPath>
  </defs>
</svg>
