<svg
  width="24"
  height="24"
  viewBox="0 0 24 24"
  fill="none"
  xmlns="http://www.w3.org/2000/svg"
>
  <path
    d="M17.8649 15.594C18.2495 16.2189 17.7668 17 16.9988 17H7.00113C6.23161 17 5.75115 16.2177 6.13494 15.594L11.1338 7.46846C11.5185 6.84328 12.4821 6.84441 12.8662 7.46846L17.8649 15.594V15.594ZM12 13.9141C11.4707 13.9141 11.0417 14.3163 11.0417 14.8125C11.0417 15.3087 11.4707 15.7109 12 15.7109C12.5293 15.7109 12.9583 15.3087 12.9583 14.8125C12.9583 14.3163 12.5293 13.9141 12 13.9141ZM11.0902 10.6846L11.2447 13.3409C11.2519 13.4652 11.3615 13.5625 11.4943 13.5625H12.5057C12.6385 13.5625 12.7481 13.4652 12.7553 13.3409L12.9099 10.6846C12.9177 10.5504 12.8036 10.4375 12.6602 10.4375H11.3398C11.1963 10.4375 11.0823 10.5504 11.0902 10.6846V10.6846Z"
    fill="currentColor"
  />
</svg>
