<svg width="33" height="28" xmlns="http://www.w3.org/2000/svg" xmlns:xlink="http://www.w3.org/1999/xlink" xmlns:svgjs="http://svgjs.com/svgjs" viewBox="44 573 33 28"><svg width="16" height="16" xmlns="http://www.w3.org/2000/svg" xmlns:xlink="http://www.w3.org/1999/xlink" xmlns:svgjs="http://svgjs.com/svgjs" fill="#fac668" x="44" y="585"><svg xmlns="http://www.w3.org/2000/svg" xmlns:xlink="http://www.w3.org/1999/xlink" width="16" height="16" viewBox="0 0.437 15.307 15.307"><path paint-order="stroke fill markers" fill-rule="evenodd" d="M7.653.437a7.654 7.654 0 1 0 0 15.307 7.654 7.654 0 0 0 0-15.307zm0 10.523a2.873 2.873 0 0 1-2.87-2.87 2.873 2.873 0 0 1 2.87-2.87 2.873 2.873 0 0 1 2.87 2.87 2.873 2.873 0 0 1-2.87 2.87z"/></svg></svg><svg width="3" height="3" xmlns="http://www.w3.org/2000/svg" xmlns:xlink="http://www.w3.org/1999/xlink" xmlns:svgjs="http://svgjs.com/svgjs" fill="#fac668" x="50" y="592"><svg xmlns="http://www.w3.org/2000/svg" xmlns:xlink="http://www.w3.org/1999/xlink" width="3" height="3" viewBox="0.697 0.134 1.913 1.913"><path paint-order="stroke fill markers" fill-rule="evenodd" d="M1.653.134a.958.958 0 0 0 0 1.913.958.958 0 0 0 0-1.913z"/></svg></svg><svg width="3" height="7" xmlns="http://www.w3.org/2000/svg" xmlns:xlink="http://www.w3.org/1999/xlink" xmlns:svgjs="http://svgjs.com/svgjs" viewBox="0 0.5 3 6" fill="#fac668" x="67" y="575"><svg xmlns="http://www.w3.org/2000/svg" xmlns:xlink="http://www.w3.org/1999/xlink" width="3" height="7" viewBox="0.088 0.87 2.87 5.74"><path paint-order="stroke fill markers" fill-rule="evenodd" d="M2.001 3.74c0-.527.43-.957.957-.957V.87a2.873 2.873 0 0 0-2.87 2.87v2.87H2V3.74z"/></svg></svg><svg width="31" height="11" xmlns="http://www.w3.org/2000/svg" xmlns:xlink="http://www.w3.org/1999/xlink" xmlns:svgjs="http://svgjs.com/svgjs" viewBox="0 0.621 31 9.758" fill="#fac668" x="44" y="581"><svg xmlns="http://www.w3.org/2000/svg" xmlns:xlink="http://www.w3.org/1999/xlink" width="31" height="11" viewBox="0.347 0.61 30.394 9.567"><path paint-order="stroke fill markers" fill-rule="evenodd" d="M20.289 10.177a7.658 7.658 0 0 1 6.626-3.827c1.393 0 2.7.374 3.826 1.028V6.35a3.83 3.83 0 0 0-3.826-3.827H13.992A11.413 11.413 0 0 0 7.653.61c-2.662 0-5.256.932-7.306 2.624L1.566 4.71a9.581 9.581 0 0 1 6.087-2.187c4.62 0 8.486 3.292 9.375 7.654h3.26z"/></svg></svg><svg width="3" height="3" xmlns="http://www.w3.org/2000/svg" xmlns:xlink="http://www.w3.org/1999/xlink" xmlns:svgjs="http://svgjs.com/svgjs" viewBox="0.307 0 2.387 3" fill="#fac668" x="61" y="593"><svg xmlns="http://www.w3.org/2000/svg" xmlns:xlink="http://www.w3.org/1999/xlink" width="3" height="3" viewBox="0.22 0.09 2.283 2.87"><path paint-order="stroke fill markers" fill-rule="evenodd" d="M2.503.09H.22v2.87h2.101A7.673 7.673 0 0 1 2.503.09z"/></svg></svg><svg width="12" height="12" xmlns="http://www.w3.org/2000/svg" xmlns:xlink="http://www.w3.org/1999/xlink" xmlns:svgjs="http://svgjs.com/svgjs" fill="#fac668" x="65" y="589"><svg xmlns="http://www.w3.org/2000/svg" xmlns:xlink="http://www.w3.org/1999/xlink" width="12" height="12" viewBox="0.175 0.264 11.48 11.48"><path paint-order="stroke fill markers" fill-rule="evenodd" d="M5.915.264a5.74 5.74 0 1 0 0 11.48 5.74 5.74 0 0 0 0-11.48zm0 6.696a.957.957 0 1 1 0-1.913.957.957 0 0 1 0 1.913z"/></svg></svg><svg width="17" height="9" xmlns="http://www.w3.org/2000/svg" xmlns:xlink="http://www.w3.org/1999/xlink" xmlns:svgjs="http://svgjs.com/svgjs" viewBox="0.45 0 16.1 9" fill="#fac668" x="46" y="573"><svg xmlns="http://www.w3.org/2000/svg" width="17" height="9" viewBox="0.87 0 15.403 8.61"><path paint-order="stroke fill markers" fill-rule="evenodd" d="M2.783 7.009c.938-.206 1.9-.312 2.87-.312 2.442 0 4.812.66 6.893 1.913h3.727l-1.758-6.697h1.662V0H.87v1.913h1.913V7.01z"/></svg></svg></svg>