<svg width="32" height="30" xmlns="http://www.w3.org/2000/svg" xmlns:xlink="http://www.w3.org/1999/xlink" xmlns:svgjs="http://svgjs.com/svgjs" viewBox="44 127 32 30"><svg width="32" height="30" xmlns="http://www.w3.org/2000/svg" xmlns:xlink="http://www.w3.org/1999/xlink" xmlns:svgjs="http://svgjs.com/svgjs" viewBox="44 127 32 30" x="44" y="127"><svg width="32" height="30" xmlns="http://www.w3.org/2000/svg" xmlns:xlink="http://www.w3.org/1999/xlink" xmlns:svgjs="http://svgjs.com/svgjs" viewBox="44 127 32 30" x="44" y="127"><svg width="32" height="17" xmlns="http://www.w3.org/2000/svg" xmlns:xlink="http://www.w3.org/1999/xlink" xmlns:svgjs="http://svgjs.com/svgjs" viewBox="0 0.201 32 16.598" fill="#fac668" x="44" y="127"><svg xmlns="http://www.w3.org/2000/svg" xmlns:xlink="http://www.w3.org/1999/xlink" width="32" height="17" viewBox="0 0 31.985 16.59"><path paint-order="stroke fill markers" fill-rule="evenodd" d="M22.934 4.946l-3.61-3.61c-1.784-1.783-4.886-1.78-6.667.003L.537 13.46a1.834 1.834 0 0 0 2.593 2.593l12.12-12.12c.394-.393 1.09-.393 1.483-.001l12.122 12.121c.359.359.828.537 1.296.537a1.834 1.834 0 0 0 1.297-3.13l-4.847-4.847-3.667-3.666z"/></svg></svg><svg width="24" height="23" xmlns="http://www.w3.org/2000/svg" xmlns:xlink="http://www.w3.org/1999/xlink" xmlns:svgjs="http://svgjs.com/svgjs" viewBox="0.253 0 23.494 23" fill="#fac668" x="48" y="134"><svg xmlns="http://www.w3.org/2000/svg" width="24" height="23" viewBox="0.431 0.147 23.122 22.637"><path paint-order="stroke fill markers" fill-rule="evenodd" d="M12.63.411a.9.9 0 0 0-1.274 0L.694 11.07a.903.903 0 0 0-.263.638v7.774a3.303 3.303 0 0 0 3.303 3.303h5.278v-8.175h5.96v8.175h5.278a3.303 3.303 0 0 0 3.303-3.303v-7.774c0-.24-.094-.47-.264-.638L12.63.411z"/></svg></svg></svg></svg></svg>