<svg width="29" height="28" xmlns="http://www.w3.org/2000/svg" xmlns:xlink="http://www.w3.org/1999/xlink" xmlns:svgjs="http://svgjs.com/svgjs" viewBox="46 707 29 28"><svg width="17" height="15" xmlns="http://www.w3.org/2000/svg" xmlns:xlink="http://www.w3.org/1999/xlink" xmlns:svgjs="http://svgjs.com/svgjs" viewBox="0 0.408 17 14.185" fill="#fac668" x="51" y="707"><svg xmlns="http://www.w3.org/2000/svg" xmlns:xlink="http://www.w3.org/1999/xlink" width="17" height="15" viewBox="0.896 1 15.857 13.231"><path paint-order="stroke fill markers" fill-rule="evenodd" d="M10.334 14.231v-2.035c1.134-.075 3.172-.414 4.578-1.82 2-2 1.843-5.277 1.835-5.416a.798.798 0 0 0-.753-.753c-.139-.008-3.416-.164-5.415 1.835-.213.213-.401.44-.568.676-.293-1.177-.843-2.491-1.872-3.52C5.751.81 1.822.998 1.656 1.007a.798.798 0 0 0-.753.753c-.01.166-.197 4.096 2.19 6.484 1.75 1.749 4.326 2.116 5.644 2.183v3.804a7.157 7.157 0 0 1 1.597 0z"/></svg></svg><svg width="29" height="13" xmlns="http://www.w3.org/2000/svg" xmlns:xlink="http://www.w3.org/1999/xlink" xmlns:svgjs="http://svgjs.com/svgjs" viewBox="0.412 0 28.177 13" fill="#fac668" x="46" y="722"><svg xmlns="http://www.w3.org/2000/svg" width="29" height="13" viewBox="1 0.121 27.072 12.49"><path paint-order="stroke fill markers" fill-rule="evenodd" d="M22.868 4.287c-.558 0-1.107.09-1.63.262a7.334 7.334 0 0 0-2.14-2.824A7.305 7.305 0 0 0 14.535.121c-1.655 0-3.274.57-4.562 1.604a7.333 7.333 0 0 0-2.14 2.824A5.21 5.21 0 0 0 1 9.49l-.001 2.083c0 .573.464 1.037 1.037 1.037h24.997c.573 0 1.038-.464 1.038-1.037V9.49a5.21 5.21 0 0 0-5.204-5.204z"/></svg></svg></svg>