<svg width="28" height="6" xmlns="http://www.w3.org/2000/svg" xmlns:xlink="http://www.w3.org/1999/xlink" xmlns:svgjs="http://svgjs.com/svgjs" viewBox="46 849 28 6"><svg width="6" height="6" xmlns="http://www.w3.org/2000/svg" xmlns:xlink="http://www.w3.org/1999/xlink" xmlns:svgjs="http://svgjs.com/svgjs" fill="#fac668" x="46" y="849"><svg xmlns="http://www.w3.org/2000/svg" xmlns:xlink="http://www.w3.org/1999/xlink" width="6" height="6"><path paint-order="stroke fill markers" fill-rule="evenodd" d="M3 6C1.34 6 0 4.659 0 3s1.34-3 3-3C4.659 0 6 1.34 6 3S4.659 6 3 6z"/></svg></svg><svg width="6" height="6" xmlns="http://www.w3.org/2000/svg" xmlns:xlink="http://www.w3.org/1999/xlink" xmlns:svgjs="http://svgjs.com/svgjs" fill="#fac668" x="57" y="849"><svg xmlns="http://www.w3.org/2000/svg" xmlns:xlink="http://www.w3.org/1999/xlink" width="6" height="6"><path paint-order="stroke fill markers" fill-rule="evenodd" d="M3 6C1.341 6 0 4.659 0 3S1.34 0 3 0 6 1.34 6 3 4.659 6 3 6z"/></svg></svg><svg width="6" height="6" xmlns="http://www.w3.org/2000/svg" xmlns:xlink="http://www.w3.org/1999/xlink" xmlns:svgjs="http://svgjs.com/svgjs" fill="#fac668" x="68" y="849"><svg xmlns="http://www.w3.org/2000/svg" width="6" height="6"><path paint-order="stroke fill markers" fill-rule="evenodd" d="M3 6C1.34 6 0 4.659 0 3s1.34-3 3-3C4.659 0 6 1.34 6 3S4.659 6 3 6z"/></svg></svg></svg>