<svg width="35" height="36" xmlns="http://www.w3.org/2000/svg" xmlns:xlink="http://www.w3.org/1999/xlink" xmlns:svgjs="http://svgjs.com/svgjs" viewBox="43 347 35 36"><svg width="35" height="36" xmlns="http://www.w3.org/2000/svg" xmlns:xlink="http://www.w3.org/1999/xlink" xmlns:svgjs="http://svgjs.com/svgjs" viewBox="43 347 35 36" x="43" y="347"><svg width="35" height="36" xmlns="http://www.w3.org/2000/svg" xmlns:xlink="http://www.w3.org/1999/xlink" xmlns:svgjs="http://svgjs.com/svgjs" viewBox="43 347 35 36" x="43" y="347"><svg width="23" height="5" xmlns="http://www.w3.org/2000/svg" xmlns:xlink="http://www.w3.org/1999/xlink" xmlns:svgjs="http://svgjs.com/svgjs" viewBox="0 0.178 23 4.645" fill="#fac668" x="55" y="378"><svg xmlns="http://www.w3.org/2000/svg" xmlns:xlink="http://www.w3.org/1999/xlink" width="23" height="5" viewBox="0.759 0.569 21.241 4.29"><path paint-order="stroke fill markers" fill-rule="evenodd" d="M.759 2.697c0-1.174.95-2.127 2.124-2.128h16.993A2.126 2.126 0 0 1 22 2.697v2.162H.76V2.697z"/></svg></svg><svg width="14" height="14" xmlns="http://www.w3.org/2000/svg" xmlns:xlink="http://www.w3.org/1999/xlink" xmlns:svgjs="http://svgjs.com/svgjs" viewBox="0.012 0 13.976 14" fill="#fac668" x="43" y="364"><svg xmlns="http://www.w3.org/2000/svg" xmlns:xlink="http://www.w3.org/1999/xlink" width="14" height="14" viewBox="0 0.054 13.911 13.935"><path paint-order="stroke fill markers" fill-rule="evenodd" d="M12.49 1.476c.57.61 1.05 1.3 1.42 2.05L3.82 13.63a1.224 1.224 0 0 1-1.727 0L.359 11.895a1.23 1.23 0 0 1 0-1.737L10.45.054c.75.368 1.44.848 2.046 1.421l-.006.001z"/></svg></svg><svg width="16" height="15" xmlns="http://www.w3.org/2000/svg" xmlns:xlink="http://www.w3.org/1999/xlink" xmlns:svgjs="http://svgjs.com/svgjs" viewBox="0.508 0 14.985 15" fill="#fac668" x="52" y="353"><svg xmlns="http://www.w3.org/2000/svg" xmlns:xlink="http://www.w3.org/1999/xlink" width="16" height="15" viewBox="0.97 0.098 14.877 14.892"><path paint-order="stroke fill markers" fill-rule="evenodd" d="M11.762 4.189c1.195 1.11 2.578 1.999 4.086 2.623l-8.17 8.179a13.952 13.952 0 0 0-2.622-4.09C3.861 9.79 2.478 8.9.97 8.275L9.14.098a13.966 13.966 0 0 0 2.622 4.09z"/></svg></svg><svg width="14" height="14" xmlns="http://www.w3.org/2000/svg" xmlns:xlink="http://www.w3.org/1999/xlink" xmlns:svgjs="http://svgjs.com/svgjs" viewBox="0.01 0 13.981 14" fill="#fac668" x="47" y="347"><svg xmlns="http://www.w3.org/2000/svg" xmlns:xlink="http://www.w3.org/1999/xlink" width="14" height="14" viewBox="0.195 0.308 13.024 13.042"><path paint-order="stroke fill markers" fill-rule="evenodd" d="M12.295 1.235a3.157 3.157 0 0 0-4.47 0L1.121 7.95a3.163 3.163 0 0 0 4.473 4.473l6.699-6.713a3.169 3.169 0 0 0 .002-4.475z"/></svg></svg><svg width="14" height="14" xmlns="http://www.w3.org/2000/svg" xmlns:xlink="http://www.w3.org/1999/xlink" xmlns:svgjs="http://svgjs.com/svgjs" viewBox="0.01 0 13.981 14" fill="#fac668" x="60" y="360"><svg xmlns="http://www.w3.org/2000/svg" width="14" height="14" viewBox="0.605 0.737 13.024 13.042"><path paint-order="stroke fill markers" fill-rule="evenodd" d="M12.705 1.664a3.157 3.157 0 0 0-4.47 0L1.53 8.38a3.163 3.163 0 0 0 4.473 4.473l6.698-6.713a3.169 3.169 0 0 0 .003-4.476z"/></svg></svg></svg></svg></svg>