<svg width="31" height="30" xmlns="http://www.w3.org/2000/svg" xmlns:xlink="http://www.w3.org/1999/xlink" xmlns:svgjs="http://svgjs.com/svgjs" viewBox="45 774 31 30"><svg width="30" height="9" xmlns="http://www.w3.org/2000/svg" xmlns:xlink="http://www.w3.org/1999/xlink" xmlns:svgjs="http://svgjs.com/svgjs" viewBox="0 0.505 30 7.989" fill="#fac668" x="46" y="781"><svg xmlns="http://www.w3.org/2000/svg" xmlns:xlink="http://www.w3.org/1999/xlink" width="30" height="9" viewBox="0.388 0.57 28.81 7.673"><path paint-order="stroke fill markers" fill-rule="evenodd" d="M14.793 5.193c7.762 0 13.973 2.849 14.234 2.97l.171.08c-.433-.499-1.902-2.115-4.08-3.744-1.512-1.133-3.056-2.036-4.588-2.686C18.587.988 16.657.57 14.793.57c-1.864 0-3.794.418-5.737 1.243-1.532.65-3.076 1.554-4.589 2.686C2.29 6.129.821 7.744.387 8.242l.172-.08c.26-.12 6.472-2.97 14.234-2.97z"/></svg></svg><svg width="7" height="7" xmlns="http://www.w3.org/2000/svg" xmlns:xlink="http://www.w3.org/1999/xlink" xmlns:svgjs="http://svgjs.com/svgjs" viewBox="0.253 0 6.494 7" fill="#fac668" x="46" y="789"><svg xmlns="http://www.w3.org/2000/svg" xmlns:xlink="http://www.w3.org/1999/xlink" width="7" height="7" viewBox="0.703 0.498 5.847 6.303"><path paint-order="stroke fill markers" fill-rule="evenodd" d="M1.29 1.735l-.587.273a27.982 27.982 0 0 0 3.764 3.39c.69.516 1.385.984 2.083 1.403A10.057 10.057 0 0 1 4.692.498c-2.09.635-3.374 1.224-3.402 1.237z"/></svg></svg><svg width="6" height="7" xmlns="http://www.w3.org/2000/svg" xmlns:xlink="http://www.w3.org/1999/xlink" xmlns:svgjs="http://svgjs.com/svgjs" viewBox="0 0.267 6 6.466" fill="#fac668" x="69" y="789"><svg xmlns="http://www.w3.org/2000/svg" xmlns:xlink="http://www.w3.org/1999/xlink" width="6" height="7" viewBox="0.035 0.5 5.847 6.301"><path paint-order="stroke fill markers" fill-rule="evenodd" d="M5.882 2.007l-.586-.273c-.028-.012-1.313-.6-3.402-1.234A10.057 10.057 0 0 1 .036 6.8a24.58 24.58 0 0 0 2.083-1.402 27.981 27.981 0 0 0 3.763-3.392z"/></svg></svg><svg width="18" height="11" xmlns="http://www.w3.org/2000/svg" xmlns:xlink="http://www.w3.org/1999/xlink" xmlns:svgjs="http://svgjs.com/svgjs" viewBox="0 0.018 18 10.963" fill="#fac668" x="52" y="788"><svg xmlns="http://www.w3.org/2000/svg" xmlns:xlink="http://www.w3.org/1999/xlink" width="18" height="11" viewBox="0.445 0.121 16.758 10.207"><path paint-order="stroke fill markers" fill-rule="evenodd" d="M8.823 10.327c4.62 0 8.38-3.758 8.38-8.378 0-.316-.02-.633-.057-.95a36.06 36.06 0 0 0-4.793-.871 4.16 4.16 0 0 1 .66 2.254c0 2.31-1.88 4.19-4.19 4.19-2.31 0-4.189-1.88-4.189-4.19 0-.832.244-1.609.665-2.261A36.02 36.02 0 0 0 .503.984a8.219 8.219 0 0 0-.058.965c0 4.62 3.758 8.378 8.378 8.378z"/></svg></svg><svg width="6" height="6" xmlns="http://www.w3.org/2000/svg" xmlns:xlink="http://www.w3.org/1999/xlink" xmlns:svgjs="http://svgjs.com/svgjs" fill="#fac668" x="58" y="787"><svg xmlns="http://www.w3.org/2000/svg" xmlns:xlink="http://www.w3.org/1999/xlink" width="6" height="6" viewBox="0.337 0.926 4.912 4.912"><path paint-order="stroke fill markers" fill-rule="evenodd" d="M2.793 5.838A2.454 2.454 0 0 1 .337 3.382 2.454 2.454 0 0 1 2.793.926a2.454 2.454 0 0 1 2.456 2.456 2.454 2.454 0 0 1-2.456 2.456z"/></svg></svg><svg width="10" height="7" xmlns="http://www.w3.org/2000/svg" xmlns:xlink="http://www.w3.org/1999/xlink" xmlns:svgjs="http://svgjs.com/svgjs" viewBox="0.009 0 9.983 7" fill="#fac668" x="56" y="774"><svg xmlns="http://www.w3.org/2000/svg" xmlns:xlink="http://www.w3.org/1999/xlink" width="10" height="7" viewBox="0.099 0 9.388 6.583"><path paint-order="stroke fill markers" fill-rule="evenodd" d="M9.487 6.583L6.823 1.254a2.27 2.27 0 0 0-4.06 0L.1 6.584c1.581-.496 3.154-.748 4.694-.748s3.113.252 4.694.747z"/></svg></svg><svg width="31" height="9" xmlns="http://www.w3.org/2000/svg" xmlns:xlink="http://www.w3.org/1999/xlink" xmlns:svgjs="http://svgjs.com/svgjs" viewBox="0 0.142 31 8.716" fill="#fac668" x="45" y="795"><svg xmlns="http://www.w3.org/2000/svg" width="31" height="9" viewBox="1 0.268 29.586 8.318"><path paint-order="stroke fill markers" fill-rule="evenodd" d="M30.346 5.302L27.83.268c-.216.172-.44.345-.672.519-1.624 1.215-3.29 2.189-4.95 2.894-2.158.916-4.316 1.38-6.414 1.38s-4.256-.464-6.414-1.38c-1.66-.705-3.326-1.679-4.95-2.894a29.04 29.04 0 0 1-.673-.52L1.24 5.303a2.269 2.269 0 0 0 2.03 3.284h25.047a2.27 2.27 0 0 0 2.03-3.284z"/></svg></svg></svg>