<svg width="34" height="21" xmlns="http://www.w3.org/2000/svg" xmlns:xlink="http://www.w3.org/1999/xlink" xmlns:svgjs="http://svgjs.com/svgjs" viewBox="43 645 34 21"><svg width="16" height="15" xmlns="http://www.w3.org/2000/svg" xmlns:xlink="http://www.w3.org/1999/xlink" xmlns:svgjs="http://svgjs.com/svgjs" viewBox="0.5 0 15 15" fill="#fac668" x="52" y="645"><svg xmlns="http://www.w3.org/2000/svg" xmlns:xlink="http://www.w3.org/1999/xlink" width="16" height="15" viewBox="0.681 0 14.588 14.588"><path paint-order="stroke fill markers" fill-rule="evenodd" d="M7.975 14.588c4.022 0 7.294-3.272 7.294-7.294S11.997 0 7.975 0 .68 3.272.68 7.294s3.272 7.294 7.294 7.294z"/></svg></svg><svg width="7" height="3" xmlns="http://www.w3.org/2000/svg" xmlns:xlink="http://www.w3.org/1999/xlink" xmlns:svgjs="http://svgjs.com/svgjs" viewBox="0.265 0 6.469 3" fill="#fac668" x="48" y="657"><svg xmlns="http://www.w3.org/2000/svg" xmlns:xlink="http://www.w3.org/1999/xlink" width="7" height="3" viewBox="0.968 0.267 5.719 2.652"><path paint-order="stroke fill markers" fill-rule="evenodd" d="M.968 2.92h5.72A9.358 9.358 0 0 1 4.14.266H.968v2.652z"/></svg></svg><svg width="6" height="3" xmlns="http://www.w3.org/2000/svg" xmlns:xlink="http://www.w3.org/1999/xlink" xmlns:svgjs="http://svgjs.com/svgjs" viewBox="0 0.109 6 2.782" fill="#fac668" x="65" y="657"><svg xmlns="http://www.w3.org/2000/svg" xmlns:xlink="http://www.w3.org/1999/xlink" width="6" height="3" viewBox="0.263 0.267 5.719 2.652"><path paint-order="stroke fill markers" fill-rule="evenodd" d="M.263 2.92h5.72V.266H2.81A9.358 9.358 0 0 1 .263 2.919z"/></svg></svg><svg width="34" height="15" xmlns="http://www.w3.org/2000/svg" xmlns:xlink="http://www.w3.org/1999/xlink" xmlns:svgjs="http://svgjs.com/svgjs" viewBox="0 0.195 34 14.609" fill="#fac668" x="43" y="651"><svg xmlns="http://www.w3.org/2000/svg" width="34" height="15" viewBox="0 0.299 33.95 14.588"><path paint-order="stroke fill markers" fill-rule="evenodd" d="M26.205.3a9.278 9.278 0 0 1-.439 3.978h4.205v6.63H3.978v-6.63h4.206A9.281 9.281 0 0 1 7.745.299H0v14.588h33.95V.3h-7.745z"/></svg></svg></svg>