<svg width="29" height="29" xmlns="http://www.w3.org/2000/svg" xmlns:xlink="http://www.w3.org/1999/xlink" xmlns:svgjs="http://svgjs.com/svgjs" fill="#fac668"><svg xmlns="http://www.w3.org/2000/svg" width="29" height="29" viewBox="0 0 28.245 28.245"><path paint-order="stroke fill markers" fill-rule="evenodd" d="M23.201 0H5.044A5.05 5.05 0 0 0 0 5.044V23.2a5.05 5.05 0 0 0 5.044 5.044H23.2a5.05 5.05 0 0 0 5.044-5.044V5.044A5.05 5.05 0 0 0 23.2 0zm1.775 12.762c-.033.039-.07.076-.11.11l-7.06 6.052a1.009 1.009 0 0 1-1.666-.767v-3.026h-6.053a1.009 1.009 0 0 1-1.008-1.009v-1.599L5.46 16.14l3.618 3.617v-1.6c0-.557.451-1.008 1.008-1.008h3.027a1.009 1.009 0 1 1 0 2.017h-2.018v3.026a1.009 1.009 0 0 1-1.722.715l-6.052-6.053a1.009 1.009 0 0 1 0-1.427l6.052-6.053a1.009 1.009 0 0 1 1.722.714v3.026h6.053c.557 0 1.008.451 1.008 1.008v1.843l4.502-3.86-4.502-3.859v1.841c0 .557-.451 1.01-1.008 1.01h-3.027a1.009 1.009 0 0 1 0-2.018h2.018V6.052a1.009 1.009 0 0 1 1.665-.765l7.062 6.052c.423.363.472 1 .11 1.423z"/></svg></svg>