<svg width="92" height="70" viewBox="0 0 92 70" fill="none" xmlns="http://www.w3.org/2000/svg">
<path d="M62.1293 22.6622C61.9251 22.633 61.7209 22.633 61.5168 22.6622C56.9959 22.5164 53.4084 18.8122 53.4084 14.2622C53.4084 9.62467 57.1709 5.83301 61.8376 5.83301C66.4751 5.83301 70.2668 9.59551 70.2668 14.2622C70.2376 18.8122 66.6501 22.5164 62.1293 22.6622Z" fill="#5D6064"/>
<path d="M71.6373 42.8752C68.3707 45.0627 63.7915 45.8793 59.5623 45.3252C60.6707 42.9335 61.254 40.2794 61.2832 37.4794C61.2832 34.5627 60.6415 31.7919 59.4165 29.371C63.7332 28.7877 68.3123 29.6043 71.6082 31.7918C76.2165 34.8252 76.2165 39.8127 71.6373 42.8752Z" fill="#5D6064"/>
<path d="M29.7835 22.6622C29.9877 22.633 30.1918 22.633 30.396 22.6622C34.9168 22.5164 38.5043 18.8122 38.5043 14.2622C38.5043 9.62467 34.7418 5.83301 30.0752 5.83301C25.4377 5.83301 21.646 9.59551 21.646 14.2622C21.6752 18.8122 25.2627 22.5164 29.7835 22.6622Z" fill="#5D6064"/>
<path d="M30.1043 37.479C30.1043 40.3081 30.7168 42.9915 31.8251 45.4123C27.7126 45.8498 23.4251 44.9748 20.2751 42.904C15.6668 39.8415 15.6668 34.8539 20.2751 31.7914C23.3959 29.6914 27.8001 28.8456 31.9418 29.3123C30.7459 31.7623 30.1043 34.5331 30.1043 37.479Z" fill="#5D6064"/>
<path d="M46.3502 46.2875C46.1169 46.2583 45.8544 46.2583 45.5919 46.2875C40.2252 46.1125 35.9377 41.7083 35.9377 36.2833C35.9377 30.7417 40.4003 26.25 45.9711 26.25C51.5127 26.25 56.0044 30.7417 56.0044 36.2833C56.0044 41.7083 51.7461 46.1125 46.3502 46.2875Z" fill="url(#paint0_linear_3779_12904)"/>
<path d="M36.871 52.3252C32.4668 55.271 32.4668 60.1127 36.871 63.0294C41.8877 66.3835 50.1127 66.3835 55.1293 63.0294C59.5335 60.0835 59.5335 55.2419 55.1293 52.3252C50.1418 48.971 41.9168 48.971 36.871 52.3252Z" fill="url(#paint1_linear_3779_12904)"/>
<path d="M87 9.5C87 10.8807 88.1193 12 89.5 12C90.8807 12 92 10.8807 92 9.5C92 8.11929 90.8807 7 89.5 7C88.1193 7 87 8.11929 87 9.5Z" fill="#FFCA3F"/>
<path d="M82 68.5C82 69.3284 82.6716 70 83.5 70C84.3284 70 85 69.3284 85 68.5C85 67.6716 84.3284 67 83.5 67C82.6716 67 82 67.6716 82 68.5Z" fill="url(#paint2_linear_3779_12904)"/>
<path d="M-1.56026e-07 11.5C-2.42197e-07 12.8807 1.11929 14 2.5 14C3.88071 14 5 12.8807 5 11.5C5 10.1193 3.88071 9 2.5 9C1.11929 9 -6.98554e-08 10.1193 -1.56026e-07 11.5Z" fill="#FFB51F"/>
<defs>
<linearGradient id="paint0_linear_3779_12904" x1="45.9711" y1="26.25" x2="45.9711" y2="46.2875" gradientUnits="userSpaceOnUse">
<stop stop-color="#169CE7"/>
<stop offset="1" stop-color="#79ECBF"/>
</linearGradient>
<linearGradient id="paint1_linear_3779_12904" x1="46.0002" y1="49.8096" x2="46.0002" y2="65.545" gradientUnits="userSpaceOnUse">
<stop stop-color="#169CE7"/>
<stop offset="1" stop-color="#79ECBF"/>
</linearGradient>
<linearGradient id="paint2_linear_3779_12904" x1="83.4842" y1="67.0115" x2="83.4842" y2="69.9217" gradientUnits="userSpaceOnUse">
<stop stop-color="#51DFD4"/>
<stop offset="1" stop-color="#1BE068"/>
</linearGradient>
</defs>
</svg>
