<svg width="70" height="92" viewBox="0 0 70 92" fill="none" xmlns="http://www.w3.org/2000/svg">
<path d="M47.2209 18.833H22.7792C12.1625 18.833 5.83337 25.1622 5.83337 35.7788V60.1913C5.83337 70.8372 12.1625 77.1663 22.7792 77.1663H47.1917C57.8084 77.1663 64.1375 70.8372 64.1375 60.2205V35.7788C64.1667 25.1622 57.8375 18.833 47.2209 18.833Z" fill="#5D6064"/>
<path d="M20.0667 68.1244C18.8708 68.1244 17.8792 67.1327 17.8792 65.9369V59.8994C17.8792 58.7036 18.8708 57.7119 20.0667 57.7119C21.2625 57.7119 22.2542 58.7036 22.2542 59.8994V65.9369C22.2542 67.1619 21.2625 68.1244 20.0667 68.1244Z" fill="url(#paint0_linear_3779_12939)"/>
<path d="M35 68.1247C33.8042 68.1247 32.8125 67.133 32.8125 65.9372V53.833C32.8125 52.6372 33.8042 51.6455 35 51.6455C36.1958 51.6455 37.1875 52.6372 37.1875 53.833V65.9372C37.1875 67.1622 36.1958 68.1247 35 68.1247Z" fill="url(#paint1_linear_3779_12939)"/>
<path d="M49.9333 68.1251C48.7375 68.1251 47.7458 67.1334 47.7458 65.9376V47.7959C47.7458 46.6001 48.7375 45.6084 49.9333 45.6084C51.1292 45.6084 52.1208 46.6001 52.1208 47.7959V65.9376C52.1208 67.1626 51.1583 68.1251 49.9333 68.1251Z" fill="url(#paint2_linear_3779_12939)"/>
<path d="M52.1208 29.975C52.1208 29.8292 52.0625 29.6542 52.0333 29.5083C52.0042 29.3917 51.975 29.2458 51.9458 29.1292C51.8875 29.0125 51.8 28.925 51.7417 28.8083C51.6542 28.6917 51.5667 28.5458 51.45 28.4583C51.4208 28.4292 51.4208 28.4 51.3917 28.4C51.3042 28.3417 51.2167 28.3125 51.1292 28.2542C51.0125 28.1667 50.8667 28.0792 50.7208 28.0208C50.575 27.9625 50.4292 27.9625 50.2833 27.9333C50.1667 27.9042 50.0792 27.875 49.9625 27.875H41.4167C40.2208 27.875 39.2292 28.8667 39.2292 30.0625C39.2292 31.2583 40.2208 32.25 41.4167 32.25H45.0625C38.1208 39.5417 29.3708 44.675 19.5416 47.1542C18.375 47.4458 17.6458 48.6417 17.9375 49.8083C18.1708 50.8 19.075 51.4708 20.0667 51.4708C20.2417 51.4708 20.4167 51.4417 20.5917 51.4125C31.0042 48.8167 40.3083 43.4208 47.7458 35.7792V38.6083C47.7458 39.8042 48.7375 40.7958 49.9333 40.7958C51.1292 40.7958 52.1208 39.8042 52.1208 38.6083V30.0625C52.1208 30.0333 52.1208 30.0042 52.1208 29.975Z" fill="url(#paint3_linear_3779_12939)"/>
<path d="M7.5 5C8.88071 5 10 3.88071 10 2.5C10 1.11929 8.88071 0 7.5 0C6.11929 0 5 1.11929 5 2.5C5 3.88071 6.11929 5 7.5 5Z" fill="#FFCA3F"/>
<path d="M66.5 10C67.3284 10 68 9.32843 68 8.5C68 7.67157 67.3284 7 66.5 7C65.6716 7 65 7.67157 65 8.5C65 9.32843 65.6716 10 66.5 10Z" fill="url(#paint4_linear_3779_12939)"/>
<path d="M9.5 92C10.8807 92 12 90.8807 12 89.5C12 88.1193 10.8807 87 9.5 87C8.11929 87 7 88.1193 7 89.5C7 90.8807 8.11929 92 9.5 92Z" fill="#FFB51F"/>
<defs>
<linearGradient id="paint0_linear_3779_12939" x1="20.0667" y1="57.7119" x2="20.0667" y2="68.1244" gradientUnits="userSpaceOnUse">
<stop stop-color="#169CE7"/>
<stop offset="1" stop-color="#69F1BC"/>
</linearGradient>
<linearGradient id="paint1_linear_3779_12939" x1="35" y1="51.6455" x2="35" y2="68.1247" gradientUnits="userSpaceOnUse">
<stop stop-color="#169CE7"/>
<stop offset="1" stop-color="#69F1BC"/>
</linearGradient>
<linearGradient id="paint2_linear_3779_12939" x1="49.9333" y1="45.6084" x2="49.9333" y2="68.1251" gradientUnits="userSpaceOnUse">
<stop stop-color="#169CE7"/>
<stop offset="1" stop-color="#69F1BC"/>
</linearGradient>
<linearGradient id="paint3_linear_3779_12939" x1="34.997" y1="27.875" x2="34.997" y2="51.4708" gradientUnits="userSpaceOnUse">
<stop stop-color="#169CE7"/>
<stop offset="1" stop-color="#79ECBF"/>
</linearGradient>
<linearGradient id="paint4_linear_3779_12939" x1="65.0115" y1="8.51575" x2="67.9217" y2="8.51575" gradientUnits="userSpaceOnUse">
<stop stop-color="#51DFD4"/>
<stop offset="1" stop-color="#1BE068"/>
</linearGradient>
</defs>
</svg>
