<svg width="105" height="73" viewBox="0 0 105 73" fill="none" xmlns="http://www.w3.org/2000/svg">
<path d="M83.1667 27.7913C83.1667 38.2622 74.6792 46.7497 64.2083 46.7497C63.7125 46.7497 63.1875 46.7205 62.6917 46.6913C61.9625 37.4455 54.5541 30.0372 45.3083 29.308C45.2791 28.8122 45.25 28.2872 45.25 27.7913C45.25 17.3205 53.7375 8.83301 64.2083 8.83301C74.6792 8.83301 83.1667 17.3205 83.1667 27.7913Z" fill="url(#paint0_linear_3779_12918)"/>
<path d="M62.7499 48.2083C62.7499 58.6792 54.2624 67.1667 43.7916 67.1667C33.3208 67.1667 24.8333 58.6792 24.8333 48.2083C24.8333 37.7375 33.3208 29.25 43.7916 29.25C44.2874 29.25 44.8124 29.2792 45.3082 29.3083C54.5541 30.0375 61.9624 37.4458 62.6916 46.6917C62.7208 47.1875 62.7499 47.7125 62.7499 48.2083Z" fill="#5D6064"/>
<path d="M41.225 45.642L43.7917 40.917L46.3583 45.642L51.0833 48.2087L46.3583 50.7753L43.7917 55.5003L41.225 50.7753L36.5 48.2087L41.225 45.642Z" fill="url(#paint1_linear_3779_12918)"/>
<path d="M100.764 58.261C101.178 58.9784 102.096 59.2242 102.813 58.81C103.53 58.3958 103.776 57.4784 103.362 56.761C102.948 56.0435 102.03 55.7977 101.313 56.2119C100.596 56.6261 100.35 57.5435 100.764 58.261Z" fill="url(#paint2_linear_3779_12918)"/>
<path d="M1.24995 49.8975C1.94031 51.0932 3.46928 51.5029 4.66501 50.8125C5.86075 50.1222 6.27043 48.5932 5.58008 47.3975C4.88972 46.2018 3.36075 45.7921 2.16501 46.4824C0.969283 47.1728 0.559595 48.7018 1.24995 49.8975Z" fill="#FFB51F"/>
<path d="M75.5942 4.66506C76.2845 5.86079 77.8135 6.27048 79.0093 5.58013C80.205 4.88977 80.6147 3.36079 79.9243 2.16506C79.234 0.969333 77.705 0.559644 76.5093 1.25C75.3135 1.94036 74.9038 3.46933 75.5942 4.66506Z" fill="#FFCA3F"/>
<defs>
<linearGradient id="paint0_linear_3779_12918" x1="64.2083" y1="8.83301" x2="64.2083" y2="46.7497" gradientUnits="userSpaceOnUse">
<stop stop-color="#169CE7"/>
<stop offset="1" stop-color="#79ECBF"/>
</linearGradient>
<linearGradient id="paint1_linear_3779_12918" x1="43.7917" y1="40.917" x2="43.7917" y2="55.5003" gradientUnits="userSpaceOnUse">
<stop stop-color="#169CE7"/>
<stop offset="1" stop-color="#79ECBF"/>
</linearGradient>
<linearGradient id="paint2_linear_3779_12918" x1="101.305" y1="56.2298" x2="102.76" y2="58.7501" gradientUnits="userSpaceOnUse">
<stop stop-color="#51DFD4"/>
<stop offset="1" stop-color="#1BE068"/>
</linearGradient>
</defs>
</svg>
