<svg width="70" height="81" viewBox="0 0 70 81" fill="none" xmlns="http://www.w3.org/2000/svg">
<path d="M63.2041 28.2708C61.3375 21.9416 56.0583 16.6624 49.7291 14.7958C44.9166 13.3958 41.5916 13.5124 39.2875 15.2333C36.5166 17.3041 36.1958 21.0374 36.1958 23.6916V30.9541C36.1958 38.1291 39.4625 41.7749 45.8791 41.7749H54.25C56.875 41.7749 60.6375 41.4541 62.7083 38.6833C64.4875 36.4083 64.6333 33.0833 63.2041 28.2708Z" fill="url(#paint0_linear_3779_12903)"/>
<path d="M55.1542 46.9664C54.3959 46.0914 53.2876 45.5955 52.1501 45.5955H41.7084C36.5751 45.5955 32.4042 41.4247 32.4042 36.2914V25.8497C32.4042 24.7122 31.9084 23.6039 31.0334 22.8455C30.1876 22.0872 29.0209 21.7372 27.9126 21.883C21.0584 22.758 14.7584 26.5205 10.6459 32.1789C6.50424 37.8664 4.98757 44.808 6.30007 51.7497C8.1959 61.783 16.2167 69.8039 26.2792 71.6997C27.8834 72.0205 29.4876 72.1664 31.0917 72.1664C36.3709 72.1664 41.4751 70.533 45.8209 67.3539C51.4792 63.2414 55.2417 56.9414 56.1167 50.0872C56.2626 48.9497 55.9126 47.8122 55.1542 46.9664Z" fill="#5D6064"/>
<path d="M60.5 76.625C59.1193 76.625 58 77.6044 58 78.8125C58 80.0206 59.1193 81 60.5 81C61.8807 81 63 80.0206 63 78.8125C63 77.6044 61.8807 76.625 60.5 76.625Z" fill="#FFCA3F"/>
<path d="M1.5 72.25C0.671571 72.25 2.34375e-07 72.8376 1.50987e-07 73.5625C6.75992e-08 74.2874 0.67157 74.875 1.5 74.875C2.32842 74.875 3 74.2874 3 73.5625C3 72.8376 2.32842 72.25 1.5 72.25Z" fill="url(#paint1_linear_3779_12903)"/>
<path d="M58.5 0.5C57.1193 0.5 56 1.47938 56 2.6875C56 3.89562 57.1193 4.875 58.5 4.875C59.8807 4.875 61 3.89562 61 2.6875C61 1.47938 59.8807 0.5 58.5 0.5Z" fill="#FFB51F"/>
<defs>
<linearGradient id="paint0_linear_3779_12903" x1="50.1836" y1="13.835" x2="50.1836" y2="41.7749" gradientUnits="userSpaceOnUse">
<stop stop-color="#169CE7"/>
<stop offset="1" stop-color="#79ECBF"/>
</linearGradient>
<linearGradient id="paint1_linear_3779_12903" x1="2.98847" y1="73.5487" x2="0.0782813" y2="73.5487" gradientUnits="userSpaceOnUse">
<stop stop-color="#51DFD4"/>
<stop offset="1" stop-color="#1BE068"/>
</linearGradient>
</defs>
</svg>
