<svg
  width="24"
  height="24"
  viewBox="0 0 24 24"
  fill="none"
  xmlns="http://www.w3.org/2000/svg"
>
  <path
    d="M11.3445 2.50678C11.7047 1.83107 12.2943 1.83107 12.6436 2.50678L14.8708 6.68698C15.2311 7.36268 16.1154 8.02693 16.825 8.17581L21.3121 9.10347C22.0327 9.25236 22.2183 9.83644 21.7161 10.3976L18.6155 13.9136C18.1133 14.4747 17.7749 15.5627 17.8622 16.3301L18.4081 21.0829C18.4954 21.8502 18.026 22.2052 17.36 21.8846L13.2223 19.8689C12.5563 19.5482 11.4646 19.5482 10.7986 19.8689L6.66086 21.8846C5.99489 22.2052 5.52544 21.8502 5.61278 21.0829L6.15866 16.3301C6.246 15.5627 5.90755 14.4747 5.40535 13.9136L2.28295 10.4091C1.78074 9.84789 1.96634 9.26381 2.68689 9.11493L7.16306 8.18727C7.88362 8.03838 8.76794 7.36268 9.12821 6.69843L11.3445 2.50678Z"
    fill="#494B58"
  />
</svg>
