<svg
  width="24"
  height="24"
  viewBox="0 0 24 24"
  fill="none"
  xmlns="http://www.w3.org/2000/svg"
>
  <mask
    id="mask0_6742_171429"
    style="mask-type:alpha"
    maskUnits="userSpaceOnUse"
    x="2"
    y="0"
    width="19"
    height="13"
  >
    <path
      d="M2 10.0643L14.8081 10.167C14.8081 10.167 17.635 10.5236 20.0497 12.6294C20.1871 12.7482 20.7244 12.6294 20.7244 12.6294L20.6591 0L2 0.0216118V10.0643Z"
      fill="white"
    />
  </mask>
  <g mask="url(#mask0_6742_171429)">
    <path
      fill-rule="evenodd"
      clip-rule="evenodd"
      d="M18.0038 2.84461C16.4801 1.59923 14.3838 0.975189 11.7147 0.975189C8.14639 0.975189 6.56426 0.975189 5.06511 0.975189V1.89774C5.06511 1.89774 8.67423 1.89774 11.5923 1.89774C13.8614 1.89774 15.9156 2.36239 17.1699 3.43758C18.4241 4.51412 19.3751 6.11609 19.3751 8.09356C19.3751 10.0022 18.552 11.4164 17.2474 12.4862C15.9428 13.5559 13.6165 14.0273 11.2875 14.0273C8.50826 14.0273 3.78906 14.0273 3.78906 14.0273V14.9499C3.78906 14.9499 10.1734 14.9485 11.3392 14.9485C14.1484 14.9485 16.3427 14.3421 17.9222 13.1318C19.5016 11.9202 20.2906 10.2169 20.2906 8.01927C20.2906 5.81622 19.5288 4.09134 18.0038 2.84461Z"
      fill="white"
    />
    <path
      fill-rule="evenodd"
      clip-rule="evenodd"
      d="M17.4406 4.18164C16.4924 3.4671 15.4027 2.89169 12.3201 2.89169C8.99528 2.89304 8.58853 2.89169 7.19141 2.89169V3.79128C7.19141 3.79128 9.48639 3.76156 12.2058 3.79128C14.8341 3.81829 15.7986 4.11275 16.6829 4.76245C17.8147 5.59316 18.5167 6.61837 18.5167 8.05285C18.5167 9.436 17.8038 10.4153 16.6665 11.246C15.5034 12.0969 13.7254 12.1064 13.0016 12.1226C12.7282 12.1294 9.1939 12.1226 9.1939 12.1226V13.0222C9.1939 13.0222 10.9529 13.0465 12.0398 13.0209C14.5348 12.9655 16.0149 12.8182 17.393 11.8011C18.6867 10.8489 19.371 9.59133 19.371 7.99882C19.371 5.89842 18.3126 4.83945 17.4406 4.18164Z"
      fill="white"
    />
    <path
      fill-rule="evenodd"
      clip-rule="evenodd"
      d="M16.9821 5.36941C16.2706 4.92637 15.6462 4.62785 12.701 4.62785C9.7081 4.62785 10.2727 4.62785 9.0143 4.62785V5.21948C9.0143 5.21948 10.1516 5.21948 12.5989 5.21948C15.2082 5.21948 16.1972 5.68008 16.4965 5.86243C17.0828 6.21902 17.8555 6.79984 17.8555 7.98308C17.8555 8.73949 17.4052 9.68906 16.74 10.0619C16.1332 10.4009 15.0245 10.7048 13.071 10.7048C12.8248 10.7048 1.02881 10.7048 1.02881 10.7048V11.2964C1.02881 11.2964 12.1364 11.2964 13.1159 11.2964C15.4707 11.2964 16.2788 11.0371 17.1086 10.5819C17.9412 10.1267 18.4962 9.19064 18.4962 7.98848C18.4962 6.64585 17.7412 5.84081 16.9821 5.36941Z"
      fill="white"
    />
  </g>
  <path
    fill-rule="evenodd"
    clip-rule="evenodd"
    d="M19.3258 11.8961C17.8022 10.6493 15.7044 10.0266 13.0367 10.0266C9.46705 10.0266 10.0888 10.0253 8.58824 10.0253V10.9478C8.58824 10.9478 9.99489 10.9478 12.9129 10.9478C15.1821 10.9478 17.2376 11.4125 18.4919 12.4877C19.7462 13.5642 20.6957 15.1662 20.6957 17.145C20.6957 19.0523 19.874 20.4665 18.5694 21.5363C17.2648 22.606 14.9372 23.0774 12.6082 23.0774C9.83028 23.0774 5.11108 23.0774 5.11108 23.0774V24C5.11108 24 11.494 23.9986 12.6613 23.9986C15.4705 23.9986 17.6634 23.3935 19.2428 22.1819C20.8222 20.9717 21.6126 19.267 21.6126 17.0707C21.6126 14.8663 20.8508 13.1414 19.3258 11.8961Z"
    fill="white"
  />
  <path
    fill-rule="evenodd"
    clip-rule="evenodd"
    d="M18.7629 13.2317C17.8147 12.5185 16.7251 11.9417 13.6424 11.9417C10.3163 11.9431 8.06753 11.9417 6.67041 11.9417V12.8413C6.67041 12.8413 10.8074 12.8116 13.5281 12.8413C16.1564 12.8683 17.1196 13.1628 18.0038 13.8125C19.137 14.6446 19.839 15.6684 19.839 17.1029C19.839 18.486 19.1262 19.4653 17.9889 20.2974C16.8257 21.147 15.0477 21.1578 14.3226 21.174C14.0492 21.1794 10.5149 21.174 10.5149 21.174V22.0723C10.5149 22.0723 12.2739 22.0966 13.3622 22.0723C15.8558 22.0155 17.3372 21.8683 18.7153 20.8525C20.0077 19.8989 20.692 18.6414 20.692 17.0489C20.692 14.9498 19.6349 13.8895 18.7629 13.2317Z"
    fill="white"
  />
  <path
    fill-rule="evenodd"
    clip-rule="evenodd"
    d="M8.1626 16.2844H14.6966V15.7819H8.1626V16.2844Z"
    fill="white"
  />
  <path
    fill-rule="evenodd"
    clip-rule="evenodd"
    d="M10.8574 18.0416H14.6584V17.6093H10.8574V18.0416Z"
    fill="white"
  />
  <path
    fill-rule="evenodd"
    clip-rule="evenodd"
    d="M5.11108 16.2844H7.04692V15.7819H5.11108V16.2844Z"
    fill="white"
  />
  <path
    fill-rule="evenodd"
    clip-rule="evenodd"
    d="M3.90454 18.077H9.78415V17.5745H3.90454V18.077Z"
    fill="white"
  />
  <path
    fill-rule="evenodd"
    clip-rule="evenodd"
    d="M5.35327 5.17996H7.64417V4.76528H5.35327V5.17996Z"
    fill="white"
  />
  <path
    fill-rule="evenodd"
    clip-rule="evenodd"
    d="M3.75781 8.54335H9.00484V8.06114H3.75781V8.54335Z"
    fill="white"
  />
  <path
    fill-rule="evenodd"
    clip-rule="evenodd"
    d="M3.90454 22.0104H9.43725V21.408H3.90454V22.0104Z"
    fill="white"
  />
  <path
    fill-rule="evenodd"
    clip-rule="evenodd"
    d="M2.52515 23.9635H3.90866V23.0909H2.52515V23.9635Z"
    fill="white"
  />
  <path
    fill-rule="evenodd"
    clip-rule="evenodd"
    d="M5.98315 7.07143H14.6706V6.58922H5.98315V7.07143Z"
    fill="white"
  />
  <path
    fill-rule="evenodd"
    clip-rule="evenodd"
    d="M10.3269 8.54335H14.506V8.06114H10.3269V8.54335Z"
    fill="white"
  />
  <path
    fill-rule="evenodd"
    clip-rule="evenodd"
    d="M18.3041 14.5094C17.5913 14.0812 16.9669 13.7935 14.023 13.7935C11.0301 13.7935 10.5826 13.7935 9.32555 13.7935V14.3648C9.32555 14.3648 11.4722 14.3648 13.9196 14.3648C16.5288 14.3648 17.5192 14.8092 17.8185 14.9862C18.4034 15.3306 19.1775 15.8898 19.1775 17.0325C19.1775 17.7633 18.7272 18.6791 18.0606 19.0384C17.4539 19.3666 16.3452 19.6597 14.3916 19.6597C14.1454 19.6597 2.35083 19.6597 2.35083 19.6597V20.2311C2.35083 20.2311 13.4584 20.2297 14.4365 20.2297C16.7927 20.2297 17.6008 19.9798 18.4306 19.5408C19.2618 19.1005 19.8169 18.1969 19.8169 17.0366C19.8169 15.7412 19.0632 14.9646 18.3041 14.5094Z"
    fill="white"
  />
</svg>
