<svg
  width="24"
  height="24"
  viewBox="0 0 24 24"
  fill="none"
  xmlns="http://www.w3.org/2000/svg"
>
  <g clip-path="url(#clip0_6628_171340)">
    <path
      d="M3.7469 12.977C3.91242 13.0576 4.06065 13.158 4.18777 13.2874C4.42677 13.531 4.55517 13.8274 4.59102 14.1633C4.62839 14.5131 4.59508 14.8559 4.45906 15.1839C4.2638 15.6545 3.90988 15.9502 3.43341 16.1088C3.16975 16.1968 2.89745 16.2283 2.62057 16.2283C1.7757 16.2286 0.930568 16.2283 0.0856926 16.2283C1.01099e-05 16.2283 -0.000244141 16.2283 -0.000244141 16.1429C1.01101e-05 14.0817 1.01101e-05 12.0202 1.01101e-05 9.959C1.01101e-05 9.87662 1.01099e-05 9.87636 0.0818789 9.87636C0.91633 9.87636 1.75053 9.87357 2.58498 9.87764C2.9722 9.87967 3.34722 9.94603 3.69097 10.1382C4.13387 10.3861 4.38762 10.7683 4.48042 11.2613C4.54169 11.5872 4.53635 11.9094 4.40821 12.2216C4.28388 12.5249 4.08379 12.7636 3.80284 12.934C3.78657 12.9439 3.77029 12.9536 3.75402 12.9635C3.75275 12.9647 3.75224 12.967 3.7469 12.977ZM1.24686 15.1185C1.27991 15.1185 1.30533 15.1185 1.3305 15.1185C1.7307 15.1185 2.13089 15.119 2.53108 15.118C2.58803 15.1177 2.64524 15.1139 2.70168 15.1066C3.28722 15.0293 3.5763 14.3372 3.22162 13.8617C3.05661 13.6405 2.82296 13.563 2.56032 13.5605C2.14538 13.5564 1.73044 13.5592 1.3155 13.5594C1.29288 13.5594 1.2705 13.562 1.24686 13.5633C1.24686 14.0835 1.24686 14.5968 1.24686 15.1185ZM1.24609 12.4377C1.26287 12.4402 1.27304 12.443 1.28347 12.443C1.69383 12.4433 2.10444 12.4496 2.5148 12.4415C2.94449 12.4329 3.2206 12.2017 3.26866 11.8112C3.30146 11.544 3.22925 11.3073 3.00246 11.1382C2.8288 11.0088 2.62617 10.9839 2.41844 10.9831C2.05029 10.9816 1.68213 10.9826 1.31398 10.9829C1.2916 10.9829 1.26923 10.9852 1.24635 10.9864C1.24609 11.4731 1.24609 11.9526 1.24609 12.4377Z"
      fill="white"
    />
    <path
      d="M14.8988 12.966C15.0074 13.0385 15.1154 13.101 15.2126 13.1776C15.4879 13.3947 15.6562 13.6805 15.718 14.0245C15.794 14.4488 15.761 14.8648 15.5764 15.2583C15.3682 15.7025 15.011 15.9761 14.5485 16.1203C14.2917 16.2003 14.0275 16.2288 13.7595 16.2288C12.921 16.2286 12.0822 16.2288 11.2437 16.2288C11.2163 16.2288 11.1888 16.2288 11.156 16.2288C11.156 14.1119 11.156 11.9988 11.156 9.87636C11.1776 9.87636 11.2 9.87636 11.2224 9.87636C12.0632 9.87636 12.9037 9.8728 13.7445 9.87789C14.1361 9.88018 14.5149 9.95035 14.8599 10.1494C15.2774 10.3905 15.5256 10.7533 15.6212 11.2213C15.6812 11.515 15.6898 11.8094 15.6 12.1C15.4872 12.4654 15.266 12.7463 14.9377 12.9426C14.9253 12.9503 14.9128 12.9576 14.8988 12.966ZM12.3932 15.1149C12.4112 15.1165 12.4217 15.1182 12.4321 15.1182C12.8702 15.1182 13.3085 15.1205 13.7466 15.117C13.892 15.1157 14.0321 15.0793 14.1584 15.0041C14.4104 14.8538 14.5111 14.6192 14.5144 14.3377C14.5167 14.1279 14.4572 13.9367 14.3041 13.7839C14.1396 13.6194 13.9329 13.5617 13.7087 13.5602C13.2937 13.5572 12.8788 13.5605 12.4639 13.5582C12.4067 13.5579 12.3886 13.5722 12.3889 13.6319C12.3914 14.1038 12.3901 14.5754 12.3904 15.0473C12.3901 15.0679 12.3919 15.0888 12.3932 15.1149ZM12.3901 11.7098C12.3901 11.9297 12.3922 12.1499 12.3889 12.3698C12.3881 12.4278 12.4041 12.4448 12.4629 12.4445C12.8524 12.442 13.2419 12.4461 13.6314 12.4412C13.7295 12.44 13.8307 12.4257 13.9248 12.398C14.4058 12.2574 14.5919 11.6452 14.2749 11.2552C14.1223 11.0673 13.9139 10.9925 13.681 10.9887C13.2683 10.9816 12.8554 10.9846 12.4428 10.9816C12.3932 10.9811 12.3891 11.0042 12.3894 11.0434C12.3906 11.2656 12.3901 11.4878 12.3901 11.7098Z"
      fill="white"
    />
    <path
      d="M10.2933 9.88096C10.2381 9.99029 10.1868 10.0935 10.1344 10.1962C9.93278 10.5918 9.73091 10.9872 9.52903 11.3826C9.2013 12.0246 8.87332 12.6665 8.54559 13.3088C8.49753 13.4028 8.44796 13.4964 8.40346 13.5923C8.38999 13.6212 8.38566 13.6571 8.38566 13.6899C8.38465 14.5068 8.3849 15.3237 8.3849 16.1404C8.3849 16.1673 8.3849 16.1943 8.3849 16.2245C7.97225 16.2245 7.56723 16.2245 7.15433 16.2245C7.15433 16.1932 7.15433 16.1663 7.15433 16.1393C7.15433 15.3224 7.15484 14.5055 7.15306 13.6889C7.15306 13.6485 7.1439 13.604 7.1256 13.5681C6.72134 12.7728 6.31479 11.9785 5.90952 11.1835C5.69823 10.7693 5.48797 10.3544 5.27745 9.9397C5.26906 9.92317 5.26219 9.90588 5.25024 9.87969C5.27923 9.87842 5.30135 9.87664 5.32321 9.87664C5.72544 9.87639 6.12792 9.8774 6.53014 9.87537C6.57667 9.87512 6.60133 9.88834 6.62116 9.93181C6.93949 10.6229 7.25984 11.3134 7.57969 12.0037C7.64351 12.1415 7.70809 12.2793 7.77724 12.4275C7.79402 12.3968 7.80775 12.3749 7.81843 12.3515C8.08489 11.767 8.35109 11.1822 8.61754 10.5974C8.71924 10.3742 8.8217 10.1517 8.9234 9.92851C8.93713 9.89851 8.94908 9.87537 8.99078 9.87537C9.41207 9.8769 9.83362 9.87639 10.2549 9.87664C10.2651 9.87664 10.275 9.87868 10.2933 9.88096Z"
      fill="white"
    />
    <path
      d="M22.3483 16.2243C21.9313 16.2243 21.522 16.2243 21.1058 16.2243C21.1058 14.4771 21.1058 12.7342 21.1058 10.9837C20.5518 10.9837 20.0044 10.9837 19.4529 10.9837C19.4529 10.613 19.4529 10.2499 19.4529 9.88173C20.9677 9.88173 22.482 9.88173 23.9999 9.88173C23.9999 10.2473 23.9999 10.6104 23.9999 10.9806C23.4502 10.9806 22.9031 10.9806 22.348 10.9806C22.3483 12.7321 22.3483 14.4765 22.3483 16.2243Z"
      fill="white"
    />
    <path
      d="M17.1158 8C17.5274 8 17.9291 8 18.3372 8C18.3385 8.02466 18.341 8.04704 18.341 8.06941C18.3413 10.1309 18.341 12.1923 18.3423 14.2538C18.3423 14.3133 18.328 14.3341 18.2653 14.3336C17.9073 14.3308 17.5495 14.3308 17.1915 14.3336C17.1293 14.3341 17.1143 14.3143 17.1143 14.2541C17.1158 12.1926 17.1155 10.1311 17.1155 8.06966C17.1158 8.04907 17.1158 8.02822 17.1158 8Z"
      fill="#FFA300"
    />
  </g>
  <defs>
    <clipPath id="clip0_6628_171340">
      <rect
        width="24"
        height="8.22883"
        fill="white"
        transform="translate(0 8)"
      />
    </clipPath>
  </defs>
</svg>
