<svg
  width="24"
  height="24"
  viewBox="0 0 24 24"
  fill="none"
  xmlns="http://www.w3.org/2000/svg"
>
  <path
    d="M10.4256 8.35436L10.3092 8.23719C10.2211 8.14918 10.0697 8.21151 10.0697 8.33631V10.0097C10.0697 10.0869 10.1331 10.1498 10.2106 10.1498H11.8843C12.0091 10.1498 12.0719 9.99867 11.9832 9.91078C11.9285 9.85606 11.9285 9.76745 11.9832 9.71285L13.7634 7.92716C13.8183 7.87275 13.8183 7.78416 13.7634 7.7292L13.6013 7.56761C13.5131 7.47958 13.5759 7.3284 13.7004 7.3284H15.3731C15.4505 7.3284 15.5138 7.39121 15.5138 7.46856V9.14177C15.5138 9.26657 15.3621 9.32904 15.2738 9.24089L15.161 9.12819C15.1059 9.07193 15.0173 9.07193 14.9634 9.12819L11.962 12.1282C11.9075 12.1828 11.8191 12.1828 11.7639 12.1282L8.09181 8.45612C8.03661 8.40092 8.03661 8.31219 8.09181 8.25735L13.1752 3.17419C13.2298 3.11947 13.2298 3.03019 13.1752 2.97571L11.9799 1.78051C11.9251 1.72603 11.8365 1.72603 11.7816 1.78051L5.20077 8.36156C5.14629 8.41628 5.14629 8.50556 5.20077 8.56004L11.7809 15.1401C11.8356 15.1945 11.9249 15.1945 11.9794 15.1401L18.5592 8.56004C18.6136 8.50532 18.6136 8.41652 18.5592 8.36199L14.6881 4.49079C14.6339 4.43631 14.5449 4.43631 14.49 4.49079L10.6248 8.3544C10.5696 8.4096 10.4808 8.4096 10.4256 8.3544V8.35436Z"
    fill="#DE5959"
  />
  <path
    d="M15.5215 19.575C15.4207 19.575 15.3337 19.6111 15.2608 19.6837C15.1889 19.7564 15.1521 19.8422 15.1521 19.9416C15.1521 20.093 15.229 20.2108 15.3816 20.295C15.5489 20.3407 15.6834 20.3109 15.7847 20.2074C15.858 20.1342 15.8939 20.0466 15.8939 19.9444C15.8939 19.8413 15.858 19.755 15.7847 19.6837C15.712 19.6118 15.6248 19.576 15.5212 19.576V19.575H15.5215V19.575ZM9.58075 16.7648H9.30523C9.18619 16.7648 9.08923 16.8607 9.08923 16.98V17.1337C8.79643 16.8288 8.46427 16.6762 8.09328 16.6762C7.66531 16.6762 7.308 16.8356 7.02288 17.1534C6.73718 17.4712 6.59515 17.8687 6.59515 18.3455C6.59515 18.8304 6.73742 19.2361 7.0223 19.5605C7.31035 19.8785 7.67352 20.0371 8.11344 20.0371C8.46137 20.0371 8.78681 19.8951 9.08952 19.6117V19.9157C9.08952 20.0634 9.20952 20.1834 9.35681 20.1834H9.82721V17.0112C9.82716 16.8755 9.71676 16.7648 9.58073 16.7648H9.58075ZM8.88427 19.0995C8.71627 19.2868 8.49686 19.3803 8.22427 19.3803C7.96939 19.3803 7.758 19.2839 7.59067 19.0899C7.42742 18.8988 7.34587 18.6499 7.34587 18.345C7.34587 18.06 7.42987 17.82 7.59715 17.6265C7.76683 17.4347 7.9781 17.3396 8.23075 17.3396C8.49864 17.3396 8.71603 17.4343 8.8836 17.6246C9.05153 17.8182 9.13555 18.0638 9.13555 18.3619C9.13555 18.6603 9.05155 18.9061 8.8836 19.0999H8.88432V19.0995H8.88427ZM6.59467 17.3018V16.9875C6.59467 16.8642 6.49531 16.7653 6.37248 16.7653H6.08198C5.95963 16.7653 5.86003 16.8638 5.86003 16.987V17.1239C5.59435 16.8258 5.26123 16.6763 4.86067 16.6763C4.40347 16.6763 4.03507 16.849 3.75662 17.1923C3.49742 17.5163 3.36792 17.9105 3.36792 18.3745C3.36792 18.851 3.50748 19.249 3.78641 19.5666C4.06294 19.8809 4.41768 20.0367 4.85105 20.0367C5.23164 20.0367 5.56822 19.8882 5.86001 19.5898V20.0339C5.86001 20.6939 5.59121 21.0239 5.05361 21.0239C4.76172 21.0239 4.54001 20.9246 4.38766 20.7263C4.34878 20.6761 4.31652 20.6138 4.29086 20.5386C4.25486 20.4333 4.15478 20.3635 4.04414 20.3635H3.76574C3.62534 20.3635 3.52094 20.4971 3.55642 20.633C3.63259 20.9227 3.77966 21.158 3.99857 21.3399C4.27294 21.5686 4.62262 21.683 5.04684 21.683C5.54969 21.683 5.94497 21.5175 6.23254 21.1871C6.38489 21.015 6.48684 20.8093 6.53921 20.5697C6.55668 20.4835 6.57041 20.382 6.58001 20.2674C6.58961 20.1535 6.59441 20.0213 6.59441 19.8708V19.4086C6.38873 19.1123 6.28529 18.7582 6.28529 18.3455C6.28529 17.9398 6.38849 17.5931 6.59441 17.3018H6.59465L6.59467 17.3018ZM5.66395 19.0744C5.50075 19.2785 5.27899 19.3802 4.99776 19.3802C4.71686 19.3802 4.49702 19.2794 4.33776 19.0763C4.19222 18.8916 4.11931 18.6539 4.11931 18.3647C4.11931 18.0703 4.1922 17.8308 4.33776 17.6461C4.49928 17.4396 4.71888 17.3363 4.99776 17.3363C5.25888 17.3363 5.47344 17.431 5.64089 17.6201C5.80644 17.805 5.88953 18.0521 5.88953 18.3617C5.88953 18.6511 5.81417 18.8883 5.66393 19.074V19.0744L5.66395 19.0744ZM12.7031 16.7672V16.7648H11.1792V15.8315C11.1792 15.7115 11.0821 15.6145 10.9619 15.6145H10.6644C10.5432 15.6145 10.4448 15.713 10.4448 15.8344V16.7648H10.1308V17.4499H10.4443V20.183H10.8634C11.0381 20.183 11.1787 20.0423 11.1787 19.8675V17.4504H11.9322C11.9917 17.3367 12.0638 17.2319 12.1495 17.1361C12.3056 16.9655 12.4903 16.8426 12.7026 16.7672H12.7031L12.7031 16.7672ZM16.4526 15.6145C16.3223 15.6145 16.2102 15.6616 16.1165 15.7556C16.0232 15.8491 15.9759 15.9604 15.9759 16.0887C15.9759 16.2239 16.0228 16.3373 16.1165 16.4318C16.2102 16.5253 16.3237 16.572 16.4563 16.572C16.5892 16.572 16.7013 16.5253 16.792 16.4313C16.8857 16.3369 16.9331 16.2249 16.9331 16.0917C16.9331 15.9591 16.8862 15.8466 16.7922 15.7557C16.698 15.6612 16.5848 15.6141 16.4521 15.6141L16.4526 15.6145V15.6145ZM16.6014 17.1253H16.3349C16.1983 17.1253 16.087 17.2355 16.087 17.3733V19.7058C16.1432 19.7719 16.1702 19.8499 16.1702 19.9399C16.1702 20.0299 16.1437 20.1087 16.087 20.1751V20.3063H16.56C16.7048 20.3063 16.822 20.1887 16.822 20.0438V17.3447C16.822 17.2233 16.7231 17.1249 16.6012 17.1249L16.6014 17.1254L16.6014 17.1253ZM20.0549 17.5753C19.724 17.2514 19.3211 17.0892 18.8465 17.0892C18.374 17.0892 17.9732 17.25 17.6446 17.573C17.316 17.8945 17.1515 18.2855 17.1515 18.7449C17.1515 19.2321 17.3123 19.6378 17.6348 19.9601C17.9573 20.2866 18.3571 20.4497 18.8333 20.4497C19.3143 20.4497 19.7202 20.2899 20.0514 19.9697C20.3793 19.6467 20.5443 19.2481 20.5443 18.7711C20.5443 18.2984 20.3812 17.8999 20.0549 17.5753V17.5753ZM19.5351 19.5155C19.3635 19.7009 19.1338 19.7925 18.846 19.7925C18.5605 19.7925 18.3313 19.6995 18.157 19.5117C17.9873 19.3271 17.902 19.0749 17.902 18.7575C17.902 18.4617 17.9896 18.2199 18.1635 18.0328C18.3379 17.8453 18.5652 17.7518 18.8465 17.7518C19.1312 17.7518 19.3612 17.8453 19.535 18.0328C19.7071 18.2175 19.7934 18.4645 19.7934 18.7735C19.7934 19.0833 19.7066 19.3301 19.5351 19.515V19.516V19.5155H19.5351Z"
    fill="#DE5959"
  />
  <path
    d="M12.9768 19.3871C12.8253 19.2338 12.7408 19.0247 12.7213 18.7632H14.8274C14.9235 18.7632 15.0027 18.6863 15.0041 18.5904C15.0041 18.0647 14.8691 17.6555 14.5994 17.3592C14.3268 17.0609 13.956 16.9118 13.4886 16.9118C13.0255 16.9118 12.6529 17.0653 12.3721 17.3724C12.0933 17.6841 11.9541 18.0907 11.9541 18.5939C11.9541 19.1009 12.0981 19.5082 12.3848 19.815C12.5854 20.0285 12.8313 20.1666 13.1231 20.2308C13.2454 20.2596 13.3722 20.2748 13.5004 20.273C14.0236 20.2838 14.4787 20.2945 15.0019 20.3053L15.0028 20.2285C14.9388 20.1589 14.9067 20.0747 14.9067 19.9772C14.9067 19.8821 14.9402 19.8003 15.0056 19.7295L15.006 19.6365C14.5936 19.6261 13.5933 19.6163 13.5534 19.6163C13.319 19.6163 13.1264 19.5406 12.9769 19.3876V19.3871L12.9768 19.3871ZM12.8746 17.918C12.9208 17.8458 12.9754 17.7849 13.0398 17.7338C13.1048 17.6818 13.1751 17.6433 13.2538 17.6161C13.3321 17.5889 13.416 17.5753 13.506 17.5753C13.897 17.5753 14.1445 17.7708 14.2476 18.1627H12.7703C12.7945 18.0713 12.8291 17.9897 12.8746 17.9176V17.918H12.8746Z"
    fill="#DE5959"
  />
</svg>
