<svg
  width="24"
  height="24"
  viewBox="0 0 24 24"
  fill="none"
  xmlns="http://www.w3.org/2000/svg"
>
  <g clip-path="url(#clip0_6628_171354)">
    <path
      d="M1 8.00786C1.03756 8.00518 1.07491 8.00002 1.11247 8.00002C1.68347 7.9994 2.25447 7.99961 2.82547 7.99961C2.86283 7.99961 2.90018 7.99961 2.95032 7.99961C2.95032 9.05164 2.95032 10.0948 2.95032 11.1474C3.87482 11.1474 4.78674 11.1474 5.71062 11.1474C5.71062 10.1012 5.71062 9.05742 5.71062 8.00683C6.36685 8.00683 7.01131 8.00683 7.66218 8.00683C7.66218 10.7605 7.66218 13.5097 7.66218 16.2636C7.01131 16.2636 6.36685 16.2636 5.71062 16.2636C5.71062 15.2128 5.71062 14.1692 5.71062 13.1194C4.78901 13.1194 3.87895 13.1194 2.95713 13.1194C2.95713 14.1682 2.95713 15.2115 2.95713 16.2603C2.91958 16.2646 2.89316 16.2702 2.86695 16.2702C2.2685 16.2706 1.67006 16.2706 1.0714 16.2702C1.04767 16.2702 1.02394 16.265 1.00021 16.2623C1 13.5107 1 10.7593 1 8.00786Z"
      fill="#03E0BB"
    />
    <path
      d="M19.4571 16.2708C17.4968 16.2708 15.9169 14.6892 15.918 12.7282C15.919 10.7743 17.5061 9.19607 19.4695 9.19669C21.4233 9.19731 22.9993 10.7859 22.9956 12.7511C22.9921 14.6995 21.4124 16.2708 19.4571 16.2708ZM21.0157 12.7393C21.0159 11.8761 20.3176 11.1734 19.46 11.1738C18.6015 11.1742 17.8959 11.8794 17.8974 12.7354C17.8986 13.5951 18.6007 14.2944 19.4614 14.2938C20.3186 14.2932 21.0157 13.5959 21.0157 12.7393Z"
      fill="#03E0BB"
    />
    <path
      d="M15.3312 12.7465C15.3069 14.8017 13.6232 16.3221 11.6797 16.2749C9.79785 16.2291 8.22289 14.6155 8.2491 12.7236C8.27655 10.7273 9.86099 9.17192 11.8468 9.19772C13.7354 9.22207 15.3221 10.7506 15.3312 12.7465ZM10.2298 12.7387C10.2364 13.6085 10.9359 14.299 11.8053 14.2938C12.6553 14.2889 13.3656 13.5685 13.3512 12.7261C13.3365 11.8645 12.6403 11.1734 11.7876 11.174C10.9295 11.1745 10.2234 11.8837 10.2298 12.7387Z"
      fill="#03E0BB"
    />
  </g>
  <defs>
    <clipPath id="clip0_6628_171354">
      <rect
        width="22"
        height="8.27592"
        fill="white"
        transform="translate(1 8)"
      />
    </clipPath>
  </defs>
</svg>
