<svg
  width="111"
  height="78"
  viewBox="0 0 111 78"
  fill="none"
  xmlns="http://www.w3.org/2000/svg"
>
  <mask
    id="mask0"
    maskUnits="userSpaceOnUse"
    x="0"
    y="0"
    width="111"
    height="78"
  >
    <path d="M0 0H101C106.523 0 111 4.47715 111 10V78H0V0Z" fill="#C4C4C4" />
  </mask>
  <g mask="url(#mask0)">
    <path
      opacity="0.181"
      d="M111 -1.81031C106.973 -0.0715837 102.715 1.0808 98.3617 1.6132C102.954 -1.0825 106.388 -5.34841 108.009 -10.3826C103.71 -7.86215 99.0021 -6.08296 94.0967 -5.13272C85.8188 -13.8803 71.9336 -14.3319 63.097 -6.13695C58.6685 -2.03274 56.1544 3.70238 56.1544 9.70706C56.1339 11.3717 56.3043 13.0296 56.6654 14.6537C39.0194 13.7979 22.5725 5.54223 11.4535 -8.03738C5.59423 1.86933 8.54432 14.5796 18.1917 20.9617C14.717 20.8673 11.3172 19.9508 8.27858 18.2862V18.5221C8.2922 28.8466 15.63 37.7492 25.8565 39.8451C23.9829 40.3371 22.048 40.5729 20.1062 40.5594C18.7095 40.5864 17.3196 40.4584 15.9502 40.1888C18.8525 49.0105 27.0692 55.0691 36.4441 55.3049C28.6771 61.3096 19.1047 64.5714 9.24607 64.5579C7.4951 64.5714 5.73735 64.4704 4 64.2614C14.0289 70.657 25.7202 74.0401 37.65 73.9996C78.0109 73.9996 100.085 40.9233 100.085 12.2545C100.085 11.2975 100.051 10.3675 100.004 9.45097C104.33 6.39134 108.057 2.57695 111 -1.81031Z"
      fill="#84E6FD"
      fill-opacity="0.5"
    />
  </g>
</svg>
