<svg
  width="30"
  height="25"
  viewBox="0 0 30 25"
  fill="none"
  xmlns="http://www.w3.org/2000/svg"
>
  <path
    d="M29.77 2.86347C28.65 3.35347 27.47 3.67347 26.25 3.82347C27.53 3.06347 28.48 1.86347 28.93 0.453473C27.73 1.16347 26.43 1.66347 25.06 1.93347C22.76 -0.526527 18.9 -0.656527 16.44 1.64347C15.21 2.79347 14.51 4.41347 14.51 6.10347C14.51 6.57347 14.55 7.03347 14.65 7.49347C9.74 7.25347 5.17 4.93347 2.07 1.11347C0.44 3.90347 1.26 7.47347 3.95 9.26347C2.98 9.23347 2.04 8.98347 1.19 8.51347V8.58347C1.19 11.4935 3.23 13.9935 6.08 14.5835C5.56 14.7235 5.02 14.7835 4.48 14.7835C4.09 14.7935 3.71 14.7535 3.32 14.6835C4.13 17.1635 6.41 18.8635 9.02 18.9335C6.86 20.6235 4.2 21.5335 1.46 21.5335C0.969999 21.5335 0.48 21.5035 0 21.4435C2.79 23.2435 6.04 24.1935 9.36 24.1835C20.59 24.1835 26.73 14.8835 26.73 6.82347C26.73 6.55347 26.72 6.29347 26.71 6.03347C27.92 5.16347 28.96 4.09347 29.77 2.86347Z"
    fill="#1BA0F5"
  />
</svg>
