<svg width="25" height="25" viewBox="0 0 25 25" fill="none" xmlns="http://www.w3.org/2000/svg">
<path d="M12.5 23C18.2988 23 23 18.2988 23 12.5C23 6.70122 18.2988 2 12.5 2C6.70122 2 2 6.70122 2 12.5C2 18.2988 6.70122 23 12.5 23ZM13.8198 18.8785C13.8198 19.6075 13.2291 20.1983 12.5 20.1983C11.7709 20.1983 11.1802 19.6075 11.1802 18.8784L11.1802 10.7446C11.1802 10.0156 11.7709 9.42481 12.5 9.42481C13.2291 9.42481 13.8198 10.0156 13.8198 10.7446L13.8198 18.8785ZM12.5 5.2246C13.3811 5.2246 14.0954 5.93889 14.0954 6.82C14.0954 7.70112 13.3811 8.41541 12.5 8.41541C11.6189 8.41541 10.9046 7.70112 10.9046 6.82C10.9046 5.93889 11.6189 5.2246 12.5 5.2246Z" fill="#B2B2B2"/>
</svg>
