<svg width="133" height="110" viewBox="0 0 133 110" fill="none" xmlns="http://www.w3.org/2000/svg">
<g filter="url(#filter0_d_1231:4089)">
<path d="M61.6015 24.9968L76.2491 56.6207C76.7504 57.7047 76.2451 58.9959 75.1591 59.4987L44.1573 73.4196C43.0712 73.9224 41.7796 73.42 41.2783 72.336L22.9266 31.488C22.4253 30.404 22.9306 29.1128 24.0167 28.61L46.4633 18.5094L61.6015 24.9968Z" fill="#69738D"/>
</g>
<path d="M46.6112 18.5489L50.5282 27.2753C51.0837 28.4529 52.5773 29.0883 53.851 28.4771L61.6953 24.9426" fill="#354156"/>
<path d="M67.6555 50.8468L42.0697 62.0123C41.4527 62.244 40.7131 62.047 40.4823 61.431L33.3913 45.0475C33.1605 44.4315 33.359 43.6923 33.976 43.4606L59.5077 32.2015C60.1247 31.9698 60.8643 32.1668 61.0952 32.7827L68.1861 49.1663C68.4711 49.8759 68.2184 50.5215 67.6555 50.8468Z" fill="#495163"/>
<path d="M54.7557 53.431L42.928 58.5183L45.8734 49.3227L54.7557 53.431Z" fill="#545C6F"/>
<path d="M64.5453 49.1472L47.4207 56.5465L51.8676 43.2359L64.5453 49.1472Z" fill="#68718B"/>
<path d="M43.6232 47.3766C44.8149 46.6878 45.2238 45.1655 44.5365 43.9763C43.8492 42.7871 42.326 42.3814 41.1343 43.0701C39.9426 43.7589 39.5337 45.2812 40.221 46.4704C40.9083 47.6596 42.4315 48.0653 43.6232 47.3766Z" fill="url(#paint0_linear_1231:4089)"/>
<path d="M44.1453 26.8426L28.63 33.5616C28.4424 33.67 28.1465 33.5912 28.1321 33.3498L28.0239 33.1626C27.9157 32.9753 27.9951 32.6796 28.2369 32.6648L43.7521 25.9458C43.9398 25.8374 44.2356 25.9161 44.25 26.1576L44.3582 26.3448C44.4664 26.5321 44.387 26.8278 44.1453 26.8426Z" fill="#495163"/>
<path d="M45.62 29.6117L29.9171 36.4392C29.7295 36.5476 29.4337 36.4688 29.4193 36.2273L29.311 36.0401C29.2028 35.8529 29.2822 35.5572 29.524 35.5424L45.2269 28.7149C45.4145 28.6065 45.7104 28.6853 45.7248 28.9267L45.833 29.114C45.9412 29.3012 45.8077 29.5033 45.62 29.6117Z" fill="#495163"/>
<path d="M62.484 57.7074L42.9997 66.2208C42.7183 66.3834 42.3683 66.211 42.2998 65.8759C42.1375 65.5951 42.3107 65.2452 42.6463 65.1761L62.0368 56.717C62.3182 56.5543 62.6682 56.7268 62.7367 57.0618C62.899 57.3427 62.8196 57.6384 62.484 57.7074Z" fill="#495163"/>
<path d="M44.9779 33.4801L31.2595 39.4104C30.978 39.5731 30.6281 39.4006 30.5596 39.0656C30.3973 38.7847 30.5705 38.4348 30.9061 38.3658L44.6244 32.4355C44.9059 32.2728 45.2558 32.4452 45.3243 32.7803C45.3387 33.0218 45.2593 33.3174 44.9779 33.4801Z" fill="#495163"/>
<path d="M71.2957 57.3606L44.1404 69.0585C43.8589 69.2212 43.509 69.0488 43.4405 68.7137C43.2781 68.4328 43.4514 68.0829 43.7869 68.0139L70.8881 56.2224C71.1696 56.0597 71.5195 56.2321 71.588 56.5672C71.7504 56.848 71.5771 57.1979 71.2957 57.3606Z" fill="#495163"/>
<path d="M70.1013 54.4288L64.8044 56.7408C64.523 56.9034 64.173 56.731 64.1045 56.396C63.9422 56.1151 64.1154 55.7652 64.451 55.6962L69.7478 53.3842C70.0293 53.2215 70.3792 53.3939 70.4477 53.729C70.5162 54.0641 70.4368 54.3598 70.1013 54.4288Z" fill="url(#paint1_linear_1231:4089)"/>
<g filter="url(#filter1_d_1231:4089)">
<path d="M110.215 45.6185L92.1196 75.4037C91.4989 76.4241 90.1452 76.7241 89.1225 76.1024L60.2872 58.1183C59.2645 57.4967 58.9619 56.1442 59.5826 55.1239L83.2734 17.1227C83.8941 16.1023 85.2478 15.8024 86.2705 16.424L107.166 29.4335L110.215 45.6185Z" fill="#69738D"/>
</g>
<path d="M107.215 29.5783L102.152 37.6937C101.484 38.8112 101.789 40.4055 103.006 41.1225L110.312 45.6662" fill="#354156"/>
<path d="M92.1249 65.0508L68.5958 50.0281C68.0595 49.6449 67.811 48.921 68.1938 48.3861L77.8461 33.3683C78.2289 32.8334 78.9533 32.5863 79.4895 32.9695L103.066 47.895C103.602 48.2782 103.851 49.0021 103.468 49.537L93.8159 64.5549C93.3856 65.1869 92.7087 65.3369 92.1249 65.0508Z" fill="#495163"/>
<path d="M82.7905 55.7805L71.9751 48.7946L81.2519 46.1158L82.7905 55.7805Z" fill="#545C6F"/>
<path d="M91.8037 61.5214L76.1169 51.4257L89.6472 47.7006L91.8037 61.5214Z" fill="#68718B"/>
<path d="M81.6136 43.1621C82.8495 43.7678 84.3415 43.259 84.9459 42.0256C85.5503 40.7922 85.0383 39.3013 83.8024 38.6956C82.5664 38.09 81.0745 38.5988 80.47 39.8322C79.8656 41.0655 80.3776 42.5564 81.6136 43.1621Z" fill="url(#paint2_linear_1231:4089)"/>
<path d="M98.9556 32.1531L84.7304 23.0145C84.5358 22.9191 84.4364 22.6295 84.6288 22.483L84.724 22.2888C84.8192 22.0947 85.1089 21.9958 85.2559 22.1883L99.4811 31.3269C99.6757 31.4222 99.7751 31.7118 99.5827 31.8583L99.4875 32.0525C99.3923 32.2467 99.1026 32.3455 98.9556 32.1531Z" fill="#495163"/>
<path d="M97.4783 34.9212L83.0585 25.6873C82.8639 25.5919 82.7645 25.3023 82.957 25.1558L83.0521 24.9616C83.1473 24.7674 83.437 24.6686 83.5841 24.8611L98.0038 34.095C98.1984 34.1904 98.2979 34.48 98.1054 34.6265L98.0102 34.8207C97.9151 35.0149 97.6729 35.0166 97.4783 34.9212Z" fill="#495163"/>
<path d="M83.5465 64.5795L65.6197 53.1452C65.3278 53.0022 65.2759 52.6155 65.516 52.3719C65.6587 52.0806 66.0458 52.0295 66.2901 52.2696L84.1197 63.6562C84.4116 63.7993 84.4634 64.1859 84.2234 64.4296C84.0806 64.7208 83.7909 64.8197 83.5465 64.5795Z" fill="#495163"/>
<path d="M93.9093 36.5432L81.3404 28.4571C81.0485 28.3141 80.9966 27.9274 81.2367 27.6838C81.3794 27.3925 81.7665 27.3414 82.0108 27.5815L94.5797 35.6676C94.8716 35.8107 94.9235 36.1973 94.6834 36.4409C94.4909 36.5874 94.2012 36.6863 93.9093 36.5432Z" fill="#495163"/>
<path d="M88.7449 71.7028L63.899 55.6736C63.6071 55.5306 63.5552 55.1439 63.7953 54.9003C63.938 54.609 64.3251 54.5579 64.5694 54.798L89.4629 70.7301C89.7548 70.8731 89.8066 71.2598 89.5666 71.5034C89.4238 71.7947 89.0368 71.8458 88.7449 71.7028Z" fill="#495163"/>
<path d="M90.5146 69.0777L85.6431 65.9679C85.3512 65.8249 85.2993 65.4382 85.5394 65.1946C85.6821 64.9033 86.0692 64.8522 86.3135 65.0923L91.185 68.2021C91.4769 68.3451 91.5287 68.7318 91.2887 68.9754C91.0486 69.219 90.7589 69.3178 90.5146 69.0777Z" fill="url(#paint3_linear_1231:4089)"/>
<g filter="url(#filter2_d_1231:4089)">
<path d="M87.293 32.0479L84.1506 66.7573C84.0423 67.9468 82.9587 68.8118 81.7668 68.7037L47.9596 65.2435C46.7676 65.1354 45.9008 64.0541 46.0091 62.8647L50.5601 18.3155C50.6685 17.1261 51.752 16.261 52.944 16.3692L77.4325 18.8561L87.293 32.0479Z" fill="#69738D"/>
</g>
<path d="M77.5401 18.9643L76.5649 28.4797C76.4565 29.7772 77.4317 31.0748 78.8403 31.1829L87.4005 32.0479" fill="#354156"/>
<path d="M79.6004 57.4583L51.8611 54.3225C51.211 54.2144 50.6692 53.6737 50.7775 53.025L52.8363 35.2918C52.9447 34.643 53.4865 34.1024 54.1366 34.2105L81.8759 37.2381C82.526 37.3462 83.0678 37.8869 82.9594 38.5357L80.9007 56.2688C80.7923 57.0257 80.2505 57.4583 79.6004 57.4583Z" fill="#495163"/>
<path d="M67.1396 53.2412L54.3535 51.7274L61.505 45.2397L67.1396 53.2412Z" fill="#545C6F"/>
<path d="M77.7575 54.4306L59.2285 52.268L69.7391 42.9689L77.7575 54.4306Z" fill="#68718B"/>
<path d="M60.5293 42.4283C61.9057 42.4283 63.0215 41.3148 63.0215 39.9413C63.0215 38.5678 61.9057 37.4543 60.5293 37.4543C59.1529 37.4543 58.0371 38.5678 58.0371 39.9413C58.0371 41.3148 59.1529 42.4283 60.5293 42.4283Z" fill="url(#paint4_linear_1231:4089)"/>
<path d="M71.2566 24.9114L54.4613 22.9651C54.2446 22.9651 54.0279 22.7488 54.1362 22.5325V22.3163C54.1362 22.1 54.353 21.8838 54.5697 21.9919L71.3649 23.9382C71.5816 23.9382 71.7984 24.1545 71.69 24.3707V24.587C71.69 24.8033 71.4733 25.0195 71.2566 24.9114Z" fill="#495163"/>
<path d="M71.1491 28.0471L54.1371 26.1008C53.9204 26.1008 53.7037 25.8845 53.812 25.6683V25.452C53.812 25.2358 54.0287 25.0195 54.2454 25.1276L71.2574 27.074C71.4741 27.074 71.6908 27.2902 71.5825 27.5065V27.7227C71.5825 27.939 71.3658 28.0471 71.1491 28.0471Z" fill="#495163"/>
<path d="M71.6888 60.8102L50.5593 58.4314C50.2342 58.4314 50.0175 58.107 50.1258 57.7826C50.1258 57.4582 50.4509 57.242 50.776 57.3501L71.7971 59.7289C72.1222 59.7289 72.3389 60.0533 72.2306 60.3777C72.2306 60.7021 72.0139 60.9183 71.6888 60.8102Z" fill="#495163"/>
<path d="M68.6561 31.0748L53.8112 29.3447C53.4862 29.3447 53.2694 29.0203 53.3778 28.6959C53.3778 28.3715 53.7029 28.1553 54.0279 28.2634L68.8728 29.9935C69.1978 29.9935 69.4146 30.3179 69.3062 30.6423C69.1978 30.8585 68.9811 31.0748 68.6561 31.0748Z" fill="#495163"/>
<path d="M79.4922 64.9192L50.1276 61.459C49.8026 61.459 49.5858 61.1346 49.6942 60.8103C49.6942 60.4859 50.0193 60.2696 50.3443 60.3777L79.709 63.7297C80.034 63.7297 80.2507 64.0541 80.1424 64.3785C80.1424 64.7029 79.8173 64.9192 79.4922 64.9192Z" fill="#495163"/>
<path d="M79.9252 61.7834L74.1823 61.1346C73.8572 61.1346 73.6405 60.8102 73.7489 60.4859C73.7489 60.1615 74.074 59.9452 74.399 60.0533L80.1419 60.7021C80.467 60.7021 80.6837 61.0265 80.5753 61.3509C80.467 61.6753 80.2503 61.8915 79.9252 61.7834Z" fill="url(#paint5_linear_1231:4089)"/>
<defs>
<filter id="filter0_d_1231:4089" x="0.732422" y="7.50946" width="97.7109" height="99.106" filterUnits="userSpaceOnUse" color-interpolation-filters="sRGB">
<feFlood flood-opacity="0" result="BackgroundImageFix"/>
<feColorMatrix in="SourceAlpha" type="matrix" values="0 0 0 0 0 0 0 0 0 0 0 0 0 0 0 0 0 0 127 0" result="hardAlpha"/>
<feOffset dy="11"/>
<feGaussianBlur stdDeviation="11"/>
<feColorMatrix type="matrix" values="0 0 0 0 0.397708 0 0 0 0 0.47749 0 0 0 0 0.575 0 0 0 0.18 0"/>
<feBlend mode="normal" in2="BackgroundImageFix" result="effect1_dropShadow_1231:4089"/>
<feBlend mode="normal" in="SourceGraphic" in2="effect1_dropShadow_1231:4089" result="shape"/>
</filter>
<filter id="filter1_d_1231:4089" x="37.2617" y="5.10132" width="94.9531" height="104.324" filterUnits="userSpaceOnUse" color-interpolation-filters="sRGB">
<feFlood flood-opacity="0" result="BackgroundImageFix"/>
<feColorMatrix in="SourceAlpha" type="matrix" values="0 0 0 0 0 0 0 0 0 0 0 0 0 0 0 0 0 0 127 0" result="hardAlpha"/>
<feOffset dy="11"/>
<feGaussianBlur stdDeviation="11"/>
<feColorMatrix type="matrix" values="0 0 0 0 0.397708 0 0 0 0 0.47749 0 0 0 0 0.575 0 0 0 0.18 0"/>
<feBlend mode="normal" in2="BackgroundImageFix" result="effect1_dropShadow_1231:4089"/>
<feBlend mode="normal" in="SourceGraphic" in2="effect1_dropShadow_1231:4089" result="shape"/>
</filter>
<filter id="filter2_d_1231:4089" x="24" y="5.36005" width="85.293" height="96.3527" filterUnits="userSpaceOnUse" color-interpolation-filters="sRGB">
<feFlood flood-opacity="0" result="BackgroundImageFix"/>
<feColorMatrix in="SourceAlpha" type="matrix" values="0 0 0 0 0 0 0 0 0 0 0 0 0 0 0 0 0 0 127 0" result="hardAlpha"/>
<feOffset dy="11"/>
<feGaussianBlur stdDeviation="11"/>
<feColorMatrix type="matrix" values="0 0 0 0 0.397708 0 0 0 0 0.47749 0 0 0 0 0.575 0 0 0 0.18 0"/>
<feBlend mode="normal" in2="BackgroundImageFix" result="effect1_dropShadow_1231:4089"/>
<feBlend mode="normal" in="SourceGraphic" in2="effect1_dropShadow_1231:4089" result="shape"/>
</filter>
<linearGradient id="paint0_linear_1231:4089" x1="40.2033" y1="46.2187" x2="44.6815" y2="44.2764" gradientUnits="userSpaceOnUse">
<stop stop-color="#978A0D"/>
<stop offset="1" stop-color="#C7B71E"/>
</linearGradient>
<linearGradient id="paint1_linear_1231:4089" x1="64.0793" y1="56.4974" x2="70.3822" y2="53.7636" gradientUnits="userSpaceOnUse">
<stop stop-color="#55C595"/>
<stop offset="1" stop-color="#1A6150"/>
</linearGradient>
<linearGradient id="paint2_linear_1231:4089" x1="80.6692" y1="39.6772" x2="84.7775" y2="42.3132" gradientUnits="userSpaceOnUse">
<stop stop-color="#978A0D"/>
<stop offset="1" stop-color="#C7B71E"/>
</linearGradient>
<linearGradient id="paint3_linear_1231:4089" x1="85.4411" y1="65.2302" x2="91.2235" y2="68.9402" gradientUnits="userSpaceOnUse">
<stop stop-color="#55C595"/>
<stop offset="1" stop-color="#1A6150"/>
</linearGradient>
<linearGradient id="paint4_linear_1231:4089" x1="58.1478" y1="39.7146" x2="62.9968" y2="40.2737" gradientUnits="userSpaceOnUse">
<stop stop-color="#978A0D"/>
<stop offset="1" stop-color="#C7B71E"/>
</linearGradient>
<linearGradient id="paint5_linear_1231:4089" x1="73.6763" y1="60.561" x2="80.5013" y2="61.348" gradientUnits="userSpaceOnUse">
<stop stop-color="#55C595"/>
<stop offset="1" stop-color="#1A6150"/>
</linearGradient>
</defs>
</svg>
