<svg id="Group_202" data-name="Group 202" xmlns="http://www.w3.org/2000/svg" xmlns:xlink="http://www.w3.org/1999/xlink" width="185.879" height="34.629" viewBox="0 0 185.879 34.629">
  <defs>
    <radialGradient id="radial-gradient" cx="0.68" cy="0.388" fx="0.6266058087348938" fy="0.25881919264793396" r="0.766" gradientTransform="matrix(-0.951, 0, 0, 1, -30.054, 0)" gradientUnits="objectBoundingBox">
      <stop offset="0" stop-color="#f5cb11"/>
      <stop offset="0.23" stop-color="#f3c811"/>
      <stop offset="0.356" stop-color="#efc013"/>
      <stop offset="0.457" stop-color="#e7b216"/>
      <stop offset="0.544" stop-color="#dc9f1a"/>
      <stop offset="0.622" stop-color="#cd8620"/>
      <stop offset="0.694" stop-color="#bc6827"/>
      <stop offset="0.698" stop-color="#bb6628"/>
    </radialGradient>
    <linearGradient id="linear-gradient" x1="2.124" y1="1.567" x2="-0.596" y2="0.02" gradientTransform="matrix(1, 0, 0, 1, 0, 0)" xlink:href="#radial-gradient"/>
    <linearGradient id="linear-gradient-2" y1="0.5" x2="1" y2="0.5" gradientUnits="objectBoundingBox">
      <stop offset="0" stop-color="#250e00"/>
      <stop offset="0.238" stop-color="#291100"/>
      <stop offset="0.484" stop-color="#351a00"/>
      <stop offset="0.734" stop-color="#4a2b00"/>
      <stop offset="0.986" stop-color="#674100"/>
      <stop offset="1" stop-color="#694300"/>
    </linearGradient>
    <radialGradient id="radial-gradient-2" cx="-24.146" cy="-44.727" r="80.71" gradientTransform="translate(-0.02) scale(1.041 1)" gradientUnits="objectBoundingBox">
      <stop offset="0" stop-color="#f5cb11"/>
      <stop offset="0.169" stop-color="#efc113"/>
      <stop offset="0.448" stop-color="#e1a818"/>
      <stop offset="0.801" stop-color="#c97f22"/>
      <stop offset="1" stop-color="#bb6628"/>
    </radialGradient>
    <radialGradient id="radial-gradient-3" cx="-24.146" cy="-44.727" r="87.276" gradientTransform="translate(0.109) scale(0.781 1)" xlink:href="#radial-gradient-2"/>
    <radialGradient id="radial-gradient-4" cx="-24.146" cy="-44.726" r="77.588" gradientTransform="translate(-0.144) scale(1.289 1)" xlink:href="#radial-gradient-2"/>
    <radialGradient id="radial-gradient-5" cx="-24.146" cy="-44.726" r="82.796" gradientTransform="translate(0.033) scale(0.935 1)" xlink:href="#radial-gradient-2"/>
    <radialGradient id="radial-gradient-6" cx="-24.146" cy="-44.728" r="127.194" gradientTransform="translate(0.314) scale(0.373 1)" xlink:href="#radial-gradient-2"/>
    <radialGradient id="radial-gradient-7" cx="-24.145" cy="-44.726" r="75.379" gradientTransform="translate(-0.308) scale(1.617 1)" xlink:href="#radial-gradient-2"/>
    <radialGradient id="radial-gradient-8" cx="-24.146" cy="-44.727" r="93.639" gradientTransform="translate(0.176) scale(0.647 1)" xlink:href="#radial-gradient-2"/>
  </defs>
  <g id="Group_198" data-name="Group 198">
    <path id="Path_2283" data-name="Path 2283" d="M46.624,654.506c-.565,1.471-.721,3.235-1.281,4.708a.3.3,0,0,0,.025.222c.135.24.3.462.425.707a3,3,0,0,1,.179,2.435,4.722,4.722,0,0,1-.891,1.5.181.181,0,0,0-.015.26,3.065,3.065,0,0,1,.5,1.229.771.771,0,0,0,.343.582c.674.429,1.327.892,1.991,1.335.366.244.733.489,1.112.712.337.2.7.355,1.036.551a3.079,3.079,0,0,1,1.5,1.653,11.508,11.508,0,0,1,.293,1.318c.016.074,0,.151.11.173.286.057.344.129.346.423q.005.745,0,1.49a.74.74,0,0,1-.537.768c-.082.032-.164.064-.249.089a.2.2,0,0,0-.161.231c.023.493-.081.368.377.6.025.012.05.023.074.036a.33.33,0,0,1,.16.484c-.06.13-.123.258-.188.386a.5.5,0,0,1-.6.265c-.154-.042-.3-.1-.46-.131a.244.244,0,0,0-.2.051,3.136,3.136,0,0,1-1.928,1.035,5.938,5.938,0,0,1-3.662-.481c-.539-.252-1.064-.533-1.6-.8a2.263,2.263,0,0,0-.973-.294,4.854,4.854,0,0,0-2.331.592.161.161,0,0,0-.1.225c.093.259.173.523.273.779a6.936,6.936,0,0,0,1.4,2.247,8.307,8.307,0,0,0,2.6,1.823c.943.441,1.906.839,2.859,1.258a1.47,1.47,0,0,1,.168.108c-.082.021-.117.033-.153.038-.524.073-1.051.128-1.571.22a19.708,19.708,0,0,0-3.027.752q-2.022.7-4.023,1.455a23.506,23.506,0,0,1-3.264,1.007,17.738,17.738,0,0,1-2.484.362,12.1,12.1,0,0,1-5.641-.818,8.184,8.184,0,0,1-3.476-2.691,9.761,9.761,0,0,1-1.795-4.925,14.406,14.406,0,0,1,.044-3.335.159.159,0,0,0-.11-.189,5.644,5.644,0,0,1-.582-.312,14.466,14.466,0,0,1-1.885-1.556.574.574,0,0,1-.066-.112l2.257-.258a6.552,6.552,0,0,1-3.425-2.552.32.32,0,0,1,.162-.021c.2.03.391.071.587.095a3.642,3.642,0,0,0,1.617-.141,2.984,2.984,0,0,0,1.557-1.2c.561-.837,1.094-1.694,1.616-2.556a18.789,18.789,0,0,1,2.3-3.206c.138-.147.281-.288.43-.44a.769.769,0,0,0-.075-.042c-.041-.016-.083-.031-.124-.045a2.367,2.367,0,0,1-1.73-1.957c-.1-.575-.146-1.158-.214-1.738a.5.5,0,0,1,.027-.128c.068.05.116.084.162.121.162.132.321.269.486.4a2.524,2.524,0,0,0,1.764.631,4.921,4.921,0,0,0,1.8-.557c.016-.008.023-.033.05-.074a.759.759,0,0,1-.1-.067,1.667,1.667,0,0,1-.538-1.237,2.139,2.139,0,0,1,.329-1.112,8.143,8.143,0,0,1,1.675-1.861.517.517,0,0,1,.116-.052c-.007.077-.013.127-.016.178a4.556,4.556,0,0,0-.026.56.584.584,0,0,0,.715.623,5.131,5.131,0,0,0,.747-.133c.827-.209,1.648-.443,2.477-.642a11.876,11.876,0,0,1,3.5-.315,5.861,5.861,0,0,1,2.371.6c.35.18.675.409,1.026.624.017-.031.042-.077.066-.124a2.291,2.291,0,0,1,1.073-1.038c.187-.091.216-.067.263.14a2.529,2.529,0,0,0,1.163,1.749c.212.123.2.133.356-.054.789-.979,1.914-1.8,2.705-2.782" transform="translate(-18.024 -653.125)" fill="url(#radial-gradient)"/>
    <g id="Group_197" data-name="Group 197" transform="translate(0 0)">
      <path id="Path_2284" data-name="Path 2284" d="M47.358,643.4c-.565,1.471-1.454,4.616-2.015,6.089a.3.3,0,0,0,.025.222c.135.24.3.462.425.707a3,3,0,0,1,.179,2.436,4.723,4.723,0,0,1-.891,1.5.181.181,0,0,0-.015.26,3.064,3.064,0,0,1,.5,1.229.771.771,0,0,0,.343.582c.674.429,1.327.892,1.991,1.335.366.244.733.489,1.112.712.337.2.7.355,1.036.551a3.079,3.079,0,0,1,1.5,1.653,11.532,11.532,0,0,1,.293,1.318c.015.074,0,.151.11.173.286.057.344.129.346.423q.005.745,0,1.49a.74.74,0,0,1-.537.768c-.082.032-.164.064-.249.089a.2.2,0,0,0-.161.231c.023.493-.081.368.377.6.025.012.05.023.074.036a.33.33,0,0,1,.16.484c-.06.13-.123.258-.188.386a.5.5,0,0,1-.6.265c-.154-.042-.3-.1-.46-.132a.244.244,0,0,0-.2.051,3.136,3.136,0,0,1-1.928,1.035,5.937,5.937,0,0,1-3.662-.481c-.539-.252-1.064-.533-1.6-.8a2.262,2.262,0,0,0-.973-.294,4.855,4.855,0,0,0-2.331.592.161.161,0,0,0-.1.225c.093.259.173.523.273.779a6.936,6.936,0,0,0,1.4,2.247,8.306,8.306,0,0,0,2.6,1.823c.943.441,1.906.839,2.859,1.258a1.459,1.459,0,0,1,.168.108c-.082.021-.117.033-.153.038-.524.073-1.051.128-1.571.219a19.708,19.708,0,0,0-3.027.753q-2.022.7-4.023,1.455a23.526,23.526,0,0,1-3.264,1.007,17.738,17.738,0,0,1-2.484.362,12.1,12.1,0,0,1-5.641-.818,8.185,8.185,0,0,1-3.476-2.691,9.762,9.762,0,0,1-1.795-4.925,14.406,14.406,0,0,1,.044-3.335.159.159,0,0,0-.11-.189,5.621,5.621,0,0,1-.582-.312,14.461,14.461,0,0,1-1.885-1.556.574.574,0,0,1-.066-.112l2.257-.258a6.552,6.552,0,0,1-3.425-2.552.322.322,0,0,1,.162-.021c.2.03.391.071.587.095a3.642,3.642,0,0,0,1.617-.141,2.985,2.985,0,0,0,1.557-1.2c.561-.837,1.094-1.694,1.616-2.556a18.789,18.789,0,0,1,2.3-3.206c.138-.147.281-.288.43-.44a.734.734,0,0,0-.075-.042c-.041-.016-.083-.031-.124-.045a2.367,2.367,0,0,1-1.73-1.957c-.1-.575-.146-1.158-.214-1.738a.5.5,0,0,1,.027-.128c.068.05.116.083.162.12.162.132.321.269.486.4a2.525,2.525,0,0,0,1.764.631,4.921,4.921,0,0,0,1.8-.557c.016-.008.023-.033.05-.074a.765.765,0,0,1-.1-.067,1.667,1.667,0,0,1-.538-1.237,2.14,2.14,0,0,1,.329-1.112,8.142,8.142,0,0,1,1.675-1.861.514.514,0,0,1,.116-.052c-.007.077-.013.127-.016.178a4.555,4.555,0,0,0-.026.56.584.584,0,0,0,.715.623,5.115,5.115,0,0,0,.747-.133c.827-.209,1.648-.443,2.477-.642a11.876,11.876,0,0,1,3.5-.315,5.86,5.86,0,0,1,2.371.6c.35.18.675.409,1.026.624.016-.031.042-.077.066-.124a2.291,2.291,0,0,1,1.073-1.038c.187-.091.216-.067.263.14a2.529,2.529,0,0,0,1.163,1.749c.212.123.2.133.356-.054.789-.979,2.691-3.034,3.482-4.012m-3.3,10.929a.606.606,0,0,0-.156-.12.314.314,0,0,0-.162.01c-.041.008-.078.037-.119.047a2.9,2.9,0,0,1-3.509-1.47c-.081-.136-.144-.283-.226-.419a.292.292,0,0,0-.129-.1c-.255-.116-.51-.236-.771-.338a.425.425,0,0,1-.259-.27,7.563,7.563,0,0,0-2.3-3.174,4.913,4.913,0,0,0-1.142-.721.345.345,0,0,0,0,.117c.388.858.76,1.723,1.173,2.568a2.831,2.831,0,0,0,1.174,1.31c.133.072.276.124.437.2-.317.057-.608.1-.9.161a9.287,9.287,0,0,0-3.82,1.688,9.97,9.97,0,0,0-3.459,4.833,11.384,11.384,0,0,0-.576,5.083,9.8,9.8,0,0,0,2.3,5.457,8.5,8.5,0,0,0,4.128,2.621c.3.086.6.153.9.227.035.009.073.009.161.018a13.791,13.791,0,0,1-3.354-6.014,14.22,14.22,0,0,0,6.836,5.432l.038-.041c-.153-.17-.307-.338-.458-.509a8.758,8.758,0,0,1-1.852-3.063c-.1-.3-.159-.618-.248-.924a.286.286,0,0,0-.132-.166,7.81,7.81,0,0,1-2.9-2.22,6.058,6.058,0,0,1-1.407-3.346,5.244,5.244,0,0,1,.839-3.32.442.442,0,0,1,.165-.158c-.021.123-.037.248-.065.369a8.548,8.548,0,0,0-.192,1.936,5.385,5.385,0,0,0,.676,2.728,4.225,4.225,0,0,0,2.788,2.09,5.626,5.626,0,0,0,4.372-.779c.355-.218.674-.5,1.008-.746a.66.66,0,0,0,.08-.1,2.569,2.569,0,0,1-1.431-2.108,2.007,2.007,0,0,1,.127-.948c.078.186.137.341.207.491a1.809,1.809,0,0,0,1.5,1.062c.517.065,1.044.049,1.566.072.423.019.848.023,1.267.073a1.375,1.375,0,0,1,.484.228c.05.029.068.114.1.173a.746.746,0,0,1-.178.06c-.4.03-.792.053-1.188.08-.026,0-.051.01-.119.023a1.882,1.882,0,0,0,.17.134,14.373,14.373,0,0,0,3.325,1.488,5.245,5.245,0,0,0,2.036.253,3.349,3.349,0,0,0,.728-.2.281.281,0,0,0,.127-.2,3.1,3.1,0,0,0,.006-.442,1.841,1.841,0,0,1-1.236.279c.091-.05.185-.1.272-.153a2.619,2.619,0,0,0,.317-.235.672.672,0,0,0,.227-.543,5.067,5.067,0,0,0-.214-1.7,3.646,3.646,0,0,0-.923-1.315.3.3,0,0,0-.069-.045c-.008,0-.021,0-.06,0l.171,1.31-.037.014c-.11-.181-.222-.362-.331-.544-.2-.336-.4-.675-.6-1.008a.677.677,0,0,0-.19-.2q-2.57-1.747-5.144-3.489a.743.743,0,0,1-.194-.178l1.258.164A2.631,2.631,0,0,0,43.824,654.327Zm-21.938,9.694a6.221,6.221,0,0,0,1.905.15,2.7,2.7,0,0,0,2.354-1.776,3.054,3.054,0,0,1-2.186,1.185l-.021-.039c.119-.062.241-.119.358-.186a3.98,3.98,0,0,0,1.321-1.367c.5-.775.963-1.569,1.442-2.354a14.116,14.116,0,0,1,1.784-2.456c.209-.219.438-.419.658-.628.047-.044.095-.087.142-.131l-.023-.04c-.213.1-.429.2-.637.311a6.892,6.892,0,0,0-2.678,2.723c-.418.713-.821,1.436-1.265,2.132a4.537,4.537,0,0,1-2.207,1.874c-.439.168-.908.258-1.363.382l-.149.039v.048C21.508,663.931,21.7,663.978,21.886,664.021Zm22.511.063c-.01.137.106.147.2.166.458.09.916.181,1.374.309-.044.006-.088.014-.132.017-.4.031-.791.059-1.187.094-.193.017-.218.046-.151.229a5.6,5.6,0,0,0,.253.535.194.194,0,0,0,.248.1,16.421,16.421,0,0,1,3.036-.322,15.16,15.16,0,0,1,2.356.172c.144.021.187-.033.168-.176-.015-.116-.1-.094-.174-.1-.427-.04-.857-.062-1.279-.128a9.274,9.274,0,0,1-2.064-.627,15.017,15.017,0,0,1-2.4-1.242c-.031-.02-.067-.033-.156-.077C44.457,663.409,44.421,663.746,44.4,664.084Zm-9.781-13.772c-.383-.7-2.232-1.062-2.875-.945a16.391,16.391,0,0,0-2.967,1.051c-.553.216-1.108.434-1.676.6a2.86,2.86,0,0,1-1.743-.006,4.937,4.937,0,0,1-.451-.2.713.713,0,0,0,.027.109,1.287,1.287,0,0,0,1.528.742,9.624,9.624,0,0,0,1.782-.591c.8-.324,1.6-.654,2.415-.934a3.354,3.354,0,0,1,1.6-.171,6.857,6.857,0,0,1,2.494.984,1.812,1.812,0,0,1,.136.2l.079-.053C34.848,650.835,34.752,650.562,34.616,650.312Zm8.05-.195a2.437,2.437,0,0,0,1.2.782.14.14,0,0,0,.126-.047q.27-.665.522-1.337a.151.151,0,0,0-.056-.127c-.249-.18-.5-.356-.76-.524a.169.169,0,0,0-.161.008c-.3.358-.594.724-.889,1.088a.5.5,0,0,0-.041.074A.952.952,0,0,0,42.666,650.117Zm-.018,3.765q.412-1.016.8-2.044a.231.231,0,0,0-.086-.193c-.381-.275-.767-.544-1.161-.8a.258.258,0,0,0-.245.012c-.46.548-.908,1.106-1.358,1.663a.754.754,0,0,0-.062.113A2.115,2.115,0,0,0,42.648,653.882Zm7.185,12.33a8.66,8.66,0,0,0-3.4-.008A2.807,2.807,0,0,0,49.833,666.212ZM44.759,647.33c-.238.3-.47.6-.714.886-.086.1-.076.174.021.246.154.115.31.227.465.34.109.079.171.05.218-.075.2-.525.4-1.048.6-1.571q.183-.475.367-.95l-.035-.017Q45.22,646.76,44.759,647.33Zm-1.635,17.132A1.265,1.265,0,0,0,44,665.637a6.2,6.2,0,0,1-.24-2.673A2.863,2.863,0,0,0,43.125,664.462Z" transform="translate(-18.024 -643.398)"/>
      <path id="Path_2285" data-name="Path 2285" d="M253.138,818.381c-.034.376-.07.713-.094,1.051-.01.137.106.147.2.166.458.09.916.181,1.374.309-.044.006-.088.014-.132.017-.4.031-.791.059-1.187.094-.193.017-.218.046-.151.229a5.589,5.589,0,0,0,.253.535.194.194,0,0,0,.248.1,16.421,16.421,0,0,1,3.036-.322,15.16,15.16,0,0,1,2.356.172c.144.021.187-.033.168-.176-.015-.116-.1-.094-.174-.1-.427-.04-.857-.062-1.279-.128a9.261,9.261,0,0,1-2.064-.628,15,15,0,0,1-2.4-1.242C253.263,818.438,253.227,818.425,253.138,818.381Z" transform="translate(-226.671 -798.746)" fill="#fff"/>
      <path id="Path_2286" data-name="Path 2286" d="M189.456,744.915a1.357,1.357,0,0,1,1.867-.472c.393.238.738.554,1.111.825.3.219.605.439.925.63a.326.326,0,0,0,.47-.213,2.52,2.52,0,0,0,.04-.5,1.353,1.353,0,0,0-.033-.219.678.678,0,0,1,.087.066,2.415,2.415,0,0,1,.5.923.535.535,0,0,1-.069.535c-.1.109-.053.164.033.237q.573.487,1.142.979c.1.086.194.177.292.266a.126.126,0,0,1-.109,0c-.838-.391-1.674-.785-2.514-1.171a.418.418,0,0,0-.267-.022,3.3,3.3,0,0,1-1.095.117,1.2,1.2,0,0,1-.993-.593,2.858,2.858,0,0,1-.385-1.064c-.066-.369-.172-.452-.546-.4a2.525,2.525,0,0,0-.333.091c-.039.011-.077.025-.123.039C189.454,744.936,189.45,744.921,189.456,744.915Zm1.914,1.167a1.1,1.1,0,0,0,1.1.252,2.191,2.191,0,0,0,.253-.063,6.578,6.578,0,0,0-1.763-1.366A2.206,2.206,0,0,0,191.37,746.082Z" transform="translate(-170.215 -732.919)"/>
      <path id="Path_2287" data-name="Path 2287" d="M261.34,783.122c.115-.251.283-.317.521-.166.282.179.539.4.807.6.041.03.079.064.141.115a.355.355,0,0,0,0-.1,3.473,3.473,0,0,0-.934-1.339,1.442,1.442,0,0,0-.359-.2.451.451,0,0,0-.508.078.459.459,0,0,0-.085.522A.938.938,0,0,0,261.34,783.122Z" transform="translate(-233.627 -766.438)"/>
      <path id="Path_2288" data-name="Path 2288" d="M202.906,750.208a2.206,2.206,0,0,0,.408,1.177,1.1,1.1,0,0,0,1.1.252,2.2,2.2,0,0,0,.253-.063A6.576,6.576,0,0,0,202.906,750.208Z" transform="translate(-182.16 -738.222)" fill="url(#linear-gradient)"/>
    </g>
    <path id="Path_2289" data-name="Path 2289" d="M254.009,705.01s1.38,1.475-.316,3.8a4.952,4.952,0,0,1-.2-2.272C253.75,705.68,254.009,705.01,254.009,705.01Z" transform="translate(-227.003 -698.096)" fill="url(#linear-gradient-2)"/>
    <path id="Path_2290" data-name="Path 2290" d="M224.558,666.641s-.121,1.792,1.035,2.416l-1.179,1.294A3.342,3.342,0,0,1,224.558,666.641Z" transform="translate(-200.802 -664.033)" fill="url(#linear-gradient-2)"/>
    <path id="Path_2291" data-name="Path 2291" d="M83.307,828.685s-11.486,17.148,17.509,8.736C100.816,837.421,80.735,840.4,83.307,828.685Z" transform="translate(-73.989 -807.893)" fill="url(#linear-gradient-2)"/>
    <path id="Path_2292" data-name="Path 2292" d="M76.223,796.942s-4.336,4.072-4.206,9.091C72.017,806.033,72.4,801.857,76.223,796.942Z" transform="translate(-65.955 -779.712)" fill="url(#linear-gradient-2)"/>
    <path id="Path_2293" data-name="Path 2293" d="M51.375,717.145s-10.677.627-13.46,8.61a2.255,2.255,0,0,1-2.783.93s2.61,3.71,5.154-.93C40.287,725.755,42.218,719.332,51.375,717.145Z" transform="translate(-33.213 -708.87)" fill="url(#linear-gradient-2)"/>
    <path id="Path_2294" data-name="Path 2294" d="M123.619,672.9s-2.223-6.8-9.614-2.793c0,0-3.451,1.944-1.984-1.265,0,0-2.024,1.852-.523,3.146s5.08-3.086,6.47-.553l-.427-.955,0-.116a6.016,6.016,0,0,1,2.135,1.692S121.039,670.564,123.619,672.9Z" transform="translate(-100.517 -665.988)" fill="url(#linear-gradient-2)"/>
    <path id="Path_2295" data-name="Path 2295" d="M110.1,707.573s-3.021-2.56-6.73,2.071A6.418,6.418,0,0,1,110.1,707.573Z" transform="translate(-93.795 -699.745)" fill="url(#linear-gradient-2)"/>
  </g>
  <g id="Group_199" data-name="Group 199" transform="translate(36.087 13.82)">
    <path id="Path_2296" data-name="Path 2296" d="M357.608,771.717a4.41,4.41,0,0,1-.249,1.468,7.174,7.174,0,0,1-.793,1.539,7.177,7.177,0,0,1,.793,1.539,4.411,4.411,0,0,1,.249,1.467v.5a4.559,4.559,0,0,1-.367,1.823,4.716,4.716,0,0,1-2.5,2.5,4.556,4.556,0,0,1-1.823.367h-13.3v-9.847h13.3a1.2,1.2,0,0,0,1.373-1.349v-.5a1.214,1.214,0,0,0-1.373-1.373h-9.989v2.486h-3.314v-5.776h13.3a4.56,4.56,0,0,1,1.823.367,4.847,4.847,0,0,1,1.491.994,4.608,4.608,0,0,1,1.373,3.3Zm-3.314,6.012a1.214,1.214,0,0,0-1.373-1.373h-9.989v3.219h9.989a1.2,1.2,0,0,0,1.373-1.349Z" transform="translate(-339.618 -766.557)" fill="#181818"/>
    <path id="Path_2297" data-name="Path 2297" d="M531.976,778.45a4.541,4.541,0,0,1-.367,1.819,4.591,4.591,0,0,1-1.006,1.476,4.843,4.843,0,0,1-1.491.992,4.567,4.567,0,0,1-1.823.366H515.122v-3.338h12.167q1.373,0,1.373-1.325v-.521a1.2,1.2,0,0,0-1.373-1.349h-7.48a4.7,4.7,0,0,1-3.314-1.338,4.609,4.609,0,0,1-1.373-3.326v-.5a4.472,4.472,0,0,1,.367-1.811,4.633,4.633,0,0,1,1.006-1.468,4.848,4.848,0,0,1,1.491-.994,4.563,4.563,0,0,1,1.823-.367h12.167v3.29H519.809a1.214,1.214,0,0,0-1.373,1.373v.5a1.2,1.2,0,0,0,1.373,1.349h7.48a4.567,4.567,0,0,1,1.823.366,4.842,4.842,0,0,1,1.491.992,4.589,4.589,0,0,1,1.006,1.476,4.54,4.54,0,0,1,.367,1.818Z" transform="translate(-495.428 -766.745)" fill="#181818"/>
    <path id="Path_2298" data-name="Path 2298" d="M695.774,778.439a4.561,4.561,0,0,1-.367,1.823,4.631,4.631,0,0,1-2.474,2.474,4.555,4.555,0,0,1-1.823.367H682.4a4.469,4.469,0,0,1-1.811-.367,4.661,4.661,0,0,1-2.462-2.474,4.554,4.554,0,0,1-.367-1.823v-7.03a4.472,4.472,0,0,1,.367-1.811,4.692,4.692,0,0,1,2.462-2.462,4.477,4.477,0,0,1,1.811-.367h8.711a4.532,4.532,0,0,1,1.823.369,4.691,4.691,0,0,1,1.479,1,4.783,4.783,0,0,1,.994,1.477,4.511,4.511,0,0,1,.367,1.815v1.941H692.46v-1.941a1.2,1.2,0,0,0-1.349-1.373H682.4a1.212,1.212,0,0,0-1.373,1.37v7.013q0,1.323,1.373,1.322h8.711a1.182,1.182,0,0,0,1.349-1.325l-.047-2.012h3.314Z" transform="translate(-639.816 -766.745)" fill="#181818"/>
    <path id="Path_2299" data-name="Path 2299" d="M1039.859,778.45a4.541,4.541,0,0,1-.367,1.819,4.592,4.592,0,0,1-1.006,1.476,4.843,4.843,0,0,1-1.491.992,4.567,4.567,0,0,1-1.823.366h-12.167v-3.338h12.167q1.373,0,1.373-1.325v-.521a1.2,1.2,0,0,0-1.373-1.349h-7.48a4.7,4.7,0,0,1-3.314-1.338,4.609,4.609,0,0,1-1.373-3.326v-.5a4.472,4.472,0,0,1,.367-1.811,4.631,4.631,0,0,1,1.006-1.468,4.845,4.845,0,0,1,1.491-.994,4.562,4.562,0,0,1,1.823-.367h12.167v3.29h-12.167a1.213,1.213,0,0,0-1.373,1.373v.5a1.2,1.2,0,0,0,1.373,1.349h7.48a4.567,4.567,0,0,1,1.823.366,4.842,4.842,0,0,1,1.491.992,4.59,4.59,0,0,1,1.006,1.476,4.54,4.54,0,0,1,.367,1.818Z" transform="translate(-946.32 -766.745)" fill="#181818"/>
  </g>
  <g id="Group_200" data-name="Group 200" transform="translate(131.387 14.02)">
    <path id="Path_2300" data-name="Path 2300" d="M1204.162,778.861v-10.12h3.149v15.518h-3.333l-5.877-7.714-5.832,7.714h-3.378V768.741h3.148v10.1q.562-.742,1.316-1.732t1.585-2.069q.832-1.079,1.653-2.136t1.5-1.934Z" transform="translate(-1188.892 -768.696)" fill="#181818"/>
    <path id="Path_2301" data-name="Path 2301" d="M1378.721,768.688a4.612,4.612,0,0,1,1.417.944,4.378,4.378,0,0,1,1.3,3.138v11.11h-3.149v-3.823H1367v3.823h-3.149V776.93h14.438v-4.155a1.154,1.154,0,0,0-1.3-1.31h-8.686a1.152,1.152,0,0,0-1.3,1.3v3.4h-3.149v-3.4a4.322,4.322,0,0,1,.349-1.732,4.4,4.4,0,0,1,2.35-2.35,4.334,4.334,0,0,1,1.732-.349h8.7A4.335,4.335,0,0,1,1378.721,768.688Z" transform="translate(-1344.222 -768.339)" fill="#181818"/>
    <path id="Path_2302" data-name="Path 2302" d="M1544.4,768.688a4.4,4.4,0,0,1,2.35,2.35,4.333,4.333,0,0,1,.349,1.732v3.913a4.339,4.339,0,0,1-.348,1.732,4.4,4.4,0,0,1-2.346,2.35,4.315,4.315,0,0,1-1.729.349h-8.531v2.766H1531v-5.915l11.672.022a1.135,1.135,0,0,0,1.282-1.286v-3.927a1.144,1.144,0,0,0-1.279-1.309h-8.526v5.757H1531v-8.883h11.672A4.335,4.335,0,0,1,1544.4,768.688Z" transform="translate(-1492.612 -768.339)" fill="#181818"/>
  </g>
  <g id="Group_201" data-name="Group 201" transform="translate(93.805 8.259)">
    <path id="Path_2303" data-name="Path 2303" d="M883.495,725.166a.425.425,0,0,0-.113-.173,25.148,25.148,0,0,0-4.592-3.769L881.954,717l-4.115,3.652c-.1-.054-.191-.109-.288-.162a.26.26,0,0,1-.141-.284c.094-.425.176-.851.262-1.277v0c.017-.085-.1-.137-.175-.076-.581.494-1.122.956-1.67,1.413a.918.918,0,0,1-.327.157c-3.376.757-5.756,2.474-6.873,5.359a5.394,5.394,0,0,0,1.388,6.265c.1.1.206.188.309.282a11.847,11.847,0,0,1-1.295-2.823,4.72,4.72,0,0,1,.125-3c-.005.088-.008.156-.013.222a5.6,5.6,0,0,0,.242,2.322,3.987,3.987,0,0,0,2.45,2.411,6.018,6.018,0,0,0,2,.237,2.561,2.561,0,0,1-1.115-.606,4.076,4.076,0,0,0,1.718.274c.769-.047,1.535-.13,2.3-.188a4.283,4.283,0,0,1,3.135.89.7.7,0,0,1,.225.317,7.116,7.116,0,0,1,.15.706l.072,0c.023-.328.072-.656.065-.983a1.845,1.845,0,0,0-1.077-1.8c-.161-.077-.324-.153-.493-.215a8.722,8.722,0,0,0-2.313-.447,10.683,10.683,0,0,1-1.45-.1,8.717,8.717,0,0,1-3.271-1.366,3.125,3.125,0,0,1-1.113-1.4,2.319,2.319,0,0,1,.169-1.781,5.906,5.906,0,0,1,4.018-3.647,7.585,7.585,0,0,1,1.741-.313l.144.538.447-.519,1.757.939.795.515c.94.768,1.871,1.544,2.8,2.319a1.719,1.719,0,0,1,.172.191c-.332.149-.34.223-.069.414.068.048.14.092.21.136a.612.612,0,0,1,.1.674.2.2,0,0,1-.092.04c-.334.07-.669.139-1.023.212a2.114,2.114,0,0,0-1.657-1.3.951.951,0,0,1,1.091-.172,1.2,1.2,0,0,0-.961-.622,5.762,5.762,0,0,0-1.055,0c-.351.028-.7.116-1.048.158a1.737,1.737,0,0,1-1.133-.222,1.619,1.619,0,0,1-.608-2.09c.041-.087.083-.173.132-.274a1.071,1.071,0,0,0-.12,0c-.13.026-.26.05-.388.081a5.154,5.154,0,0,0-3.478,2.477,3,3,0,0,0,1.677,4.2,11.553,11.553,0,0,0,3.221.763,8.914,8.914,0,0,1,2.376.51,2.435,2.435,0,0,1,1.718,1.915c.017.124.02.249.03.374a2.141,2.141,0,0,0,.135-.536,3.031,3.031,0,0,0-1.937-3.159,9.451,9.451,0,0,0-2.892-.635.59.59,0,0,1-.25-.053,5.788,5.788,0,0,1-2.046-2,2.359,2.359,0,0,1-.1-.234c-.028-.07-.051-.141-.077-.212a3.921,3.921,0,0,0,1.446,1.315c-.212-.385-.439-.758-.624-1.145a1.481,1.481,0,0,1-.074-1.236,1.355,1.355,0,0,1,.085.271,2.475,2.475,0,0,0,3.411,1.583,2.855,2.855,0,0,1,1.639-.111,1.343,1.343,0,0,1,1.02.709,5.7,5.7,0,0,0,.331.6c.594-.177,1.166-.342,1.73-.523.064-.02.115-.128.13-.2A3.436,3.436,0,0,0,883.495,725.166Z" transform="translate(-866.575 -717)" fill="url(#radial-gradient-2)"/>
    <path id="Path_2304" data-name="Path 2304" d="M888.262,858.337a4.216,4.216,0,0,1-1.774,2.875,16.207,16.207,0,0,1-6.1,2.747,9.257,9.257,0,0,0-3.5,1.457,3.831,3.831,0,0,0-1.563,2.79,5.449,5.449,0,0,1,3.79-2.862,26.678,26.678,0,0,1,3.164-.663,11.22,11.22,0,0,0,4.955-1.885,3.714,3.714,0,0,0,1.008-5.181A6.06,6.06,0,0,1,888.262,858.337Z" transform="translate(-872.932 -841.836)" fill="url(#radial-gradient-3)"/>
    <path id="Path_2305" data-name="Path 2305" d="M968.3,858.616c-.08.1-.146.183-.222.265a.942.942,0,0,1-1.429.17c-.279-.182-.528-.4-.791-.6l-.027.011c.182.3.384.585.541.892a1.754,1.754,0,0,1-.257,2.33C967.272,861.378,968.58,859.548,968.3,858.616Z" transform="translate(-953.276 -842.579)" fill="url(#radial-gradient-4)"/>
    <path id="Path_2306" data-name="Path 2306" d="M859.055,876.215a3.843,3.843,0,0,1-4.757-4.173c-1.01,1.766.472,4.384,2.57,4.712A2.822,2.822,0,0,0,859.055,876.215Z" transform="translate(-853.973 -854.644)" fill="url(#radial-gradient-5)"/>
    <path id="Path_2307" data-name="Path 2307" d="M869.231,909.1a2.245,2.245,0,0,0,2.076-1.721,3.171,3.171,0,0,1-2.274,1.133,3.353,3.353,0,0,1-2.4-.867A2.406,2.406,0,0,0,869.231,909.1Z" transform="translate(-865.217 -886.02)" fill="url(#radial-gradient-6)"/>
    <path id="Path_2308" data-name="Path 2308" d="M870.605,884.031c-1.3-.835-1.176-1.9-.7-3.034a2.236,2.236,0,0,0-.532,2.29l-.641-.33A2.458,2.458,0,0,0,870.605,884.031Z" transform="translate(-867.073 -862.594)" fill="url(#radial-gradient-7)"/>
    <path id="Path_2309" data-name="Path 2309" d="M954.369,763.035l-1.359-.6.906.88Z" transform="translate(-941.897 -757.333)" fill="url(#radial-gradient-8)"/>
  </g>
</svg>
