<svg width="64" height="67" viewBox="0 0 64 67" fill="none" xmlns="http://www.w3.org/2000/svg">
<path d="M32.8704 62.4644C50.0631 62.4644 64.0005 48.4812 64.0005 31.2322C64.0005 13.9831 50.0631 0 32.8704 0C15.6777 0 1.74023 13.9831 1.74023 31.2322C1.74023 48.4812 15.6777 62.4644 32.8704 62.4644Z" fill="#2A2E37"/>
<path d="M28.0184 13.3852L52.2083 33.5983C53.6233 34.7475 53.8254 36.8432 52.6126 38.2628L34.3523 60.1659C33.2068 61.5855 31.118 61.7883 29.7029 60.5715L1.20068 36.7756C-0.21433 35.6263 -0.416474 33.5307 0.796388 32.111L15.4181 14.5345L28.0184 13.3852Z" fill="#3A3F4B"/>
<path d="M28.0192 13.3852L23.6395 18.7258C22.8983 19.6046 21.5506 19.7398 20.6073 18.9286L15.3516 14.5344L28.0192 13.3852Z" fill="#2E3746"/>
<path d="M57.8678 41.9809L55.8464 43.4006L31.5217 60.6391C29.8372 61.8559 27.4789 61.4503 26.3334 59.7603L2.07613 25.2832C0.86327 23.5931 1.26756 21.2271 2.95209 20.0778L24.1098 5.13776L38.2599 7.57143L56.6549 33.6658L58.8111 36.7079C59.9566 38.4656 59.5523 40.7641 57.8678 41.9809Z" fill="#3A3F4D"/>
<path d="M38.2594 7.57137L31.993 12.1007C30.9149 12.9119 29.3651 12.6415 28.5565 11.4923L24.1094 5.1377H24.1768L38.2594 7.57137Z" fill="#2E3746"/>
<path d="M57.8691 41.9809L55.8477 43.4005V33.6658H56.5888L58.745 36.7079C59.9579 38.4656 59.5536 40.7641 57.8691 41.9809Z" fill="#2E3746"/>
<path d="M63.3942 22.9171L52.748 56.9886C52.1416 58.9491 50.0527 60.0983 48.0987 59.4223L17.3054 49.7552C15.3514 49.1468 14.2733 47.0511 14.8797 45.023L27.4126 4.86738C28.0191 2.90692 30.1079 1.75768 32.0619 2.4337L56.7909 10.1403" fill="#3A3F4D"/>
<path opacity="0.5" d="M58.5412 24.8777L54.0266 39.3445C53.7571 40.1557 52.9485 40.6289 52.1399 40.3585L24.8505 31.7731C24.042 31.5027 23.5703 30.6914 23.8398 29.8802L28.3544 15.4134C28.6239 14.6021 29.4325 14.1289 30.241 14.3993L57.5304 22.9848C58.339 23.1876 58.8107 24.0664 58.5412 24.8777Z" fill="#2E3746"/>
<path d="M63.3936 22.9172L55.9817 20.6187C54.7014 20.2131 53.9602 18.8611 54.3645 17.509L56.6555 10.0728H56.7229L63.3936 22.9172Z" fill="#2E3746"/>
<path d="M53.1511 18.3201L44.9306 17.5089C43.5156 17.3737 42.4375 16.0893 42.6397 14.602L43.5156 6.35455H43.583L53.1511 18.3201Z" fill="#2E3746"/>
<path d="M53.1523 15.8865V53.9465C53.1523 56.1773 51.4004 57.935 49.1768 57.935H14.745C12.5214 57.935 10.7695 56.1773 10.7695 53.9465V8.99106C10.7695 6.76019 12.5888 5.00253 14.745 5.00253H42.304L53.1523 15.8865Z" fill="#474E61"/>
<path d="M53.1521 15.8865L44.8642 15.9541C43.3818 15.9541 42.2363 14.8048 42.2363 13.3176V5.00253H42.3037L53.1521 15.8865Z" fill="#354957"/>
<path d="M45.5375 36.5051H19.3261C18.7197 36.5051 18.248 36.0319 18.248 35.4235V20.2806C18.248 19.6722 18.7197 19.1989 19.3261 19.1989H45.5375C46.1439 19.1989 46.6155 19.6722 46.6155 20.2806V35.3559C46.6829 35.9643 46.1439 36.5051 45.5375 36.5051Z" fill="#2E3746"/>
<path d="M33.4079 34.139H22.4922L27.9501 27.9196L33.4079 34.139Z" fill="#2E3746"/>
<path d="M42.5055 34.139H26.7383L34.6219 25.2155L42.5055 34.139Z" fill="#474E61"/>
<path d="M26.6025 25.6887C27.7561 25.6887 28.6913 24.7504 28.6913 23.593C28.6913 22.4356 27.7561 21.4974 26.6025 21.4974C25.4489 21.4974 24.5137 22.4356 24.5137 23.593C24.5137 24.7504 25.4489 25.6887 26.6025 25.6887Z" fill="#464E63"/>
<path d="M46.0775 41.8457H19.0576C18.6533 41.8457 18.3164 41.5077 18.3164 41.1021C18.3164 40.6965 18.6533 40.3585 19.0576 40.3585H46.0775C46.4818 40.3585 46.8187 40.6965 46.8187 41.1021C46.8187 41.5077 46.4818 41.8457 46.0775 41.8457Z" fill="#2E3746"/>
<path d="M46.0775 46.037H19.0576C18.6533 46.037 18.3164 45.699 18.3164 45.2934C18.3164 44.8878 18.6533 44.5498 19.0576 44.5498H46.0775C46.4818 44.5498 46.8187 44.8878 46.8187 45.2934C46.8187 45.699 46.4818 46.037 46.0775 46.037Z" fill="#2E3746"/>
<path d="M32.3991 49.4848C32.3991 49.8904 32.0622 50.2284 31.6579 50.2284H19.0576C18.6533 50.2284 18.3164 49.8904 18.3164 49.4848C18.3164 49.0792 18.6533 48.7411 19.0576 48.7411H31.6579C32.0622 48.7411 32.3991 49.0792 32.3991 49.4848Z" fill="#2E3746"/>
<path d="M32.9381 11.0867H19.0576C18.6533 11.0867 18.3164 10.7487 18.3164 10.3431C18.3164 9.9375 18.6533 9.59949 19.0576 9.59949H32.9381C33.3424 9.59949 33.6793 9.9375 33.6793 10.3431C33.6793 10.7487 33.3424 11.0867 32.9381 11.0867Z" fill="#2E3746"/>
<path d="M25.1893 15.2781H19.0576C18.6533 15.2781 18.3164 14.9401 18.3164 14.5345C18.3164 14.1288 18.6533 13.7908 19.0576 13.7908H25.1893C25.5936 13.7908 25.9305 14.1288 25.9305 14.5345C25.8631 14.9401 25.5936 15.2781 25.1893 15.2781Z" fill="#2E3746"/>
<path d="M37.923 60.9095C37.5188 61.9911 36.7776 62.9376 35.7668 63.4784C32.1283 65.3712 28.1528 61.7883 29.2982 57.935H30.4437C29.0961 62.3291 34.2845 64.4248 36.4407 61.5179C36.9797 60.8419 36.8449 60.8419 39.4728 52.3916C40.1466 50.1608 37.9904 49.0115 36.4407 49.8227C35.4299 50.3636 35.5647 50.634 33.2737 57.935C33.2064 58.0702 33.2064 58.2054 33.2064 58.2054C33.0716 58.8138 33.5433 59.3546 34.0823 59.287C34.6887 59.287 34.7561 58.4758 34.9583 57.935C35.969 54.6901 36.1711 54.0817 36.1711 54.0141C36.4407 53.4057 37.4514 53.6085 37.1818 54.4873C35.6321 59.8279 35.6321 59.8279 34.8909 60.1659C33.2064 61.0447 31.5892 59.0842 32.1283 57.935C34.4866 50.296 34.4192 49.5523 35.8342 48.8763C38.0578 47.7271 40.4161 49.0791 40.6857 51.2424C40.7531 51.9184 40.8878 51.7156 37.923 60.9095Z" fill="url(#paint0_linear_981:3762)"/>
<g filter="url(#filter0_d_981:3762)">
<ellipse cx="31.9993" cy="29.6" rx="5.33333" ry="7.2" fill="#55C595"/>
</g>
<path d="M40.485 29.2042C40.1481 25.0128 36.6442 21.5651 32.4666 21.4299C30.6473 21.3623 28.8954 21.8355 27.4804 22.782C25.1894 24.2692 23.707 26.9057 23.707 29.8126C23.707 32.5843 25.0547 35.0855 27.1435 36.6404C27.413 36.8432 27.6151 37.1136 27.6825 37.4516C27.8173 37.9924 28.3563 38.6008 29.0975 38.6008C29.4344 38.6008 29.7713 38.4656 30.0409 38.2628C30.1756 38.1276 30.3778 38.1276 30.5125 38.1952C30.7147 38.2628 30.8494 38.398 30.7821 38.6684C30.7821 38.736 30.7821 38.736 30.7821 38.736C30.7821 39.2093 31.1863 39.6149 31.658 39.6149C32.1297 39.6149 32.534 39.2093 32.534 38.736C32.534 38.5332 32.6687 38.3304 32.9383 38.2628C37.4528 37.722 40.8219 33.8011 40.485 29.2042Z" fill="url(#paint1_linear_981:3762)"/>
<path d="M28.624 41.2373C29.0334 41.2373 29.3652 40.9044 29.3652 40.4937C29.3652 40.083 29.0334 39.7501 28.624 39.7501C28.2147 39.7501 27.8828 40.083 27.8828 40.4937C27.8828 40.9044 28.2147 41.2373 28.624 41.2373Z" fill="url(#paint2_linear_981:3762)"/>
<path d="M28.8271 45.023C29.0876 45.023 29.2988 44.8112 29.2988 44.5498C29.2988 44.2885 29.0876 44.0766 28.8271 44.0766C28.5666 44.0766 28.3555 44.2885 28.3555 44.5498C28.3555 44.8112 28.5666 45.023 28.8271 45.023Z" fill="url(#paint3_linear_981:3762)"/>
<path d="M31.8603 42.1162C32.1953 42.1162 32.4668 41.8438 32.4668 41.5077C32.4668 41.1717 32.1953 40.8993 31.8603 40.8993C31.5254 40.8993 31.2539 41.1717 31.2539 41.5077C31.2539 41.8438 31.5254 42.1162 31.8603 42.1162Z" fill="url(#paint4_linear_981:3762)"/>
<path d="M35.2959 40.2909C35.7052 40.2909 36.0371 39.9579 36.0371 39.5472C36.0371 39.1365 35.7052 38.8036 35.2959 38.8036C34.8865 38.8036 34.5547 39.1365 34.5547 39.5472C34.5547 39.9579 34.8865 40.2909 35.2959 40.2909Z" fill="url(#paint5_linear_981:3762)"/>
<path d="M34.1514 45.6314C34.4119 45.6314 34.623 45.4196 34.623 45.1582C34.623 44.8969 34.4119 44.685 34.1514 44.685C33.8909 44.685 33.6797 44.8969 33.6797 45.1582C33.6797 45.4196 33.8909 45.6314 34.1514 45.6314Z" fill="url(#paint6_linear_981:3762)"/>
<path d="M31.5215 47.2539C31.8192 47.2539 32.0605 47.0117 32.0605 46.7131C32.0605 46.4144 31.8192 46.1722 31.5215 46.1722C31.2238 46.1722 30.9824 46.4144 30.9824 46.7131C30.9824 47.0117 31.2238 47.2539 31.5215 47.2539Z" fill="url(#paint7_linear_981:3762)"/>
<path d="M32.1299 52.1888C32.2415 52.1888 32.332 52.098 32.332 51.986C32.332 51.874 32.2415 51.7832 32.1299 51.7832C32.0182 51.7832 31.9277 51.874 31.9277 51.986C31.9277 52.098 32.0182 52.1888 32.1299 52.1888Z" fill="url(#paint8_linear_981:3762)"/>
<path d="M30.7822 49.6876C30.9683 49.6876 31.1191 49.5363 31.1191 49.3496C31.1191 49.1629 30.9683 49.0116 30.7822 49.0116C30.5962 49.0116 30.4453 49.1629 30.4453 49.3496C30.4453 49.5363 30.5962 49.6876 30.7822 49.6876Z" fill="url(#paint9_linear_981:3762)"/>
<path d="M27.4804 22.7143C28.828 21.8355 30.3778 21.3622 32.1297 21.3622C36.779 21.3622 40.5523 25.148 40.5523 29.8125C40.5523 34.4771 36.779 38.2628 32.1297 38.2628C27.4804 38.2628 23.707 34.4771 23.707 29.8125C23.707 26.838 25.1894 24.2691 27.4804 22.7143Z" fill="url(#paint10_linear_981:3762)"/>
<path d="M39.946 32.8547L35.162 28.0549L33.5448 27.4465L31.7929 26.7705L29.0977 29.2042L31.9277 32.0435L31.5234 34.0039L35.162 37.6545L39.946 32.8547Z" fill="url(#paint11_linear_981:3762)"/>
<path d="M32.6679 25.5536L35.161 28.0549C35.4979 28.3929 35.4979 28.8661 35.161 29.2041C34.8241 29.5422 34.3524 29.5422 34.0155 29.2041L32.87 28.0549V33.4631C32.87 33.8687 32.5331 34.2743 32.0614 34.2743C31.6572 34.2743 31.2529 33.9363 31.2529 33.4631V28.0549L30.1074 29.2041C29.7705 29.5422 29.2988 29.5422 28.9619 29.2041C28.8271 29.0689 28.7598 28.8661 28.7598 28.6633C28.7598 28.4605 28.8271 28.2577 28.9619 28.1225L31.455 25.6212C31.5898 25.486 31.7919 25.4184 31.9941 25.4184C32.1962 25.4184 32.5331 25.4184 32.6679 25.5536Z" fill="url(#paint12_linear_981:3762)"/>
<defs>
<filter id="filter0_d_981:3762" x="13.666" y="22.4" width="36.666" height="44.4" filterUnits="userSpaceOnUse" color-interpolation-filters="sRGB">
<feFlood flood-opacity="0" result="BackgroundImageFix"/>
<feColorMatrix in="SourceAlpha" type="matrix" values="0 0 0 0 0 0 0 0 0 0 0 0 0 0 0 0 0 0 127 0" result="hardAlpha"/>
<feOffset dy="17"/>
<feGaussianBlur stdDeviation="6.5"/>
<feColorMatrix type="matrix" values="0 0 0 0 0.1125 0 0 0 0 0.295916 0 0 0 0 1 0 0 0 0.21 0"/>
<feBlend mode="normal" in2="BackgroundImageFix" result="effect1_dropShadow_981:3762"/>
<feBlend mode="normal" in="SourceGraphic" in2="effect1_dropShadow_981:3762" result="shape"/>
</filter>
<linearGradient id="paint0_linear_981:3762" x1="34.8972" y1="48.5841" x2="34.8972" y2="62.9357" gradientUnits="userSpaceOnUse">
<stop stop-color="#FFD44F"/>
<stop offset="1" stop-color="#A68513"/>
</linearGradient>
<linearGradient id="paint1_linear_981:3762" x1="32.1207" y1="21.3591" x2="32.1207" y2="39.5239" gradientUnits="userSpaceOnUse">
<stop stop-color="#169CE7"/>
<stop offset="1" stop-color="#55C595"/>
</linearGradient>
<linearGradient id="paint2_linear_981:3762" x1="28.6159" y1="39.7549" x2="28.6159" y2="41.1926" gradientUnits="userSpaceOnUse">
<stop stop-color="#169CE7"/>
<stop offset="1" stop-color="#55C595"/>
</linearGradient>
<linearGradient id="paint3_linear_981:3762" x1="28.8596" y1="44.1128" x2="28.8596" y2="45.0193" gradientUnits="userSpaceOnUse">
<stop stop-color="#169CE7"/>
<stop offset="1" stop-color="#55C595"/>
</linearGradient>
<linearGradient id="paint4_linear_981:3762" x1="31.8913" y1="40.8953" x2="31.8913" y2="42.1124" gradientUnits="userSpaceOnUse">
<stop stop-color="#169CE7"/>
<stop offset="1" stop-color="#55C595"/>
</linearGradient>
<linearGradient id="paint5_linear_981:3762" x1="35.2862" y1="38.7545" x2="35.2862" y2="40.2803" gradientUnits="userSpaceOnUse">
<stop stop-color="#169CE7"/>
<stop offset="1" stop-color="#55C595"/>
</linearGradient>
<linearGradient id="paint6_linear_981:3762" x1="34.1315" y1="44.7246" x2="34.1315" y2="45.6224" gradientUnits="userSpaceOnUse">
<stop stop-color="#169CE7"/>
<stop offset="1" stop-color="#55C595"/>
</linearGradient>
<linearGradient id="paint7_linear_981:3762" x1="31.4893" y1="46.1768" x2="31.4893" y2="47.192" gradientUnits="userSpaceOnUse">
<stop stop-color="#169CE7"/>
<stop offset="1" stop-color="#55C595"/>
</linearGradient>
<linearGradient id="paint8_linear_981:3762" x1="32.1136" y1="51.7372" x2="32.1136" y2="52.2063" gradientUnits="userSpaceOnUse">
<stop stop-color="#169CE7"/>
<stop offset="1" stop-color="#2C8065"/>
</linearGradient>
<linearGradient id="paint9_linear_981:3762" x1="30.8133" y1="49.0439" x2="30.8133" y2="49.6668" gradientUnits="userSpaceOnUse">
<stop stop-color="#169CE7"/>
<stop offset="1" stop-color="#169CE7"/>
</linearGradient>
<linearGradient id="paint10_linear_981:3762" x1="32.1223" y1="21.7735" x2="32.1223" y2="38.8592" gradientUnits="userSpaceOnUse">
<stop stop-color="#3E4454"/>
<stop offset="1" stop-color="#2A2F3A"/>
</linearGradient>
<linearGradient id="paint11_linear_981:3762" x1="32.1117" y1="29.798" x2="36.9544" y2="34.6249" gradientUnits="userSpaceOnUse">
<stop stop-color="#2E3746"/>
<stop offset="1" stop-color="#121318" stop-opacity="0"/>
</linearGradient>
<linearGradient id="paint12_linear_981:3762" x1="35.251" y1="32.9426" x2="30.709" y2="28.4154" gradientUnits="userSpaceOnUse">
<stop offset="0.0113208" stop-color="#C2FFC8"/>
<stop offset="1" stop-color="white"/>
</linearGradient>
</defs>
</svg>
