<svg width="49" height="46" viewBox="0 0 49 46" fill="none" xmlns="http://www.w3.org/2000/svg">
<path d="M30.708 1.43396L27.4669 14.107C27.4214 14.2763 27.3758 14.4585 27.2586 14.7905C27.0504 15.6692 27.0504 16.4503 27.2391 17.1207C27.3237 17.4461 27.4409 17.739 27.5971 18.0124C25.8529 19.7438 23.6076 21.0066 21.3948 21.4557C21.3557 21.4622 21.3297 21.4687 21.3037 21.4752C21.2321 21.4882 21.206 21.4948 21.1865 21.4948C21.167 21.5013 21.141 21.5013 21.1214 21.5078C21.1019 21.5078 21.0824 21.5143 21.0694 21.5143C21.0433 21.5208 21.0173 21.5208 20.9913 21.5273C20.9067 21.5403 20.8676 21.5468 20.8221 21.5533C20.783 21.5598 20.7374 21.5664 20.6984 21.5729C20.6333 21.5794 20.6008 21.5859 20.5747 21.5859C20.5097 21.5924 20.4771 21.5989 20.4511 21.5989C20.386 21.6054 20.347 21.6054 20.3144 21.6119C19.6245 21.664 18.9998 21.6184 18.4466 21.4948C18.4075 21.4882 18.3815 21.4817 18.3489 21.4687C18.3034 21.4557 18.2774 21.4492 18.2513 21.4427C17.171 21.1433 16.3835 20.4989 15.993 19.5746C16.3249 19.2622 16.6438 18.9302 16.9432 18.5917C17.7046 17.7521 18.3424 16.8148 18.7655 15.8775L25.0394 2.23456L22.2799 2.6251L30.708 1.43396Z" fill="#697574"/>
<path d="M9.52431 38.8412L6.75183 39.2318C4.07045 39.6093 2.02038 38.8998 0.927002 37.4678L5.58686 43.5537C6.68674 44.9922 8.73031 45.6952 11.4117 45.3177L14.1842 44.9271L9.52431 38.8412Z" fill="url(#paint0_linear_3775_9200)"/>
<path d="M33.3115 19.7764C33.3637 19.7634 33.416 19.7504 33.4682 19.7373C33.416 19.7504 33.3637 19.7699 33.3115 19.7764C33.3049 19.783 33.2919 19.783 33.2788 19.783C33.2853 19.7765 33.2984 19.7764 33.3115 19.7764Z" fill="url(#paint1_linear_3775_9200)"/>
<path d="M34.0604 19.5876C33.8652 19.6462 33.6634 19.6918 33.4682 19.7373C33.6634 19.6918 33.8652 19.6462 34.0604 19.5876Z" fill="url(#paint2_linear_3775_9200)"/>
<path d="M34.1382 19.5615C34.3205 19.5095 34.4962 19.4509 34.6784 19.3858C34.4767 19.4639 34.2749 19.529 34.0667 19.5875C34.0927 19.5745 34.1122 19.568 34.1382 19.5615Z" fill="url(#paint3_linear_3775_9200)"/>
<path d="M34.9453 19.2881C35.1861 19.2035 35.4203 19.1059 35.6546 19.0018C35.5961 19.0278 35.5375 19.0538 35.4789 19.0799C35.3032 19.145 35.1275 19.2166 34.9453 19.2881Z" fill="url(#paint4_linear_3775_9200)"/>
<path d="M38.0955 17.5828C37.9848 17.6674 37.8677 17.7455 37.7505 17.8236C37.7701 17.8106 37.7896 17.7976 37.8026 17.7846C37.9002 17.7195 37.9979 17.6479 38.0955 17.5828Z" fill="url(#paint5_linear_3775_9200)"/>
<path d="M48.9901 10.1625C48.9901 10.1821 48.9836 10.1951 48.9836 10.2146C48.9836 10.4229 48.9706 10.6377 48.951 10.8655C48.951 10.8915 48.951 10.9241 48.9445 10.9501V10.9631C48.938 10.9827 48.938 11.0087 48.938 11.0282C48.9185 11.23 48.886 11.4448 48.8534 11.6661C48.8404 11.7442 48.8274 11.8223 48.8144 11.9069C48.7949 12.0046 48.7818 12.1087 48.7623 12.2129C48.7363 12.33 48.7102 12.4537 48.6842 12.5774L47.5258 17.2508C47.4997 17.368 47.4607 17.4917 47.4281 17.6088C47.4151 17.6479 47.3956 17.6935 47.3826 17.739C47.3305 17.8952 47.2719 18.058 47.2069 18.2142C47.1743 18.2988 47.1418 18.3834 47.1092 18.4745C47.0311 18.6568 46.94 18.839 46.8489 19.0213C46.8229 19.0799 46.7968 19.1385 46.7643 19.2035C46.6406 19.4444 46.504 19.6787 46.3478 19.9195C46.3087 19.9781 46.2697 20.0302 46.2371 20.0888C46.12 20.271 45.9963 20.4468 45.8662 20.629C45.8466 20.6551 45.8336 20.6811 45.8141 20.7071C45.7751 20.7657 45.7165 20.8243 45.6709 20.8829C45.5603 21.0261 45.4496 21.1693 45.3325 21.306C45.3 21.345 45.2674 21.3841 45.2414 21.4231C45.1763 21.4947 45.1112 21.5598 45.0461 21.6249C44.9811 21.703 44.916 21.7681 44.8509 21.8397C44.8249 21.8657 44.7988 21.9048 44.7663 21.9308C44.6296 22.074 44.4864 22.2107 44.3433 22.3474C44.3042 22.393 44.2586 22.432 44.2131 22.4776C44.0764 22.6078 43.9397 22.7314 43.7966 22.8551C43.7901 22.8681 43.777 22.8746 43.7705 22.8811C43.6469 22.9853 43.5232 23.0894 43.3996 23.1936C43.3215 23.2587 43.2499 23.3172 43.1718 23.3758C43.1392 23.4019 43.1067 23.4279 43.0742 23.4539C43.0481 23.4735 43.0286 23.4865 43.0091 23.506C42.8724 23.6037 42.7487 23.7013 42.6121 23.7989C42.5665 23.8249 42.5275 23.8575 42.4754 23.8835C42.4364 23.9096 42.3973 23.9356 42.3583 23.9616C42.3062 23.9942 42.2606 24.0267 42.2086 24.0593C42.0719 24.1439 41.9352 24.235 41.7986 24.3196C41.779 24.3327 41.7595 24.3392 41.74 24.3522C41.7139 24.3717 41.6749 24.3912 41.6489 24.4043C41.5578 24.4563 41.4666 24.5149 41.3755 24.5605C41.2649 24.6256 41.1477 24.6841 41.0306 24.7427C41.0046 24.7557 40.985 24.7688 40.9655 24.7753C40.9525 24.7818 40.946 24.7883 40.933 24.7948C40.7768 24.8729 40.6206 24.951 40.4644 25.0226C40.4123 25.0421 40.3668 25.0617 40.3212 25.0877C40.2691 25.1137 40.2106 25.1398 40.152 25.1658C40.0869 25.1918 40.0218 25.2244 39.9567 25.2504C39.8461 25.296 39.7289 25.3351 39.6183 25.3806C39.5597 25.4001 39.5077 25.4262 39.4491 25.4457C39.4296 25.4522 39.41 25.4652 39.384 25.4717C39.1888 25.5368 38.9935 25.6019 38.8048 25.6605C38.7788 25.667 38.7527 25.68 38.7267 25.6865C38.7202 25.6865 38.7202 25.6865 38.7202 25.6865C38.4729 25.7581 38.2256 25.8232 37.9782 25.8753C37.9457 25.8818 37.9132 25.8948 37.8806 25.8948C37.8741 25.8948 37.8741 25.8948 37.8741 25.8948C37.8676 25.9013 37.8611 25.9013 37.8546 25.9013C37.8416 25.9078 37.8286 25.9078 37.8221 25.9078C37.8025 25.9144 37.796 25.9143 37.7765 25.9143C37.7244 25.9274 37.6984 25.9339 37.6724 25.9339C37.6073 25.9469 37.5878 25.9534 37.5617 25.9534C37.4316 25.9729 37.412 25.9794 37.3925 25.9794C37.3079 25.999 37.2689 25.999 37.2363 26.0055C37.1973 26.012 37.1582 26.0185 37.1192 26.025C37.0541 26.0315 37.0281 26.0315 36.9955 26.038C36.9304 26.0445 36.9044 26.051 36.8719 26.051C36.8068 26.0576 36.7742 26.0576 36.7352 26.0641C36.4033 26.0901 36.0844 26.0901 35.772 26.0706L39.1042 16.7952C39.2994 16.626 39.4947 16.4502 39.6834 16.2615C39.8591 16.0922 40.0283 15.9165 40.191 15.7473C40.2561 15.6757 40.3277 15.6041 40.3863 15.5325C40.4839 15.4218 40.5815 15.3177 40.6726 15.207C40.7963 15.0703 40.9004 14.9271 41.0176 14.7839C41.0827 14.6993 41.1477 14.6147 41.2128 14.5301C41.3495 14.3478 41.4666 14.1721 41.5838 13.9898C41.6228 13.9378 41.6619 13.8792 41.6944 13.8206C41.8441 13.5863 41.9808 13.3454 42.1109 13.1046C42.1435 13.046 42.1695 12.9809 42.1955 12.9223C42.2867 12.7401 42.3778 12.5578 42.4559 12.3756C42.4949 12.291 42.5275 12.2064 42.56 12.1152C42.6251 11.959 42.6772 11.7963 42.7292 11.6401C42.7813 11.4773 42.8334 11.3146 42.8724 11.1584L44.0374 6.47842C44.0894 6.2506 44.122 6.02928 44.161 5.81449C44.174 5.72987 44.1871 5.65176 44.2001 5.57366C44.2326 5.35886 44.2586 5.14407 44.2782 4.93579C44.2847 4.91626 44.2847 4.89022 44.2847 4.87069C44.2912 4.83815 44.2912 4.8056 44.2912 4.77306C44.3107 4.54524 44.3172 4.33045 44.3237 4.12216C44.3237 3.96594 44.3172 3.82274 44.3107 3.67303C44.3042 3.62096 44.3107 3.56237 44.3042 3.5168C44.2847 3.33455 44.2652 3.15882 44.2326 2.98308C44.2261 2.94402 44.2131 2.91147 44.2131 2.87242C44.1871 2.73573 44.148 2.59904 44.109 2.46886C44.1024 2.44933 44.0894 2.42329 44.0829 2.39725C44.0374 2.25405 43.9788 2.12388 43.9137 1.9937C43.9007 1.97417 43.8942 1.94813 43.8812 1.9286C43.8096 1.79191 43.7315 1.66825 43.6404 1.55109L48.2937 7.63702C48.3132 7.66306 48.3328 7.68909 48.3523 7.71513C48.4044 7.78673 48.4499 7.85833 48.4955 7.93643C48.5085 7.96247 48.5215 7.9885 48.5345 8.01454C48.541 8.03407 48.554 8.0536 48.5671 8.07963C48.5866 8.11218 48.5996 8.14472 48.6191 8.17726C48.6582 8.26188 48.6972 8.35301 48.7298 8.44414C48.7363 8.45715 48.7363 8.47017 48.7428 8.48319C48.7493 8.50923 48.7558 8.53527 48.7623 8.5548C48.7818 8.61989 48.8079 8.69149 48.8274 8.75658C48.8469 8.82167 48.8534 8.89326 48.8664 8.95835C48.8729 8.99741 48.886 9.02994 48.8925 9.069C48.899 9.08852 48.899 9.10806 48.9055 9.13409C48.9315 9.27729 48.9445 9.427 48.9576 9.58321V9.60274C48.9641 9.65481 48.9641 9.7069 48.9641 9.75897C48.9836 9.89566 48.9901 10.0258 48.9901 10.1625Z" fill="url(#paint6_linear_3775_9200)"/>
<path d="M17.8222 3.24344C12.3488 4.0115 9.05564 6.47842 6.38078 11.8288L4.18752 16.6194C3.34146 18.481 3.24384 20.1864 3.91418 21.4166C3.98577 21.5533 4.07037 21.6835 4.16149 21.8071C5.03359 22.9853 6.66714 23.506 8.79532 23.2521C8.82135 23.2521 8.84738 23.2456 8.87341 23.2456C8.90595 23.2391 8.945 23.2391 8.97755 23.2326C9.01659 23.2261 9.05564 23.2196 9.13374 23.2066C9.16628 23.2 9.19232 23.2 9.2574 23.187C9.28994 23.1805 9.31597 23.174 9.38105 23.1675C9.41359 23.161 9.45264 23.1545 9.4982 23.1415C10.6957 22.9007 11.9518 22.3929 13.1558 21.6965C14.1646 21.1107 15.1343 20.3947 15.9999 19.5875C16.3318 19.2751 16.6507 18.9432 16.9501 18.6047C17.7115 17.765 18.3493 16.8277 18.7724 15.8904L25.0462 2.24756L22.2868 2.6381L17.8222 3.24344Z" fill="url(#paint7_linear_3775_9200)"/>
<path d="M37.8605 0.431571L30.708 1.43396L27.467 14.107C27.4214 14.2762 27.3758 14.4585 27.2587 14.7904C27.0504 15.6692 27.0504 16.4502 27.2392 17.1207C27.3238 17.4461 27.4409 17.739 27.5971 18.0124C27.8444 18.4485 28.1764 18.8195 28.6124 19.145C28.6319 19.158 28.6515 19.171 28.671 19.184C29.5366 19.7829 30.708 20.0627 32.0748 19.9586C32.1073 19.9586 32.1463 19.9521 32.2114 19.9456C32.2375 19.9456 32.27 19.9391 32.3351 19.9326C32.3611 19.9326 32.3937 19.9261 32.4522 19.9195C32.4913 19.913 32.5303 19.9065 32.5694 19.9065C32.6084 19.9 32.641 19.8935 32.7256 19.8805C32.7451 19.874 32.7646 19.874 32.8948 19.8544C32.9143 19.8479 32.9403 19.8479 33.0054 19.8349C33.0315 19.8284 33.051 19.8284 33.1096 19.8154C33.1356 19.8089 33.1681 19.8024 33.2137 19.7959C33.2462 19.7894 33.2788 19.7829 33.3113 19.7763C35.3288 19.3402 37.3724 18.2858 39.0971 16.7887C39.2923 16.6195 39.4876 16.4372 39.6763 16.255C41.2838 14.7254 42.4097 12.9224 42.8653 11.1649L44.0303 6.48494C45.1106 1.41442 43.3144 -0.336492 37.8605 0.431571Z" fill="url(#paint8_linear_3775_9200)"/>
<path d="M20.2305 37.3312L24.8904 43.4236L14.1779 44.9272L9.52454 38.8413L20.2305 37.3312Z" fill="url(#paint9_linear_3775_9200)"/>
<path opacity="0.902" d="M38.0952 17.5828C37.9845 17.6675 37.8674 17.7456 37.7502 17.8237C37.7307 17.8367 37.7112 17.8497 37.6917 17.8627C37.4899 17.9994 37.2817 18.1361 37.0734 18.2533C37.0474 18.2728 37.0083 18.2923 36.9758 18.3053C36.774 18.429 36.5723 18.5462 36.364 18.6503C36.2338 18.7219 36.1037 18.787 35.9735 18.8456C35.8629 18.8977 35.7587 18.9432 35.6546 18.9888C35.4203 19.0994 35.186 19.1906 34.9452 19.2752C34.8606 19.3142 34.763 19.3468 34.6719 19.3728C34.4701 19.4509 34.2684 19.516 34.0601 19.5746H34.0536C33.7998 19.6527 33.5525 19.7113 33.2986 19.7699C33.2921 19.7699 33.2791 19.7699 33.2661 19.7764C33.2531 19.7829 33.2336 19.7829 33.201 19.7894C33.1945 19.7894 33.188 19.7959 33.1815 19.7959C33.175 19.7959 33.175 19.8024 33.175 19.8024C33.1685 19.8024 33.149 19.8089 33.1425 19.8089C33.1229 19.8154 33.1164 19.8154 33.1034 19.8154C33.0448 19.8284 33.0188 19.835 32.9928 19.835C32.9277 19.848 32.9082 19.8545 32.8886 19.8545C32.8366 19.861 32.804 19.8675 32.778 19.874C32.7389 19.8805 32.7259 19.8805 32.7129 19.887C32.6739 19.8935 32.6413 19.8935 32.6153 19.9C32.5958 19.9066 32.5762 19.9066 32.5502 19.9066C32.5112 19.9131 32.4721 19.9196 32.1597 19.9521C32.1207 19.9586 32.0881 19.9586 32.0491 19.9586C30.6889 20.0628 29.5109 19.7829 28.6518 19.1841C28.6323 19.1645 28.6128 19.158 28.5672 19.119C28.4696 19.0409 28.3654 18.9627 28.2808 18.8781C28.1897 18.7935 28.1051 18.7024 28.0205 18.6048C27.9684 18.5462 27.9164 18.4941 27.8643 18.4355C27.7602 18.2988 27.6626 18.1621 27.578 18.0124C25.8338 19.7438 23.5884 21.0066 20.9266 21.5338C20.8875 21.5403 20.842 21.5468 20.8029 21.5533C20.7639 21.5599 20.7183 21.5664 20.6467 21.5729C20.6142 21.5794 20.5817 21.5794 20.5231 21.5924C20.4905 21.5989 20.458 21.5989 20.3994 21.6054C20.3669 21.6119 20.3278 21.6119 20.2823 21.6119C19.5989 21.664 18.9806 21.6184 18.4209 21.4882C18.3949 21.4817 18.3624 21.4687 18.3168 21.4622C18.2908 21.4557 18.2647 21.4427 18.2387 21.4427C17.1584 21.1433 16.3709 20.4989 15.9804 19.5746C15.1148 20.3882 14.1451 21.1042 13.1363 21.6835C11.9323 22.38 10.6762 22.8812 9.45918 23.1285C9.42664 23.135 9.3941 23.1481 9.07519 23.2001C9.03615 23.2066 8.9971 23.2131 8.95154 23.2196C8.919 23.2262 8.88646 23.2261 8.74978 23.2457C6.65415 23.4995 5.01409 22.9788 4.14199 21.8007L0.497409 31.9547C-1.20123 36.6868 1.59078 39.9478 6.73876 39.2188L9.51124 38.8282L11.5027 33.2891C12.2902 31.0956 14.7438 28.9866 17.1909 28.4334C17.6269 28.3357 18.037 28.2576 18.4144 28.2056C21.9223 27.7109 23.1784 29.1494 22.0004 32.3908L20.2237 37.3312L23.0222 36.9406C28.1637 36.2181 33.7152 31.7855 35.4138 27.0534L35.7718 26.0576L39.104 16.7822C38.7785 17.0686 38.4401 17.3355 38.0952 17.5828ZM27.9099 18.4811C27.9034 18.4811 27.9034 18.4811 27.9099 18.4811V18.4811Z" fill="url(#paint10_linear_3775_9200)"/>
<path opacity="0.902" d="M32.6806 19.8936C32.7198 19.8871 32.759 19.8805 32.7917 19.874C32.7525 19.8805 32.7394 19.8806 32.7263 19.8871C32.6871 19.8936 32.6545 19.8936 32.6284 19.9001C32.6414 19.9001 32.661 19.8936 32.6806 19.8936Z" fill="url(#paint11_linear_3775_9200)"/>
<path opacity="0.902" d="M32.7909 19.874C32.9666 19.8415 33.0773 19.8219 33.1553 19.8089C33.1358 19.8154 33.1293 19.8154 33.1163 19.8154C33.0577 19.8284 33.0317 19.8349 33.0057 19.8349C32.9406 19.848 32.9211 19.8545 32.9015 19.8545C32.8495 19.8675 32.8169 19.8675 32.7909 19.874Z" fill="url(#paint12_linear_3775_9200)"/>
<path opacity="0.902" d="M33.1939 19.7959C33.1874 19.7959 33.1874 19.8024 33.1874 19.8024C33.1809 19.8024 33.1615 19.8088 33.155 19.8088C33.168 19.8024 33.1809 19.7959 33.1939 19.7959Z" fill="url(#paint13_linear_3775_9200)"/>
<path d="M18.4208 28.212C21.9287 27.7174 23.1783 29.1559 22.0003 32.3908L20.2301 37.3312L9.51764 38.8348L11.5091 33.2956C12.2966 31.1021 14.7502 28.9931 17.1973 28.4399C17.6333 28.3422 18.0434 28.2641 18.4208 28.212Z" fill="url(#paint14_linear_3775_9200)"/>
<path d="M39.0845 35.1897C39.1496 35.0791 39.2212 34.9684 39.2863 34.8578C39.3904 34.669 39.4815 34.4802 39.5727 34.2915C39.6182 34.1938 39.6703 34.1027 39.7158 34.0051C39.846 33.7187 39.9631 33.4323 40.0673 33.1459L43.7509 22.8811L39.091 16.7952L35.4074 27.0599C35.3033 27.3463 35.1861 27.6327 35.056 27.9191C35.0104 28.0168 34.9584 28.1079 34.9128 28.2055C34.8217 28.3943 34.7306 28.5831 34.6264 28.7718C34.5614 28.8825 34.4898 28.9931 34.4247 29.1038C34.3271 29.273 34.2294 29.4357 34.1188 29.605C34.0407 29.7221 33.9561 29.8393 33.878 29.95C33.7739 30.0997 33.6632 30.2559 33.5526 30.4056C33.3899 30.6204 33.2142 30.8352 33.0384 31.0435C32.9734 31.1216 32.9148 31.1997 32.8497 31.2713C32.7976 31.3364 32.7391 31.395 32.6805 31.4535C32.5113 31.6358 32.3486 31.8246 32.1728 32.0003C32.1078 32.0654 32.0427 32.1305 31.9776 32.1891C31.8019 32.3648 31.6197 32.534 31.4374 32.7033C31.3788 32.7554 31.3268 32.8074 31.2682 32.8595C31.0339 33.0678 30.7996 33.263 30.5588 33.4583C30.5133 33.4909 30.4677 33.5299 30.4287 33.5625C30.1944 33.7512 29.9536 33.9335 29.7062 34.1027C29.6802 34.1222 29.6607 34.1353 29.6347 34.1548C29.3743 34.337 29.114 34.5128 28.8407 34.682C28.7886 34.7146 28.7365 34.7471 28.691 34.7796C28.4306 34.9424 28.1638 35.0986 27.8905 35.2483C27.8384 35.2743 27.7928 35.3004 27.7408 35.3264C27.4804 35.4696 27.2136 35.5998 26.9468 35.73C26.9207 35.743 26.9012 35.756 26.8752 35.7625C26.6018 35.8927 26.322 36.0099 26.0421 36.1205C25.9575 36.1531 25.8794 36.1856 25.7948 36.2116C25.5866 36.2897 25.3783 36.3613 25.17 36.4329C25.0724 36.4655 24.9683 36.498 24.8707 36.5306C24.708 36.5826 24.5453 36.6217 24.3826 36.6608C24.2133 36.7063 24.0441 36.7519 23.8814 36.7844C23.6016 36.843 23.3152 36.9016 23.0354 36.9406L20.2433 37.3312L24.9032 43.4171L27.6952 43.0266C27.936 42.994 28.1768 42.9485 28.4176 42.9029C28.4567 42.8964 28.5022 42.8834 28.5413 42.8704C28.7105 42.8313 28.8797 42.7923 29.0424 42.7467C29.1596 42.7142 29.2767 42.6946 29.4004 42.6556C29.4459 42.6425 29.4915 42.623 29.537 42.61C29.6412 42.5774 29.7388 42.5449 29.8364 42.5124C29.9536 42.4733 30.0707 42.4408 30.1879 42.4017C30.279 42.3692 30.3701 42.3301 30.4612 42.2976C30.5458 42.265 30.6239 42.239 30.7085 42.2064C30.7671 42.1804 30.8257 42.1609 30.8842 42.1414C31.0925 42.0567 31.3073 41.9656 31.5155 41.868C31.522 41.8615 31.535 41.8615 31.5416 41.855C31.5676 41.8419 31.5871 41.8289 31.6131 41.8224C31.7758 41.7443 31.9386 41.6662 32.1013 41.5881C32.2054 41.536 32.303 41.4774 32.4071 41.4254C32.4592 41.3993 32.5048 41.3733 32.5568 41.3473C32.5959 41.3277 32.6284 41.3082 32.6675 41.2887C32.8497 41.1845 33.0319 41.0804 33.2142 40.9697C33.2597 40.9437 33.3118 40.9112 33.3573 40.8786C33.4094 40.8461 33.4615 40.8135 33.507 40.781C33.5851 40.7289 33.6632 40.6833 33.7413 40.6313C33.917 40.5141 34.0928 40.3969 34.262 40.2733C34.275 40.2667 34.2815 40.2602 34.2945 40.2537C34.3205 40.2342 34.3401 40.2212 34.3661 40.2017C34.5093 40.104 34.646 39.9999 34.7891 39.8957C34.8933 39.8176 34.9909 39.7395 35.0885 39.6614C35.1341 39.6289 35.1796 39.5898 35.2187 39.5573C35.2447 39.5378 35.2773 39.5117 35.3033 39.4922C35.479 39.349 35.6547 39.1993 35.8239 39.0496C35.8565 39.017 35.8955 38.9845 35.9281 38.9584C35.9866 38.9064 36.0387 38.8543 36.0973 38.8022C36.1884 38.7241 36.2795 38.6395 36.3641 38.5614C36.4552 38.4703 36.5463 38.3791 36.6375 38.2945C36.7025 38.2294 36.7676 38.1643 36.8327 38.1058C36.8652 38.0732 36.8978 38.0407 36.9303 38.0081C37.0735 37.8584 37.2037 37.7087 37.3403 37.559C37.3989 37.4939 37.4575 37.4353 37.5096 37.3768C37.5161 37.3637 37.5291 37.3572 37.5356 37.3442C37.5942 37.2791 37.6397 37.214 37.6918 37.1489C37.8675 36.9406 38.0432 36.7258 38.2059 36.511C38.2255 36.485 38.2515 36.459 38.271 36.4329C38.3621 36.3093 38.4467 36.1791 38.5313 36.0554C38.6094 35.9383 38.694 35.8276 38.7721 35.7104C38.8893 35.5217 38.9869 35.3524 39.0845 35.1897Z" fill="url(#paint15_linear_3775_9200)"/>
<defs>
<linearGradient id="paint0_linear_3775_9200" x1="14.3587" y1="45.1327" x2="-8.67008" y2="32.5055" gradientUnits="userSpaceOnUse">
<stop offset="0.18" stop-color="#0B3327"/>
<stop offset="0.3189" stop-color="#0D382B"/>
<stop offset="0.4746" stop-color="#144535"/>
<stop offset="0.6384" stop-color="#1F5C46"/>
<stop offset="0.8078" stop-color="#2E7B5E"/>
<stop offset="0.98" stop-color="#41A37D"/>
<stop offset="1" stop-color="#44A881"/>
</linearGradient>
<linearGradient id="paint1_linear_3775_9200" x1="33.325" y1="19.8354" x2="33.415" y2="19.6872" gradientUnits="userSpaceOnUse">
<stop offset="0.18" stop-color="#0B3327"/>
<stop offset="0.3189" stop-color="#0D382B"/>
<stop offset="0.4746" stop-color="#144535"/>
<stop offset="0.6384" stop-color="#1F5C46"/>
<stop offset="0.8078" stop-color="#2E7B5E"/>
<stop offset="0.98" stop-color="#41A37D"/>
<stop offset="1" stop-color="#44A881"/>
</linearGradient>
<linearGradient id="paint2_linear_3775_9200" x1="33.6185" y1="19.901" x2="33.9043" y2="19.4312" gradientUnits="userSpaceOnUse">
<stop offset="0.18" stop-color="#0B3327"/>
<stop offset="0.3189" stop-color="#0D382B"/>
<stop offset="0.4746" stop-color="#144535"/>
<stop offset="0.6384" stop-color="#1F5C46"/>
<stop offset="0.8078" stop-color="#2E7B5E"/>
<stop offset="0.98" stop-color="#41A37D"/>
<stop offset="1" stop-color="#44A881"/>
</linearGradient>
<linearGradient id="paint3_linear_3775_9200" x1="34.2077" y1="19.7521" x2="34.526" y2="19.2286" gradientUnits="userSpaceOnUse">
<stop offset="0.18" stop-color="#0B3327"/>
<stop offset="0.3189" stop-color="#0D382B"/>
<stop offset="0.4746" stop-color="#144535"/>
<stop offset="0.6384" stop-color="#1F5C46"/>
<stop offset="0.8078" stop-color="#2E7B5E"/>
<stop offset="0.98" stop-color="#41A37D"/>
<stop offset="1" stop-color="#44A881"/>
</linearGradient>
<linearGradient id="paint4_linear_3775_9200" x1="35.0959" y1="19.4756" x2="35.4957" y2="18.8182" gradientUnits="userSpaceOnUse">
<stop offset="0.18" stop-color="#0B3327"/>
<stop offset="0.3189" stop-color="#0D382B"/>
<stop offset="0.4746" stop-color="#144535"/>
<stop offset="0.6384" stop-color="#1F5C46"/>
<stop offset="0.8078" stop-color="#2E7B5E"/>
<stop offset="0.98" stop-color="#41A37D"/>
<stop offset="1" stop-color="#44A881"/>
</linearGradient>
<linearGradient id="paint5_linear_3775_9200" x1="37.7952" y1="17.9168" x2="38.0477" y2="17.5016" gradientUnits="userSpaceOnUse">
<stop offset="0.18" stop-color="#0B3327"/>
<stop offset="0.3189" stop-color="#0D382B"/>
<stop offset="0.4746" stop-color="#144535"/>
<stop offset="0.6384" stop-color="#1F5C46"/>
<stop offset="0.8078" stop-color="#2E7B5E"/>
<stop offset="0.98" stop-color="#41A37D"/>
<stop offset="1" stop-color="#44A881"/>
</linearGradient>
<linearGradient id="paint6_linear_3775_9200" x1="33.8956" y1="28.9914" x2="50.2178" y2="2.1538" gradientUnits="userSpaceOnUse">
<stop offset="0.18" stop-color="#0B3327"/>
<stop offset="0.3189" stop-color="#0D382B"/>
<stop offset="0.4746" stop-color="#144535"/>
<stop offset="0.6384" stop-color="#1F5C46"/>
<stop offset="0.8078" stop-color="#2E7B5E"/>
<stop offset="0.98" stop-color="#41A37D"/>
<stop offset="1" stop-color="#44A881"/>
</linearGradient>
<linearGradient id="paint7_linear_3775_9200" x1="12.6171" y1="55.8429" x2="14.5985" y2="1.36222" gradientUnits="userSpaceOnUse">
<stop stop-color="#09453D"/>
<stop offset="0.3367" stop-color="#297C63"/>
<stop offset="0.6283" stop-color="#41A37E"/>
<stop offset="0.8589" stop-color="#50BC8F"/>
<stop offset="1" stop-color="#55C595"/>
</linearGradient>
<linearGradient id="paint8_linear_3775_9200" x1="34.0239" y1="56.6215" x2="36.0052" y2="2.14079" gradientUnits="userSpaceOnUse">
<stop stop-color="#09453D"/>
<stop offset="0.3367" stop-color="#297C63"/>
<stop offset="0.6283" stop-color="#41A37E"/>
<stop offset="0.8589" stop-color="#50BC8F"/>
<stop offset="1" stop-color="#55C595"/>
</linearGradient>
<linearGradient id="paint9_linear_3775_9200" x1="12.2377" y1="48.9334" x2="26.7255" y2="26.1831" gradientUnits="userSpaceOnUse">
<stop/>
<stop offset="0.0949" stop-color="#070709"/>
<stop offset="0.4665" stop-color="#1E1F28"/>
<stop offset="0.775" stop-color="#3F4047"/>
<stop offset="1" stop-color="#525359"/>
</linearGradient>
<linearGradient id="paint10_linear_3775_9200" x1="20.5923" y1="15.689" x2="17.6203" y2="43.9198" gradientUnits="userSpaceOnUse">
<stop stop-color="#09453D"/>
<stop offset="0.0597" stop-color="#115246"/>
<stop offset="0.2652" stop-color="#297B62"/>
<stop offset="0.4664" stop-color="#3C9B78"/>
<stop offset="0.6597" stop-color="#4AB288"/>
<stop offset="0.8415" stop-color="#52C092"/>
<stop offset="1" stop-color="#55C595"/>
</linearGradient>
<linearGradient id="paint11_linear_3775_9200" x1="33.0145" y1="16.9889" x2="30.0377" y2="45.2953" gradientUnits="userSpaceOnUse">
<stop stop-color="#09453D"/>
<stop offset="0.0597" stop-color="#115246"/>
<stop offset="0.2652" stop-color="#297B62"/>
<stop offset="0.4664" stop-color="#3C9B78"/>
<stop offset="0.6597" stop-color="#4AB288"/>
<stop offset="0.8415" stop-color="#52C092"/>
<stop offset="1" stop-color="#55C595"/>
</linearGradient>
<linearGradient id="paint12_linear_3775_9200" x1="33.2685" y1="17.023" x2="30.2954" y2="45.2583" gradientUnits="userSpaceOnUse">
<stop stop-color="#09453D"/>
<stop offset="0.0597" stop-color="#115246"/>
<stop offset="0.2652" stop-color="#297B62"/>
<stop offset="0.4664" stop-color="#3C9B78"/>
<stop offset="0.6597" stop-color="#4AB288"/>
<stop offset="0.8415" stop-color="#52C092"/>
<stop offset="1" stop-color="#55C595"/>
</linearGradient>
<linearGradient id="paint13_linear_3775_9200" x1="33.4639" y1="17.0597" x2="30.5177" y2="45.133" gradientUnits="userSpaceOnUse">
<stop stop-color="#09453D"/>
<stop offset="0.0597" stop-color="#115246"/>
<stop offset="0.2652" stop-color="#297B62"/>
<stop offset="0.4664" stop-color="#3C9B78"/>
<stop offset="0.6597" stop-color="#4AB288"/>
<stop offset="0.8415" stop-color="#52C092"/>
<stop offset="1" stop-color="#55C595"/>
</linearGradient>
<linearGradient id="paint14_linear_3775_9200" x1="12.3046" y1="41.0806" x2="22.83" y2="23.747" gradientUnits="userSpaceOnUse">
<stop stop-color="#1E1F28"/>
<stop offset="0.5019" stop-color="#40424C"/>
<stop offset="1" stop-color="#5E616B"/>
</linearGradient>
<linearGradient id="paint15_linear_3775_9200" x1="23.0738" y1="45.0324" x2="47.4053" y2="12.9042" gradientUnits="userSpaceOnUse">
<stop offset="0.18" stop-color="#0B3327"/>
<stop offset="0.3189" stop-color="#0D382B"/>
<stop offset="0.4746" stop-color="#144535"/>
<stop offset="0.6384" stop-color="#1F5C46"/>
<stop offset="0.8078" stop-color="#2E7B5E"/>
<stop offset="0.98" stop-color="#41A37D"/>
<stop offset="1" stop-color="#44A881"/>
</linearGradient>
</defs>
</svg>
