<svg width="98" height="82" viewBox="0 0 98 82" fill="none" xmlns="http://www.w3.org/2000/svg">
<path d="M48.6366 20.4274L52.7303 25.7778C51.741 26.2334 50.7583 26.6695 49.7691 27.0731L45.6754 21.7227C46.6647 21.3191 47.6539 20.883 48.6366 20.4274Z" fill="#989898"/>
<path d="M45.6756 21.7227L49.7693 27.0731C48.8256 27.4636 47.8819 27.8216 46.9317 28.1601L42.8381 22.8097C43.7818 22.4777 44.732 22.1132 45.6756 21.7227Z" fill="#939393"/>
<path d="M42.8373 22.8097L46.931 28.1601C45.9548 28.5051 44.985 28.824 44.0088 29.1039L39.9152 23.7535C40.8914 23.4736 41.8611 23.1547 42.8373 22.8097Z" fill="#8E8E8E"/>
<path d="M39.9156 23.7534L44.0093 29.1038C43.9182 29.1299 43.8271 29.1559 43.736 29.1819C42.0373 29.6636 40.3322 30.1388 38.64 30.5944C38.627 30.5944 38.6205 30.6009 38.6075 30.6009L34.5139 25.2505C34.5269 25.2505 34.5334 25.244 34.5464 25.244C36.245 24.7818 37.9437 24.3132 39.6423 23.8315C39.7334 23.8055 39.8245 23.7795 39.9156 23.7534Z" fill="#898989"/>
<path d="M34.5137 25.2571L38.6073 30.6075C38.5748 30.614 38.5488 30.627 38.5227 30.6335L34.4291 25.2831C34.4551 25.2766 34.4811 25.2636 34.5137 25.2571Z" fill="#8E8E8E"/>
<path d="M34.4224 25.2831L38.516 30.6335C38.4965 30.64 38.477 30.6465 38.4639 30.653L34.3703 25.3026C34.3898 25.2961 34.4028 25.2896 34.4224 25.2831Z" fill="#939393"/>
<path d="M34.3704 25.3026L38.4641 30.653C38.451 30.6595 38.438 30.666 38.425 30.6726L34.3314 25.3221C34.3444 25.3156 34.3574 25.3091 34.3704 25.3026Z" fill="#989898"/>
<path d="M34.3319 25.3221L38.4256 30.6726C38.4126 30.6791 38.406 30.6791 38.393 30.6856L34.2994 25.3352C34.3124 25.3287 34.3254 25.3287 34.3319 25.3221Z" fill="#9D9D9D"/>
<path d="M34.2995 25.3352L38.3931 30.6856C38.3866 30.6921 38.3736 30.6921 38.3671 30.6986L34.2734 25.3482C34.2865 25.3482 34.293 25.3417 34.2995 25.3352Z" fill="#A2A2A2"/>
<path d="M34.2791 25.3483L38.3727 30.6987C38.3662 30.7052 38.3597 30.7052 38.3532 30.7117L34.2596 25.3613C34.2596 25.3613 34.2661 25.3548 34.2791 25.3483Z" fill="#A7A7A7"/>
<path d="M34.2532 25.3612L38.3468 30.7116C38.3403 30.7181 38.3338 30.7181 38.3273 30.7246L34.2336 25.3742C34.2402 25.3677 34.2467 25.3677 34.2532 25.3612Z" fill="#ACACAC"/>
<path d="M34.2342 25.3743L38.3278 30.7247C38.3213 30.7312 38.3148 30.7312 38.3083 30.7377L34.2147 25.3873C34.2212 25.3808 34.2277 25.3808 34.2342 25.3743Z" fill="#B1B1B1"/>
<path d="M34.2143 25.3872L38.3079 30.7376C38.3014 30.7441 38.2949 30.7441 38.2884 30.7506L34.1948 25.4002C34.2078 25.3937 34.2143 25.3937 34.2143 25.3872Z" fill="#B6B6B6"/>
<path d="M34.2017 25.4003L38.2953 30.7507C38.2888 30.7572 38.2823 30.7572 38.2823 30.7637L34.1887 25.4133C34.1887 25.4068 34.1952 25.4003 34.2017 25.4003Z" fill="#BBBBBB"/>
<path d="M34.1818 25.4133L38.2755 30.7637C38.269 30.7702 38.2625 30.7702 38.2625 30.7768L34.1688 25.4264C34.1753 25.4198 34.1818 25.4133 34.1818 25.4133Z" fill="#C0C0C0"/>
<path d="M34.1684 25.4263L38.2621 30.7767C38.2556 30.7832 38.2491 30.7897 38.2426 30.7897L34.1489 25.4393C34.1554 25.4328 34.1619 25.4328 34.1684 25.4263Z" fill="#C5C5C5"/>
<path d="M34.1494 25.4393L38.2431 30.7898C38.2365 30.7963 38.23 30.8028 38.2235 30.8093L34.1299 25.4589C34.1429 25.4523 34.1494 25.4458 34.1494 25.4393Z" fill="#CACACA"/>
<path d="M34.1364 25.4589L38.2301 30.8093C38.2235 30.8158 38.217 30.8223 38.2105 30.8288L34.1169 25.4784C34.1234 25.4719 34.1299 25.4654 34.1364 25.4589Z" fill="#CFCFCF"/>
<path d="M34.117 25.4784L38.2106 30.8288C38.2041 30.8418 38.1911 30.8483 38.1846 30.8614L34.0909 25.5109C34.0975 25.4979 34.104 25.4914 34.117 25.4784Z" fill="#D5D5D5"/>
<path d="M34.0907 25.5109L38.1844 30.8613C38.1323 30.9329 38.0933 31.0175 38.0542 31.1216C37.5075 32.7619 36.9934 34.3892 36.4923 36.0229L32.3986 30.6725C32.8998 29.0453 33.4204 27.4115 33.9606 25.7712C33.9996 25.6671 34.0387 25.5825 34.0907 25.5109Z" fill="#DADADA"/>
<path d="M53.1657 18.1882L57.2593 23.5386C57.2268 23.5517 57.2008 23.5712 57.1682 23.5842C56.7973 23.7795 56.4263 23.9682 56.0553 24.1635L51.9617 18.8131C52.3326 18.6243 52.7036 18.4291 53.0746 18.2338C53.1071 18.2208 53.1331 18.2013 53.1657 18.1882Z" fill="#A2A2A2"/>
<path d="M51.9619 18.8131L56.0555 24.1635C54.9491 24.7298 53.8427 25.2701 52.7363 25.7843L48.6427 20.4339C49.7491 19.9196 50.8555 19.3729 51.9619 18.8131Z" fill="#9D9D9D"/>
<path d="M48.636 20.4274L52.7297 25.7778C51.7404 26.2334 50.7577 26.6695 49.7685 27.0731L45.6748 21.7227C46.664 21.3191 47.6533 20.883 48.636 20.4274Z" fill="#989898"/>
<path d="M71.0366 20.2321L75.1303 25.5825C74.9871 25.3937 74.5185 25.5044 74.1866 25.4979C72.4359 25.4393 70.6396 25.4848 68.915 25.3742C65.4786 25.1529 62.4719 24.3328 59.6799 23.2262C59.3024 23.0765 58.9444 23.0244 58.5409 23.083C58.4889 23.0895 58.4368 23.1026 58.3847 23.1091L54.2911 17.7587C54.3431 17.7456 54.3952 17.7391 54.4473 17.7326C54.8443 17.674 55.2087 17.7261 55.5862 17.8758C58.3782 18.9823 61.3785 19.8025 64.8213 20.0238C66.5395 20.1344 68.3422 20.0889 70.0929 20.1475C70.4249 20.1605 70.8934 20.0433 71.0366 20.2321Z" fill="#848484"/>
<path d="M54.2914 17.7587L58.385 23.1091C58.3069 23.1221 58.2353 23.1416 58.1572 23.1677L54.0636 17.8172C54.1417 17.7912 54.2198 17.7717 54.2914 17.7587Z" fill="#898989"/>
<path d="M54.0635 17.8173L58.1571 23.1677C58.0921 23.1872 58.0205 23.2067 57.9489 23.2328L53.8552 17.8823C53.9268 17.8563 53.9919 17.8368 54.0635 17.8173Z" fill="#8E8E8E"/>
<path d="M53.8551 17.8823L57.9487 23.2327C57.8836 23.2588 57.812 23.2848 57.7404 23.3109L53.6468 17.9604C53.7184 17.9344 53.79 17.9084 53.8551 17.8823Z" fill="#939393"/>
<path d="M53.6467 17.9604L57.7403 23.3109C57.6687 23.3434 57.5906 23.3759 57.5191 23.4085L53.4254 18.0581C53.5035 18.0255 53.5751 17.993 53.6467 17.9604Z" fill="#989898"/>
<path d="M53.4254 18.058L57.5191 23.4084C57.4345 23.4474 57.3499 23.4865 57.2587 23.5321L53.1651 18.1817C53.2562 18.1426 53.3408 18.097 53.4254 18.058Z" fill="#9D9D9D"/>
<path d="M53.1654 18.1882L57.259 23.5386C57.2265 23.5517 57.2004 23.5712 57.1679 23.5842C56.7969 23.7795 56.426 23.9682 56.055 24.1635L51.9614 18.8131C52.3323 18.6243 52.7033 18.4291 53.0743 18.2338C53.1068 18.2208 53.1328 18.2013 53.1654 18.1882Z" fill="#A2A2A2"/>
<path d="M71.0371 20.2321L75.1307 25.5825C74.9875 25.3937 74.5189 25.5044 74.187 25.4979C72.4363 25.4393 70.6401 25.4848 68.9154 25.3742C65.4791 25.1529 62.4723 24.3328 59.6803 23.2262C59.3028 23.0765 58.9449 23.0244 58.5413 23.083C58.4893 23.0895 58.4372 23.1026 58.3852 23.1091L54.2915 17.7587C54.3436 17.7456 54.3956 17.7391 54.4477 17.7326C54.8447 17.674 55.2092 17.7261 55.5866 17.8758C58.3786 18.9823 61.3789 19.8025 64.8217 20.0238C66.5399 20.1344 68.3427 20.0889 70.0934 20.1475C70.4253 20.1605 70.8939 20.0433 71.0371 20.2321Z" fill="#848484"/>
<path d="M38.0024 34.7732L42.0961 40.1236C42.0505 40.1496 42.005 40.1757 41.9529 40.2082L37.8593 34.8578C37.9048 34.8253 37.9504 34.7992 38.0024 34.7732Z" fill="#979797"/>
<path d="M37.8593 34.8513L41.953 40.2017C41.9269 40.2213 41.9009 40.2343 41.8684 40.2538C41.8488 40.2668 41.8293 40.2798 41.8163 40.2864L37.7227 34.9359C37.7422 34.9229 37.7617 34.9099 37.7747 34.9034C37.8073 34.8839 37.8333 34.8708 37.8593 34.8513Z" fill="#9C9C9C"/>
<path d="M37.7227 34.9359L41.8163 40.2863C41.7708 40.3189 41.7252 40.3449 41.6797 40.3774L37.586 35.027C37.6316 35.001 37.6771 34.9685 37.7227 34.9359Z" fill="#A0A0A0"/>
<path d="M37.5856 35.0271L41.6792 40.3775C41.6337 40.4101 41.5881 40.4426 41.5491 40.4752L37.4554 35.1247C37.501 35.0922 37.5466 35.0596 37.5856 35.0271Z" fill="#A5A5A5"/>
<path d="M37.4559 35.1246L41.5496 40.4751C41.504 40.5076 41.4584 40.5467 41.4194 40.5792L37.3257 35.2288C37.3648 35.1962 37.4104 35.1572 37.4559 35.1246Z" fill="#A9A9A9"/>
<path d="M37.3253 35.2289L41.4189 40.5793C41.3734 40.6184 41.3278 40.6509 41.2888 40.69L37.1951 35.3395C37.2342 35.3005 37.2797 35.2679 37.3253 35.2289Z" fill="#AEAEAE"/>
<path d="M37.1891 35.3395L41.2827 40.6899C41.2372 40.7289 41.1916 40.768 41.1461 40.8135L37.0524 35.4632C37.1045 35.4241 37.1435 35.3785 37.1891 35.3395Z" fill="#B3B3B3"/>
<path d="M37.059 35.4631L41.1527 40.8135C41.1006 40.8591 41.055 40.9047 41.0095 40.9567L36.9158 35.6063C36.9614 35.5543 37.0069 35.5087 37.059 35.4631Z" fill="#B7B7B7"/>
<path d="M36.9155 35.6063L41.0091 40.9567C40.9571 41.0153 40.905 41.0674 40.8529 41.126L36.7593 35.7756C36.8113 35.717 36.8634 35.6584 36.9155 35.6063Z" fill="#BCBCBC"/>
<path d="M36.9154 35.6063L41.0091 40.9567C40.957 41.0153 40.9049 41.0674 40.8529 41.126L36.7592 35.7756C36.8113 35.717 36.8633 35.6584 36.9154 35.6063Z" fill="#BCBCBC"/>
<path d="M36.9141 35.6063L41.0078 40.9567C40.9557 41.0153 40.9036 41.0674 40.8516 41.126L36.7579 35.7756C36.81 35.717 36.8621 35.6584 36.9141 35.6063Z" fill="#BCBCBC"/>
<path d="M36.7581 35.7755L40.8518 41.1259C40.7867 41.204 40.7216 41.2822 40.663 41.3668L36.5694 36.0164C36.628 35.9317 36.6931 35.8536 36.7581 35.7755Z" fill="#C0C0C0"/>
<path d="M36.569 36.0099L40.6626 41.3603C40.4283 41.6727 40.2591 41.9917 40.1615 42.3041L36.0679 36.9537C36.1655 36.6478 36.3347 36.3223 36.569 36.0099Z" fill="#C5C5C5"/>
<path d="M36.0685 36.9602L40.1621 42.3106C40.1361 42.3887 40.1165 42.4668 40.1035 42.5449L36.0099 37.1945C36.0229 37.1164 36.0424 37.0383 36.0685 36.9602Z" fill="#C0C0C0"/>
<path d="M36.01 37.1946L40.1036 42.545C40.0906 42.6036 40.0841 42.6621 40.0776 42.7207L35.9839 37.3703C35.9905 37.3117 35.997 37.2532 36.01 37.1946Z" fill="#BCBCBC"/>
<path d="M35.9836 37.3702L40.0772 42.7206C40.0707 42.7727 40.0707 42.8183 40.0707 42.8638L35.9771 37.5134C35.9771 37.4679 35.9836 37.4158 35.9836 37.3702Z" fill="#B7B7B7"/>
<path d="M35.9771 37.5134L40.0707 42.8638C40.0707 42.9094 40.0707 42.9485 40.0772 42.994L35.9836 37.6436C35.9771 37.5981 35.9771 37.559 35.9771 37.5134Z" fill="#B3B3B3"/>
<path d="M35.9839 37.6437L40.0776 42.9941C40.0776 43.0331 40.0841 43.0722 40.0906 43.1112L35.997 37.7608C35.9905 37.7218 35.9839 37.6827 35.9839 37.6437Z" fill="#AEAEAE"/>
<path d="M35.9969 37.7609L40.0906 43.1113C40.0971 43.1438 40.1036 43.1829 40.1101 43.2154L36.0165 37.865C36.01 37.8325 36.0035 37.7934 35.9969 37.7609Z" fill="#A9A9A9"/>
<path d="M36.0229 37.865L40.1165 43.2154C40.123 43.2479 40.1361 43.2805 40.1491 43.313L36.0554 37.9626C36.0359 37.9301 36.0294 37.8975 36.0229 37.865Z" fill="#A5A5A5"/>
<path d="M36.0488 37.9626L40.1425 43.3131C40.149 43.3391 40.162 43.3651 40.175 43.3912L36.0814 38.0408C36.0684 38.0147 36.0618 37.9887 36.0488 37.9626Z" fill="#A0A0A0"/>
<path d="M40.7602 34.7732L44.8538 40.1236C44.5545 39.7331 44.0078 39.5834 43.3635 39.6745C43.3049 39.681 43.2398 39.694 43.1812 39.707L39.0876 34.3566C39.1527 34.3436 39.2112 34.3306 39.2698 34.3241C39.9141 34.233 40.4608 34.3827 40.7602 34.7732Z" fill="#777777"/>
<path d="M39.088 34.3567L43.1817 39.7071C43.0971 39.7266 43.0125 39.7461 42.9279 39.7722L38.8342 34.4218C38.9188 34.3957 39.0034 34.3697 39.088 34.3567Z" fill="#7C7C7C"/>
<path d="M38.8345 34.4153L42.9281 39.7657C42.8631 39.7852 42.7915 39.8048 42.7264 39.8308L38.6328 34.4804C38.6978 34.4609 38.7694 34.4348 38.8345 34.4153Z" fill="#808080"/>
<path d="M38.632 34.4803L42.7257 39.8308C42.6671 39.8503 42.6085 39.8763 42.5499 39.8958L38.4563 34.5454C38.5149 34.5259 38.5734 34.5064 38.632 34.4803Z" fill="#858585"/>
<path d="M38.4565 34.5519L42.5501 39.9023C42.4981 39.9218 42.446 39.9479 42.3874 39.9739L38.2938 34.6235C38.3458 34.5974 38.4044 34.5714 38.4565 34.5519Z" fill="#898989"/>
<path d="M38.2939 34.6235L42.3875 39.974C42.3354 40 42.2899 40.0195 42.2378 40.0455L38.1442 34.6951C38.1962 34.6691 38.2418 34.6431 38.2939 34.6235Z" fill="#8E8E8E"/>
<path d="M38.1446 34.6951L42.2383 40.0455C42.1928 40.0715 42.1407 40.0976 42.0951 40.1236L38.0015 34.7732C38.047 34.7471 38.0926 34.7211 38.1446 34.6951Z" fill="#939393"/>
<path d="M38.0011 34.7732L42.0947 40.1236C42.0492 40.1496 42.0036 40.1757 41.9516 40.2082L37.8579 34.8578C37.9035 34.8253 37.949 34.7992 38.0011 34.7732Z" fill="#979797"/>
<path d="M40.7614 34.7732L44.855 40.1236C44.8615 40.1366 44.868 40.1431 44.8745 40.1562L40.7809 34.8057C40.7744 34.7927 40.7679 34.7797 40.7614 34.7732Z" fill="#A3A3A3"/>
<path d="M40.7815 34.8064L44.8751 40.1568C44.8947 40.1828 44.9142 40.2089 44.9272 40.2414L40.8336 34.891C40.8205 34.8585 40.801 34.8324 40.7815 34.8064Z" fill="#A8A8A8"/>
<path d="M40.8403 34.8843L44.934 40.2347C44.9535 40.2607 44.9665 40.2933 44.9796 40.3258L40.8859 34.9754C40.8729 34.9429 40.8533 34.9168 40.8403 34.8843Z" fill="#ADADAD"/>
<path d="M40.8853 34.9756L44.9789 40.326C44.9789 40.3325 44.9854 40.339 44.9854 40.3455L40.8918 34.9951C40.8918 34.9886 40.8853 34.9821 40.8853 34.9756Z" fill="#B3B3B3"/>
<path d="M61.9713 27.0535L66.0649 32.4039C65.9933 32.3063 65.9022 32.2217 65.7916 32.1501C65.4727 31.9418 65.0431 31.8832 64.581 31.9483C64.5225 31.9548 64.4574 31.9678 64.3988 31.9808L60.3052 26.6304C60.3637 26.6174 60.4288 26.6044 60.4874 26.5979C60.956 26.5328 61.379 26.5914 61.6979 26.7997C61.8086 26.8713 61.8997 26.9559 61.9713 27.0535Z" fill="#777777"/>
<path d="M60.3047 26.6304L64.3984 31.9808C64.3138 32.0003 64.2292 32.0198 64.1445 32.0459L60.0509 26.6955C60.1355 26.6694 60.2201 26.6499 60.3047 26.6304Z" fill="#7C7C7C"/>
<path d="M60.0451 26.6954L64.1388 32.0458C64.0737 32.0654 64.0021 32.0849 63.937 32.1109L59.8434 26.7605C59.915 26.7345 59.9801 26.715 60.0451 26.6954Z" fill="#808080"/>
<path d="M59.8431 26.7606L63.9368 32.1111C63.8782 32.1306 63.8196 32.1566 63.7545 32.1827L59.6609 26.8322C59.726 26.7997 59.7845 26.7801 59.8431 26.7606Z" fill="#858585"/>
<path d="M59.6671 26.8257L63.7607 32.1761C63.7087 32.1956 63.6501 32.2217 63.598 32.2477L59.5044 26.8973C59.5565 26.8712 59.6085 26.8517 59.6671 26.8257Z" fill="#898989"/>
<path d="M59.5045 26.8973L63.5981 32.2477C63.5461 32.2738 63.494 32.2933 63.4485 32.3193L59.3548 26.9689C59.4004 26.9429 59.4524 26.9234 59.5045 26.8973Z" fill="#8E8E8E"/>
<path d="M59.3484 26.9689L63.442 32.3193C63.3965 32.3453 63.3444 32.3713 63.2988 32.3974L59.2052 27.047C59.2573 27.0209 59.3028 26.9949 59.3484 26.9689Z" fill="#939393"/>
<path d="M59.2052 27.047L63.2989 32.3974C63.2533 32.4234 63.2078 32.4495 63.1622 32.4755L59.0685 27.1251C59.1141 27.0991 59.1597 27.073 59.2052 27.047Z" fill="#979797"/>
<path d="M59.0686 27.1316L63.1622 32.482C63.1167 32.508 63.0711 32.5406 63.0255 32.5666L58.9319 27.2162C58.9774 27.1837 59.023 27.1576 59.0686 27.1316Z" fill="#9C9C9C"/>
<path d="M58.9315 27.2162L63.0251 32.5666C62.9796 32.5926 62.934 32.6252 62.895 32.6577L58.8013 27.3073C58.8469 27.2748 58.8859 27.2422 58.9315 27.2162Z" fill="#A0A0A0"/>
<path d="M58.8018 27.3008L62.8954 32.6512C62.8499 32.6838 62.8108 32.7163 62.7653 32.7488L58.6716 27.3984C58.7107 27.3659 58.7562 27.3333 58.8018 27.3008Z" fill="#A5A5A5"/>
<path d="M58.6712 27.3984L62.7648 32.7488C62.7193 32.7814 62.6737 32.8139 62.6347 32.853L58.541 27.5026C58.5801 27.4635 58.6256 27.431 58.6712 27.3984Z" fill="#A9A9A9"/>
<path d="M58.5415 27.5027L62.6351 32.8531C62.5896 32.8922 62.544 32.9247 62.505 32.9637L58.4113 27.6133C58.4504 27.5743 58.4959 27.5352 58.5415 27.5027Z" fill="#AEAEAE"/>
<path d="M58.4044 27.6133L62.4981 32.9637C62.4525 33.0027 62.407 33.0483 62.3614 33.0874L58.2678 27.7369C58.3133 27.6979 58.3589 27.6523 58.4044 27.6133Z" fill="#B3B3B3"/>
<path d="M58.268 27.7369L62.3617 33.0874C62.3357 33.1134 62.3096 33.1394 62.2836 33.1655L58.1899 27.815C58.216 27.789 58.242 27.763 58.268 27.7369Z" fill="#B7B7B7"/>
<path d="M71.0371 20.2321L75.1307 25.5825C74.9875 25.3937 74.5189 25.5044 74.187 25.4979C72.4363 25.4393 70.6401 25.4848 68.9154 25.3742C65.4791 25.1529 62.4723 24.3328 59.6803 23.2262C59.3028 23.0765 58.9449 23.0244 58.5413 23.083C58.4893 23.0895 58.4372 23.1026 58.3852 23.1091L54.2915 17.7587C54.3436 17.7456 54.3956 17.7391 54.4477 17.7326C54.8447 17.674 55.2092 17.7261 55.5866 17.8758C58.3786 18.9823 61.3789 19.8025 64.8217 20.0238C66.5399 20.1344 68.3427 20.0889 70.0934 20.1475C70.4253 20.1605 70.8939 20.0433 71.0371 20.2321Z" fill="#848484"/>
<path d="M71.0377 20.2321L75.1249 25.5825L75.1314 25.589L71.0377 20.2386V20.2321Z" fill="#939393"/>
<path d="M71.0377 20.2405L75.1314 25.5909L71.0442 20.247L71.0377 20.2405Z" fill="#979797"/>
<path d="M40.8911 34.9945L44.9848 40.3384L48.0501 47.3226L43.963 41.9722L40.8911 34.9945Z" fill="#B5B5B5"/>
<path d="M58.1905 27.8151L62.2776 33.1655L48.0508 47.3226L43.9636 41.9722L58.1905 27.8151Z" fill="#C0C0C0"/>
<path d="M61.9716 27.0535L66.0652 32.4039C66.0717 32.4169 66.0782 32.4234 66.0847 32.4364L61.9911 27.086C61.9911 27.073 61.9781 27.06 61.9716 27.0535Z" fill="#A3A3A3"/>
<path d="M61.9976 27.0795L66.0912 32.4299C66.1107 32.4559 66.1303 32.482 66.1433 32.5145L62.0496 27.1641C62.0301 27.138 62.0171 27.1055 61.9976 27.0795Z" fill="#A8A8A8"/>
<path d="M62.0494 27.1641L66.1431 32.5145C66.1561 32.5405 66.1756 32.5731 66.1887 32.5991L62.095 27.2487C62.082 27.2226 62.0625 27.1901 62.0494 27.1641Z" fill="#ADADAD"/>
<path d="M62.0953 27.2488L66.1889 32.5992C66.2019 32.6317 66.2149 32.6578 66.228 32.6903L62.1343 27.3399C62.1213 27.3139 62.1083 27.2813 62.0953 27.2488Z" fill="#B3B3B3"/>
<path d="M62.1281 27.3398L66.2218 32.6903C66.2348 32.7228 66.2413 32.7553 66.2543 32.7879L62.1606 27.4375C62.1541 27.4049 62.1411 27.3724 62.1281 27.3398Z" fill="#B8B8B8"/>
<path d="M62.1601 27.4375L66.2538 32.7879C66.2603 32.8205 66.2733 32.8595 66.2733 32.8921L62.1796 27.5416C62.1796 27.5091 62.1666 27.4766 62.1601 27.4375Z" fill="#BDBDBD"/>
<path d="M62.18 27.5482L66.2736 32.8986C66.2802 32.9377 66.2867 32.9767 66.2867 33.0158L62.193 27.6654C62.193 27.6263 62.1865 27.5873 62.18 27.5482Z" fill="#C2C2C2"/>
<path d="M62.199 27.6653L66.2927 33.0157C66.2992 33.0547 66.2992 33.1003 66.2992 33.1459L62.2055 27.7955C62.199 27.7499 62.199 27.7043 62.199 27.6653Z" fill="#C7C7C7"/>
<path d="M62.1995 27.7891L66.2931 33.1395C66.2931 33.185 66.2932 33.2371 66.2866 33.2892L62.193 27.9388C62.1995 27.8867 62.1995 27.8411 62.1995 27.7891Z" fill="#CCCCCC"/>
<path d="M62.1931 27.9387L66.2867 33.2891C66.2802 33.3477 66.2737 33.4063 66.2607 33.4649L62.1671 28.1145C62.1801 28.0559 62.1866 27.9973 62.1931 27.9387Z" fill="#D1D1D1"/>
<path d="M62.1668 28.1144L66.2604 33.4648C66.2474 33.5429 66.2279 33.621 66.2019 33.7056L62.1082 28.3552C62.1342 28.2771 62.1538 28.1925 62.1668 28.1144Z" fill="#D6D6D6"/>
<path d="M62.1082 28.3552L66.2019 33.7056C66.1042 34.0116 65.9415 34.3305 65.7072 34.6429L61.6136 29.2925C61.8479 28.9801 62.0171 28.6611 62.1082 28.3552Z" fill="#DBDBDB"/>
<path d="M61.6138 29.2926L65.7074 34.643C65.6489 34.7211 65.5903 34.7992 65.5187 34.8708L61.425 29.5204C61.4966 29.4488 61.5552 29.3707 61.6138 29.2926Z" fill="#D6D6D6"/>
<path d="M61.4317 29.5204L65.5253 34.8708C65.4732 34.9294 65.4212 34.988 65.3691 35.0465L61.2755 29.6961C61.3275 29.6375 61.3796 29.579 61.4317 29.5204Z" fill="#D1D1D1"/>
<path d="M61.2688 29.6962L65.3624 35.0466C65.3429 35.0726 65.3168 35.0921 65.2973 35.1182L61.2037 29.7678C61.2297 29.7417 61.2492 29.7157 61.2688 29.6962Z" fill="#CCCCCC"/>
<path d="M36.0821 38.0408L40.1692 43.3847L44.2043 52.5494L40.1107 47.2055L36.0821 38.0408Z" fill="#A3A3A3"/>
<path d="M71.0438 20.2451L75.1375 25.5955C75.1375 25.602 75.144 25.602 75.144 25.6085L71.0503 20.2581C71.0503 20.2516 71.0438 20.2451 71.0438 20.2451Z" fill="#979797"/>
<path d="M71.0499 20.2516L75.1435 25.602C75.1435 25.6085 75.15 25.6085 75.15 25.615L71.0564 20.2646C71.0564 20.2646 71.0499 20.2581 71.0499 20.2516Z" fill="#9C9C9C"/>
<path d="M71.0568 20.2646L75.1505 25.6151C75.1505 25.6216 75.157 25.6216 75.157 25.6281L71.0633 20.2777C71.0633 20.2777 71.0568 20.2712 71.0568 20.2646Z" fill="#A0A0A0"/>
<path d="M71.0637 20.2842L75.1574 25.6346C75.1574 25.6411 75.1639 25.6476 75.1639 25.6476L71.0702 20.2972C71.0637 20.2907 71.0637 20.2842 71.0637 20.2842Z" fill="#A5A5A5"/>
<path d="M71.0698 20.2972L75.1634 25.6476C75.1634 25.6542 75.1634 25.6607 75.1699 25.6672L71.0763 20.3168C71.0698 20.3103 71.0698 20.3038 71.0698 20.2972Z" fill="#A9A9A9"/>
<path d="M71.0698 20.3168L75.1634 25.6672C75.1634 25.6737 75.1634 25.6802 75.1634 25.6867L71.0698 20.3363C71.0698 20.3298 71.0698 20.3233 71.0698 20.3168Z" fill="#AEAEAE"/>
<path d="M71.0767 20.3363L75.1704 25.6867C75.1704 25.6932 75.1704 25.6997 75.1704 25.7127L71.0767 20.3623C71.0767 20.3493 71.0767 20.3428 71.0767 20.3363Z" fill="#B3B3B3"/>
<path d="M71.0767 20.3623L75.1704 25.7127C75.1704 25.7192 75.1704 25.7323 75.1704 25.7453L71.0767 20.3948C71.0767 20.3818 71.0767 20.3688 71.0767 20.3623Z" fill="#B7B7B7"/>
<path d="M71.0702 20.3883L75.1639 25.7387C75.1639 25.7517 75.1574 25.7648 75.1574 25.7778L71.0637 20.4274C71.0702 20.4208 71.0702 20.4013 71.0702 20.3883Z" fill="#BCBCBC"/>
<path d="M71.0694 20.434L75.1631 25.7844C75.1565 25.8104 75.15 25.8299 75.1435 25.856L71.0499 20.5056C71.0564 20.4795 71.0629 20.4535 71.0694 20.434Z" fill="#C0C0C0"/>
<path d="M71.0503 20.5063L75.144 25.8568C75.0789 26.065 74.9162 26.3189 74.8381 26.5337C74.3305 27.842 73.8098 29.1503 73.3803 30.2503L69.2866 24.8999C69.7227 23.7934 70.2368 22.4851 70.7444 21.1833C70.8225 20.9685 70.9853 20.7146 71.0503 20.5063Z" fill="#C5C5C5"/>
<path d="M40.1102 47.2053L44.2039 52.5557C44.2104 52.5818 44.2169 52.6078 44.2299 52.6339L40.1363 47.2834C40.1298 47.2574 40.1167 47.2314 40.1102 47.2053Z" fill="#A5A5A5"/>
<path d="M40.1367 47.2834L44.2303 52.6338C44.2433 52.6664 44.2563 52.6989 44.2694 52.7315L40.1757 47.3811C40.1627 47.3485 40.1497 47.316 40.1367 47.2834Z" fill="#A0A0A0"/>
<path d="M40.1764 47.3751L44.27 52.7255C44.2831 52.7581 44.2961 52.7841 44.3156 52.8167L40.2219 47.4662C40.2024 47.4402 40.1894 47.4077 40.1764 47.3751Z" fill="#9C9C9C"/>
<path d="M40.2214 47.4664L44.315 52.8168C44.3345 52.8429 44.3476 52.8754 44.3671 52.9014L40.2734 47.5511C40.2539 47.525 40.2409 47.4925 40.2214 47.4664Z" fill="#979797"/>
<path d="M40.2733 47.5503L44.3669 52.9007C44.3734 52.9137 44.3799 52.9202 44.3864 52.9332L40.2928 47.5828C40.2863 47.5698 40.2798 47.5568 40.2733 47.5503Z" fill="#939393"/>
<path d="M34.0904 25.5109L38.184 30.8613C38.132 30.9329 38.0929 31.0175 38.0539 31.1216C37.5072 32.7619 36.993 34.3892 36.4919 36.0229L32.3983 30.6725C32.8994 29.0453 33.42 27.4115 33.9602 25.7712C33.9993 25.6671 34.0383 25.5825 34.0904 25.5109Z" fill="#DADADA"/>
<path d="M32.3985 30.6725L36.4922 36.0229C36.1537 37.1294 35.8153 38.236 35.4899 39.336C35.1515 40.462 34.8781 41.5686 34.6699 42.6621L30.5762 37.3117C30.7845 36.2247 31.0643 35.1116 31.3963 33.9856C31.7217 32.8855 32.0536 31.779 32.3985 30.6725Z" fill="#D5D5D5"/>
<path d="M30.5695 37.3116L34.6632 42.6621C34.52 43.4041 34.4159 44.1461 34.3508 44.8686L30.2571 39.5182C30.3222 38.7957 30.4329 38.0602 30.5695 37.3116Z" fill="#CFCFCF"/>
<path d="M30.2577 39.5182L34.3514 44.8686C34.3514 44.8946 34.3448 44.9207 34.3448 44.9532C34.2472 46.0402 34.1821 47.1142 34.1821 48.1622L30.0885 42.8118C30.095 41.7638 30.1601 40.6898 30.2512 39.6028C30.2512 39.5768 30.2577 39.5442 30.2577 39.5182Z" fill="#CACACA"/>
<path d="M30.0815 42.8118L34.1752 48.1622C34.1752 48.8066 34.1947 49.438 34.2468 50.0563L30.1531 44.7059C30.1011 44.0875 30.0815 43.4562 30.0815 42.8118Z" fill="#C5C5C5"/>
<path d="M30.1533 44.7124L34.247 50.0628C34.286 50.538 34.3446 51.0001 34.4227 51.4557L30.329 46.1053C30.2509 45.6432 30.1924 45.1811 30.1533 44.7124Z" fill="#C0C0C0"/>
<path d="M30.3289 46.0989L34.4225 51.4493C34.4876 51.8333 34.5657 52.2043 34.6633 52.5753L30.5697 47.2249C30.472 46.8604 30.3939 46.4829 30.3289 46.0989Z" fill="#BBBBBB"/>
<path d="M30.5693 47.225L34.6629 52.5754C34.6955 52.6991 34.728 52.8227 34.7671 52.9464C34.9102 53.4281 35.0599 53.9097 35.2291 54.3784L31.1355 49.028C30.9663 48.5593 30.8166 48.0842 30.6734 47.596C30.6344 47.4723 30.5953 47.3486 30.5693 47.225Z" fill="#B6B6B6"/>
<path d="M31.1296 49.0215L35.2233 54.3719C35.4185 54.9121 35.6268 55.4459 35.8676 55.9601L31.7739 50.6097C31.5331 50.0955 31.3249 49.5682 31.1296 49.0215Z" fill="#B1B1B1"/>
<path d="M31.7739 50.6096L35.8676 55.96C36.0563 56.3701 36.2646 56.7736 36.4858 57.1642L32.3922 51.8138C32.1644 51.4232 31.9627 51.0262 31.7739 50.6096Z" fill="#ACACAC"/>
<path d="M32.3922 51.8138L36.4858 57.1642C36.6811 57.5092 36.8959 57.8412 37.1236 58.1666L33.03 52.8162C32.8022 52.4908 32.5875 52.1588 32.3922 51.8138Z" fill="#A7A7A7"/>
<path d="M33.0295 52.8162L37.1232 58.1666C37.1297 58.1731 37.1297 58.1796 37.1362 58.1861C37.2013 58.2837 37.2729 58.3749 37.3445 58.4725L33.2508 53.1221C33.1792 53.031 33.1076 52.9333 33.0426 52.8357C33.0426 52.8292 33.036 52.8227 33.0295 52.8162Z" fill="#A2A2A2"/>
<path d="M61.2039 29.7612L65.2976 35.1116L48.2721 52.0546L44.185 46.7042L61.2039 29.7612Z" fill="#D6D6D6"/>
<path d="M43.4954 47.303L47.5891 52.6534C47.576 52.6664 47.563 52.6729 47.55 52.6794L43.4564 47.329C43.4694 47.3225 43.4824 47.3095 43.4954 47.303Z" fill="#B8B8B8"/>
<path d="M43.4502 47.329L47.5439 52.6794C47.5113 52.7054 47.4788 52.725 47.4462 52.7445L43.3526 47.3941C43.3851 47.3745 43.4177 47.355 43.4502 47.329Z" fill="#B3B3B3"/>
<path d="M43.3522 47.394L47.4459 52.7444C47.4329 52.7575 47.4133 52.764 47.4003 52.777C47.3678 52.7965 47.3352 52.816 47.3027 52.8356L43.209 47.4852C43.2416 47.4656 43.2741 47.4461 43.3067 47.4266C43.3197 47.4201 43.3392 47.4071 43.3522 47.394Z" fill="#ADADAD"/>
<path d="M43.2091 47.4852L47.3028 52.8356C47.2507 52.8682 47.2052 52.8942 47.1531 52.9202L43.0594 47.5698C43.1115 47.5438 43.1571 47.5178 43.2091 47.4852Z" fill="#A8A8A8"/>
<path d="M43.0595 47.5763L47.1532 52.9267C47.1011 52.9527 47.0556 52.9788 47.0035 53.0048L42.9099 47.6544C42.9619 47.6284 43.014 47.6023 43.0595 47.5763Z" fill="#A3A3A3"/>
<path d="M42.9096 47.6544L47.0032 53.0048C46.9511 53.0309 46.8991 53.0569 46.847 53.0829L42.7534 47.7325C42.8054 47.7065 42.8575 47.6805 42.9096 47.6544Z" fill="#9E9E9E"/>
<path d="M42.7535 47.7325L46.8471 53.083C46.795 53.109 46.7365 53.135 46.6844 53.1546L42.5908 47.8041C42.6428 47.7781 42.7014 47.7586 42.7535 47.7325Z" fill="#999999"/>
<path d="M42.5909 47.8042L46.6846 53.1546C46.626 53.1807 46.5675 53.2002 46.5089 53.2197L42.4152 47.8693C42.4738 47.8498 42.5324 47.8237 42.5909 47.8042Z" fill="#949494"/>
<path d="M42.4155 47.8693L46.5091 53.2197C46.4441 53.2457 46.3725 53.2652 46.3074 53.2848L42.2137 47.9344C42.2788 47.9148 42.3439 47.8953 42.4155 47.8693Z" fill="#8F8F8F"/>
<path d="M42.2133 47.9343L46.307 53.2847C46.2224 53.3108 46.1377 53.3303 46.0531 53.3498L41.9595 47.9994C42.0441 47.9799 42.1287 47.9604 42.2133 47.9343Z" fill="#8A8A8A"/>
<path d="M41.9596 48.0003L46.0532 53.3507C45.9946 53.3638 45.9296 53.3768 45.871 53.3833C45.4024 53.4484 44.9794 53.3898 44.6605 53.1815C44.5498 53.1099 44.4652 53.0253 44.3936 52.9342L40.3 47.5837C40.3716 47.6814 40.4627 47.7595 40.5668 47.8311C40.8857 48.0394 41.3088 48.098 41.7773 48.0329C41.8359 48.0198 41.901 48.0133 41.9596 48.0003Z" fill="#858585"/>
<path d="M44.1842 46.7042L48.2779 52.0546C48.2714 52.0677 48.2583 52.0742 48.2453 52.0872L44.1517 46.7368C44.1647 46.7238 44.1712 46.7172 44.1842 46.7042Z" fill="#D1D1D1"/>
<path d="M44.1517 46.7368L48.2453 52.0872C48.2063 52.1263 48.1672 52.1718 48.1217 52.2109L44.028 46.8605C44.0736 46.8149 44.1126 46.7759 44.1517 46.7368Z" fill="#CCCCCC"/>
<path d="M44.0294 46.861L48.123 52.2114C48.0774 52.2569 48.0254 52.296 47.9798 52.3415L43.8862 46.9911C43.9382 46.9456 43.9838 46.9 44.0294 46.861Z" fill="#C7C7C7"/>
<path d="M43.8854 46.9915L47.9791 52.3419L47.9726 52.3484C47.914 52.4004 47.8684 52.4395 47.8294 52.472L43.7357 47.1216C43.7748 47.0891 43.8203 47.05 43.8789 46.998C43.8854 46.9915 43.8854 46.9915 43.8854 46.9915Z" fill="#C2C2C2"/>
<path d="M43.7354 47.1143L47.8291 52.4647C47.8161 52.4777 47.7966 52.4907 47.7835 52.4972L43.6899 47.1468C43.7029 47.1403 43.7224 47.1273 43.7354 47.1143Z" fill="#BDBDBD"/>
<path d="M43.5805 47.2379L47.6741 52.5883C47.6481 52.6079 47.6221 52.6274 47.596 52.6469L43.5024 47.2965C43.5284 47.277 43.5544 47.2574 43.5805 47.2379Z" fill="#B8B8B8"/>
<path d="M43.5014 47.2982L47.5885 52.6486H47.582L43.4949 47.3047L43.5014 47.2982Z" fill="#B3B3B3"/>
<path d="M43.6903 47.1533L47.7839 52.5037C47.7449 52.5363 47.7123 52.5623 47.6733 52.5884L43.5797 47.2379C43.6187 47.2119 43.6512 47.1794 43.6903 47.1533Z" fill="#BDBDBD"/>
<path d="M60.4872 26.5979C60.9558 26.5328 61.3788 26.5914 61.6977 26.7997C62.5308 27.3334 62.3095 28.6677 61.2031 29.7678L44.1842 46.7107C44.0866 46.8084 43.989 46.906 43.8783 46.9971C43.7937 47.0687 43.7416 47.1143 43.6896 47.1534C43.6505 47.1859 43.618 47.2119 43.5789 47.238C43.5529 47.2575 43.5204 47.2835 43.4943 47.3031C43.4358 47.3486 43.3707 47.3877 43.3056 47.4332C42.7849 47.7652 42.2578 47.967 41.7762 48.0321C41.3076 48.0972 40.8846 48.0386 40.5657 47.8303C40.3314 47.6806 40.1817 47.4593 40.1101 47.2054L36.0815 38.0407C35.691 37.149 36.4525 35.7495 37.7802 34.9034C38.2878 34.5844 38.8084 34.3892 39.2705 34.3241C40.0255 34.2199 40.6503 34.4412 40.8911 34.9945L43.9629 41.9787L58.1898 27.8216C58.8732 27.1381 59.7323 26.702 60.4872 26.5979Z" fill="#FDFDFD"/>
<path d="M69.2808 24.899L73.3744 30.2495C72.3852 32.6383 71.5782 34.8188 70.4588 37.0123C68.9944 39.8828 67.2633 42.6817 65.2197 45.409L61.126 40.0585C63.1696 37.3313 64.9008 34.5324 66.3651 31.6619C67.4845 29.4684 68.2915 27.2879 69.2808 24.899Z" fill="#C5C5C5"/>
<path d="M61.12 40.0585L65.2136 45.4089C64.3546 46.5545 63.4434 47.687 62.4672 48.8066L58.3735 43.4562C59.3498 42.3366 60.2609 41.2041 61.12 40.0585Z" fill="#C0C0C0"/>
<path d="M58.38 43.4563L62.4736 48.8067C61.7577 49.6334 61.0093 50.447 60.2283 51.2541L56.1346 45.9037C56.9156 45.0966 57.6641 44.2829 58.38 43.4563Z" fill="#BCBCBC"/>
<path d="M56.134 45.9102L60.2277 51.2606C59.8176 51.6902 59.3946 52.1132 58.9651 52.5363C58.7308 52.7641 58.503 52.9855 58.2687 53.2133L54.175 47.8629C54.4093 47.6416 54.6436 47.4137 54.8714 47.1859C55.301 46.7563 55.7175 46.3332 56.134 45.9102Z" fill="#B7B7B7"/>
<path d="M54.1685 47.8563L58.2622 53.2067C57.6895 53.747 57.1102 54.2742 56.5245 54.7949L52.4308 49.4445C53.0166 48.9238 53.5958 48.3966 54.1685 47.8563Z" fill="#B3B3B3"/>
<path d="M52.4312 49.438L56.5248 54.7884C55.913 55.3221 55.2948 55.8429 54.6635 56.3571L50.5698 51.0067C51.1946 50.499 51.8194 49.9782 52.4312 49.438Z" fill="#AEAEAE"/>
<path d="M50.5697 51.0067L54.6634 56.3571C53.9735 56.9169 53.2771 57.4636 52.5742 57.9974L48.4806 52.647C49.1835 52.1132 49.8799 51.5665 50.5697 51.0067Z" fill="#A9A9A9"/>
<path d="M48.4746 52.647L52.5682 57.9974C51.7417 58.6222 50.9086 59.2276 50.0561 59.8264L45.9624 54.476C46.815 53.8772 47.6545 53.2718 48.4746 52.647Z" fill="#A5A5A5"/>
<path d="M45.9686 54.4761L50.0622 59.8265C49.5025 60.217 48.9428 60.6076 48.3766 60.9851C48.2529 61.0697 48.1293 61.1478 48.0056 61.2324L43.912 55.882C44.0356 55.8039 44.1593 55.7193 44.283 55.6347C44.8492 55.2506 45.4089 54.8666 45.9686 54.4761Z" fill="#A0A0A0"/>
<path d="M43.9123 55.882L48.006 61.2324C47.7261 61.4146 47.4463 61.5904 47.1599 61.7661L43.0663 56.4157C43.3526 56.24 43.6325 56.0642 43.9123 55.882Z" fill="#9C9C9C"/>
<path d="M43.0655 56.4156L47.1592 61.7661C46.8598 61.9483 46.5539 62.1241 46.2545 62.2933L42.1609 56.9429C42.4603 56.7736 42.7661 56.5979 43.0655 56.4156Z" fill="#979797"/>
<path d="M42.1552 56.9429L46.2488 62.2933C45.9234 62.4755 45.5915 62.6513 45.2661 62.8205L41.1724 57.4701C41.5043 57.3009 41.8298 57.1251 42.1552 56.9429Z" fill="#939393"/>
<path d="M41.1721 57.4636L45.2658 62.814C45.012 62.9442 44.7647 63.0679 44.5108 63.185C44.4978 63.1916 44.4913 63.1981 44.4783 63.1981L40.3846 57.8477C40.3977 57.8411 40.4042 57.8346 40.4172 57.8346C40.671 57.7175 40.9248 57.5938 41.1721 57.4636Z" fill="#8E8E8E"/>
<path d="M40.385 57.8541L44.4787 63.2045C44.4461 63.2176 44.4071 63.2371 44.3745 63.2501L40.2809 57.8997C40.3134 57.8867 40.346 57.8737 40.385 57.8541Z" fill="#898989"/>
<path d="M40.2808 57.8998L44.3744 63.2502C44.3419 63.2632 44.3094 63.2762 44.2768 63.2892L40.1832 57.9388C40.2157 57.9258 40.2482 57.9128 40.2808 57.8998Z" fill="#858585"/>
<path d="M40.1895 57.9388L44.2832 63.2892C44.2506 63.3023 44.2181 63.3088 44.192 63.3218L40.0984 57.9714C40.1244 57.9584 40.157 57.9454 40.1895 57.9388Z" fill="#808080"/>
<path d="M40.0919 57.9648L44.1855 63.3152C44.153 63.3283 44.1139 63.3348 44.0814 63.3413L39.9877 57.9909C40.0203 57.9844 40.0593 57.9779 40.0919 57.9648Z" fill="#7C7C7C"/>
<path d="M39.9876 57.9909L44.0813 63.3413C44.0552 63.3478 44.0357 63.3478 44.0097 63.3543C43.8535 63.3738 43.7168 63.3608 43.5866 63.3022C42.5518 62.8726 41.5431 62.417 40.736 61.7466C39.519 60.7246 38.2955 59.7092 37.3388 58.466L33.2451 53.1156C34.2018 54.3653 35.4189 55.3807 36.6424 56.3962C37.4429 57.0666 38.4582 57.5222 39.493 57.9518C39.6231 58.0039 39.7598 58.0234 39.916 58.0039C39.942 58.0039 39.9681 57.9974 39.9876 57.9909Z" fill="#777777"/>
<path d="M71.0439 20.2451C71.1741 20.4339 70.8617 20.8634 70.738 21.1824C70.2304 22.4907 69.7097 23.799 69.2802 24.899C68.2909 27.2878 67.4839 29.4684 66.3645 31.6619C63.5855 37.0969 59.8628 42.2846 54.8711 47.1794C51.63 50.3623 48.044 53.0896 44.2823 55.6346C43.0392 56.4743 41.7375 57.2098 40.4164 57.8412C40.2342 57.9323 40.0715 57.9844 39.9218 58.0039C39.7656 58.0234 39.6289 58.0104 39.4987 57.9518C38.4639 57.5222 37.4552 57.0666 36.6482 56.3962C35.34 55.3027 34.0254 54.2091 33.0426 52.8292C31.9362 51.2801 31.2268 49.4836 30.6671 47.5895C29.9577 45.1746 29.9968 42.4278 30.2506 39.5964C30.4133 37.7804 30.8233 35.9058 31.396 33.9856C32.2096 31.2518 33.0491 28.5181 33.9668 25.7712C34.0709 25.4718 34.2011 25.3417 34.546 25.244C36.2446 24.7819 37.9433 24.3132 39.6419 23.8316C44.1326 22.5558 48.6167 20.5705 53.0748 18.2338C53.6085 17.9539 54.051 17.7847 54.4545 17.7326C54.8515 17.674 55.216 17.7261 55.5935 17.8758C58.3855 18.9823 61.3858 19.8025 64.8286 20.0238C66.5467 20.1344 68.3495 20.0889 70.1002 20.1475C70.4256 20.1605 70.9072 20.0433 71.0439 20.2451ZM61.2035 29.7613C62.3099 28.6612 62.5312 27.3334 61.6982 26.7932C61.3792 26.5849 60.9497 26.5263 60.4876 26.5914C59.7327 26.6955 58.8736 27.1316 58.1902 27.8086L43.9634 41.9657L40.8915 34.9815C40.6507 34.4347 40.0259 34.2069 39.271 34.3111C38.8024 34.3762 38.2882 34.5714 37.7806 34.8904C36.4529 35.73 35.6915 37.136 36.0819 38.0277L40.1105 47.1924C40.1821 47.4463 40.3318 47.6611 40.5661 47.8173C40.885 48.0256 41.308 48.0841 41.7766 48.0191C42.2582 47.954 42.7854 47.7522 43.28 47.4332C43.3711 47.3747 43.4297 47.3356 43.4948 47.2901C43.5273 47.2705 43.5533 47.2445 43.5794 47.225C43.6184 47.1989 43.651 47.1664 43.69 47.1403C43.7421 47.1013 43.7941 47.0557 43.8397 47.0167C43.9829 46.893 44.087 46.7954 44.1781 46.6977L61.2035 29.7613Z" fill="url(#paint0_linear_3775_8385)"/>
<path d="M87.848 0.15172C92.2931 -0.473145 94.7012 2.33875 93.2303 6.43292L74.3631 59.0063C72.8922 63.1004 68.1022 66.9212 63.6571 67.5461L6.58688 75.5652C2.14179 76.1901 -0.266232 73.3782 1.20462 69.284L20.0718 16.7107C21.5427 12.6165 26.3327 8.7957 30.7778 8.17083L87.848 0.15172ZM70.738 21.1824C70.8617 20.8569 71.1741 20.4338 71.0439 20.2451C70.9072 20.0433 70.4256 20.1604 70.0937 20.1474C68.343 20.0888 66.5468 20.1344 64.8221 20.0238C61.3858 19.8024 58.379 18.9823 55.587 17.8758C55.2095 17.7261 54.8516 17.674 54.4481 17.7326C54.0445 17.7912 53.6085 17.9539 53.0683 18.2338C48.6102 20.5705 44.1261 22.5623 39.6354 23.8315C37.9368 24.3132 36.2317 24.7884 34.5395 25.244C34.1946 25.3351 34.0579 25.4653 33.9603 25.7712C33.0492 28.518 32.2096 31.2583 31.3896 33.9856C30.8168 35.9058 30.4068 37.7869 30.2441 39.5964C29.9968 42.4343 29.9513 45.1746 30.6606 47.5894C31.2204 49.4836 31.9297 51.2801 33.0361 52.8292C34.0189 54.2091 35.3335 55.3026 36.6417 56.3961C37.4422 57.0666 38.4575 57.5222 39.4923 57.9518C39.6224 58.0039 39.7591 58.0234 39.9153 58.0039C40.065 57.9843 40.2277 57.9258 40.4099 57.8411C41.7311 57.2098 43.0392 56.4743 44.2758 55.6346C48.0375 53.0961 51.6235 50.3623 54.8646 47.1794C59.8564 42.2846 63.579 37.0969 66.358 31.6619C67.4839 29.4683 68.291 27.2878 69.2737 24.899C69.7163 23.799 70.2304 22.4907 70.738 21.1824Z" fill="url(#paint1_linear_3775_8385)"/>
<path d="M97.7208 10.1105C97.7208 10.0845 97.7274 10.0585 97.7274 10.0324C97.7274 10.0259 97.7274 10.0259 97.7274 10.0194C97.7274 10.0129 97.7274 9.99988 97.7274 9.99337C97.7404 9.85668 97.7469 9.71999 97.7469 9.58981C97.7469 9.57028 97.7469 9.55076 97.7469 9.53123C97.7469 9.5117 97.7469 9.49869 97.7469 9.48567C97.7469 9.362 97.7404 9.23832 97.7339 9.12116C97.7339 9.11465 97.7339 9.10814 97.7339 9.10814C97.7209 8.99098 97.7078 8.87382 97.6883 8.75666C97.6883 8.74364 97.6883 8.73062 97.6818 8.72411C97.6753 8.69807 97.6688 8.67855 97.6688 8.65251C97.6558 8.5744 97.6363 8.4963 97.6167 8.4247C97.6102 8.40517 97.6102 8.38564 97.6037 8.36612C97.5972 8.34659 97.5907 8.33357 97.5907 8.32055C97.5712 8.24896 97.5451 8.17084 97.5256 8.09925C97.5191 8.07972 97.5126 8.05368 97.5061 8.03416C97.5061 8.02765 97.4996 8.02114 97.4996 8.01463C97.467 7.917 97.428 7.81936 97.3824 7.72823C97.3824 7.72823 97.3824 7.72823 97.3824 7.72172C97.3759 7.71521 97.3694 7.7022 97.3694 7.69569C97.3304 7.61107 97.2913 7.53296 97.2458 7.45485C97.2393 7.44835 97.2392 7.43533 97.2327 7.42882C97.2197 7.40929 97.2067 7.38977 97.1937 7.37024C97.1546 7.31166 97.1156 7.24656 97.0765 7.18798C97.0635 7.17496 97.057 7.15544 97.044 7.14242C97.018 7.10987 96.9919 7.07082 96.9659 7.03828L92.8723 1.68787C92.9113 1.73343 92.9438 1.7855 92.9764 1.83758C93.0154 1.89616 93.0545 1.95474 93.0935 2.01983C93.1131 2.04586 93.1261 2.07841 93.1456 2.10444C93.1912 2.18255 93.2302 2.26066 93.2693 2.34528C93.2758 2.3583 93.2823 2.3648 93.2823 2.37782C93.3278 2.46895 93.3604 2.56658 93.3994 2.66422C93.4124 2.69025 93.4189 2.7228 93.4255 2.74883C93.4515 2.82043 93.471 2.89203 93.4905 2.97014C93.5035 3.0092 93.5101 3.04174 93.5166 3.0808C93.5361 3.1589 93.5491 3.2305 93.5686 3.30861C93.5751 3.34115 93.5816 3.38021 93.5882 3.41276C93.6077 3.52992 93.6207 3.64057 93.6337 3.76424C93.6337 3.77075 93.6337 3.77726 93.6337 3.78377C93.6402 3.90093 93.6467 4.0246 93.6467 4.14827C93.6467 4.18082 93.6467 4.21987 93.6467 4.25242C93.6467 4.3826 93.6402 4.51929 93.6272 4.65598C93.6272 4.66899 93.6272 4.68202 93.6272 4.69503C93.6272 4.72107 93.6207 4.7471 93.6207 4.77314C93.6142 4.85125 93.6012 4.92935 93.5947 5.00746C93.5882 5.04652 93.5816 5.08557 93.5751 5.12463C93.5621 5.18972 93.5556 5.25481 93.5426 5.3199C93.5231 5.41102 93.5036 5.50866 93.4775 5.59979C93.471 5.63233 93.4645 5.67138 93.4515 5.70393C93.4189 5.83411 93.3799 5.96429 93.3409 6.09447C93.3018 6.21163 93.2693 6.32879 93.2237 6.44595L74.3565 59.0193C74.3109 59.1429 74.2654 59.2666 74.2133 59.3903C74.1938 59.4293 74.1808 59.4749 74.1612 59.514C74.1287 59.5986 74.0896 59.6832 74.0506 59.7613C74.0311 59.8134 74.005 59.8589 73.979 59.911C73.9465 59.9826 73.9074 60.0607 73.8684 60.1323C73.8423 60.1844 73.8163 60.2365 73.7838 60.2885C73.7447 60.3601 73.7122 60.4317 73.6731 60.4968C73.6406 60.5489 73.6145 60.601 73.582 60.6595C73.543 60.7246 73.5039 60.7962 73.4649 60.8613C73.4323 60.9134 73.3998 60.972 73.3672 61.0241C73.3282 61.0891 73.2826 61.1542 73.2436 61.2193C73.211 61.2714 73.172 61.3235 73.1329 61.3821C73.0874 61.4471 73.0418 61.5122 72.9963 61.5773C72.9572 61.6294 72.9182 61.6815 72.8791 61.74C72.8336 61.7986 72.7945 61.8572 72.749 61.9158C72.6904 61.9939 72.6318 62.072 72.5667 62.1436C72.5277 62.1957 72.4886 62.2412 72.4496 62.2933C72.3845 62.3779 72.3129 62.456 72.2478 62.5407C72.2153 62.5797 72.1828 62.6188 72.1437 62.6578C71.994 62.827 71.8378 62.9963 71.6816 63.1655C71.6491 63.1981 71.6165 63.2306 71.584 63.2697C71.4408 63.4129 71.2976 63.5561 71.1545 63.6927C71.1414 63.7058 71.1284 63.7188 71.1089 63.7318C70.9852 63.849 70.8616 63.9596 70.7314 64.0768C70.6859 64.1158 70.6403 64.1549 70.6013 64.1939C70.5036 64.2786 70.4125 64.3567 70.3149 64.4348C70.2693 64.4738 70.2238 64.5064 70.1782 64.5454C70.0741 64.6301 69.9635 64.7147 69.8528 64.7993C69.8203 64.8188 69.7943 64.8448 69.7617 64.8709C69.625 64.975 69.4884 65.0727 69.3452 65.1768C69.3061 65.2028 69.2736 65.2289 69.2346 65.2549C69.1304 65.3265 69.0263 65.3981 68.9221 65.4632C68.8701 65.4957 68.818 65.5283 68.766 65.5608C68.6748 65.6194 68.5837 65.678 68.4926 65.7366C68.434 65.7691 68.382 65.8017 68.3234 65.8342C68.2323 65.8928 68.1347 65.9449 68.0435 65.9969C67.9915 66.0295 67.9329 66.062 67.8808 66.0881C67.7767 66.1467 67.6661 66.2052 67.5554 66.2573C67.5099 66.2768 67.4708 66.3029 67.4253 66.3224C67.2691 66.4005 67.1129 66.4786 66.9632 66.5502C66.9372 66.5632 66.9111 66.5762 66.8786 66.5893C66.7419 66.6544 66.6052 66.7129 66.4686 66.7715C66.423 66.791 66.3709 66.8106 66.3254 66.8301C66.1757 66.8887 66.026 66.9473 65.8763 66.9993C65.8438 67.0123 65.8112 67.0254 65.7787 67.0319C65.577 67.1035 65.3817 67.1621 65.1799 67.2271C65.1214 67.2467 65.0693 67.2597 65.0107 67.2792C64.9391 67.2987 64.8676 67.3183 64.796 67.3378C64.7244 67.3573 64.6593 67.3703 64.5877 67.3899C64.5161 67.4094 64.4445 67.4224 64.3729 67.4354C64.3144 67.4484 64.2558 67.4615 64.1972 67.468C64.0085 67.507 63.8262 67.5396 63.644 67.5656L6.57377 75.5847C4.25686 75.9102 2.48663 75.2983 1.53644 74.0616L5.63008 79.412C6.58028 80.6552 8.344 81.2606 10.6674 80.9351L67.7377 72.916C67.9199 72.89 68.1086 72.8574 68.2909 72.8184C68.3169 72.8119 68.3364 72.8119 68.3624 72.8054C68.395 72.7989 68.434 72.7924 68.4666 72.7793C68.5382 72.7663 68.6098 72.7468 68.6814 72.7338C68.7529 72.7142 68.818 72.7012 68.8896 72.6817C68.9612 72.6622 69.0328 72.6426 69.1044 72.6231C69.1369 72.6101 69.176 72.6036 69.2085 72.5971C69.228 72.5906 69.2476 72.5841 69.2736 72.5776C69.4753 72.519 69.6706 72.4539 69.8723 72.3823C69.8789 72.3823 69.8854 72.3758 69.8984 72.3758C69.9244 72.3693 69.9439 72.3562 69.97 72.3497C70.1197 72.2977 70.2693 72.2391 70.419 72.1805C70.4451 72.1675 70.4711 72.161 70.4971 72.148C70.5167 72.1414 70.5427 72.1284 70.5622 72.1219C70.6989 72.0633 70.8356 72.0048 70.9722 71.9397C70.9918 71.9267 71.0178 71.9201 71.0373 71.9136C71.0438 71.9136 71.0503 71.9071 71.0503 71.9071C71.2065 71.8355 71.3627 71.7574 71.5124 71.6793C71.5189 71.6728 71.5319 71.6728 71.5384 71.6663C71.571 71.6468 71.61 71.6272 71.6426 71.6142C71.7532 71.5556 71.8573 71.5036 71.9615 71.445C71.981 71.432 72.0005 71.4255 72.0266 71.4124C72.0591 71.3929 72.0916 71.3734 72.1307 71.3539C72.2218 71.3018 72.3194 71.2432 72.4105 71.1911C72.4431 71.1716 72.4691 71.1586 72.5016 71.1391C72.5277 71.126 72.5537 71.1065 72.5798 71.0935C72.6709 71.0349 72.762 70.9763 72.8531 70.9178C72.8856 70.8917 72.9247 70.8722 72.9637 70.8527C72.9833 70.8396 72.9963 70.8331 73.0093 70.8201C73.1134 70.7485 73.2176 70.6834 73.3217 70.6118C73.3542 70.5923 73.3868 70.5728 73.4128 70.5467C73.4193 70.5402 73.4258 70.5402 73.4323 70.5337C73.5755 70.4361 73.7122 70.3319 73.8488 70.2278C73.8554 70.2213 73.8619 70.2213 73.8619 70.2148C73.8879 70.1953 73.9139 70.1757 73.9335 70.1562C74.0441 70.0716 74.1482 69.987 74.2589 69.9024C74.2784 69.8893 74.2914 69.8763 74.3109 69.8633C74.337 69.8373 74.3695 69.8177 74.3955 69.7917C74.4932 69.7136 74.5843 69.629 74.6819 69.5509C74.7079 69.5313 74.734 69.5053 74.76 69.4858C74.7795 69.4728 74.799 69.4532 74.812 69.4337C74.9422 69.3231 75.0659 69.2059 75.1895 69.0887C75.2025 69.0757 75.2156 69.0692 75.2286 69.0562L75.2351 69.0497C75.3848 68.913 75.5214 68.7698 75.6646 68.6266C75.6842 68.6071 75.6972 68.594 75.7167 68.5745C75.7362 68.555 75.7492 68.542 75.7623 68.5224C75.9184 68.3597 76.0746 68.1905 76.2243 68.0147C76.2308 68.0082 76.2373 68.0017 76.2439 67.9952C76.2699 67.9627 76.3024 67.9301 76.3285 67.8911C76.4 67.813 76.4651 67.7283 76.5302 67.6437C76.5693 67.5917 76.6083 67.5461 76.6474 67.494C76.7059 67.4159 76.771 67.3378 76.8296 67.2662C76.8491 67.2467 76.8621 67.2206 76.8817 67.2011C76.9077 67.162 76.9337 67.123 76.9598 67.0905C76.9988 67.0384 77.0379 66.9863 77.0769 66.9277C77.1225 66.8626 77.168 66.7975 77.2136 66.7325C77.2526 66.6804 77.2852 66.6283 77.3242 66.5697C77.3698 66.5046 77.4088 66.4396 77.4479 66.3745C77.4804 66.3224 77.5129 66.2703 77.5455 66.2117C77.5845 66.1467 77.6236 66.0751 77.6626 66.01C77.6952 65.9579 77.7277 65.9058 77.7538 65.8472C77.7928 65.7756 77.8318 65.7105 77.8644 65.6389C77.8904 65.5869 77.923 65.5348 77.949 65.4827C77.9881 65.4111 78.0206 65.333 78.0596 65.2614C78.0857 65.2093 78.1052 65.1638 78.1312 65.1117C78.1703 65.0271 78.2028 64.949 78.2419 64.8644C78.2614 64.8253 78.2809 64.7798 78.2939 64.7407C78.346 64.617 78.3916 64.4934 78.4371 64.3697L97.3043 11.7964C97.3434 11.6857 97.3824 11.5686 97.415 11.4579C97.415 11.4514 97.415 11.4514 97.415 11.4449C97.454 11.3147 97.4931 11.1845 97.5256 11.0543C97.5321 11.0218 97.5386 10.9827 97.5516 10.9502C97.5712 10.8591 97.5972 10.7614 97.6102 10.6703C97.6102 10.6573 97.6167 10.6378 97.6232 10.6247C97.6297 10.5727 97.6428 10.5271 97.6493 10.475C97.6558 10.436 97.6623 10.3969 97.6688 10.3579C97.7078 10.2667 97.7143 10.1886 97.7208 10.1105Z" fill="url(#paint2_linear_3775_8385)"/>
<defs>
<linearGradient id="paint0_linear_3775_8385" x1="25.6686" y1="51.5795" x2="68.8178" y2="17.0646" gradientUnits="userSpaceOnUse">
<stop stop-color="#09453D"/>
<stop offset="0.3367" stop-color="#297C63"/>
<stop offset="0.6283" stop-color="#41A37E"/>
<stop offset="0.8589" stop-color="#50BC8F"/>
<stop offset="1" stop-color="#55C595"/>
</linearGradient>
<linearGradient id="paint1_linear_3775_8385" x1="-10.0722" y1="81.8078" x2="102.209" y2="-4.29147" gradientUnits="userSpaceOnUse">
<stop stop-color="#1E1F28"/>
<stop offset="0.5019" stop-color="#40424C"/>
<stop offset="1" stop-color="#5E616B"/>
</linearGradient>
<linearGradient id="paint2_linear_3775_8385" x1="1.55883" y1="41.3422" x2="97.7569" y2="41.3422" gradientUnits="userSpaceOnUse">
<stop/>
<stop offset="0.0949" stop-color="#070709"/>
<stop offset="0.4665" stop-color="#1E1F28"/>
<stop offset="0.775" stop-color="#3F4047"/>
<stop offset="1" stop-color="#525359"/>
</linearGradient>
</defs>
</svg>
