<svg width="231" height="249" viewBox="0 0 231 249" fill="none" xmlns="http://www.w3.org/2000/svg">
<path d="M100.043 155.542L92.1289 164.921L45.3416 220.398L43.2069 222.923C42.9791 223.164 42.7513 223.398 42.517 223.626C42.5105 223.633 42.4975 223.646 42.491 223.652C42.2632 223.874 42.0354 224.095 41.8011 224.31C41.7816 224.329 41.7621 224.342 41.7426 224.362C41.5213 224.564 41.3065 224.752 41.0852 224.941C41.0592 224.967 41.0267 224.987 41.0006 225.013C40.7793 225.195 40.5581 225.377 40.3368 225.553C40.3108 225.572 40.2847 225.592 40.2587 225.612C40.0374 225.787 39.8161 225.95 39.5884 226.113C39.5428 226.145 39.4972 226.178 39.4582 226.21C39.2304 226.373 39.0026 226.529 38.7748 226.679C38.7553 226.692 38.7293 226.705 38.7097 226.725C38.4755 226.881 38.2346 227.03 37.9938 227.174C37.9808 227.18 37.9613 227.193 37.9483 227.2C37.6945 227.349 37.4406 227.499 37.1803 227.636C36.4644 228.02 35.7355 228.358 34.9936 228.638C34.2582 228.918 33.5162 229.146 32.7613 229.309C32.0128 229.478 31.2579 229.589 30.5029 229.634C29.748 229.686 28.993 229.673 28.2381 229.602C28.134 229.589 28.0298 229.582 27.9257 229.569C27.8216 229.556 27.7174 229.543 27.6198 229.53C27.5157 229.517 27.418 229.497 27.3139 229.484C27.2098 229.465 27.1122 229.452 27.008 229.432L42.8945 232.472C42.9921 232.492 43.0963 232.511 43.2004 232.524C43.3045 232.544 43.4021 232.557 43.5063 232.57C43.6104 232.583 43.7145 232.596 43.8122 232.609C43.9163 232.622 44.0204 232.635 44.1246 232.641C44.8795 232.719 45.6344 232.726 46.3894 232.68C47.1443 232.635 47.8993 232.524 48.6412 232.361C49.3897 232.199 50.1316 231.977 50.867 231.704C51.6025 231.431 52.3314 231.099 53.0473 230.721C53.1449 230.669 53.2425 230.617 53.3402 230.565C53.4378 230.513 53.5354 230.454 53.633 230.402C53.6916 230.37 53.7567 230.331 53.8152 230.298C53.8283 230.291 53.8413 230.278 53.8608 230.272C53.8803 230.259 53.9064 230.246 53.9259 230.233C54.0235 230.174 54.1211 230.116 54.2122 230.057C54.3359 229.986 54.453 229.907 54.5767 229.829C54.5897 229.816 54.6092 229.81 54.6288 229.797C54.6353 229.79 54.6418 229.79 54.6483 229.784C54.6613 229.777 54.6678 229.771 54.6808 229.764C54.8305 229.667 54.9867 229.562 55.1364 229.458C55.2015 229.413 55.2666 229.367 55.3251 229.322C55.3707 229.289 55.4098 229.263 55.4553 229.231C55.5009 229.198 55.5399 229.172 55.5855 229.139C55.7352 229.029 55.8848 228.918 56.0345 228.807C56.0671 228.788 56.0931 228.762 56.1257 228.736C56.1387 228.729 56.1452 228.723 56.1582 228.71C56.1712 228.697 56.1842 228.684 56.2037 228.677C56.2688 228.625 56.3274 228.58 56.3925 228.528C56.5096 228.436 56.6268 228.339 56.7439 228.241C56.783 228.209 56.8285 228.17 56.8676 228.137C56.8936 228.117 56.9196 228.091 56.9522 228.072C56.9977 228.033 57.0498 227.994 57.0954 227.948C57.2125 227.851 57.3232 227.746 57.4403 227.649C57.4989 227.597 57.5509 227.545 57.6095 227.499C57.6225 227.493 57.629 227.48 57.642 227.473C57.6486 227.467 57.6551 227.46 57.6681 227.454C57.6941 227.434 57.7201 227.408 57.7397 227.388C57.8373 227.297 57.9349 227.206 58.0391 227.115C58.1367 227.024 58.2343 226.926 58.3319 226.835C58.3384 226.829 58.3449 226.822 58.3514 226.816C58.3579 226.809 58.3645 226.803 58.3775 226.79C58.4621 226.712 58.5402 226.627 58.6248 226.549C58.6638 226.51 58.6964 226.477 58.7354 226.438C58.7745 226.399 58.807 226.36 58.8461 226.327C58.8851 226.288 58.9176 226.249 58.9567 226.217C58.9957 226.178 59.0283 226.139 59.0673 226.1L61.189 223.613L107.69 169.029L115.552 159.805L100.043 155.542Z" fill="url(#paint0_linear_3775_8378)"/>
<path d="M122.32 0.724998C125.249 0.438601 128.067 0.562271 130.735 1.06997C133.417 1.57768 135.948 2.4629 138.311 3.69962C140.68 4.94284 142.873 6.53104 144.865 8.43167C146.863 10.3453 148.652 12.5649 150.208 15.0709L151.301 16.9324L179.833 65.711L203.718 106.549L204.798 108.404C202.918 105.963 200.835 103.782 198.577 101.882C196.331 99.9875 193.91 98.3798 191.333 97.0845C188.775 95.7957 186.061 94.8128 183.23 94.1684C180.406 93.5305 177.464 93.2311 174.412 93.2897C171.385 93.3548 168.392 93.7714 165.463 94.5199C162.541 95.262 159.677 96.3229 156.898 97.6638C154.126 99.0046 151.444 100.632 148.867 102.513C146.296 104.388 143.836 106.51 141.506 108.859C141.077 109.295 140.647 109.731 140.224 110.181C139.801 110.63 139.385 111.085 138.975 111.548C138.565 112.01 138.155 112.485 137.758 112.96C137.354 113.435 136.957 113.923 136.567 114.418L106.33 148.467L100.043 155.542L92.1288 164.921L45.3415 220.398L43.2068 222.923C42.7382 223.418 42.2631 223.887 41.7815 224.329C41.2934 224.772 40.7988 225.195 40.2976 225.592C39.7965 225.989 39.2823 226.354 38.7617 226.692C38.241 227.03 37.7139 227.343 37.1867 227.629C36.4708 228.013 35.7419 228.352 35 228.632C34.2645 228.912 33.5226 229.139 32.7677 229.302C32.0192 229.471 31.2643 229.582 30.5093 229.628C29.7544 229.68 28.9994 229.667 28.2445 229.595C26.8582 229.458 25.5436 229.12 24.3135 228.599C23.0835 228.078 21.925 227.375 20.8642 226.51C19.8034 225.651 18.8271 224.629 17.955 223.47C17.0829 222.318 16.2889 221.107 15.6251 219.701C15.5926 219.643 15.5535 219.558 15.521 219.493C15.4884 219.428 15.4364 219.311 15.4104 219.246C15.3843 219.181 15.3518 219.129 15.3257 219.063C15.2997 218.998 15.2607 218.94 15.2346 218.875L8.91518 205.479C8.64184 204.971 8.29038 204.099 8.03006 203.572C7.76973 203.045 7.53545 202.426 7.29465 201.893C7.04734 201.352 6.83256 200.903 6.59827 200.357C6.36397 199.803 6.09714 199.237 5.88237 198.677C4.63279 195.462 3.79975 191.999 2.99273 188.425C2.18572 184.865 1.60649 181.142 1.26807 177.282C0.929642 173.435 0.832018 169.458 0.981706 165.377C1.1379 161.302 1.54141 157.124 2.22477 152.873C2.94718 148.356 3.93642 143.956 5.17298 139.699C6.40953 135.442 7.88689 131.328 9.57251 127.39C11.2646 123.452 13.165 119.684 15.2541 116.123C17.3433 112.556 19.6211 109.204 22.0552 106.086C22.1463 105.969 22.2374 105.859 22.3285 105.741C22.4196 105.624 22.5108 105.514 22.6019 105.396C22.693 105.279 22.7841 105.169 22.8752 105.052C22.9663 104.934 23.0575 104.824 23.1551 104.707L90.4887 20.6361L91.6732 19.152C93.7884 16.581 96.0467 14.2182 98.4222 12.0962C100.804 9.97431 103.303 8.09971 105.894 6.505C108.49 4.91029 111.172 3.60198 113.912 2.62563C116.678 1.64928 119.489 0.998376 122.32 0.724998Z" fill="url(#paint1_linear_3775_8378)"/>
<path d="M230.864 154.585C230.857 153.765 230.831 152.951 230.805 152.138C230.798 151.982 230.792 151.832 230.785 151.676C230.779 151.48 230.772 151.285 230.759 151.09C230.727 150.478 230.694 149.866 230.649 149.254C230.642 149.137 230.629 149.013 230.623 148.896C230.564 148.07 230.493 147.243 230.415 146.423C230.415 146.41 230.415 146.397 230.415 146.384C230.415 146.377 230.415 146.377 230.415 146.371C230.362 145.844 230.304 145.323 230.245 144.802C230.226 144.633 230.2 144.477 230.18 144.307C230.109 143.702 230.024 143.103 229.939 142.504C229.887 142.14 229.835 141.782 229.783 141.417C229.679 140.76 229.562 140.103 229.445 139.452C229.399 139.211 229.367 138.97 229.321 138.736C229.315 138.684 229.302 138.638 229.289 138.592C229.113 137.675 228.924 136.757 228.722 135.859C228.722 135.846 228.716 135.839 228.716 135.826C228.69 135.715 228.664 135.611 228.638 135.507C228.456 134.707 228.26 133.906 228.052 133.118C228.033 133.053 228.019 132.988 228.006 132.923C227.824 132.246 227.636 131.569 227.44 130.899C227.44 130.892 227.44 130.892 227.44 130.886C227.434 130.853 227.421 130.827 227.414 130.795C227.226 130.163 227.037 129.532 226.835 128.907C226.809 128.822 226.776 128.744 226.75 128.66C226.672 128.425 226.594 128.191 226.516 127.957C226.405 127.625 226.295 127.286 226.178 126.961C226.119 126.792 226.054 126.629 225.995 126.466C225.95 126.349 225.911 126.225 225.872 126.108C225.82 125.965 225.761 125.828 225.709 125.685C225.631 125.477 225.553 125.262 225.475 125.054C225.332 124.689 225.188 124.325 225.045 123.967C225.019 123.902 224.993 123.83 224.967 123.765C224.954 123.732 224.941 123.706 224.935 123.674C224.746 123.218 224.557 122.763 224.362 122.313C224.284 122.138 224.206 121.962 224.128 121.793C224.069 121.656 224.01 121.526 223.952 121.389C223.893 121.252 223.835 121.116 223.77 120.979C223.568 120.536 223.36 120.1 223.151 119.664C223.112 119.586 223.08 119.515 223.041 119.436C223.028 119.41 223.015 119.378 223.002 119.352C222.956 119.254 222.904 119.157 222.859 119.059C222.761 118.857 222.657 118.655 222.559 118.46C222.462 118.258 222.357 118.063 222.253 117.868C222.149 117.672 222.045 117.471 221.941 117.275L219.806 113.689L218.719 111.86L194.776 71.4975L166.153 23.2332L165.059 21.3911C165.014 21.3195 164.968 21.2414 164.923 21.1698C164.877 21.0982 164.832 21.0266 164.779 20.9485C164.734 20.8769 164.682 20.8053 164.636 20.7337C164.591 20.6621 164.539 20.5905 164.493 20.5189C164.467 20.4798 164.441 20.4473 164.415 20.4082C164.389 20.3692 164.363 20.3301 164.337 20.2911C164.272 20.2 164.207 20.1023 164.148 20.0112C164.031 19.842 163.914 19.6792 163.797 19.51C163.771 19.4775 163.745 19.4384 163.719 19.4059C163.693 19.3668 163.667 19.3343 163.641 19.2952C163.575 19.2041 163.504 19.1064 163.439 19.0153C163.315 18.8526 163.198 18.6899 163.074 18.5336C163.048 18.5011 163.022 18.4686 162.996 18.436C162.97 18.4035 162.944 18.3709 162.925 18.3449C162.86 18.2603 162.794 18.1757 162.723 18.091C162.606 17.9413 162.489 17.7981 162.365 17.6549C162.326 17.6094 162.287 17.5638 162.248 17.5182C162.235 17.5052 162.222 17.4857 162.209 17.4727C162.196 17.4532 162.176 17.4401 162.163 17.4206C162.111 17.3555 162.053 17.2904 162 17.2318C161.877 17.0886 161.76 16.952 161.636 16.8088C161.584 16.7502 161.525 16.6916 161.473 16.633C161.447 16.6005 161.421 16.5744 161.395 16.5419C161.356 16.4963 161.317 16.4573 161.278 16.4117C161.161 16.2815 161.037 16.1514 160.914 16.0212C160.829 15.9366 160.751 15.8519 160.666 15.7673C160.647 15.7478 160.621 15.7218 160.601 15.7022C160.582 15.6827 160.562 15.6632 160.543 15.6436C160.419 15.52 160.295 15.3898 160.172 15.2661C160.048 15.149 159.931 15.0253 159.807 14.9081C159.807 14.9081 159.807 14.9081 159.801 14.9016L159.794 14.8951C159.677 14.7779 159.553 14.6673 159.43 14.5566C159.306 14.4395 159.182 14.3288 159.052 14.2117C159.026 14.1856 159 14.1661 158.974 14.1401C158.961 14.1336 158.955 14.1205 158.942 14.114C158.929 14.101 158.909 14.088 158.896 14.075C158.818 14.0099 158.746 13.9383 158.668 13.8732C158.545 13.7625 158.421 13.6584 158.291 13.5543C158.232 13.5022 158.167 13.4501 158.109 13.4045C158.083 13.385 158.057 13.359 158.03 13.3395C157.991 13.3069 157.952 13.2744 157.913 13.2418C157.783 13.1377 157.66 13.0335 157.529 12.9359C157.419 12.8513 157.302 12.7601 157.191 12.6755C157.184 12.669 157.171 12.6625 157.165 12.656C157.158 12.6495 157.152 12.643 157.145 12.6365C157.015 12.5388 156.885 12.4412 156.755 12.3501C156.625 12.2524 156.495 12.1613 156.364 12.0702C156.338 12.0507 156.312 12.0311 156.286 12.0181C156.26 12.0051 156.241 11.9856 156.215 11.9726C156.13 11.914 156.052 11.8554 155.967 11.8033C155.837 11.7122 155.701 11.6211 155.564 11.5365C155.492 11.4909 155.427 11.4453 155.356 11.4063C155.343 11.3998 155.323 11.3867 155.31 11.3737C155.297 11.3672 155.284 11.3607 155.271 11.3477C155.232 11.3217 155.193 11.2956 155.154 11.2761C155.017 11.1915 154.88 11.1069 154.744 11.0222C154.614 10.9441 154.484 10.866 154.347 10.7879L154.34 10.7814C154.34 10.7814 154.334 10.7814 154.334 10.7749C154.197 10.6968 154.06 10.6122 153.917 10.5341C153.781 10.456 153.637 10.3779 153.494 10.2997C153.462 10.2802 153.429 10.2607 153.39 10.2477C153.364 10.2347 153.338 10.2216 153.306 10.2021C153.227 10.1565 153.143 10.1175 153.065 10.0719C152.922 10.0003 152.778 9.92873 152.635 9.85713C152.557 9.81808 152.479 9.77902 152.394 9.73997C152.368 9.72695 152.342 9.71393 152.31 9.70091C152.271 9.68139 152.238 9.66186 152.199 9.64884C152.128 9.6163 152.056 9.57724 151.978 9.5447C151.906 9.51215 151.835 9.47961 151.757 9.44706C151.685 9.41452 151.613 9.38198 151.535 9.34943C151.464 9.31688 151.386 9.28434 151.314 9.25179C146.374 7.11033 141.428 4.96886 136.488 2.82739C136.82 2.97059 137.152 3.1203 137.478 3.27652C137.504 3.28953 137.536 3.30255 137.562 3.31557C137.868 3.46528 138.174 3.62149 138.473 3.77771C138.499 3.79073 138.525 3.80374 138.551 3.82327C138.87 3.99251 139.183 4.16825 139.495 4.35701C139.502 4.35701 139.502 4.36352 139.508 4.36352C139.814 4.54577 140.12 4.73454 140.426 4.92981C140.452 4.94933 140.478 4.96235 140.51 4.98188C140.797 5.17064 141.083 5.3594 141.363 5.55467C141.389 5.5742 141.409 5.58722 141.435 5.60675C141.734 5.81503 142.027 6.02983 142.313 6.25114C142.326 6.25765 142.333 6.26416 142.346 6.27717C142.626 6.49197 142.905 6.71328 143.185 6.94109C143.211 6.96062 143.237 6.98665 143.263 7.00618C143.53 7.22749 143.791 7.4553 144.051 7.68312C144.077 7.70265 144.096 7.72217 144.122 7.74821C144.396 7.99555 144.669 8.24941 144.943 8.50977L144.949 8.51627C145.222 8.77663 145.489 9.0435 145.75 9.31688C145.769 9.33641 145.789 9.36245 145.815 9.38197C146.062 9.63582 146.303 9.89619 146.537 10.1631C146.563 10.1956 146.589 10.2216 146.615 10.2542C146.849 10.5145 147.077 10.7814 147.305 11.0548C147.331 11.0873 147.364 11.1199 147.39 11.1524C147.617 11.4258 147.839 11.7057 148.06 11.9921C148.086 12.0246 148.105 12.0507 148.132 12.0832C148.353 12.3696 148.568 12.656 148.782 12.9554C148.808 12.9945 148.834 13.027 148.86 13.0661C149.069 13.359 149.277 13.6584 149.479 13.9578C149.505 13.9969 149.531 14.0359 149.557 14.075C149.772 14.4004 149.986 14.7324 150.195 15.0643L151.288 16.9259L179.82 65.7045L203.705 106.542L204.785 108.397L206.913 112.029C207.278 112.719 207.623 113.422 207.968 114.138C207.981 114.164 207.994 114.197 208.007 114.223C208.319 114.874 208.619 115.538 208.911 116.201C208.97 116.338 209.029 116.475 209.087 116.605C209.374 117.262 209.653 117.933 209.92 118.603C209.946 118.668 209.972 118.74 209.998 118.805C210.226 119.378 210.441 119.964 210.656 120.549C210.753 120.81 210.851 121.077 210.942 121.344C211.118 121.845 211.293 122.352 211.456 122.86C211.534 123.094 211.612 123.335 211.69 123.57C211.918 124.286 212.14 125.008 212.354 125.731C212.361 125.763 212.374 125.789 212.38 125.822C212.595 126.564 212.797 127.319 212.992 128.08C213.2 128.881 213.396 129.695 213.578 130.515C213.604 130.619 213.63 130.723 213.649 130.827C213.851 131.751 214.04 132.689 214.216 133.633C214.268 133.919 214.313 134.218 214.365 134.505C214.482 135.162 214.593 135.826 214.697 136.497C214.756 136.861 214.801 137.232 214.853 137.597C214.938 138.202 215.016 138.807 215.094 139.419C215.179 140.116 215.257 140.812 215.329 141.515C215.329 141.535 215.329 141.548 215.335 141.567C215.413 142.394 215.478 143.233 215.537 144.073C215.543 144.197 215.556 144.314 215.563 144.438C215.615 145.251 215.654 146.071 215.686 146.891C215.693 147.048 215.7 147.204 215.706 147.36C215.732 148.18 215.752 149.013 215.758 149.84C215.758 149.97 215.758 150.1 215.758 150.231C215.765 151.103 215.758 151.988 215.739 152.867C215.719 153.83 215.686 154.8 215.634 155.776C215.628 155.841 215.628 155.913 215.621 155.978C215.582 156.798 215.524 157.618 215.465 158.445C215.446 158.712 215.42 158.985 215.4 159.252C215.342 159.923 215.283 160.593 215.211 161.27C215.185 161.524 215.159 161.778 215.133 162.031C215.029 162.949 214.919 163.873 214.795 164.804C214.717 165.39 214.632 165.976 214.541 166.555C214.515 166.744 214.482 166.933 214.45 167.121C214.385 167.512 214.326 167.903 214.261 168.293C214.222 168.521 214.183 168.749 214.144 168.977C214.079 169.328 214.02 169.68 213.955 170.031C213.91 170.272 213.864 170.506 213.819 170.747C213.747 171.098 213.682 171.456 213.61 171.808C213.571 171.99 213.532 172.172 213.5 172.355C213.415 172.758 213.324 173.168 213.239 173.572C213.207 173.715 213.181 173.852 213.148 173.995C213.025 174.535 212.901 175.069 212.771 175.603C212.745 175.713 212.712 175.831 212.686 175.941C212.582 176.377 212.471 176.807 212.361 177.237C212.322 177.38 212.283 177.523 212.25 177.666C212.133 178.102 212.016 178.538 211.899 178.974C211.873 179.066 211.847 179.163 211.821 179.254C211.677 179.769 211.528 180.283 211.378 180.79C211.339 180.921 211.3 181.051 211.261 181.174C211.131 181.598 211.007 182.021 210.87 182.444C210.838 182.541 210.805 182.645 210.779 182.743C210.623 183.244 210.46 183.739 210.298 184.234C210.259 184.344 210.226 184.455 210.187 184.566C210.037 185.002 209.888 185.438 209.738 185.874C209.712 185.959 209.679 186.043 209.653 186.121C209.478 186.609 209.302 187.098 209.126 187.586C209.087 187.696 209.048 187.801 209.009 187.905C208.827 188.399 208.638 188.894 208.449 189.382C208.443 189.395 208.436 189.415 208.43 189.428C208.241 189.91 208.046 190.391 207.851 190.873C207.812 190.971 207.773 191.062 207.734 191.153C207.538 191.628 207.343 192.097 207.141 192.565C207.115 192.624 207.096 192.676 207.07 192.734C206.627 193.763 206.165 194.785 205.696 195.794C205.677 195.839 205.657 195.878 205.638 195.924C205.15 196.952 204.655 197.974 204.134 198.983C204.134 198.99 204.128 198.99 204.128 198.996C203.614 199.999 203.087 200.994 202.54 201.971C202.514 202.01 202.494 202.055 202.468 202.094C201.935 203.058 201.382 204.008 200.822 204.945C200.809 204.971 200.789 204.997 200.776 205.023C200.204 205.974 199.624 206.911 199.026 207.829C199.006 207.855 198.993 207.881 198.973 207.907C198.388 208.812 197.789 209.703 197.177 210.576C197.151 210.615 197.119 210.66 197.093 210.699C196.481 211.572 195.863 212.431 195.225 213.277C195.205 213.303 195.186 213.336 195.16 213.362C194.509 214.227 193.845 215.08 193.168 215.92C192.791 216.388 192.413 216.85 192.029 217.313C191.997 217.352 191.964 217.391 191.932 217.423C191.58 217.84 191.229 218.25 190.871 218.66C190.812 218.731 190.747 218.797 190.689 218.868C190.337 219.272 189.979 219.669 189.621 220.059C189.569 220.118 189.517 220.176 189.459 220.235C189.081 220.645 188.697 221.055 188.307 221.459L176.943 234.386L174.555 237.113C174.223 237.451 173.884 237.783 173.539 238.102C173.533 238.109 173.533 238.109 173.526 238.115C173.188 238.434 172.843 238.74 172.492 239.04C172.485 239.04 172.485 239.046 172.479 239.046C172.14 239.333 171.795 239.612 171.444 239.879C171.418 239.899 171.392 239.918 171.366 239.938C171.021 240.205 170.676 240.459 170.324 240.706C170.298 240.725 170.272 240.745 170.246 240.758C169.901 240.999 169.556 241.227 169.205 241.448C169.179 241.467 169.146 241.48 169.12 241.5C168.775 241.715 168.424 241.923 168.066 242.125C168.021 242.151 167.975 242.177 167.929 242.203C167.617 242.372 167.305 242.535 166.992 242.691C166.927 242.724 166.856 242.756 166.79 242.789C166.446 242.952 166.107 243.108 165.756 243.257C165.684 243.29 165.613 243.316 165.541 243.349C165.216 243.485 164.89 243.609 164.565 243.726C164.526 243.739 164.487 243.759 164.448 243.772C164.096 243.895 163.738 244.013 163.38 244.117C163.302 244.143 163.218 244.162 163.139 244.188C162.781 244.292 162.417 244.384 162.053 244.468C162.02 244.475 161.994 244.481 161.961 244.488C161.616 244.566 161.272 244.631 160.927 244.689C160.849 244.702 160.77 244.715 160.692 244.729C160.334 244.787 159.97 244.833 159.605 244.872C159.54 244.878 159.469 244.885 159.404 244.891C159.072 244.924 158.74 244.943 158.408 244.956C158.349 244.956 158.297 244.963 158.239 244.963C157.874 244.976 157.51 244.969 157.139 244.963C157.054 244.963 156.976 244.956 156.892 244.956C156.514 244.943 156.143 244.917 155.766 244.878C155.609 244.865 155.46 244.846 155.31 244.826C155.16 244.807 155.004 244.787 154.854 244.761C154.705 244.742 154.555 244.715 154.405 244.689C154.256 244.663 154.106 244.637 153.956 244.605L169.648 247.749C169.797 247.781 169.947 247.807 170.097 247.833C170.246 247.859 170.396 247.885 170.546 247.905C170.695 247.924 170.845 247.95 171.001 247.97C171.151 247.99 171.307 248.009 171.457 248.022C171.834 248.061 172.205 248.081 172.576 248.1C172.661 248.107 172.739 248.107 172.824 248.107C173.188 248.12 173.552 248.12 173.917 248.107C173.976 248.107 174.034 248.1 174.086 248.1C174.262 248.094 174.438 248.087 174.613 248.081C174.77 248.068 174.919 248.055 175.075 248.042C175.14 248.035 175.212 248.029 175.277 248.022C175.635 247.99 176 247.944 176.358 247.885C176.39 247.879 176.423 247.879 176.449 247.872C176.494 247.866 176.54 247.853 176.585 247.846C176.93 247.788 177.269 247.729 177.614 247.651C177.646 247.645 177.672 247.638 177.705 247.632C177.718 247.632 177.724 247.625 177.737 247.625C178.089 247.547 178.434 247.456 178.785 247.358C178.863 247.339 178.948 247.313 179.026 247.287C179.384 247.182 179.735 247.072 180.087 246.948C180.126 246.935 180.165 246.922 180.204 246.903C180.399 246.831 180.601 246.759 180.796 246.688C180.926 246.636 181.05 246.584 181.18 246.531C181.226 246.512 181.271 246.499 181.317 246.479C181.343 246.466 181.369 246.453 181.401 246.44C181.746 246.297 182.091 246.141 182.43 245.978C182.495 245.946 182.566 245.913 182.631 245.881C182.944 245.731 183.256 245.568 183.562 245.399C183.608 245.373 183.653 245.353 183.699 245.327C183.718 245.314 183.738 245.308 183.764 245.295C183.953 245.191 184.141 245.08 184.33 244.969C184.467 244.885 184.61 244.8 184.747 244.715C184.773 244.696 184.805 244.683 184.831 244.663C184.851 244.65 184.87 244.637 184.896 244.624C185.085 244.507 185.267 244.39 185.456 244.266C185.599 244.175 185.736 244.078 185.872 243.986C185.892 243.973 185.905 243.967 185.925 243.954C185.931 243.947 185.944 243.941 185.951 243.934C185.97 243.921 185.99 243.908 186.009 243.895C186.152 243.798 186.302 243.694 186.445 243.589C186.588 243.485 186.732 243.381 186.875 243.27C186.914 243.238 186.953 243.212 186.992 243.179C187.018 243.16 187.044 243.14 187.07 243.121C187.148 243.062 187.226 243.004 187.298 242.945C187.441 242.834 187.578 242.724 187.721 242.607C187.844 242.509 187.962 242.405 188.085 242.307L188.092 242.301C188.098 242.301 188.098 242.294 188.105 242.294C188.222 242.196 188.333 242.099 188.443 242.001C188.56 241.897 188.684 241.793 188.801 241.689C188.912 241.591 189.022 241.487 189.133 241.389C189.14 241.389 189.14 241.383 189.146 241.383C189.153 241.376 189.153 241.376 189.159 241.37C189.244 241.292 189.328 241.214 189.413 241.136C189.498 241.057 189.582 240.979 189.667 240.895C189.751 240.817 189.836 240.732 189.914 240.654C189.999 240.569 190.077 240.491 190.161 240.407C190.181 240.387 190.2 240.367 190.22 240.348C190.239 240.328 190.259 240.309 190.279 240.289C190.298 240.27 190.318 240.25 190.337 240.231C190.357 240.211 190.376 240.192 190.396 240.166C190.487 240.075 190.578 239.977 190.663 239.886C190.682 239.86 190.708 239.84 190.728 239.814C190.734 239.808 190.741 239.801 190.754 239.788C190.767 239.775 190.773 239.762 190.786 239.756C190.832 239.704 190.884 239.651 190.929 239.599C191.02 239.502 191.105 239.404 191.196 239.306C191.235 239.261 191.274 239.222 191.313 239.176C191.326 239.163 191.333 239.157 191.346 239.144C191.352 239.131 191.365 239.124 191.372 239.111C191.398 239.079 191.43 239.046 191.457 239.014C191.541 238.916 191.626 238.818 191.71 238.721C191.769 238.649 191.834 238.577 191.893 238.506C191.899 238.499 191.906 238.486 191.919 238.48C191.925 238.473 191.925 238.467 191.932 238.46C191.945 238.447 191.951 238.434 191.964 238.421C192.049 238.324 192.127 238.219 192.211 238.122C192.296 238.024 192.374 237.92 192.459 237.816L192.465 237.809L192.472 237.803L192.478 237.796L192.485 237.79L192.53 237.738L203.803 225.032C203.809 225.026 203.816 225.019 203.822 225.013C203.829 225.006 203.835 225 203.842 224.993C203.848 224.987 203.855 224.98 203.861 224.974C203.868 224.967 203.874 224.961 203.881 224.954C204.108 224.72 204.336 224.479 204.564 224.238C204.694 224.101 204.824 223.958 204.954 223.822C204.987 223.789 205.02 223.75 205.052 223.717C205.072 223.698 205.091 223.672 205.111 223.652C205.156 223.607 205.195 223.561 205.241 223.516C205.462 223.275 205.69 223.027 205.911 222.78C206.002 222.682 206.087 222.578 206.178 222.481C206.211 222.448 206.243 222.409 206.269 222.377C206.295 222.344 206.321 222.311 206.354 222.279C206.425 222.201 206.497 222.116 206.569 222.038C206.744 221.836 206.92 221.635 207.089 221.433C207.193 221.309 207.297 221.185 207.402 221.062C207.421 221.042 207.441 221.016 207.46 220.997C207.473 220.984 207.486 220.964 207.499 220.951C207.538 220.906 207.571 220.866 207.61 220.821C207.779 220.619 207.955 220.411 208.124 220.203C208.293 219.994 208.462 219.786 208.632 219.578C208.684 219.513 208.742 219.441 208.794 219.376C208.846 219.311 208.905 219.239 208.957 219.174C209.009 219.109 209.068 219.037 209.12 218.972C209.172 218.907 209.23 218.836 209.282 218.771C209.491 218.51 209.699 218.25 209.901 217.983C210.109 217.716 210.311 217.456 210.512 217.189C210.545 217.15 210.578 217.104 210.61 217.065C210.63 217.039 210.649 217.013 210.669 216.987C210.818 216.785 210.968 216.59 211.118 216.388C211.319 216.121 211.521 215.848 211.717 215.575C211.912 215.308 212.1 215.041 212.289 214.774C212.367 214.67 212.439 214.559 212.51 214.455C212.537 214.416 212.569 214.377 212.595 214.331C212.68 214.208 212.771 214.084 212.855 213.96C213.044 213.687 213.233 213.42 213.415 213.14C213.604 212.867 213.786 212.593 213.968 212.314C214.105 212.112 214.235 211.904 214.372 211.702C214.391 211.676 214.404 211.65 214.424 211.624C214.45 211.578 214.482 211.539 214.509 211.493C214.684 211.22 214.866 210.94 215.042 210.667C215.218 210.387 215.394 210.114 215.569 209.827C215.745 209.547 215.914 209.267 216.09 208.981C216.116 208.942 216.136 208.903 216.162 208.857C216.168 208.844 216.175 208.838 216.181 208.825C216.188 208.812 216.201 208.792 216.207 208.779C216.337 208.564 216.467 208.35 216.598 208.128C216.767 207.848 216.93 207.562 217.099 207.276C217.261 206.989 217.431 206.703 217.593 206.416C217.678 206.273 217.756 206.124 217.841 205.974C217.867 205.935 217.886 205.889 217.912 205.85C217.971 205.753 218.023 205.648 218.081 205.551C218.244 205.258 218.4 204.971 218.557 204.679C218.713 204.386 218.869 204.093 219.025 203.8C219.175 203.513 219.331 203.221 219.481 202.928C219.481 202.921 219.487 202.921 219.487 202.915C219.487 202.915 219.487 202.908 219.494 202.908C219.643 202.609 219.8 202.309 219.949 202.01C220.099 201.71 220.249 201.404 220.398 201.099C220.548 200.793 220.691 200.487 220.841 200.181C220.887 200.09 220.926 199.992 220.971 199.901C220.991 199.855 221.01 199.816 221.03 199.771C221.108 199.601 221.192 199.432 221.271 199.257C221.414 198.951 221.557 198.638 221.694 198.326C221.837 198.007 221.98 197.688 222.117 197.369C222.208 197.167 222.292 196.959 222.383 196.757C222.396 196.731 222.403 196.711 222.416 196.685C222.429 196.653 222.442 196.62 222.455 196.588C222.481 196.529 222.507 196.464 222.533 196.406C222.67 196.087 222.806 195.761 222.943 195.436C222.976 195.358 223.008 195.279 223.041 195.201C223.08 195.11 223.119 195.013 223.158 194.921C223.223 194.772 223.282 194.616 223.347 194.466C223.477 194.147 223.6 193.828 223.724 193.509C223.731 193.496 223.737 193.477 223.744 193.463C223.744 193.463 223.744 193.457 223.75 193.457C223.88 193.118 224.017 192.78 224.141 192.435C224.193 192.298 224.245 192.155 224.297 192.012C224.336 191.908 224.375 191.797 224.414 191.693C224.447 191.595 224.486 191.504 224.518 191.407C224.642 191.062 224.765 190.717 224.889 190.372C224.902 190.333 224.915 190.294 224.928 190.255C224.961 190.17 224.987 190.085 225.013 190.007C225.097 189.766 225.182 189.526 225.267 189.285C225.332 189.096 225.397 188.907 225.455 188.718C225.494 188.614 225.527 188.504 225.566 188.399C225.592 188.328 225.611 188.263 225.637 188.191C225.761 187.827 225.878 187.462 225.995 187.091C226.015 187.039 226.028 186.98 226.048 186.928C226.08 186.831 226.106 186.733 226.139 186.636C226.204 186.421 226.275 186.199 226.34 185.985C226.399 185.783 226.464 185.581 226.523 185.379C226.562 185.256 226.594 185.132 226.633 185.008C226.653 184.937 226.679 184.865 226.698 184.793C226.815 184.396 226.933 183.993 227.043 183.589C227.05 183.557 227.063 183.524 227.069 183.492C227.076 183.472 227.082 183.446 227.089 183.427C227.108 183.361 227.121 183.29 227.141 183.225C227.219 182.945 227.297 182.665 227.369 182.379C227.408 182.229 227.447 182.073 227.486 181.923C227.525 181.786 227.557 181.643 227.596 181.506C227.629 181.389 227.655 181.279 227.688 181.161C227.766 180.849 227.844 180.537 227.922 180.224C227.948 180.113 227.974 180.003 228.006 179.892C228.013 179.866 228.02 179.834 228.026 179.808C228.137 179.352 228.241 178.903 228.345 178.447C228.358 178.402 228.364 178.356 228.377 178.31C228.41 178.174 228.436 178.037 228.469 177.894C228.527 177.621 228.592 177.354 228.651 177.08C228.677 176.95 228.703 176.826 228.729 176.696C228.768 176.514 228.8 176.338 228.84 176.156C228.872 176.006 228.905 175.857 228.931 175.7C228.97 175.505 229.002 175.31 229.041 175.115C229.087 174.88 229.132 174.646 229.178 174.405C229.197 174.307 229.217 174.203 229.237 174.106C229.282 173.865 229.321 173.617 229.367 173.377C229.406 173.149 229.445 172.928 229.484 172.7C229.497 172.635 229.51 172.57 229.516 172.504C229.568 172.192 229.614 171.88 229.666 171.561C229.699 171.372 229.725 171.183 229.757 170.988C229.764 170.955 229.77 170.923 229.77 170.89C229.848 170.35 229.926 169.81 230.004 169.269C230.004 169.256 230.005 169.25 230.011 169.237C230.011 169.224 230.011 169.217 230.018 169.204C230.018 169.191 230.018 169.185 230.024 169.172C230.024 169.159 230.024 169.152 230.031 169.139C230.128 168.397 230.219 167.655 230.304 166.913C230.317 166.79 230.33 166.659 230.343 166.536C230.349 166.451 230.362 166.366 230.375 166.282C230.395 166.113 230.402 165.95 230.421 165.787C230.46 165.429 230.499 165.065 230.532 164.707C230.558 164.401 230.577 164.101 230.603 163.802C230.616 163.646 230.636 163.489 230.649 163.333C230.655 163.223 230.662 163.118 230.668 163.008C230.681 162.845 230.694 162.676 230.707 162.513C230.753 161.869 230.785 161.224 230.818 160.58C230.818 160.521 230.825 160.463 230.831 160.411C230.831 160.398 230.831 160.391 230.831 160.378C230.831 160.365 230.831 160.352 230.831 160.339C230.844 160.105 230.851 159.864 230.864 159.63C230.87 159.395 230.883 159.161 230.89 158.92C230.896 158.686 230.903 158.451 230.909 158.217C230.916 157.983 230.922 157.748 230.922 157.514C230.942 156.642 230.942 155.776 230.935 154.917C230.87 154.839 230.87 154.709 230.864 154.585Z" fill="url(#paint2_linear_3775_8378)"/>
<path d="M174.412 93.2897C177.458 93.2246 180.406 93.5305 183.231 94.1684C186.068 94.8128 188.776 95.7892 191.334 97.0845C193.904 98.3798 196.325 99.994 198.577 101.882C200.835 103.782 202.918 105.969 204.799 108.404L206.927 112.036C208.404 114.861 209.713 117.848 210.845 120.992C211.977 124.142 212.928 127.443 213.689 130.866C214.451 134.303 215.01 137.87 215.362 141.541C215.713 145.219 215.85 149.007 215.765 152.88C215.746 153.856 215.713 154.832 215.661 155.815C215.616 156.798 215.55 157.788 215.472 158.783C215.394 159.779 215.303 160.775 215.193 161.784C215.082 162.786 214.958 163.795 214.822 164.811C214.145 169.725 213.142 174.535 211.847 179.189C210.546 183.85 208.951 188.354 207.096 192.669C205.242 196.985 203.133 201.105 200.796 204.997C198.466 208.883 195.909 212.535 193.169 215.926C192.778 216.408 192.388 216.889 191.991 217.365C191.594 217.84 191.19 218.302 190.787 218.764C190.383 219.226 189.973 219.682 189.563 220.131C189.153 220.58 188.737 221.023 188.314 221.459L176.95 234.386L174.562 237.113C173.221 238.48 171.796 239.69 170.306 240.732C168.822 241.767 167.266 242.633 165.672 243.303C164.077 243.973 162.444 244.455 160.784 244.722C159.131 244.989 157.452 245.047 155.766 244.878C155.07 244.807 154.38 244.702 153.71 244.553C153.039 244.41 152.382 244.227 151.738 244.012C151.093 243.798 150.469 243.55 149.857 243.27C149.245 242.991 148.653 242.678 148.074 242.333C147.169 241.799 146.303 241.188 145.483 240.511C144.663 239.834 143.889 239.085 143.16 238.278C142.431 237.471 141.754 236.605 141.123 235.681C140.492 234.757 139.912 233.78 139.385 232.752C139.359 232.7 139.34 232.654 139.314 232.602C139.288 232.55 139.262 232.505 139.235 232.452C139.209 232.4 139.183 232.355 139.157 232.303C139.131 232.251 139.105 232.205 139.079 232.153L104.137 163.568L100.05 155.542L106.337 148.467L136.574 114.418C136.964 113.923 137.361 113.442 137.765 112.96C138.168 112.485 138.572 112.01 138.982 111.548C139.392 111.085 139.808 110.63 140.231 110.181C140.654 109.731 141.077 109.289 141.513 108.859C143.843 106.516 146.303 104.388 148.874 102.513C151.451 100.632 154.139 99.0046 156.905 97.6638C159.684 96.3164 162.548 95.2554 165.47 94.5199C168.399 93.7714 171.392 93.3483 174.412 93.2897Z" fill="url(#paint3_linear_3775_8378)"/>
<defs>
<linearGradient id="paint0_linear_3775_8378" x1="113.202" y1="141.672" x2="34.4338" y2="241.104" gradientUnits="userSpaceOnUse">
<stop offset="0.3184" stop-color="#0B3327"/>
<stop offset="0.4202" stop-color="#0F3B2D"/>
<stop offset="0.5818" stop-color="#1A523F"/>
<stop offset="0.7831" stop-color="#2D785C"/>
<stop offset="1" stop-color="#44A881"/>
</linearGradient>
<linearGradient id="paint1_linear_3775_8378" x1="-73.8799" y1="192.451" x2="267.821" y2="15.2228" gradientUnits="userSpaceOnUse">
<stop stop-color="#09453D"/>
<stop offset="0.2258" stop-color="#23715B"/>
<stop offset="0.4493" stop-color="#389473"/>
<stop offset="0.6586" stop-color="#47AD85"/>
<stop offset="0.848" stop-color="#50BD8F"/>
<stop offset="1" stop-color="#53C293"/>
</linearGradient>
<linearGradient id="paint2_linear_3775_8378" x1="204.846" y1="265.931" x2="156.104" y2="-7.77678" gradientUnits="userSpaceOnUse">
<stop offset="0.2332" stop-color="#0B3327"/>
<stop offset="0.568" stop-color="#276D53"/>
<stop offset="0.8544" stop-color="#3C9874"/>
<stop offset="1" stop-color="#44A881"/>
</linearGradient>
<linearGradient id="paint3_linear_3775_8378" x1="104.293" y1="88.8512" x2="248.043" y2="263.101" gradientUnits="userSpaceOnUse">
<stop offset="0.1173" stop-color="#09453D"/>
<stop offset="0.1478" stop-color="#0F5045"/>
<stop offset="0.2616" stop-color="#25745D"/>
<stop offset="0.382" stop-color="#369171"/>
<stop offset="0.5088" stop-color="#44A881"/>
<stop offset="0.6452" stop-color="#4EB88C"/>
<stop offset="0.7978" stop-color="#53C293"/>
<stop offset="1" stop-color="#55C595"/>
</linearGradient>
</defs>
</svg>
