<svg width="96" height="81" viewBox="0 0 96 81" fill="none" xmlns="http://www.w3.org/2000/svg">
<path d="M40.9934 16.3622L45.0349 21.641L44.4232 22.5197L40.3816 17.2409L40.9934 16.3622Z" fill="#E2E2E2"/>
<path d="M41.9766 16.1538L46.0181 21.4391L45.0354 21.6409L40.9938 16.3621L41.9766 16.1538Z" fill="#919191"/>
<path d="M52.884 18.3213L56.9256 23.6067C54.6021 20.567 49.1873 20.9705 46.9745 21.2764C46.4344 21.3545 46.0829 21.4261 46.0178 21.4392L41.9762 16.1538C42.0413 16.1408 42.3928 16.0692 42.9329 15.9911C45.1457 15.6852 50.5605 15.2816 52.884 18.3213Z" fill="#848484"/>
<path d="M40.382 17.2408L44.4236 22.5262C42.2824 25.5854 40.8636 28.2606 40.1607 30.5388L36.1191 25.2534C36.822 22.9688 38.2408 20.2936 40.382 17.2408Z" fill="#DADADA"/>
<path d="M35.799 26.4641L39.8406 31.7494C39.6584 31.8796 39.4827 32.0098 39.307 32.14L35.2654 26.8547C35.4411 26.7245 35.6233 26.5943 35.799 26.4641Z" fill="#B6B6B6"/>
<path d="M35.265 26.8546L39.3066 32.1399C39.0788 32.3092 38.8575 32.4849 38.6428 32.6607L34.6012 27.3753C34.816 27.1996 35.0437 27.0304 35.265 26.8546Z" fill="#BBBBBB"/>
<path d="M34.6013 27.3818L38.6429 32.6672C38.4151 32.8494 38.1938 33.0382 37.9726 33.2335L33.931 27.9481C34.1523 27.7528 34.3736 27.5641 34.6013 27.3818Z" fill="#C0C0C0"/>
<path d="M40.3799 17.241L44.4214 22.5263C42.2803 25.5855 40.8615 28.2607 40.1586 30.5389L36.117 25.2536C36.8199 22.9689 38.2387 20.2937 40.3799 17.241Z" fill="#DADADA"/>
<path d="M36.1172 25.2535L40.1588 30.5389C40.0286 30.9555 39.9245 31.359 39.8464 31.7561L35.8048 26.4707C35.8829 26.0737 35.987 25.6701 36.1172 25.2535Z" fill="#D5D5D5"/>
<path d="M34.6015 27.382L38.6431 32.6673C38.4153 32.8495 38.194 33.0383 37.9728 33.2336L33.9312 27.9482C34.1525 27.753 34.3737 27.5642 34.6015 27.382Z" fill="#C0C0C0"/>
<path d="M33.931 27.9482L37.9725 33.2336C37.7382 33.4419 37.5104 33.6501 37.2827 33.8584L33.2411 28.5731C33.4689 28.3583 33.6967 28.15 33.931 27.9482Z" fill="#C5C5C5"/>
<path d="M33.9319 27.9482L37.9735 33.2336C37.7392 33.4419 37.5114 33.6501 37.2836 33.8584L33.2421 28.5731C33.4699 28.3583 33.6976 28.15 33.9319 27.9482Z" fill="#C5C5C5"/>
<path d="M33.931 27.9482L37.9726 33.2336C37.7383 33.4419 37.5105 33.6501 37.2827 33.8584L33.2411 28.5731C33.4689 28.3583 33.6967 28.15 33.931 27.9482Z" fill="#C5C5C5"/>
<path d="M33.241 28.5731L37.2826 33.8584C37.0352 34.0928 36.801 34.3271 36.5667 34.5679L32.5251 29.2826C32.7594 29.0418 32.9937 28.8074 33.241 28.5731Z" fill="#CACACA"/>
<path d="M32.5252 29.2826L36.5668 34.5679C36.3 34.8478 36.0396 35.1277 35.7858 35.4206L31.7442 30.1353C31.998 29.8424 32.2584 29.5625 32.5252 29.2826Z" fill="#CFCFCF"/>
<path d="M42.1976 18.6729L46.2392 23.9582C44.7684 26.1647 43.7596 28.1044 43.2194 29.7512L39.1778 24.4659C39.718 22.8126 40.7268 20.8794 42.1976 18.6729Z" fill="#49A980"/>
<path d="M43.8295 22.9298L47.871 28.2151C47.7279 28.2411 47.5912 28.2672 47.448 28.2932L43.4064 23.0079C43.5496 22.9819 43.6863 22.9493 43.8295 22.9298Z" fill="#848484"/>
<path d="M43.4065 23.0079L47.448 28.2933C47.0315 28.3779 46.6085 28.482 46.1855 28.6057L42.1439 23.3204C42.5669 23.1967 42.99 23.0926 43.4065 23.0079Z" fill="#898989"/>
<path d="M42.1504 23.3203L46.192 28.6056C45.8536 28.7033 45.5217 28.8139 45.1833 28.9311L41.1416 23.6458C41.4736 23.5286 41.812 23.4179 42.1504 23.3203Z" fill="#8E8E8E"/>
<path d="M41.1421 23.6458L45.1837 28.9311C44.8908 29.0352 44.5914 29.1459 44.2985 29.2695L40.257 23.9842C40.5498 23.8605 40.8492 23.7499 41.1421 23.6458Z" fill="#939393"/>
<path d="M40.2571 23.9843L44.2987 29.2696C44.0254 29.3802 43.7585 29.4974 43.4917 29.6211L39.4501 24.3357C39.717 24.2121 39.9903 24.0949 40.2571 23.9843Z" fill="#989898"/>
<path d="M39.4498 24.3358L43.4914 29.6211C43.4003 29.6667 43.3027 29.7057 43.2115 29.7513L39.17 24.466C39.2676 24.4204 39.3587 24.3814 39.4498 24.3358Z" fill="#9D9D9D"/>
<path d="M52.884 18.3213L56.9256 23.6067C54.6021 20.567 49.1873 20.9705 46.9745 21.2764C46.4344 21.3545 46.0829 21.4261 46.0178 21.4392L41.9762 16.1538C42.0413 16.1408 42.3928 16.0692 42.9329 15.9911C45.1457 15.6852 50.5605 15.2816 52.884 18.3213Z" fill="#848484"/>
<path d="M50.0772 20.4759L54.1188 25.7613C52.3811 23.4896 48.1378 23.7174 46.2309 23.9582L42.1893 18.6729C44.1027 18.4321 48.3396 18.2043 50.0772 20.4759Z" fill="#2C664D"/>
<path d="M45.2825 21.9924L49.324 27.2712L47.8727 28.2086L43.8311 22.9297L45.2825 21.9924Z" fill="#BCBCBC"/>
<path d="M45.2822 21.9924L49.3238 27.2712L49.6687 28.0133L45.6272 22.728L45.2822 21.9924Z" fill="#3C8A69"/>
<path d="M32.5262 29.2825L36.5678 34.5678C36.301 34.8477 36.0407 35.1276 35.7869 35.4205L31.7452 30.1352C31.9991 29.8422 32.2594 29.5624 32.5262 29.2825Z" fill="#CFCFCF"/>
<path d="M31.7459 30.1351L35.7875 35.4205C35.4556 35.798 35.1432 36.1885 34.8503 36.5856L30.8087 31.3003C31.1016 30.9032 31.4139 30.5127 31.7459 30.1351Z" fill="#D5D5D5"/>
<path d="M30.8086 31.3003L34.8502 36.5856C33.8479 37.92 33.0539 39.3389 32.5398 40.7709C32.4747 40.9532 32.4161 41.1289 32.3641 41.3046L28.3225 36.0193C28.3745 35.8436 28.4396 35.6613 28.4982 35.4856C29.0123 34.0471 29.8063 32.6346 30.8086 31.3003Z" fill="#DADADA"/>
<path d="M28.3157 36.0193L32.3573 41.3046C32.2337 41.7082 32.136 42.1052 32.0579 42.4958L28.0164 37.2104C28.0945 36.8199 28.1921 36.4294 28.3157 36.0193Z" fill="#D5D5D5"/>
<path d="M24.9505 41.1224L28.9921 46.4012L28.0289 47.0261L23.9873 41.7408L24.9505 41.1224Z" fill="#BCBCBC"/>
<path d="M28.3143 36.0194L32.3558 41.3047C32.2322 41.7083 32.1346 42.1053 32.0565 42.4959L28.0149 37.2106C28.093 36.82 28.1906 36.4295 28.3143 36.0194Z" fill="#D5D5D5"/>
<path d="M28.0209 37.2106L32.0625 42.4959C32.0039 42.7953 31.9649 43.0817 31.9389 43.3681L27.8973 38.0828C27.9233 37.7964 27.9623 37.5035 28.0209 37.2106Z" fill="#CFCFCF"/>
<path d="M27.8978 38.0828L31.9394 43.3681C31.9199 43.6154 31.9068 43.8563 31.9068 44.0906L27.8653 38.8053C27.8653 38.5644 27.8718 38.3236 27.8978 38.0828Z" fill="#CACACA"/>
<path d="M27.8584 38.8053L31.9 44.0906C31.9 44.3054 31.9064 44.5202 31.926 44.7285L27.8844 39.4432C27.8714 39.2349 27.8584 39.0201 27.8584 38.8053Z" fill="#C5C5C5"/>
<path d="M27.8843 39.4366L31.9259 44.722C31.9259 44.7285 31.9259 44.7415 31.9259 44.748L27.8843 39.4627C27.8843 39.4562 27.8843 39.4497 27.8843 39.4366Z" fill="#C0C0C0"/>
<path d="M27.8908 39.4626L31.9324 44.748C31.8673 44.7805 31.7957 44.813 31.7307 44.8521L27.6891 39.5668C27.7542 39.5342 27.8192 39.5017 27.8908 39.4626Z" fill="#9D9D9D"/>
<path d="M27.6899 39.5668L31.7315 44.8521C31.2694 45.0864 30.8594 45.3077 30.4949 45.5095L26.4533 40.2242C26.8113 40.0289 27.2278 39.8011 27.6899 39.5668Z" fill="#A2A2A2"/>
<path d="M26.4526 40.2242L30.4941 45.5096C30.0711 45.7439 29.7197 45.9522 29.4658 46.1084L25.4243 40.8231C25.6781 40.6669 26.0295 40.4651 26.4526 40.2242Z" fill="#A7A7A7"/>
<path d="M25.4246 40.823L29.4662 46.1083C29.1993 46.2711 29.0301 46.3752 28.9911 46.4012L24.9495 41.1159C24.9885 41.0899 25.1578 40.9857 25.4246 40.823Z" fill="#ACACAC"/>
<path d="M23.9873 41.7408L28.0289 47.0262L27.9182 47.8593L23.8766 42.5805L23.9873 41.7408Z" fill="#DEDEDE"/>
<path d="M48.9718 27.2517L53.0134 32.5371C52.5513 31.9317 51.9135 31.4631 51.126 31.1506C50.1173 30.7536 48.8547 30.6234 47.4034 30.8317C47.3188 30.8447 47.2407 30.8577 47.1561 30.8707C47.0064 30.8968 46.8502 30.9228 46.7005 30.9554L42.6589 25.67C42.8086 25.6375 42.9648 25.6115 43.1145 25.5854C43.1991 25.5724 43.2837 25.5594 43.3618 25.5464C44.8131 25.3446 46.0757 25.4683 47.0845 25.8653C47.8719 26.1777 48.5097 26.6529 48.9718 27.2517Z" fill="#2C664D"/>
<path d="M42.6591 25.67L46.7007 30.9554C46.3883 31.0205 46.0694 31.0986 45.757 31.1897L41.7155 25.9044C42.0344 25.8132 42.3468 25.7351 42.6591 25.67Z" fill="#2E6A50"/>
<path d="M41.7155 25.9044L45.757 31.1897C45.5032 31.2613 45.2494 31.346 45.0021 31.4306L40.9605 26.1453C41.2143 26.0606 41.4681 25.9825 41.7155 25.9044Z" fill="#306E53"/>
<path d="M40.9602 26.1517L45.0018 31.4371C44.7805 31.5152 44.5592 31.5998 44.3379 31.6909L40.2964 26.4056C40.5176 26.3145 40.7389 26.2298 40.9602 26.1517Z" fill="#317256"/>
<path d="M40.2963 26.4055L44.3379 31.6908C44.1361 31.7754 43.9344 31.8601 43.7326 31.9577L39.691 26.6724C39.8928 26.5748 40.0945 26.4901 40.2963 26.4055Z" fill="#337659"/>
<path d="M39.6913 26.6725L43.7329 31.9578C43.5441 32.0489 43.3489 32.1401 43.1601 32.2377L39.1186 26.9524C39.3073 26.8482 39.496 26.7571 39.6913 26.6725Z" fill="#357A5C"/>
<path d="M39.1187 26.9458L43.1603 32.2311C43.0171 32.3027 42.8804 32.3743 42.7438 32.4524C42.6982 32.4784 42.6591 32.498 42.6136 32.524L38.572 27.2387C38.6111 27.2127 38.6566 27.1931 38.7022 27.1671C38.8388 27.0955 38.9755 27.0174 39.1187 26.9458Z" fill="#367E5F"/>
<path d="M38.5721 27.2388L42.6137 32.5241C42.438 32.6217 42.2622 32.7259 42.093 32.83L38.0514 27.5447C38.2206 27.4406 38.3964 27.3364 38.5721 27.2388Z" fill="#388262"/>
<path d="M38.051 27.5447L42.0926 32.83C41.9234 32.9341 41.7477 33.0383 41.5785 33.1489L37.5369 27.8636C37.7061 27.753 37.8753 27.6488 38.051 27.5447Z" fill="#3A8665"/>
<path d="M37.5373 27.8635L41.5789 33.1488C41.4097 33.2595 41.2405 33.3702 41.0778 33.4873L37.0362 28.202C37.1989 28.0913 37.3681 27.9742 37.5373 27.8635Z" fill="#3B8A68"/>
<path d="M37.0358 28.202L41.0773 33.4874C40.9081 33.6045 40.7389 33.7282 40.5762 33.8519L36.5346 28.5665C36.6973 28.4429 36.8665 28.3257 37.0358 28.202Z" fill="#3D8E6B"/>
<path d="M36.5351 28.5665L40.5766 33.8519C40.4074 33.982 40.2382 34.1122 40.0755 34.2424L36.0339 28.9571C36.1966 28.8269 36.3658 28.6967 36.5351 28.5665Z" fill="#3F926E"/>
<path d="M36.0339 28.9636L40.0755 34.2489C39.9519 34.3466 39.8347 34.4507 39.7111 34.5484C39.6655 34.5874 39.6134 34.633 39.5679 34.672L35.5263 29.3867C35.5719 29.3477 35.6239 29.3021 35.6695 29.263C35.7931 29.1589 35.9103 29.0613 36.0339 28.9636Z" fill="#419671"/>
<path d="M35.5264 29.3867L39.568 34.672C39.3922 34.8282 39.2165 34.9845 39.0473 35.1472L35.0057 29.8619C35.1749 29.7057 35.3507 29.5429 35.5264 29.3867Z" fill="#429A74"/>
<path d="M35.0054 29.8618L39.047 35.1471C38.8648 35.3229 38.6825 35.4986 38.5068 35.6809L34.4652 30.3956C34.641 30.2198 34.8232 30.0376 35.0054 29.8618Z" fill="#449E77"/>
<path d="M34.4655 30.4021L38.5071 35.6874C38.3054 35.8957 38.1101 36.1105 37.9214 36.3318L33.8798 31.0465C34.0685 30.8252 34.2638 30.6104 34.4655 30.4021Z" fill="#46A27A"/>
<path d="M33.8796 31.0399L37.9212 36.3252C37.6739 36.6116 37.4396 36.898 37.2183 37.1975L33.1768 31.9121C33.398 31.6192 33.6323 31.3263 33.8796 31.0399Z" fill="#47A57D"/>
<path d="M33.1767 31.9122L37.2183 37.1975C36.4634 38.2064 35.8646 39.2739 35.4741 40.3544C35.4286 40.4911 35.383 40.6278 35.3375 40.758L31.2959 35.4727C31.3349 35.3425 31.3805 35.2058 31.4325 35.0691C31.8165 33.9886 32.4218 32.9211 33.1767 31.9122Z" fill="#49A980"/>
<path d="M31.2958 35.4791L35.3374 40.7645C35.2398 41.0704 35.1682 41.3698 35.1161 41.6627L31.0745 36.3774C31.1266 36.0845 31.1982 35.7851 31.2958 35.4791Z" fill="#47A57D"/>
<path d="M31.0748 36.3708L35.1164 41.6562C35.0774 41.8775 35.0448 42.0988 35.0253 42.3136L30.9837 37.0283C30.9967 36.8135 31.0293 36.5987 31.0748 36.3708Z" fill="#46A27A"/>
<path d="M30.9769 37.0283L35.0184 42.3136C34.9989 42.5024 34.9924 42.6846 34.9924 42.8604L30.9508 37.5751C30.9508 37.3993 30.9639 37.2171 30.9769 37.0283Z" fill="#449E77"/>
<path d="M30.9508 37.5751L34.9924 42.8604C34.9924 43.0231 34.9989 43.1793 35.0119 43.3356L30.9704 38.0502C30.9574 37.9005 30.9508 37.7378 30.9508 37.5751Z" fill="#429A74"/>
<path d="M30.9707 38.0566L35.0123 43.342C35.0123 43.355 35.0123 43.368 35.0188 43.381L30.9772 38.0957C30.9707 38.0827 30.9707 38.0697 30.9707 38.0566Z" fill="#419671"/>
<path d="M40.2382 30.9293L44.2798 36.2147L44.2277 36.2602L40.1862 30.9749L40.2382 30.9293Z" fill="#CACACA"/>
<path d="M40.8446 30.5388L44.8862 35.8241C44.8602 35.8372 44.8276 35.8567 44.8016 35.8697C44.7951 35.8762 44.7886 35.8762 44.7821 35.8827L40.7405 30.5974C40.747 30.5909 40.7535 30.5909 40.76 30.5844C40.786 30.5648 40.8186 30.5518 40.8446 30.5388Z" fill="#A2A2A2"/>
<path d="M40.74 30.5974L44.7816 35.8827C44.749 35.9022 44.7165 35.9218 44.6774 35.9413L40.6358 30.656C40.6684 30.6365 40.7009 30.6169 40.74 30.5974Z" fill="#A7A7A7"/>
<path d="M40.6357 30.656L44.6773 35.9413C44.6448 35.9609 44.6122 35.9804 44.5797 36.0064L40.5381 30.7211C40.5707 30.6951 40.6032 30.6755 40.6357 30.656Z" fill="#ACACAC"/>
<path d="M40.5389 30.7151L44.5804 36.0004C44.5479 36.0199 44.5154 36.046 44.4828 36.0655L40.4413 30.7802C40.4738 30.7607 40.5063 30.7411 40.5389 30.7151Z" fill="#B1B1B1"/>
<path d="M40.4412 30.7804L44.4827 36.0657C44.4502 36.0917 44.4177 36.1113 44.3851 36.1373L40.3435 30.852C40.3761 30.826 40.4086 30.8064 40.4412 30.7804Z" fill="#B6B6B6"/>
<path d="M40.3434 30.8513L44.385 36.1366C44.3525 36.1627 44.3199 36.1887 44.2874 36.2082L40.2458 30.9229C40.2784 30.9034 40.3109 30.8774 40.3434 30.8513Z" fill="#BBBBBB"/>
<path d="M40.2454 30.9293L44.287 36.2081L44.2805 36.2147L40.2389 30.9293H40.2454Z" fill="#C0C0C0"/>
<path d="M40.8425 30.5388L44.8841 35.8241C44.858 35.8372 44.8255 35.8567 44.7995 35.8697C44.793 35.8762 44.7865 35.8762 44.7799 35.8827L40.7384 30.5974C40.7449 30.5909 40.7514 30.5909 40.7579 30.5844C40.7839 30.5648 40.8165 30.5518 40.8425 30.5388Z" fill="#A2A2A2"/>
<path d="M40.1861 30.9749L44.2277 36.2602L41.9889 38.1153L37.9473 32.8364L40.1861 30.9749Z" fill="#CBCBCB"/>
<path d="M37.9464 32.8365L41.988 38.1154L40.6474 39.2349L36.6057 33.9496L37.9464 32.8365Z" fill="#CBCBCB"/>
<path d="M36.6056 33.9495L40.6471 39.2348C40.6341 39.2413 40.6276 39.2543 40.6146 39.2608L36.573 33.9755C36.5795 33.969 36.5925 33.9625 36.6056 33.9495Z" fill="#BBBBBB"/>
<path d="M36.5668 33.9827L40.6085 39.268C40.602 39.2745 40.5889 39.281 40.5824 39.2875C40.5629 39.307 40.5434 39.3201 40.5238 39.3396L36.4822 34.0543C36.5018 34.0347 36.5213 34.0217 36.5408 34.0022C36.5538 33.9957 36.5603 33.9892 36.5668 33.9827Z" fill="#C0C0C0"/>
<path d="M36.5678 33.9821L40.6094 39.2674C40.6029 39.2739 40.5899 39.2804 40.5834 39.2869C40.5639 39.3064 40.5444 39.3194 40.5248 39.339L36.4832 34.0537C36.5027 34.0341 36.5223 34.0211 36.5418 34.0016C36.5548 33.9951 36.5613 33.9886 36.5678 33.9821Z" fill="#C0C0C0"/>
<path d="M36.5674 33.9821L40.609 39.2674C40.6025 39.2739 40.5895 39.2804 40.583 39.2869C40.5635 39.3064 40.544 39.3194 40.5244 39.339L36.4828 34.0537C36.5023 34.0341 36.5219 34.0211 36.5414 34.0016C36.5544 33.9951 36.5609 33.9886 36.5674 33.9821Z" fill="#C0C0C0"/>
<path d="M36.4824 34.0537L40.524 39.339C40.4785 39.3781 40.4264 39.4237 40.3809 39.4692L36.3393 34.1839C36.3848 34.1383 36.4369 34.0928 36.4824 34.0537Z" fill="#C5C5C5"/>
<path d="M36.3394 34.1838L40.381 39.4692C40.3289 39.5147 40.2833 39.5668 40.2313 39.6189L36.1897 34.3336C36.2417 34.2815 36.2873 34.2294 36.3394 34.1838Z" fill="#CACACA"/>
<path d="M36.1898 34.327L40.2314 39.6124C40.1728 39.6709 40.1208 39.7295 40.0687 39.7881L36.0271 34.5028C36.0857 34.4442 36.1377 34.3856 36.1898 34.327Z" fill="#CFCFCF"/>
<path d="M36.0338 34.5028L40.0754 39.7881C40.0103 39.8662 39.9452 39.9443 39.8801 40.029L35.8386 34.7436C35.8971 34.659 35.9622 34.5809 36.0338 34.5028Z" fill="#D5D5D5"/>
<path d="M35.8382 34.7435L39.8798 40.0289C39.6715 40.3022 39.5088 40.5952 39.4047 40.8946C39.3917 40.9336 39.3786 40.9662 39.3656 41.0052L35.324 35.7199C35.3371 35.6808 35.3501 35.6483 35.3631 35.6092C35.4672 35.3098 35.6364 35.0169 35.8382 34.7435Z" fill="#DADADA"/>
<path d="M35.8372 34.7437L39.8788 40.029C39.6705 40.3024 39.5078 40.5953 39.4037 40.8947C39.3907 40.9337 39.3777 40.9663 39.3647 41.0053L35.3231 35.72C35.3361 35.681 35.3491 35.6484 35.3621 35.6094C35.4663 35.3099 35.6355 35.017 35.8372 34.7437Z" fill="#DADADA"/>
<path d="M50.0791 20.4758L54.1207 25.7611C54.1467 25.7937 54.1728 25.8262 54.1923 25.8588L50.1507 20.5735C50.1312 20.5409 50.1051 20.5084 50.0791 20.4758Z" fill="#A2A2A2"/>
<path d="M50.1581 20.5803L54.1997 25.8656C54.2453 25.9307 54.2908 25.9958 54.3364 26.0674C54.3494 26.0934 54.3689 26.1195 54.3819 26.1455L50.3404 20.8602C50.3274 20.8342 50.3078 20.8081 50.2948 20.7821C50.2493 20.7105 50.2037 20.6454 50.1581 20.5803Z" fill="#A7A7A7"/>
<path d="M50.3337 20.8599L54.3753 26.1452C54.4273 26.2363 54.4794 26.3339 54.5249 26.4381L50.4834 21.1528C50.4378 21.0486 50.3923 20.951 50.3337 20.8599Z" fill="#ACACAC"/>
<path d="M50.4833 21.1462L54.5249 26.4316C54.5704 26.5292 54.616 26.6333 54.6485 26.744L50.607 21.4587C50.5744 21.3545 50.5289 21.2504 50.4833 21.1462Z" fill="#B1B1B1"/>
<path d="M50.613 21.4587L54.6546 26.7441C54.6936 26.8547 54.7262 26.9654 54.7587 27.0825L50.7171 21.7972C50.6846 21.68 50.6521 21.5694 50.613 21.4587Z" fill="#B6B6B6"/>
<path d="M50.7177 21.7971L54.7592 27.0824C54.7918 27.2061 54.8178 27.3298 54.8373 27.4535L50.7957 22.1681C50.7762 22.038 50.7437 21.9143 50.7177 21.7971Z" fill="#BBBBBB"/>
<path d="M50.7955 22.1682L54.837 27.4535C54.8631 27.5902 54.8761 27.7334 54.8891 27.8766L50.8475 22.5913C50.8345 22.4481 50.815 22.3049 50.7955 22.1682Z" fill="#C0C0C0"/>
<path d="M50.8474 22.5913L54.8889 27.8766C54.902 28.0394 54.9085 28.2086 54.9085 28.3778L50.8669 23.0925C50.8669 22.9233 50.8604 22.754 50.8474 22.5913Z" fill="#C5C5C5"/>
<path d="M50.8669 23.0925L54.9085 28.3778C54.9085 28.5796 54.8955 28.7814 54.8759 28.9962L50.8344 23.7109C50.8539 23.5026 50.8669 23.2943 50.8669 23.0925Z" fill="#CACACA"/>
<path d="M50.8341 23.7108L54.8757 28.9961C54.8627 29.1263 54.8497 29.263 54.8302 29.3997L50.7886 24.1144C50.8081 23.9777 50.8211 23.8475 50.8341 23.7108Z" fill="#CFCFCF"/>
<path d="M50.787 24.1144L54.8285 29.3997C53.5725 28.4364 51.8153 27.9287 49.6676 28.0133L45.626 22.728C47.7737 22.6434 49.5309 23.1511 50.787 24.1144Z" fill="#848484"/>
<path d="M42.7962 30.5973L46.8377 35.8826C46.6295 35.6092 46.239 35.4726 45.7314 35.5442C45.6858 35.5507 45.6402 35.5572 45.5947 35.5702L41.5531 30.2849C41.5987 30.2784 41.6442 30.2653 41.6898 30.2588C42.1974 30.1872 42.5879 30.3239 42.7962 30.5973Z" fill="#848484"/>
<path d="M41.5464 30.2848L45.588 35.5701C45.5229 35.5831 45.4643 35.5962 45.3993 35.6157L41.3577 30.3303C41.4227 30.3108 41.4813 30.2978 41.5464 30.2848Z" fill="#898989"/>
<path d="M41.3577 30.3304L45.3993 35.6158C45.3472 35.6288 45.3017 35.6483 45.2496 35.6613L41.208 30.376C41.2601 30.363 41.3057 30.3435 41.3577 30.3304Z" fill="#8E8E8E"/>
<path d="M41.2076 30.3826L45.2492 35.6679C45.2036 35.6809 45.1646 35.7004 45.119 35.72L41.0775 30.4346C41.123 30.4086 41.1621 30.3956 41.2076 30.3826Z" fill="#939393"/>
<path d="M41.0788 30.4287L45.1204 35.714C45.0813 35.7336 45.0423 35.7466 45.0032 35.7661L40.9616 30.4808C41.0007 30.4613 41.0397 30.4482 41.0788 30.4287Z" fill="#989898"/>
<path d="M40.9546 30.4808L44.9963 35.7662C44.9572 35.7857 44.9181 35.7987 44.8856 35.8182L40.844 30.5329C40.883 30.5199 40.9221 30.5004 40.9546 30.4808Z" fill="#9D9D9D"/>
<path d="M40.8435 30.5387L44.8851 35.824C44.859 35.837 44.8265 35.8566 44.8005 35.8696C44.794 35.8761 44.7874 35.8761 44.7809 35.8826L40.7393 30.5973C40.7459 30.5908 40.7524 30.5908 40.7589 30.5843C40.7849 30.5647 40.8174 30.5517 40.8435 30.5387Z" fill="#A2A2A2"/>
<path d="M42.7946 30.5974L46.8361 35.8827L46.8752 35.9348L42.8336 30.6495L42.7946 30.5974Z" fill="#367E60"/>
<path d="M35.3638 36.885L39.4053 42.1703C39.1255 42.2159 38.8456 42.2615 38.5593 42.32L34.5177 37.0347C34.8041 36.9761 35.0839 36.9241 35.3638 36.885Z" fill="#848484"/>
<path d="M34.5247 37.0347L38.5663 42.32C38.0522 42.4241 37.538 42.5543 37.0304 42.704L32.9888 37.4187C33.4964 37.269 34.0041 37.1388 34.5247 37.0347Z" fill="#898989"/>
<path d="M32.9879 37.4187L37.0295 42.704C36.5674 42.8407 36.1053 42.9904 35.6563 43.1466L31.6147 37.8613C32.0638 37.7051 32.5193 37.5554 32.9879 37.4187Z" fill="#8E8E8E"/>
<path d="M31.6152 37.8613L35.6567 43.1467C35.442 43.2248 35.2272 43.3029 35.0189 43.381L30.9774 38.0957C31.1856 38.0175 31.4004 37.9394 31.6152 37.8613Z" fill="#939393"/>
<path d="M35.8382 34.7435L39.8798 40.0289C39.6715 40.3022 39.5089 40.5952 39.4047 40.8946C39.3917 40.9336 39.3787 40.9662 39.3657 41.0052L35.3241 35.7199C35.3371 35.6808 35.3501 35.6483 35.3631 35.6092C35.4673 35.3098 35.6365 35.0169 35.8382 34.7435Z" fill="#DADADA"/>
<path d="M35.3247 35.7134L39.3663 40.9987C39.3403 41.0833 39.3208 41.1614 39.3077 41.246L35.2661 35.9607C35.2792 35.8826 35.2987 35.798 35.3247 35.7134Z" fill="#D5D5D5"/>
<path d="M35.2662 35.9607L39.3078 41.246C39.2948 41.3046 39.2883 41.3697 39.2818 41.4283L35.2402 36.1429C35.2467 36.0844 35.2532 36.0193 35.2662 35.9607Z" fill="#CFCFCF"/>
<path d="M35.2398 36.1429L39.2813 41.4283C39.2748 41.4803 39.2748 41.5259 39.2748 41.578L35.2333 36.2926C35.2333 36.2406 35.2333 36.1885 35.2398 36.1429Z" fill="#CACACA"/>
<path d="M35.2333 36.2861L39.2748 41.5714C39.2748 41.617 39.2748 41.6626 39.2813 41.7016L35.2398 36.4163C35.2333 36.3773 35.2333 36.3317 35.2333 36.2861Z" fill="#C5C5C5"/>
<path d="M35.2402 36.4229L39.2818 41.7082C39.2883 41.7472 39.2883 41.7863 39.2948 41.8253L35.2532 36.54C35.2467 36.501 35.2402 36.4619 35.2402 36.4229Z" fill="#C0C0C0"/>
<path d="M35.2532 36.54L39.2948 41.8254C39.3013 41.8644 39.3078 41.897 39.3208 41.936L35.2792 36.6507C35.2662 36.6116 35.2597 36.5726 35.2532 36.54Z" fill="#BBBBBB"/>
<path d="M35.2791 36.6442L39.3207 41.9295C39.3272 41.962 39.3402 42.0011 39.3532 42.0336L35.3116 36.7483C35.2986 36.7158 35.2856 36.6832 35.2791 36.6442Z" fill="#B6B6B6"/>
<path d="M35.3051 36.7483L39.3467 42.0336C39.3597 42.0662 39.3727 42.0987 39.3857 42.1313L35.3441 36.8459C35.3311 36.8134 35.3181 36.7808 35.3051 36.7483Z" fill="#B1B1B1"/>
<path d="M35.344 36.8459L39.3855 42.1312C39.3921 42.1443 39.3986 42.1573 39.4051 42.1703L35.3635 36.885C35.357 36.872 35.3505 36.859 35.344 36.8459Z" fill="#ACACAC"/>
<path d="M42.8349 30.6494L46.8765 35.9347L47.3971 36.6898L43.3556 31.4045L42.8349 30.6494Z" fill="#377F60"/>
<path d="M43.3555 31.4044L47.3971 36.6898L47.7746 37.23L43.733 31.9447L43.3555 31.4044Z" fill="#377F60"/>
<path d="M40.0176 34.9453L44.0592 40.2241L43.6752 40.5496L39.6336 35.2708L40.0176 34.9453Z" fill="#449E78"/>
<path d="M39.6319 35.2709L43.6735 40.5497L41.9098 42.0272L37.8682 36.7419L39.6319 35.2709Z" fill="#449E78"/>
<path d="M40.0175 34.9453L44.0591 40.2241L44.2023 40.4259L40.1607 35.1406L40.0175 34.9453Z" fill="#A2A2A2"/>
<path d="M42.7883 39.1047L46.8299 44.39C45.9513 43.2445 44.7408 42.5089 43.1984 42.19C42.7818 42.1054 42.3458 42.0533 41.9098 42.0273L37.8682 36.7419C38.3042 36.768 38.7403 36.8201 39.1568 36.9047C40.6992 37.2236 41.9097 37.9591 42.7883 39.1047Z" fill="#848484"/>
<path d="M43.7334 31.9447L47.775 37.23L48.4844 38.2454L44.4428 32.9666L43.7334 31.9447Z" fill="#377F60"/>
<path d="M44.4411 32.9667L48.4827 38.2455L48.5152 38.291L44.4737 33.0057L44.4411 32.9667Z" fill="#377F60"/>
<path d="M44.4754 33.0056L48.517 38.291L48.5755 38.3756L44.534 33.0967L44.4754 33.0056Z" fill="#377F60"/>
<path d="M52.8841 18.3213L56.9257 23.6066C56.9583 23.6522 56.9973 23.6977 57.0299 23.7433L52.9883 18.458C52.9492 18.4124 52.9167 18.3669 52.8841 18.3213Z" fill="#367E5F"/>
<path d="M52.9879 18.4645L57.0295 23.7498C57.0945 23.8344 57.1531 23.9255 57.2052 24.0232C57.2312 24.0622 57.2507 24.1013 57.2768 24.1403L53.2352 18.855C53.2157 18.816 53.1896 18.7769 53.1636 18.7379C53.105 18.6402 53.0465 18.5491 52.9879 18.4645Z" fill="#388262"/>
<path d="M53.2352 18.8485L57.2768 24.1338C57.3549 24.264 57.42 24.4007 57.4851 24.5374L53.4435 19.2521C53.3784 19.1154 53.3068 18.9787 53.2352 18.8485Z" fill="#3A8665"/>
<path d="M53.4436 19.2521L57.4852 24.5374C57.5503 24.6741 57.6089 24.8173 57.6609 24.9605L53.6193 19.6752C53.5608 19.532 53.5087 19.3888 53.4436 19.2521Z" fill="#3B8A68"/>
<path d="M53.6122 19.6816L57.6538 24.967C57.7059 25.1167 57.7514 25.2664 57.797 25.4226L53.7554 20.1373C53.7164 19.9811 53.6708 19.8313 53.6122 19.6816Z" fill="#3D8E6B"/>
<path d="M53.7558 20.1373L57.7974 25.4227C57.8429 25.5854 57.8755 25.7546 57.9015 25.9239L53.8599 20.6385C53.8339 20.4693 53.8014 20.3001 53.7558 20.1373Z" fill="#3F926E"/>
<path d="M53.8604 20.6384L57.902 25.9238C57.9346 26.106 57.9541 26.2948 57.9736 26.49L53.932 21.2047C53.919 21.0094 53.893 20.8207 53.8604 20.6384Z" fill="#419671"/>
<path d="M53.9314 21.2048L57.9729 26.4902C57.9925 26.6984 57.999 26.9197 57.999 27.1411L53.9574 21.8557C53.9574 21.6279 53.9509 21.4131 53.9314 21.2048Z" fill="#429A74"/>
<path d="M53.9574 21.8557L57.999 27.141C57.999 27.3949 57.986 27.6617 57.96 27.9351L53.9184 22.6498C53.9444 22.3764 53.9574 22.1096 53.9574 21.8557Z" fill="#449E77"/>
<path d="M53.9184 22.6433L57.96 27.9286C57.9275 28.2606 57.882 28.6121 57.8104 28.9701L53.7688 23.6848C53.8404 23.3268 53.8859 22.9818 53.9184 22.6433Z" fill="#46A27A"/>
<path d="M53.7685 23.6847L57.81 28.97C57.7124 29.4842 57.5758 30.0245 57.4065 30.5842L53.3649 25.2989C53.5407 24.7391 53.6708 24.1989 53.7685 23.6847Z" fill="#47A57D"/>
<path d="M53.3654 25.299L57.407 30.5843C57.2313 31.1506 57.0165 31.7364 56.7692 32.3547L52.7276 27.0694C52.9749 26.451 53.1897 25.8652 53.3654 25.299Z" fill="#49A980"/>
<path d="M52.7266 27.063L56.7682 32.3483C56.7682 32.3548 56.7747 32.3613 56.7747 32.3678L52.7331 27.0825C52.7266 27.076 52.7266 27.0695 52.7266 27.063Z" fill="#3D8E6B"/>
<path d="M52.727 27.0917L56.7685 32.377C56.7946 32.4812 56.8206 32.5918 56.8401 32.696L52.7985 27.4106C52.779 27.3 52.7595 27.1958 52.727 27.0917Z" fill="#3F926E"/>
<path d="M53.7547 26.6465L57.7963 31.9318C57.5815 32.0945 57.3668 32.2638 57.1585 32.433L53.1169 27.1477C53.3317 26.9784 53.5399 26.8092 53.7547 26.6465Z" fill="#BBBBBB"/>
<path d="M53.1236 27.1477L57.1652 32.433C57.0611 32.5176 56.9504 32.6088 56.8463 32.6934L52.8047 27.4081C52.9088 27.3169 53.013 27.2323 53.1236 27.1477Z" fill="#C0C0C0"/>
<path d="M57.5306 24.3682L61.5722 29.6535C61.3444 29.7576 61.1166 29.8683 60.8953 29.9855L56.8537 24.7001C57.0815 24.583 57.3093 24.4723 57.5306 24.3682Z" fill="#9D9D9D"/>
<path d="M56.8538 24.7001L60.8953 29.9854C60.6806 30.096 60.4658 30.2132 60.251 30.3304L56.2095 25.045C56.4242 24.9214 56.639 24.8107 56.8538 24.7001Z" fill="#A2A2A2"/>
<path d="M56.2091 25.0452L60.2506 30.3305C60.0489 30.4412 59.8471 30.5583 59.6454 30.682C59.6389 30.6885 59.6324 30.6885 59.6258 30.695L55.5843 25.4097C55.5908 25.4032 55.5973 25.4032 55.6038 25.3966C55.8055 25.273 56.0073 25.1558 56.2091 25.0452Z" fill="#A7A7A7"/>
<path d="M55.5842 25.4097L59.6258 30.695C59.4175 30.8187 59.2157 30.9489 59.0205 31.079L54.9789 25.7937C55.1742 25.657 55.3759 25.5333 55.5842 25.4097Z" fill="#ACACAC"/>
<path d="M54.9797 25.7871L59.0213 31.0724C58.8195 31.2091 58.6178 31.3458 58.416 31.4825L54.3745 26.1972C54.5697 26.0605 54.7714 25.9238 54.9797 25.7871Z" fill="#B1B1B1"/>
<path d="M54.3739 26.1971L58.4155 31.4824C58.2072 31.6321 57.999 31.7753 57.8037 31.9316L53.7622 26.6463C53.9574 26.4965 54.1657 26.3469 54.3739 26.1971Z" fill="#B6B6B6"/>
<path d="M53.7557 26.6464L57.7973 31.9317C57.5826 32.0944 57.3678 32.2636 57.1595 32.4329L53.118 27.1476C53.3327 26.9783 53.541 26.8091 53.7557 26.6464Z" fill="#BBBBBB"/>
<path d="M39.9849 41.2656L44.0265 46.5509C43.3561 45.6722 42.4515 45.1124 41.3125 44.8781C40.473 44.7024 39.5488 44.7154 38.6051 44.8456C38.3448 44.8846 38.078 44.9302 37.8111 44.9823L33.7696 39.6969C34.0364 39.6448 34.2967 39.5928 34.5636 39.5602C35.5072 39.4301 36.4314 39.417 37.271 39.5928C38.4099 39.8271 39.3145 40.3869 39.9849 41.2656Z" fill="#2C664D"/>
<path d="M33.7698 39.697L37.8114 44.9823C37.4014 45.0669 36.9979 45.1711 36.5944 45.2883L32.5528 40.0029C32.9563 39.8858 33.3663 39.7816 33.7698 39.697Z" fill="#2E6A50"/>
<path d="M32.5528 40.0029L36.5944 45.2883C36.321 45.3664 36.0542 45.451 35.7809 45.5421C35.6832 45.5747 35.5791 45.6072 35.4815 45.6462L31.4399 40.3609C31.5375 40.3284 31.6351 40.2893 31.7393 40.2568C32.0061 40.1657 32.2795 40.081 32.5528 40.0029Z" fill="#306E53"/>
<path d="M31.4467 40.3608L35.4883 45.6462C35.1108 45.7763 34.7464 45.9195 34.3884 46.0692L30.3468 40.7839C30.7048 40.6342 31.0692 40.491 31.4467 40.3608Z" fill="#317256"/>
<path d="M30.3463 40.7839L34.3879 46.0693C34.0039 46.2255 33.6329 46.3882 33.2815 46.5509L29.2399 41.2656C29.5913 41.1029 29.9623 40.9402 30.3463 40.7839Z" fill="#337659"/>
<path d="M29.2404 41.2656L33.282 46.5509C33.0151 46.6746 32.7613 46.7983 32.514 46.9154C32.3838 46.9805 32.2602 47.0391 32.1365 47.1042L28.0949 41.8189C28.2186 41.7538 28.3422 41.6952 28.4724 41.6301C28.7197 41.513 28.9736 41.3893 29.2404 41.2656Z" fill="#357A5C"/>
<path d="M28.0946 41.8188L32.1362 47.1042C31.7587 47.2995 31.4137 47.4817 31.1144 47.6509L27.0728 42.3656C27.3722 42.1964 27.7171 42.0141 28.0946 41.8188Z" fill="#367E5F"/>
<path d="M27.0727 42.3657L31.1143 47.651C31.0362 47.6966 30.9581 47.7421 30.88 47.7812L26.8384 42.4959C26.9165 42.4568 26.9946 42.4113 27.0727 42.3657Z" fill="#388262"/>
<path d="M32.4726 42.8865L36.5142 48.1653L35.4143 49.5777L31.3727 44.2924L32.4726 42.8865Z" fill="#DFDFDF"/>
<path d="M57.5291 24.3683L61.5707 29.6536C61.3429 29.7578 61.1151 29.8684 60.8938 29.9856L56.8522 24.7003C57.08 24.5831 57.3078 24.4724 57.5291 24.3683Z" fill="#9D9D9D"/>
<path d="M40.1602 35.1406L44.2018 40.426L45.3798 42.0467L41.3382 36.7679L40.1602 35.1406Z" fill="#A2A2A2"/>
<path d="M41.3366 36.7679L45.3782 42.0533C45.3782 42.0598 45.3847 42.0598 45.3847 42.0663L41.3431 36.781C41.3366 36.7745 41.3366 36.7679 41.3366 36.7679Z" fill="#A2A2A2"/>
<path d="M48.9711 27.2517L53.0127 32.537C53.0452 32.5761 53.0713 32.6151 53.0973 32.6542L49.0557 27.3689C49.0297 27.3298 49.0036 27.2908 48.9711 27.2517Z" fill="#A2A2A2"/>
<path d="M49.0627 27.3693L53.1042 32.6546C53.1758 32.7587 53.2409 32.8629 53.306 32.967L49.2644 27.6817C49.1993 27.5776 49.1342 27.4734 49.0627 27.3693Z" fill="#A7A7A7"/>
<path d="M49.2642 27.6879L53.3057 32.9732C53.3643 33.0773 53.4229 33.188 53.475 33.3052L49.4334 28.0198C49.3813 27.9027 49.3227 27.792 49.2642 27.6879Z" fill="#ACACAC"/>
<path d="M49.4328 28.0198L53.4744 33.3051C53.4939 33.3506 53.5134 33.3962 53.5329 33.4418C53.5655 33.5134 53.5915 33.585 53.6175 33.6566L49.576 28.3713C49.5499 28.2997 49.5239 28.2281 49.4913 28.1565C49.4718 28.1044 49.4523 28.0588 49.4328 28.0198Z" fill="#B1B1B1"/>
<path d="M49.5763 28.3713L53.6179 33.6567C53.6635 33.7738 53.696 33.8975 53.7285 34.0277L49.687 28.7423C49.6544 28.6122 49.6154 28.4885 49.5763 28.3713Z" fill="#B6B6B6"/>
<path d="M49.687 28.7358L53.7286 34.0211C53.7611 34.1513 53.7937 34.2815 53.8132 34.4182L49.7716 29.1329C49.7521 28.9962 49.7196 28.866 49.687 28.7358Z" fill="#BBBBBB"/>
<path d="M49.7718 29.1329L53.8133 34.4183C53.8394 34.5614 53.8524 34.7046 53.8654 34.8544L49.8238 29.569C49.8173 29.4193 49.7978 29.2761 49.7718 29.1329Z" fill="#C0C0C0"/>
<path d="M49.8297 29.569L53.8713 34.8543C53.8843 34.9975 53.8908 35.1472 53.8908 35.3034C53.8908 35.3229 53.8908 35.349 53.8908 35.3685L49.8492 30.0832C49.8492 30.0637 49.8492 30.0376 49.8492 30.0181C49.8427 29.8619 49.8362 29.7122 49.8297 29.569Z" fill="#C5C5C5"/>
<path d="M49.8432 30.0833L53.8847 35.3686C53.8847 35.4597 53.8847 35.5508 53.8782 35.642L49.8366 30.3566C49.8431 30.2655 49.8432 30.1744 49.8432 30.0833Z" fill="#CACACA"/>
<path d="M49.8443 30.0831L53.8859 35.3685C53.8859 35.4596 53.8859 35.5507 53.8794 35.6418L49.8378 30.3565C49.8443 30.2654 49.8443 30.1743 49.8443 30.0831Z" fill="#CACACA"/>
<path d="M58.2657 24.0493L62.3073 29.3346C62.06 29.4323 61.8192 29.5429 61.5719 29.6536L57.5303 24.3683C57.7776 24.2576 58.0184 24.147 58.2657 24.0493Z" fill="#989898"/>
<path d="M57.5301 24.3683L61.5716 29.6536C61.3439 29.7578 61.1161 29.8684 60.8948 29.9856L56.8532 24.7003C57.081 24.5831 57.3088 24.4724 57.5301 24.3683Z" fill="#9D9D9D"/>
<path d="M31.3745 44.2924L35.4161 49.5777L34.4593 50.8144L30.4178 45.5291L31.3745 44.2924Z" fill="#DFDFDF"/>
<path d="M44.5332 33.0968L48.5748 38.3821C48.5748 38.3886 48.5813 38.3886 48.5813 38.3951L44.5397 33.1098C44.5397 33.1033 44.5332 33.0968 44.5332 33.0968Z" fill="#388262"/>
<path d="M44.5393 33.1099L48.5809 38.3952C48.6004 38.4212 48.6134 38.4538 48.6264 38.4863L44.5848 33.201C44.5718 33.1684 44.5588 33.1359 44.5393 33.1099Z" fill="#3A8665"/>
<path d="M44.5851 33.2009L48.6267 38.4862C48.6397 38.5188 48.6527 38.5513 48.6658 38.5839L44.6242 33.2986C44.6177 33.2595 44.6046 33.227 44.5851 33.2009Z" fill="#3B8A68"/>
<path d="M44.624 33.2921L48.6656 38.5774C48.6786 38.61 48.6852 38.6425 48.6982 38.6751L44.6566 33.3897C44.6501 33.3572 44.637 33.3247 44.624 33.2921Z" fill="#3D8E6B"/>
<path d="M44.6569 33.3962L48.6985 38.6816C48.705 38.7141 48.718 38.7532 48.7245 38.7922L44.6829 33.5069C44.6764 33.4678 44.6634 33.4288 44.6569 33.3962Z" fill="#3F926E"/>
<path d="M44.6828 33.5004L48.7244 38.7857C48.7309 38.8247 48.7374 38.8638 48.7374 38.9028L44.6959 33.6175C44.6894 33.5785 44.6893 33.5394 44.6828 33.5004Z" fill="#419671"/>
<path d="M44.6958 33.6176L48.7374 38.9029C48.7439 38.9484 48.7439 38.9875 48.7439 39.033L44.7023 33.7477C44.7023 33.7022 44.6958 33.6631 44.6958 33.6176Z" fill="#429A74"/>
<path d="M44.7023 33.7477L48.7439 39.033C48.7439 39.0786 48.7439 39.1306 48.7374 39.1827L44.6958 33.8974C44.6958 33.8453 44.7023 33.7998 44.7023 33.7477Z" fill="#449E77"/>
<path d="M44.6959 33.8975L48.7375 39.1828C48.731 39.2413 48.7245 39.2999 48.7114 39.3585L44.6699 34.0732C44.6764 34.0146 44.6894 33.956 44.6959 33.8975Z" fill="#46A27A"/>
<path d="M44.6701 34.0797L48.7116 39.365C48.7051 39.3846 48.7051 39.4041 48.6986 39.4236C48.6856 39.4822 48.6661 39.5408 48.6531 39.6059C48.6531 39.6189 48.6466 39.6254 48.6466 39.6384L44.605 34.3531C44.605 34.3401 44.6115 34.3336 44.6115 34.3205C44.631 34.262 44.644 34.1969 44.6571 34.1383C44.6571 34.1188 44.6636 34.0992 44.6701 34.0797Z" fill="#47A57D"/>
<path d="M44.5981 34.3466L48.6397 39.6319C48.6267 39.6644 48.6137 39.7035 48.6007 39.7425C48.4965 40.0289 48.3338 40.3153 48.1321 40.5822L44.0905 35.2969C44.2922 35.03 44.4549 34.7436 44.559 34.4572C44.5721 34.4182 44.5851 34.3856 44.5981 34.3466Z" fill="#49A980"/>
<path d="M44.0907 35.2969L48.1323 40.5822C48.0737 40.6603 48.0086 40.7384 47.9435 40.8165L43.9019 35.5312C43.967 35.4531 44.0321 35.375 44.0907 35.2969Z" fill="#47A57D"/>
<path d="M43.9021 35.5311L47.9436 40.8164C47.8916 40.875 47.8395 40.9336 47.7809 40.9922L43.7393 35.7069C43.7979 35.6483 43.85 35.5897 43.9021 35.5311Z" fill="#46A27A"/>
<path d="M43.7455 35.7069L47.7871 40.9922C47.7415 41.0443 47.6894 41.0899 47.6374 41.1354L43.5958 35.8501C43.6479 35.8045 43.6934 35.759 43.7455 35.7069Z" fill="#449E77"/>
<path d="M43.5959 35.8567L47.6375 41.142C47.6114 41.168 47.5854 41.1941 47.5594 41.2136C47.5334 41.2331 47.5138 41.2592 47.4878 41.2787L43.4462 35.9934C43.4722 35.9738 43.4918 35.9543 43.5178 35.9283C43.5438 35.9023 43.5699 35.8762 43.5959 35.8567Z" fill="#429A74"/>
<path d="M43.4461 35.9933L47.4877 41.2786C47.4487 41.3112 47.4161 41.3437 47.3771 41.3698L43.3355 36.0844C43.3746 36.0519 43.4071 36.0258 43.4461 35.9933Z" fill="#419671"/>
<path d="M43.3356 36.0845L47.3772 41.3698C47.3707 41.3763 47.3577 41.3828 47.3512 41.3893L43.3096 36.104C43.3161 36.0975 43.3226 36.091 43.3356 36.0845Z" fill="#3F926E"/>
<path d="M43.3094 36.104L47.351 41.3893L46.8564 41.8124L42.8148 36.5271L43.3094 36.104Z" fill="#459F78"/>
<path d="M42.8142 36.5271L46.8557 41.8124L46.7516 41.897L42.71 36.6182L42.8142 36.5271Z" fill="#459F78"/>
<path d="M42.712 36.6182L46.7536 41.9035C46.7405 41.9165 46.7275 41.923 46.7145 41.936L42.6729 36.6507C42.6859 36.6377 42.6989 36.6247 42.712 36.6182Z" fill="#3F926E"/>
<path d="M42.6731 36.6442L46.7146 41.9295C46.6951 41.9425 46.6821 41.9555 46.6626 41.9686L42.621 36.6832C42.6406 36.6702 42.6536 36.6572 42.6731 36.6442Z" fill="#3D8E6B"/>
<path d="M42.6204 36.6832L46.662 41.9686C46.6424 41.9816 46.6294 41.9946 46.6099 42.0076L42.5683 36.7223C42.5813 36.7093 42.6009 36.6962 42.6204 36.6832Z" fill="#3B8A68"/>
<path d="M42.5685 36.7223L46.6101 42.0076C46.5906 42.0206 46.571 42.0336 46.558 42.0401L42.5164 36.7548C42.5294 36.7418 42.549 36.7353 42.5685 36.7223Z" fill="#3A8665"/>
<path d="M42.5101 36.7549L46.5517 42.0402C46.5322 42.0532 46.5126 42.0597 46.4931 42.0727L42.4515 36.7874C42.4776 36.7809 42.4971 36.7679 42.5101 36.7549Z" fill="#388262"/>
<path d="M42.4582 36.7874L46.4998 42.0727C46.4803 42.0857 46.4608 42.0922 46.4412 42.1052L42.3997 36.8199C42.4192 36.8069 42.4387 36.8004 42.4582 36.7874Z" fill="#367E5F"/>
<path d="M42.3994 36.8199L46.441 42.1053C46.4215 42.1183 46.402 42.1248 46.3824 42.1378L42.3409 36.8525C42.3604 36.8395 42.3799 36.8265 42.3994 36.8199Z" fill="#357A5C"/>
<path d="M42.3411 36.8459L46.3827 42.1313C46.3632 42.1443 46.3371 42.1508 46.3176 42.1573L42.276 36.872C42.2955 36.8655 42.315 36.859 42.3411 36.8459Z" fill="#337659"/>
<path d="M42.2758 36.8785L46.3174 42.1639C46.2914 42.1704 46.2718 42.1834 46.2458 42.1899L42.2042 36.9046C42.2237 36.8981 42.2498 36.885 42.2758 36.8785Z" fill="#317256"/>
<path d="M42.2045 36.9045L46.2461 42.1899C46.22 42.1964 46.194 42.2094 46.168 42.2159L42.1264 36.9306C42.1524 36.9241 42.1785 36.9111 42.2045 36.9045Z" fill="#306E53"/>
<path d="M42.1194 36.9307L46.161 42.216C46.1284 42.2225 46.0959 42.2355 46.0633 42.242L42.0218 36.9567C42.0543 36.9502 42.0868 36.9372 42.1194 36.9307Z" fill="#2E6A50"/>
<path d="M42.0219 36.9571L46.0635 42.2424C46.0374 42.2489 46.0114 42.2489 45.9919 42.2555C45.8813 42.2685 45.7836 42.2685 45.699 42.2489C45.5689 42.2229 45.4647 42.1578 45.3931 42.0667L41.3516 36.7814C41.4232 36.8725 41.5208 36.9311 41.6574 36.9636C41.7421 36.9832 41.8462 36.9831 41.9503 36.9701C41.9698 36.9636 41.9959 36.9571 42.0219 36.9571Z" fill="#2C664D"/>
<path d="M49.8379 30.3566L53.8795 35.6419L53.7298 36.7224L49.6882 31.4371L49.8379 30.3566Z" fill="#DFDFDF"/>
<path d="M61.4083 23.0859L65.4499 28.3712C65.0073 28.4624 64.5648 28.573 64.1222 28.6967L60.0807 23.4114C60.5167 23.2877 60.9593 23.1771 61.4083 23.0859Z" fill="#898989"/>
<path d="M60.081 23.4178L64.1226 28.7032C63.7907 28.8008 63.4653 28.905 63.1399 29.0221L59.0983 23.7368C59.4237 23.6196 59.7491 23.509 60.081 23.4178Z" fill="#8E8E8E"/>
<path d="M59.0912 23.7303L63.1328 29.0157C62.8529 29.1133 62.5796 29.2174 62.3063 29.3346L58.2646 24.0493C58.538 23.9386 58.8179 23.828 59.0912 23.7303Z" fill="#939393"/>
<path d="M58.265 24.0493L62.3066 29.3346C62.0593 29.4323 61.8185 29.5429 61.5712 29.6536L57.5296 24.3683C57.7769 24.2576 58.0177 24.147 58.265 24.0493Z" fill="#989898"/>
<path d="M23.8758 42.5804L27.9174 47.8658C27.8719 48.2172 27.8328 48.5622 27.8003 48.8942L23.7587 43.6089C23.7847 43.2769 23.8238 42.9319 23.8758 42.5804Z" fill="#CFCFCF"/>
<path d="M23.759 43.6089L27.8006 48.8942C27.7421 49.5125 27.716 50.0984 27.7095 50.6581L23.6679 45.3728C23.6679 44.8196 23.7004 44.2272 23.759 43.6089Z" fill="#CACACA"/>
<path d="M23.6679 45.3728L27.7095 50.6581C27.7095 51.1072 27.7225 51.5433 27.7551 51.9534L23.7135 46.6681C23.6809 46.258 23.6679 45.8284 23.6679 45.3728Z" fill="#C5C5C5"/>
<path d="M23.7137 46.6681L27.7553 51.9534C27.7814 52.3049 27.8269 52.6369 27.879 52.9623L23.8374 47.677C23.7853 47.358 23.7463 47.0196 23.7137 46.6681Z" fill="#C0C0C0"/>
<path d="M23.8374 47.677L27.879 52.9623C27.9246 53.2487 27.9831 53.5156 28.0547 53.7825L24.0131 48.4971C23.948 48.2303 23.8895 47.9634 23.8374 47.677Z" fill="#BBBBBB"/>
<path d="M24.0129 48.4971L28.0545 53.7824C28.1131 54.0167 28.1847 54.2445 28.2628 54.4658L24.2212 49.1805C24.1431 48.9592 24.078 48.7314 24.0129 48.4971Z" fill="#B6B6B6"/>
<path d="M24.2213 49.1741L28.2629 54.4594C28.3345 54.6612 28.4126 54.8565 28.4972 55.0452L24.4556 49.7599C24.371 49.5711 24.2929 49.3759 24.2213 49.1741Z" fill="#B1B1B1"/>
<path d="M24.4618 49.7599L28.5034 55.0452C28.588 55.2209 28.6726 55.3967 28.7702 55.5594L24.7286 50.2741C24.631 50.1114 24.5399 49.9421 24.4618 49.7599Z" fill="#ACACAC"/>
<path d="M24.722 50.2742L28.7636 55.5595C28.8547 55.7157 28.9524 55.8719 29.0565 56.0151L25.0149 50.7298C24.9108 50.5866 24.8132 50.4304 24.722 50.2742Z" fill="#A7A7A7"/>
<path d="M25.0152 50.7297L29.0568 56.0151C29.0959 56.0671 29.1349 56.1257 29.174 56.1778L25.1324 50.8925C25.0933 50.8404 25.0543 50.7818 25.0152 50.7297Z" fill="#A2A2A2"/>
<path d="M26.8446 42.4958L30.8862 47.7812C30.8862 47.8007 30.8797 47.8267 30.8797 47.8463L26.8381 42.5609C26.8381 42.5414 26.8446 42.5154 26.8446 42.4958Z" fill="#46A27A"/>
<path d="M26.8375 42.5618L30.8791 47.8471C30.8271 48.4069 30.801 48.9341 30.801 49.4353L26.7594 44.15C26.7594 43.6488 26.7855 43.1215 26.8375 42.5618Z" fill="#449E77"/>
<path d="M26.7593 44.1492L30.8009 49.4345C30.8009 49.8315 30.8139 50.2091 30.8399 50.567L26.7984 45.2817C26.7658 44.9172 26.7528 44.5397 26.7593 44.1492Z" fill="#429A74"/>
<path d="M26.7983 45.2753L30.8399 50.5606C30.866 50.86 30.8985 51.1464 30.9441 51.4198L26.9025 46.1345C26.8569 45.8611 26.8244 45.5747 26.7983 45.2753Z" fill="#419671"/>
<path d="M26.9021 46.1344L30.9437 51.4197C30.9827 51.6606 31.0348 51.8884 31.0869 52.1032L27.0453 46.8178C26.9932 46.5965 26.9411 46.3687 26.9021 46.1344Z" fill="#3F926E"/>
<path d="M27.0526 46.8179L31.0942 52.1032C31.1462 52.2985 31.2048 52.4872 31.2634 52.663L27.2218 47.3776C27.1567 47.1954 27.0981 47.0131 27.0526 46.8179Z" fill="#3D8E6B"/>
<path d="M27.2212 47.3776L31.2628 52.6629C31.3213 52.8256 31.3864 52.9818 31.4515 53.1315L27.4099 47.8462C27.3448 47.6965 27.2798 47.5403 27.2212 47.3776Z" fill="#3B8A68"/>
<path d="M27.4097 47.8463L31.4513 53.1316C31.5164 53.2748 31.588 53.4115 31.6596 53.5352L27.618 48.2499C27.5464 48.1262 27.4748 47.9895 27.4097 47.8463Z" fill="#3A8665"/>
<path d="M27.6181 48.2563L31.6597 53.5417C31.7313 53.6653 31.8094 53.7825 31.8875 53.8997L27.8459 48.6143C27.7678 48.4972 27.6897 48.38 27.6181 48.2563Z" fill="#388262"/>
<path d="M27.8464 48.6078L31.888 53.8931C31.9205 53.9387 31.9466 53.9777 31.9791 54.0168L27.9376 48.7315C27.9115 48.6924 27.879 48.6534 27.8464 48.6078Z" fill="#367E5F"/>
<path d="M49.689 31.437L53.7305 36.7223C53.698 36.8786 53.6589 37.0348 53.6134 37.191C53.5873 37.2756 53.5613 37.3602 53.5353 37.4513L49.4937 32.166C49.5197 32.0814 49.5458 31.9968 49.5718 31.9057C49.6174 31.7494 49.6564 31.5932 49.689 31.437Z" fill="#D5D5D5"/>
<path d="M49.4997 32.166L53.5413 37.4513C53.5023 37.5815 53.4567 37.7052 53.4111 37.8354C53.2484 38.2845 53.0532 38.7336 52.8189 39.1697C52.4935 39.7946 52.103 40.4064 51.6605 40.9987L47.6189 35.7134C48.0615 35.1211 48.4519 34.5093 48.7773 33.8844C49.0051 33.4418 49.2069 32.9992 49.3696 32.55C49.4151 32.4199 49.4607 32.2897 49.4997 32.166Z" fill="#DADADA"/>
<path d="M49.4997 32.166L53.5413 37.4513C53.5022 37.5815 53.4566 37.7052 53.4111 37.8354C53.2484 38.2845 53.0531 38.7336 52.8188 39.1697C52.4934 39.7946 52.1029 40.4064 51.6604 40.9987L47.6188 35.7134C48.0614 35.1211 48.4519 34.5093 48.7773 33.8844C49.0051 33.4418 49.2068 32.9992 49.3695 32.55C49.4151 32.4199 49.4606 32.2897 49.4997 32.166Z" fill="#DADADA"/>
<path d="M42.7883 39.1047L46.8299 44.39C45.9513 43.2445 44.7408 42.5089 43.1984 42.19C42.7818 42.1054 42.3458 42.0533 41.9098 42.0273L37.8682 36.7419C38.3042 36.768 38.7403 36.8201 39.1568 36.9047C40.6992 37.2236 41.9097 37.9591 42.7883 39.1047Z" fill="#848484"/>
<path d="M49.4987 32.1661L53.5403 37.4515C53.5012 37.5816 53.4557 37.7053 53.4101 37.8355C53.2474 38.2846 53.0522 38.7337 52.8179 39.1698C52.4925 39.7947 52.102 40.4065 51.6594 40.9989L47.6179 35.7135C48.0604 35.1212 48.4509 34.5094 48.7763 33.8845C49.0041 33.4419 49.2059 32.9993 49.3686 32.5502C49.4141 32.42 49.4597 32.2898 49.4987 32.1661Z" fill="#DADADA"/>
<path d="M47.6246 35.7201L51.6662 41.0054C51.4449 41.2983 51.2106 41.5912 50.9633 41.8711L46.9217 36.5858C47.169 36.2994 47.4033 36.013 47.6246 35.7201Z" fill="#D5D5D5"/>
<path d="M46.9212 36.5857L50.9628 41.871C50.9238 41.9101 50.8912 41.9556 50.8522 41.9947C50.6895 42.1769 50.5268 42.3527 50.3511 42.5349L46.3095 37.2496C46.4787 37.0739 46.6479 36.8916 46.8106 36.7094C46.8497 36.6703 46.8822 36.6247 46.9212 36.5857Z" fill="#CFCFCF"/>
<path d="M46.316 37.2496L50.3576 42.535C50.2665 42.6261 50.1819 42.7172 50.0908 42.8083C50.0061 42.8864 49.9281 42.9711 49.8435 43.0492L45.8018 37.7638C45.8865 37.6857 45.9646 37.6076 46.0492 37.523C46.1338 37.4319 46.2249 37.3408 46.316 37.2496Z" fill="#CACACA"/>
<path d="M42.79 39.1046L46.8316 44.3899C46.8771 44.4485 46.9227 44.5071 46.9682 44.5722L42.9267 39.2869C42.8811 39.2283 42.8355 39.1697 42.79 39.1046Z" fill="#367E5F"/>
<path d="M42.9208 39.2874L46.9624 44.5727C47.073 44.7289 47.1772 44.8916 47.2748 45.0608L43.2332 39.7755C43.1356 39.6063 43.0315 39.4436 42.9208 39.2874Z" fill="#388262"/>
<path d="M46.3165 37.2495L50.3581 42.5348C50.267 42.626 50.1824 42.7171 50.0913 42.8082C50.0067 42.8863 49.9286 42.9709 49.844 43.0491L45.8024 37.7637C45.887 37.6856 45.9651 37.6075 46.0497 37.5229C46.1343 37.4318 46.2254 37.3406 46.3165 37.2495Z" fill="#CACACA"/>
<path d="M45.7964 37.7572L49.838 43.0425C49.6687 43.2052 49.493 43.3615 49.3173 43.5177L45.2757 38.2324C45.4514 38.0761 45.6272 37.9199 45.7964 37.7572Z" fill="#C5C5C5"/>
<path d="M45.2753 38.2324L49.3169 43.5178C49.1542 43.661 48.9849 43.8042 48.8157 43.9408L44.7742 38.6555C44.9434 38.5188 45.1126 38.3756 45.2753 38.2324Z" fill="#C0C0C0"/>
<path d="M45.2743 38.2325L49.3159 43.5179C49.1532 43.6611 48.984 43.8043 48.8148 43.941L44.7732 38.6556C44.9424 38.5189 45.1116 38.3757 45.2743 38.2325Z" fill="#C0C0C0"/>
<path d="M44.7729 38.6555L48.8145 43.9408C48.6453 44.0775 48.4761 44.2142 48.3004 44.3444L44.2588 39.0591C44.428 38.9289 44.6037 38.7987 44.7729 38.6555Z" fill="#BBBBBB"/>
<path d="M44.7739 38.6555L48.8154 43.9408C48.6462 44.0775 48.477 44.2142 48.3013 44.3444L44.2597 39.0591C44.4289 38.9289 44.6047 38.7987 44.7739 38.6555Z" fill="#BBBBBB"/>
<path d="M44.2593 39.0591L48.3009 44.3444C48.1317 44.4681 47.9624 44.5917 47.7997 44.7089L43.7582 39.4236C43.9274 39.3064 44.0901 39.1828 44.2593 39.0591Z" fill="#B6B6B6"/>
<path d="M43.7586 39.4236L47.8002 44.7089C47.6375 44.8261 47.4683 44.9367 47.2991 45.0474L43.2575 39.7621C43.4267 39.6579 43.5894 39.5407 43.7586 39.4236Z" fill="#B1B1B1"/>
<path d="M43.2571 39.7621L47.2987 45.0474C47.2922 45.0539 47.2857 45.0539 47.2792 45.0604L43.2376 39.7751C43.2441 39.7751 43.2506 39.7686 43.2571 39.7621Z" fill="#ACACAC"/>
<path d="M34.0804 50.1245L38.1219 55.4098C37.8356 55.4683 37.5492 55.5204 37.2628 55.5595C36.1499 55.7157 35.0761 55.7092 34.1519 55.4553C33.2473 55.2015 32.5249 54.7263 31.9847 54.0234L27.9431 48.738C28.4833 49.441 29.2057 49.9227 30.1104 50.17C31.041 50.4304 32.1084 50.4304 33.2213 50.2742C33.5011 50.2351 33.7875 50.183 34.0804 50.1245Z" fill="#848484"/>
<path d="M52.7864 30.363L56.828 35.6484C56.8215 35.6679 56.8215 35.6874 56.815 35.707L52.7734 30.4216C52.7799 30.4021 52.7864 30.3826 52.7864 30.363Z" fill="#46A27A"/>
<path d="M52.7796 30.4216L56.8212 35.707C56.7496 36.091 56.652 36.488 56.5218 36.8981L52.4802 31.6128C52.6039 31.2027 52.7015 30.8057 52.7796 30.4216Z" fill="#47A57D"/>
<path d="M52.4801 31.6128L56.5217 36.8981C56.4696 37.0739 56.4111 37.2496 56.346 37.4254C56.1247 38.0372 55.8579 38.636 55.5455 39.2349L51.5039 33.9495C51.8163 33.3507 52.0831 32.7519 52.3044 32.14C52.3695 31.9643 52.4281 31.782 52.4801 31.6128Z" fill="#49A980"/>
<path d="M37.8814 44.5072L41.9295 49.7925L36.5147 48.1653L32.4731 42.8865L37.8814 44.5072Z" fill="#7F7F7F"/>
<path d="M70.4421 23.5611L74.4837 28.8464C71.7502 28.0458 69.0884 27.8245 66.5177 28.189C66.1597 28.2411 65.8017 28.2997 65.4438 28.3778L61.4022 23.0925C61.7602 23.0209 62.1181 22.9558 62.4761 22.9037C65.0468 22.5392 67.7087 22.7605 70.4421 23.5611Z" fill="#848484"/>
<path d="M61.4085 23.0859L65.4501 28.3713C65.0076 28.4624 64.565 28.573 64.1225 28.6967L60.0809 23.4114C60.5169 23.2877 60.9595 23.1771 61.4085 23.0859Z" fill="#898989"/>
<path d="M67.5852 25.989L71.6268 31.2743C69.5051 30.7471 67.481 30.6169 65.5676 30.8903C65.2813 30.9293 65.0014 30.9814 64.7216 31.0335L60.68 25.7482C60.9598 25.6896 61.2397 25.644 61.526 25.605C63.4395 25.3316 65.4635 25.4618 67.5852 25.989Z" fill="#2C664D"/>
<path d="M60.6801 25.7482L64.7216 31.0335C64.3767 31.1051 64.0318 31.1897 63.6934 31.2874L59.6518 26.002C59.9902 25.9044 60.3352 25.8198 60.6801 25.7482Z" fill="#2E6A50"/>
<path d="M59.6513 26.0021L63.6929 31.2874C63.4391 31.359 63.1918 31.4371 62.9445 31.5282L58.9029 26.2429C59.1502 26.1583 59.3975 26.0737 59.6513 26.0021Z" fill="#306E53"/>
<path d="M58.9033 26.2429L62.9449 31.5282C62.7366 31.5998 62.5348 31.6779 62.3331 31.7626L58.2915 26.4772C58.4933 26.3926 58.7015 26.3145 58.9033 26.2429Z" fill="#317256"/>
<path d="M58.2912 26.4772L62.3328 31.7625C62.1506 31.8341 61.9748 31.9122 61.7926 31.9968L57.751 26.7115C57.9333 26.6334 58.109 26.5553 58.2912 26.4772Z" fill="#337659"/>
<path d="M57.7514 26.7115L61.793 31.9969C61.6303 32.075 61.4676 32.1531 61.3049 32.2377L57.2633 26.9524C57.426 26.8678 57.5887 26.7897 57.7514 26.7115Z" fill="#357A5C"/>
<path d="M57.2636 26.9524L61.3052 32.2377C61.149 32.3158 60.9993 32.4004 60.8431 32.4851L56.8015 27.1997C56.9577 27.1151 57.1074 27.0305 57.2636 26.9524Z" fill="#367E5F"/>
<path d="M56.8013 27.1997L60.8429 32.485C60.6997 32.5631 60.5566 32.6477 60.4134 32.7324C60.4069 32.7324 60.4069 32.7389 60.4003 32.7389L56.3588 27.4536C56.3653 27.4536 56.3653 27.4471 56.3718 27.4471C56.515 27.3624 56.6581 27.2778 56.8013 27.1997Z" fill="#388262"/>
<path d="M56.3585 27.4536L60.4001 32.7389C60.2504 32.83 60.1007 32.9212 59.9575 33.0188L55.916 27.7335C56.0592 27.6359 56.2088 27.5447 56.3585 27.4536Z" fill="#3A8665"/>
<path d="M55.9163 27.7334L59.9578 33.0187C59.8081 33.1163 59.6584 33.2205 59.5088 33.3181L55.4672 28.0328C55.6169 27.9352 55.7666 27.831 55.9163 27.7334Z" fill="#3B8A68"/>
<path d="M55.467 28.0393L59.5086 33.3246C59.3524 33.4353 59.2027 33.5459 59.053 33.6566L55.0114 28.3713C55.1611 28.2541 55.3173 28.1435 55.467 28.0393Z" fill="#3D8E6B"/>
<path d="M55.0109 28.3713L59.0525 33.6567C58.8898 33.7803 58.7336 33.904 58.5774 34.0277L54.5358 28.7423C54.692 28.6187 54.8482 28.4885 55.0109 28.3713Z" fill="#3F926E"/>
<path d="M54.5358 28.7423L58.5774 34.0276C58.4082 34.1708 58.239 34.3075 58.0698 34.4572L54.0282 29.1719C54.1974 29.0287 54.3666 28.8855 54.5358 28.7423Z" fill="#419671"/>
<path d="M54.0288 29.1719L58.0704 34.4572C57.8816 34.6264 57.6929 34.7892 57.5172 34.9649L53.4756 29.6796C53.6578 29.5038 53.8401 29.3346 54.0288 29.1719Z" fill="#429A74"/>
<path d="M53.4752 29.6796L57.5168 34.9649C57.2955 35.1732 57.0873 35.3815 56.879 35.5963L52.8374 30.3109C53.0457 30.0961 53.254 29.8813 53.4752 29.6796Z" fill="#449E77"/>
<path d="M52.8376 30.3109L56.8792 35.5962C56.8597 35.6158 56.8467 35.6288 56.8271 35.6483L52.7856 30.363C52.8051 30.3435 52.8246 30.3239 52.8376 30.3109Z" fill="#46A27A"/>
<path d="M60.8942 28.4233L64.9358 33.7022L55.5445 39.2283L51.5029 33.9495L60.8942 28.4233Z" fill="#B6B6B6"/>
<path d="M39.9834 41.2656L44.025 46.5509C44.0575 46.59 44.0901 46.6356 44.1161 46.6746C44.1226 46.6811 44.1226 46.6876 44.1291 46.6941L40.0875 41.4088C40.081 41.4023 40.081 41.3958 40.0745 41.3893C40.0485 41.3437 40.0159 41.3047 39.9834 41.2656Z" fill="#A2A2A2"/>
<path d="M40.0938 41.4092L44.1353 46.6945C44.233 46.8247 44.3176 46.9679 44.4022 47.1111L40.3606 41.8258C40.276 41.6826 40.1849 41.5394 40.0938 41.4092Z" fill="#A7A7A7"/>
<path d="M40.361 41.8253L44.4025 47.1106C44.4936 47.2669 44.5717 47.4231 44.6498 47.5923L40.6083 42.307C40.5302 42.1443 40.4456 41.9815 40.361 41.8253Z" fill="#ACACAC"/>
<path d="M40.6083 42.3136L44.6499 47.5989C44.7345 47.7811 44.8126 47.9699 44.8841 48.1717L40.8426 42.8864C40.771 42.6846 40.6929 42.4893 40.6083 42.3136Z" fill="#B1B1B1"/>
<path d="M40.8418 42.8799L44.8834 48.1652C44.9484 48.3409 45.007 48.5297 45.0591 48.725C45.0721 48.764 45.0786 48.8031 45.0916 48.8356L41.05 43.5503C41.037 43.5113 41.0305 43.4722 41.0175 43.4397C40.9589 43.2444 40.9003 43.0621 40.8418 42.8799Z" fill="#B6B6B6"/>
<path d="M41.0441 43.5568L45.0857 48.8421C45.1573 49.1155 45.2159 49.4084 45.2679 49.7078L41.2264 44.4225C41.1808 44.1165 41.1157 43.8301 41.0441 43.5568Z" fill="#BBBBBB"/>
<path d="M41.2326 44.4225L45.2742 49.7078C45.3328 50.0593 45.3784 50.4238 45.4109 50.8143L41.3693 45.529C41.3368 45.1385 41.2912 44.774 41.2326 44.4225Z" fill="#C0C0C0"/>
<path d="M41.3693 45.5226L45.4108 50.8079C45.4108 50.8144 45.4108 50.8275 45.4108 50.834L41.3693 45.5486C41.3693 45.5421 41.3693 45.5356 41.3693 45.5226Z" fill="#C5C5C5"/>
<path d="M41.3698 45.5552L45.4114 50.834L41.9295 49.7925L37.8814 44.5072L41.3698 45.5552Z" fill="#7F7F7F"/>
<path d="M39.4641 48.2433L43.5057 53.5286L34.4593 50.8144L30.4178 45.5291L39.4641 48.2433Z" fill="#2B634B"/>
<path d="M36.7349 49.3694L40.7765 54.6547C40.3534 54.8044 39.9239 54.9476 39.4879 55.0713L35.4463 49.786C35.8758 49.6623 36.3119 49.5191 36.7349 49.3694Z" fill="#8E8E8E"/>
<path d="M35.4466 49.786L39.4882 55.0713C39.0326 55.2015 38.5771 55.3187 38.1215 55.4098L34.0799 50.1245C34.529 50.0334 34.9911 49.9162 35.4466 49.786Z" fill="#898989"/>
<path d="M34.0804 50.1245L38.1219 55.4098C37.8356 55.4683 37.5492 55.5204 37.2628 55.5595C36.1499 55.7157 35.0761 55.7092 34.1519 55.4553C33.2473 55.2015 32.5249 54.7263 31.9847 54.0234L27.9431 48.738C28.4833 49.441 29.2057 49.9227 30.1104 50.17C31.041 50.4304 32.1084 50.4304 33.2213 50.2742C33.5011 50.2351 33.7875 50.183 34.0804 50.1245Z" fill="#848484"/>
<path d="M60.8956 28.4233L64.9372 33.7022L65.6531 35.7915L61.6115 30.5062L60.8956 28.4233Z" fill="#3F926E"/>
<path d="M61.6114 30.5062L65.653 35.7915L54.0684 42.6065L50.0203 37.3212L61.6114 30.5062Z" fill="#3D8E6B"/>
<path d="M71.1962 23.7825L75.2378 29.0678L74.4828 28.8465L70.4413 23.5612L71.1962 23.7825Z" fill="#7F7F7F"/>
<path d="M39.463 48.2434L43.5045 53.5287C43.472 53.5418 43.4395 53.5613 43.4069 53.5743L39.3654 48.289C39.3979 48.2759 39.4304 48.2564 39.463 48.2434Z" fill="#9D9D9D"/>
<path d="M39.3648 48.2889L43.4063 53.5743C42.9898 53.7695 42.5407 53.9648 42.0786 54.1536L38.0371 48.8683C38.4992 48.6795 38.9482 48.4842 39.3648 48.2889Z" fill="#989898"/>
<path d="M38.0312 48.8683L42.0728 54.1536C41.6563 54.3228 41.2202 54.4921 40.7711 54.6548L36.7296 49.3695C37.1786 49.2133 37.6147 49.044 38.0312 48.8683Z" fill="#939393"/>
<path d="M36.7357 49.3695L40.7773 54.6548C40.3543 54.8045 39.9248 54.9477 39.4887 55.0714L35.4471 49.7861C35.8767 49.6624 36.3127 49.5192 36.7357 49.3695Z" fill="#8E8E8E"/>
<path d="M71.1982 23.7823L75.2397 29.0677L74.9338 29.9464L70.8923 24.6676L71.1982 23.7823Z" fill="#4DB388"/>
<path d="M59.8728 35.1732L63.9144 40.4585C63.7582 40.5496 63.6085 40.6408 63.4523 40.7254L59.4107 35.4401C59.5669 35.362 59.7231 35.2709 59.8728 35.1732Z" fill="#A7A7A7"/>
<path d="M59.4107 35.4465L63.4522 40.7319C63.2895 40.823 63.1269 40.9076 62.9576 40.9922L58.916 35.7069C59.0853 35.6223 59.248 35.5377 59.4107 35.4465Z" fill="#A2A2A2"/>
<path d="M58.9226 35.7069L62.9641 40.9922C62.7884 41.0834 62.6127 41.168 62.437 41.2526L58.3954 35.9673C58.5647 35.8826 58.7469 35.798 58.9226 35.7069Z" fill="#9D9D9D"/>
<path d="M58.3893 35.9673L62.4309 41.2526C62.2357 41.3437 62.0404 41.4283 61.8387 41.5065L57.797 36.2211C57.9988 36.143 58.194 36.0584 58.3893 35.9673Z" fill="#989898"/>
<path d="M57.7964 36.2212L61.838 41.5065C61.6102 41.5976 61.3824 41.6888 61.1546 41.7669L57.113 36.4815C57.3473 36.4034 57.5751 36.3123 57.7964 36.2212Z" fill="#939393"/>
<path d="M57.1133 36.4814L61.1548 41.7668C60.875 41.8644 60.5951 41.9555 60.3088 42.0401L56.2672 36.7548C56.5536 36.6767 56.84 36.5856 57.1133 36.4814Z" fill="#8E8E8E"/>
<path d="M56.2735 36.7549L60.3151 42.0402C59.9246 42.1508 59.5276 42.2485 59.1241 42.3331L55.0825 37.0478C55.486 36.9697 55.883 36.872 56.2735 36.7549Z" fill="#898989"/>
<path d="M55.0827 37.0479L59.1243 42.3332C58.7924 42.3983 58.4539 42.4568 58.1155 42.5089C56.8204 42.6912 55.4732 42.7237 54.0609 42.6066L50.0193 37.3212C51.4251 37.4384 52.7788 37.4058 54.0739 37.2236C54.4124 37.178 54.7508 37.1195 55.0827 37.0479Z" fill="#848484"/>
<path d="M67.5842 25.989L71.6258 31.2743C71.1832 32.2637 70.3306 33.956 69.003 35.733L64.9614 30.4477C66.2891 28.6707 67.1416 26.9784 67.5842 25.989Z" fill="#DADADA"/>
<path d="M64.9613 30.4478L69.0029 35.7331C68.7035 36.1366 68.3781 36.5402 68.0267 36.9503L63.9851 31.6649C64.33 31.2614 64.6554 30.8513 64.9613 30.4478Z" fill="#D5D5D5"/>
<path d="M63.9784 31.6648L68.02 36.9501C67.7987 37.204 67.5644 37.4578 67.3236 37.7117L63.282 32.4263C63.5293 32.1725 63.7571 31.9186 63.9784 31.6648Z" fill="#CFCFCF"/>
<path d="M63.2888 32.4199L67.3304 37.7052C67.1417 37.9005 66.9399 38.1023 66.7382 38.2911L62.6966 33.0057C62.8983 32.817 63.0935 32.6217 63.2888 32.4199Z" fill="#CACACA"/>
<path d="M63.2897 32.4199L67.3313 37.7052C67.1426 37.9005 66.9408 38.1023 66.7391 38.2911L62.6975 33.0057C62.8992 32.817 63.0945 32.6217 63.2897 32.4199Z" fill="#CACACA"/>
<path d="M62.6971 33.0123L66.7387 38.2976C66.5695 38.4604 66.3938 38.6166 66.2116 38.7793L62.17 33.494C62.3522 33.3313 62.5279 33.1685 62.6971 33.0123Z" fill="#C5C5C5"/>
<path d="M62.1703 33.4874L66.2119 38.7727C66.0558 38.9094 65.893 39.0461 65.7238 39.1828L61.6822 33.8975C61.8514 33.7608 62.0141 33.6241 62.1703 33.4874Z" fill="#C0C0C0"/>
<path d="M61.6886 33.8975L65.7302 39.1828C65.5805 39.3065 65.4243 39.4301 65.2681 39.5473L61.2265 34.262C61.3827 34.1448 61.5324 34.0211 61.6886 33.8975Z" fill="#BBBBBB"/>
<path d="M61.2259 34.262L65.2675 39.5473C65.1178 39.6579 64.9681 39.7686 64.8184 39.8792L60.7768 34.5939C60.9265 34.4833 61.0762 34.3726 61.2259 34.262Z" fill="#B6B6B6"/>
<path d="M60.7706 34.5874L64.8122 39.8727C64.669 39.9769 64.5193 40.0745 64.3696 40.1721L60.328 34.8868C60.4777 34.7957 60.6274 34.6915 60.7706 34.5874Z" fill="#B1B1B1"/>
<path d="M60.3282 34.8933L64.3698 40.1786C64.3503 40.1916 64.3243 40.2047 64.3047 40.2177C64.1746 40.3023 64.0509 40.3804 63.9208 40.4585L59.8792 35.1732C60.0093 35.0951 60.1395 35.017 60.2632 34.9324C60.2827 34.9193 60.3022 34.9063 60.3282 34.8933Z" fill="#ACACAC"/>
<path d="M59.8726 35.1732L63.9142 40.4585C63.758 40.5496 63.6083 40.6408 63.4521 40.7254L59.4105 35.4401C59.5667 35.362 59.7229 35.2709 59.8726 35.1732Z" fill="#A7A7A7"/>
<path d="M40.6599 50.1245L44.7015 55.4098C44.3696 55.5725 44.0182 55.7418 43.6472 55.9175L39.6056 50.6322C39.9766 50.4565 40.328 50.2872 40.6599 50.1245Z" fill="#357A5C"/>
<path d="M39.6056 50.6322L43.6472 55.9175C43.1721 56.1388 42.6645 56.3601 42.1373 56.5749L38.0957 51.2896C38.6229 51.0683 39.1305 50.847 39.6056 50.6322Z" fill="#337659"/>
<path d="M38.0962 51.2896L42.1378 56.5749C41.6497 56.7767 41.142 56.9719 40.6214 57.1542L36.5798 51.8689C37.1005 51.6866 37.6081 51.4913 38.0962 51.2896Z" fill="#317256"/>
<path d="M36.5791 51.8689L40.6207 57.1542C40.113 57.3365 39.5989 57.4992 39.0717 57.6554L35.0302 52.3701C35.5573 52.2204 36.0715 52.0511 36.5791 51.8689Z" fill="#306E53"/>
<path d="M35.0303 52.3701L39.0719 57.6554C38.5122 57.8182 37.946 57.9614 37.3863 58.0785L33.3447 52.7932C33.9044 52.676 34.4706 52.5328 35.0303 52.3701Z" fill="#2E6A50"/>
<path d="M33.3449 52.7866L37.3865 58.0719C37.0221 58.1501 36.6576 58.2086 36.2996 58.2607C34.8418 58.4625 33.4165 58.4625 32.1474 58.111C30.8913 57.766 29.9021 57.1151 29.1797 56.1713L25.1381 50.886C25.8605 51.8298 26.8497 52.4807 28.1058 52.8257C29.3749 53.1772 30.8002 53.1837 32.2581 52.9754C32.616 52.9298 32.9805 52.8647 33.3449 52.7866Z" fill="#2C664D"/>
<path d="M47.1102 39.9053L51.1518 45.1906L48.5029 52.5718L44.4614 47.2865L47.1102 39.9053Z" fill="#4EB488"/>
<path d="M44.4626 47.2865L48.5042 52.5718L48.1918 53.4505L44.1502 48.1652L44.4626 47.2865Z" fill="#4EB488"/>
<path d="M70.891 24.6677L74.9326 29.953C74.8675 30.1483 73.8262 33.0709 71.3856 36.3384L67.3441 31.0531C69.7846 27.779 70.8259 24.8565 70.891 24.6677Z" fill="#49A980"/>
<path d="M67.3443 31.0465L71.3859 36.3318C71.0149 36.8265 70.6179 37.3277 70.1819 37.8289L66.1403 32.5436C66.5763 32.0424 66.9798 31.5412 67.3443 31.0465Z" fill="#47A57D"/>
<path d="M66.1399 32.5437L70.1815 37.829C69.8951 38.1545 69.6023 38.4864 69.2834 38.8119L65.2418 33.5266C65.5607 33.2011 65.8601 32.8692 66.1399 32.5437Z" fill="#46A27A"/>
<path d="M65.2488 33.5265L69.2903 38.8118C69.043 39.0657 68.7892 39.3195 68.5224 39.5734L64.4808 34.288C64.7476 34.0342 65.0015 33.7803 65.2488 33.5265Z" fill="#449E77"/>
<path d="M64.4802 34.2881L68.5217 39.5734C68.2939 39.7882 68.0662 40.003 67.8254 40.2113L63.7838 34.926C64.0246 34.7112 64.2589 34.4964 64.4802 34.2881Z" fill="#429A74"/>
<path d="M63.7843 34.9194L67.8259 40.2048C67.6112 40.3935 67.3899 40.5823 67.1621 40.7645L63.1205 35.4792C63.3483 35.297 63.5696 35.1082 63.7843 34.9194Z" fill="#419671"/>
<path d="M63.1265 35.4792L67.1681 40.7646C66.9664 40.9273 66.7581 41.09 66.5498 41.2462L62.5083 35.9609C62.7165 35.8047 62.9248 35.642 63.1265 35.4792Z" fill="#3F926E"/>
<path d="M62.5082 35.9608L66.5498 41.2461C66.348 41.3958 66.1398 41.5521 65.9315 41.6953L61.89 36.4099C62.0982 36.2667 62.3065 36.117 62.5082 35.9608Z" fill="#3D8E6B"/>
<path d="M61.8899 36.4165L65.9315 41.7018C65.7297 41.845 65.5215 41.9817 65.3132 42.1184L61.2716 36.8331C61.4799 36.6964 61.6882 36.5532 61.8899 36.4165Z" fill="#3B8A68"/>
<path d="M61.2717 36.833L65.3132 42.1183C65.2872 42.1313 65.2677 42.1509 65.2416 42.1639C65.0594 42.2811 64.8707 42.3982 64.6819 42.5154L60.6404 37.2301C60.8291 37.1194 61.0113 37.0022 61.2001 36.8786C61.2196 36.8655 61.2456 36.846 61.2717 36.833Z" fill="#3A8665"/>
<path d="M60.6404 37.2301L64.682 42.5154C64.4673 42.6456 64.2525 42.7693 64.0377 42.8864L59.9961 37.6011C60.2109 37.4839 60.4257 37.3603 60.6404 37.2301Z" fill="#388262"/>
<path d="M59.9963 37.6011L64.0379 42.8864C63.8166 43.0101 63.5953 43.1272 63.3675 43.2444L59.3259 37.9591C59.5537 37.8484 59.775 37.7247 59.9963 37.6011Z" fill="#367E5F"/>
<path d="M59.3258 37.9591L63.3674 43.2444C63.1331 43.3681 62.8923 43.4788 62.6515 43.5894L58.6099 38.3041C58.8572 38.1999 59.0915 38.0828 59.3258 37.9591Z" fill="#357A5C"/>
<path d="M58.6169 38.3107L62.6585 43.596C62.3982 43.7132 62.1379 43.8303 61.8775 43.9345L57.8359 38.6491C58.0963 38.5385 58.3566 38.4278 58.6169 38.3107Z" fill="#337659"/>
<path d="M57.8291 38.6492L61.8707 43.9345C61.5778 44.0582 61.2784 44.1688 60.979 44.273L56.9374 38.9876C57.2368 38.8835 57.5362 38.7728 57.8291 38.6492Z" fill="#317256"/>
<path d="M56.9378 38.9875L60.9793 44.2729C60.6214 44.4031 60.2569 44.5202 59.886 44.6244L55.8444 39.339C56.2153 39.2349 56.5798 39.1177 56.9378 38.9875Z" fill="#306E53"/>
<path d="M55.8504 39.339L59.892 44.6243C59.3974 44.7675 58.9027 44.8912 58.3951 44.9953L54.3535 39.71C54.8546 39.6059 55.3558 39.4822 55.8504 39.339Z" fill="#2E6A50"/>
<path d="M54.3538 39.7101L58.3954 44.9954C57.9854 45.08 57.5754 45.1516 57.1589 45.2102C55.2324 45.4836 53.2279 45.4771 51.1518 45.1907L47.1102 39.9054C49.1863 40.1852 51.1909 40.1918 53.1173 39.9249C53.5338 39.8663 53.9438 39.7947 54.3538 39.7101Z" fill="#2C664D"/>
<path d="M32.7997 58.5666L36.8412 63.8454L35.8715 66.5466L31.8299 61.2678L32.7997 58.5666Z" fill="#E7E7E7"/>
<path d="M37.8876 57.8506L41.9292 63.1295L36.8398 63.8455L32.7982 58.5666L37.8876 57.8506Z" fill="#8B8B8B"/>
<path d="M40.6618 50.1244L44.7034 55.4097L41.9309 63.1294L37.8893 57.8506L40.6618 50.1244Z" fill="#E7E7E7"/>
<path d="M44.1486 48.1653L48.1902 53.4506L44.8645 62.7194L40.8229 57.4341L44.1486 48.1653Z" fill="#4EB488"/>
<path d="M45.9123 56.7181L49.9539 62.0034L44.8645 62.7194L40.8229 57.4341L45.9123 56.7181Z" fill="#8B8B8B"/>
<path d="M45.9138 56.718L49.9554 62.0033L48.9857 64.7046L44.9441 59.4258L45.9138 56.718Z" fill="#4EB488"/>
<path d="M44.9439 59.4258L48.9855 64.7046L35.8715 66.5466L31.8299 61.2678L44.9439 59.4258Z" fill="#2F6C52"/>
<path d="M70.8917 24.6676C70.781 24.98 68.1517 32.3743 61.1945 36.885C58.6888 38.5123 55.9879 39.5277 53.1113 39.9312C51.1849 40.2046 49.1804 40.1981 47.1043 39.9117L44.4554 47.2929L44.143 48.1716L40.8174 57.4405L45.9068 56.7245L44.937 59.4257L31.8231 61.2678L32.7928 58.5665L37.8822 57.8505L40.6546 50.1243C38.4809 51.2048 35.2984 52.5522 32.2526 52.9818C30.7947 53.1836 29.3695 53.1836 28.1004 52.8321C24.5144 51.8427 23.0956 48.3995 23.87 42.5804L23.9807 41.7472L24.9439 41.1224C25.0676 41.0443 26.2065 40.3153 27.8856 39.4691C27.7815 38.2779 27.9702 36.9371 28.4909 35.4921C29.7014 32.1139 32.4608 28.8529 35.7995 26.4706C36.3202 23.9451 37.8496 20.8598 40.3813 17.2408L40.9931 16.3621L41.9693 16.1603C42.0344 16.1473 42.3858 16.0757 42.926 15.9976C45.2299 15.6721 51.0222 15.249 53.1569 18.7314C54.3479 20.671 54.1982 23.4634 52.7208 27.0629C52.7534 27.1736 52.7794 27.2907 52.7989 27.4079C53.658 26.6854 54.5887 26.0019 55.6039 25.3901C57.8037 24.0622 60.1011 23.2356 62.4766 22.8971C65.0408 22.5391 67.7027 22.7539 70.4426 23.5545L71.1976 23.7758L70.8917 24.6676ZM48.7834 33.8909C49.0112 33.4482 49.2129 33.0056 49.3756 32.5565C49.4537 32.3352 49.5188 32.1269 49.5774 31.9121C49.6229 31.7559 49.662 31.5997 49.6945 31.4435L49.8442 30.363C49.8507 30.2458 49.8572 30.1352 49.8507 30.018C49.8507 29.3345 49.7271 28.7097 49.4928 28.1564C49.0567 27.115 48.2302 26.3209 47.0912 25.8783C46.0825 25.4812 44.8199 25.351 43.3686 25.5593C43.284 25.5723 43.2059 25.5854 43.1213 25.5984C41.6439 25.8392 40.134 26.399 38.7022 27.1801C37.6348 27.7659 36.6066 28.4754 35.6759 29.276C33.7365 30.9358 32.1875 32.9796 31.4326 35.0885C31.0356 36.1885 30.8924 37.2105 30.977 38.1152C32.3632 37.588 33.8731 37.1323 35.37 36.9045C35.2008 36.5726 35.1878 36.13 35.37 35.6288C35.5783 35.0429 36.0143 34.4832 36.548 34.0275C36.5675 34.008 36.587 33.995 36.6066 33.9755L37.9538 32.8559L40.1861 31.0074L40.2446 30.9553C40.4074 30.8251 40.5831 30.7079 40.7653 30.6038C41.0647 30.4411 41.3836 30.3239 41.696 30.2783C42.2101 30.2067 42.6006 30.3434 42.8024 30.6168L42.8414 30.6689L43.3686 31.4239L43.746 31.9642L44.4554 32.9796L44.488 33.0252L44.5465 33.1098C44.7093 33.3832 44.7613 33.7412 44.6702 34.1512C44.6572 34.2098 44.6377 34.2684 44.6246 34.3335C44.6116 34.379 44.5986 34.4246 44.5791 34.4702C44.3838 34.9974 44.0064 35.5116 43.5313 35.9412C43.4662 35.9998 43.3946 36.0649 43.323 36.1169L42.8349 36.54L42.7308 36.6312C42.503 36.8134 42.2296 36.9436 41.9628 36.9826C41.8522 36.9957 41.7545 36.9957 41.6699 36.9761C41.5332 36.9501 41.4291 36.885 41.364 36.7939L40.1796 35.1601L40.0364 34.9583L39.6524 35.2838L37.8952 36.7613C38.3312 36.7874 38.7673 36.8394 39.1838 36.9241C41.0061 37.3016 42.3663 38.2649 43.2644 39.7945C43.7851 39.4561 44.2927 39.085 44.7808 38.688C45.2429 38.3105 45.6725 37.933 46.076 37.5359C46.3428 37.269 46.5966 37.0022 46.8439 36.7288C47.5989 35.824 48.2692 34.8672 48.7834 33.8909ZM39.4637 48.2432L30.4173 45.529L31.374 44.2923L32.4674 42.8798L37.8822 44.5071L41.3706 45.555C41.3055 44.7804 41.1883 44.071 41.0191 43.4396C40.7978 42.6325 40.4854 41.949 40.0819 41.3892C39.4051 40.4389 38.4679 39.8401 37.2769 39.5928C36.4373 39.417 35.5132 39.43 34.5695 39.5602C33.6323 39.6904 32.6691 39.9442 31.7449 40.2567C30.5539 40.6602 29.4215 41.1614 28.4778 41.6301C27.84 41.949 27.2803 42.2484 26.8508 42.4958C26.4343 46.8698 27.5277 49.4539 30.1114 50.1699C31.0421 50.4303 32.1094 50.4303 33.2223 50.274C35.37 49.9746 37.6804 49.0699 39.4637 48.2432ZM60.2638 34.9323C64.4616 32.2246 66.7525 27.8505 67.5855 25.9889C65.4638 25.4617 63.4398 25.3315 61.5264 25.6049C59.7041 25.8587 57.986 26.4771 56.3719 27.4469C55.0117 28.2671 53.8207 29.2825 52.7859 30.363C52.6818 30.9358 52.5191 31.5281 52.3043 32.1399C52.083 32.7518 51.8162 33.3506 51.5038 33.9494L60.8951 28.4233L61.611 30.5062L50.0264 37.3211C51.4322 37.4383 52.7859 37.4057 54.081 37.2235C56.3198 36.911 58.3895 36.143 60.2638 34.9323ZM42.1971 18.6728C40.7263 20.8793 39.7175 22.819 39.1773 24.4658C40.7067 23.7303 42.2817 23.2031 43.8372 22.9232L45.2885 21.9859L45.6334 22.7214C47.7811 22.6368 49.5383 23.1445 50.7944 24.1078C50.9897 22.7474 50.8204 21.6344 50.2933 20.7752C48.7053 18.1846 44.1821 18.4254 42.1971 18.6728Z" fill="url(#paint0_linear_3775_8637)"/>
<path d="M45.2821 21.9924L45.6271 22.728C47.7748 22.6434 49.532 23.151 50.788 24.1144C50.9833 22.754 50.8141 21.641 50.2869 20.7818C48.7054 18.1847 44.1822 18.4255 42.1907 18.6728C40.7199 20.8794 39.7111 22.8191 39.1709 24.4659C40.7004 23.7304 42.2753 23.2031 43.8308 22.9232L45.2821 21.9924Z" fill="url(#paint1_linear_3775_8637)"/>
<path d="M47.0916 25.8719C46.0828 25.4748 44.8202 25.3446 43.3689 25.5529C43.2843 25.5659 43.2062 25.579 43.1216 25.592C41.6442 25.8328 40.1343 26.3926 38.7025 27.1737C37.6352 27.7595 36.6069 28.469 35.6762 29.2696C33.7368 30.9294 32.1879 32.9732 31.4329 35.0821C31.0359 36.1821 30.8927 37.2041 30.9773 38.1088C32.3636 37.5751 33.8735 37.1259 35.3703 36.8981C35.2011 36.5662 35.1881 36.1236 35.3703 35.6224C35.5786 35.0366 36.0147 34.4768 36.5483 34.0211C36.5678 34.0081 36.5874 33.9886 36.6069 33.9691L37.9541 32.8495L40.1929 30.9945L40.245 30.9489C40.4077 30.8187 40.5834 30.7016 40.7656 30.5974C41.065 30.4347 41.3839 30.3175 41.6963 30.272C42.2104 30.2004 42.6009 30.337 42.8027 30.6104L42.8417 30.6625L43.3689 31.4175L43.7464 31.9578L44.4558 32.9732L44.4883 33.0188L44.5469 33.1034C44.7096 33.3768 44.7617 33.7348 44.6705 34.1448C44.6575 34.2034 44.638 34.262 44.6185 34.3271C44.6055 34.3726 44.5924 34.4182 44.5729 34.4638C44.3777 34.9975 44.0002 35.5052 43.5251 35.9348C43.46 35.9934 43.3884 36.0585 43.3168 36.1105L42.8222 36.5336L42.7181 36.6248C42.4903 36.807 42.217 36.9372 41.9501 36.9762C41.8395 36.9893 41.7419 36.9893 41.6573 36.9697C41.5206 36.9437 41.4165 36.8786 41.3384 36.7745L40.1669 35.1537L40.0237 34.9519L39.6397 35.2774L37.8825 36.7549C38.3186 36.781 38.7546 36.8331 39.1711 36.9177C40.9934 37.2952 42.3536 38.2585 43.2452 39.7881C43.7659 39.4497 44.2735 39.0787 44.7812 38.6686C45.2237 38.3106 45.6468 37.9266 46.0503 37.5295C46.3171 37.2626 46.5709 36.9958 46.8182 36.7224C47.6057 35.8372 48.2761 34.8803 48.7902 33.904C49.018 33.4614 49.2198 33.0188 49.3825 32.5696C49.4606 32.3483 49.5256 32.14 49.5842 31.9252C49.6298 31.769 49.6688 31.6128 49.7014 31.4566L49.8511 30.3761C49.8576 30.2589 49.8641 30.1483 49.8576 30.0311C49.8576 29.3477 49.7339 28.7228 49.4996 28.1695C49.057 27.1086 48.2305 26.321 47.0916 25.8719Z" fill="url(#paint2_linear_3775_8637)"/>
<path d="M40.0754 41.3893C39.3986 40.439 38.4614 39.8401 37.2704 39.5928C36.4308 39.417 35.5067 39.4301 34.563 39.5602C33.6258 39.6904 32.6626 39.9443 31.7384 40.2567C30.5474 40.6603 29.415 41.1614 28.4713 41.6301C27.8335 41.949 27.2738 42.2485 26.8443 42.4958C26.4278 46.8699 27.5211 49.4539 30.1049 50.1699C31.0356 50.4303 32.1029 50.4303 33.2158 50.2741C35.3635 49.9747 37.6804 49.0699 39.4637 48.2433L30.4173 45.529L31.374 44.2923L32.4674 42.8798L37.8822 44.5071L41.3705 45.555C41.3055 44.7805 41.1883 44.071 41.0191 43.4396C40.7913 42.6325 40.4789 41.949 40.0754 41.3893Z" fill="url(#paint3_linear_3775_8637)"/>
<path d="M86.0624 0.174224L29.6755 8.10221C25.2824 8.72057 20.551 12.4958 19.0997 16.5379L0.460234 68.4799C-0.991091 72.522 1.3909 75.3013 5.77742 74.683L62.1643 66.755C66.5574 66.1366 71.2888 62.3614 72.7401 58.3128L91.3795 6.37081C92.8374 2.33522 90.4554 -0.444133 86.0624 0.174224ZM70.8918 24.6677C70.7812 24.9801 68.1518 32.3743 61.1946 36.8851C58.6889 38.5123 55.9881 39.5278 53.1114 39.9313C51.185 40.2047 49.1805 40.1982 47.1044 39.9118L44.4555 47.293L44.1432 48.1717L40.8175 57.4406L45.9069 56.7246L44.9372 59.4258L31.8232 61.2679L32.7929 58.5666L37.8823 57.8506L40.6548 50.1244C38.481 51.2049 35.2985 52.5523 32.2527 52.9819C30.7949 53.1902 29.3696 53.1837 28.1005 52.8322C24.5145 51.8428 23.0957 48.3995 23.8702 42.5805L23.9808 41.7473L24.944 41.1225C25.0677 41.0444 26.2066 40.3153 27.8857 39.4692C27.7816 38.278 27.9703 36.9372 28.491 35.4922C29.7015 32.114 32.461 28.853 35.7997 26.4707C36.3203 23.9452 37.8498 20.8599 40.3814 17.2409L40.9932 16.3622L41.9694 16.1604C42.0345 16.1474 42.386 16.0758 42.9261 15.9977C45.23 15.6722 51.0223 15.2491 53.157 18.7314C54.348 20.6711 54.1983 23.4635 52.7209 27.063C52.7535 27.1736 52.7795 27.2908 52.799 27.408C53.6581 26.6855 54.5888 26.002 55.6041 25.3902C57.8038 24.0623 60.1012 23.2357 62.4767 22.8972C65.0409 22.5392 67.7028 22.754 70.4427 23.5546L71.1977 23.7759L70.8918 24.6677Z" fill="url(#paint4_linear_3775_8637)"/>
<path d="M61.5271 25.605C59.7048 25.8588 57.9867 26.4772 56.3727 27.447C55.0125 28.2672 53.8215 29.2826 52.7867 30.3631C52.6825 30.9359 52.5198 31.5282 52.3051 32.14C52.0838 32.7519 51.8169 33.3507 51.5045 33.9495L60.8958 28.4234L61.6117 30.5063L50.0272 37.3212C51.433 37.4384 52.7866 37.4058 54.0818 37.2236C56.3271 36.9046 58.3967 36.1431 60.2711 34.9324C64.4688 32.2246 66.7597 27.8506 67.5928 25.989C65.4646 25.4618 63.4405 25.3316 61.5271 25.605Z" fill="url(#paint5_linear_3775_8637)"/>
<path d="M95.8181 10.0094C95.8181 9.98336 95.8246 9.95733 95.8246 9.93129C95.8246 9.92479 95.8246 9.92478 95.8246 9.91827C95.8246 9.91177 95.8246 9.89875 95.8246 9.89224C95.8377 9.75555 95.8442 9.62537 95.8442 9.49519C95.8442 9.47567 95.8442 9.45614 95.8442 9.43661C95.8442 9.42359 95.8442 9.40406 95.8442 9.39105C95.8442 9.26737 95.8376 9.15021 95.8311 9.03305C95.8311 9.02654 95.8311 9.02004 95.8311 9.02004C95.8246 8.90287 95.8051 8.78571 95.7856 8.67506C95.7856 8.66204 95.7856 8.64902 95.7791 8.64251C95.7726 8.61648 95.7661 8.59695 95.7661 8.57742C95.7531 8.49931 95.7335 8.42772 95.7205 8.34961C95.714 8.33008 95.714 8.31055 95.7075 8.29102C95.701 8.278 95.6945 8.25848 95.6945 8.24546C95.6749 8.17386 95.6489 8.10226 95.6294 8.03066C95.6229 8.01114 95.6164 7.9851 95.6099 7.96557C95.6099 7.95906 95.6034 7.95255 95.6034 7.94604C95.5708 7.84841 95.5318 7.75728 95.4862 7.65964C95.4862 7.65964 95.4862 7.65965 95.4862 7.65314C95.4797 7.64012 95.4732 7.63362 95.4732 7.62711C95.4342 7.549 95.3951 7.46438 95.3495 7.39278C95.343 7.38627 95.343 7.37325 95.3365 7.36674C95.3235 7.34721 95.3105 7.32769 95.2975 7.30816C95.2584 7.24958 95.2259 7.191 95.1868 7.13242C95.1738 7.1194 95.1673 7.09987 95.1543 7.08685C95.1283 7.05431 95.1022 7.02177 95.0762 6.98271L91.0346 1.69739C91.0737 1.74295 91.1062 1.79503 91.1387 1.8471C91.1778 1.90568 91.2169 1.96426 91.2494 2.02284C91.2689 2.04887 91.2819 2.08142 91.3015 2.10746C91.347 2.18557 91.3861 2.26367 91.4251 2.34829C91.4316 2.36131 91.4381 2.36782 91.4381 2.38084C91.4772 2.47196 91.5162 2.56959 91.5553 2.66723C91.5683 2.69327 91.5748 2.72581 91.5813 2.75185C91.6073 2.82345 91.6269 2.89505 91.6464 2.96665C91.6529 2.99919 91.6659 3.03825 91.6724 3.07079C91.6919 3.14239 91.705 3.2205 91.718 3.29861C91.7245 3.33115 91.731 3.3637 91.7375 3.40275C91.757 3.51341 91.77 3.63057 91.7831 3.74773C91.7831 3.75424 91.7831 3.76075 91.7831 3.76726C91.7896 3.88442 91.7961 4.00809 91.7961 4.12525C91.7961 4.1578 91.7961 4.19685 91.7961 4.22939C91.7961 4.35958 91.7896 4.48976 91.7766 4.62645C91.7766 4.63946 91.7766 4.65248 91.7766 4.6655C91.7766 4.69154 91.77 4.71757 91.77 4.74361C91.7635 4.82172 91.7505 4.89982 91.744 4.97793C91.7375 5.01699 91.731 5.05604 91.7245 5.0951C91.7115 5.16019 91.705 5.22528 91.6919 5.29037C91.6724 5.38149 91.6529 5.47262 91.6334 5.56375C91.6269 5.59629 91.6204 5.62883 91.6073 5.66789C91.5748 5.79807 91.5358 5.92174 91.4967 6.05192C91.4642 6.16908 91.4251 6.27974 91.3795 6.3969L72.7401 58.3388C72.6946 58.4625 72.649 58.5862 72.5969 58.7099C72.5774 58.7489 72.5579 58.7945 72.5449 58.8335C72.5123 58.9116 72.4733 58.9963 72.4407 59.0744C72.4212 59.1264 72.3952 59.172 72.3691 59.2176C72.3366 59.2892 72.2976 59.3608 72.265 59.4389C72.239 59.4909 72.2129 59.543 72.1804 59.5951C72.1414 59.6667 72.1088 59.7318 72.0698 59.8034C72.0372 59.8554 72.0112 59.9075 71.9787 59.9596C71.9396 60.0247 71.9006 60.0898 71.8615 60.1614C71.829 60.2134 71.7964 60.2655 71.7639 60.3241C71.7248 60.3892 71.6793 60.4543 71.6402 60.5194C71.6077 60.5714 71.5686 60.6235 71.5296 60.6821C71.484 60.7472 71.445 60.8058 71.3994 60.8709C71.3604 60.9229 71.3213 60.975 71.2823 61.0271C71.2367 61.0857 71.1977 61.1442 71.1521 61.2028C71.0935 61.2809 71.035 61.359 70.9764 61.4306C70.9373 61.4762 70.8983 61.5283 70.8592 61.5738C70.7942 61.6584 70.7226 61.7366 70.6575 61.8147C70.6249 61.8537 70.5924 61.8928 70.5599 61.9318C70.4102 62.1011 70.2605 62.2703 70.1043 62.433C70.0717 62.4656 70.0392 62.4981 70.0067 62.5307C69.87 62.6739 69.7268 62.8171 69.5836 62.9538C69.5706 62.9668 69.5511 62.9798 69.5381 62.9928C69.4144 63.11 69.2908 63.2206 69.1671 63.3313C69.1216 63.3703 69.0825 63.4094 69.037 63.4419C68.9458 63.52 68.8482 63.6046 68.7506 63.6828C68.705 63.7218 68.6595 63.7544 68.6204 63.7934C68.5163 63.878 68.4057 63.9626 68.3015 64.0408C68.269 64.0668 68.243 64.0863 68.2104 64.1124C68.0737 64.2165 67.9371 64.3141 67.8004 64.4118C67.7614 64.4378 67.7288 64.4638 67.6898 64.4899C67.5856 64.5615 67.488 64.6266 67.3839 64.6982C67.3318 64.7307 67.2797 64.7632 67.2277 64.7958C67.1366 64.8544 67.0454 64.913 66.9543 64.965C66.9023 64.9976 66.8437 65.0301 66.7916 65.0627C66.7005 65.1147 66.6094 65.1733 66.5118 65.2254C66.4597 65.2579 66.4011 65.284 66.3491 65.3165C66.2449 65.3751 66.1343 65.4337 66.0302 65.4858C65.9846 65.5053 65.9456 65.5313 65.9 65.5508C65.7503 65.6289 65.5941 65.7005 65.4379 65.7721C65.4119 65.7852 65.3859 65.7982 65.3598 65.8112C65.2232 65.8698 65.0865 65.9349 64.9498 65.9869C64.9043 66.0065 64.8522 66.026 64.8066 66.0455C64.657 66.1041 64.5138 66.1627 64.3641 66.2148C64.3315 66.2278 64.299 66.2408 64.2664 66.2473C64.0712 66.3189 63.876 66.3775 63.6742 66.4361C63.6156 66.4556 63.5636 66.4686 63.505 66.4816C63.4334 66.5012 63.3618 66.5207 63.2902 66.5402C63.2251 66.5597 63.1535 66.5728 63.0885 66.5923C63.0169 66.6118 62.9453 66.6248 62.8737 66.6378C62.8151 66.6509 62.7566 66.6639 62.7045 66.6704C62.5223 66.7094 62.34 66.742 62.1578 66.768L5.7709 74.696C3.48002 75.015 1.73582 74.4161 0.798645 73.1924L4.84023 78.4777C5.77741 79.7014 7.5216 80.3068 9.81248 79.9813L66.1994 72.0534C66.3816 72.0273 66.5638 71.9948 66.7461 71.9557C66.7656 71.9492 66.7916 71.9492 66.8111 71.9427C66.8437 71.9362 66.8827 71.9297 66.9153 71.9167C66.9869 71.9036 67.0585 71.8841 67.1301 71.8711C67.2017 71.8581 67.2667 71.8386 67.3383 71.819C67.4099 71.7995 67.4815 71.78 67.5531 71.7605C67.5856 71.7474 67.6247 71.7409 67.6572 71.7344C67.6768 71.7279 67.6963 71.7214 67.7223 71.7149C67.9175 71.6563 68.1193 71.5912 68.3145 71.5261C68.321 71.5261 68.3276 71.5196 68.3406 71.5196C68.3666 71.5131 68.3861 71.5001 68.4122 71.4936C68.5619 71.4415 68.705 71.3829 68.8547 71.3243C68.8808 71.3113 68.9068 71.3048 68.9328 71.2918C68.9523 71.2853 68.9784 71.2723 68.9979 71.2658C69.1346 71.2072 69.2713 71.1486 69.4079 71.09C69.4275 71.077 69.4535 71.0705 69.473 71.064C69.4795 71.064 69.486 71.0575 69.486 71.0575C69.6422 70.9859 69.7919 70.9143 69.9481 70.8362C69.9546 70.8297 69.9676 70.8297 69.9741 70.8232C70.0067 70.8036 70.0392 70.7841 70.0783 70.7711C70.1824 70.7125 70.293 70.6604 70.3972 70.6018C70.4167 70.5888 70.4362 70.5823 70.4557 70.5693C70.4883 70.5498 70.5208 70.5302 70.5534 70.5107C70.6445 70.4586 70.7356 70.4066 70.8332 70.348C70.8658 70.3285 70.8918 70.3154 70.9243 70.2959C70.9504 70.2829 70.9764 70.2634 71.0024 70.2504C71.0935 70.1918 71.1847 70.1397 71.2758 70.0811C71.3083 70.0616 71.3474 70.0356 71.3799 70.016C71.3929 70.003 71.4124 69.9965 71.4255 69.9835C71.5296 69.9184 71.6272 69.8468 71.7313 69.7752C71.7639 69.7557 71.7964 69.7361 71.8225 69.7101C71.829 69.7036 71.8355 69.7036 71.842 69.6971C71.9787 69.5995 72.1153 69.5018 72.252 69.3977C72.2585 69.3912 72.265 69.3912 72.265 69.3847C72.291 69.3651 72.3106 69.3456 72.3366 69.3261C72.4473 69.2415 72.5514 69.1633 72.6555 69.0722C72.6685 69.0592 72.688 69.0462 72.7076 69.0332C72.7336 69.0071 72.7661 68.9876 72.7922 68.9616C72.8898 68.8835 72.9809 68.8054 73.072 68.7207C73.0981 68.7012 73.1241 68.6752 73.1501 68.6556C73.1697 68.6426 73.1827 68.6231 73.2022 68.6036C73.3259 68.4929 73.4495 68.3823 73.5732 68.2651C73.5862 68.2521 73.5992 68.2456 73.6122 68.2326L73.6187 68.226C73.7619 68.0894 73.9051 67.9462 74.0418 67.803C74.0548 67.7834 74.0743 67.7704 74.0938 67.7509C74.1068 67.7314 74.1264 67.7183 74.1394 67.6988C74.2956 67.5361 74.4518 67.3669 74.595 67.1976C74.6015 67.1911 74.608 67.1846 74.608 67.1781C74.634 67.1456 74.6665 67.113 74.6926 67.0805C74.7642 67.0024 74.8292 66.9177 74.8943 66.8396C74.9334 66.7941 74.9724 66.742 75.0115 66.6964C75.07 66.6183 75.1286 66.5467 75.1872 66.4686C75.2067 66.4491 75.2197 66.423 75.2393 66.4035C75.2653 66.3645 75.2913 66.3319 75.3174 66.2929C75.3564 66.2408 75.3954 66.1887 75.4345 66.1367C75.48 66.0716 75.5256 66.013 75.5647 65.9479C75.6037 65.8958 75.6362 65.8438 75.6753 65.7852C75.7209 65.7201 75.7599 65.655 75.799 65.5899C75.8315 65.5378 75.8641 65.4858 75.8966 65.4337C75.9356 65.3686 75.9747 65.297 76.0137 65.2319C76.0463 65.1798 76.0723 65.1278 76.1048 65.0757C76.1439 65.0041 76.1829 64.939 76.2155 64.8674C76.2415 64.8153 76.2676 64.7633 76.3001 64.7112C76.3391 64.6396 76.3717 64.568 76.4042 64.4899C76.4303 64.4443 76.4498 64.3922 76.4758 64.3467C76.5149 64.2686 76.5474 64.1839 76.5799 64.1058C76.5995 64.0668 76.619 64.0212 76.632 63.9822C76.6841 63.8585 76.7296 63.7348 76.7752 63.6112L95.4146 11.6692C95.4537 11.5585 95.4927 11.4479 95.5253 11.3372C95.5253 11.3307 95.5253 11.3307 95.5253 11.3242C95.5643 11.194 95.6034 11.0639 95.6359 10.9402C95.6424 10.9076 95.6489 10.8751 95.6619 10.836C95.6815 10.7449 95.7075 10.6538 95.7205 10.5627C95.7205 10.5497 95.727 10.5301 95.7335 10.5171C95.74 10.465 95.7531 10.4195 95.7596 10.3674C95.7661 10.3283 95.7726 10.2893 95.7791 10.2502C95.7986 10.1656 95.8051 10.0875 95.8181 10.0094Z" fill="url(#paint6_linear_3775_8637)"/>
<defs>
<linearGradient id="paint0_linear_3775_8637" x1="14.4784" y1="64.1792" x2="57.5723" y2="24.4266" gradientUnits="userSpaceOnUse">
<stop stop-color="#09453D"/>
<stop offset="0.3367" stop-color="#297C63"/>
<stop offset="0.6283" stop-color="#41A37E"/>
<stop offset="0.8589" stop-color="#50BC8F"/>
<stop offset="1" stop-color="#55C595"/>
</linearGradient>
<linearGradient id="paint1_linear_3775_8637" x1="-15.8059" y1="74.3825" x2="63.5233" y2="6.92438" gradientUnits="userSpaceOnUse">
<stop stop-color="#1E1F28"/>
<stop offset="0.5019" stop-color="#40424C"/>
<stop offset="1" stop-color="#5E616B"/>
</linearGradient>
<linearGradient id="paint2_linear_3775_8637" x1="-12.2342" y1="78.5825" x2="67.0949" y2="11.1244" gradientUnits="userSpaceOnUse">
<stop stop-color="#1E1F28"/>
<stop offset="0.5019" stop-color="#40424C"/>
<stop offset="1" stop-color="#5E616B"/>
</linearGradient>
<linearGradient id="paint3_linear_3775_8637" x1="-9.57316" y1="81.7121" x2="69.7559" y2="14.254" gradientUnits="userSpaceOnUse">
<stop stop-color="#1E1F28"/>
<stop offset="0.5019" stop-color="#40424C"/>
<stop offset="1" stop-color="#5E616B"/>
</linearGradient>
<linearGradient id="paint4_linear_3775_8637" x1="-8.13096" y1="83.408" x2="71.1982" y2="15.9499" gradientUnits="userSpaceOnUse">
<stop stop-color="#1E1F28"/>
<stop offset="0.5019" stop-color="#40424C"/>
<stop offset="1" stop-color="#5E616B"/>
</linearGradient>
<linearGradient id="paint5_linear_3775_8637" x1="-6.02977" y1="85.8782" x2="73.2993" y2="18.4201" gradientUnits="userSpaceOnUse">
<stop stop-color="#1E1F28"/>
<stop offset="0.5019" stop-color="#40424C"/>
<stop offset="1" stop-color="#5E616B"/>
</linearGradient>
<linearGradient id="paint6_linear_3775_8637" x1="17.5616" y1="106.6" x2="58.7126" y2="32.834" gradientUnits="userSpaceOnUse">
<stop/>
<stop offset="0.0949" stop-color="#070709"/>
<stop offset="0.4665" stop-color="#1E1F28"/>
<stop offset="0.775" stop-color="#3F4047"/>
<stop offset="1" stop-color="#525359"/>
</linearGradient>
</defs>
</svg>
