<svg width="93" height="77" viewBox="0 0 93 77" fill="none" xmlns="http://www.w3.org/2000/svg">
<path d="M36.0807 31.7C36.2369 31.6805 36.4321 31.5828 36.6339 31.4462C39.491 29.5781 42.3481 27.71 45.2051 25.8419C45.4394 25.6857 45.6542 25.5229 45.7063 25.2951C45.7974 25.0803 45.7453 24.9502 45.5956 24.8851C45.5175 24.8525 45.4264 24.8395 45.3353 24.8525C45.1791 24.8721 45.0164 24.9567 44.8342 25.0738C41.9771 26.9419 39.12 28.81 36.2629 30.6781C35.8659 30.9385 35.5796 31.2249 35.7358 31.5243C35.8008 31.674 35.9245 31.7195 36.0807 31.7Z" fill="url(#paint0_linear_3775_8605)"/>
<path d="M31.4209 42.4008C31.3623 42.2641 31.2647 42.2055 31.102 42.2315C30.9197 42.2575 30.6529 42.3877 30.2624 42.6221C29.2601 43.2404 28.2514 43.8523 27.1645 44.5227C27.7437 42.902 28.2969 41.3788 28.8371 39.8557C28.9282 39.6019 29.143 39.5042 29.3513 39.3741C30.731 38.5149 32.1172 37.6622 33.497 36.8095C34.1999 36.3734 34.9027 35.9438 35.7032 35.4491C35.2477 36.7184 34.8312 37.903 34.3951 39.0877C34.2519 39.4717 34.2389 39.7711 34.7205 39.706C35.2086 39.6344 35.4039 39.3025 35.5405 38.9184C36.0612 37.4409 36.5949 35.9568 37.135 34.4728C37.2522 34.1473 37.2197 33.9455 36.9919 33.8089C35.3323 32.813 33.6727 31.8106 32.0326 30.7952C31.896 30.7106 31.7528 30.678 31.5966 30.7041C31.4339 30.7301 31.2516 30.8082 31.0304 30.9449C28.4661 32.5396 25.8954 34.1343 23.3247 35.7095C22.9407 35.9438 22.7389 36.1847 22.6218 36.5231C21.9515 38.4368 21.2616 40.3504 20.5587 42.2706C20.4285 42.6351 20.4676 42.8499 20.7279 42.9996C22.368 43.9759 24.0015 44.9653 25.6155 45.9742C25.7652 46.0653 25.9149 46.0979 26.0776 46.0718C26.2599 46.0458 26.4616 45.9547 26.7089 45.7985C27.9976 44.9848 29.2992 44.1907 30.5943 43.3966C31.2907 42.9801 31.5445 42.6806 31.4209 42.4008ZM24.6849 35.8592C26.7415 34.5965 28.7981 33.3207 30.8547 32.0514C30.9718 31.9798 31.0759 31.9277 31.1605 31.9147C31.2321 31.9017 31.3037 31.9212 31.3753 31.9603C32.703 32.7804 34.0437 33.5876 35.3778 34.4012C35.4299 34.4337 35.4755 34.4728 35.5536 34.5314C35.4364 34.616 35.3583 34.6746 35.2737 34.7266C33.165 36.0284 31.0564 37.3302 28.9477 38.6451C28.8566 38.7036 28.785 38.7297 28.7265 38.7427C28.6353 38.7557 28.5703 38.7232 28.4987 38.6776C27.1905 37.877 25.8759 37.0764 24.5547 36.2888C24.353 36.1586 24.3204 36.0805 24.6849 35.8592ZM26.1753 44.3274C26.1167 44.4901 26.0646 44.5813 25.98 44.5943C25.9344 44.6008 25.8759 44.5813 25.7978 44.5357C24.4896 43.7351 23.175 42.9345 21.8538 42.1404C21.7367 42.0688 21.7302 41.9712 21.7887 41.8084C22.3354 40.2983 22.8756 38.7882 23.4548 37.1675C24.8932 38.0397 26.2599 38.8664 27.6331 39.6865C27.7633 39.7646 27.7502 39.8948 27.6917 40.0705C27.184 41.4895 26.6764 42.9084 26.1753 44.3274Z" fill="url(#paint1_linear_3775_8605)"/>
<path d="M41.7169 26.0566C42.0553 26.0111 42.3352 25.8158 42.4654 25.4773C42.5239 25.3341 42.5695 25.1844 42.6215 25.0412C43.0185 23.9347 43.4155 22.8282 43.819 21.7021C43.9102 21.7086 43.9687 21.6956 43.9948 21.7151C45.3355 22.5288 46.6696 23.3424 48.0103 24.1495C48.1079 24.2081 48.1665 24.2667 48.1144 24.4229C47.5547 25.9655 47.0015 27.5016 46.4223 29.1289C45.6674 28.6732 44.958 28.2567 44.2616 27.8336C44.1445 27.762 44.0078 27.7229 43.8646 27.7425C43.7084 27.762 43.5392 27.8531 43.357 28.0289C42.973 28.3999 43.0381 28.6537 43.3049 28.8099C44.2356 29.3697 45.1793 29.923 46.1034 30.4893C46.2141 30.5544 46.3247 30.5804 46.4549 30.5609C46.5915 30.5413 46.7477 30.4762 46.9235 30.3591C47.5027 29.9881 48.0949 29.6431 48.6807 29.2786C49.5658 28.7318 50.4574 28.1851 51.3425 27.6383C51.7135 27.404 51.9152 27.1241 51.8111 26.8572C51.7525 26.701 51.6224 26.6489 51.4531 26.6685C51.336 26.688 51.1928 26.7401 51.0366 26.8312C50.8544 26.9353 50.6787 27.0525 50.503 27.1566C49.5528 27.7425 48.6026 28.3283 47.5743 28.9597C48.1535 27.3454 48.7067 25.8158 49.2404 24.2927C49.3315 24.0388 49.5397 23.9412 49.7415 23.8175C51.6939 22.6069 53.6464 21.4027 55.5988 20.1985C55.7095 20.1269 55.8266 20.0228 55.9763 20.0033C56.0024 19.9967 56.0284 19.9967 56.0544 20.0033C55.6314 21.1879 55.2083 22.3725 54.7788 23.5572C54.6421 23.9412 54.6291 24.2341 55.1172 24.1625C55.5663 24.0909 55.8006 23.7785 55.9308 23.414C56.4709 21.9169 57.0046 20.4198 57.5448 18.9162C57.6619 18.5973 57.6034 18.3955 57.3756 18.2588C55.716 17.263 54.0629 16.2541 52.4164 15.2452C52.2862 15.1671 52.1495 15.1345 51.9868 15.154C51.8371 15.1736 51.6614 15.2452 51.4597 15.3754C48.8564 16.9961 46.2466 18.6038 43.6368 20.218C43.396 20.3677 43.1813 20.524 43.0967 20.7648C42.5109 22.3921 41.9187 24.0193 41.346 25.6466C41.2418 25.9525 41.385 26.1022 41.7169 26.0566ZM45.6023 20.0098C47.4636 18.8512 49.325 17.6991 51.1863 16.5535C51.3165 16.4754 51.4401 16.3842 51.5638 16.3647C51.6288 16.3582 51.6939 16.3647 51.759 16.4103C53.1388 17.2695 54.538 18.1091 55.9828 18.9878C53.7245 20.3873 51.5442 21.7281 49.3705 23.082C49.2599 23.1471 49.1818 23.1862 49.1102 23.1927C49.0191 23.2057 48.954 23.1796 48.8759 23.1341C47.5027 22.2879 46.1164 21.4548 44.7172 20.6086C44.997 20.3287 45.3159 20.1855 45.6023 20.0098Z" fill="url(#paint2_linear_3775_8605)"/>
<path d="M32.0716 39.602C31.9284 39.5044 31.7787 39.4393 31.603 39.4653C31.4598 39.4848 31.2971 39.5629 31.1084 39.7256C30.7439 40.0316 30.7504 40.3245 31.0888 40.5588C32.436 41.5026 33.7897 42.4464 35.1434 43.3902C35.5404 43.6701 35.9374 43.95 36.3344 44.2233C36.4255 44.2884 36.5362 44.308 36.6664 44.2949C36.7575 44.2819 36.8486 44.2494 36.9527 44.1973C37.187 44.0736 37.3562 43.8979 37.4148 43.6831C37.5254 43.4097 37.3692 43.3121 37.213 43.2014C35.5079 41.9973 33.7832 40.8062 32.0716 39.602Z" fill="url(#paint3_linear_3775_8605)"/>
<path d="M51.9932 23.9151C51.8436 23.9347 51.6743 24.0258 51.4856 24.2015C51.1146 24.5661 51.1797 24.8069 51.427 24.9826C53.1647 26.1868 54.8959 27.404 56.6271 28.6147C56.7377 28.6928 56.8353 28.7709 56.9981 28.7513C57.0111 28.7513 57.0241 28.7448 57.0436 28.7448C57.33 28.6993 57.5513 28.5626 57.714 28.3348C57.9287 28.0353 57.8702 27.8466 57.6749 27.7099C55.9177 26.4862 54.167 25.256 52.4098 24.0323C52.2991 23.9412 52.1559 23.8891 51.9932 23.9151Z" fill="url(#paint4_linear_3775_8605)"/>
<path d="M68.2701 29.4674C66.565 28.439 64.8663 27.404 63.1677 26.3756C63.0571 26.3105 62.9399 26.2845 62.8097 26.304C62.6731 26.3235 62.5169 26.3886 62.3412 26.4993C59.6988 28.1396 57.0565 29.7733 54.4142 31.4071C54.1473 31.5698 53.9521 31.7586 53.8675 32.0059C53.3013 33.5876 52.7286 35.1628 52.1689 36.7445C52.0517 37.0829 52.1754 37.2587 52.5594 37.2066C52.9433 37.148 53.2037 36.8942 53.3273 36.5557C53.5746 35.8788 53.8154 35.2018 54.0562 34.5249C54.258 33.9716 54.4532 33.4184 54.681 32.787C56.1193 33.6592 57.4861 34.4923 58.8593 35.319C58.9764 35.3906 58.9829 35.4947 58.9244 35.651C58.3777 37.161 57.8375 38.6776 57.2583 40.2919C56.5033 39.8428 55.8199 39.4392 55.1496 39.0226C55.0064 38.938 54.8567 38.8729 54.6875 38.8989C54.5378 38.9185 54.3686 39.0031 54.1799 39.1984C53.7699 39.6019 53.9131 39.8297 54.1799 39.9925C55.078 40.5327 55.9892 41.0664 56.8743 41.6197C57.0044 41.6978 57.1411 41.7304 57.2973 41.7108C57.4535 41.6913 57.6292 41.6132 57.8375 41.483C60.4408 39.8623 63.0505 38.2546 65.6603 36.6403C65.9271 36.4776 66.1159 36.3084 66.207 36.048C66.9294 34.0172 67.6583 31.9864 68.3938 29.9556C68.4588 29.7278 68.4328 29.5715 68.2701 29.4674ZM55.5011 31.7325C57.3689 30.5739 59.1521 29.4674 60.9419 28.3674C61.417 28.0745 61.9637 27.6123 62.3607 27.5537C62.7707 27.5017 63.0375 27.8532 63.3499 28.0419C64.3847 28.6603 65.413 29.2851 66.4413 29.9165C66.5519 29.9816 66.7212 30.0011 66.7277 30.1834C64.5344 31.5373 62.3411 32.8911 60.1544 34.258C60.0633 34.3101 59.9982 34.3426 59.9396 34.3492C59.8485 34.3622 59.7834 34.3231 59.7053 34.2775C58.3191 33.4379 56.9394 32.6047 55.5011 31.7325ZM66.3762 32.5266C66.0183 33.555 65.6408 34.59 65.2763 35.6184C65.2113 35.7941 65.1722 35.9504 64.9184 36.1001C62.8097 37.3954 60.7011 38.7037 58.5859 40.0055C58.5729 40.012 58.5599 40.0185 58.5469 40.0185C58.5208 40.025 58.4883 40.025 58.4427 40.0315C58.9959 38.4889 59.5491 36.9462 60.1023 35.4036C60.1479 35.2734 60.2325 35.1823 60.3692 35.0977C62.5104 33.7764 64.6581 32.455 66.8448 31.1011C66.7732 31.5958 66.5389 32.0645 66.3762 32.5266Z" fill="url(#paint5_linear_3775_8605)"/>
<path d="M46.5716 42.3422C46.4675 42.6091 46.513 42.7523 46.6757 42.8239C46.7538 42.8565 46.8319 42.863 46.9165 42.85C47.0792 42.8304 47.2549 42.7328 47.4372 42.6156C50.3073 40.741 53.1709 38.8664 56.041 36.9918C56.4315 36.738 56.6593 36.4581 56.5291 36.1782C56.4575 36.035 56.3338 35.9829 56.1711 36.0024C56.028 36.0219 55.8588 36.1001 55.683 36.2172C52.7999 38.1049 49.9103 39.9925 47.0272 41.8801C46.8124 42.0168 46.6237 42.173 46.5716 42.3422Z" fill="url(#paint6_linear_3775_8605)"/>
<path d="M47.782 44.9588C46.1419 43.9759 44.5084 42.9866 42.8879 41.9842C42.7317 41.8865 42.582 41.8475 42.3997 41.8735C42.2305 41.8996 42.0353 41.9777 41.801 42.1274C39.2498 43.7221 36.6986 45.2973 34.1409 46.8659C33.7634 47.1003 33.5421 47.3346 33.425 47.6796C33.0995 48.6299 32.7481 49.5802 32.4097 50.5305C32.0582 51.5134 31.7133 52.4962 31.3488 53.4791C31.2317 53.798 31.2642 53.9998 31.4985 54.143C33.1516 55.1324 34.7917 56.1283 36.4252 57.1372C36.5684 57.2283 36.7181 57.2608 36.8938 57.2413C37.063 57.2153 37.2453 57.1372 37.473 57.0005C40.0438 55.4058 42.6145 53.8111 45.1852 52.2294C45.5627 51.995 45.7775 51.7412 45.8946 51.4092C46.578 49.4956 47.2614 47.5754 47.9577 45.6553C48.0814 45.3103 48.0228 45.102 47.782 44.9588ZM35.4815 47.0352C37.5186 45.7724 39.5557 44.5162 41.5927 43.2534C41.7359 43.1623 41.8596 43.0907 41.9832 43.0712C42.0613 43.0582 42.1329 43.0712 42.211 43.1232C43.5452 43.9564 44.8989 44.77 46.2396 45.5902C46.2851 45.6162 46.3112 45.6553 46.3567 45.7073C44.1504 47.0677 41.9702 48.4151 39.7965 49.769C39.6858 49.8406 39.6012 49.8731 39.5231 49.8861C39.4385 49.8991 39.3734 49.8731 39.2954 49.8275C37.9221 48.9814 36.5359 48.1482 35.1561 47.3086C35.2212 47.1589 35.3709 47.1068 35.4815 47.0352ZM36.8808 55.7182C36.8352 55.7442 36.8027 55.7507 36.7702 55.7572C36.6726 55.7703 36.64 55.6987 36.5814 55.6661C35.3123 54.8981 34.0432 54.13 32.7741 53.3554C32.6375 53.2773 32.5008 53.2122 32.5919 52.9649C33.1451 51.4548 33.6853 49.9382 34.2645 48.3174C35.3319 48.9618 36.3276 49.5607 37.3234 50.166C37.7399 50.4199 38.3907 50.5565 38.4948 50.9796C38.599 51.4092 38.1629 52.1317 37.9482 52.724C37.6032 53.7329 37.2388 54.7288 36.8808 55.7182ZM45.1462 50.4915C44.9249 51.24 44.4889 51.7086 43.6623 52.1968C41.9637 53.1927 40.2846 54.2667 38.599 55.3081C38.4298 55.4123 38.254 55.5164 38.0002 55.6661C38.5794 54.0519 39.1391 52.5093 39.6858 50.9666C39.7379 50.8169 39.842 50.7258 39.9982 50.6281C42.1134 49.3263 44.222 48.0245 46.3307 46.7162C46.3437 46.7097 46.3502 46.7097 46.3697 46.7032C46.3958 46.6967 46.4283 46.6967 46.4869 46.6902C46.0313 47.966 45.5172 49.2417 45.1462 50.4915Z" fill="url(#paint7_linear_3775_8605)"/>
<path d="M27.6393 39.693C26.2661 38.8664 24.8994 38.0397 23.4611 37.174C22.8818 38.7948 22.3417 40.3049 21.795 41.8149C21.7364 41.9712 21.7429 42.0753 21.8601 42.1469C23.1812 42.941 24.4894 43.7351 25.804 44.5422C25.8756 44.5878 25.9342 44.6073 25.9862 44.6008C26.0709 44.5878 26.1229 44.4967 26.1815 44.3339C26.6826 42.9215 27.1903 41.5025 27.6979 40.0835C27.7565 39.9013 27.7695 39.7711 27.6393 39.693Z" fill="url(#paint8_linear_3775_8605)"/>
<path d="M49.1097 23.1862C49.1813 23.1731 49.2594 23.1406 49.37 23.0755C51.5438 21.7216 53.724 20.3807 55.9823 18.9813C54.531 18.1026 53.1383 17.2629 51.7585 16.4037C51.6935 16.3647 51.6284 16.3517 51.5633 16.3582C51.4396 16.3777 51.316 16.4688 51.1858 16.5469C49.3245 17.699 47.4631 18.8446 45.6018 20.0032C45.3089 20.1855 44.99 20.3287 44.7167 20.5956C46.1159 21.4417 47.4957 22.2814 48.8754 23.1211C48.9535 23.1731 49.0251 23.1992 49.1097 23.1862Z" fill="url(#paint9_linear_3775_8605)"/>
<path d="M59.9259 34.3491C59.9845 34.3426 60.0496 34.3165 60.1407 34.2579C62.3339 32.891 64.5272 31.5372 66.7139 30.1833C66.7074 30.0011 66.5382 29.9815 66.4276 29.9164C65.4058 29.2851 64.371 28.6602 63.3362 28.0418C63.0238 27.8531 62.757 27.5016 62.3339 27.5537C61.9434 27.6057 61.3967 28.0744 60.9282 28.3673C59.1384 29.4673 57.3617 30.5738 55.4873 31.7324C56.9256 32.6046 58.3054 33.4443 59.6851 34.284C59.7697 34.323 59.8348 34.3621 59.9259 34.3491Z" fill="url(#paint10_linear_3775_8605)"/>
<path d="M39.5297 49.8861C39.6013 49.8731 39.6924 49.8406 39.8031 49.769C41.9768 48.4151 44.157 47.0742 46.3633 45.7073C46.3177 45.6553 46.2852 45.6162 46.2462 45.5902C44.899 44.7701 43.5453 43.9564 42.2176 43.1233C42.1395 43.0777 42.0679 43.0647 41.9898 43.0712C41.8727 43.0907 41.749 43.1623 41.5993 43.2535C39.5622 44.5162 37.5252 45.7724 35.4881 47.0352C35.371 47.1068 35.2278 47.1589 35.1627 47.3086C36.5425 48.1417 37.9287 48.9814 39.3019 49.8275C39.3735 49.8731 39.4451 49.8926 39.5297 49.8861Z" fill="url(#paint11_linear_3775_8605)"/>
<path d="M46.3305 46.7227C44.2154 48.0245 42.1067 49.3329 39.998 50.6347C39.8419 50.7323 39.7442 50.8169 39.6856 50.9731C39.139 52.5092 38.5858 54.0519 38 55.6726C38.2538 55.5229 38.4231 55.4188 38.5988 55.3146C40.2844 54.2732 41.9635 53.1992 43.6622 52.2033C44.4887 51.7217 44.9247 51.253 45.146 50.498C45.517 49.2482 46.0311 47.9725 46.4867 46.7097C46.4281 46.7162 46.3956 46.7162 46.3696 46.7227C46.35 46.7097 46.337 46.7162 46.3305 46.7227Z" fill="url(#paint12_linear_3775_8605)"/>
<path d="M60.1087 35.4036C59.5555 36.9462 59.0024 38.4888 58.4492 40.0315C58.4947 40.025 58.5273 40.025 58.5533 40.0185C58.5663 40.0185 58.5793 40.012 58.5923 40.0054C60.701 38.7036 62.8096 37.3953 64.9248 36.1C65.1786 35.9438 65.2242 35.7941 65.2827 35.6184C65.6472 34.5899 66.0247 33.555 66.3826 32.5266C66.5453 32.0709 66.7731 31.5958 66.8512 31.1076C64.6645 32.455 62.5233 33.7763 60.3756 35.0976C60.2389 35.1823 60.1543 35.2734 60.1087 35.4036Z" fill="url(#paint13_linear_3775_8605)"/>
<path d="M82.7701 0.619372L28.9149 8.18936C24.7236 8.78168 20.2004 12.3877 18.8142 16.2475L1.00776 65.8593C-0.378481 69.7191 1.89939 72.3748 6.09066 71.789L59.9459 64.219C64.1372 63.6267 68.6604 60.0207 70.0466 56.1608L87.853 6.54908C89.2392 2.68272 86.9679 0.0270514 82.7701 0.619372ZM57.7201 28.3283C57.5574 28.5561 57.3361 28.6993 57.0498 28.7383C57.0367 28.7448 57.0172 28.7448 57.0042 28.7448C56.8415 28.7709 56.7374 28.6863 56.6332 28.6081C54.902 27.3975 53.1709 26.1868 51.4332 24.9761C51.1859 24.8004 51.1143 24.5595 51.4918 24.195C51.674 24.0128 51.8432 23.9282 51.9994 23.9086C52.1556 23.8891 52.2988 23.9347 52.4224 24.0193C54.1796 25.2495 55.9303 26.4732 57.6875 27.6969C57.8763 27.8401 57.9349 28.0289 57.7201 28.3283ZM41.3195 25.7572C41.326 25.7247 41.3325 25.6921 41.3455 25.653C41.9182 24.0258 42.5105 22.3985 43.0962 20.7713C43.1808 20.537 43.3956 20.3808 43.6364 20.231C46.2462 18.6233 48.856 17.0091 51.4592 15.3883C51.6675 15.2582 51.8367 15.1866 51.9864 15.167C52.0254 15.1605 52.0645 15.1605 52.1035 15.1605C52.2142 15.167 52.3183 15.1996 52.4159 15.2581C53.4377 15.8895 54.4725 16.5079 55.5008 17.1327C56.1256 17.5103 56.7504 17.8943 57.3752 18.2718C57.4337 18.3044 57.4793 18.3434 57.5118 18.389C57.5834 18.4736 57.6095 18.5777 57.5964 18.7144C57.5899 18.7795 57.5704 18.8511 57.5444 18.9358C56.9977 20.4328 56.464 21.9299 55.9303 23.4335C55.9108 23.479 55.8978 23.5246 55.8783 23.5702C55.7416 23.8761 55.5138 24.1234 55.1233 24.182C55.1168 24.182 55.1168 24.182 55.1168 24.182C55.1103 24.182 55.1103 24.182 55.1103 24.182C54.7003 24.2406 54.6547 24.0193 54.7458 23.7134C54.7589 23.6678 54.7719 23.6222 54.7914 23.5767C55.0062 22.9844 55.2209 22.392 55.4357 21.7997C55.6505 21.2074 55.8588 20.6151 56.0735 20.0228C56.0475 20.0228 56.0215 20.0228 55.9954 20.0228C55.9238 20.0358 55.8522 20.0618 55.7937 20.1009C55.7611 20.1204 55.7351 20.1399 55.7026 20.1594C55.6765 20.179 55.644 20.1985 55.6179 20.218C53.6655 21.4222 51.713 22.6264 49.7606 23.837C49.6564 23.9021 49.5588 23.9542 49.4677 24.0258C49.3766 24.0974 49.305 24.182 49.2595 24.3122C49.1293 24.6962 48.9926 25.0738 48.856 25.4578C48.7193 25.8418 48.5826 26.2258 48.4459 26.6099C48.1661 27.3844 47.8862 28.172 47.5934 28.9727C48.1075 28.6537 48.6021 28.3543 49.0902 28.0549C49.5784 27.7555 50.0534 27.4626 50.5285 27.1697C50.7043 27.059 50.88 26.9484 51.0622 26.8442C51.2184 26.7531 51.3616 26.6945 51.4787 26.6815C51.648 26.6554 51.7781 26.714 51.8367 26.8702C51.8497 26.9028 51.8562 26.9353 51.8627 26.9679C51.8692 27.0004 51.8627 27.033 51.8627 27.0655C51.8562 27.0981 51.8497 27.1306 51.8367 27.1631C51.7716 27.3324 51.6024 27.4951 51.3746 27.6383C50.4895 28.1916 49.6044 28.7383 48.7128 29.2786C48.127 29.6366 47.5348 29.9881 46.9556 30.3591C46.7798 30.4697 46.6236 30.5413 46.487 30.5609C46.4219 30.5674 46.3633 30.5674 46.3047 30.5543C46.2462 30.5413 46.1876 30.5218 46.1355 30.4893C45.2048 29.923 44.2677 29.3697 43.337 28.8099C43.2849 28.7774 43.2459 28.7448 43.2133 28.7123C43.1743 28.6732 43.1483 28.6277 43.1353 28.5821C43.0962 28.4389 43.1548 28.2567 43.3891 28.0354C43.5713 27.8596 43.7405 27.775 43.8967 27.749C43.9683 27.7359 44.0334 27.7425 44.105 27.7555C44.1375 27.762 44.17 27.775 44.2026 27.788C44.2351 27.801 44.2677 27.814 44.2937 27.8336C44.6451 28.0484 44.9901 28.2567 45.3545 28.4715C45.7125 28.6863 46.0769 28.901 46.4609 29.1289C47.0467 27.5016 47.5934 25.9655 48.1531 24.4229C48.1661 24.3838 48.1726 24.3513 48.1726 24.3252C48.1726 24.2666 48.1531 24.2276 48.114 24.2016C48.0945 24.1885 48.075 24.169 48.0489 24.156C46.7082 23.3424 45.3741 22.5287 44.0334 21.7216C44.0074 21.7021 43.9488 21.7151 43.8577 21.7086C43.4541 22.8346 43.0571 23.9412 42.6601 25.0477C42.6081 25.1909 42.5625 25.3341 42.504 25.4838C42.4519 25.6075 42.3803 25.7116 42.2892 25.7962C42.146 25.9394 41.9638 26.0306 41.749 26.0631C41.5017 26.0957 41.365 26.0176 41.352 25.8483C41.313 25.8158 41.313 25.7897 41.3195 25.7572ZM55.683 36.2172C55.8653 36.1 56.028 36.0219 56.1711 36.0024C56.3339 35.9829 56.4575 36.0284 56.5291 36.1781C56.6593 36.4515 56.4315 36.7379 56.041 36.9918C53.1709 38.8664 50.3073 40.741 47.4372 42.6155C47.2549 42.7392 47.0792 42.8304 46.9165 42.8499C46.8319 42.8629 46.7538 42.8564 46.6757 42.8238C46.5065 42.7522 46.4674 42.6091 46.5716 42.3422C46.6236 42.1729 46.8124 42.0232 47.0336 41.88C49.9168 39.9859 52.7999 38.0983 55.683 36.2172ZM36.2626 30.6845C39.1197 28.8164 41.9768 26.9483 44.8339 25.0803C45.0161 24.9631 45.1788 24.885 45.335 24.8589C45.4261 24.8459 45.5172 24.8525 45.5953 24.8915C45.745 24.9566 45.7971 25.0868 45.706 25.3016C45.6539 25.5294 45.4391 25.6986 45.2048 25.8483C42.3478 27.7164 39.4907 29.5845 36.6336 31.4526C36.4318 31.5893 36.2366 31.6804 36.0804 31.7064C35.9307 31.726 35.807 31.6804 35.7355 31.5372C35.5793 31.2378 35.8656 30.9449 36.2626 30.6845ZM37.4211 43.6765C37.356 43.8913 37.1868 44.0671 36.959 44.1907C36.8549 44.2428 36.7572 44.2754 36.6726 44.2884C36.5425 44.3079 36.4318 44.2819 36.3407 44.2168C35.9437 43.9434 35.5467 43.6635 35.1497 43.3836C33.8025 42.4398 32.4488 41.496 31.0951 40.5522C30.7567 40.3179 30.7502 40.025 31.1146 39.719C31.3034 39.5563 31.4661 39.4782 31.6093 39.4587C31.785 39.4327 31.9347 39.4977 32.0779 39.5954C33.7895 40.7995 35.5076 41.9907 37.2258 43.1883C37.369 43.3055 37.5317 43.4031 37.4211 43.6765ZM30.5875 43.4096C29.2923 44.2038 27.9907 44.9913 26.7021 45.8115C26.4548 45.9677 26.253 46.0588 26.0708 46.0849C25.9016 46.1109 25.7519 46.0784 25.6087 45.9872C23.9947 44.9783 22.3611 43.9955 20.7211 43.0126C20.4607 42.8564 20.4217 42.6416 20.5518 42.2836C21.2547 40.3634 21.9446 38.4498 22.6149 36.5361C22.7386 36.1912 22.9403 35.9568 23.3178 35.7225C25.8886 34.1408 28.4593 32.5526 31.0235 30.9579C31.2448 30.8212 31.427 30.7431 31.5897 30.7171C31.7524 30.6975 31.8891 30.7236 32.0258 30.8082C33.6658 31.8236 35.3254 32.826 36.985 33.8219C37.2193 33.9586 37.2453 34.1669 37.1282 34.4858C36.5815 35.9698 36.0544 37.4539 35.5337 38.9314C35.397 39.3155 35.2018 39.6474 34.7137 39.719C34.2321 39.7841 34.2451 39.4847 34.3883 39.1007C34.8243 37.916 35.2408 36.7314 35.6964 35.4621C34.8959 35.9568 34.193 36.3864 33.4901 36.8225C32.1039 37.6752 30.7241 38.5279 29.3444 39.3871C29.1361 39.5108 28.9214 39.6149 28.8303 39.8622C28.2966 41.3854 27.7434 42.9085 27.1576 44.5292C28.251 43.8588 29.2533 43.2469 30.2556 42.6286C30.646 42.3877 30.9129 42.2576 31.0951 42.2315C31.2578 42.2055 31.3554 42.2706 31.414 42.4008C31.5442 42.6806 31.2904 42.9801 30.5875 43.4096ZM47.9578 45.6488C47.2614 47.5689 46.5716 49.4826 45.8947 51.4027C45.7776 51.7412 45.5628 51.995 45.1853 52.2229C42.6081 53.8046 40.0373 55.3993 37.4731 56.994C37.2518 57.1307 37.0631 57.2153 36.8939 57.2348C36.7247 57.2609 36.575 57.2218 36.4253 57.1307C34.7983 56.1218 33.1517 55.1194 31.4986 54.1365C31.2643 53.9933 31.2318 53.7915 31.3489 53.4726C31.7134 52.4897 32.0583 51.5069 32.4098 50.524C32.7482 49.5737 33.1061 48.6234 33.425 47.6731C33.5422 47.3281 33.757 47.0938 34.1409 46.8594C36.6987 45.2908 39.2564 43.7091 41.8011 42.1209C42.0354 41.9712 42.2306 41.8931 42.3998 41.867C42.5821 41.841 42.7317 41.88 42.8879 41.9777C44.5085 42.9801 46.142 43.9694 47.7821 44.9523C48.0229 45.102 48.0815 45.3103 47.9578 45.6488ZM68.374 29.9555C67.6386 31.9863 66.9096 34.0171 66.1872 36.048C66.0961 36.3083 65.9074 36.4776 65.6405 36.6403C63.0308 38.248 60.421 39.8622 57.8177 41.483C57.6095 41.6132 57.4337 41.6848 57.2775 41.7108C57.1213 41.7303 56.9847 41.7043 56.8545 41.6197C55.9694 41.0664 55.0648 40.5327 54.1601 39.9924C53.8933 39.8297 53.7566 39.6019 54.1601 39.1983C54.3489 39.0096 54.5181 38.9249 54.6678 38.8989C54.837 38.8729 54.9932 38.938 55.1298 39.0226C55.8002 39.4392 56.49 39.8427 57.2385 40.2918C57.8177 38.6776 58.3579 37.161 58.9046 35.6509C58.9632 35.4947 58.9567 35.384 58.8395 35.3189C57.4663 34.4923 56.0996 33.6592 54.6612 32.7869C54.4335 33.4183 54.2382 33.9716 54.0365 34.5248C53.7957 35.2018 53.5549 35.8787 53.3075 36.5557C53.1839 36.9006 52.9235 37.148 52.52 37.2131C52.1556 37.2651 52.0319 37.0829 52.1491 36.7444C52.7088 35.1627 53.2815 33.5875 53.8477 32.0059C53.9388 31.7585 54.1276 31.5697 54.3944 31.407C57.0432 29.7733 59.6856 28.1395 62.3214 26.4992C62.4971 26.3886 62.6533 26.3235 62.79 26.304C62.9201 26.2844 63.0373 26.3105 63.1479 26.3756C64.8466 27.4105 66.5517 28.4389 68.2503 29.4673C68.4326 29.5715 68.4586 29.7277 68.374 29.9555Z" fill="url(#paint14_linear_3775_8605)"/>
<path d="M24.5539 36.2758C25.875 37.0633 27.1832 37.864 28.4978 38.6646C28.5694 38.7101 28.6345 38.7427 28.7256 38.7296C28.7842 38.7231 28.8558 38.6906 28.9469 38.632C31.0555 37.3237 33.1642 36.0219 35.2728 34.7136C35.3574 34.6615 35.4355 34.6029 35.5527 34.5183C35.4811 34.4597 35.4355 34.4207 35.377 34.3881C34.0428 33.5745 32.7021 32.7674 31.3744 31.9473C31.3029 31.9017 31.2378 31.8887 31.1597 31.9017C31.0686 31.9147 30.9709 31.9603 30.8538 32.0384C28.7972 33.3141 26.7471 34.5899 24.684 35.8462C24.3196 36.0805 24.3521 36.1586 24.5539 36.2758Z" fill="url(#paint15_linear_3775_8605)"/>
<path d="M38.5008 50.9861C38.3967 50.5565 37.7459 50.4264 37.3294 50.1725C36.3336 49.5672 35.3379 48.9684 34.2705 48.324C33.6913 49.9447 33.1511 51.4548 32.5979 52.9714C32.5068 53.2187 32.6435 53.2773 32.7802 53.3619C34.0492 54.13 35.3183 54.9045 36.5874 55.6726C36.6395 55.7051 36.6786 55.7767 36.7762 55.7637C36.8087 55.7572 36.8412 55.7507 36.8868 55.7247C37.2448 54.7288 37.6027 53.7329 37.9606 52.7371C38.1624 52.1382 38.605 51.4157 38.5008 50.9861Z" fill="url(#paint16_linear_3775_8605)"/>
<path d="M92.0892 10.0119C92.0892 9.98585 92.0957 9.96633 92.0957 9.94029C92.0957 9.93378 92.0957 9.93377 92.0957 9.92726C92.0957 9.92075 92.0957 9.90775 92.0957 9.90124C92.1087 9.77106 92.1152 9.64738 92.1152 9.52371C92.1152 9.50418 92.1152 9.48466 92.1152 9.47164C92.1152 9.45862 92.1152 9.43909 92.1152 9.42607C92.1152 9.30891 92.1087 9.19175 92.1022 9.0811C92.1022 9.07459 92.1022 9.06809 92.1022 9.06809C92.0957 8.95743 92.0762 8.84677 92.0632 8.73612C92.0632 8.7231 92.0632 8.7166 92.0566 8.70358C92.0501 8.68406 92.0501 8.65802 92.0436 8.63849C92.0306 8.56689 92.0176 8.49528 91.9981 8.42368C91.9916 8.40415 91.9916 8.38463 91.9851 8.3651C91.9786 8.35208 91.9786 8.33255 91.9721 8.31953C91.9525 8.24793 91.933 8.18286 91.907 8.11126C91.9005 8.09173 91.894 8.0722 91.8874 8.04617C91.8874 8.03966 91.8809 8.03315 91.8809 8.02664C91.8484 7.93551 91.8094 7.84438 91.7703 7.75325C91.7703 7.75325 91.7703 7.75327 91.7703 7.74676C91.7638 7.74025 91.7573 7.72722 91.7573 7.72072C91.7182 7.64261 91.6792 7.571 91.6401 7.4929C91.6336 7.48639 91.6336 7.47336 91.6271 7.46685C91.6141 7.44733 91.6011 7.43432 91.5946 7.41479C91.562 7.35621 91.523 7.29762 91.4839 7.24555C91.4709 7.23253 91.4644 7.213 91.4579 7.19998C91.4319 7.16744 91.4123 7.1349 91.3863 7.10235L87.527 2.05786C87.5595 2.10342 87.592 2.14899 87.6246 2.20106C87.6636 2.25313 87.6962 2.31172 87.7352 2.3703C87.7482 2.39634 87.7678 2.42237 87.7808 2.44841C87.8198 2.52001 87.8589 2.59812 87.8979 2.67623C87.9044 2.68924 87.9109 2.69575 87.9109 2.70876C87.95 2.79989 87.989 2.88452 88.0216 2.98215C88.0346 3.00819 88.0411 3.03423 88.0476 3.06677C88.0737 3.13186 88.0932 3.20345 88.1127 3.27504C88.1192 3.30759 88.1322 3.34014 88.1387 3.37919C88.1582 3.45079 88.1713 3.5224 88.1843 3.594C88.1908 3.62654 88.1973 3.65909 88.2038 3.69163C88.2233 3.80228 88.2364 3.91294 88.2429 4.0236C88.2429 4.03011 88.2429 4.03661 88.2429 4.03661C88.2494 4.14726 88.2559 4.26442 88.2559 4.38159C88.2559 4.41413 88.2559 4.44667 88.2559 4.47922C88.2559 4.60289 88.2494 4.73307 88.2363 4.86325C88.2363 4.87626 88.2363 4.88928 88.2363 4.9023C88.2363 4.92833 88.2299 4.95438 88.2299 4.97391C88.2233 5.04551 88.2103 5.12361 88.2038 5.19521C88.1973 5.23427 88.1908 5.26682 88.1843 5.30587C88.1713 5.36446 88.1647 5.42955 88.1517 5.48813C88.1322 5.57274 88.1127 5.66387 88.0932 5.755C88.0867 5.78754 88.0801 5.82008 88.0736 5.85263C88.0411 5.9763 88.0086 6.09996 87.9695 6.22363C87.937 6.33428 87.8979 6.44494 87.8589 6.55559L70.0525 56.1673C70.0134 56.2845 69.9679 56.4017 69.9158 56.5188C69.9028 56.5579 69.8833 56.5969 69.8638 56.636C69.8312 56.7141 69.7987 56.7922 69.7596 56.8703C69.7401 56.9159 69.7141 56.9614 69.6945 57.007C69.662 57.0786 69.6295 57.1437 69.5904 57.2153C69.5644 57.2674 69.5383 57.3129 69.5123 57.365C69.4798 57.4301 69.4407 57.4952 69.4082 57.5603C69.3821 57.6123 69.3496 57.6579 69.3236 57.71C69.2845 57.7751 69.252 57.8401 69.2129 57.8987C69.1804 57.9508 69.1478 58.0029 69.1153 58.0484C69.0763 58.1135 69.0372 58.1721 68.9982 58.2372C68.9656 58.2893 68.9331 58.3413 68.894 58.3869C68.855 58.4455 68.8094 58.5106 68.7704 58.5692C68.7313 58.6212 68.6988 58.6733 68.6597 58.7189C68.6207 58.7775 68.5751 58.8295 68.5361 58.8881C68.4775 58.9597 68.4254 59.0313 68.3669 59.1094C68.3278 59.155 68.2953 59.2005 68.2562 59.2461C68.1912 59.3242 68.1261 59.4023 68.061 59.4804C68.0284 59.5195 67.9959 59.5585 67.9634 59.5911C67.8202 59.7538 67.677 59.91 67.5273 60.0662C67.4948 60.0988 67.4687 60.1313 67.4362 60.1639C67.306 60.3006 67.1694 60.4373 67.0327 60.5674C67.0197 60.5805 67.0067 60.5935 66.9871 60.6065C66.87 60.7171 66.7528 60.8213 66.6357 60.9254C66.5966 60.9645 66.5511 60.997 66.512 61.0361C66.4209 61.1142 66.3363 61.1858 66.2452 61.2639C66.1997 61.2964 66.1606 61.3355 66.115 61.368C66.0174 61.4461 65.9133 61.5308 65.8092 61.6089C65.7831 61.6284 65.7506 61.6544 65.7245 61.674C65.5944 61.7716 65.4642 61.8692 65.3341 61.9604C65.3015 61.9864 65.2625 62.0059 65.2299 62.032C65.1323 62.0971 65.0347 62.1621 64.9371 62.2272C64.885 62.2598 64.8394 62.2923 64.7874 62.3249C64.7028 62.3769 64.6182 62.4355 64.527 62.4876C64.475 62.5201 64.4229 62.5527 64.3709 62.5852C64.2862 62.6373 64.1951 62.6894 64.104 62.7414C64.052 62.774 63.9999 62.8 63.9478 62.8261C63.8437 62.8846 63.7461 62.9367 63.6419 62.9888C63.6029 63.0083 63.5573 63.0344 63.5183 63.0539C63.3751 63.1255 63.2254 63.1971 63.0822 63.2687C63.0562 63.2817 63.0302 63.2947 63.0041 63.3012C62.874 63.3598 62.7438 63.4184 62.6136 63.4705C62.5681 63.49 62.5225 63.5095 62.477 63.529C62.3338 63.5876 62.1971 63.6397 62.0539 63.6918C62.0214 63.7048 61.9954 63.7178 61.9628 63.7243C61.7741 63.7894 61.5854 63.848 61.3966 63.9066C61.3445 63.9196 61.2925 63.9391 61.2339 63.9521C61.1688 63.9716 61.0972 63.9912 61.0322 64.0042C60.9671 64.0237 60.902 64.0367 60.8369 64.0498C60.7718 64.0628 60.7002 64.0823 60.6351 64.0953C60.5831 64.1083 60.5245 64.1214 60.4724 64.1279C60.2967 64.1604 60.121 64.1929 59.9453 64.219L6.09009 71.789C3.90334 72.0949 2.23724 71.5221 1.33911 70.3505L5.19846 75.395C6.09659 76.5666 7.76268 77.1394 9.94943 76.8335L63.8046 69.2635C63.9804 69.2374 64.1561 69.2049 64.3318 69.1724C64.3513 69.1658 64.3773 69.1658 64.3969 69.1593C64.4294 69.1528 64.462 69.1463 64.4945 69.1398C64.5596 69.1268 64.6312 69.1073 64.6963 69.0943C64.7613 69.0812 64.8264 69.0617 64.8915 69.0487C64.9566 69.0292 65.0282 69.0161 65.0933 68.9966C65.1258 68.9901 65.1583 68.9771 65.1974 68.9706C65.2169 68.9641 65.2364 68.9576 65.256 68.951C65.4447 68.8925 65.6334 68.8339 65.8222 68.7688C65.8287 68.7688 65.8352 68.7623 65.8417 68.7623C65.8677 68.7558 65.8873 68.7428 65.9133 68.7362C66.0565 68.6842 66.1931 68.6321 66.3363 68.5735C66.3624 68.5605 66.3884 68.554 66.4144 68.5475C66.4339 68.541 66.4535 68.528 66.4795 68.5215C66.6097 68.4694 66.7398 68.4108 66.87 68.3522C66.8895 68.3457 66.909 68.3327 66.9351 68.3262C66.9416 68.3262 66.9481 68.3197 66.9481 68.3197C67.0978 68.2546 67.241 68.183 67.3841 68.1049C67.3907 68.0984 67.4037 68.0984 67.4102 68.0919C67.4427 68.0723 67.4752 68.0593 67.5078 68.0398C67.6119 67.9877 67.7095 67.9356 67.8137 67.877C67.8332 67.864 67.8527 67.8575 67.8723 67.8445C67.9048 67.825 67.9373 67.8055 67.9699 67.7859C68.061 67.7339 68.1456 67.6818 68.2367 67.6297C68.2627 67.6102 68.2953 67.5972 68.3213 67.5776C68.3473 67.5646 68.3669 67.5451 68.3929 67.5321C68.4775 67.48 68.5686 67.4214 68.6532 67.3693C68.6858 67.3498 68.7183 67.3303 68.7574 67.3043C68.7704 67.2913 68.7899 67.2847 68.8029 67.2717C68.9006 67.2066 68.9982 67.1415 69.0958 67.0699C69.1218 67.0504 69.1544 67.0309 69.1804 67.0114C69.1869 67.0048 69.1934 67.0049 69.1999 66.9983C69.3301 66.9072 69.4602 66.8096 69.5904 66.7119C69.5969 66.7054 69.5969 66.7054 69.6034 66.6989C69.6294 66.6794 69.649 66.6599 69.675 66.6469C69.7792 66.5687 69.8833 66.4906 69.9809 66.406C69.9939 66.393 70.0135 66.38 70.0265 66.367C70.0525 66.3474 70.0785 66.3214 70.1046 66.3019C70.1957 66.2238 70.2868 66.1522 70.3779 66.0741C70.4039 66.0545 70.43 66.035 70.4495 66.009C70.469 65.9959 70.482 65.9764 70.5015 65.9634C70.6187 65.8593 70.7358 65.7486 70.853 65.6445C70.866 65.6314 70.879 65.6249 70.8855 65.6119L70.892 65.6054C71.0287 65.4752 71.1654 65.3385 71.2955 65.2019C71.3086 65.1888 71.3281 65.1693 71.3411 65.1563C71.3541 65.1433 71.3737 65.1237 71.3867 65.1042C71.5364 64.948 71.686 64.7918 71.8227 64.6291C71.8292 64.6225 71.8357 64.616 71.8357 64.6095C71.8618 64.577 71.8878 64.5444 71.9138 64.5119C71.9789 64.4338 72.044 64.3557 72.1091 64.2776C72.1481 64.232 72.1807 64.1864 72.2197 64.1409C72.2783 64.0693 72.3369 63.9977 72.3889 63.9196C72.4019 63.9 72.4215 63.8805 72.4345 63.861C72.4605 63.8284 72.4865 63.7894 72.5126 63.7568C72.5516 63.7048 72.5842 63.6592 72.6232 63.6071C72.6688 63.5486 72.7078 63.4835 72.7469 63.4249C72.7794 63.3728 72.8185 63.3208 72.851 63.2752C72.8901 63.2166 72.9291 63.1515 72.9682 63.0864C73.0007 63.0343 73.0332 62.9823 73.0658 62.9367C73.1048 62.8716 73.1439 62.8065 73.1764 62.748C73.2025 62.6959 73.235 62.6503 73.261 62.5982C73.3001 62.5332 73.3326 62.4681 73.3652 62.403C73.3912 62.3509 73.4172 62.3053 73.4433 62.2533C73.4758 62.1817 73.5083 62.1166 73.5474 62.045C73.5669 61.9994 73.5929 61.9539 73.6125 61.9083C73.645 61.8302 73.6841 61.7521 73.7166 61.674C73.7361 61.6349 73.7491 61.5959 73.7687 61.5568C73.8142 61.4396 73.8598 61.3225 73.9053 61.2053L91.7117 11.5936C91.7508 11.4894 91.7833 11.3788 91.8158 11.2746C91.8158 11.2681 91.8158 11.2681 91.8158 11.2616C91.8549 11.138 91.8874 11.0143 91.92 10.8906C91.9265 10.8581 91.933 10.8255 91.9395 10.793C91.959 10.7018 91.9785 10.6172 91.9981 10.5261C91.9981 10.5131 92.0046 10.5001 92.0046 10.487C92.0111 10.4415 92.0176 10.3894 92.0306 10.3438C92.0371 10.3048 92.0436 10.2722 92.0501 10.2332C92.0697 10.1616 92.0827 10.0835 92.0892 10.0119Z" fill="url(#paint17_linear_3775_8605)"/>
<defs>
<linearGradient id="paint0_linear_3775_8605" x1="-18.1318" y1="79.4886" x2="33.0715" y2="34.9447" gradientUnits="userSpaceOnUse">
<stop stop-color="#09453D"/>
<stop offset="0.3367" stop-color="#297C63"/>
<stop offset="0.6283" stop-color="#41A37E"/>
<stop offset="0.8589" stop-color="#50BC8F"/>
<stop offset="1" stop-color="#55C595"/>
</linearGradient>
<linearGradient id="paint1_linear_3775_8605" x1="-18.4617" y1="79.1094" x2="32.7416" y2="34.5652" gradientUnits="userSpaceOnUse">
<stop stop-color="#09453D"/>
<stop offset="0.3367" stop-color="#297C63"/>
<stop offset="0.6283" stop-color="#41A37E"/>
<stop offset="0.8589" stop-color="#50BC8F"/>
<stop offset="1" stop-color="#55C595"/>
</linearGradient>
<linearGradient id="paint2_linear_3775_8605" x1="-17.3683" y1="80.3661" x2="33.8351" y2="35.822" gradientUnits="userSpaceOnUse">
<stop stop-color="#09453D"/>
<stop offset="0.3367" stop-color="#297C63"/>
<stop offset="0.6283" stop-color="#41A37E"/>
<stop offset="0.8589" stop-color="#50BC8F"/>
<stop offset="1" stop-color="#55C595"/>
</linearGradient>
<linearGradient id="paint3_linear_3775_8605" x1="-14.2301" y1="83.9735" x2="36.9727" y2="39.4292" gradientUnits="userSpaceOnUse">
<stop stop-color="#09453D"/>
<stop offset="0.3367" stop-color="#297C63"/>
<stop offset="0.6283" stop-color="#41A37E"/>
<stop offset="0.8589" stop-color="#50BC8F"/>
<stop offset="1" stop-color="#55C595"/>
</linearGradient>
<linearGradient id="paint4_linear_3775_8605" x1="-13.1361" y1="85.2315" x2="38.0673" y2="40.6872" gradientUnits="userSpaceOnUse">
<stop stop-color="#09453D"/>
<stop offset="0.3367" stop-color="#297C63"/>
<stop offset="0.6283" stop-color="#41A37E"/>
<stop offset="0.8589" stop-color="#50BC8F"/>
<stop offset="1" stop-color="#55C595"/>
</linearGradient>
<linearGradient id="paint5_linear_3775_8605" x1="-6.96698" y1="92.3227" x2="44.2363" y2="47.7785" gradientUnits="userSpaceOnUse">
<stop stop-color="#09453D"/>
<stop offset="0.3367" stop-color="#297C63"/>
<stop offset="0.6283" stop-color="#41A37E"/>
<stop offset="0.8589" stop-color="#50BC8F"/>
<stop offset="1" stop-color="#55C595"/>
</linearGradient>
<linearGradient id="paint6_linear_3775_8605" x1="-7.95006" y1="91.1931" x2="43.2536" y2="46.6492" gradientUnits="userSpaceOnUse">
<stop stop-color="#09453D"/>
<stop offset="0.3367" stop-color="#297C63"/>
<stop offset="0.6283" stop-color="#41A37E"/>
<stop offset="0.8589" stop-color="#50BC8F"/>
<stop offset="1" stop-color="#55C595"/>
</linearGradient>
<linearGradient id="paint7_linear_3775_8605" x1="-8.0582" y1="91.0687" x2="43.1452" y2="46.5246" gradientUnits="userSpaceOnUse">
<stop stop-color="#09453D"/>
<stop offset="0.3367" stop-color="#297C63"/>
<stop offset="0.6283" stop-color="#41A37E"/>
<stop offset="0.8589" stop-color="#50BC8F"/>
<stop offset="1" stop-color="#55C595"/>
</linearGradient>
<linearGradient id="paint8_linear_3775_8605" x1="-20.5952" y1="68.4792" x2="91.6419" y2="0.15446" gradientUnits="userSpaceOnUse">
<stop stop-color="#1E1F28"/>
<stop offset="0.5019" stop-color="#40424C"/>
<stop offset="1" stop-color="#5E616B"/>
</linearGradient>
<linearGradient id="paint9_linear_3775_8605" x1="-23.0432" y1="64.4584" x2="89.1942" y2="-3.86649" gradientUnits="userSpaceOnUse">
<stop stop-color="#1E1F28"/>
<stop offset="0.5019" stop-color="#40424C"/>
<stop offset="1" stop-color="#5E616B"/>
</linearGradient>
<linearGradient id="paint10_linear_3775_8605" x1="-15.1719" y1="77.3887" x2="97.0651" y2="9.06383" gradientUnits="userSpaceOnUse">
<stop stop-color="#1E1F28"/>
<stop offset="0.5019" stop-color="#40424C"/>
<stop offset="1" stop-color="#5E616B"/>
</linearGradient>
<linearGradient id="paint11_linear_3775_8605" x1="-13.7776" y1="79.6784" x2="98.4592" y2="11.3533" gradientUnits="userSpaceOnUse">
<stop stop-color="#1E1F28"/>
<stop offset="0.5019" stop-color="#40424C"/>
<stop offset="1" stop-color="#5E616B"/>
</linearGradient>
<linearGradient id="paint12_linear_3775_8605" x1="-11.3002" y1="83.7488" x2="100.937" y2="15.4238" gradientUnits="userSpaceOnUse">
<stop stop-color="#1E1F28"/>
<stop offset="0.5019" stop-color="#40424C"/>
<stop offset="1" stop-color="#5E616B"/>
</linearGradient>
<linearGradient id="paint13_linear_3775_8605" x1="-12.6873" y1="81.4693" x2="99.5498" y2="13.1445" gradientUnits="userSpaceOnUse">
<stop stop-color="#1E1F28"/>
<stop offset="0.5019" stop-color="#40424C"/>
<stop offset="1" stop-color="#5E616B"/>
</linearGradient>
<linearGradient id="paint14_linear_3775_8605" x1="-17.3445" y1="73.8194" x2="94.8927" y2="5.49443" gradientUnits="userSpaceOnUse">
<stop stop-color="#1E1F28"/>
<stop offset="0.5019" stop-color="#40424C"/>
<stop offset="1" stop-color="#5E616B"/>
</linearGradient>
<linearGradient id="paint15_linear_3775_8605" x1="-21.6573" y1="66.7356" x2="90.5798" y2="-1.58933" gradientUnits="userSpaceOnUse">
<stop stop-color="#1E1F28"/>
<stop offset="0.5019" stop-color="#40424C"/>
<stop offset="1" stop-color="#5E616B"/>
</linearGradient>
<linearGradient id="paint16_linear_3775_8605" x1="-12.7139" y1="81.4265" x2="99.5226" y2="13.1014" gradientUnits="userSpaceOnUse">
<stop stop-color="#1E1F28"/>
<stop offset="0.5019" stop-color="#40424C"/>
<stop offset="1" stop-color="#5E616B"/>
</linearGradient>
<linearGradient id="paint17_linear_3775_8605" x1="11.0868" y1="98.3296" x2="110.94" y2="-22.3995" gradientUnits="userSpaceOnUse">
<stop/>
<stop offset="0.0557" stop-color="#070709"/>
<stop offset="0.2739" stop-color="#1E1F28"/>
<stop offset="0.6938" stop-color="#3F4047"/>
<stop offset="1" stop-color="#525359"/>
</linearGradient>
</defs>
</svg>
