<svg width="58" height="50" viewBox="0 0 58 50" fill="none" xmlns="http://www.w3.org/2000/svg">
<path d="M25.4432 9.52192C25.4497 9.46984 25.4497 9.42428 25.4497 9.37221C25.4497 9.32664 25.4497 9.28759 25.4432 9.24203V9.23552C25.4432 9.23552 25.4432 9.23552 25.4432 9.22901C25.4432 9.19646 25.4367 9.15741 25.4302 9.12487C25.4237 9.08581 25.4172 9.05327 25.4041 9.01421C25.3976 8.98167 25.3846 8.94912 25.3716 8.91658C25.3716 8.91658 25.3716 8.91007 25.3651 8.91007V8.90356C25.3586 8.87752 25.3456 8.85149 25.3325 8.82545C25.3195 8.79941 25.3065 8.76687 25.287 8.74083C25.274 8.7148 25.2544 8.68876 25.2349 8.66272C25.2284 8.64971 25.2219 8.6432 25.2154 8.63669L21.4927 3.76794C21.5578 3.85256 21.6033 3.94369 21.6424 4.04132V4.04783C21.6814 4.14547 21.701 4.24961 21.714 4.36677C21.714 4.36677 21.714 4.36677 21.714 4.37328C21.7205 4.48394 21.7205 4.59459 21.701 4.71175C21.701 4.72477 21.6945 4.73779 21.6945 4.75081C21.6749 4.86146 21.6489 4.97862 21.6099 5.10229C21.6033 5.11531 21.5968 5.13484 21.5903 5.14786C21.5448 5.27153 21.4992 5.38869 21.4341 5.51236C21.4276 5.51887 21.4276 5.52538 21.4211 5.5384C21.356 5.66207 21.2714 5.79225 21.1803 5.91592C21.1738 5.92243 21.1738 5.92894 21.1673 5.93545C21.0697 6.07214 20.959 6.20232 20.8289 6.3325C20.8289 6.3325 20.8289 6.3325 20.8224 6.33901C20.6922 6.46919 20.5555 6.59937 20.3993 6.72304L12.5309 13.0042C12.3812 13.1279 12.225 13.2321 12.0754 13.3297C12.0688 13.3297 12.0688 13.3362 12.0623 13.3362C11.9126 13.4273 11.7565 13.5119 11.6068 13.577C11.6003 13.577 11.6003 13.5835 11.5937 13.5835C11.4506 13.6486 11.3009 13.7007 11.1642 13.7463C11.1577 13.7463 11.1512 13.7528 11.1447 13.7528C11.0015 13.7983 10.8583 13.8244 10.7151 13.8439C10.0773 13.935 9.53715 13.7723 9.25079 13.4013L12.9735 18.27C13.2598 18.641 13.7935 18.8038 14.4378 18.7126C14.4964 18.7061 14.555 18.6931 14.6135 18.6801C14.6916 18.6671 14.7697 18.6476 14.8478 18.6215C14.8544 18.6215 14.8609 18.615 14.8674 18.615C14.8739 18.615 14.8804 18.6085 14.8869 18.6085C14.939 18.5955 14.9845 18.576 15.0366 18.5564C15.0886 18.5369 15.1472 18.5174 15.1993 18.4913C15.2383 18.4783 15.2774 18.4588 15.3164 18.4393C15.3229 18.4393 15.3229 18.4328 15.3295 18.4328C15.336 18.4328 15.3425 18.4263 15.349 18.4263C15.3945 18.4067 15.4401 18.3807 15.4922 18.3612C15.5377 18.3351 15.5833 18.3156 15.6288 18.2896C15.6744 18.2635 15.7134 18.2375 15.759 18.2115C15.7655 18.2049 15.7785 18.1984 15.785 18.1919C15.7915 18.1919 15.7915 18.1854 15.798 18.1854C15.8306 18.1659 15.8566 18.1464 15.8891 18.1268C15.9347 18.1008 15.9738 18.0683 16.0193 18.0357C16.0649 18.0032 16.1104 17.9706 16.1495 17.9381C16.182 17.912 16.2211 17.886 16.2536 17.86L24.122 11.5788C24.1285 11.5723 24.135 11.5723 24.135 11.5657C24.1806 11.5267 24.2261 11.4876 24.2717 11.4486C24.3173 11.4095 24.3628 11.364 24.4084 11.3249C24.4539 11.2793 24.4995 11.2338 24.545 11.1882C24.545 11.1882 24.5451 11.1882 24.5516 11.1817C24.5516 11.1817 24.5516 11.1817 24.5581 11.1752C24.6101 11.1231 24.6622 11.0646 24.7078 11.0125C24.7728 10.9409 24.8314 10.8628 24.8835 10.7912L24.89 10.7847C24.8965 10.7782 24.8965 10.7716 24.903 10.7651C24.9941 10.6415 25.0722 10.5113 25.1438 10.3876C25.1503 10.3811 25.1503 10.3746 25.1568 10.3616C25.2219 10.2379 25.274 10.1142 25.313 9.99707C25.3195 9.98406 25.326 9.96453 25.3325 9.95151C25.3391 9.93849 25.3391 9.92547 25.3456 9.91897C25.3716 9.84086 25.3911 9.76275 25.4041 9.68464C25.4106 9.6586 25.4106 9.63257 25.4172 9.60653C25.4172 9.59351 25.4237 9.5805 25.4237 9.56748C25.4367 9.55446 25.4367 9.54144 25.4432 9.52192Z" fill="url(#paint0_linear_3775_9176)"/>
<path opacity="0.4" d="M53.4286 7.55614C53.4286 7.60821 53.4222 7.66028 53.4222 7.71235C53.4222 7.83602 53.4156 7.95969 53.4091 8.08337C53.4026 8.20704 53.3961 8.33071 53.3831 8.45438C53.3766 8.48042 53.3766 8.50645 53.3766 8.53249C53.3701 8.57805 53.3636 8.63012 53.3636 8.67569C53.3506 8.81888 53.331 8.96208 53.3115 9.10528C53.2985 9.17688 53.2855 9.24848 53.279 9.32659C53.2725 9.33961 53.2725 9.34612 53.2725 9.35913C53.2464 9.46979 53.2269 9.58044 53.2139 9.68458C53.1813 9.86033 53.1423 10.0296 53.0967 10.2053C53.0837 10.2444 53.0772 10.2899 53.0707 10.329C53.0642 10.3485 53.0577 10.368 53.0577 10.3876C52.9991 10.6284 52.9275 10.8692 52.8559 11.1101C52.7909 11.3249 52.7193 11.5397 52.6412 11.7545C52.5566 11.9823 52.4654 12.2166 52.3743 12.4444C52.3418 12.5225 52.3027 12.6006 52.2767 12.6722C52.2116 12.8284 52.1465 12.9781 52.075 13.1279C52.0359 13.219 51.9838 13.3101 51.9448 13.4012C51.8797 13.5379 51.8146 13.6681 51.743 13.8048C51.717 13.8569 51.6975 13.9024 51.6715 13.948C51.6454 14.0001 51.6194 14.0456 51.5934 14.0912C51.5348 14.2149 51.4632 14.3385 51.3981 14.4622C51.3916 14.4687 51.3916 14.4752 51.3916 14.4752C51.3786 14.5013 51.3656 14.5208 51.3526 14.5468C51.307 14.6249 51.2614 14.703 51.2159 14.7746C51.1898 14.8137 51.1703 14.8527 51.1508 14.8918C51.0987 14.9764 51.0532 15.061 50.9946 15.1456C50.936 15.2433 50.8709 15.3474 50.8059 15.4451C50.7343 15.5622 50.6562 15.6859 50.5781 15.8031C50.513 15.9007 50.4414 16.0048 50.3763 16.1025C50.2982 16.2196 50.2136 16.3433 50.129 16.454C50.0574 16.5516 49.9858 16.6557 49.9142 16.7469C49.8361 16.8575 49.7515 16.9682 49.6734 17.0788C49.5628 17.222 49.4521 17.3652 49.3415 17.5084C49.2699 17.5995 49.1983 17.6907 49.1267 17.7753C49.0031 17.9315 48.8729 18.0812 48.7493 18.2309C48.6907 18.3025 48.6256 18.3741 48.5671 18.4522C48.4564 18.5759 48.3458 18.7061 48.2351 18.8298C48.2026 18.8623 48.1765 18.8883 48.144 18.9274C48.0008 19.0836 47.8577 19.2333 47.708 19.3895C47.6494 19.4546 47.5908 19.5132 47.5257 19.5783C47.3956 19.7085 47.2654 19.8452 47.1352 19.9753C47.0051 20.1055 46.8749 20.2357 46.7382 20.3659C46.7122 20.3919 46.6862 20.418 46.6601 20.4375C46.543 20.5481 46.4324 20.6523 46.3152 20.7564C46.1981 20.8671 46.0874 20.9647 45.9638 21.0689C45.8857 21.1405 45.8011 21.2121 45.723 21.2771C45.6449 21.3487 45.5668 21.4138 45.4822 21.4789C45.3845 21.557 45.2869 21.6416 45.1893 21.7198C45.1112 21.7914 45.0266 21.8564 44.942 21.9215C44.7402 22.0778 44.545 22.234 44.3432 22.3902C44.161 22.5334 43.9853 22.6636 43.7965 22.8003C43.6664 22.8979 43.5362 22.989 43.406 23.0736C43.341 23.1192 43.2694 23.1648 43.2043 23.2103C43.0221 23.3405 42.8333 23.4707 42.6511 23.5878C42.6446 23.5944 42.6381 23.5944 42.6316 23.6009C42.5339 23.6594 42.4363 23.7245 42.3452 23.7831C42.1369 23.9198 41.9157 24.05 41.7009 24.1802C41.6423 24.2127 41.5838 24.2518 41.5252 24.2843L41.3885 24.3624C41.2909 24.421 41.1933 24.4796 41.0956 24.5316C41.0891 24.5382 41.0826 24.5382 41.0761 24.5447C40.9525 24.6163 40.8288 24.6879 40.7052 24.753C40.5294 24.8506 40.3537 24.9417 40.178 25.0394C40.152 25.0524 40.1324 25.0654 40.1064 25.0719C39.8851 25.1891 39.6638 25.2997 39.436 25.4104C39.2929 25.482 39.1497 25.5471 39.0065 25.6121C38.9545 25.6382 38.9089 25.6512 38.8568 25.6772C38.603 25.7944 38.3492 25.9051 38.0954 26.0092C38.0042 26.0483 37.9131 26.0808 37.822 26.1199C37.6854 26.1784 37.5487 26.2305 37.412 26.2826C37.1972 26.3672 36.9825 26.4388 36.7612 26.5169C36.631 26.5625 36.4944 26.608 36.3642 26.6536C36.1494 26.7252 35.9347 26.7968 35.7199 26.8554C35.6483 26.8749 35.5832 26.8944 35.5181 26.914C35.4791 26.927 35.44 26.9335 35.401 26.9465C35.3229 26.9725 35.2448 26.9921 35.1602 27.0116C34.978 27.0571 34.8022 27.1092 34.62 27.1483C34.4833 27.1808 34.3532 27.2069 34.223 27.2394C33.9432 27.298 33.6633 27.3566 33.3834 27.4021C33.2142 27.4347 33.045 27.4607 32.8693 27.4802C32.4788 27.5388 32.0753 27.5779 31.6978 27.6039C31.7369 27.4802 31.7694 27.3501 31.7954 27.2264C31.8085 27.1678 31.8215 27.1092 31.8345 27.0506C31.8475 26.9921 31.8605 26.927 31.8735 26.8684C31.8866 26.8163 31.8996 26.7577 31.9061 26.7057C31.9191 26.6406 31.9386 26.5755 31.9451 26.5039C31.9516 26.4713 31.9581 26.4453 31.9581 26.4062C31.9647 26.3542 31.9712 26.2956 31.9842 26.2435C32.0037 26.1459 32.0167 26.0417 32.0297 25.9506C32.0428 25.866 32.0493 25.7814 32.0623 25.6968C32.0688 25.6056 32.0818 25.5145 32.0883 25.4299V25.4169C32.1013 25.3323 32.1013 25.2476 32.1078 25.1695C32.1144 25.0914 32.1209 25.0068 32.1209 24.9222C32.1274 24.8246 32.1274 24.7334 32.1274 24.6358C32.1339 24.5837 32.1339 24.5317 32.1339 24.4796C32.1274 24.3234 32.1274 24.1737 32.1209 24.0239C32.1143 23.9393 32.1144 23.8612 32.1078 23.7766C32.1013 23.7571 32.1013 23.7375 32.1013 23.718C32.1013 23.705 32.1013 23.692 32.0948 23.6855C32.0883 23.5683 32.0688 23.4577 32.0558 23.3405C32.0493 23.2819 32.0428 23.2233 32.0297 23.1648C32.0297 23.1517 32.0232 23.1452 32.0232 23.1322C32.0167 23.0736 32.0037 23.0216 31.9972 22.9695C31.9647 22.7872 31.9256 22.6115 31.8801 22.4357L31.867 22.3772C31.8605 22.3511 31.854 22.3251 31.841 22.2991C31.828 22.2535 31.815 22.2079 31.802 22.1624C31.7694 22.0517 31.7304 21.9411 31.6913 21.8369C31.6783 21.7848 31.6588 21.7393 31.6393 21.6872C31.6327 21.6742 31.6262 21.6547 31.6197 21.6351C31.5807 21.5245 31.5416 21.4269 31.4961 21.3227C31.4896 21.3097 31.4831 21.2967 31.4831 21.2902C31.457 21.2446 31.444 21.199 31.4245 21.1535C31.4049 21.1079 31.3854 21.0623 31.3594 21.0233C31.3204 20.9387 31.2748 20.8541 31.2292 20.7694C31.2227 20.7564 31.2162 20.7434 31.2162 20.7369C31.2032 20.7109 31.1902 20.6848 31.1772 20.6653C31.1642 20.6458 31.1511 20.6262 31.1446 20.6067C31.1316 20.5807 31.1121 20.5546 31.0926 20.5286C31.0665 20.4896 31.0405 20.444 31.0145 20.4049C30.9754 20.3333 30.9233 20.2682 30.8778 20.2032C30.8452 20.1576 30.8192 20.112 30.7867 20.073C29.2182 17.912 26.3546 16.7404 22.5864 17.0007C22.6905 16.6492 22.8076 16.2717 22.9313 15.9202C25.6387 8.36976 34.4833 1.3205 42.6771 0.161894C46.9595 -0.443445 50.2071 0.682615 51.9643 2.97379C52.0359 3.06491 52.0945 3.15604 52.1596 3.25368C52.2312 3.36433 52.3027 3.47498 52.3678 3.58564C52.4004 3.63771 52.4329 3.68978 52.4655 3.74185C52.498 3.80043 52.537 3.86552 52.5696 3.93712C52.5761 3.95014 52.5826 3.96967 52.5956 3.98269C52.6281 4.04778 52.6607 4.11938 52.6932 4.18447C52.7063 4.20399 52.7193 4.22352 52.7258 4.24305C52.7778 4.36021 52.8299 4.48388 52.882 4.60104C52.9015 4.65962 52.921 4.7117 52.9405 4.77028C52.9405 4.77679 52.9471 4.77679 52.9471 4.7833C52.9666 4.83537 52.9796 4.88093 52.9991 4.933C53.0447 5.06318 53.0902 5.19987 53.1228 5.33656C53.1618 5.47976 53.1944 5.62296 53.2204 5.77267C53.2334 5.83776 53.2464 5.89634 53.2595 5.96794C53.2595 5.97444 53.2659 5.98095 53.2659 5.98746C53.279 6.04604 53.292 6.09812 53.2985 6.1567C53.305 6.16971 53.305 6.18924 53.305 6.20226C53.3376 6.39753 53.3636 6.59931 53.3766 6.80109C53.3831 6.81411 53.3831 6.82713 53.3831 6.83363C53.4222 7.07447 53.4286 7.30879 53.4286 7.55614Z" fill="url(#paint1_linear_3775_9176)"/>
<path opacity="0.4" d="M31.2098 20.6787C31.2229 20.7048 31.2359 20.731 31.249 20.7505C31.2098 20.6787 31.1641 20.6069 31.1183 20.5416C31.1379 20.5677 31.1576 20.5939 31.1706 20.62C31.1837 20.6396 31.1967 20.6591 31.2098 20.6787Z" fill="url(#paint2_linear_3775_9176)"/>
<path opacity="0.4" d="M31.9061 22.4038L31.9192 22.4626C31.8931 22.3646 31.8669 22.2798 31.8474 22.1884C31.8669 22.2536 31.8865 22.332 31.9061 22.4038Z" fill="url(#paint3_linear_3775_9176)"/>
<path opacity="0.4" d="M31.939 26.726C31.9652 26.6281 31.9782 26.5237 31.9978 26.4323C31.9913 26.4649 31.9848 26.4975 31.9848 26.5302C31.9717 26.5955 31.9521 26.6608 31.939 26.726Z" fill="url(#paint4_linear_3775_9176)"/>
<path opacity="0.4" d="M32.1605 24.0435C32.154 23.9393 32.1475 23.8417 32.1345 23.7375C32.1345 23.7571 32.141 23.7766 32.141 23.7961C32.1475 23.8807 32.154 23.9589 32.1605 24.0435Z" fill="url(#paint5_linear_3775_9176)"/>
<path opacity="0.4" d="M35.7332 26.8879C35.6616 26.914 35.5965 26.927 35.5314 26.9465C35.4729 26.966 35.4143 26.9791 35.3557 26.9921C35.3752 26.9856 35.3948 26.9791 35.4143 26.9726C35.4533 26.9595 35.4924 26.953 35.5314 26.94C35.5965 26.9205 35.6616 26.9075 35.7332 26.8879Z" fill="url(#paint6_linear_3775_9176)"/>
<path opacity="0.4" d="M38.1085 26.0417C37.8807 26.1394 37.6529 26.2305 37.4251 26.3151C37.5618 26.2631 37.6985 26.2045 37.8351 26.1524C37.9263 26.1133 38.0174 26.0808 38.1085 26.0417Z" fill="url(#paint7_linear_3775_9176)"/>
<path opacity="0.4" d="M50.1293 16.4669C50.0577 16.5646 49.9861 16.6687 49.9145 16.7598C49.8364 16.8705 49.7517 16.9811 49.6736 17.0918C49.8299 16.8835 49.9861 16.6752 50.1293 16.4669Z" fill="url(#paint8_linear_3775_9176)"/>
<path opacity="0.4" d="M50.9947 15.1521C50.9362 15.2497 50.8711 15.3539 50.806 15.4515C50.7344 15.5687 50.6563 15.6923 50.5782 15.8095C50.7214 15.5947 50.8646 15.3734 50.9947 15.1521Z" fill="url(#paint9_linear_3775_9176)"/>
<path opacity="0.4" d="M51.3464 14.5533C51.2813 14.6705 51.2162 14.7812 51.1446 14.8983C51.1641 14.8593 51.1837 14.8202 51.2097 14.7812C51.2553 14.7096 51.3008 14.6315 51.3464 14.5533Z" fill="url(#paint10_linear_3775_9176)"/>
<path opacity="0.4" d="M51.9446 13.4012C51.8795 13.5379 51.8144 13.6681 51.7428 13.8048C51.7168 13.8569 51.6973 13.9024 51.6713 13.948C51.7689 13.7723 51.86 13.59 51.9446 13.4012Z" fill="url(#paint11_linear_3775_9176)"/>
<path opacity="0.4" d="M52.4915 3.74841C52.459 3.69634 52.4264 3.64427 52.3939 3.59219C52.3288 3.48154 52.2572 3.37089 52.1856 3.26023C52.1205 3.16911 52.0619 3.07147 51.9904 2.98035L52.127 3.1626C52.2637 3.35787 52.3809 3.55314 52.4915 3.74841Z" fill="url(#paint12_linear_3775_9176)"/>
<path opacity="0.4" d="M53.1493 5.34953C53.0972 5.16077 53.0387 4.97852 52.9736 4.79626C52.9931 4.84834 53.0061 4.8939 53.0257 4.94597C53.0647 5.07615 53.1103 5.21284 53.1493 5.34953Z" fill="url(#paint13_linear_3775_9176)"/>
<path opacity="0.4" d="M53.2145 9.68457C53.1754 9.89286 53.1299 10.1142 53.0713 10.329C53.0778 10.2899 53.0843 10.2443 53.0974 10.2053C53.1429 10.0295 53.1819 9.8538 53.2145 9.68457Z" fill="url(#paint14_linear_3775_9176)"/>
<path opacity="0.4" d="M57.158 12.4704C57.158 12.503 57.1515 12.542 57.1515 12.5746C57.145 12.8219 57.1385 13.0692 57.1189 13.3231C57.1124 13.3426 57.1189 13.3556 57.1124 13.3752V13.3947C57.1059 13.4468 57.0994 13.4923 57.0929 13.5444C57.0799 13.6876 57.0604 13.8308 57.0408 13.974C57.0278 14.0456 57.0148 14.1172 57.0083 14.1953C56.9953 14.2864 56.9823 14.3776 56.9627 14.4687C56.9562 14.5012 56.9497 14.5273 56.9432 14.5533C56.9107 14.7225 56.8716 14.8983 56.8326 15.0675C56.8195 15.1326 56.8 15.1912 56.787 15.2628C56.7284 15.5036 56.6633 15.7445 56.5852 15.9853C56.5787 15.9918 56.5788 15.9983 56.5788 16.0048C56.5202 16.2131 56.4486 16.4214 56.3705 16.6297C56.2859 16.8575 56.1948 17.0853 56.1037 17.3196C56.0711 17.3977 56.0386 17.4758 56.006 17.5474C55.941 17.6972 55.8824 17.8534 55.8043 18.0031C55.7652 18.0942 55.7197 18.1853 55.6741 18.2765C55.609 18.4131 55.5505 18.5498 55.4789 18.6865C55.4268 18.7842 55.3747 18.8818 55.3227 18.9794C55.2511 19.1031 55.186 19.2398 55.1144 19.3635C55.0558 19.4611 54.9973 19.5587 54.9387 19.6564C54.8671 19.78 54.7955 19.9037 54.7174 20.0274C54.6588 20.125 54.5937 20.2292 54.5352 20.3203C54.4571 20.444 54.379 20.5676 54.3009 20.6848C54.2358 20.7824 54.1707 20.8866 54.0991 20.9842C54.021 21.1014 53.9364 21.2185 53.8518 21.3357C53.7802 21.4333 53.7086 21.531 53.6436 21.6286L53.4939 21.8369C53.4613 21.8759 53.4288 21.915 53.3962 21.9606C53.2856 22.1038 53.175 22.247 53.0643 22.3836C52.9927 22.4748 52.9211 22.5659 52.8496 22.657C52.7259 22.8067 52.6023 22.9629 52.4721 23.1127C52.42 23.1712 52.3679 23.2363 52.3159 23.2949C52.3029 23.3079 52.2899 23.3209 52.2833 23.3275C52.01 23.6399 51.7236 23.9523 51.4308 24.2582C51.3982 24.2908 51.3722 24.3168 51.3397 24.3559C51.3071 24.3884 51.2811 24.4145 51.2485 24.447C50.9882 24.7139 50.7279 24.9742 50.4545 25.2346C50.448 25.2411 50.4415 25.2411 50.4415 25.2476C50.422 25.2671 50.4025 25.2867 50.3765 25.3062C50.1487 25.521 49.9209 25.7293 49.6801 25.9376C49.6475 25.9701 49.615 25.9962 49.5825 26.0287C49.5304 26.0678 49.4848 26.1068 49.4393 26.1524C49.2636 26.3021 49.0878 26.4453 48.9121 26.595C48.86 26.634 48.808 26.6861 48.7559 26.7252C48.7234 26.7512 48.6973 26.7707 48.6648 26.7968C48.4696 26.953 48.2678 27.1092 48.0726 27.2654C48.027 27.298 47.9814 27.337 47.9359 27.3761C47.9229 27.3826 47.9163 27.3891 47.9033 27.3956C47.6495 27.5909 47.3957 27.7731 47.1354 27.9554C47.1289 27.9619 47.1159 27.9684 47.1028 27.9814C47.0443 28.0205 46.9857 28.0595 46.9336 28.0986C46.7384 28.2287 46.5496 28.3589 46.3544 28.4891C46.3218 28.5151 46.2958 28.5282 46.2633 28.5477C46.1982 28.5867 46.1331 28.6258 46.068 28.6714C45.8988 28.782 45.7296 28.8862 45.5539 28.9968C45.5083 29.0228 45.4628 29.0554 45.4107 29.0879C45.3586 29.1205 45.3001 29.1465 45.248 29.1856C45.0723 29.2897 44.9031 29.3873 44.7273 29.485C44.6688 29.524 44.6037 29.5566 44.5386 29.5956C44.5061 29.6152 44.4605 29.6347 44.4214 29.6542C44.2262 29.7649 44.0244 29.8625 43.8292 29.9667C43.7706 29.9992 43.7056 30.0382 43.6405 30.0708C43.6275 30.0773 43.6079 30.0838 43.5884 30.0968C43.302 30.24 43.0157 30.3832 42.7293 30.5134C42.7163 30.5199 42.7098 30.5199 42.6968 30.5264C42.6577 30.546 42.6187 30.559 42.5796 30.5785C42.3258 30.6957 42.0655 30.8063 41.8182 30.9105C41.7791 30.9235 41.7401 30.943 41.6945 30.9625C41.6425 30.9821 41.5969 30.9951 41.5513 31.0146C41.278 31.1253 41.0047 31.2294 40.7248 31.327C40.6792 31.3401 40.6337 31.3596 40.5881 31.3791C40.5751 31.3856 40.5556 31.3856 40.5426 31.3921C40.1716 31.5223 39.8071 31.6395 39.4427 31.7436C39.4036 31.7566 39.3646 31.7696 39.3255 31.7827C39.254 31.8022 39.1889 31.8152 39.1238 31.8347C38.9871 31.8738 38.8569 31.9063 38.7268 31.9454C38.5966 31.9779 38.4665 32.004 38.3428 32.0365C38.2126 32.0691 38.076 32.0951 37.9458 32.1276C37.8807 32.1407 37.8156 32.1602 37.7506 32.1667C37.7115 32.1732 37.6725 32.1797 37.6269 32.1927C37.282 32.2643 36.937 32.3229 36.5986 32.3685C36.2146 32.4205 35.8046 32.4596 35.4272 32.4921L31.7045 27.6234C32.0819 27.5909 32.4854 27.5518 32.8759 27.4997C33.0517 27.4737 33.2209 27.4477 33.3901 27.4216C33.6699 27.3761 33.9498 27.324 34.2296 27.2589C34.3598 27.2329 34.49 27.2003 34.6266 27.1678C34.8089 27.1287 34.9846 27.0766 35.1668 27.0311C35.2254 27.0181 35.284 26.9985 35.3425 26.9855C35.4011 26.9725 35.4597 26.9595 35.5183 26.94C35.5833 26.9204 35.6484 26.9009 35.72 26.8814C35.9348 26.8228 36.1496 26.7447 36.3643 26.6796C36.4945 26.6405 36.6312 26.5885 36.7613 26.5429C36.9826 26.4648 37.1974 26.3932 37.4121 26.3086C37.6399 26.224 37.8677 26.1328 38.0955 26.0352C38.3493 25.9311 38.6031 25.8204 38.857 25.7032C38.909 25.6772 38.9546 25.6642 39.0067 25.6382C39.1498 25.5731 39.293 25.5015 39.4362 25.4364C39.664 25.3257 39.8788 25.2151 40.1065 25.0979C40.1326 25.0849 40.1521 25.0719 40.1781 25.0654C40.3538 24.9677 40.5296 24.8766 40.7053 24.779C40.8289 24.7074 40.9526 24.6358 41.0763 24.5707C41.0828 24.5642 41.0893 24.5642 41.0958 24.5577C41.1934 24.5056 41.291 24.447 41.3886 24.3884C41.4342 24.3624 41.4798 24.3364 41.5253 24.3103C41.5839 24.2778 41.6425 24.2387 41.701 24.2062C41.9223 24.076 42.1371 23.9458 42.3453 23.8091C42.443 23.7505 42.5406 23.6854 42.6317 23.6269C42.6382 23.6204 42.6447 23.6204 42.6512 23.6138C42.8335 23.4902 43.0222 23.3665 43.2044 23.2363C43.276 23.1908 43.3411 23.1452 43.4062 23.0996C43.5363 23.0085 43.6665 22.9174 43.7967 22.8263C43.9789 22.6896 44.1611 22.5594 44.3434 22.4162C44.5451 22.26 44.7469 22.1103 44.9421 21.9475C45.0202 21.8825 45.1048 21.8109 45.1894 21.7458C45.2871 21.6677 45.3847 21.5895 45.4823 21.5049C45.5604 21.4333 45.6385 21.3682 45.7231 21.3032C45.8012 21.2316 45.8858 21.16 45.9639 21.0949C46.0811 20.9907 46.1982 20.8866 46.3153 20.7824C46.4325 20.6783 46.5431 20.5741 46.6603 20.4635C46.6863 20.4375 46.7123 20.4179 46.7384 20.3919C46.875 20.2617 47.0052 20.1315 47.1354 20.0013C47.272 19.8712 47.3957 19.7345 47.5259 19.6043C47.5844 19.5457 47.6495 19.4806 47.7081 19.4155C47.8578 19.2658 48.001 19.1096 48.1441 18.9534C48.1767 18.9209 48.2027 18.8883 48.2353 18.8558C48.3459 18.7321 48.4565 18.6084 48.5672 18.4782C48.6258 18.4066 48.6908 18.335 48.7494 18.2569C48.8731 18.1072 49.0097 17.9575 49.1269 17.8013C49.1985 17.7102 49.27 17.619 49.3416 17.5344C49.4523 17.3912 49.5629 17.248 49.6736 17.1048C49.8298 16.8965 49.986 16.6883 50.1291 16.48C50.2137 16.3628 50.2918 16.2456 50.3765 16.1285C50.4415 16.0308 50.5131 15.9267 50.5782 15.8291C50.7214 15.6078 50.8646 15.3865 50.9947 15.1651C51.0468 15.0805 51.0923 14.9959 51.1509 14.9113C51.2225 14.7941 51.2876 14.6835 51.3527 14.5663C51.3657 14.5403 51.3787 14.5208 51.3917 14.4947C51.3982 14.4882 51.3982 14.4817 51.3982 14.4817C51.4633 14.358 51.5349 14.2344 51.5935 14.1107C51.6195 14.0586 51.6455 14.0131 51.6716 13.9675C51.7692 13.7852 51.8603 13.603 51.9449 13.4207C51.984 13.3296 52.036 13.2385 52.0751 13.1474C52.1467 12.9976 52.2118 12.8479 52.2768 12.6917C52.3094 12.6136 52.3484 12.5355 52.3745 12.4639C52.4656 12.2361 52.5567 12.0083 52.6413 11.774C52.7194 11.5592 52.791 11.3444 52.8561 11.1296C52.9277 10.8887 52.9993 10.6479 53.0578 10.4071C53.0643 10.3875 53.0708 10.368 53.0708 10.3485C53.1294 10.1272 53.175 9.91237 53.214 9.70408C53.2335 9.59343 53.2531 9.48278 53.2726 9.37863C53.2726 9.36561 53.2726 9.35911 53.2791 9.34609C53.2921 9.27449 53.3051 9.20289 53.3116 9.12478C53.3312 8.98158 53.3507 8.83839 53.3637 8.69519C53.3702 8.64312 53.3767 8.59755 53.3767 8.55199C53.3832 8.52595 53.3832 8.49992 53.3832 8.47388C53.3962 8.35021 53.4027 8.22654 53.4093 8.10287C53.4158 7.9792 53.4223 7.85552 53.4223 7.73185C53.4223 7.67978 53.4288 7.63422 53.4288 7.57564C53.4288 7.3348 53.4223 7.09397 53.4028 6.86615C53.4028 6.85314 53.4028 6.84012 53.3962 6.83361C53.3832 6.63183 53.3572 6.43005 53.3247 6.23478C53.3182 6.22176 53.3181 6.20223 53.3181 6.18922C53.3116 6.13714 53.2986 6.07856 53.2856 6.01998C53.2856 6.01347 53.2791 6.00696 53.2791 6.00045C53.2661 5.93536 53.2531 5.87678 53.2401 5.80518C53.2075 5.66199 53.1815 5.51228 53.1424 5.36908C53.0904 5.18032 53.0318 4.99807 52.9667 4.81581C52.9667 4.8093 52.9602 4.8093 52.9602 4.8028C52.9407 4.74421 52.9211 4.69214 52.9016 4.63356C52.8495 4.50989 52.804 4.39273 52.7454 4.27557C52.7389 4.25604 52.7259 4.23651 52.7129 4.21698C52.6803 4.14538 52.6478 4.08029 52.6153 4.0152C52.6022 4.00219 52.5957 3.98266 52.5892 3.96964C52.5567 3.90455 52.5176 3.83946 52.4851 3.77437C52.3745 3.57259 52.2573 3.38383 52.1206 3.19507L55.7066 7.87505C55.7587 7.93363 55.8043 7.99872 55.8498 8.06381C55.8693 8.08985 55.8824 8.12239 55.9019 8.14843C55.98 8.25908 56.0451 8.36974 56.1167 8.48039C56.1362 8.51293 56.1622 8.55199 56.1817 8.58453C56.1948 8.59755 56.1948 8.61708 56.2078 8.63661C56.2859 8.7798 56.364 8.92951 56.4356 9.07922C56.4421 9.09875 56.4551 9.11176 56.4616 9.13129C56.4616 9.13129 56.4616 9.1378 56.4681 9.1378C56.5462 9.31354 56.6178 9.48929 56.6829 9.66503C56.6894 9.67805 56.6959 9.69107 56.6959 9.70408C56.7089 9.74314 56.7219 9.78219 56.7349 9.82776C56.774 9.95794 56.8196 10.0946 56.8586 10.2313C56.8651 10.2639 56.8781 10.2899 56.8846 10.3224C56.8911 10.355 56.8976 10.4005 56.9107 10.4331C56.9432 10.5698 56.9757 10.713 57.0018 10.8562C57.0083 10.8952 57.0213 10.9408 57.0278 10.9799C57.0343 11.0059 57.0343 11.0189 57.0343 11.0449C57.0669 11.2532 57.0929 11.4745 57.1124 11.6893C57.1124 11.6958 57.1124 11.6958 57.1124 11.6958V11.7219C57.1319 11.9432 57.1384 12.1645 57.1384 12.3988C57.1515 12.4118 57.158 12.4379 57.158 12.4704Z" fill="url(#paint15_linear_3775_9176)"/>
<path d="M31.7232 27.6365L35.4459 32.5052C35.4068 32.6484 35.3678 32.7916 35.3222 32.9348C35.3157 32.9478 35.3157 32.9609 35.3092 32.9674C35.2441 33.1756 35.1791 33.3839 35.101 33.5922C35.0229 33.82 34.9317 34.0479 34.8341 34.2822C34.8016 34.3603 34.769 34.4319 34.7365 34.51C34.6714 34.6662 34.6063 34.8159 34.5347 34.9656C34.4957 35.0568 34.4436 35.1479 34.4046 35.2325C34.3395 35.3692 34.2744 35.5059 34.2028 35.6491C34.1508 35.7402 34.1052 35.8378 34.0466 35.9355C33.9815 36.0657 33.91 36.1958 33.8384 36.326C33.7863 36.4236 33.7277 36.5213 33.6692 36.6189C33.5976 36.7426 33.526 36.8663 33.4479 36.9899C33.3893 37.0876 33.3242 37.1917 33.2591 37.2893C33.181 37.4065 33.1029 37.5302 33.0313 37.6473C32.9663 37.745 32.8947 37.8491 32.8296 37.9468C32.7515 38.0639 32.6669 38.1876 32.5823 38.2982C32.5107 38.3959 32.4456 38.5 32.374 38.5912C32.322 38.6628 32.2764 38.7278 32.2243 38.7994C32.1918 38.8385 32.1593 38.8775 32.1267 38.9231C32.0161 39.0663 31.9054 39.2095 31.7948 39.3527C31.7232 39.4438 31.6516 39.535 31.58 39.6196C31.4564 39.7758 31.3327 39.9255 31.2025 40.0752C31.1505 40.1338 31.0984 40.1989 31.0464 40.264C31.0333 40.277 31.0203 40.2835 31.0138 40.2965C30.7405 40.6155 30.4541 40.9279 30.1547 41.2273C30.1287 41.2598 30.1027 41.2924 30.0701 41.3249L29.979 41.4161C29.7187 41.6829 29.4583 41.9433 29.185 42.1971C29.1785 42.2037 29.172 42.2102 29.172 42.2102C29.146 42.2297 29.1264 42.2492 29.1004 42.2687C28.8726 42.4835 28.6448 42.6918 28.4105 42.9001C28.378 42.9327 28.3389 42.9587 28.3064 42.9912C28.2608 43.0303 28.2088 43.0694 28.1632 43.1084C27.9875 43.2646 27.8118 43.4078 27.6361 43.551C27.584 43.5966 27.5319 43.6421 27.4799 43.6877C27.4538 43.7137 27.4213 43.7333 27.3888 43.7593C27.1935 43.922 26.9918 44.0717 26.79 44.228C26.7444 44.267 26.6989 44.2996 26.6533 44.3386C26.6468 44.3451 26.6403 44.3516 26.6273 44.3646C26.3735 44.5534 26.1197 44.7422 25.8593 44.9244C25.8463 44.9309 25.8398 44.944 25.8268 44.9505C25.7682 44.9895 25.7096 45.0286 25.6511 45.0676C25.4623 45.1978 25.2736 45.328 25.0784 45.4582C25.0458 45.4777 25.0198 45.4972 24.9872 45.5167C24.9222 45.5558 24.8506 45.5949 24.7855 45.6404C24.6163 45.7511 24.4471 45.8552 24.2779 45.9594C24.2323 45.9919 24.1802 46.0179 24.1347 46.0505C24.0826 46.083 24.024 46.1091 23.972 46.1481C23.7962 46.2458 23.627 46.3499 23.4513 46.4475C23.3927 46.4801 23.3276 46.5191 23.2626 46.5582C23.2235 46.5777 23.1845 46.5972 23.1454 46.6168C22.9502 46.7274 22.7484 46.8316 22.5532 46.9357C22.4881 46.9683 22.4295 47.0073 22.3644 47.0399C22.3514 47.0464 22.3319 47.0529 22.3124 47.0659C22.026 47.2091 21.7397 47.3523 21.4533 47.4825C21.4403 47.489 21.4273 47.4955 21.4207 47.4955C21.3817 47.515 21.3362 47.528 21.2971 47.5476C21.0433 47.6647 20.7895 47.7754 20.5356 47.8795C20.4966 47.899 20.451 47.9186 20.412 47.9316C20.3599 47.9576 20.3144 47.9706 20.2623 47.9902C19.989 48.1008 19.7156 48.205 19.4423 48.3026C19.3967 48.3156 19.3511 48.3351 19.3056 48.3547C19.2926 48.3612 19.2731 48.3677 19.2665 48.3677C18.8956 48.4979 18.5311 48.615 18.1667 48.7192C18.1276 48.7322 18.0886 48.7452 18.0495 48.7582C17.9779 48.7778 17.9128 48.7908 17.8478 48.8103C17.7176 48.8429 17.5809 48.8819 17.4508 48.921C17.3271 48.9535 17.1969 48.9795 17.0733 49.0121C16.9431 49.0446 16.8065 49.0707 16.6763 49.1032C16.6112 49.1162 16.5461 49.1358 16.481 49.1488C16.442 49.1553 16.3964 49.1618 16.3574 49.1748C16.0125 49.2399 15.674 49.2985 15.3356 49.3506C11.0532 49.9494 7.79913 48.8233 6.04843 46.5387L2.32574 41.6699C4.07645 43.9611 7.33054 45.0871 11.6129 44.4818C11.9579 44.4362 12.2963 44.3712 12.6412 44.3061C12.7519 44.28 12.856 44.267 12.9666 44.241C13.0968 44.2084 13.227 44.1824 13.3636 44.1498C13.4873 44.1238 13.6174 44.0913 13.7411 44.0587C13.8778 44.0262 14.0079 43.9871 14.1381 43.9481C14.2422 43.9155 14.3464 43.8895 14.4505 43.8569C14.8149 43.7463 15.1859 43.6356 15.5504 43.5055C15.6089 43.4859 15.6675 43.4664 15.7326 43.4404C16.0059 43.3427 16.2793 43.2386 16.5526 43.1279C16.6437 43.0954 16.7349 43.0563 16.826 43.0173C17.0798 42.9066 17.3336 42.796 17.5809 42.6853C17.633 42.6593 17.6851 42.6463 17.7371 42.6202C18.0235 42.4835 18.3098 42.3469 18.5962 42.2037C18.6743 42.1646 18.7524 42.119 18.837 42.08C19.0388 41.9758 19.234 41.8717 19.4292 41.761C19.5269 41.7025 19.631 41.6439 19.7351 41.5853C19.9109 41.4877 20.0801 41.39 20.2493 41.2859C20.3534 41.2273 20.4575 41.1622 20.5617 41.0971C20.7309 40.993 20.9001 40.8888 21.0693 40.7847C21.1669 40.7261 21.2646 40.661 21.3557 40.5959C21.5509 40.4723 21.7331 40.3421 21.9219 40.2119C21.9935 40.1598 22.0586 40.1143 22.1301 40.0687C22.3905 39.8864 22.6443 39.6977 22.8981 39.5089C22.9502 39.4699 23.0087 39.4243 23.0608 39.3853C23.2626 39.229 23.4578 39.0728 23.6531 38.9166C23.7377 38.845 23.8223 38.7799 23.9004 38.7148C24.0761 38.5651 24.2518 38.4219 24.4275 38.2722C24.5056 38.2006 24.5902 38.129 24.6683 38.0574C24.9026 37.8491 25.1304 37.6408 25.3582 37.4325C25.3907 37.4065 25.4168 37.3805 25.4428 37.3544C25.7162 37.0941 25.9765 36.8337 26.2368 36.5668C26.2954 36.5083 26.354 36.4432 26.4125 36.3781C26.7054 36.0722 26.9918 35.7662 27.2716 35.4473C27.3302 35.3757 27.3953 35.2976 27.4538 35.226C27.584 35.0763 27.7142 34.9266 27.8313 34.7769C27.9029 34.6857 27.9745 34.5946 28.0461 34.5035C28.1567 34.3603 28.2674 34.2171 28.378 34.0739C28.4626 33.9632 28.5407 33.8526 28.6253 33.7484C28.6969 33.6508 28.7685 33.5467 28.8336 33.449C28.9182 33.3319 28.9963 33.2147 29.0809 33.0975C29.1525 32.9999 29.2176 32.8958 29.2826 32.7981C29.3607 32.681 29.4388 32.5573 29.5169 32.4401C29.5755 32.3425 29.6406 32.2384 29.6992 32.1407C29.7773 32.017 29.8488 31.8934 29.9204 31.7697C29.979 31.6721 30.0376 31.5744 30.0962 31.4768C30.1678 31.3531 30.2328 31.2164 30.3044 31.0928C30.3565 30.9951 30.4086 30.8975 30.4606 30.8064C30.5322 30.6697 30.5908 30.533 30.6559 30.3963C30.7014 30.3052 30.747 30.214 30.786 30.1294C30.8576 29.9732 30.9227 29.8235 30.9878 29.6738C31.0203 29.5957 31.0594 29.5176 31.0854 29.446C31.1765 29.2182 31.2676 28.9904 31.3522 28.756C31.4238 28.5542 31.4954 28.3394 31.5605 28.1312C31.6321 27.9424 31.6777 27.7862 31.7232 27.6365Z" fill="url(#paint16_linear_3775_9176)"/>
<path d="M49.0098 36.8467C49.0098 36.8337 49.0098 36.8272 49.0098 36.8142C49.0098 36.7751 49.0098 36.7361 49.0033 36.697C49.0033 36.6645 48.9968 36.6254 48.9903 36.5929C48.9903 36.5799 48.9837 36.5668 48.9837 36.5538C48.9837 36.5408 48.9772 36.5343 48.9772 36.5213C48.9772 36.5148 48.9707 36.5018 48.9707 36.4952C48.9642 36.4627 48.9512 36.4367 48.9447 36.4041C48.9447 36.3976 48.9447 36.3976 48.9382 36.3911C48.9382 36.3846 48.9317 36.3781 48.9317 36.3716C48.9252 36.3521 48.9187 36.3325 48.9056 36.313C48.8991 36.2935 48.8861 36.2739 48.8796 36.2609C48.8796 36.2544 48.8731 36.2479 48.8731 36.2414C48.8731 36.2349 48.8666 36.2349 48.8666 36.2284C48.8536 36.2023 48.834 36.1763 48.8145 36.1503C48.808 36.1373 48.8015 36.1307 48.795 36.1242L45.0723 31.2555C45.0983 31.2945 45.1244 31.3336 45.1504 31.3727C45.1569 31.3792 45.1569 31.3857 45.1569 31.3922C45.1764 31.4247 45.196 31.4638 45.209 31.5028C45.209 31.5093 45.2155 31.5159 45.2155 31.5224C45.2285 31.5614 45.2415 31.607 45.2545 31.6525C45.2545 31.6656 45.2611 31.6721 45.2611 31.6851C45.2676 31.7307 45.2806 31.7762 45.2806 31.8283C45.2871 31.8804 45.2871 31.9324 45.2806 31.9845C45.2806 32.004 45.2806 32.017 45.2806 32.0366C45.2806 32.0756 45.2741 32.1147 45.2676 32.1472C45.2676 32.1733 45.2611 32.1993 45.2545 32.2188C45.248 32.2449 45.2415 32.2774 45.235 32.3034C45.222 32.349 45.2155 32.4011 45.196 32.4466C45.183 32.4922 45.17 32.5443 45.1504 32.5964L43.198 38.0444C43.1524 38.1746 43.0938 38.3048 43.0222 38.4284C43.0157 38.4349 43.0157 38.448 43.0092 38.4545C42.9441 38.5781 42.866 38.6953 42.7749 38.8125C42.7619 38.8255 42.7554 38.845 42.7424 38.858C42.7033 38.9101 42.6643 38.9622 42.6187 39.0142C42.5992 39.0338 42.5862 39.0533 42.5667 39.0728C42.5537 39.0923 42.5341 39.1054 42.5211 39.1184C42.4821 39.1639 42.443 39.2095 42.3975 39.2486C42.3844 39.2616 42.3649 39.2811 42.3519 39.2941C42.3063 39.3397 42.2673 39.3787 42.2217 39.4178C42.2087 39.4308 42.1957 39.4438 42.1827 39.4569C42.1241 39.5089 42.0655 39.5545 42.007 39.6066C41.9939 39.6131 41.9874 39.6261 41.9744 39.6326C41.9159 39.6782 41.8573 39.7237 41.7987 39.7628C41.7922 39.7693 41.7857 39.7693 41.7792 39.7758C41.7141 39.8214 41.649 39.8604 41.5839 39.906C41.5709 39.9125 41.5579 39.919 41.5449 39.932C41.4798 39.9711 41.4147 40.0101 41.3496 40.0492C41.3366 40.0557 41.3236 40.0622 41.3171 40.0687C41.252 40.1012 41.1869 40.1338 41.1219 40.1663C41.1154 40.1728 41.1088 40.1728 41.1023 40.1794C41.0373 40.2119 40.9656 40.2379 40.9006 40.264C40.881 40.2705 40.8615 40.277 40.842 40.2835C40.7899 40.303 40.7379 40.3226 40.6858 40.3356C40.6598 40.3421 40.6337 40.3486 40.6142 40.3616C40.5752 40.3746 40.5296 40.3811 40.4906 40.3942C40.4515 40.4072 40.4125 40.4137 40.3669 40.4267C40.2953 40.4397 40.2302 40.4527 40.1586 40.4658L34.2492 41.2989C33.5659 41.3965 33.0907 41.2143 32.8304 40.8823L36.5531 45.7511C36.8134 46.0895 37.2885 46.2653 37.9719 46.1676L43.8813 45.3345C43.9399 45.328 43.9985 45.315 44.057 45.3019C44.0701 45.3019 44.0766 45.2954 44.0896 45.2954C44.1286 45.2889 44.1677 45.2759 44.2132 45.2629C44.2393 45.2564 44.2718 45.2499 44.2978 45.2434C44.3109 45.2369 44.3239 45.2369 44.3304 45.2303C44.3564 45.2238 44.3825 45.2173 44.4085 45.2043C44.4345 45.1978 44.4671 45.1848 44.4931 45.1783C44.5191 45.1718 44.5386 45.1587 44.5647 45.1522C44.5842 45.1457 44.6037 45.1392 44.6232 45.1327C44.6363 45.1262 44.6493 45.1197 44.6623 45.1197C44.7144 45.1002 44.7664 45.0741 44.8185 45.0546C44.8185 45.0546 44.825 45.0546 44.825 45.0481C44.8315 45.0416 44.838 45.0416 44.8445 45.0351C44.8836 45.0155 44.9226 44.996 44.9552 44.983C44.9812 44.97 45.0072 44.957 45.0333 44.944C45.0463 44.9374 45.0593 44.9309 45.0723 44.9244C45.0788 44.9179 45.0918 44.9179 45.0984 44.9114C45.1439 44.8854 45.1895 44.8593 45.235 44.8333C45.248 44.8268 45.2611 44.8203 45.2741 44.8073C45.2871 44.8008 45.3001 44.7942 45.3131 44.7812C45.3327 44.7682 45.3522 44.7552 45.3717 44.7487C45.4173 44.7226 45.4563 44.6901 45.5019 44.6641L45.5084 44.6576C45.5149 44.651 45.5214 44.651 45.5279 44.6445C45.5604 44.6185 45.593 44.599 45.632 44.5729C45.6581 44.5534 45.6841 44.5339 45.7036 44.5144C45.7166 44.5078 45.7231 44.4948 45.7362 44.4883C45.7427 44.4818 45.7492 44.4753 45.7557 44.4688C45.8012 44.4363 45.8403 44.3972 45.8858 44.3581C45.8923 44.3516 45.8989 44.3451 45.9119 44.3386C45.9249 44.3256 45.9379 44.3126 45.9509 44.2996C45.9704 44.28 45.9965 44.2605 46.016 44.241C46.0355 44.2214 46.0616 44.1954 46.0811 44.1759C46.0941 44.1629 46.1136 44.1433 46.1267 44.1303C46.1332 44.1238 46.1462 44.1108 46.1527 44.1043C46.1852 44.0717 46.2178 44.0327 46.2503 44.0001C46.2633 43.9806 46.2828 43.9676 46.2959 43.9481L46.3024 43.9416C46.3154 43.922 46.3284 43.909 46.3414 43.8895C46.387 43.8374 46.426 43.7853 46.4651 43.7333C46.4716 43.7268 46.4781 43.7203 46.4846 43.7137C46.4911 43.7072 46.4976 43.6942 46.5041 43.6877C46.5887 43.5705 46.6668 43.4534 46.7384 43.3297C46.7449 43.3232 46.7449 43.3102 46.7514 43.3037C46.823 43.1735 46.8816 43.0498 46.9272 42.9196L48.8796 37.4716C48.8926 37.4391 48.9057 37.4065 48.9122 37.3675C48.9187 37.3544 48.9187 37.3349 48.9252 37.3219C48.9382 37.2698 48.9512 37.2243 48.9642 37.1722C48.9707 37.1527 48.9772 37.1396 48.9772 37.1201C48.9772 37.1071 48.9772 37.0941 48.9837 37.0876C48.9903 37.0615 48.9902 37.0355 48.9968 37.016C48.9968 36.9964 49.0033 36.9769 49.0033 36.9574C49.0033 36.9379 49.0033 36.9248 49.0033 36.9053C49.0033 36.8793 49.0098 36.8598 49.0098 36.8467Z" fill="url(#paint17_linear_3775_9176)"/>
<path d="M10.7279 13.8374C11.2876 13.7593 11.9254 13.4859 12.5437 12.9977L20.4121 6.7165C22.306 5.19339 22.1107 3.06494 20.0802 3.35134L14.1708 4.18449C12.9147 4.36024 11.548 5.45375 11.1315 6.60585L9.179 12.0539C8.72343 13.3232 9.54997 14.0066 10.7279 13.8374Z" fill="url(#paint18_linear_3775_9176)"/>
<path d="M22.6121 17.0138C22.2346 17.0463 21.8311 17.0854 21.4406 17.1375C13.2403 18.2896 4.40869 25.3453 1.69478 32.8958C-1.01263 40.4463 3.43247 45.6339 11.6263 44.4818C19.8201 43.3297 28.6647 36.274 31.3721 28.7235C31.4958 28.3655 31.6129 27.9945 31.717 27.6365C33.5458 21.0494 29.6604 16.5256 22.6121 17.0138Z" fill="url(#paint19_linear_3775_9176)"/>
<path d="M43.6071 30.8064C43.0474 30.8845 42.4096 31.1579 41.7913 31.6461L33.923 37.9208C32.0291 39.4439 32.2243 41.5788 34.2549 41.2925L40.1643 40.4593C41.4204 40.2836 42.7871 39.19 43.2036 38.0379L45.1561 32.5899C45.6116 31.3271 44.7851 30.6437 43.6071 30.8064Z" fill="url(#paint20_linear_3775_9176)"/>
<defs>
<linearGradient id="paint0_linear_3775_9176" x1="9.01064" y1="18.911" x2="26.1987" y2="4.57043" gradientUnits="userSpaceOnUse">
<stop offset="0.18" stop-color="#0B3327"/>
<stop offset="0.3189" stop-color="#0D382B"/>
<stop offset="0.4746" stop-color="#144535"/>
<stop offset="0.6384" stop-color="#1F5C46"/>
<stop offset="0.8078" stop-color="#2E7B5E"/>
<stop offset="0.98" stop-color="#41A37D"/>
<stop offset="1" stop-color="#44A881"/>
</linearGradient>
<linearGradient id="paint1_linear_3775_9176" x1="22.615" y1="13.8232" x2="53.4299" y2="13.8232" gradientUnits="userSpaceOnUse">
<stop stop-color="#E8FFF5"/>
<stop offset="1" stop-color="#BDD6CA"/>
</linearGradient>
<linearGradient id="paint2_linear_3775_9176" x1="31.1194" y1="20.6483" x2="31.2505" y2="20.6483" gradientUnits="userSpaceOnUse">
<stop stop-color="#E8FFF5"/>
<stop offset="1" stop-color="#BDD6CA"/>
</linearGradient>
<linearGradient id="paint3_linear_3775_9176" x1="31.8455" y1="22.3214" x2="31.9187" y2="22.3214" gradientUnits="userSpaceOnUse">
<stop stop-color="#E8FFF5"/>
<stop offset="1" stop-color="#BDD6CA"/>
</linearGradient>
<linearGradient id="paint4_linear_3775_9176" x1="31.9382" y1="26.5801" x2="31.9961" y2="26.5801" gradientUnits="userSpaceOnUse">
<stop stop-color="#E8FFF5"/>
<stop offset="1" stop-color="#BDD6CA"/>
</linearGradient>
<linearGradient id="paint5_linear_3775_9176" x1="32.1343" y1="23.8943" x2="32.1574" y2="23.8943" gradientUnits="userSpaceOnUse">
<stop stop-color="#E8FFF5"/>
<stop offset="1" stop-color="#BDD6CA"/>
</linearGradient>
<linearGradient id="paint6_linear_3775_9176" x1="35.3569" y1="26.9389" x2="35.7333" y2="26.9389" gradientUnits="userSpaceOnUse">
<stop stop-color="#E8FFF5"/>
<stop offset="1" stop-color="#BDD6CA"/>
</linearGradient>
<linearGradient id="paint7_linear_3775_9176" x1="37.4233" y1="26.1763" x2="38.1071" y2="26.1763" gradientUnits="userSpaceOnUse">
<stop stop-color="#E8FFF5"/>
<stop offset="1" stop-color="#BDD6CA"/>
</linearGradient>
<linearGradient id="paint8_linear_3775_9176" x1="49.6733" y1="16.7792" x2="50.1305" y2="16.7792" gradientUnits="userSpaceOnUse">
<stop stop-color="#E8FFF5"/>
<stop offset="1" stop-color="#BDD6CA"/>
</linearGradient>
<linearGradient id="paint9_linear_3775_9176" x1="50.576" y1="15.4826" x2="50.9947" y2="15.4826" gradientUnits="userSpaceOnUse">
<stop stop-color="#E8FFF5"/>
<stop offset="1" stop-color="#BDD6CA"/>
</linearGradient>
<linearGradient id="paint10_linear_3775_9176" x1="51.1485" y1="14.7258" x2="51.3482" y2="14.7258" gradientUnits="userSpaceOnUse">
<stop stop-color="#E8FFF5"/>
<stop offset="1" stop-color="#BDD6CA"/>
</linearGradient>
<linearGradient id="paint11_linear_3775_9176" x1="51.6704" y1="13.679" x2="51.9432" y2="13.679" gradientUnits="userSpaceOnUse">
<stop stop-color="#E8FFF5"/>
<stop offset="1" stop-color="#BDD6CA"/>
</linearGradient>
<linearGradient id="paint12_linear_3775_9176" x1="51.9894" y1="3.36763" x2="52.4927" y2="3.36763" gradientUnits="userSpaceOnUse">
<stop stop-color="#E8FFF5"/>
<stop offset="1" stop-color="#BDD6CA"/>
</linearGradient>
<linearGradient id="paint13_linear_3775_9176" x1="52.9695" y1="5.0714" x2="53.1462" y2="5.0714" gradientUnits="userSpaceOnUse">
<stop stop-color="#E8FFF5"/>
<stop offset="1" stop-color="#BDD6CA"/>
</linearGradient>
<linearGradient id="paint14_linear_3775_9176" x1="53.0733" y1="10.0043" x2="53.2154" y2="10.0043" gradientUnits="userSpaceOnUse">
<stop stop-color="#E8FFF5"/>
<stop offset="1" stop-color="#BDD6CA"/>
</linearGradient>
<linearGradient id="paint15_linear_3775_9176" x1="31.7228" y1="17.8358" x2="57.1562" y2="17.8358" gradientUnits="userSpaceOnUse">
<stop stop-color="#3C4742"/>
<stop offset="0.1556" stop-color="#404B46"/>
<stop offset="0.3247" stop-color="#4C5953"/>
<stop offset="0.5004" stop-color="#5F6E67"/>
<stop offset="0.6806" stop-color="#7B8D84"/>
<stop offset="0.8623" stop-color="#9EB3A9"/>
<stop offset="1" stop-color="#BDD6CA"/>
</linearGradient>
<linearGradient id="paint16_linear_3775_9176" x1="2.34768" y1="38.5689" x2="35.4443" y2="38.5689" gradientUnits="userSpaceOnUse">
<stop offset="0.18" stop-color="#0B3327"/>
<stop offset="0.3189" stop-color="#0D382B"/>
<stop offset="0.4746" stop-color="#144535"/>
<stop offset="0.6384" stop-color="#1F5C46"/>
<stop offset="0.8078" stop-color="#2E7B5E"/>
<stop offset="0.98" stop-color="#41A37D"/>
<stop offset="1" stop-color="#44A881"/>
</linearGradient>
<linearGradient id="paint17_linear_3775_9176" x1="33.4592" y1="47.3491" x2="52.9238" y2="31.7567" gradientUnits="userSpaceOnUse">
<stop stop-color="#0B3327"/>
<stop offset="0.096" stop-color="#0D372A"/>
<stop offset="0.1873" stop-color="#124233"/>
<stop offset="0.2768" stop-color="#1C5542"/>
<stop offset="0.3651" stop-color="#297056"/>
<stop offset="0.4518" stop-color="#3A9371"/>
<stop offset="0.4972" stop-color="#44A881"/>
<stop offset="0.4995" stop-color="#43A780"/>
<stop offset="0.565" stop-color="#328465"/>
<stop offset="0.6337" stop-color="#24674F"/>
<stop offset="0.7073" stop-color="#19503E"/>
<stop offset="0.7869" stop-color="#114031"/>
<stop offset="0.877" stop-color="#0C372A"/>
<stop offset="1" stop-color="#0B3428"/>
</linearGradient>
<linearGradient id="paint18_linear_3775_9176" x1="-18.3666" y1="49.7776" x2="19.1987" y2="2.31487" gradientUnits="userSpaceOnUse">
<stop stop-color="#09453D"/>
<stop offset="0.3367" stop-color="#297C63"/>
<stop offset="0.6283" stop-color="#41A37E"/>
<stop offset="0.8589" stop-color="#50BC8F"/>
<stop offset="1" stop-color="#55C595"/>
</linearGradient>
<linearGradient id="paint19_linear_3775_9176" x1="-6.1332" y1="59.4599" x2="31.432" y2="11.9971" gradientUnits="userSpaceOnUse">
<stop stop-color="#09453D"/>
<stop offset="0.3367" stop-color="#297C63"/>
<stop offset="0.6283" stop-color="#41A37E"/>
<stop offset="0.8589" stop-color="#50BC8F"/>
<stop offset="1" stop-color="#55C595"/>
</linearGradient>
<linearGradient id="paint20_linear_3775_9176" x1="10.9178" y1="72.9555" x2="48.4831" y2="25.4928" gradientUnits="userSpaceOnUse">
<stop stop-color="#09453D"/>
<stop offset="0.3367" stop-color="#297C63"/>
<stop offset="0.6283" stop-color="#41A37E"/>
<stop offset="0.8589" stop-color="#50BC8F"/>
<stop offset="1" stop-color="#55C595"/>
</linearGradient>
</defs>
</svg>
