<svg width="55" height="55" viewBox="0 0 55 55" fill="none" xmlns="http://www.w3.org/2000/svg">
<path d="M43.6002 41.8875C43.6197 41.8355 43.6392 41.7899 43.6522 41.7508L43.6392 41.8029L43.5351 42.1284L40.8407 50.3102C40.8277 50.3623 40.8082 50.4078 40.7886 50.4599C40.7756 50.4859 40.7626 50.5055 40.7561 50.525C40.717 50.6226 40.6715 50.7203 40.6194 50.8114C40.6064 50.8439 40.5869 50.883 40.5673 50.9155C40.4958 51.0392 40.4242 51.1629 40.3396 51.28C40.3331 51.2865 40.3331 51.2931 40.3265 51.2931C40.2615 51.3842 40.1899 51.4753 40.1183 51.5664C40.0011 51.7031 39.8775 51.8268 39.7408 51.9505L39.7083 51.983C39.6497 52.0351 39.5846 52.0872 39.5261 52.1392C39.474 52.1783 39.4284 52.2173 39.3829 52.2564C39.2917 52.328 39.2006 52.3931 39.103 52.4582C39.0574 52.4842 39.0249 52.5102 38.9793 52.5428C38.9793 52.5428 38.9728 52.5493 38.9663 52.5493C38.8296 52.6404 38.6865 52.725 38.5368 52.8031C38.5043 52.8227 38.4717 52.8357 38.4392 52.8552C38.322 52.9138 38.2179 52.9659 38.0942 53.031C38.0812 53.0375 38.0682 53.0375 38.0617 53.044C37.9966 53.0765 37.925 53.1026 37.8534 53.1351C37.7558 53.1807 37.6517 53.2262 37.5411 53.2653C37.4695 53.2978 37.3848 53.3174 37.3067 53.3499C37.2286 53.3824 37.1505 53.4085 37.0594 53.441C37.0399 53.4475 37.0139 53.454 36.9878 53.4606C36.8902 53.4931 36.7861 53.5256 36.682 53.5517C36.5844 53.5842 36.4802 53.6103 36.3826 53.6363C36.2719 53.6688 36.1613 53.6884 36.0507 53.7209C35.9726 53.7404 35.8945 53.76 35.8033 53.7795C35.7838 53.786 35.7578 53.786 35.7318 53.786C35.5691 53.8251 35.3934 53.8576 35.2176 53.8902C35.146 53.8967 35.081 53.9162 35.0094 53.9292C34.7621 53.9683 34.5082 54.0073 34.2544 54.0334C34.2479 54.0334 34.2479 54.0333 34.2414 54.0399C34.2219 54.0399 34.2023 54.0399 34.1893 54.0464C33.8965 54.0789 33.5971 54.1115 33.2912 54.131C33.2066 54.1375 33.1155 54.144 33.0244 54.1505C32.738 54.17 32.4451 54.1831 32.1458 54.1896C32.1132 54.1961 32.0742 54.1961 32.0416 54.1961C32.0286 54.2026 32.0221 54.1961 32.0091 54.2026C31.6446 54.2091 31.2737 54.2091 30.8962 54.2026C30.8051 54.1961 30.714 54.1961 30.6229 54.1961C30.2389 54.1831 29.8484 54.17 29.4513 54.1505H29.4318C29.0414 54.1245 28.6378 54.0854 28.2278 54.0529C28.1302 54.0399 28.0326 54.0333 27.9415 54.0203C27.5315 53.9813 27.1149 53.9292 26.6984 53.8706C26.6463 53.8641 26.5943 53.8576 26.5422 53.8511C26.1582 53.7925 25.7743 53.7339 25.3773 53.6688C25.2796 53.6558 25.1885 53.6363 25.0909 53.6233C24.6614 53.5452 24.2318 53.4671 23.7957 53.3759C23.7241 53.3629 23.6395 53.3434 23.5614 53.3239C23.171 53.2458 22.787 53.1546 22.3965 53.0635C22.3054 53.0375 22.2142 53.0179 22.1296 52.9984C21.6936 52.8943 21.251 52.7771 20.802 52.6534C20.7694 52.6404 20.7304 52.6404 20.6979 52.6274C20.6263 52.6079 20.5547 52.5818 20.4831 52.5623C20.1772 52.4777 19.8648 52.3931 19.5654 52.2954C19.4483 52.2629 19.3311 52.2303 19.2205 52.1978C18.817 52.0741 18.407 51.944 18.01 51.8073C18.0035 51.8073 18.0035 51.8073 17.997 51.8073C17.9904 51.8008 17.9839 51.8008 17.9839 51.8008C17.2875 51.5664 16.5977 51.3126 15.9013 51.0457C15.8883 51.0392 15.8688 51.0327 15.8493 51.0262C15.5759 50.922 15.3026 50.8179 15.0292 50.7007C14.6843 50.564 14.3524 50.4274 14.027 50.2776C13.9944 50.2646 13.9619 50.2516 13.9293 50.2451C13.8968 50.2321 13.8642 50.2126 13.8317 50.193C13.298 49.9652 12.7774 49.7244 12.2763 49.4835C12.2502 49.4705 12.2242 49.464 12.2047 49.451C12.1721 49.438 12.1331 49.4185 12.1005 49.3989C11.6124 49.1581 11.1373 48.9173 10.6752 48.6699C10.6492 48.6569 10.6232 48.6439 10.5971 48.6309C10.5256 48.5853 10.441 48.5463 10.3694 48.5007C10.2327 48.4226 10.0895 48.351 9.95285 48.2729C9.8357 48.2078 9.71853 48.1362 9.60789 48.0711C9.47122 47.993 9.34107 47.9149 9.2109 47.8433C9.15884 47.8107 9.10678 47.7847 9.05471 47.7521C9.00265 47.7196 8.93756 47.6806 8.88549 47.648C8.7358 47.5569 8.59264 47.4723 8.44946 47.3811C8.34532 47.316 8.24768 47.2509 8.14355 47.1924C8.00037 47.0947 7.85721 47.0101 7.71403 46.919C7.65545 46.8734 7.59035 46.8344 7.52526 46.7953C7.49272 46.7758 7.47324 46.7563 7.44069 46.7367C7.23894 46.5935 7.03064 46.4634 6.8354 46.3202C6.79635 46.2876 6.7573 46.2616 6.71826 46.2355C6.48396 46.0663 6.25618 45.9036 6.0349 45.7278C6.02189 45.7148 6.00236 45.7018 5.98934 45.6953C5.9568 45.6693 5.93727 45.6432 5.90473 45.6237C5.66393 45.4415 5.43614 45.2527 5.20835 45.0639C5.15629 45.0314 5.11726 44.9858 5.0717 44.9468C4.8309 44.745 4.5966 44.5367 4.36881 44.3349C4.34928 44.3219 4.32974 44.3024 4.31022 44.2828C4.25815 44.2308 4.21912 44.1852 4.16706 44.1462C4.07594 44.0615 3.99132 43.9834 3.90671 43.8988C3.83512 43.8272 3.76356 43.7621 3.69197 43.6905C3.61387 43.6059 3.53578 43.5278 3.45117 43.4432C3.38609 43.3716 3.32098 43.3065 3.25589 43.2349C3.1843 43.1503 3.10623 43.0722 3.03464 42.9875C2.96956 42.916 2.91096 42.8444 2.85239 42.7728C2.7808 42.6881 2.71573 42.61 2.65715 42.5254C2.59858 42.4538 2.54 42.3887 2.48793 42.3106C2.42285 42.2325 2.3643 42.1479 2.31224 42.0698C2.26017 41.9982 2.20808 41.9331 2.15601 41.8615C2.10394 41.7834 2.04538 41.6988 1.99982 41.6141C1.95426 41.5425 1.90873 41.4775 1.86317 41.4059C1.81111 41.3277 1.77204 41.2431 1.71997 41.1715C1.68092 41.0999 1.64188 41.0348 1.60934 40.9632C1.56379 40.8851 1.52474 40.8005 1.48569 40.7224C1.45315 40.6573 1.42059 40.5857 1.38805 40.5206C1.35551 40.449 1.31648 40.3644 1.29045 40.2863C1.25791 40.2212 1.23187 40.1496 1.20584 40.0845C1.1733 40.0064 1.15378 39.9283 1.12774 39.8502C1.10822 39.7851 1.08216 39.72 1.06264 39.6549C1.04311 39.5768 1.02361 39.4987 1.00409 39.4206C0.991071 39.3555 0.971542 39.2904 0.958525 39.2318C0.945509 39.1537 0.932494 39.0756 0.919478 38.9975C0.906461 38.9389 0.899928 38.8804 0.89342 38.8153C0.886911 38.7437 0.880424 38.6591 0.873916 38.5809C0.873916 38.5289 0.867401 38.4638 0.867401 38.4117C0.867401 38.3271 0.873922 38.249 0.88043 38.1709C0.886938 38.1188 0.886911 38.0602 0.89342 38.0147C0.899928 37.9235 0.912976 37.8389 0.925992 37.7543C0.939009 37.7087 0.938988 37.6632 0.945496 37.6176C0.971529 37.4939 1.00409 37.3638 1.04313 37.2401L3.8807 28.6091C3.86768 28.6612 3.84814 28.7263 3.82862 28.7849C3.82211 28.7914 3.8221 28.7979 3.8221 28.7979C3.80258 28.876 3.78308 28.9541 3.76355 29.0387C3.75054 29.1038 3.73753 29.1689 3.73102 29.2405C3.72451 29.2861 3.71799 29.3316 3.71799 29.3772C3.71148 29.4293 3.71147 29.4813 3.70496 29.5334C3.70496 29.6115 3.69849 29.6896 3.69849 29.7742V29.7873C3.70499 29.9174 3.70498 30.0541 3.7245 30.1778C3.73101 30.2364 3.731 30.295 3.75052 30.3601C3.76354 30.4317 3.77655 30.5163 3.78957 30.5879C3.80259 30.653 3.82212 30.7181 3.83513 30.7831C3.85466 30.8547 3.8742 30.9394 3.89372 31.011C3.91325 31.076 3.93276 31.1476 3.95879 31.2127C3.99133 31.2843 4.01086 31.369 4.0434 31.4406C4.06292 31.5122 4.09546 31.5772 4.1215 31.6423C4.15404 31.7139 4.1866 31.7986 4.22565 31.8767C4.25819 31.9483 4.29071 32.0133 4.32325 32.0784C4.32976 32.0915 4.33628 32.0915 4.33628 32.1045C4.44692 32.3193 4.56405 32.5406 4.69422 32.7554C4.83089 32.9767 4.98058 33.198 5.14329 33.4258C5.20186 33.5039 5.26045 33.5885 5.31902 33.6666C5.37108 33.7382 5.42316 33.8098 5.48824 33.8814C5.55332 33.9595 5.61839 34.0442 5.68348 34.1223C5.74205 34.1939 5.8006 34.2655 5.86568 34.3371C5.93727 34.4152 6.00888 34.4998 6.08698 34.5844C6.15206 34.656 6.21714 34.7276 6.28222 34.7992C6.35381 34.8773 6.43841 34.9619 6.5165 35.0465C6.74429 35.2744 6.98508 35.5087 7.2389 35.743C7.44716 35.9318 7.66844 36.1205 7.88972 36.3093C7.93528 36.3484 7.98085 36.3874 8.02641 36.4265C8.24769 36.6087 8.48199 36.7975 8.72279 36.9797C8.76835 37.0123 8.81392 37.0513 8.85947 37.0839C8.9571 37.162 9.06121 37.2401 9.16534 37.3182C9.32804 37.4354 9.49727 37.5655 9.66648 37.6762C9.86173 37.8194 10.057 37.9496 10.2652 38.0928C10.3563 38.1579 10.4475 38.2164 10.5451 38.275C10.6817 38.3727 10.8249 38.4573 10.9681 38.5484C11.0657 38.6135 11.1699 38.6786 11.274 38.7372C11.4172 38.8283 11.5604 38.9194 11.7101 39.0105C11.8142 39.0756 11.9248 39.1407 12.0355 39.2058C12.1721 39.2839 12.2958 39.3555 12.4325 39.4336C12.5496 39.4987 12.6667 39.5638 12.7839 39.6289C12.9206 39.707 13.0572 39.7851 13.1939 39.8567C13.298 39.9153 13.3957 39.9739 13.4998 40.0194C13.9489 40.2603 14.4174 40.5011 14.8991 40.7289C14.9121 40.7354 14.9186 40.7419 14.9316 40.7419C14.9837 40.7745 15.0422 40.794 15.0943 40.82C15.1073 40.8331 15.1203 40.8331 15.1333 40.8396C15.3741 40.9567 15.628 41.0739 15.8753 41.1846C16.1356 41.3017 16.3959 41.4189 16.6628 41.536C16.7279 41.5686 16.7995 41.5946 16.8645 41.6272C17.0272 41.6988 17.19 41.7704 17.3592 41.8355C17.5219 41.9071 17.6976 41.9787 17.8668 42.0437C18.5111 42.3041 19.1619 42.558 19.8127 42.7923C20.021 42.8639 20.2227 42.9355 20.431 43.0006C20.5612 43.0461 20.6914 43.0917 20.815 43.1373C20.8996 43.1698 20.9842 43.1893 21.0623 43.2154C21.8173 43.4692 22.5657 43.697 23.3206 43.9053C23.6265 43.9965 23.9454 44.0746 24.2513 44.1592C24.2643 44.1657 24.2839 44.1722 24.3034 44.1722C24.5247 44.2308 24.7525 44.2894 24.9672 44.3414C25.0518 44.361 25.1429 44.3805 25.2275 44.4C25.5009 44.4651 25.7677 44.5302 26.0411 44.5888C26.1582 44.6148 26.2819 44.6408 26.3925 44.6669C26.5097 44.6929 26.6268 44.719 26.7374 44.7385C26.9197 44.771 27.0954 44.8101 27.2711 44.8426C27.4924 44.8817 27.7007 44.9207 27.9154 44.9598C28.0131 44.9793 28.1042 44.9923 28.2018 45.0119C28.332 45.0314 28.4621 45.0574 28.5923 45.0769C28.716 45.0965 28.8461 45.1095 28.9698 45.1355C28.9828 45.1355 28.9893 45.142 29.0023 45.142C29.1259 45.1551 29.2431 45.1746 29.3733 45.1941C29.4058 45.2006 29.4449 45.2071 29.4839 45.2136C29.8093 45.2527 30.1282 45.2982 30.4471 45.3308C30.4797 45.3373 30.5187 45.3438 30.5578 45.3438C30.727 45.3633 30.8897 45.3829 31.0589 45.3959C31.163 45.4089 31.2671 45.4154 31.3648 45.4284C31.6706 45.4545 31.97 45.474 32.2629 45.4935C32.2954 45.4935 32.315 45.5 32.3345 45.5C32.3931 45.5065 32.4516 45.5065 32.5167 45.5065C32.712 45.5196 32.9072 45.5261 33.096 45.5326C33.8249 45.5651 34.5407 45.5651 35.2241 45.5326C35.4389 45.5261 35.6537 45.513 35.8685 45.5C36.0247 45.4935 36.1873 45.474 36.3435 45.461C36.4802 45.4545 36.6104 45.4349 36.747 45.4219C36.8447 45.4154 36.9293 45.4024 37.0204 45.3959C37.092 45.3894 37.1636 45.3764 37.2352 45.3699C37.3914 45.3438 37.554 45.3243 37.7102 45.2983C37.7623 45.2917 37.8079 45.2917 37.8469 45.2787C37.9185 45.2722 37.9836 45.2527 38.0552 45.2397C38.4001 45.1811 38.7256 45.1095 39.0445 45.0314C39.077 45.0249 39.0965 45.0184 39.129 45.0119C39.1616 45.0053 39.1811 44.9988 39.2072 44.9923C39.2592 44.9793 39.3048 44.9598 39.3568 44.9468C39.4089 44.9337 39.4544 44.9142 39.5065 44.9012C39.5651 44.8882 39.6237 44.8687 39.6822 44.8491C39.6953 44.8426 39.7148 44.8361 39.7278 44.8361C39.7603 44.8296 39.7929 44.8231 39.8254 44.8101C39.8514 44.7971 39.8775 44.7905 39.9035 44.7775C40.0662 44.7255 40.2224 44.6669 40.3786 44.6083C40.7886 44.4521 41.1726 44.2698 41.5176 44.0746C41.6217 44.016 41.7193 43.9574 41.8234 43.8923C41.8299 43.8858 41.8364 43.8858 41.8364 43.8793C41.9601 43.8012 42.0772 43.7166 42.1879 43.6319C42.2269 43.5994 42.266 43.5734 42.305 43.5408C42.4026 43.4627 42.4938 43.3846 42.5784 43.3C42.7151 43.1763 42.8387 43.0461 42.9558 42.916C43.0274 42.8313 43.0925 42.7467 43.1576 42.6621C43.1641 42.6491 43.1706 42.6426 43.1771 42.6296C43.2162 42.571 43.2552 42.5124 43.2943 42.4473C43.3333 42.3887 43.3724 42.3301 43.4049 42.265C43.4244 42.2325 43.444 42.2 43.457 42.1674C43.4635 42.1544 43.47 42.1414 43.47 42.1349C43.5221 42.0568 43.5611 41.9721 43.6002 41.8875Z" fill="url(#paint0_linear_3775_8348)"/>
<path d="M43.6851 41.6663L43.6526 41.7444C43.6526 41.7379 43.6591 41.7313 43.6591 41.7248C43.6721 41.7053 43.6786 41.6858 43.6851 41.6663Z" fill="url(#paint1_linear_3775_8348)"/>
<path d="M19.2012 28.0364C18.9539 27.8932 18.7131 27.7565 18.4788 27.6133C18.5894 27.6784 18.7001 27.7435 18.8042 27.802C18.9344 27.8867 19.071 27.9583 19.2012 28.0364Z" fill="url(#paint2_linear_3775_8348)"/>
<path d="M32.0029 33.0223C31.9183 33.0027 31.8272 32.9832 31.7361 32.9637C31.5148 32.9051 31.3001 32.853 31.0724 32.7944C31.3847 32.8791 31.6906 32.9507 32.0029 33.0223Z" fill="url(#paint3_linear_3775_8348)"/>
<path d="M36.2592 33.8294C36.103 33.8034 35.9403 33.7839 35.7776 33.7578C35.9012 33.7708 36.0249 33.7904 36.1485 33.8099C36.1811 33.8164 36.2266 33.8164 36.2592 33.8294Z" fill="url(#paint4_linear_3775_8348)"/>
<path d="M43.6 41.8875C43.5674 41.9721 43.5348 42.0568 43.4893 42.1349C43.4828 42.1479 43.4763 42.1674 43.4633 42.1739C43.4503 42.2065 43.4307 42.2455 43.4112 42.2716C43.3787 42.3366 43.3396 42.3952 43.3006 42.4538C43.2615 42.5189 43.2225 42.5775 43.1834 42.6361C43.1769 42.6491 43.1704 42.6556 43.1639 42.6686C43.1053 42.7532 43.0337 42.8378 42.9621 42.9225C42.845 43.0591 42.7214 43.1828 42.5847 43.3065C42.5001 43.3911 42.4024 43.4627 42.3113 43.5473C42.2788 43.5799 42.2397 43.6059 42.1942 43.6384C42.077 43.7231 41.9664 43.8077 41.8427 43.8858C41.8362 43.8923 41.8297 43.8923 41.8297 43.8988C41.7321 43.9639 41.628 44.0225 41.5238 44.0811C41.1789 44.2763 40.7949 44.4586 40.3849 44.6148C40.2287 44.6734 40.079 44.7255 39.9098 44.784C39.8577 44.8036 39.7927 44.8231 39.7341 44.8361C39.7211 44.8426 39.7015 44.8491 39.6885 44.8491C39.5844 44.8817 39.4803 44.9207 39.3631 44.9403C39.2915 44.9598 39.2069 44.9858 39.1353 45.0053C39.1028 45.0118 39.0832 45.0184 39.0507 45.0249C38.7383 45.103 38.4064 45.1746 38.0615 45.2332C37.9443 45.2592 37.8337 45.2787 37.71 45.2917C37.5538 45.3178 37.3976 45.3373 37.2349 45.3633C37.1633 45.3698 37.0982 45.3764 37.0201 45.3894C36.929 45.3959 36.8379 45.4089 36.7468 45.4154C36.6101 45.4284 36.48 45.4414 36.3433 45.4545C36.1871 45.4675 36.0244 45.4805 35.8682 45.4935C35.6535 45.5065 35.4386 45.5196 35.2239 45.5261C34.5405 45.5521 33.8312 45.5586 33.0957 45.5261C32.907 45.5196 32.7117 45.513 32.5165 45.5C32.4579 45.5 32.3994 45.5 32.3343 45.4935C32.3148 45.4935 32.2887 45.487 32.2627 45.487C31.9698 45.4675 31.6639 45.4479 31.3645 45.4219C31.2669 45.4089 31.1628 45.4089 31.0587 45.3894C30.8894 45.3764 30.7267 45.3568 30.5575 45.3373C30.525 45.3373 30.4859 45.3308 30.4469 45.3243C30.128 45.2852 29.8091 45.2462 29.4837 45.2071C29.3275 45.1811 29.1648 45.1616 29.0086 45.1355C28.9955 45.1355 28.989 45.129 28.976 45.129C28.8524 45.1095 28.7222 45.0965 28.5985 45.0704C28.4684 45.0509 28.3382 45.0249 28.2081 45.0053C28.1104 44.9923 28.0193 44.9728 27.9217 44.9533C27.7069 44.9207 27.4922 44.8752 27.2774 44.8361C27.1017 44.8036 26.926 44.7645 26.7437 44.732C26.6266 44.7124 26.5159 44.6864 26.3988 44.6604C26.2816 44.6343 26.1645 44.6083 26.0473 44.5823C25.774 44.5237 25.5072 44.4586 25.2338 44.3935C24.9279 44.3219 24.609 44.2503 24.3032 44.1657C24.2836 44.1592 24.2641 44.1527 24.2511 44.1527C23.9452 44.0745 23.6263 43.9899 23.3204 43.8988C22.572 43.6905 21.817 43.4627 21.0621 43.2089C20.984 43.1828 20.8994 43.1568 20.8148 43.1307C20.6911 43.0852 20.5609 43.0396 20.4308 42.9941C20.2225 42.929 20.0208 42.8509 19.8125 42.7858C19.1617 42.5514 18.5109 42.2976 17.8665 42.0372C17.6973 41.9656 17.5216 41.894 17.3589 41.8289C17.1962 41.7573 17.0335 41.6857 16.8643 41.6206C16.7927 41.5881 16.7276 41.5686 16.6625 41.5295C16.4022 41.4124 16.1354 41.3017 15.875 41.178C15.6277 41.0674 15.3804 40.9502 15.1331 40.8331C15.1201 40.8266 15.1071 40.82 15.094 40.8135C15.042 40.7875 14.9834 40.7615 14.9313 40.7354C14.9183 40.7289 14.9118 40.7224 14.8988 40.7224C14.4237 40.4946 13.9551 40.2538 13.4996 40.0129C13.3954 39.9609 13.2978 39.9088 13.1937 39.8502C12.9333 39.707 12.6795 39.5703 12.4257 39.4271C12.1849 39.2839 11.9441 39.1472 11.7033 39.004C11.5536 38.9129 11.4104 38.8218 11.2672 38.7307C11.1631 38.6721 11.0655 38.607 10.9614 38.5419C10.8182 38.4508 10.6815 38.3596 10.5383 38.2685C10.4407 38.2164 10.3496 38.1513 10.2585 38.0863C10.0567 37.9431 9.85497 37.8129 9.65973 37.6697C9.49051 37.5525 9.32129 37.4288 9.15858 37.3117C9.05445 37.2336 8.95034 37.1555 8.85272 37.0774C8.80716 37.0448 8.76159 37.0058 8.71603 36.9732C8.47523 36.791 8.24744 36.6022 8.01965 36.4199C7.97409 36.3809 7.92856 36.3418 7.883 36.3028C7.66172 36.114 7.44045 35.9253 7.23218 35.7365C6.97836 35.5022 6.73753 35.2679 6.50974 35.04C6.43165 34.9619 6.35356 34.8773 6.27546 34.7927C6.20387 34.7211 6.1388 34.6495 6.08022 34.5779C6.00863 34.4998 5.93052 34.4152 5.85893 34.3306C5.79384 34.259 5.73529 34.1874 5.67672 34.1158C5.60513 34.0376 5.54005 33.953 5.48148 33.8749C5.4164 33.8033 5.36433 33.7317 5.31226 33.6601C5.25369 33.582 5.1951 33.4974 5.13653 33.4193C4.97382 33.198 4.82413 32.9702 4.68746 32.7489C4.55079 32.5276 4.43365 32.3128 4.32952 32.098C4.32952 32.0849 4.323 32.0849 4.31649 32.0719C4.28395 32.0003 4.24492 31.9352 4.21889 31.8701C4.17984 31.792 4.14728 31.7074 4.11474 31.6358C4.08219 31.5642 4.05616 31.4991 4.03664 31.434C4.0041 31.3624 3.98457 31.2778 3.95203 31.2062C3.926 31.1411 3.90649 31.0695 3.88696 31.0044C3.86744 30.9328 3.8479 30.8482 3.82837 30.7766C3.81536 30.7115 3.79583 30.6465 3.78281 30.5814C3.76979 30.5098 3.75678 30.4251 3.74376 30.3535C3.73075 30.2885 3.72425 30.2299 3.71775 30.1713C3.70473 30.0411 3.69823 29.9044 3.69173 29.7808V29.7677C3.69173 29.6896 3.69824 29.6115 3.69824 29.5269C3.70475 29.4748 3.70472 29.4228 3.71123 29.3707C3.71774 29.3186 3.72426 29.2731 3.72426 29.234C3.73077 29.1624 3.73727 29.0973 3.75679 29.0322C3.76981 28.9541 3.78935 28.876 3.81538 28.7914C3.81538 28.7849 3.81535 28.7784 3.82186 28.7784C3.83488 28.7198 3.85441 28.6612 3.87394 28.6026C4.01712 28.1535 4.25791 27.7369 4.59633 27.3464C5.33827 26.4807 6.49023 25.8298 7.94807 25.3937L7.79839 25.8493C7.75284 25.973 7.72028 26.1032 7.70075 26.2268C7.68774 26.2724 7.68776 26.318 7.68125 26.357C7.66823 26.4481 7.64871 26.5328 7.6422 26.6174C7.63569 26.6694 7.63569 26.728 7.63569 26.7736C7.62918 26.8517 7.62266 26.9298 7.62266 27.0144C7.62266 27.0665 7.62917 27.1316 7.62917 27.1837C7.63568 27.2618 7.63569 27.3399 7.6422 27.418C7.65522 27.4766 7.66171 27.5417 7.66822 27.6002C7.67473 27.6783 7.68774 27.7564 7.70075 27.8346C7.71377 27.8931 7.73331 27.9582 7.75283 28.0233C7.76585 28.0949 7.78535 28.1795 7.81138 28.2576C7.83091 28.3227 7.85046 28.3878 7.87649 28.4529C7.90252 28.531 7.92855 28.6091 7.95458 28.6872C7.98062 28.7523 8.00665 28.8239 8.03268 28.889C8.06522 28.9671 8.10425 29.0452 8.13679 29.1233C8.16933 29.1949 8.20189 29.26 8.23443 29.3251C8.27348 29.4032 8.31252 29.4878 8.35157 29.566C8.39062 29.6376 8.42967 29.7026 8.46872 29.7677C8.51427 29.8458 8.55985 29.9305 8.6054 30.0086C8.65096 30.0802 8.69653 30.1453 8.74209 30.2169C8.79415 30.295 8.85273 30.3796 8.90479 30.4577C8.95686 30.5358 9.0024 30.6009 9.05447 30.6725C9.11304 30.7506 9.1716 30.8352 9.23668 30.9133C9.28874 30.9849 9.34732 31.0565 9.39938 31.1281C9.46446 31.2062 9.53609 31.2908 9.59466 31.3755C9.65323 31.4471 9.7183 31.5122 9.77687 31.5838C9.84846 31.6684 9.92007 31.7465 9.99817 31.8311C10.0632 31.9092 10.1283 31.9743 10.1934 32.0459C10.2715 32.1305 10.3496 32.2086 10.4342 32.2932C10.5058 32.3648 10.5709 32.4364 10.649 32.508C10.7271 32.5926 10.8182 32.6708 10.9028 32.7554C10.9548 32.8074 11.0004 32.853 11.0525 32.8986C11.072 32.9116 11.0915 32.9311 11.111 32.9506C11.3323 33.1524 11.5601 33.3607 11.8074 33.5625C11.853 33.6015 11.8986 33.6406 11.9441 33.6797C12.1654 33.8684 12.3997 34.0572 12.6405 34.2394C12.673 34.259 12.699 34.285 12.7316 34.311C12.7446 34.324 12.7641 34.3306 12.7771 34.3436C12.9984 34.5063 13.2262 34.6755 13.4605 34.8513C13.4996 34.8773 13.5386 34.9033 13.5777 34.9359C13.7794 35.0791 13.9747 35.2093 14.1829 35.3525C14.2155 35.372 14.235 35.3915 14.2675 35.4111C14.3261 35.4501 14.3912 35.4892 14.4563 35.5282C14.5929 35.6258 14.7361 35.7105 14.8793 35.8016C14.9769 35.8667 15.081 35.9318 15.1852 35.9969C15.3284 36.088 15.4715 36.1726 15.6212 36.2637C15.6798 36.2963 15.7384 36.3353 15.7969 36.3679C15.849 36.4004 15.8946 36.4265 15.9466 36.459C16.0833 36.5371 16.2135 36.6152 16.3501 36.6868C16.4673 36.7519 16.5779 36.8235 16.6951 36.8886C16.8318 36.9667 16.9684 37.0383 17.1051 37.1164C17.1832 37.162 17.2613 37.201 17.3394 37.2466C17.3654 37.2596 17.3914 37.2726 17.411 37.2791C17.873 37.5265 18.3482 37.7673 18.8428 38.0082C18.8753 38.0212 18.9079 38.0407 18.9469 38.0602C18.9665 38.0732 18.9925 38.0863 19.0185 38.0928C19.5261 38.3336 20.0403 38.5744 20.574 38.8022C20.6065 38.8153 20.6455 38.8348 20.6781 38.8478C20.7106 38.8608 20.7367 38.8804 20.7692 38.8869C21.1011 39.0301 21.433 39.1733 21.7715 39.31C22.0448 39.4206 22.3182 39.5313 22.5915 39.6354C22.611 39.6419 22.6241 39.6484 22.6436 39.6549C23.3334 39.9218 24.0298 40.1691 24.7262 40.41C24.7327 40.41 24.7392 40.41 24.7392 40.4165H24.7457C25.1557 40.5532 25.5592 40.6834 25.9627 40.8005C26.0799 40.8396 26.1905 40.8721 26.3077 40.9047C26.6136 41.0023 26.9259 41.0869 27.2253 41.1715C27.2969 41.1911 27.3685 41.2171 27.4401 41.2366C27.4792 41.2496 27.5117 41.2496 27.5507 41.2627C27.9933 41.3863 28.4358 41.497 28.8784 41.6076C28.9695 41.6272 29.0541 41.6467 29.1453 41.6662C29.5357 41.7639 29.9262 41.8485 30.3167 41.9266C30.3948 41.9461 30.4729 41.9591 30.551 41.9786C30.9805 42.0698 31.4166 42.1479 31.8462 42.226C31.9438 42.239 32.0349 42.2585 32.1325 42.2716C32.523 42.3366 32.9135 42.4017 33.2975 42.4538C33.3495 42.4603 33.3951 42.4668 33.4472 42.4733C33.8702 42.5319 34.2802 42.5775 34.6902 42.623C34.7879 42.6361 34.8855 42.6426 34.9766 42.6491C35.3866 42.6881 35.7901 42.7272 36.1871 42.7467C36.1936 42.7467 36.2001 42.7532 36.2001 42.7532C36.5971 42.7727 36.9941 42.7923 37.3781 42.7988C37.4692 42.7988 37.5603 42.7988 37.6449 42.8053C38.0224 42.8118 38.3999 42.8053 38.7643 42.7988H38.7969C38.8294 42.7988 38.862 42.7988 38.8945 42.7923C39.2004 42.7858 39.4933 42.7662 39.7796 42.7532C39.8707 42.7467 39.9554 42.7467 40.0465 42.7337C40.3524 42.7077 40.6517 42.6881 40.9381 42.6491C40.9576 42.6491 40.9771 42.6491 40.9902 42.6426H41.0032C41.2635 42.61 41.5108 42.5775 41.7581 42.5319C41.8297 42.5254 41.8948 42.5059 41.9664 42.4929C42.1421 42.4603 42.3113 42.4343 42.4805 42.3952C42.5001 42.3887 42.5261 42.3887 42.5521 42.3887C42.6302 42.3692 42.7083 42.3432 42.7929 42.3236C42.9101 42.2976 43.0142 42.2716 43.1248 42.2455C43.229 42.2195 43.3266 42.1934 43.4307 42.1609C43.4438 42.1544 43.4568 42.1544 43.4633 42.1479C43.5218 42.0568 43.5609 41.9721 43.6 41.8875Z" fill="url(#paint5_linear_3775_8348)"/>
<path d="M43.6524 41.7444L43.6394 41.7966C43.6263 41.8293 43.6133 41.8554 43.6002 41.888C43.6198 41.8358 43.6394 41.7901 43.6524 41.7444Z" fill="url(#paint6_linear_3775_8348)"/>
<path opacity="0.4" d="M50.3814 30.4576L47.6024 38.9193C47.5894 38.9714 47.5699 39.017 47.5503 39.069C47.5373 39.0951 47.5308 39.1146 47.5178 39.1341C47.4787 39.2318 47.4332 39.3294 47.3876 39.4205C47.3681 39.4531 47.3551 39.4921 47.3356 39.5247C47.2705 39.6483 47.1924 39.772 47.1078 39.8892C47.1078 39.8957 47.1013 39.8957 47.1013 39.9022C47.0297 39.9933 46.9581 40.0844 46.8865 40.1756C46.7694 40.3058 46.6457 40.4359 46.5155 40.5596C46.5025 40.5726 46.496 40.5791 46.483 40.5921C46.4309 40.6442 46.3658 40.6963 46.3008 40.7484C46.2552 40.7874 46.2097 40.8265 46.1641 40.8655C46.073 40.9371 45.9819 41.0022 45.8778 41.0673C45.8387 41.0933 45.7996 41.1194 45.7606 41.1519C45.7541 41.1519 45.7476 41.1584 45.7476 41.1584C45.6109 41.2496 45.4612 41.3342 45.318 41.4123C45.2855 41.4318 45.2464 41.4448 45.2139 41.4644C45.1033 41.5229 44.9926 41.5815 44.869 41.6401C44.8559 41.6466 44.8494 41.6531 44.8364 41.6531C44.7648 41.6857 44.6997 41.7117 44.6282 41.7442C44.524 41.7898 44.4264 41.8354 44.3158 41.8744C44.2442 41.907 44.1596 41.9265 44.0815 41.959C43.9969 41.9916 43.9188 42.0176 43.8342 42.0502C43.8081 42.0567 43.7821 42.0632 43.7626 42.0697C43.691 42.0957 43.6194 42.1153 43.5413 42.1413L43.6454 41.8158L43.6584 41.7638L43.691 41.6857C43.6845 41.7052 43.678 41.7247 43.665 41.7442C43.665 41.7508 43.6584 41.7573 43.6584 41.7638C43.6454 41.8093 43.6259 41.8549 43.6064 41.9005C43.5738 41.9851 43.5283 42.0697 43.4892 42.1543C43.4762 42.1608 43.4632 42.1608 43.4567 42.1673C43.3591 42.1999 43.255 42.2259 43.1508 42.2519C43.0467 42.2845 42.936 42.304 42.8189 42.3301C42.7408 42.3496 42.6627 42.3756 42.5781 42.3951C42.5521 42.4017 42.526 42.4017 42.5065 42.4017C42.3373 42.4407 42.1681 42.4733 41.9923 42.4993C41.9208 42.5123 41.8557 42.5318 41.7841 42.5383C41.5368 42.5839 41.283 42.6165 41.0291 42.649H41.0161C41.0031 42.6555 40.9836 42.6555 40.964 42.6555C40.6777 42.6946 40.3783 42.7206 40.0724 42.7401C39.9813 42.7466 39.8967 42.7531 39.8056 42.7596C39.5192 42.7792 39.2264 42.7922 38.9205 42.7987C38.888 42.8052 38.8554 42.8052 38.8229 42.8052H38.7903C38.4259 42.8117 38.0484 42.8182 37.6709 42.8117C37.5798 42.8052 37.4887 42.8052 37.4041 42.8052C37.0136 42.7922 36.6231 42.7792 36.2261 42.7596C36.2196 42.7596 36.2131 42.7531 36.2131 42.7531C35.8161 42.7336 35.4126 42.6946 35.0026 42.6555C34.9049 42.649 34.8138 42.6425 34.7162 42.6295C34.3062 42.5904 33.8962 42.5383 33.4732 42.4798C33.4211 42.4733 33.3755 42.4667 33.3234 42.4602C32.9395 42.4017 32.549 42.3431 32.1585 42.278C32.0609 42.265 31.9632 42.2454 31.8721 42.2324C31.4426 42.1543 31.0131 42.0762 30.577 41.9851C30.4989 41.9721 30.4208 41.9525 30.3427 41.933C29.9522 41.8549 29.5682 41.7638 29.1712 41.6726C29.0801 41.6531 28.9955 41.6336 28.9044 41.6141C28.4618 41.5099 28.0193 41.3928 27.5767 41.2691C27.5442 41.2561 27.5051 41.2561 27.4661 41.2431C27.3945 41.2235 27.3294 41.1975 27.2513 41.178C26.9454 41.0933 26.6395 41.0087 26.3337 40.9111C26.2165 40.8785 26.1059 40.846 25.9887 40.8069C25.5787 40.6833 25.1752 40.5531 24.7717 40.4229H24.7652C24.7587 40.4164 24.7522 40.4164 24.7522 40.4164C24.0558 40.1821 23.3594 39.9282 22.6695 39.6614C22.65 39.6483 22.637 39.6483 22.6175 39.6418C22.3441 39.5377 22.0708 39.427 21.7975 39.3164C21.459 39.1797 21.1271 39.043 20.7952 38.8933C20.7626 38.8803 20.7366 38.8673 20.7041 38.8542C20.6715 38.8412 20.6325 38.8217 20.5999 38.8087C20.0663 38.5809 19.5521 38.34 19.0445 38.0992C19.0184 38.0862 18.9924 38.0732 18.9729 38.0666C18.9338 38.0536 18.9013 38.0341 18.8688 38.0146C18.3742 37.7737 17.8991 37.5329 17.437 37.2856C17.4109 37.2725 17.3849 37.2595 17.3654 37.253C17.2873 37.2075 17.2092 37.1684 17.1311 37.1228C16.9944 37.0447 16.8512 36.9731 16.721 36.895C16.6039 36.8299 16.4868 36.7583 16.3761 36.6932C16.2395 36.6151 16.1093 36.537 15.9726 36.4654C15.9206 36.4329 15.875 36.4068 15.8229 36.3743C15.7643 36.3418 15.7058 36.3027 15.6472 36.2702C15.4975 36.179 15.3543 36.0944 15.2111 36.0033C15.1135 35.9382 15.0094 35.8731 14.9053 35.808C14.7621 35.7169 14.6254 35.6258 14.4822 35.5346C14.4171 35.4956 14.3521 35.4565 14.2935 35.4175C14.261 35.3979 14.2414 35.3784 14.2089 35.3589C14.0006 35.2157 13.7989 35.0855 13.6036 34.9423C13.5646 34.9098 13.5255 34.8837 13.4865 34.8577C13.2457 34.6885 13.0244 34.5192 12.8031 34.35C12.7901 34.337 12.7706 34.324 12.7576 34.3175C12.725 34.2914 12.699 34.2654 12.6665 34.2459C12.4257 34.0636 12.1979 33.8748 11.9701 33.6861C11.9245 33.6535 11.879 33.608 11.8334 33.5689C11.5926 33.3671 11.3648 33.1588 11.1371 32.9571C11.1175 32.9375 11.098 32.9245 11.0785 32.905C11.0264 32.8529 10.9809 32.8074 10.9288 32.7618C10.8442 32.6837 10.7531 32.5991 10.675 32.5145C10.6034 32.4429 10.5318 32.3778 10.4602 32.2997C10.3821 32.2215 10.304 32.1369 10.2194 32.0523C10.1478 31.9807 10.0827 31.9156 10.0241 31.8375C9.95255 31.7594 9.87443 31.6748 9.80284 31.5902C9.74427 31.5186 9.67921 31.4535 9.62064 31.3819C9.55555 31.2973 9.48397 31.2192 9.4254 31.1345C9.37333 31.0629 9.30825 30.9913 9.26269 30.9197C9.19761 30.8416 9.13902 30.757 9.08044 30.6789C9.02838 30.6073 8.98283 30.5422 8.93077 30.4641C8.8787 30.386 8.82013 30.3014 8.76806 30.2233C8.72251 30.1517 8.67694 30.0866 8.63138 30.015C8.57931 29.9369 8.54029 29.8523 8.49473 29.7742C8.45568 29.7091 8.4166 29.6375 8.37755 29.5724C8.3385 29.4943 8.29946 29.4097 8.26041 29.3315C8.22787 29.2665 8.18884 29.1949 8.16281 29.1298C8.13027 29.0517 8.0912 28.9736 8.05865 28.8954C8.03262 28.8304 8.00659 28.7587 7.98056 28.6937C7.94802 28.6156 7.9285 28.5374 7.90246 28.4593C7.87643 28.3942 7.85692 28.3292 7.8374 28.2641C7.81137 28.186 7.79182 28.1079 7.77881 28.0297C7.76579 27.9647 7.74626 27.8996 7.72673 27.841C7.71371 27.7629 7.70071 27.6848 7.6942 27.6067C7.68118 27.5481 7.67469 27.483 7.66818 27.4244C7.66167 27.3463 7.66166 27.2682 7.65515 27.1901C7.64864 27.138 7.64864 27.0729 7.64864 27.0208C7.64864 26.9362 7.65516 26.8581 7.66166 26.78C7.66166 26.7279 7.66167 26.6759 7.66818 26.6238C7.6812 26.5392 7.69421 26.4546 7.70723 26.3634C7.71374 26.3244 7.72022 26.2788 7.72673 26.2333C7.75276 26.1096 7.78532 25.9794 7.82437 25.8557L7.97405 25.4001L10.6619 17.2183C10.6489 17.2768 10.6294 17.3354 10.6099 17.394C10.6034 17.4005 10.6034 17.407 10.6034 17.407C10.5904 17.4721 10.5708 17.5307 10.5578 17.5958C10.5513 17.6088 10.5513 17.6283 10.5448 17.6479C10.5383 17.6739 10.5383 17.6999 10.5318 17.726C10.5253 17.765 10.5188 17.8041 10.5123 17.8431C10.4992 17.8887 10.4992 17.9343 10.4927 17.9798V18.0124C10.4797 18.1946 10.4732 18.3704 10.4862 18.5526C10.4927 18.6112 10.4927 18.6828 10.4927 18.7479C10.4992 18.8195 10.5123 18.8976 10.5253 18.9692C10.5318 19.0408 10.5513 19.1254 10.5643 19.197C10.5708 19.2295 10.5708 19.2621 10.5838 19.2946C10.6034 19.3988 10.6359 19.5094 10.6684 19.6201C10.688 19.6852 10.714 19.7503 10.7335 19.8219V19.8284C10.7531 19.9 10.7856 19.9651 10.8051 20.0367C10.8051 20.0497 10.8116 20.0497 10.8181 20.0627C10.8442 20.1278 10.8702 20.1929 10.8963 20.258C10.9548 20.4142 11.0264 20.5639 11.111 20.7201C11.1761 20.8568 11.2477 20.9935 11.3323 21.1367C11.5015 21.4361 11.6967 21.742 11.9245 22.0414C11.9766 22.1196 12.0417 22.2042 12.1003 22.2823C12.2304 22.458 12.3671 22.6273 12.5168 22.803C12.5623 22.8551 12.6079 22.9006 12.6534 22.9527C12.7055 23.0113 12.7641 23.0764 12.8161 23.1415C13.1611 23.532 13.5516 23.9226 13.9746 24.3131C14.0527 24.3912 14.1308 24.4563 14.2154 24.5279C14.2935 24.5995 14.3716 24.6646 14.4562 24.7427H14.4627C14.5408 24.8143 14.6189 24.8794 14.7035 24.9445C14.8532 25.0681 15.0094 25.1918 15.1591 25.3155C15.2763 25.4131 15.3934 25.5042 15.5105 25.5954C15.5561 25.6344 15.6017 25.6735 15.6472 25.6995C15.8685 25.8687 16.0963 26.038 16.3306 26.2072C16.3696 26.2398 16.4152 26.2658 16.4542 26.2983C16.7341 26.5001 17.0269 26.6954 17.3263 26.8907C17.463 26.9883 17.6062 27.0729 17.7494 27.164C17.847 27.2291 17.9511 27.2942 18.0553 27.3528C18.0748 27.3658 18.0943 27.3788 18.1138 27.3919C18.2375 27.47 18.3611 27.5481 18.4913 27.6197C18.7321 27.7629 18.9664 27.9061 19.2137 28.0428C19.3308 28.1078 19.4415 28.1729 19.5586 28.238C19.7409 28.3487 19.9296 28.4463 20.1249 28.5505C20.1769 28.583 20.229 28.6025 20.281 28.6286C20.5023 28.7457 20.7301 28.8629 20.9579 28.9801C20.9709 28.9866 20.9774 28.9931 20.9904 28.9931C21.2117 29.1102 21.4265 29.2144 21.6543 29.325C21.6738 29.3381 21.6933 29.3446 21.7129 29.3576C21.7649 29.3836 21.817 29.4097 21.869 29.4357C21.8821 29.4357 21.882 29.4422 21.8951 29.4487C21.9797 29.4878 22.0643 29.5333 22.1554 29.5724C22.3246 29.6505 22.4873 29.7351 22.663 29.8067C22.9884 29.9629 23.3139 30.1061 23.6458 30.2493C23.9712 30.3925 24.3096 30.5292 24.6415 30.6724C24.9344 30.7896 25.2207 30.9067 25.5136 31.0109C25.813 31.128 26.1124 31.2387 26.4052 31.3493C26.4638 31.3754 26.5224 31.3949 26.581 31.4144C26.8348 31.5121 27.0821 31.5967 27.3359 31.6748C27.4205 31.7073 27.5051 31.7399 27.5897 31.7659C27.6678 31.7985 27.7524 31.8245 27.8305 31.844C28.1624 31.9547 28.4944 32.0588 28.8263 32.163C28.9434 32.1955 29.0541 32.2346 29.1712 32.2671C29.4771 32.3647 29.783 32.4559 30.0889 32.534C30.3687 32.6121 30.6421 32.6837 30.9154 32.7553C30.9675 32.7748 31.026 32.7878 31.0781 32.8009C31.2994 32.8594 31.5207 32.9115 31.742 32.9701C31.8331 32.9896 31.9242 33.0091 32.0088 33.0287C32.2626 33.0938 32.5164 33.1523 32.7703 33.1979C32.9069 33.2304 33.0436 33.2565 33.1803 33.289C34.0654 33.4778 34.9375 33.634 35.7836 33.7577C35.9463 33.7837 36.109 33.8032 36.2652 33.8293C36.9095 33.9139 37.5342 33.9855 38.1525 34.0376C38.4584 34.0636 38.7578 34.0831 39.0506 34.1027H39.0962C39.363 34.1222 39.6299 34.1352 39.8902 34.1417C40.6907 34.1743 41.4652 34.1743 42.2071 34.1352C42.3568 34.1287 42.5 34.1222 42.6432 34.1092C42.7343 34.1027 42.8189 34.1027 42.91 34.0896C43.2029 34.0636 43.4892 34.0376 43.7756 34.005C44.6151 33.9009 45.3961 33.7577 46.1055 33.5624C46.2552 33.5234 46.4049 33.4778 46.5481 33.4322C46.5806 33.4192 46.6067 33.4127 46.6392 33.3997C46.8214 33.3476 46.9906 33.2825 47.1533 33.2174C47.6024 33.0482 48.0124 32.8529 48.3834 32.6316C48.455 32.5926 48.5201 32.547 48.5917 32.5014C48.6112 32.4884 48.6307 32.4754 48.6502 32.4624C48.7088 32.4233 48.7674 32.3778 48.8259 32.3322C48.8845 32.2931 48.9431 32.2541 48.9952 32.215C49.0082 32.2085 49.0147 32.202 49.0212 32.1955C49.0602 32.163 49.0993 32.1304 49.1383 32.1044L49.1514 32.0914C49.2685 31.9937 49.3922 31.8896 49.4963 31.7789C49.5809 31.7008 49.659 31.6227 49.7241 31.5381C49.8542 31.3819 49.9714 31.2322 50.0625 31.0695C50.0951 31.0174 50.1341 30.9523 50.1666 30.8937C50.1862 30.8612 50.2057 30.8221 50.2187 30.7831C50.2447 30.7375 50.2708 30.6854 50.2903 30.6399C50.3163 30.5943 50.3359 30.5422 50.3489 30.4967C50.3619 30.4836 50.3684 30.4706 50.3814 30.4576Z" fill="url(#paint7_linear_3775_8348)"/>
<path opacity="0.4" d="M10.6622 19.6135C10.6297 19.5029 10.5971 19.3922 10.5776 19.2881C10.5906 19.3206 10.5971 19.3467 10.6036 19.3792C10.6232 19.4573 10.6362 19.5354 10.6622 19.6135Z" fill="url(#paint8_linear_3775_8348)"/>
<path opacity="0.4" d="M19.2005 28.0363C18.9532 27.8931 18.7124 27.7564 18.4781 27.6132C18.5887 27.6783 18.6994 27.7433 18.8035 27.8019C18.9337 27.8865 19.0704 27.9581 19.2005 28.0363Z" fill="url(#paint9_linear_3775_8348)"/>
<path opacity="0.4" d="M36.2585 33.8293C36.1023 33.8032 35.9396 33.7837 35.7769 33.7577C35.9006 33.7707 36.0242 33.7902 36.1479 33.8098C36.1804 33.8163 36.226 33.8163 36.2585 33.8293Z" fill="url(#paint10_linear_3775_8348)"/>
<path opacity="0.4" d="M43.5996 41.8874C43.6191 41.8354 43.6386 41.7898 43.6516 41.7507L43.6386 41.8028L43.5345 42.1282C43.5214 42.1348 43.5019 42.1413 43.4889 42.1413C43.4824 42.1478 43.4824 42.1478 43.4759 42.1478C43.5215 42.0567 43.5605 41.972 43.5996 41.8874Z" fill="url(#paint11_linear_3775_8348)"/>
<path opacity="0.4" d="M43.6839 41.6661L43.6515 41.7442C43.6515 41.7377 43.658 41.7312 43.658 41.7247C43.671 41.7052 43.6774 41.6857 43.6839 41.6661Z" fill="url(#paint12_linear_3775_8348)"/>
<path opacity="0.4" d="M50.4269 30.3079C50.4139 30.3405 50.4073 30.3732 50.3943 30.4058C50.3878 30.4189 50.3812 30.4384 50.3812 30.4515C50.3682 30.4646 50.3682 30.4841 50.3551 30.4972C50.3812 30.4319 50.4008 30.3731 50.4269 30.3079Z" fill="url(#paint13_linear_3775_8348)"/>
<g opacity="0.4">
<path opacity="0.4" d="M50.4273 30.308C50.4013 30.373 50.3752 30.4316 50.3492 30.4967C50.3362 30.5488 50.3166 30.5943 50.2906 30.6399C50.2711 30.692 50.2451 30.7375 50.219 30.7831C50.206 30.8222 50.1865 30.8547 50.167 30.8938C50.1344 30.9523 50.0954 31.0109 50.0628 31.0695C49.9652 31.2257 49.8546 31.3819 49.7244 31.5382C49.6528 31.6228 49.5812 31.7009 49.4966 31.779C49.3925 31.8896 49.2688 31.9938 49.1517 32.0914L49.1386 32.1044C49.0996 32.137 49.0606 32.1695 49.0215 32.1956C49.015 32.2021 49.0085 32.2086 48.9955 32.2151C48.9434 32.2541 48.8848 32.2932 48.8263 32.3323C48.7677 32.3778 48.7091 32.4234 48.6505 32.4624C48.631 32.4755 48.6115 32.495 48.592 32.5015C48.5204 32.5471 48.4553 32.5926 48.3837 32.6317C48.0127 32.853 47.6027 33.0548 47.1537 33.2175C47.0821 33.25 46.9975 33.2761 46.9194 33.3021C46.8283 33.3346 46.7371 33.3672 46.6395 33.3997C46.607 33.4128 46.5809 33.4193 46.5484 33.4323C46.4052 33.4778 46.2555 33.5234 46.1059 33.5625C45.3965 33.7577 44.609 33.9074 43.7759 34.0051C43.4895 34.0311 43.2032 34.0637 42.9103 34.0897C42.8192 34.0962 42.7346 34.1027 42.6435 34.1092C42.5003 34.1157 42.3571 34.1287 42.2075 34.1353C41.4655 34.1743 40.691 34.1743 39.8905 34.1418C39.6237 34.1353 39.3634 34.1222 39.0965 34.1027H39.051C38.7581 34.0832 38.4587 34.0637 38.1528 34.0376C37.5345 33.9855 36.9098 33.9139 36.2655 33.8293C36.2329 33.8163 36.1939 33.8163 36.1548 33.8098C36.0312 33.7968 35.9075 33.7773 35.7839 33.7577C34.9313 33.6276 34.0657 33.4713 33.1806 33.2891C33.0439 33.2565 32.9073 33.2305 32.7706 33.198C32.5168 33.1459 32.263 33.0938 32.0091 33.0287C31.7032 32.9571 31.3908 32.8855 31.0849 32.8009C31.0329 32.7879 30.9743 32.7749 30.9222 32.7553C30.6489 32.6837 30.3756 32.6121 30.0957 32.534C29.7898 32.4559 29.4904 32.3648 29.178 32.2672C29.0609 32.2346 28.9438 32.1956 28.8331 32.163C28.5012 32.0654 28.1693 31.9547 27.8374 31.8441C27.7593 31.818 27.6747 31.792 27.5966 31.766C27.512 31.7399 27.4273 31.7139 27.3427 31.6748C27.0889 31.5967 26.8416 31.5121 26.5878 31.4145C26.5292 31.395 26.4706 31.3754 26.4121 31.3494C26.1127 31.2452 25.8133 31.1281 25.5204 31.0109C25.2276 30.9068 24.9412 30.7896 24.6483 30.6725C24.3099 30.5293 23.978 30.3926 23.6526 30.2494C23.3207 30.1062 22.9888 29.963 22.6699 29.8068C22.4941 29.7287 22.3315 29.6505 22.1622 29.5724C22.0711 29.5334 21.9865 29.4878 21.9019 29.4488C21.8889 29.4423 21.8889 29.4357 21.8759 29.4357C21.8238 29.4097 21.7717 29.3837 21.7196 29.3576C21.7001 29.3446 21.6806 29.3381 21.6611 29.3251C21.4398 29.2144 21.2185 29.1103 20.9972 28.9931C20.9842 28.9866 20.9777 28.9801 20.9647 28.9801C20.7369 28.8629 20.5157 28.7458 20.2879 28.6286C20.2358 28.6026 20.1772 28.5766 20.1317 28.5505C19.9364 28.4464 19.7477 28.3422 19.5654 28.2381C19.4483 28.173 19.3312 28.1079 19.2205 28.0428C19.0839 27.9647 18.9537 27.8866 18.8235 27.8085C18.7129 27.7499 18.6023 27.6848 18.4981 27.6197C18.368 27.5416 18.2443 27.47 18.1206 27.3919C18.1011 27.3789 18.0816 27.3594 18.0621 27.3529C17.9579 27.2943 17.8603 27.2292 17.7562 27.1641C17.613 27.073 17.4698 26.9818 17.3331 26.8907C17.242 26.8321 17.1509 26.7736 17.0598 26.7085C16.858 26.5718 16.6498 26.4351 16.4611 26.2984C16.422 26.2659 16.3765 26.2398 16.3374 26.2073C16.1031 26.0445 15.8753 25.8753 15.6541 25.6996C15.6085 25.667 15.5629 25.6345 15.5174 25.5954C15.4002 25.5043 15.2766 25.4132 15.1659 25.3155C15.0097 25.1984 14.86 25.0682 14.7104 24.9445C14.6323 24.8729 14.5542 24.8078 14.4696 24.7427H14.463C14.3849 24.6646 14.3068 24.5995 14.2222 24.5279C14.1441 24.4563 14.0661 24.3913 13.9814 24.3131C13.5519 23.9226 13.1679 23.5321 12.823 23.1415C12.7709 23.0764 12.7123 23.0113 12.6603 22.9528C12.6147 22.9007 12.5692 22.8551 12.5236 22.8031C12.3739 22.6273 12.2372 22.4581 12.1071 22.2823C12.042 22.2042 11.9834 22.1196 11.9313 22.0415C11.7036 21.7356 11.5083 21.4297 11.3391 21.1367C11.3001 21.0652 11.261 21.0001 11.2285 20.935C11.1894 20.8634 11.1569 20.7983 11.1178 20.7267C11.0332 20.5705 10.9616 20.4208 10.903 20.2645C10.8705 20.1994 10.851 20.1344 10.8249 20.0693C10.8184 20.0562 10.812 20.0563 10.812 20.0432C10.7859 19.9716 10.7599 19.9065 10.7403 19.8349V19.8284C10.7208 19.7568 10.6948 19.6917 10.6753 19.6267C10.6492 19.5486 10.6362 19.4704 10.6167 19.3923C10.6102 19.3598 10.6037 19.3338 10.5907 19.3012C10.5776 19.2687 10.5777 19.2296 10.5712 19.2036C10.5581 19.132 10.5386 19.0474 10.5321 18.9758C10.5191 18.9042 10.506 18.826 10.4995 18.7544C10.4995 18.6894 10.493 18.6178 10.493 18.5592C10.48 18.3769 10.4865 18.1947 10.4995 18.0189C10.506 17.9669 10.5126 17.9018 10.5191 17.8497C10.5256 17.8106 10.5321 17.7716 10.5386 17.7325C10.5451 17.7 10.5451 17.6805 10.5516 17.6544C10.5581 17.6414 10.5581 17.6219 10.5646 17.6024C10.5777 17.5373 10.5972 17.4787 10.6102 17.4136C10.6102 17.4071 10.6102 17.4006 10.6167 17.4006C10.6297 17.342 10.6492 17.2834 10.6688 17.2248C10.8119 16.7822 11.0527 16.3591 11.3912 15.9686C14.6518 12.1478 25.8914 12.5383 36.4803 16.8408C45.9887 20.6941 51.7485 26.4156 50.4273 30.308Z" fill="url(#paint14_linear_3775_8348)"/>
<path opacity="0.4" d="M10.6621 19.6137C10.6296 19.503 10.5971 19.3924 10.5775 19.2882C10.5905 19.3208 10.5971 19.3468 10.6036 19.3793C10.6231 19.4574 10.6361 19.5355 10.6621 19.6137Z" fill="url(#paint15_linear_3775_8348)"/>
<path opacity="0.4" d="M11.3264 21.1237C11.2873 21.0521 11.2483 20.987 11.2157 20.9219C11.1767 20.8503 11.1441 20.7852 11.105 20.7136C11.1701 20.8503 11.2418 20.987 11.3264 21.1237Z" fill="url(#paint16_linear_3775_8348)"/>
<path opacity="0.4" d="M17.3137 26.8777C17.2225 26.8191 17.1314 26.7606 17.0403 26.6955C16.8386 26.5588 16.6303 26.4221 16.4415 26.2854C16.7214 26.4807 17.0143 26.6825 17.3137 26.8777Z" fill="url(#paint17_linear_3775_8348)"/>
<path opacity="0.4" d="M19.2005 28.0364C18.9532 27.8932 18.7123 27.7565 18.478 27.6133C18.5887 27.6784 18.6993 27.7435 18.8035 27.802C18.9336 27.8867 19.0703 27.9583 19.2005 28.0364Z" fill="url(#paint18_linear_3775_8348)"/>
<path opacity="0.4" d="M36.2593 33.8293C36.1031 33.8032 35.9404 33.7837 35.7777 33.7577C35.9013 33.7707 36.025 33.7902 36.1487 33.8098C36.1812 33.8163 36.2267 33.8163 36.2593 33.8293Z" fill="url(#paint19_linear_3775_8348)"/>
<path opacity="0.4" d="M47.1473 33.224C47.0757 33.2565 46.9911 33.2826 46.913 33.3086C46.8219 33.3412 46.7307 33.3737 46.6331 33.4062C46.8088 33.3542 46.9781 33.2891 47.1473 33.224Z" fill="url(#paint20_linear_3775_8348)"/>
<path opacity="0.4" d="M50.4278 30.308C50.4147 30.3406 50.4082 30.3733 50.3951 30.4059C50.3886 30.419 50.3821 30.4386 50.3821 30.4516C50.369 30.4647 50.369 30.4843 50.3559 30.4973C50.382 30.432 50.4016 30.3733 50.4278 30.308Z" fill="url(#paint21_linear_3775_8348)"/>
</g>
<path d="M53.9348 17.7585C53.8958 17.8561 53.8503 17.9538 53.8047 18.0449C53.7852 18.0774 53.7721 18.1165 53.7526 18.149C53.681 18.2727 53.6095 18.3964 53.5183 18.5135C53.4533 18.6112 53.3751 18.7023 53.297 18.7934C53.1799 18.9236 53.0562 19.0538 52.9261 19.1775C52.8545 19.2425 52.7829 19.3011 52.7113 19.3597C52.6658 19.3988 52.6202 19.4378 52.5681 19.4769C52.477 19.5485 52.3794 19.6136 52.2818 19.6786C52.2427 19.7047 52.2037 19.7372 52.1646 19.7633C52.0214 19.8544 51.8783 19.939 51.7221 20.0236C51.6895 20.0432 51.657 20.0562 51.6244 20.0757C51.5008 20.1408 51.3771 20.2059 51.247 20.2645C51.1819 20.297 51.1103 20.323 51.0387 20.3556C50.9346 20.4011 50.8304 20.4467 50.7263 20.4858C50.6482 20.5183 50.5701 20.5443 50.492 20.5704C50.3879 20.6094 50.2838 20.6485 50.1731 20.681C50.069 20.7136 49.9649 20.7461 49.8607 20.7722C49.7631 20.7982 49.6655 20.8307 49.5613 20.8568C49.4572 20.8828 49.3401 20.9089 49.2359 20.9349C49.1318 20.9609 49.0277 20.987 48.9236 21.0065C48.7543 21.039 48.5851 21.0716 48.4094 21.1041C48.3378 21.1171 48.2727 21.1302 48.2011 21.1432C47.9538 21.1822 47.7 21.2213 47.4462 21.2538C47.4267 21.2538 47.4006 21.2603 47.3811 21.2603C47.0882 21.2929 46.7889 21.3254 46.4895 21.345C46.4049 21.3515 46.3138 21.358 46.2226 21.3645C45.9298 21.384 45.6369 21.397 45.3375 21.4035C45.292 21.4035 45.2529 21.41 45.2074 21.41C44.8429 21.4166 44.4655 21.4166 44.088 21.41C43.9969 21.41 43.9057 21.4035 43.8146 21.4035C43.4306 21.397 43.0336 21.3775 42.6366 21.358C42.6301 21.358 42.6236 21.358 42.6236 21.358C42.2266 21.3319 41.8231 21.2994 41.4131 21.2603C41.3155 21.2538 41.2243 21.2408 41.1267 21.2343C40.7167 21.1887 40.3002 21.1432 39.8837 21.0846C39.8316 21.0781 39.7796 21.0716 39.734 21.0651C39.35 21.013 38.9595 20.9479 38.569 20.8828C38.4714 20.8698 38.3803 20.8503 38.2826 20.8373C37.8531 20.7591 37.4236 20.681 36.9875 20.5899C36.9094 20.5769 36.8313 20.5574 36.7532 20.5378C36.3693 20.4532 35.9788 20.3686 35.5883 20.2775C35.4972 20.258 35.4125 20.2384 35.3214 20.2124C34.8789 20.1082 34.4363 19.9911 33.9938 19.8674C33.8896 19.8414 33.779 19.8088 33.6749 19.7763C33.369 19.6917 33.0631 19.6005 32.7572 19.5094C32.6401 19.4769 32.5229 19.4378 32.4123 19.4053C32.0088 19.2816 31.6053 19.1514 31.1953 19.0147C31.1888 19.0147 31.1822 19.0082 31.1757 19.0082C30.4793 18.7739 29.783 18.5266 29.0931 18.2532C28.8002 18.1425 28.5139 18.0254 28.221 17.9082C27.8826 17.7715 27.5506 17.6283 27.2187 17.4851C27.1536 17.4591 27.0886 17.4265 27.0235 17.4005C26.4898 17.1662 25.9757 16.9318 25.468 16.6845C25.4094 16.6585 25.3509 16.6259 25.2923 16.5999C24.8042 16.3591 24.3291 16.1182 23.867 15.8709C23.7629 15.8123 23.6588 15.7602 23.5611 15.7016C23.4245 15.6235 23.2813 15.5519 23.1511 15.4738C23.034 15.4087 22.9168 15.3436 22.7997 15.272C22.663 15.1939 22.5329 15.1158 22.4027 15.0442C22.2921 14.9791 22.1879 14.914 22.0773 14.849C21.9276 14.7578 21.7844 14.6732 21.6412 14.5821C21.5371 14.517 21.4395 14.4519 21.3353 14.3933C21.1922 14.3022 21.049 14.2111 20.9123 14.1199C20.8212 14.0614 20.7301 13.9963 20.639 13.9377C20.4372 13.801 20.2355 13.6643 20.0402 13.5211C20.0012 13.4886 19.9556 13.4625 19.9166 13.4365C19.6823 13.2673 19.4545 13.098 19.2332 12.9288C19.1876 12.8963 19.1421 12.8572 19.0965 12.8247C18.8557 12.6424 18.6279 12.4536 18.4067 12.2714C18.3611 12.2323 18.309 12.1933 18.2635 12.1542C18.0227 11.9524 17.7884 11.7442 17.5671 11.5424C17.4955 11.4773 17.4304 11.4122 17.3588 11.3471C17.2742 11.2625 17.1896 11.1844 17.105 11.0998C17.0334 11.0282 16.9618 10.9566 16.8902 10.885C16.8121 10.8004 16.734 10.7222 16.656 10.6376C16.5909 10.566 16.5193 10.4944 16.4542 10.4228C16.3826 10.3447 16.311 10.2601 16.2394 10.182C16.1743 10.1104 16.1158 10.0388 16.0572 9.96719C15.9921 9.88909 15.9205 9.80447 15.8619 9.72636C15.8034 9.65476 15.7513 9.58316 15.6928 9.51157C15.6342 9.43346 15.5691 9.34884 15.517 9.27073C15.465 9.19913 15.4129 9.12753 15.3673 9.05593C15.3153 8.97782 15.2567 8.89972 15.2111 8.8151C15.1656 8.7435 15.12 8.6719 15.0745 8.6003C15.0289 8.52219 14.9768 8.44409 14.9313 8.36598C14.8922 8.29438 14.8532 8.22929 14.8141 8.15769C14.7686 8.07958 14.7295 8.00147 14.6905 7.92336C14.6579 7.85827 14.6254 7.78668 14.5929 7.72159C14.5538 7.64348 14.5213 7.56537 14.4952 7.48726C14.4692 7.42217 14.4367 7.35057 14.4106 7.28548C14.3846 7.20737 14.3586 7.12926 14.3325 7.05115C14.313 6.98606 14.287 6.92097 14.2675 6.85588C14.2479 6.77778 14.2284 6.69967 14.2089 6.62156C14.1958 6.55647 14.1763 6.49138 14.1633 6.4328C14.1503 6.35469 14.1373 6.27658 14.1243 6.19847C14.1177 6.13989 14.1047 6.0748 14.0982 6.01622C14.0917 5.93811 14.0852 5.86 14.0852 5.7819C14.0852 5.72331 14.0787 5.66474 14.0787 5.60615C14.0787 5.52805 14.0852 5.44343 14.0852 5.36532C14.0852 5.31325 14.0852 5.26118 14.0917 5.2091C14.0982 5.12449 14.1178 5.03987 14.1308 4.94874C14.1373 4.90318 14.1438 4.86413 14.1503 4.81856C14.1763 4.68838 14.2089 4.56471 14.2479 4.44104L11.4038 13.072C11.3648 13.1957 11.3322 13.3193 11.3062 13.4495C11.2997 13.4951 11.2932 13.5341 11.2867 13.5797C11.2737 13.6643 11.2542 13.7489 11.2476 13.8401C11.2411 13.8921 11.2411 13.9442 11.2411 13.9963C11.2346 14.0744 11.2346 14.1525 11.2346 14.2371C11.2346 14.2957 11.2411 14.3543 11.2411 14.4129C11.2476 14.491 11.2477 14.5691 11.2542 14.6472C11.2607 14.7058 11.2737 14.7709 11.2802 14.8294C11.2932 14.9075 11.2997 14.9856 11.3192 15.0572C11.3322 15.1223 11.3518 15.1874 11.3648 15.246C11.3843 15.3241 11.4039 15.4022 11.4234 15.4803C11.4429 15.5454 11.4624 15.6105 11.4884 15.6756C11.5145 15.7537 11.5405 15.8318 11.5665 15.9099C11.5926 15.975 11.6186 16.0466 11.6446 16.1117C11.6772 16.1898 11.7097 16.2679 11.7488 16.346C11.7813 16.4111 11.8138 16.4827 11.8464 16.5478C11.8854 16.6259 11.9245 16.704 11.97 16.7821C12.0091 16.8537 12.0481 16.9188 12.0872 16.9904C12.1327 17.0685 12.1783 17.1466 12.2304 17.2313C12.2759 17.3029 12.3215 17.3745 12.367 17.4395C12.4191 17.5177 12.4712 17.6023 12.5297 17.6804C12.5753 17.752 12.6274 17.8236 12.6795 17.8887C12.738 17.9668 12.7966 18.0514 12.8617 18.1295C12.9137 18.2011 12.9723 18.2727 13.0309 18.3443C13.096 18.4224 13.161 18.507 13.2326 18.5851C13.2912 18.6567 13.3498 18.7283 13.4149 18.7999C13.4865 18.8845 13.558 18.9627 13.6361 19.0473C13.7012 19.1189 13.7663 19.1905 13.8314 19.2621C13.9095 19.3467 13.9876 19.4248 14.0722 19.5094C14.1438 19.581 14.2089 19.6526 14.287 19.7242C14.3716 19.8088 14.4562 19.8869 14.5408 19.9716C14.5929 20.0171 14.6384 20.0627 14.684 20.1148C14.7035 20.1343 14.723 20.1473 14.7425 20.1668C14.9638 20.3751 15.1981 20.5769 15.4389 20.7852C15.4845 20.8242 15.53 20.8633 15.5821 20.9023C15.8034 21.0911 16.0377 21.2734 16.2785 21.4556C16.311 21.4816 16.337 21.5012 16.3631 21.5272C16.3761 21.5402 16.3956 21.5467 16.4086 21.5598C16.6299 21.729 16.8577 21.8982 17.092 22.0675C17.131 22.0935 17.1701 22.126 17.2156 22.1521C17.4109 22.2888 17.6126 22.432 17.8209 22.5687C17.8534 22.5882 17.8795 22.6077 17.9055 22.6272C17.9641 22.6663 18.0292 22.7053 18.0943 22.7509C18.2309 22.842 18.3741 22.9332 18.5173 23.0243C18.6149 23.0894 18.7191 23.1545 18.8232 23.213C18.9664 23.3042 19.116 23.3953 19.2592 23.4799C19.3178 23.5125 19.3699 23.5515 19.435 23.5841C19.487 23.6101 19.5326 23.6426 19.5846 23.6687C19.7148 23.7468 19.8515 23.8249 19.9816 23.903C20.0988 23.9681 20.2159 24.0332 20.3331 24.0983C20.4698 24.1764 20.6064 24.248 20.7496 24.3261C20.8277 24.3716 20.9058 24.4107 20.9839 24.4563C21.0099 24.4693 21.036 24.4823 21.062 24.4953C21.5241 24.7427 21.9992 24.9835 22.4938 25.2243C22.5263 25.2439 22.5589 25.2569 22.5979 25.2764C22.624 25.2894 22.65 25.2959 22.6695 25.3089C23.1771 25.5498 23.6913 25.7906 24.225 26.0249C24.2575 26.038 24.29 26.0575 24.3291 26.0705C24.3616 26.0835 24.3942 26.0965 24.4202 26.1096C24.7521 26.2528 25.084 26.396 25.4225 26.5326C25.6958 26.6433 25.9692 26.7539 26.2425 26.8581C26.262 26.8646 26.2751 26.8711 26.2946 26.8776C26.991 27.1445 27.6808 27.3983 28.3772 27.6262C28.3837 27.6262 28.3902 27.6327 28.3902 27.6327H28.3967C28.8002 27.7694 29.2037 27.8995 29.6137 28.0232C29.7309 28.0558 29.848 28.0948 29.9587 28.1274C30.2646 28.2185 30.5704 28.3096 30.8763 28.3942C30.9479 28.4137 31.0195 28.4398 31.0911 28.4593C31.1236 28.4723 31.1627 28.4788 31.1953 28.4853C31.6378 28.609 32.0804 28.7197 32.5229 28.8303C32.614 28.8499 32.6986 28.8694 32.7897 28.8954C33.1802 28.9865 33.5707 29.0777 33.9547 29.1558C34.0328 29.1753 34.1109 29.1883 34.189 29.2078C34.6251 29.299 35.0546 29.3771 35.4841 29.4552C35.5818 29.4747 35.6729 29.4877 35.7705 29.5008C36.161 29.5658 36.5515 29.6244 36.9354 29.683C36.9875 29.6895 37.0396 29.696 37.0852 29.7025C37.5017 29.7611 37.9182 29.8067 38.3282 29.8522C38.4258 29.8653 38.5235 29.8718 38.6146 29.8783C39.0246 29.9173 39.4281 29.9499 39.8251 29.9759C39.8316 29.9759 39.8381 29.9759 39.8381 29.9759C40.2351 30.0019 40.6321 30.015 41.0161 30.0215C41.1072 30.0215 41.1983 30.028 41.2894 30.028C41.6669 30.0345 42.0444 30.0345 42.4089 30.028C42.4154 30.028 42.4284 30.028 42.4349 30.028C42.4674 30.028 42.5065 30.0215 42.539 30.0215C42.8384 30.015 43.1313 29.9954 43.4241 29.9824C43.5152 29.9759 43.5998 29.9694 43.6909 29.9629C43.9968 29.9369 44.2962 29.9108 44.5826 29.8783C44.6021 29.8783 44.6216 29.8783 44.6346 29.8718C44.6412 29.8718 44.6412 29.8718 44.6477 29.8718C44.908 29.8392 45.1553 29.8002 45.4026 29.7611C45.4742 29.7481 45.5393 29.7351 45.6109 29.7221C45.7866 29.6895 45.9558 29.657 46.125 29.6244C46.1445 29.6179 46.1706 29.6179 46.1966 29.6114C46.2812 29.5919 46.3593 29.5724 46.4374 29.5528C46.5481 29.5268 46.6587 29.5008 46.7628 29.4747C46.867 29.4487 46.9646 29.4161 47.0622 29.3901C47.1663 29.3576 47.2705 29.3315 47.3746 29.299C47.4006 29.2925 47.4202 29.286 47.4462 29.2794C47.5308 29.2534 47.6089 29.2209 47.6935 29.1883C47.7716 29.1623 47.8497 29.1363 47.9278 29.1037C48.0384 29.0647 48.136 29.0191 48.2402 28.9735C48.3118 28.941 48.3834 28.9149 48.4484 28.8824C48.4614 28.8759 48.468 28.8759 48.481 28.8694C48.5982 28.8173 48.7153 28.7522 48.8259 28.6936C48.8585 28.6741 48.8975 28.6611 48.9236 28.6416C49.0732 28.5635 49.2164 28.4788 49.3531 28.3877C49.3596 28.3877 49.3596 28.3812 49.3661 28.3812C49.4052 28.3552 49.4442 28.3226 49.4832 28.2966C49.5809 28.2315 49.6785 28.1664 49.7696 28.0948C49.8217 28.0558 49.8607 28.0167 49.9128 27.9776C49.9779 27.9256 50.0364 27.88 50.095 27.8214C50.108 27.8084 50.1145 27.8019 50.1276 27.7889C50.2577 27.6652 50.3879 27.5415 50.4985 27.4049C50.5766 27.3137 50.6417 27.2291 50.7133 27.138C50.7133 27.1315 50.7198 27.1315 50.7198 27.125C50.8044 27.0078 50.8825 26.8841 50.9541 26.7605C50.9736 26.7279 50.9866 26.6954 51.0061 26.6563C51.0517 26.5587 51.0973 26.4676 51.1363 26.3699C51.1428 26.3504 51.1558 26.3244 51.1688 26.3048C51.1884 26.2528 51.2079 26.2007 51.2209 26.1551L54.065 17.5242C53.9934 17.6153 53.9674 17.6869 53.9348 17.7585Z" fill="url(#paint22_linear_3775_8348)"/>
<path d="M40.0334 4.08308C50.6222 8.38554 56.5642 14.9792 53.297 18.8C50.0299 22.6208 38.7968 22.2302 28.208 17.9278C17.6192 13.6253 11.6772 7.03166 14.9443 3.21087C18.2114 -0.616433 29.4445 -0.225894 40.0334 4.08308Z" fill="url(#paint23_linear_3775_8348)"/>
<defs>
<linearGradient id="paint0_linear_3775_8348" x1="0.861155" y1="41.3369" x2="43.6567" y2="41.4751" gradientUnits="userSpaceOnUse">
<stop offset="0.18" stop-color="#0B3327"/>
<stop offset="0.3189" stop-color="#0D382B"/>
<stop offset="0.4746" stop-color="#144535"/>
<stop offset="0.6384" stop-color="#1F5C46"/>
<stop offset="0.8078" stop-color="#2E7B5E"/>
<stop offset="0.98" stop-color="#41A37D"/>
<stop offset="1" stop-color="#44A881"/>
</linearGradient>
<linearGradient id="paint1_linear_3775_8348" x1="43.6563" y1="41.7075" x2="43.6861" y2="41.7076" gradientUnits="userSpaceOnUse">
<stop offset="0.18" stop-color="#0B3327"/>
<stop offset="0.3189" stop-color="#0D382B"/>
<stop offset="0.4746" stop-color="#144535"/>
<stop offset="0.6384" stop-color="#1F5C46"/>
<stop offset="0.8078" stop-color="#2E7B5E"/>
<stop offset="0.98" stop-color="#41A37D"/>
<stop offset="1" stop-color="#44A881"/>
</linearGradient>
<linearGradient id="paint2_linear_3775_8348" x1="18.2365" y1="27.6972" x2="19.4107" y2="27.9495" gradientUnits="userSpaceOnUse">
<stop stop-color="#09453D"/>
<stop offset="0.0581" stop-color="#0E4E43"/>
<stop offset="0.5051" stop-color="#348E6F"/>
<stop offset="0.8312" stop-color="#4CB68B"/>
<stop offset="1" stop-color="#55C595"/>
</linearGradient>
<linearGradient id="paint3_linear_3775_8348" x1="30.82" y1="32.7554" x2="32.2197" y2="33.0561" gradientUnits="userSpaceOnUse">
<stop stop-color="#09453D"/>
<stop offset="0.0581" stop-color="#0E4E43"/>
<stop offset="0.5051" stop-color="#348E6F"/>
<stop offset="0.8312" stop-color="#4CB68B"/>
<stop offset="1" stop-color="#55C595"/>
</linearGradient>
<linearGradient id="paint4_linear_3775_8348" x1="35.6512" y1="33.7138" x2="36.3668" y2="33.8676" gradientUnits="userSpaceOnUse">
<stop stop-color="#09453D"/>
<stop offset="0.0581" stop-color="#0E4E43"/>
<stop offset="0.5051" stop-color="#348E6F"/>
<stop offset="0.8312" stop-color="#4CB68B"/>
<stop offset="1" stop-color="#55C595"/>
</linearGradient>
<linearGradient id="paint5_linear_3775_8348" x1="-8.06012" y1="29.6028" x2="53.1628" y2="42.7588" gradientUnits="userSpaceOnUse">
<stop stop-color="#09453D"/>
<stop offset="0.0581" stop-color="#0E4E43"/>
<stop offset="0.5051" stop-color="#348E6F"/>
<stop offset="0.8312" stop-color="#4CB68B"/>
<stop offset="1" stop-color="#55C595"/>
</linearGradient>
<linearGradient id="paint6_linear_3775_8348" x1="43.6096" y1="41.8131" x2="43.646" y2="41.821" gradientUnits="userSpaceOnUse">
<stop stop-color="#09453D"/>
<stop offset="0.0581" stop-color="#0E4E43"/>
<stop offset="0.5051" stop-color="#348E6F"/>
<stop offset="0.8312" stop-color="#4CB68B"/>
<stop offset="1" stop-color="#55C595"/>
</linearGradient>
<linearGradient id="paint7_linear_3775_8348" x1="7.62138" y1="29.9496" x2="50.3821" y2="30.0877" gradientUnits="userSpaceOnUse">
<stop stop-color="#3C4742"/>
<stop offset="0.1556" stop-color="#404B46"/>
<stop offset="0.3247" stop-color="#4C5953"/>
<stop offset="0.5004" stop-color="#5F6E67"/>
<stop offset="0.6806" stop-color="#7B8D84"/>
<stop offset="0.8623" stop-color="#9EB3A9"/>
<stop offset="1" stop-color="#BDD6CA"/>
</linearGradient>
<linearGradient id="paint8_linear_3775_8348" x1="10.5819" y1="19.4532" x2="10.6665" y2="19.4535" gradientUnits="userSpaceOnUse">
<stop stop-color="#3C4742"/>
<stop offset="0.1556" stop-color="#404B46"/>
<stop offset="0.3247" stop-color="#4C5953"/>
<stop offset="0.5004" stop-color="#5F6E67"/>
<stop offset="0.6806" stop-color="#7B8D84"/>
<stop offset="0.8623" stop-color="#9EB3A9"/>
<stop offset="1" stop-color="#BDD6CA"/>
</linearGradient>
<linearGradient id="paint9_linear_3775_8348" x1="18.4776" y1="27.8259" x2="19.2043" y2="27.8283" gradientUnits="userSpaceOnUse">
<stop stop-color="#3C4742"/>
<stop offset="0.1556" stop-color="#404B46"/>
<stop offset="0.3247" stop-color="#4C5953"/>
<stop offset="0.5004" stop-color="#5F6E67"/>
<stop offset="0.6806" stop-color="#7B8D84"/>
<stop offset="0.8623" stop-color="#9EB3A9"/>
<stop offset="1" stop-color="#BDD6CA"/>
</linearGradient>
<linearGradient id="paint10_linear_3775_8348" x1="35.7779" y1="33.7926" x2="36.2606" y2="33.7941" gradientUnits="userSpaceOnUse">
<stop stop-color="#3C4742"/>
<stop offset="0.1556" stop-color="#404B46"/>
<stop offset="0.3247" stop-color="#4C5953"/>
<stop offset="0.5004" stop-color="#5F6E67"/>
<stop offset="0.6806" stop-color="#7B8D84"/>
<stop offset="0.8623" stop-color="#9EB3A9"/>
<stop offset="1" stop-color="#BDD6CA"/>
</linearGradient>
<linearGradient id="paint11_linear_3775_8348" x1="43.4804" y1="41.9432" x2="43.6546" y2="41.9438" gradientUnits="userSpaceOnUse">
<stop stop-color="#3C4742"/>
<stop offset="0.1556" stop-color="#404B46"/>
<stop offset="0.3247" stop-color="#4C5953"/>
<stop offset="0.5004" stop-color="#5F6E67"/>
<stop offset="0.6806" stop-color="#7B8D84"/>
<stop offset="0.8623" stop-color="#9EB3A9"/>
<stop offset="1" stop-color="#BDD6CA"/>
</linearGradient>
<linearGradient id="paint12_linear_3775_8348" x1="43.6552" y1="41.7074" x2="43.6849" y2="41.7075" gradientUnits="userSpaceOnUse">
<stop stop-color="#3C4742"/>
<stop offset="0.1556" stop-color="#404B46"/>
<stop offset="0.3247" stop-color="#4C5953"/>
<stop offset="0.5004" stop-color="#5F6E67"/>
<stop offset="0.6806" stop-color="#7B8D84"/>
<stop offset="0.8623" stop-color="#9EB3A9"/>
<stop offset="1" stop-color="#BDD6CA"/>
</linearGradient>
<linearGradient id="paint13_linear_3775_8348" x1="50.3559" y1="30.4055" x2="50.4308" y2="30.4057" gradientUnits="userSpaceOnUse">
<stop stop-color="#3C4742"/>
<stop offset="0.1556" stop-color="#404B46"/>
<stop offset="0.3247" stop-color="#4C5953"/>
<stop offset="0.5004" stop-color="#5F6E67"/>
<stop offset="0.6806" stop-color="#7B8D84"/>
<stop offset="0.8623" stop-color="#9EB3A9"/>
<stop offset="1" stop-color="#BDD6CA"/>
</linearGradient>
<linearGradient id="paint14_linear_3775_8348" x1="10.4548" y1="23.6782" x2="50.6365" y2="23.808" gradientUnits="userSpaceOnUse">
<stop stop-color="#E8FFF5"/>
<stop offset="1" stop-color="#BDD6CA"/>
</linearGradient>
<linearGradient id="paint15_linear_3775_8348" x1="10.5819" y1="19.4533" x2="10.6665" y2="19.4536" gradientUnits="userSpaceOnUse">
<stop stop-color="#E8FFF5"/>
<stop offset="1" stop-color="#BDD6CA"/>
</linearGradient>
<linearGradient id="paint16_linear_3775_8348" x1="11.105" y1="20.9182" x2="11.3291" y2="20.919" gradientUnits="userSpaceOnUse">
<stop stop-color="#E8FFF5"/>
<stop offset="1" stop-color="#BDD6CA"/>
</linearGradient>
<linearGradient id="paint17_linear_3775_8348" x1="16.4416" y1="26.58" x2="17.3176" y2="26.5829" gradientUnits="userSpaceOnUse">
<stop stop-color="#E8FFF5"/>
<stop offset="1" stop-color="#BDD6CA"/>
</linearGradient>
<linearGradient id="paint18_linear_3775_8348" x1="18.4775" y1="27.826" x2="19.2042" y2="27.8284" gradientUnits="userSpaceOnUse">
<stop stop-color="#E8FFF5"/>
<stop offset="1" stop-color="#BDD6CA"/>
</linearGradient>
<linearGradient id="paint19_linear_3775_8348" x1="35.7787" y1="33.7926" x2="36.2614" y2="33.7941" gradientUnits="userSpaceOnUse">
<stop stop-color="#E8FFF5"/>
<stop offset="1" stop-color="#BDD6CA"/>
</linearGradient>
<linearGradient id="paint20_linear_3775_8348" x1="46.6345" y1="33.3175" x2="47.1471" y2="33.3192" gradientUnits="userSpaceOnUse">
<stop stop-color="#E8FFF5"/>
<stop offset="1" stop-color="#BDD6CA"/>
</linearGradient>
<linearGradient id="paint21_linear_3775_8348" x1="50.3567" y1="30.4056" x2="50.4316" y2="30.4058" gradientUnits="userSpaceOnUse">
<stop stop-color="#E8FFF5"/>
<stop offset="1" stop-color="#BDD6CA"/>
</linearGradient>
<linearGradient id="paint22_linear_3775_8348" x1="11.2015" y1="17.207" x2="54.0227" y2="17.3453" gradientUnits="userSpaceOnUse">
<stop offset="0.18" stop-color="#0B3327"/>
<stop offset="0.3189" stop-color="#0D382B"/>
<stop offset="0.4746" stop-color="#144535"/>
<stop offset="0.6384" stop-color="#1F5C46"/>
<stop offset="0.8078" stop-color="#2E7B5E"/>
<stop offset="0.98" stop-color="#41A37D"/>
<stop offset="1" stop-color="#44A881"/>
</linearGradient>
<linearGradient id="paint23_linear_3775_8348" x1="2.53551" y1="4.21187" x2="63.838" y2="17.3851" gradientUnits="userSpaceOnUse">
<stop stop-color="#09453D"/>
<stop offset="0.0581" stop-color="#0E4E43"/>
<stop offset="0.5051" stop-color="#348E6F"/>
<stop offset="0.8312" stop-color="#4CB68B"/>
<stop offset="1" stop-color="#55C595"/>
</linearGradient>
</defs>
</svg>
