<svg width="97" height="81" viewBox="0 0 97 81" fill="none" xmlns="http://www.w3.org/2000/svg">
<path d="M61.9453 28.8249C63.4552 28.7923 64.2297 29.8663 63.683 31.3699L55.346 54.6071C54.7602 56.2474 52.8403 57.777 51.0636 58.0243L25.8379 61.5717C24.0611 61.8191 23.0914 60.6995 23.6837 59.0593L32.0206 35.8221C32.5608 34.3185 34.2269 32.8995 35.8735 32.4894L36.7261 30.1137C37.8194 27.0739 40.0517 24.1189 42.8438 21.7105C43.3384 21.2874 43.846 20.8774 44.3732 20.4933C47.3474 18.2998 50.7707 16.7376 54.0769 16.2755C57.3831 15.8133 59.9928 16.5228 61.6199 18.072C61.9062 18.3453 62.1666 18.6448 62.3878 18.9702C63.6569 20.8058 63.8977 23.4094 62.8044 26.4556L61.9453 28.8249ZM57.9297 38.5363L59.2249 34.9303C59.5633 33.98 59.3876 33.2054 58.8279 32.7693C58.5155 32.522 58.0859 32.3853 57.5653 32.3788C57.4091 32.3788 57.2399 32.3918 57.0641 32.4113L55.5803 32.6196L40.0257 34.8067L38.5418 35.0149C38.3661 35.041 38.1904 35.0735 38.0147 35.1256C37.4354 35.2818 36.8562 35.5617 36.3291 35.9262C35.3854 36.5706 34.5979 37.4819 34.2595 38.4322L32.9643 42.0382L28.1353 55.4923C27.5495 57.1326 28.5127 58.2587 30.2895 58.0048L41.3273 56.4557L42.7071 52.6088C42.0172 52.5242 41.6853 51.9709 41.9586 51.2094C42.284 50.3046 43.3449 49.4585 44.3211 49.3218C45.3038 49.1851 45.8375 49.8034 45.5121 50.7082C45.2388 51.4632 44.4513 52.1792 43.6312 52.4721L42.2515 56.319L44.3602 56.0196L46.8528 49.0744C46.1629 48.9898 45.831 48.4365 46.1044 47.6815C46.4298 46.7767 47.4906 45.9306 48.4733 45.7939C49.4561 45.6572 49.9897 46.2755 49.6643 47.1803C49.391 47.9353 48.6035 48.6513 47.7835 48.9442L45.2908 55.8894L46.7747 55.6811L48.7727 50.1094L51.1807 47.8507L51.9878 45.6051C51.2979 45.5205 50.966 44.9672 51.2393 44.2057C51.5647 43.3009 52.6256 42.4548 53.6018 42.3181C54.578 42.1814 55.1182 42.7997 54.7928 43.7045C54.5194 44.4595 53.732 45.1755 52.9119 45.4684L52.0008 48.0069L49.5927 50.2656L47.6989 55.5509L48.8118 55.3947C50.5885 55.1473 52.5084 53.6112 53.0942 51.9774L57.9297 38.5363ZM52.99 19.2826C47.6012 20.0377 41.7699 24.6916 39.9867 29.658C39.6938 30.4717 39.5311 31.2397 39.4855 31.9622L58.3528 29.313C58.8409 28.532 59.2444 27.7314 59.5373 26.9177C61.314 21.9448 58.3788 18.5211 52.99 19.2826ZM47.1912 48.1697C47.2954 48.2348 47.4385 48.2543 47.6078 48.2283C47.777 48.2022 47.9527 48.1371 48.1154 48.0395C48.4018 47.8638 48.6426 47.6034 48.7402 47.3235C48.8964 46.8874 48.6425 46.588 48.1674 46.6596C47.6989 46.7247 47.1847 47.1347 47.035 47.5643C46.9374 47.8377 47.0025 48.0655 47.1912 48.1697ZM52.3197 44.7004C52.4238 44.7589 52.567 44.785 52.7362 44.7589C52.9054 44.7329 53.0811 44.6678 53.2438 44.5702C53.5302 44.401 53.771 44.1341 53.8686 43.8542C54.0248 43.4246 53.771 43.1252 53.2959 43.1903C52.8273 43.2554 52.3197 43.6589 52.1635 44.095C52.0659 44.3749 52.1374 44.5962 52.3197 44.7004ZM43.0455 51.6911C43.1496 51.7561 43.2928 51.7757 43.462 51.7496C43.6312 51.7236 43.807 51.6585 43.9697 51.5609C44.256 51.3916 44.4968 51.1248 44.5945 50.8449C44.7507 50.4153 44.4968 50.1159 44.0217 50.181C43.5532 50.246 43.0455 50.6496 42.8893 51.0857C42.7917 51.3656 42.8633 51.5869 43.0455 51.6911Z" fill="url(#paint0_linear_3775_9162)"/>
<path d="M86.4414 0.738422L29.9894 8.67292C25.5964 9.29127 20.8519 13.073 19.4006 17.1216L0.741616 69.1222C-0.709708 73.1708 1.67228 75.9501 6.06531 75.3318L62.5173 67.3973C66.9103 66.7789 71.6548 62.9972 73.1061 58.9486L91.7651 6.94802C93.2229 2.89942 90.8409 0.120066 86.4414 0.738422ZM63.6822 31.3699L55.3453 54.607C54.7595 56.2473 52.8396 57.7769 51.0629 58.0243L25.8372 61.5717C24.0604 61.819 23.0907 60.6995 23.683 59.0592L32.0199 35.822C32.5601 34.3184 34.2262 32.8995 35.8728 32.4894L36.7254 30.1136C37.8187 27.0739 40.051 24.1188 42.8431 21.7105C43.3377 21.2874 43.8453 20.8773 44.3725 20.4933C47.3467 18.2997 50.77 16.7376 54.0762 16.2754C57.3823 15.8133 59.9921 16.5228 61.6192 18.0719C61.9055 18.3453 62.1658 18.6447 62.3871 18.9702C63.6562 20.8057 63.897 23.4093 62.8036 26.4555L61.9511 28.8313C63.4545 28.7923 64.2224 29.8663 63.6822 31.3699Z" fill="url(#paint1_linear_3775_9162)"/>
<path d="M47.6076 48.2282C47.7768 48.2021 47.9525 48.1371 48.1153 48.0394C48.4016 47.8637 48.6424 47.6033 48.74 47.3234C48.8962 46.8873 48.6424 46.5879 48.1673 46.6595C47.6987 46.7246 47.1846 47.1347 47.0349 47.5643C46.9373 47.8376 47.0023 48.0655 47.1911 48.1696C47.2952 48.2282 47.4384 48.2542 47.6076 48.2282Z" fill="url(#paint2_linear_3775_9162)"/>
<path d="M43.4619 51.756C43.6311 51.73 43.8068 51.6649 43.9695 51.5673C44.2559 51.398 44.4967 51.1312 44.5943 50.8513C44.7505 50.4217 44.4967 50.1223 44.0216 50.1874C43.553 50.2524 43.0454 50.656 42.8892 51.0921C42.7916 51.372 42.8566 51.5933 43.0454 51.6975C43.1495 51.756 43.2927 51.7756 43.4619 51.756Z" fill="url(#paint3_linear_3775_9162)"/>
<path d="M58.8274 32.7693C58.515 32.522 58.0854 32.3853 57.5648 32.3788C57.4086 32.3788 57.2394 32.3918 57.0636 32.4113L55.5798 32.6196L40.0252 34.8066L38.5413 35.0149C38.3656 35.041 38.1899 35.0735 38.0142 35.1256C37.4349 35.2818 36.8557 35.5617 36.3285 35.9262C35.3848 36.5706 34.5974 37.4884 34.2589 38.4322L32.9638 42.0382L28.1347 55.4923C27.549 57.1326 28.5122 58.2586 30.2889 58.0048L41.3268 56.4556L42.7066 52.6088C42.0167 52.5242 41.6848 51.9709 41.9581 51.2159C42.2835 50.3111 43.3444 49.465 44.3206 49.3283C45.3033 49.1916 45.837 49.8099 45.5116 50.7147C45.2383 51.4697 44.4508 52.1857 43.6307 52.4786L42.251 56.3255L44.3596 56.026L46.8523 49.0809C46.1624 48.9963 45.8305 48.443 46.1039 47.688C46.4293 46.7832 47.4901 45.9371 48.4728 45.8004C49.4556 45.6637 49.9892 46.282 49.6638 47.1868C49.3905 47.9418 48.603 48.6578 47.783 48.9507L45.2903 55.8959L46.7742 55.6876L48.7722 50.1159L51.1802 47.8572L51.9872 45.6116C51.2974 45.527 50.9655 44.9737 51.2388 44.2187C51.5642 43.3139 52.6251 42.4678 53.6013 42.3311C54.584 42.1944 55.1177 42.8127 54.7923 43.7175C54.5189 44.4725 53.7314 45.1885 52.9114 45.4814L52.0003 48.02L49.5922 50.2786L47.6983 55.5639L48.8112 55.4077C50.588 55.1603 52.5079 53.6242 53.0936 51.9904L57.9227 38.5363L59.2179 34.9303C59.5628 33.98 59.3806 33.2054 58.8274 32.7693Z" fill="url(#paint4_linear_3775_9162)"/>
<path d="M52.9899 19.2826C47.6011 20.0377 41.7698 24.6916 39.9865 29.658C39.6937 30.4716 39.531 31.2397 39.4854 31.9622L58.3527 29.313C58.8408 28.532 59.2443 27.7314 59.5372 26.9177C61.3139 21.9448 58.3787 18.5211 52.9899 19.2826Z" fill="url(#paint5_linear_3775_9162)"/>
<path d="M52.7357 44.7589C52.9049 44.7329 53.0806 44.6678 53.2433 44.5702C53.5297 44.401 53.7705 44.1341 53.8681 43.8542C54.0243 43.4246 53.7705 43.1252 53.2954 43.1903C52.8268 43.2554 52.3192 43.6589 52.163 44.095C52.0653 44.3749 52.1304 44.5962 52.3192 44.7004C52.4233 44.759 52.5665 44.785 52.7357 44.7589Z" fill="url(#paint6_linear_3775_9162)"/>
<path d="M96.2103 10.5801C96.2103 10.554 96.2168 10.528 96.2168 10.502C96.2168 10.4955 96.2168 10.4955 96.2168 10.489C96.2168 10.4759 96.2168 10.4694 96.2168 10.4629C96.2298 10.3262 96.2363 10.196 96.2363 10.0659C96.2363 10.0463 96.2363 10.0268 96.2363 10.0073C96.2363 9.99426 96.2363 9.97474 96.2363 9.96172C96.2363 9.83805 96.2298 9.72089 96.2233 9.59722C96.2233 9.59071 96.2233 9.59071 96.2233 9.5842C96.2168 9.46704 96.1973 9.34987 96.1777 9.23922C96.1777 9.2262 96.1777 9.21318 96.1712 9.20668C96.1647 9.18064 96.1582 9.16111 96.1582 9.14159C96.1452 9.06348 96.1257 8.99187 96.1126 8.91377C96.1061 8.89424 96.1062 8.87471 96.0997 8.85519C96.0931 8.84217 96.0866 8.82264 96.0866 8.80962C96.0671 8.73803 96.0411 8.66643 96.0216 8.59483C96.0151 8.5753 96.0085 8.54926 96.002 8.52974C96.002 8.52323 95.9955 8.51672 95.9955 8.51021C95.963 8.41258 95.9239 8.32145 95.8784 8.22381C95.8784 8.22381 95.8784 8.22381 95.8784 8.2173C95.8718 8.21079 95.8653 8.19778 95.8653 8.19127C95.8263 8.11316 95.7872 8.02854 95.7417 7.95043C95.7352 7.94393 95.7352 7.93091 95.7287 7.9244C95.7157 7.90487 95.7027 7.88535 95.6896 7.86582C95.6506 7.80724 95.618 7.74865 95.579 7.69007C95.5659 7.67705 95.5594 7.65753 95.5464 7.64451C95.5204 7.61197 95.4944 7.57291 95.4683 7.54037L91.4203 2.24854C91.4593 2.2941 91.4918 2.34617 91.5244 2.39824C91.5634 2.45682 91.6025 2.5154 91.635 2.57399C91.6545 2.60002 91.6676 2.63257 91.6871 2.6586C91.7326 2.73671 91.7717 2.81482 91.8107 2.89944C91.8173 2.91245 91.8238 2.91897 91.8303 2.93198C91.8693 3.02311 91.9084 3.12074 91.9474 3.21838C91.9604 3.24442 91.9669 3.27696 91.9734 3.303C91.9995 3.3746 92.019 3.44619 92.0385 3.51779C92.045 3.55034 92.0581 3.58939 92.0646 3.62845C92.0841 3.70005 92.0971 3.77815 92.1101 3.85626C92.1166 3.88881 92.1231 3.92135 92.1296 3.96041C92.1492 4.07106 92.1622 4.18822 92.1752 4.30538C92.1752 4.31189 92.1752 4.3184 92.1752 4.32491C92.1817 4.44208 92.1882 4.56574 92.1882 4.68942C92.1882 4.72196 92.1882 4.76102 92.1882 4.79356C92.1882 4.92374 92.1817 5.06043 92.1687 5.19061C92.1687 5.20363 92.1687 5.21665 92.1687 5.22967C92.1687 5.2557 92.1622 5.28174 92.1622 5.30778C92.1557 5.38588 92.1427 5.46399 92.1362 5.5421C92.1296 5.58115 92.1232 5.6202 92.1166 5.65926C92.1036 5.72435 92.0971 5.78944 92.0841 5.85453C92.0646 5.94566 92.0451 6.03678 92.0255 6.13442C92.019 6.16696 92.0125 6.19951 91.9995 6.23857C91.9669 6.36875 91.9279 6.49241 91.8888 6.62259C91.8563 6.73976 91.8173 6.85041 91.7717 6.96757L73.1127 58.9681C73.0672 59.0918 73.0216 59.2155 72.9696 59.3391C72.95 59.3782 72.937 59.4237 72.9175 59.4628C72.885 59.5474 72.8459 59.6255 72.8134 59.7036C72.7938 59.7557 72.7678 59.8013 72.7418 59.8468C72.7092 59.9184 72.6702 59.99 72.6376 60.0681C72.6116 60.1202 72.5856 60.1723 72.5531 60.2243C72.514 60.2959 72.4814 60.361 72.4424 60.4326C72.4098 60.4847 72.3838 60.5368 72.3513 60.5889C72.3122 60.6539 72.2732 60.7255 72.2341 60.7906C72.2016 60.8427 72.1691 60.8948 72.1365 60.9534C72.0975 61.0184 72.0519 61.0835 72.0129 61.1486C71.9803 61.2007 71.9413 61.2528 71.9087 61.3048C71.8632 61.3699 71.8241 61.435 71.7786 61.4936C71.7395 61.5457 71.7004 61.5977 71.6614 61.6498C71.6158 61.7084 71.5768 61.767 71.5313 61.8256C71.4727 61.9037 71.4141 61.9818 71.3555 62.0534C71.3165 62.0989 71.2774 62.151 71.2384 62.1966C71.1733 62.2812 71.1017 62.3593 71.0366 62.4374C71.0041 62.4765 70.9715 62.5155 70.939 62.5546C70.7893 62.7238 70.6396 62.893 70.4834 63.0558C70.4509 63.0883 70.4184 63.1209 70.3858 63.1534C70.2491 63.2966 70.1059 63.4398 69.9628 63.5765C69.9498 63.5895 69.9302 63.6025 69.9172 63.6155C69.7936 63.7327 69.6699 63.8434 69.5462 63.954C69.5007 63.9931 69.4617 64.0321 69.4161 64.0712C69.325 64.1493 69.2274 64.2339 69.1297 64.312C69.0842 64.3511 69.0386 64.3836 68.9996 64.4227C68.8954 64.5073 68.7848 64.5919 68.6807 64.6765C68.6481 64.696 68.6221 64.7221 68.5896 64.7481C68.4529 64.8523 68.3162 64.9499 68.1795 65.0475C68.1405 65.0736 68.108 65.0996 68.0689 65.1256C67.9648 65.1972 67.8671 65.2688 67.763 65.3339C67.7109 65.3665 67.6589 65.399 67.6068 65.4316C67.5157 65.4901 67.4246 65.5487 67.3335 65.6008C67.2814 65.6333 67.2228 65.6659 67.1708 65.6984C67.0797 65.7505 66.9885 65.8091 66.8909 65.8611C66.8389 65.8937 66.7803 65.9197 66.7282 65.9523C66.6241 66.0109 66.5135 66.0694 66.4093 66.1215C66.3638 66.141 66.3247 66.1671 66.2792 66.1866C66.1295 66.2647 65.9733 66.3363 65.8171 66.4079C65.791 66.4209 65.765 66.4339 65.7325 66.447C65.5958 66.5055 65.4591 66.5706 65.3224 66.6227C65.2769 66.6422 65.2248 66.6618 65.1793 66.6813C65.0296 66.7399 64.8864 66.7984 64.7367 66.8505C64.7042 66.8635 64.6716 66.8766 64.6391 66.8831C64.4438 66.9547 64.2486 67.0132 64.0468 67.0718C63.9883 67.0914 63.9362 67.1044 63.8776 67.1174C63.806 67.1369 63.7344 67.1564 63.6629 67.176C63.5978 67.1955 63.5262 67.2085 63.4611 67.228C63.3895 67.2476 63.3179 67.2606 63.2463 67.2736C63.1878 67.2866 63.1292 67.2996 63.0771 67.3062C62.8949 67.3452 62.7127 67.3778 62.5239 67.4038L6.07196 75.3383C3.77457 75.6637 2.03038 75.0584 1.0932 73.8282L5.14129 79.12C6.07847 80.3437 7.82917 80.9491 10.12 80.6301L66.572 72.6956C66.7543 72.6696 66.9365 72.637 67.1252 72.598C67.1447 72.5915 67.1708 72.5915 67.1903 72.585C67.2228 72.5785 67.2619 72.5719 67.2944 72.5589C67.366 72.5459 67.4376 72.5264 67.5092 72.5134C67.5808 72.5003 67.6459 72.4808 67.7174 72.4613C67.789 72.4418 67.8606 72.4222 67.9322 72.4027C67.9648 72.3897 68.0038 72.3832 68.0364 72.3767C68.0559 72.3702 68.0754 72.3637 68.1014 72.3572C68.2967 72.2986 68.4984 72.2335 68.6937 72.1684C68.7002 72.1684 68.7067 72.1619 68.7197 72.1619C68.7458 72.1554 68.7653 72.1423 68.7913 72.1358C68.941 72.0838 69.0842 72.0252 69.2339 71.9666C69.2599 71.9536 69.2859 71.9471 69.312 71.9341C69.3315 71.9276 69.3575 71.9145 69.3771 71.908C69.5137 71.8494 69.6504 71.7909 69.7871 71.7323C69.8066 71.7193 69.8326 71.7128 69.8521 71.7063C69.8587 71.7063 69.8652 71.6997 69.8652 71.6997C70.0214 71.6281 70.171 71.5565 70.3272 71.4784C70.3337 71.4719 70.3468 71.4719 70.3533 71.4654C70.3858 71.4459 70.4184 71.4264 70.4574 71.4133C70.5615 71.3548 70.6722 71.3027 70.7763 71.2441C70.7958 71.2311 70.8154 71.2246 70.8349 71.2116C70.8674 71.192 70.8999 71.1725 70.9325 71.153C71.0236 71.1009 71.1147 71.0488 71.2123 70.9903C71.2449 70.9707 71.2709 70.9577 71.3035 70.9382C71.3295 70.9252 71.3555 70.9056 71.3815 70.8926C71.4727 70.834 71.5638 70.782 71.6549 70.7234C71.6875 70.7039 71.7265 70.6778 71.759 70.6583C71.772 70.6453 71.7916 70.6388 71.8046 70.6258C71.9087 70.5607 72.0128 70.4891 72.1105 70.4175C72.143 70.3979 72.169 70.3784 72.2016 70.3524C72.2081 70.3459 72.2146 70.3459 72.2211 70.3394C72.3578 70.2417 72.4945 70.1441 72.6311 70.0399C72.6377 70.0334 72.6441 70.0334 72.6441 70.0269C72.6702 70.0074 72.6962 69.9879 72.7158 69.9683C72.8264 69.8837 72.9305 69.8056 73.0347 69.7145C73.0477 69.7015 73.0672 69.6884 73.0867 69.6754C73.1127 69.6494 73.1453 69.6299 73.1713 69.6038C73.2689 69.5257 73.36 69.4476 73.4511 69.363C73.4772 69.3435 73.5033 69.3174 73.5293 69.2979C73.5488 69.2849 73.5618 69.2654 73.5813 69.2458C73.705 69.1352 73.8286 69.0245 73.9523 68.9074C73.9653 68.8944 73.9783 68.8878 73.9913 68.8748L73.9978 68.8683C74.141 68.7316 74.2842 68.5884 74.4209 68.4452C74.4339 68.4257 74.4534 68.4127 74.4729 68.3997C74.486 68.3801 74.5055 68.3671 74.5185 68.3476C74.6747 68.1849 74.8309 68.0156 74.9741 67.8464C74.9806 67.8399 74.9871 67.8334 74.9871 67.8269C75.0131 67.7943 75.0457 67.7618 75.0717 67.7292C75.1433 67.6511 75.2084 67.5665 75.2735 67.4884C75.3125 67.4428 75.3516 67.3908 75.3906 67.3452C75.4492 67.2671 75.5077 67.1955 75.5663 67.1174C75.5858 67.0979 75.5989 67.0718 75.6184 67.0523C75.6444 67.0132 75.6704 66.9807 75.6965 66.9416C75.7355 66.8896 75.7746 66.8375 75.8136 66.7854C75.8592 66.7203 75.9047 66.6553 75.9438 66.5967C75.9828 66.5446 76.0154 66.4925 76.0479 66.4405C76.0935 66.3754 76.1326 66.3103 76.1716 66.2452C76.2041 66.1931 76.2367 66.141 76.2692 66.0825C76.3083 66.0174 76.3473 65.9523 76.3863 65.8807C76.4189 65.8286 76.4449 65.7765 76.4775 65.7245C76.5165 65.6529 76.5556 65.5878 76.5881 65.5162C76.6141 65.4641 76.6467 65.412 76.6727 65.36C76.7118 65.2884 76.7443 65.2168 76.7769 65.1386C76.8029 65.0931 76.8224 65.041 76.8484 64.9954C76.8875 64.9173 76.92 64.8327 76.9526 64.7546C76.9721 64.7156 76.9916 64.67 77.0046 64.6309C77.0567 64.5073 77.1023 64.3836 77.1478 64.2599L95.8068 12.2594C95.8458 12.1488 95.8849 12.0381 95.9174 11.9274C95.9174 11.9209 95.9174 11.9209 95.9174 11.9144C95.9565 11.7842 95.9955 11.6541 96.028 11.5304C96.0345 11.4978 96.0411 11.4653 96.0541 11.4262C96.0736 11.3351 96.0996 11.2375 96.1126 11.1464C96.1126 11.1333 96.1192 11.1138 96.1257 11.1008C96.1322 11.0487 96.1452 11.0032 96.1517 10.9511C96.1582 10.912 96.1647 10.873 96.1712 10.8339C96.1908 10.7363 96.2038 10.6582 96.2103 10.5801Z" fill="url(#paint7_linear_3775_9162)"/>
<defs>
<linearGradient id="paint0_linear_3775_9162" x1="24.3563" y1="72.3651" x2="56.4607" y2="27.2762" gradientUnits="userSpaceOnUse">
<stop stop-color="#09453D"/>
<stop offset="0.3356" stop-color="#216D58"/>
<stop offset="1" stop-color="#55C595"/>
</linearGradient>
<linearGradient id="paint1_linear_3775_9162" x1="-7.59185" y1="85.4422" x2="92.3341" y2="-2.50364" gradientUnits="userSpaceOnUse">
<stop stop-color="#1E1F28"/>
<stop offset="0.5019" stop-color="#40424C"/>
<stop offset="1" stop-color="#5E616B"/>
</linearGradient>
<linearGradient id="paint2_linear_3775_9162" x1="-2.21451" y1="91.5515" x2="97.711" y2="3.60486" gradientUnits="userSpaceOnUse">
<stop stop-color="#1E1F28"/>
<stop offset="0.5019" stop-color="#40424C"/>
<stop offset="1" stop-color="#5E616B"/>
</linearGradient>
<linearGradient id="paint3_linear_3775_9162" x1="-2.27541" y1="91.4817" x2="97.6505" y2="3.53667" gradientUnits="userSpaceOnUse">
<stop stop-color="#1E1F28"/>
<stop offset="0.5019" stop-color="#40424C"/>
<stop offset="1" stop-color="#5E616B"/>
</linearGradient>
<linearGradient id="paint4_linear_3775_9162" x1="-5.1562" y1="88.2095" x2="94.7698" y2="0.2635" gradientUnits="userSpaceOnUse">
<stop stop-color="#1E1F28"/>
<stop offset="0.5019" stop-color="#40424C"/>
<stop offset="1" stop-color="#5E616B"/>
</linearGradient>
<linearGradient id="paint5_linear_3775_9162" x1="-11.1257" y1="81.4265" x2="88.8004" y2="-6.51953" gradientUnits="userSpaceOnUse">
<stop stop-color="#1E1F28"/>
<stop offset="0.5019" stop-color="#40424C"/>
<stop offset="1" stop-color="#5E616B"/>
</linearGradient>
<linearGradient id="paint6_linear_3775_9162" x1="-1.69543" y1="92.1417" x2="98.2299" y2="4.19507" gradientUnits="userSpaceOnUse">
<stop stop-color="#1E1F28"/>
<stop offset="0.5019" stop-color="#40424C"/>
<stop offset="1" stop-color="#5E616B"/>
</linearGradient>
<linearGradient id="paint7_linear_3775_9162" x1="14.8991" y1="95.687" x2="90.0543" y2="14.9752" gradientUnits="userSpaceOnUse">
<stop/>
<stop offset="0.0949" stop-color="#070709"/>
<stop offset="0.4665" stop-color="#1E1F28"/>
<stop offset="0.775" stop-color="#3F4047"/>
<stop offset="1" stop-color="#525359"/>
</linearGradient>
</defs>
</svg>
