<svg width="91" height="75" viewBox="0 0 91 75" fill="none" xmlns="http://www.w3.org/2000/svg">
<path d="M64.8536 22.8285L31.5577 27.5085L28.961 27.873C26.6961 28.1919 24.2556 30.1447 23.5071 32.2275L23.2338 32.9826L22.5309 34.9353L17.474 49.0208L16.7777 50.9735L16.5108 51.7286C15.834 53.7659 17.0575 55.1458 19.2898 54.8334L55.1824 49.7889C57.4473 49.4699 59.8944 47.5237 60.6428 45.4343L70.314 18.474C69.5655 20.5569 67.1185 22.5096 64.8536 22.8285ZM43.0382 31.9281L37.8967 46.261C37.5323 47.2699 36.3543 48.2137 35.2609 48.3634L18.9514 50.6546L19.6543 48.7019L35.8271 46.4302L40.884 32.3447L24.7111 34.6164L25.414 32.6637L41.7235 30.3725C42.8104 30.2293 43.4026 30.9257 43.0382 31.9281ZM30.7312 40.468C31.3235 38.8147 33.2694 37.2655 35.0657 37.0117C36.8619 36.7578 37.8381 37.9034 37.2459 39.5567C36.6537 41.21 34.7077 42.7591 32.9114 43.013C31.1152 43.2603 30.1325 42.1212 30.7312 40.468Z" fill="url(#paint0_linear_3775_8626)"/>
<path d="M33.3024 41.913C34.4414 41.7502 35.6714 40.7674 36.0489 39.7194C36.4264 38.6715 35.8081 37.9489 34.6691 38.1052C33.5302 38.2679 32.3002 39.2508 31.9227 40.2987C31.5452 41.3467 32.1635 42.0692 33.3024 41.913Z" fill="url(#paint1_linear_3775_8626)"/>
<path d="M67.5673 15.2715C69.8321 14.9526 71.0622 16.3846 70.3137 18.474C69.5653 20.5634 67.1182 22.5096 64.8534 22.8285L31.5575 27.5085L34.2714 19.9515L67.5673 15.2715Z" fill="url(#paint2_linear_3775_8626)"/>
<path d="M32.912 43.0065C34.7082 42.7526 36.6542 41.2035 37.2464 39.5502C37.8387 37.8969 36.8624 36.7578 35.0662 37.0052C33.2699 37.259 31.3305 38.8082 30.7317 40.4615C30.133 42.1213 31.1157 43.2603 32.912 43.0065ZM31.9162 40.2987C32.2937 39.2508 33.5237 38.2679 34.6627 38.1052C35.8016 37.9425 36.4199 38.6715 36.0424 39.7194C35.6649 40.7674 34.4349 41.7502 33.2959 41.913C32.1635 42.0692 31.5452 41.3467 31.9162 40.2987Z" fill="url(#paint3_linear_3775_8626)"/>
<path d="M80.89 0.274817L28.2583 7.67556C24.1582 8.24836 19.7391 11.7762 18.3854 15.5515L0.989054 64.0371C-0.364648 67.8124 1.85464 70.4029 5.9548 69.8302L58.5865 62.4294C62.6801 61.8566 67.1057 58.3287 68.4594 54.5535L85.8558 6.06785C87.216 2.29262 84.9902 -0.297977 80.89 0.274817ZM70.3142 18.474L60.6431 45.4344C59.8946 47.5238 57.4475 49.47 55.1827 49.7889L19.2901 54.8334C17.0578 55.1458 15.8342 53.7594 16.5436 51.6309L16.7779 50.967L17.4808 49.0143L22.5376 34.9288L23.234 32.9761L23.5074 32.2211C24.2558 30.1317 26.6964 28.1855 28.9612 27.8665L31.558 27.502L34.2719 19.9451L67.5678 15.2651C69.8326 14.9526 71.0627 16.3846 70.3142 18.474Z" fill="url(#paint4_linear_3775_8626)"/>
<path d="M41.7174 30.3855L25.4079 32.6767L24.705 34.6294L40.8778 32.3578L35.821 46.4433L19.6482 48.7149L18.9518 50.6676L35.2613 48.3765C36.3547 48.2202 37.5326 47.283 37.8971 46.2741L43.0386 31.9412C43.403 30.9258 42.8108 30.2293 41.7174 30.3855Z" fill="url(#paint5_linear_3775_8626)"/>
<path d="M89.9945 9.45248C89.9945 9.42645 90.001 9.40693 90.001 9.3809C90.001 9.37439 90.001 9.37437 90.001 9.36786C90.001 9.36136 90.001 9.34833 90.001 9.34182C90.014 9.21815 90.0206 9.0945 90.0206 8.97082C90.0206 8.9513 90.0206 8.93827 90.0206 8.91874C90.0206 8.90572 90.0206 8.88621 90.0206 8.87319C90.0206 8.76254 90.014 8.64536 90.0075 8.53471C90.0075 8.5282 90.0075 8.52821 90.0075 8.5217C90.001 8.41105 89.9815 8.3069 89.9685 8.19625C89.9685 8.18323 89.9685 8.17671 89.962 8.16369C89.9555 8.14417 89.9555 8.12465 89.949 8.09862C89.9359 8.02702 89.9229 7.95541 89.9034 7.88381C89.8969 7.86428 89.8969 7.84476 89.8904 7.82523C89.8839 7.81221 89.8839 7.79919 89.8774 7.77966C89.8578 7.70806 89.8383 7.64298 89.8123 7.57789C89.8058 7.55836 89.7993 7.53883 89.7928 7.51931C89.7928 7.5128 89.7863 7.50629 89.7863 7.49978C89.7537 7.40865 89.7212 7.32403 89.6756 7.23291C89.6756 7.23291 89.6756 7.23291 89.6756 7.2264C89.6691 7.21989 89.6691 7.20688 89.6626 7.20037C89.6301 7.12226 89.591 7.05066 89.5455 6.97906C89.5389 6.97255 89.5389 6.95953 89.5324 6.95303C89.5194 6.9335 89.5129 6.92048 89.4999 6.90095C89.4674 6.84237 89.4283 6.7903 89.3958 6.73823C89.3893 6.72521 89.3762 6.71219 89.3697 6.69266C89.3437 6.66011 89.3242 6.62757 89.2981 6.59503L85.5234 1.66119C85.5559 1.70676 85.5885 1.75232 85.621 1.79789C85.6601 1.84996 85.6926 1.90854 85.7252 1.96061C85.7382 1.98665 85.7577 2.01268 85.7707 2.03872C85.8098 2.11032 85.8488 2.18842 85.8879 2.26002C85.8944 2.27304 85.9009 2.27955 85.9009 2.29257C85.9399 2.37719 85.979 2.46831 86.0115 2.55944C86.018 2.58548 86.031 2.61151 86.0375 2.63755C86.0571 2.70264 86.0831 2.77423 86.1026 2.83932C86.1091 2.87187 86.1222 2.90442 86.1287 2.93696C86.1482 3.00856 86.1612 3.08016 86.1742 3.15176C86.1807 3.18431 86.1872 3.21685 86.1937 3.24939C86.2133 3.35354 86.2263 3.46419 86.2328 3.57485C86.2328 3.58135 86.2328 3.58786 86.2328 3.59437C86.2393 3.70503 86.2458 3.81568 86.2458 3.93284C86.2458 3.96539 86.2458 3.99793 86.2458 4.03047C86.2458 4.15415 86.2393 4.27782 86.2263 4.40149C86.2263 4.41451 86.2263 4.42753 86.2263 4.44055C86.2263 4.46658 86.2198 4.48611 86.2198 4.51215C86.2133 4.58374 86.2068 4.65534 86.1937 4.72694C86.1872 4.766 86.1807 4.79854 86.1742 4.8376C86.1612 4.89618 86.1547 4.95476 86.1417 5.01985C86.1221 5.10446 86.1026 5.18908 86.0831 5.2802C86.0766 5.31275 86.0701 5.3453 86.0636 5.37785C86.031 5.49501 85.9985 5.61868 85.9594 5.73584C85.9269 5.83999 85.8879 5.95064 85.8488 6.06129L68.4524 54.5469C68.4134 54.6641 68.3678 54.7747 68.3223 54.8919C68.3093 54.931 68.2897 54.9635 68.2767 55.0026C68.2442 55.0807 68.2116 55.1588 68.1791 55.2304C68.1596 55.2759 68.1335 55.3215 68.114 55.3671C68.0815 55.4387 68.0489 55.5038 68.0164 55.5754C67.9904 55.6209 67.9643 55.673 67.9383 55.7186C67.9058 55.7836 67.8667 55.8487 67.8342 55.9138C67.8081 55.9659 67.7756 56.0115 67.7495 56.0635C67.7105 56.1286 67.678 56.1872 67.6389 56.2523C67.6064 56.3044 67.5803 56.3499 67.5478 56.402C67.5088 56.4606 67.4697 56.5257 67.4306 56.5843C67.3981 56.6363 67.3656 56.6819 67.333 56.734C67.294 56.7926 67.2549 56.8511 67.2094 56.9097C67.1768 56.9618 67.1378 57.0074 67.1052 57.0594C67.0662 57.1115 67.0271 57.1701 66.9816 57.2222C66.9295 57.2938 66.8709 57.3653 66.8124 57.4369C66.7798 57.4825 66.7408 57.5281 66.7082 57.5736C66.6432 57.6517 66.5846 57.7233 66.5195 57.8014C66.487 57.8405 66.4609 57.8731 66.4284 57.9121C66.2917 58.0683 66.1485 58.2245 65.9988 58.3808C65.9663 58.4133 65.9403 58.4458 65.9077 58.4719C65.7776 58.6021 65.6474 58.7387 65.5107 58.8624C65.4977 58.8754 65.4847 58.8885 65.4717 58.9015C65.361 59.0056 65.2439 59.1163 65.1268 59.2139C65.0877 59.2465 65.0487 59.2855 65.0031 59.3181C64.9185 59.3962 64.8274 59.4678 64.7363 59.5394C64.6972 59.5719 64.6517 59.611 64.6126 59.6435C64.515 59.7216 64.4109 59.7997 64.3132 59.8778C64.2872 59.8973 64.2612 59.9234 64.2286 59.9429C64.105 60.0406 63.9748 60.1317 63.8446 60.2228C63.8121 60.2488 63.7796 60.2684 63.7405 60.2944C63.6429 60.3595 63.5518 60.4246 63.4541 60.4897C63.4086 60.5222 63.3565 60.5482 63.311 60.5808C63.2264 60.6329 63.1418 60.6914 63.0572 60.7435C63.0051 60.7761 62.953 60.8086 62.901 60.8346C62.8164 60.8867 62.7317 60.9388 62.6406 60.9844C62.5886 61.0104 62.5365 61.0429 62.4909 61.069C62.3933 61.121 62.2957 61.1731 62.1916 61.2252C62.1525 61.2447 62.1135 61.2642 62.0744 61.2903C61.9312 61.3619 61.7881 61.4335 61.6449 61.4986C61.6188 61.5116 61.5928 61.5246 61.5668 61.5311C61.4431 61.5897 61.313 61.6418 61.1893 61.6938C61.1437 61.7134 61.0982 61.7329 61.0526 61.7459C60.916 61.798 60.7793 61.8566 60.6426 61.9021C60.6101 61.9151 60.584 61.9217 60.5515 61.9347C60.3693 61.9998 60.187 62.0583 59.9983 62.1104C59.9462 62.1234 59.8942 62.143 59.8421 62.156C59.777 62.1755 59.7119 62.195 59.6469 62.208C59.5818 62.2276 59.5167 62.2406 59.4581 62.2536C59.393 62.2666 59.328 62.2862 59.2629 62.2992C59.2108 62.3122 59.1588 62.3187 59.1002 62.3317C58.931 62.3643 58.7552 62.3968 58.586 62.4228L5.95436 69.8236C3.81317 70.123 2.18612 69.5632 1.31403 68.4176L5.08877 73.3515C5.96087 74.4971 7.59442 75.0568 9.7291 74.7574L62.3608 67.3567C62.53 67.3306 62.6992 67.3046 62.8749 67.2656C62.8944 67.259 62.914 67.259 62.94 67.2525C62.9725 67.246 63.0051 67.2395 63.0376 67.233C63.1027 67.22 63.1678 67.207 63.2329 67.1874C63.298 67.1744 63.363 67.1549 63.4281 67.1419C63.4932 67.1224 63.5583 67.1093 63.6234 67.0898C63.6559 67.0833 63.6884 67.0703 63.721 67.0638C63.7405 67.0573 63.76 67.0508 63.7796 67.0443C63.9618 66.9922 64.144 66.9336 64.3328 66.8685C64.3393 66.8685 64.3458 66.862 64.3523 66.862C64.3718 66.8555 64.3978 66.8425 64.4174 66.836C64.554 66.7839 64.6907 66.7318 64.8274 66.6797C64.8534 66.6667 64.8794 66.6602 64.899 66.6537C64.9185 66.6472 64.938 66.6342 64.9575 66.6277C65.0812 66.5756 65.2114 66.517 65.335 66.4649C65.3545 66.4584 65.3741 66.4454 65.4001 66.4389C65.4066 66.4389 65.4131 66.4324 65.4131 66.4324C65.5563 66.3673 65.6995 66.2957 65.8427 66.2241C65.8492 66.2176 65.8622 66.2176 65.8687 66.2111C65.9012 66.1916 65.9338 66.1785 65.9663 66.159C66.0639 66.1069 66.1616 66.0549 66.2657 66.0028C66.2852 65.9898 66.3047 65.9833 66.3243 65.9702C66.3568 65.9507 66.3893 65.9312 66.4154 65.9182C66.5 65.8661 66.5911 65.8205 66.6757 65.7685C66.7017 65.7489 66.7343 65.7359 66.7603 65.7229C66.7863 65.7099 66.8059 65.6904 66.8319 65.6774C66.9165 65.6253 67.0011 65.5732 67.0857 65.5211C67.1183 65.5016 67.1508 65.4821 67.1833 65.4561C67.1964 65.443 67.2159 65.4365 67.2289 65.4235C67.3265 65.3584 67.4176 65.2933 67.5153 65.2282C67.5413 65.2087 67.5738 65.1892 67.5999 65.1697C67.6064 65.1631 67.6129 65.1631 67.6194 65.1566C67.7496 65.0655 67.8732 64.9744 68.0034 64.8767C68.0099 64.8702 68.0099 64.8702 68.0164 64.8637C68.0424 64.8442 68.062 64.8247 68.088 64.8116C68.1856 64.7335 68.2897 64.6554 68.3874 64.5773C68.4004 64.5643 68.4199 64.5513 68.4329 64.5383C68.4589 64.5187 68.485 64.4927 68.511 64.4732C68.6021 64.4016 68.6867 64.3235 68.7713 64.2519C68.7974 64.2324 68.8234 64.2128 68.8429 64.1933C68.8625 64.1803 68.8755 64.1608 68.895 64.1477C69.0121 64.0436 69.1293 63.9394 69.2399 63.8353C69.2529 63.8223 69.2594 63.8158 69.2725 63.8028L69.279 63.7962C69.4156 63.6661 69.5458 63.5359 69.676 63.4057C69.689 63.3927 69.7085 63.3732 69.7215 63.3601C69.7345 63.3471 69.7476 63.3276 69.7671 63.3146C69.9103 63.1584 70.0534 63.0087 70.1966 62.8459C70.2031 62.8394 70.2096 62.8329 70.2096 62.8264C70.2357 62.7939 70.2617 62.7613 70.2877 62.7353C70.3528 62.6637 70.4179 62.5856 70.4765 62.5075C70.5155 62.4619 70.5481 62.4163 70.5871 62.3708C70.6457 62.2992 70.6978 62.2276 70.7498 62.156C70.7628 62.1364 70.7824 62.1169 70.7954 62.0974C70.8214 62.0648 70.8475 62.0258 70.867 61.9932C70.906 61.9412 70.9386 61.8956 70.9711 61.8435C71.0101 61.785 71.0557 61.7264 71.0948 61.6678C71.1273 61.6157 71.1598 61.5702 71.1924 61.5181C71.2314 61.4595 71.2705 61.3944 71.3095 61.3358C71.3421 61.2838 71.3746 61.2382 71.4006 61.1861C71.4397 61.121 71.4722 61.0625 71.5113 60.9974C71.5373 60.9453 71.5699 60.8997 71.5959 60.8477C71.6349 60.7826 71.6675 60.7175 71.7 60.6524C71.7261 60.6068 71.7521 60.5548 71.7781 60.5092C71.8107 60.4441 71.8432 60.3725 71.8757 60.3074C71.8953 60.2619 71.9213 60.2163 71.9408 60.1707C71.9734 60.0926 72.0059 60.021 72.0384 59.9429C72.058 59.9039 72.071 59.8648 72.0905 59.8258C72.1361 59.7086 72.1816 59.5979 72.2207 59.4808L89.6171 10.9951C89.6561 10.891 89.6886 10.7868 89.7212 10.6827C89.7212 10.6762 89.7212 10.6762 89.7212 10.6697C89.7602 10.546 89.7928 10.4288 89.8253 10.3117C89.8318 10.2791 89.8383 10.2466 89.8448 10.214C89.8644 10.1294 89.8839 10.0383 89.9034 9.95367C89.9034 9.94065 89.9099 9.92764 89.9099 9.91462C89.9164 9.86906 89.9229 9.8235 89.9359 9.77794C89.9425 9.73888 89.949 9.70633 89.9555 9.66727C89.9815 9.60218 89.988 9.52408 89.9945 9.45248Z" fill="url(#paint6_linear_3775_8626)"/>
<defs>
<linearGradient id="paint0_linear_3775_8626" x1="9.39302" y1="68.3475" x2="57.6617" y2="24.7557" gradientUnits="userSpaceOnUse">
<stop stop-color="#09453D"/>
<stop offset="0.3367" stop-color="#297C63"/>
<stop offset="0.6283" stop-color="#41A37E"/>
<stop offset="0.8589" stop-color="#50BC8F"/>
<stop offset="1" stop-color="#55C595"/>
</linearGradient>
<linearGradient id="paint1_linear_3775_8626" x1="6.34764" y1="64.975" x2="54.6166" y2="21.3831" gradientUnits="userSpaceOnUse">
<stop stop-color="#09453D"/>
<stop offset="0.3367" stop-color="#297C63"/>
<stop offset="0.6283" stop-color="#41A37E"/>
<stop offset="0.8589" stop-color="#50BC8F"/>
<stop offset="1" stop-color="#55C595"/>
</linearGradient>
<linearGradient id="paint2_linear_3775_8626" x1="66.7999" y1="47.6291" x2="44.221" y2="11.0405" gradientUnits="userSpaceOnUse">
<stop stop-color="#09453D"/>
<stop offset="0.2919" stop-color="#216E59"/>
<stop offset="0.7721" stop-color="#46AC84"/>
<stop offset="1" stop-color="#55C595"/>
</linearGradient>
<linearGradient id="paint3_linear_3775_8626" x1="-16.038" y1="74.1411" x2="95.0278" y2="-1.6235" gradientUnits="userSpaceOnUse">
<stop stop-color="#1E1F28"/>
<stop offset="0.5019" stop-color="#40424C"/>
<stop offset="1" stop-color="#5E616B"/>
</linearGradient>
<linearGradient id="paint4_linear_3775_8626" x1="-15.3478" y1="75.1532" x2="95.7182" y2="-0.611034" gradientUnits="userSpaceOnUse">
<stop stop-color="#1E1F28"/>
<stop offset="0.5019" stop-color="#40424C"/>
<stop offset="1" stop-color="#5E616B"/>
</linearGradient>
<linearGradient id="paint5_linear_3775_8626" x1="-16.873" y1="72.9172" x2="94.193" y2="-2.847" gradientUnits="userSpaceOnUse">
<stop stop-color="#1E1F28"/>
<stop offset="0.5019" stop-color="#40424C"/>
<stop offset="1" stop-color="#5E616B"/>
</linearGradient>
<linearGradient id="paint6_linear_3775_8626" x1="1.9778" y1="101.798" x2="85.3684" y2="12.5363" gradientUnits="userSpaceOnUse">
<stop/>
<stop offset="0.0949" stop-color="#070709"/>
<stop offset="0.4665" stop-color="#1E1F28"/>
<stop offset="0.775" stop-color="#3F4047"/>
<stop offset="1" stop-color="#525359"/>
</linearGradient>
</defs>
</svg>
