<svg id="play-button-2" xmlns="http://www.w3.org/2000/svg" width="22.824" height="22.824" viewBox="0 0 22.824 22.824">
  <path id="Path_3143" data-name="Path 3143" d="M22.818,11.04A11.412,11.412,0,1,0,11.04,22.818c.125,0,.249.006.373.006A11.413,11.413,0,0,0,22.818,11.04Zm-4.935,6.639a8.936,8.936,0,0,1-6.471,2.742c-.1,0-.2,0-.3,0a9.009,9.009,0,0,1,.3-18.012c.1,0,.2,0,.3,0a9.008,9.008,0,0,1,6.175,15.271Z" transform="translate(0 -0.001)" fill="#fac668"/>
  <path id="Path_3144" data-name="Path 3144" d="M61.294,47.26l-5.061-3.629a.816.816,0,0,0-1.291.663v7.257a.816.816,0,0,0,1.291.663l5.06-3.629A.816.816,0,0,0,61.294,47.26Z" transform="translate(-46.139 -36.511)" fill="#fac668"/>
</svg>
