<svg id="play-button-2" xmlns="http://www.w3.org/2000/svg" width="22.846" height="22.845" viewBox="0 0 22.846 22.845">
  <path id="Path_3143" data-name="Path 3143" d="M22.84,11.051A11.423,11.423,0,1,0,11.05,22.84c.125,0,.249.006.373.006a11.424,11.424,0,0,0,11.417-11.8ZM17.9,17.7a8.945,8.945,0,0,1-6.478,2.744c-.1,0-.2,0-.3,0a9.017,9.017,0,0,1,.3-18.03c.1,0,.2,0,.3,0A9.017,9.017,0,0,1,17.9,17.7Z" transform="translate(0 -0.001)" fill="#fff"/>
  <path id="Path_3144" data-name="Path 3144" d="M61.3,47.263l-5.065-3.632a.817.817,0,0,0-1.292.664v7.264a.817.817,0,0,0,1.292.664L61.3,48.591A.817.817,0,0,0,61.3,47.263Z" transform="translate(-46.131 -36.504)" fill="#fff"/>
</svg>
