<svg xmlns="http://www.w3.org/2000/svg" width="24.623" height="22.237" viewBox="0 0 24.623 22.237">
  <g id="podium" transform="translate(0 -24.8)">
    <rect id="Rectangle_547" data-name="Rectangle 547" width="7.08" height="3.303" transform="translate(16.026 41.912)" fill="#df781b"/>
    <g id="Group_2013" data-name="Group 2013" transform="translate(16.026 41.912)">
      <rect id="Rectangle_548" data-name="Rectangle 548" width="7.08" height="0.925" transform="translate(0 2.379)" fill="#c15c08"/>
      <rect id="Rectangle_549" data-name="Rectangle 549" width="7.08" height="0.887" transform="translate(0 0)" fill="#c15c08"/>
      <rect id="Rectangle_550" data-name="Rectangle 550" width="1.347" height="3.303" transform="translate(0 0)" fill="#c15c08"/>
    </g>
    <path id="Path_10704" data-name="Path 10704" d="M326.879,355.638v.865a.3.3,0,0,1-.3.3h-8.215v-1.459h8.215A.3.3,0,0,1,326.879,355.638Z" transform="translate(-303.056 -314.645)" fill="#ffe6ca"/>
    <rect id="Rectangle_551" data-name="Rectangle 551" width="2.063" height="1.459" transform="translate(15.311 40.696)" fill="#ffce94"/>
    <rect id="Rectangle_552" data-name="Rectangle 552" width="7.08" height="5.232" transform="translate(1.368 39.984)" fill="#bcced5"/>
    <g id="Group_2014" data-name="Group 2014" transform="translate(1.368 39.984)">
      <rect id="Rectangle_553" data-name="Rectangle 553" width="7.08" height="0.925" transform="translate(0 4.307)" fill="#99a9ad"/>
      <rect id="Rectangle_554" data-name="Rectangle 554" width="7.08" height="0.887" fill="#99a9ad"/>
      <rect id="Rectangle_555" data-name="Rectangle 555" width="1.347" height="5.232" transform="translate(5.733)" fill="#99a9ad"/>
    </g>
    <path id="Path_10705" data-name="Path 10705" d="M22.08,315.246V316.7H13.865a.3.3,0,0,1-.3-.3v-.864a.3.3,0,0,1,.3-.3H22.08Z" transform="translate(-12.915 -276.478)" fill="#def2fc"/>
    <rect id="Rectangle_556" data-name="Rectangle 556" width="2.063" height="1.459" transform="translate(7.102 38.768)" fill="#cfe1e5"/>
    <rect id="Rectangle_557" data-name="Rectangle 557" width="8.984" height="8.489" transform="translate(7.746 36.727)" fill="#fcb043"/>
    <g id="Group_2015" data-name="Group 2015" transform="translate(7.746 36.727)">
      <rect id="Rectangle_558" data-name="Rectangle 558" width="8.984" height="0.925" transform="translate(0 7.564)" fill="#df781b"/>
      <rect id="Rectangle_559" data-name="Rectangle 559" width="8.984" height="0.887" transform="translate(0 0)" fill="#df781b"/>
    </g>
    <g id="Group_2016" data-name="Group 2016" transform="translate(0.653 35.511)">
      <path id="Path_10706" data-name="Path 10706" d="M156.3,248.983h-9.821a.3.3,0,0,1-.3-.3v-.864a.3.3,0,0,1,.3-.3H156.3a.3.3,0,0,1,.3.3v.864A.3.3,0,0,1,156.3,248.983Z" transform="translate(-139.8 -247.524)" fill="#ffce94"/>
      <path id="Path_10707" data-name="Path 10707" d="M36.889,444.593H13.572v-.825a.3.3,0,0,1,.3-.3H36.592a.3.3,0,0,1,.3.3v.825Z" transform="translate(-13.572 -434.048)" fill="#ffce94"/>
    </g>
    <path id="Path_10708" data-name="Path 10708" d="M24.326,464.986H.3a.3.3,0,0,1-.3-.3v-.528a.3.3,0,0,1,.3-.3H24.326a.3.3,0,0,1,.3.3v.528A.3.3,0,0,1,24.326,464.986Z" transform="translate(0 -417.949)" fill="#fcb043"/>
    <path id="Path_10709" data-name="Path 10709" d="M179.621,54.532l1.035,2.1,2.315.336a.3.3,0,0,1,.165.507l-1.675,1.633.4,2.306a.3.3,0,0,1-.431.313l-2.071-1.089-2.071,1.089a.3.3,0,0,1-.431-.313l.4-2.306-1.675-1.633a.3.3,0,0,1,.165-.507l2.315-.336,1.035-2.1A.3.3,0,0,1,179.621,54.532Z" transform="translate(-167.043 -28.145)" fill="#ffce94"/>
    <path id="Path_10710" data-name="Path 10710" d="M200,81.3l-1.749.919.334-1.947L197.166,78.9l1.955-.284L200,76.842l.874,1.772,1.955.284-1.415,1.379.334,1.947Z" transform="translate(-187.684 -49.539)" fill="#fcb043"/>
    <g id="Group_2017" data-name="Group 2017" transform="translate(6.047 24.8)">
      <path id="Path_10712" data-name="Path 10712" d="M351.648,155.734a.372.372,0,0,1-.372-.372v-.228a.372.372,0,0,1,.743,0v.228A.372.372,0,0,1,351.648,155.734Z" transform="translate(-340.431 -148.513)" fill="#fcb043"/>
      <path id="Path_10713" data-name="Path 10713" d="M351.648,187.034a.372.372,0,0,1-.372-.372v-.228a.372.372,0,0,1,.743,0v.228A.372.372,0,0,1,351.648,187.034Z" transform="translate(-340.431 -178.308)" fill="#fcb043"/>
      <path id="Path_10714" data-name="Path 10714" d="M365.156,173.526h-.228a.372.372,0,0,1,0-.743h.228a.372.372,0,0,1,0,.743Z" transform="translate(-353.071 -165.666)" fill="#fcb043"/>
      <path id="Path_10715" data-name="Path 10715" d="M333.857,173.526h-.228a.372.372,0,0,1,0-.743h.228a.372.372,0,0,1,0,.743Z" transform="translate(-323.278 -165.666)" fill="#fcb043"/>
      <path id="Path_10716" data-name="Path 10716" d="M144.139,25.771a.372.372,0,0,1-.372-.372v-.228a.372.372,0,1,1,.743,0V25.4A.372.372,0,0,1,144.139,25.771Z" transform="translate(-142.9 -24.8)" fill="#fcb043"/>
      <path id="Path_10717" data-name="Path 10717" d="M144.139,57.07a.372.372,0,0,1-.372-.372v-.228a.372.372,0,1,1,.743,0V56.7A.372.372,0,0,1,144.139,57.07Z" transform="translate(-142.9 -54.594)" fill="#fcb043"/>
      <path id="Path_10718" data-name="Path 10718" d="M157.646,43.562h-.228a.372.372,0,0,1,0-.743h.228a.372.372,0,0,1,0,.743Z" transform="translate(-155.541 -41.952)" fill="#fcb043"/>
      <path id="Path_10719" data-name="Path 10719" d="M126.347,43.562h-.228a.372.372,0,0,1,0-.743h.228a.372.372,0,1,1,0,.743Z" transform="translate(-125.747 -41.952)" fill="#fcb043"/>
    </g>
  </g>
</svg>
