<svg
  width="26"
  height="27"
  viewBox="0 0 26 27"
  fill="none"
  xmlns="http://www.w3.org/2000/svg"
>
  <path
    d="M20.361 16.3201C20.361 21.6671 16.0264 26.0016 10.6795 26.0016C5.33259 26.0016 0.998047 21.6671 0.998047 16.3201C0.998047 10.9732 5.33259 6.63867 10.6795 6.63867C16.0264 6.63867 20.361 10.9732 20.361 16.3201Z"
    fill="#121316"
  />
  <path
    d="M12.2679 26.3254C18.6707 26.3254 23.8613 21.1348 23.8613 14.732C23.8613 8.32919 18.6707 3.13867 12.2679 3.13867C5.86508 3.13867 0.674561 8.32919 0.674561 14.732C0.674561 21.1348 5.86508 26.3254 12.2679 26.3254ZM21.4494 14.732C21.4494 19.8028 17.3387 23.9135 12.2679 23.9135C7.19712 23.9135 3.08644 19.8028 3.08644 14.732C3.08644 9.66124 7.19712 5.55055 12.2679 5.55055C17.3387 5.55055 21.4494 9.66123 21.4494 14.732Z"
    fill="#494B58"
    stroke="#121316"
  />
  <path
    d="M23.588 13.0916C23.588 18.4385 19.2535 22.7731 13.9066 22.7731C8.55964 22.7731 4.2251 18.4385 4.2251 13.0916C4.2251 7.7447 8.55964 3.41016 13.9066 3.41016C19.2535 3.41016 23.588 7.7447 23.588 13.0916Z"
    fill="#121316"
  />
  <path
    d="M13.9066 24.6857C20.3094 24.6857 25.4999 19.4952 25.4999 13.0924C25.4999 6.68954 20.3094 1.49902 13.9066 1.49902C7.50375 1.49902 2.31323 6.68954 2.31323 13.0924C2.31323 19.4952 7.50375 24.6857 13.9066 24.6857ZM23.088 13.0924C23.088 18.1632 18.9774 22.2738 13.9066 22.2738C8.8358 22.2738 4.72511 18.1632 4.72511 13.0924C4.72511 8.02159 8.8358 3.9109 13.9066 3.9109C18.9774 3.9109 23.088 8.02159 23.088 13.0924Z"
    fill="#494B58"
    stroke="#121316"
  />
  <circle
    cx="11.9711"
    cy="15.0263"
    r="11.4716"
    fill="#17ADBD"
    stroke="#121316"
  />
  <circle
    cx="14.0283"
    cy="12.9697"
    r="11.4716"
    fill="#17ADBD"
    stroke="#121316"
  />
</svg>
