<svg
  width="26"
  height="26"
  viewBox="0 0 26 26"
  fill="none"
  xmlns="http://www.w3.org/2000/svg"
>
  <path
    d="M20.361 15.3201C20.361 20.6671 16.0264 25.0016 10.6795 25.0016C5.33259 25.0016 0.998047 20.6671 0.998047 15.3201C0.998047 9.97321 5.33259 5.63867 10.6795 5.63867C16.0264 5.63867 20.361 9.97321 20.361 15.3201Z"
    fill="#121316"
  />
  <path
    d="M12.2679 25.3254C18.6707 25.3254 23.8613 20.1348 23.8613 13.732C23.8613 7.32919 18.6707 2.13867 12.2679 2.13867C5.86508 2.13867 0.674561 7.32919 0.674561 13.732C0.674561 20.1348 5.86508 25.3254 12.2679 25.3254ZM21.4494 13.732C21.4494 18.8028 17.3387 22.9135 12.2679 22.9135C7.19712 22.9135 3.08644 18.8028 3.08644 13.732C3.08644 8.66124 7.19712 4.55055 12.2679 4.55055C17.3387 4.55055 21.4494 8.66123 21.4494 13.732Z"
    fill="#494B58"
    stroke="#121316"
  />
  <path
    d="M23.588 12.0916C23.588 17.4385 19.2535 21.7731 13.9066 21.7731C8.55964 21.7731 4.2251 17.4385 4.2251 12.0916C4.2251 6.7447 8.55964 2.41016 13.9066 2.41016C19.2535 2.41016 23.588 6.7447 23.588 12.0916Z"
    fill="#121316"
  />
  <path
    d="M13.9066 23.6857C20.3094 23.6857 25.4999 18.4952 25.4999 12.0924C25.4999 5.68954 20.3094 0.499023 13.9066 0.499023C7.50375 0.499023 2.31323 5.68954 2.31323 12.0924C2.31323 18.4952 7.50375 23.6857 13.9066 23.6857ZM23.088 12.0924C23.088 17.1632 18.9774 21.2738 13.9066 21.2738C8.8358 21.2738 4.72511 17.1632 4.72511 12.0924C4.72511 7.02159 8.8358 2.9109 13.9066 2.9109C18.9774 2.9109 23.088 7.02159 23.088 12.0924Z"
    fill="#494B58"
    stroke="#121316"
  />
</svg>
