<svg width="25" height="21" xmlns="http://www.w3.org/2000/svg" xmlns:xlink="http://www.w3.org/1999/xlink" xmlns:svgjs="http://svgjs.com/svgjs" viewBox="0 0.604 25 19.792" fill="#fdd284"><svg xmlns="http://www.w3.org/2000/svg" width="25" height="21" viewBox="0.129 1 24 19"><path paint-order="stroke fill markers" fill-rule="evenodd" d="M22.214 3.233l1.915-1.832V1h-6.634l-4.728 11.768L7.388 1H.432V1.4L2.67 4.094c.218.199.332.49.303.783V15.46c.07.38-.055.773-.323 1.05L.13 19.564v.396h7.145v-.401l-2.52-3.049a1.244 1.244 0 0 1-.347-1.05V6.306l6.272 13.659h.73L16.8 6.305v10.882c0 .287 0 .346-.188.534l-1.94 1.877V20h9.412v-.401l-1.87-1.831a.556.556 0 0 1-.214-.534V3.767a.554.554 0 0 1 .213-.534z"/></svg></svg>