<svg width="32" height="34" xmlns="http://www.w3.org/2000/svg" xmlns:xlink="http://www.w3.org/1999/xlink" xmlns:svgjs="http://svgjs.com/svgjs" viewBox="409 1014 32 34"><svg width="10" height="10" xmlns="http://www.w3.org/2000/svg" xmlns:xlink="http://www.w3.org/1999/xlink" xmlns:svgjs="http://svgjs.com/svgjs" fill="#fdd284" x="429" y="1015"><svg xmlns="http://www.w3.org/2000/svg" xmlns:xlink="http://www.w3.org/1999/xlink" width="10" height="10" viewBox="0.91 0.269 9.089 9.089"><path paint-order="stroke fill markers" fill-rule="evenodd" d="M9.999 4.813a4.544 4.544 0 1 1-9.09 0 4.544 4.544 0 0 1 9.09 0z"/></svg></svg><svg width="13" height="12" xmlns="http://www.w3.org/2000/svg" xmlns:xlink="http://www.w3.org/1999/xlink" xmlns:svgjs="http://svgjs.com/svgjs" viewBox="0.5 0 12 12" fill="#fdd284" x="428" y="1014"><svg xmlns="http://www.w3.org/2000/svg" xmlns:xlink="http://www.w3.org/1999/xlink" width="13" height="12" viewBox="0.861 0.22 11.187 11.187"><path paint-order="stroke fill markers" fill-rule="evenodd" d="M6.454 11.407A5.599 5.599 0 0 1 .861 5.813 5.599 5.599 0 0 1 6.454.22a5.599 5.599 0 0 1 5.594 5.593 5.599 5.599 0 0 1-5.594 5.594zm0-9.09A3.5 3.5 0 0 0 2.96 5.814 3.5 3.5 0 0 0 6.454 9.31 3.5 3.5 0 0 0 9.95 5.813a3.5 3.5 0 0 0-3.496-3.495z"/></svg></svg><svg width="10" height="10" xmlns="http://www.w3.org/2000/svg" xmlns:xlink="http://www.w3.org/1999/xlink" xmlns:svgjs="http://svgjs.com/svgjs" fill="#fdd284" x="429" y="1037"><svg xmlns="http://www.w3.org/2000/svg" xmlns:xlink="http://www.w3.org/1999/xlink" width="10" height="10" viewBox="0.91 0.642 9.089 9.089"><path paint-order="stroke fill markers" fill-rule="evenodd" d="M9.999 5.187a4.544 4.544 0 1 1-9.089 0 4.544 4.544 0 0 1 9.089 0z"/></svg></svg><svg width="13" height="12" xmlns="http://www.w3.org/2000/svg" xmlns:xlink="http://www.w3.org/1999/xlink" xmlns:svgjs="http://svgjs.com/svgjs" viewBox="0.5 0 12 12" fill="#fdd284" x="428" y="1036"><svg xmlns="http://www.w3.org/2000/svg" xmlns:xlink="http://www.w3.org/1999/xlink" width="13" height="12" viewBox="0.861 0.593 11.187 11.187"><path paint-order="stroke fill markers" fill-rule="evenodd" d="M6.454 11.78A5.599 5.599 0 0 1 .861 6.187 5.599 5.599 0 0 1 6.454.593a5.599 5.599 0 0 1 5.594 5.594 5.599 5.599 0 0 1-5.594 5.593zm0-9.09A3.5 3.5 0 0 0 2.96 6.188a3.5 3.5 0 0 0 3.495 3.495A3.5 3.5 0 0 0 9.95 6.187 3.5 3.5 0 0 0 6.454 2.69z"/></svg></svg><svg width="10" height="10" xmlns="http://www.w3.org/2000/svg" xmlns:xlink="http://www.w3.org/1999/xlink" xmlns:svgjs="http://svgjs.com/svgjs" fill="#fdd284" x="410" y="1026"><svg xmlns="http://www.w3.org/2000/svg" xmlns:xlink="http://www.w3.org/1999/xlink" width="10" height="10" viewBox="0.333 0.455 9.089 9.089"><path paint-order="stroke fill markers" fill-rule="evenodd" d="M9.422 5A4.545 4.545 0 1 1 .333 5a4.545 4.545 0 0 1 9.09 0z"/></svg></svg><svg width="12" height="12" xmlns="http://www.w3.org/2000/svg" xmlns:xlink="http://www.w3.org/1999/xlink" xmlns:svgjs="http://svgjs.com/svgjs" fill="#fdd284" x="409" y="1025"><svg xmlns="http://www.w3.org/2000/svg" xmlns:xlink="http://www.w3.org/1999/xlink" width="12" height="12" viewBox="0.284 0.407 11.187 11.187"><path paint-order="stroke fill markers" fill-rule="evenodd" d="M5.878 11.593A5.599 5.599 0 0 1 .284 6 5.599 5.599 0 0 1 5.878.407 5.599 5.599 0 0 1 11.47 6a5.599 5.599 0 0 1-5.593 5.593zm0-9.089A3.5 3.5 0 0 0 2.382 6a3.5 3.5 0 0 0 3.496 3.496A3.5 3.5 0 0 0 9.374 6a3.5 3.5 0 0 0-3.496-3.496z"/></svg></svg><svg width="17" height="11" xmlns="http://www.w3.org/2000/svg" xmlns:xlink="http://www.w3.org/1999/xlink" xmlns:svgjs="http://svgjs.com/svgjs" viewBox="0 0.005 17 10.99" fill="#fdd284" x="416" y="1020"><svg xmlns="http://www.w3.org/2000/svg" xmlns:xlink="http://www.w3.org/1999/xlink" width="17" height="11" viewBox="0.78 0.133 15.772 10.196"><path paint-order="stroke fill markers" fill-rule="evenodd" d="M2.18 10.329c-.487 0-.96-.253-1.217-.706a1.4 1.4 0 0 1 .523-1.908L14.46.318a1.396 1.396 0 0 1 1.907.523 1.4 1.4 0 0 1-.523 1.908L2.87 10.146a1.39 1.39 0 0 1-.69.183z"/></svg></svg><svg width="17" height="11" xmlns="http://www.w3.org/2000/svg" xmlns:xlink="http://www.w3.org/1999/xlink" xmlns:svgjs="http://svgjs.com/svgjs" viewBox="0 0.005 17 10.99" fill="#fdd284" x="416" y="1031"><svg xmlns="http://www.w3.org/2000/svg" width="17" height="11" viewBox="0.781 0.67 15.771 10.195"><path paint-order="stroke fill markers" fill-rule="evenodd" d="M15.153 10.865a1.39 1.39 0 0 1-.69-.183L1.486 3.285a1.4 1.4 0 0 1-.523-1.908A1.396 1.396 0 0 1 2.871.854l12.976 7.397a1.4 1.4 0 0 1-.694 2.614z"/></svg></svg></svg>