<svg width="31" height="25" xmlns="http://www.w3.org/2000/svg" xmlns:xlink="http://www.w3.org/1999/xlink" xmlns:svgjs="http://svgjs.com/svgjs" viewBox="0.115 0 30.769 25" fill="#fdd284"><svg xmlns="http://www.w3.org/2000/svg" width="31" height="25" viewBox="0.715 0 29.763 24.183"><path paint-order="stroke fill markers" fill-rule="evenodd" d="M30.479 2.863a12.721 12.721 0 0 1-3.516.963A6.067 6.067 0 0 0 29.647.454c-1.18.703-2.481 1.2-3.87 1.477a6.1 6.1 0 0 0-10.555 4.172c.001.484.042.949.142 1.392-5.072-.248-9.561-2.679-12.576-6.383a6.143 6.143 0 0 0-.836 3.085 6.11 6.11 0 0 0 2.71 5.07 6.025 6.025 0 0 1-2.756-.751v.067c0 2.965 2.115 5.428 4.888 5.995-.496.136-1.038.201-1.6.201-.39 0-.784-.022-1.155-.104.791 2.417 3.034 4.193 5.702 4.25a12.26 12.26 0 0 1-7.566 2.603c-.5 0-.98-.022-1.46-.084a17.178 17.178 0 0 0 9.36 2.739c11.23 0 17.368-9.301 17.368-17.363 0-.27-.01-.53-.023-.79a12.172 12.172 0 0 0 3.059-3.167z"/></svg></svg>