<svg
  width="16"
  height="14"
  viewBox="0 0 16 14"
  fill="none"
  xmlns="http://www.w3.org/2000/svg"
>
  <g clip-path="url(#clip0_5763:146409)">
    <path
      fill-rule="evenodd"
      clip-rule="evenodd"
      d="M5.5 12.8333L7.54171 13.375V12.6667L7.70838 12.5H8.87504V13.3333V13.9167H7.62504L6.08333 13.25L5.5 12.8333Z"
      fill="#CDBDB2"
    />
    <path
      fill-rule="evenodd"
      clip-rule="evenodd"
      d="M12.1667 12.8333L10.1667 13.375V12.6667L10 12.5H8.83334V13.3333V13.9167H10.0833L11.625 13.25L12.1667 12.8333Z"
      fill="#CDBDB2"
    />
    <path
      fill-rule="evenodd"
      clip-rule="evenodd"
      d="M7.70837 11.2917L7.5417 12.6667L7.75 12.5H9.91666L10.1667 12.6667L10 11.2917L9.66666 11.0834L8 11.1251L7.70837 11.2917Z"
      fill="#393939"
    />
    <path
      fill-rule="evenodd"
      clip-rule="evenodd"
      d="M6.58333 2L7.58333 4.33333L8.0417 11.125H9.66666L10.1667 4.33333L11.0833 2H6.58333Z"
      fill="#F89C35"
    />
    <path
      fill-rule="evenodd"
      clip-rule="evenodd"
      d="M2.20837 7.12506L1.0417 10.5L3.95837 10.3334H5.83333V8.87506L5.75 5.87506L5.33333 6.20839L2.20837 7.12506Z"
      fill="#F89D35"
    />
    <path
      fill-rule="evenodd"
      clip-rule="evenodd"
      d="M4.41667 7.5L7.83334 7.58333L7.45838 9.33333L5.83334 8.91667L4.41667 7.5Z"
      fill="#D87C30"
    />
    <path
      fill-rule="evenodd"
      clip-rule="evenodd"
      d="M4.41667 7.54175L5.83334 8.87508V10.2084L4.41667 7.54175Z"
      fill="#EA8D3A"
    />
    <path
      fill-rule="evenodd"
      clip-rule="evenodd"
      d="M5.83333 8.91669L7.5 9.33335L8.0417 11.1251L7.66666 11.3334L5.83333 10.25V8.91669Z"
      fill="#F89D35"
    />
    <path
      fill-rule="evenodd"
      clip-rule="evenodd"
      d="M5.83333 10.25L5.5 12.8333L7.70837 11.2917L5.83333 10.25Z"
      fill="#EB8F35"
    />
    <path
      fill-rule="evenodd"
      clip-rule="evenodd"
      d="M7.83334 7.58337L8.04171 11.1251L7.41667 9.31256L7.83334 7.58337Z"
      fill="#EA8E3A"
    />
    <path
      fill-rule="evenodd"
      clip-rule="evenodd"
      d="M3.91667 10.2917L5.83334 10.25L5.5 12.8333L3.91667 10.2917Z"
      fill="#D87C30"
    />
    <path
      fill-rule="evenodd"
      clip-rule="evenodd"
      d="M1.95837 13.9584L5.5 12.8334L3.91666 10.2917L1.0417 10.5L1.95837 13.9584Z"
      fill="#EB8F35"
    />
    <path
      fill-rule="evenodd"
      clip-rule="evenodd"
      d="M7.58334 4.33337L5.79171 5.83337L4.41667 7.50004L7.83334 7.62507L7.58334 4.33337Z"
      fill="#E8821E"
    />
    <path
      fill-rule="evenodd"
      clip-rule="evenodd"
      d="M5.5 12.8334L7.70837 11.2917L7.5417 12.6251V13.3751L6.0417 13.0834L5.5 12.8334Z"
      fill="#DFCEC3"
    />
    <path
      fill-rule="evenodd"
      clip-rule="evenodd"
      d="M12.1667 12.8334L10 11.2917L10.1667 12.6251V13.3751L11.6667 13.0834L12.1667 12.8334Z"
      fill="#DFCEC3"
    />
    <path
      fill-rule="evenodd"
      clip-rule="evenodd"
      d="M6.91666 8.33337L7.37503 9.29175L5.74999 8.87508L6.91666 8.33337Z"
      fill="#393939"
    />
    <path
      fill-rule="evenodd"
      clip-rule="evenodd"
      d="M1.91667 0.041748L7.58334 4.33337L6.62504 2.00004L1.91667 0.041748Z"
      fill="#E88F35"
    />
    <path
      fill-rule="evenodd"
      clip-rule="evenodd"
      d="M1.91667 0.041687L1.16667 2.33335L1.58334 4.83335L1.29167 5.00002L1.70834 5.37502L1.37501 5.66669L1.83334 6.08335L1.54167 6.33335L2.20834 7.16669L5.33334 6.20835C6.86112 4.98613 7.61112 4.36113 7.58334 4.33335C7.55556 4.30558 5.66667 2.87502 1.91667 0.041687Z"
      fill="#8E5A30"
    />
    <path
      fill-rule="evenodd"
      clip-rule="evenodd"
      d="M15.4583 7.12506L16.625 10.5L13.7083 10.3334H11.8333V8.87506L11.9167 5.87506L12.3333 6.20839L15.4583 7.12506Z"
      fill="#F89D35"
    />
    <path
      fill-rule="evenodd"
      clip-rule="evenodd"
      d="M13.25 7.5L9.83332 7.58333L10.2083 9.33333L11.8333 8.91667L13.25 7.5Z"
      fill="#D87C30"
    />
    <path
      fill-rule="evenodd"
      clip-rule="evenodd"
      d="M13.25 7.54175L11.8333 8.87508V10.2084L13.25 7.54175Z"
      fill="#EA8D3A"
    />
    <path
      fill-rule="evenodd"
      clip-rule="evenodd"
      d="M11.8333 8.91669L10.1667 9.33335L9.62496 11.1251L9.99999 11.3334L11.8333 10.25V8.91669Z"
      fill="#F89D35"
    />
    <path
      fill-rule="evenodd"
      clip-rule="evenodd"
      d="M11.8333 10.25L12.1667 12.8333L9.99999 11.3333L11.8333 10.25Z"
      fill="#EB8F35"
    />
    <path
      fill-rule="evenodd"
      clip-rule="evenodd"
      d="M9.83332 7.58337L9.62495 11.1251L10.25 9.31256L9.83332 7.58337Z"
      fill="#EA8E3A"
    />
    <path
      fill-rule="evenodd"
      clip-rule="evenodd"
      d="M13.75 10.2917L11.8333 10.25L12.1667 12.8333L13.75 10.2917Z"
      fill="#D87C30"
    />
    <path
      fill-rule="evenodd"
      clip-rule="evenodd"
      d="M15.7083 13.9584L12.1667 12.8334L13.75 10.2917L16.625 10.5L15.7083 13.9584Z"
      fill="#EB8F35"
    />
    <path
      fill-rule="evenodd"
      clip-rule="evenodd"
      d="M10.0833 4.33337L11.8749 5.83337L13.25 7.50004L9.83332 7.62507L10.0833 4.33337Z"
      fill="#E8821E"
    />
    <path
      fill-rule="evenodd"
      clip-rule="evenodd"
      d="M10.75 8.33337L10.2916 9.29175L11.9167 8.87508L10.75 8.33337Z"
      fill="#393939"
    />
    <path
      fill-rule="evenodd"
      clip-rule="evenodd"
      d="M15.75 0.041748L10.0833 4.33337L11.0416 2.00004L15.75 0.041748Z"
      fill="#E88F35"
    />
    <path
      fill-rule="evenodd"
      clip-rule="evenodd"
      d="M15.75 0.041687L16.5 2.33335L16.0833 4.83335L16.375 5.00002L15.9583 5.37502L16.2917 5.66669L15.8333 6.08335L16.125 6.33335L15.4583 7.16669L12.3333 6.20835C10.8055 4.98613 10.0555 4.36113 10.0833 4.33335C10.1111 4.30558 12 2.87502 15.75 0.041687Z"
      fill="#8E5A30"
    />
  </g>
  <defs>
    <clipPath id="clip0_5763:146409">
      <rect
        width="15.6736"
        height="14"
        fill="white"
        transform="translate(0.326294)"
      />
    </clipPath>
  </defs>
</svg>
