<svg xmlns="http://www.w3.org/2000/svg" width="50" height="51" viewBox="0 0 50 51">
  <g id="Group_907" data-name="Group 907" transform="translate(-0.25 -0.5)">
    <g id="Group_1948" data-name="Group 1948">
      <ellipse id="Ellipse_126" data-name="Ellipse 126" cx="25" cy="25.5" rx="25" ry="25.5" transform="translate(0.25 0.5)"/>
      <g id="Group_686" data-name="Group 686" transform="translate(9.769 15.012)">
        <path id="Path_3018" data-name="Path 3018" d="M816.593,1988.133l-11.235,19.517c-.254-.448-.495-.847-.7-1.263-.036-.072.047-.221.1-.318q2.108-3.67,4.222-7.336,2.975-5.168,5.945-10.339a.441.441,0,0,1,.463-.266C815.767,1988.147,816.149,1988.133,816.593,1988.133Z" transform="translate(-786.486 -1988.124)" fill="#f9b819"/>
        <path id="Path_3019" data-name="Path 3019" d="M788.463,1988.1l-9.657,16.775c-.251-.437-.489-.829-.7-1.236-.037-.073.029-.222.082-.316q1.64-2.864,3.29-5.723,2.644-4.592,5.283-9.187a.523.523,0,0,1,.555-.319C787.672,1988.12,788.027,1988.1,788.463,1988.1Z" transform="translate(-761.513 -1988.092)" fill="#f9b819"/>
        <path id="Path_3020" data-name="Path 3020" d="M760.173,1988.136l-8.079,14.034c-.255-.445-.493-.84-.705-1.248-.034-.064.029-.2.078-.284q1.922-3.351,3.852-6.7c1.063-1.847,2.13-3.692,3.186-5.544a.445.445,0,0,1,.467-.266C759.351,1988.151,759.733,1988.136,760.173,1988.136Z" transform="translate(-736.378 -1988.128)" fill="#f9b819"/>
        <path id="Path_3021" data-name="Path 3021" d="M498.407,2135.279c.517,0,.988-.009,1.457.009.076,0,.167.12.216.2q2.22,3.843,4.432,7.692,1.152,2,2.3,4c.054.093.1.189.179.336-.514,0-.99.011-1.465-.011-.081,0-.174-.141-.228-.235q-2.123-3.677-4.237-7.359l-2.494-4.334C498.523,2135.5,498.479,2135.412,498.407,2135.279Z" transform="translate(-498.407 -2126.549)" fill="#fff"/>
        <path id="Path_3022" data-name="Path 3022" d="M666.711,2147.531c-.516,0-.978.01-1.439-.01-.083,0-.186-.123-.238-.213q-1.594-2.753-3.178-5.512l-3.558-6.181c-.053-.091-.1-.185-.174-.323.51,0,.981-.011,1.45.011.082,0,.179.134.233.227q1.823,3.151,3.636,6.307,1.565,2.719,3.128,5.438C666.61,2147.34,666.646,2147.409,666.711,2147.531Z" transform="translate(-648.653 -2126.559)" fill="#fff"/>
        <path id="Path_3023" data-name="Path 3023" d="M560.145,2147.541c-.5,0-.957.012-1.409-.01a.432.432,0,0,1-.269-.215q-2.534-4.383-5.057-8.773l-1.655-2.874c-.059-.1-.115-.2-.208-.369.527,0,1-.011,1.481.011.079,0,.169.147.225.243q2.132,3.693,4.256,7.389l2.481,4.311C560.034,2147.332,560.074,2147.41,560.145,2147.541Z" transform="translate(-548.397 -2126.569)" fill="#fff"/>
        <path id="Path_3024" data-name="Path 3024" d="M613.521,2147.554c-.505,0-.967.015-1.426-.012-.1-.006-.214-.148-.276-.254q-1.7-2.932-3.385-5.872-1.676-2.911-3.352-5.822c-.043-.075-.081-.155-.147-.281.515,0,.994-.008,1.472.009.068,0,.15.116.2.2q2.654,4.6,5.3,9.207l1.432,2.488C613.393,2147.313,613.446,2147.415,613.521,2147.554Z" transform="translate(-598.619 -2126.582)" fill="#fff"/>
        <path id="Path_3025" data-name="Path 3025" d="M725.717,1999.445c-.244-.422-.479-.807-.686-1.208a.412.412,0,0,1,.057-.318q2.074-3.619,4.158-7.233c.443-.769.89-1.536,1.325-2.31a.383.383,0,0,1,.4-.229c.393.016.786,0,1.248,0Z" transform="translate(-711.579 -1988.144)" fill="#f9b819"/>
      </g>
    </g>
  </g>
</svg>
